<?xml version="1.0" encoding="UTF-8"?>
<svg width="29px" height="17px" viewBox="0 0 29 17" version="1.1" xmlns="http://www.w3.org/2000/svg" xmlns:xlink="http://www.w3.org/1999/xlink">
    <!-- Generator: Sketch 53.2 (72643) - https://sketchapp.com -->
    <title>Group</title>
    <desc>Created with Sketch.</desc>
    <g id="Page-1" stroke="none" stroke-width="1" fill="none" fill-rule="evenodd">
        <g id="Artboard" transform="translate(-1201.000000, -204.000000)" fill="#636363" fill-rule="nonzero">
            <g id="Group" transform="translate(1201.000000, 204.008000)">
                <path d="M7.392,-1.42108547e-14 L10.008,-1.42108547e-14 L17.328,16.992 L13.872,16.992 L12.288,13.104 L4.92,13.104 L3.384,16.992 L0,16.992 L7.392,-1.42108547e-14 Z M11.232,10.512 L8.616,3.6 L5.952,10.512 L11.232,10.512 Z" id="A"></path>
                <path d="M22.965,7.788 L24.642,7.788 L28.646,16.992 L26.358,16.992 L25.565,15.042 L21.99,15.042 L21.223,16.992 L18.987,16.992 L22.965,7.788 Z M23.745,10.466 L22.627,13.326 L24.876,13.326 L23.745,10.466 Z" id="A"></path>
            </g>
        </g>
    </g>
</svg>