<?xml version="1.0" encoding="UTF-8" standalone="no"?>
<svg width="333px" height="188px" viewBox="0 0 333 188" version="1.1" xmlns="http://www.w3.org/2000/svg" xmlns:xlink="http://www.w3.org/1999/xlink">
    <!-- Generator: Sketch 3.6.1 (26313) - http://www.bohemiancoding.com/sketch -->
    <title>Group 6</title>
    <desc>Created with Sketch.</desc>
    <defs></defs>
    <g id="Page-1" stroke="none" stroke-width="1" fill="none" fill-rule="evenodd">
        <g id="Artboard-7" transform="translate(-298.000000, -269.000000)">
            <g id="Group-6" transform="translate(299.000000, 269.000000)">
                <g id="Group-5" transform="translate(0.000000, 32.382775)" stroke="#757575" stroke-opacity="0.254387455" stroke-width="2.69999993" stroke-linecap="square" stroke-dasharray="5.399999856948853">
                    <path d="M0.449864499,125.483254 L331.550136,125.483254" id="Line"></path>
                    <path d="M0.449864499,84.1052632 L331.550136,84.1052632" id="Line"></path>
                    <path d="M0.449864499,42.7272727 L331.550136,42.7272727" id="Line"></path>
                    <path d="M0.449864499,1.3492823 L331.550136,1.3492823" id="Line"></path>
                </g>
                <g id="Group-4" transform="translate(18.894309, 0.000000)">
                    <path d="M49.4850949,10.7863021 C49.4850949,9.79711218 50.2855603,8.99521531 51.2765947,8.99521531 L67.4876329,8.99521531 C68.477051,8.99521531 69.8150098,9.58454408 70.4925474,10.3296635 L77.0630082,17.5555039 C77.7331586,18.2924993 77.7405458,19.4792809 77.0630082,20.2244004 L70.4925474,27.4502408 C69.822397,28.1872362 68.4786673,28.784689 67.4876329,28.784689 L51.2765947,28.784689 C50.2871767,28.784689 49.4850949,27.9844081 49.4850949,26.9936022 L49.4850949,10.7863021 Z" id="Rectangle-263" fill="#455E71"></path>
                    <path d="M135.859079,95.341326 C135.859079,94.3521361 136.659544,93.5502392 137.650578,93.5502392 L153.861617,93.5502392 C154.851035,93.5502392 156.188994,94.139568 156.866531,94.8846875 L163.436992,102.110528 C164.107142,102.847523 164.11453,104.034305 163.436992,104.779424 L156.866531,112.005265 C156.196381,112.74226 154.852651,113.339713 153.861617,113.339713 L137.650578,113.339713 C136.66116,113.339713 135.859079,112.539432 135.859079,111.548626 L135.859079,95.341326 Z" id="Rectangle-263-Copy" fill="#455E71"></path>
                    <path d="M220.433604,136.719316 C220.433604,135.730127 221.23407,134.92823 222.225104,134.92823 L238.436142,134.92823 C239.42556,134.92823 240.763519,135.517558 241.441057,136.262678 L248.011518,143.488518 C248.681668,144.225514 248.689055,145.412295 248.011518,146.157415 L241.441057,153.383255 C240.770906,154.120251 239.427177,154.717703 238.436142,154.717703 L222.225104,154.717703 C221.235686,154.717703 220.433604,153.917422 220.433604,152.926617 L220.433604,136.719316 Z" id="Rectangle-263-Copy-2" fill="#455E71"></path>
                    <rect id="Rectangle-259" fill="#1B8AF3" x="0" y="0" width="38.6883469" height="186.200957"></rect>
                    <rect id="Rectangle-259-Copy" fill="#1B74C8" x="85.4742547" y="17.9904306" width="38.6883469" height="168.210526"></rect>
                    <rect id="Rectangle-259-Copy-2" fill="#1A5184" x="170.948509" y="102.545455" width="38.6883469" height="85.4545455"></rect>
                    <rect id="Rectangle-259-Copy-3" fill="#1B548B" x="256.422764" y="143.023923" width="38.6883469" height="43.1770335"></rect>
                </g>
            </g>
        </g>
    </g>
</svg>