<?xml version="1.0" encoding="UTF-8" standalone="no"?>
<svg width="333px" height="76px" viewBox="0 0 333 76" version="1.1" xmlns="http://www.w3.org/2000/svg" xmlns:xlink="http://www.w3.org/1999/xlink">
    <!-- Generator: Sketch 3.6.1 (26313) - http://www.bohemiancoding.com/sketch -->
    <title>Group 5</title>
    <desc>Created with Sketch.</desc>
    <defs></defs>
    <g id="Page-1" stroke="none" stroke-width="1" fill="none" fill-rule="evenodd">
        <g id="Mobile-App_1-Copy" transform="translate(-646.000000, -371.000000)">
            <g id="Group-5" transform="translate(646.000000, 371.000000)">
                <text id="Funnels" opacity="0.89219916" font-family="HelveticaNeue, Helvetica Neue" font-size="12" font-weight="normal" line-spacing="14.9599999" letter-spacing="-0.036923077" fill="#FFFFFF">
                    <tspan x="94.0463077" y="71.9767442">Funnels</tspan>
                </text>
                <g id="Group-8" transform="translate(89.824934, 0.000000)">
                    <g id="Group-47">
                        <ellipse id="Oval-1-Copy-22" fill="#6E89EC" cx="24.6578249" cy="24.744186" rx="24.6578249" ry="24.744186"></ellipse>
                        <g id="Path-7-+-Path-7-Copy-+-Path-8" transform="translate(12.328912, 16.496124)" stroke="#FFFFFF" stroke-width="1.49464612" stroke-linecap="round" stroke-linejoin="round">
                            <path d="M0.067978966,0.898013853 C0.067978966,0.898013853 0.291805689,1.15382406 0.403719051,1.28172917 C3.55479606,4.88307603 9.85695007,12.0857698 9.85695007,12.0857698 L9.85695007,18.9705426 L14.3064824,18.9705426" id="Path-7"></path>
                            <path d="M14.3064824,0.898013853 L24.0954535,12.0857698 L24.0954535,18.9705426" id="Path-7-Copy" transform="translate(19.200968, 9.934278) scale(-1, 1) translate(-19.200968, -9.934278) "></path>
                            <path d="M0.067978966,0.875563541 L24.0954535,0.875563541" id="Path-8"></path>
                        </g>
                    </g>
                </g>
                <g id="Group-9" transform="translate(7.925729, 0.000000)"></g>
                <text id="More-Plugins" opacity="0.89219916" font-family="HelveticaNeue, Helvetica Neue" font-size="12" font-weight="normal" line-spacing="14.9599999" letter-spacing="-0.036923077" fill="#FFFFFF">
                    <tspan x="263.199029" y="71.9767442">More Plugins</tspan>
                </text>
                <g id="Group-6" transform="translate(271.236074, 0.883721)">
                    <ellipse id="Oval-216" stroke="#B9CCFF" stroke-width="0.879999995" cx="24.6578249" cy="24.744186" rx="24.6578249" ry="24.744186"></ellipse>
                    <text id="10+" font-family="HelveticaNeue, Helvetica Neue" font-size="18.4799999" font-weight="normal" letter-spacing="-0.674921724" fill="#FFFFFF">
                        <tspan x="10.2916459" y="31.255814">10+</tspan>
                    </text>
                </g>
                <text id="User-Profiles" opacity="0.89219916" font-family="HelveticaNeue, Helvetica Neue" font-size="12" font-weight="normal" line-spacing="14.9599999" letter-spacing="-0.036923077" fill="#FFFFFF">
                    <tspan x="170.865549" y="71.9767442">User Profiles</tspan>
                </text>
                <g id="Group-7" transform="translate(179.649867, 0.883721)">
                    <g id="Group-42">
                        <ellipse id="Oval-1-Copy-17" fill="#6A8DF5" cx="24.6578249" cy="24.744186" rx="24.6578249" ry="24.744186"></ellipse>
                        <rect id="Rectangle-101" fill="#FFFFFF" x="27.1236074" y="18.9705426" width="8.21927498" height="1.6496124" rx="44.6080898"></rect>
                        <rect id="Rectangle-101-Copy" fill="#FFFFFF" x="25.4797524" y="22.2697674" width="9.86312997" height="1.6496124" rx="44.6080898"></rect>
                        <rect id="Rectangle-101-Copy-2" fill="#FFFFFF" x="28.7674624" y="25.5689922" width="6.57541998" height="1.6496124" rx="44.6080898"></rect>
                        <path d="M14.1799219,32.9922481 C14.0446911,32.4064159 13.9727675,31.7922459 13.9727675,31.1593454 C13.9727675,28.2477204 15.4949663,25.7325106 17.7004428,24.5491155 C16.8270119,23.708828 16.2741645,22.4655914 16.2741645,21.0783807 C16.2741645,18.5476702 18.1141118,16.496124 20.3838019,16.496124 C22.6534921,16.496124 24.4934394,18.5476702 24.4934394,21.0783807 C24.4934394,22.4056285 23.9873532,23.60108 23.1786088,24.4379122 C25.5007866,25.5693272 27.1236074,28.1530265 27.1236074,31.1593454 C27.1236074,31.7922459 27.0516838,32.4064159 26.916453,32.9922481 L14.1799219,32.9922481 Z" id="Oval-22" stroke="#FFFFFF" stroke-width="1.39673589" stroke-linecap="round" stroke-linejoin="round"></path>
                        <g id="Group" transform="translate(15.616622, 18.145736)"></g>
                    </g>
                </g>
                <text id="Drill" opacity="0.89219916" font-family="HelveticaNeue, Helvetica Neue" font-size="12" font-weight="normal" line-spacing="14.9599999" letter-spacing="-0.036923077" fill="#FFFFFF">
                    <tspan x="14.0918143" y="71.9767442">Drill</tspan>
                </text>
                <g id="Group-4">
                    <ellipse id="Oval-1-Copy-20" fill="#6C8BF0" cx="24.6578249" cy="24.744186" rx="24.6578249" ry="24.744186"></ellipse>
                    <g id="Group-Copy-3-+-Rectangle-64-+-Star-2-Copy" transform="translate(23.835897, 26.393798) scale(-1, 1) translate(-23.835897, -26.393798) translate(10.685057, 16.496124)" fill="#FFFFFF">
                        <g id="Group-Copy-3-+-Rectangle-64-+-Star-2">
                            <g id="Group-Copy-3" transform="translate(8.007922, 1.466322)">
                                <rect id="Rectangle-11" x="0" y="0" width="17.4718302" height="1.75958663" rx="49.5615949"></rect>
                                <rect id="Rectangle-11-Copy" x="0" y="4.39896641" width="14.5598585" height="1.75958663" rx="49.5615949"></rect>
                                <rect id="Rectangle-11-Copy-2" x="0" y="8.79793282" width="11.6478868" height="1.75958663" rx="49.5615949"></rect>
                                <path d="M2.86154118,14.0494808 C3.13062882,13.6429839 3.74600437,13.313453 4.22511883,13.313453 L7.13157083,13.313453 C7.61556632,13.313453 8.00792219,13.7039623 8.00792219,14.1932464 L8.00792219,14.1932464 C8.00792219,14.6791428 7.60761898,15.0730397 7.12339054,15.0730397 L3.06851043,15.0730397 C2.57999709,15.0730397 2.39761898,14.7503044 2.67120506,14.3370119 L2.86154118,14.0494808 Z" id="Rectangle-11-Copy-3"></path>
                            </g>
                            <g id="Rectangle-64-+-Star-2">
                                <rect id="Rectangle-64" x="3.20316888" y="0" width="1.74718309" height="16.1295435"></rect>
                                <path d="M0.79392742,19.2433066 C0.383546494,19.2433066 0.267316536,18.9843612 0.528499274,18.6719 L3.76085529,14.8049297 C3.93532486,14.5962062 4.22004407,14.5984172 4.39266549,14.8049297 L7.6250215,18.6719 C7.88881051,18.9874791 7.77704171,19.2433066 7.35959336,19.2433066 L0.79392742,19.2433066 Z" id="Star-2" transform="translate(4.076706, 16.964543) scale(1, -1) translate(-4.076706, -16.964543) "></path>
                            </g>
                        </g>
                    </g>
                </g>
            </g>
        </g>
    </g>
</svg>