<?xml version="1.0" encoding="UTF-8" standalone="no"?>
<svg width="385px" height="175px" viewBox="0 0 385 175" version="1.1" xmlns="http://www.w3.org/2000/svg" xmlns:xlink="http://www.w3.org/1999/xlink">
    <!-- Generator: Sketch 3.6.1 (26313) - http://www.bohemiancoding.com/sketch -->
    <title>Macbook Pro Copy 2 + Line Copy Copy + object + object + object + xxu</title>
    <desc>Created with Sketch.</desc>
    <defs>
        <rect id="path-1" x="0" y="0" width="388" height="179"></rect>
    </defs>
    <g id="Page-1" stroke="none" stroke-width="1" fill="none" fill-rule="evenodd">
        <g id="Artboard-7" transform="translate(-483.000000, -302.000000)">
            <g id="Macbook-Pro-Copy-2-+-Line-Copy-Copy-+-object-+-object-+-object-+-xxu" transform="translate(480.000000, 298.000000)">
                <mask id="mask-2" fill="white">
                    <use xlink:href="#path-1"></use>
                </mask>
                <use id="Mask" fill="#D8D8D8" opacity="0" xlink:href="#path-1"></use>
                <g mask="url(#mask-2)">
                    <g transform="translate(3.712919, 4.637306)">
                        <g id="Macbook-Pro-Copy-2-+-Line-Copy-Copy" stroke-width="1" fill="none">
                            <g id="Macbook-Pro-Copy-2" fill="#F3F3F3">
                                <rect id="Rectangle-Copy" x="0" y="0" width="529.090909" height="9.69639649" rx="5.00322373"></rect>
                            </g>
                        </g>
                        <rect id="Rectangle-780" fill="#F3F3F3" x="0" y="0" width="36.2009569" height="10.2020725"></rect>
                        <g id="object-+-object-+-object" opacity="0.648145989" stroke-width="1" fill="none" transform="translate(4.641148, 2.782383)">
                            <ellipse id="object" fill="#9B9B9B" cx="113.46553" cy="92.9404777" rx="1.94892811" ry="1.91979392"></ellipse>
                            <path d="M119.442243,94.8602716 C120.518606,94.8602716 121.391171,94.0007506 121.391171,92.9404777 C121.391171,91.8802048 120.518606,91.0206837 119.442243,91.0206837 C118.36588,91.0206837 117.493315,91.8802048 117.493315,92.9404777 C117.493315,94.0007506 118.36588,94.8602716 119.442243,94.8602716 Z" id="object" fill="#9B9B9B"></path>
                            <ellipse id="object" fill="#9B9B9B" cx="125.418956" cy="92.9404777" rx="1.94892811" ry="1.91979392"></ellipse>
                            <ellipse id="Oval-204" fill="#C6C6C6" cx="1.85645933" cy="1.85492228" rx="1.85645933" ry="1.85492228"></ellipse>
                            <ellipse id="Oval-204" fill="#C6C6C6" cx="7.42583732" cy="1.85492228" rx="1.85645933" ry="1.85492228"></ellipse>
                            <ellipse id="Oval-204" fill="#C6C6C6" cx="12.9952153" cy="1.85492228" rx="1.85645933" ry="1.85492228"></ellipse>
                        </g>
                        <g id="Tablet_App" stroke-width="1" fill="none" transform="translate(0.000000, 8.347150)">
                            <rect id="Rectangle-216" fill="#D8D8D8" x="107.779969" y="97.1360967" width="7.02912843" height="2.34956822"></rect>
                            <rect id="Rectangle-207" fill="#D4D4D4" x="91.3786696" y="0.803799655" width="292.880351" height="291.346459"></rect>
                            <rect id="Rectangle-194" fill="#FFFFFF" x="98.407798" y="5.5029361" width="281.165137" height="42.292228"></rect>
                            <rect id="Rectangle-195" fill="#FFFFFF" x="98.407798" y="54.8438687" width="48.0323776" height="49.3409326"></rect>
                            <rect id="Rectangle-209" fill="#FFFFFF" opacity="0.695079291" x="98.4007829" y="104.184801" width="281.165137" height="34.0687392"></rect>
                            <rect id="Rectangle-209-Copy" fill="#FFFFFF" opacity="0.855643657" x="98.4007829" y="138.253541" width="281.165137" height="34.0687392"></rect>
                            <rect id="Rectangle-195-Copy" fill="#FFFFFF" x="145.268654" y="54.8438687" width="48.0323776" height="49.3409326"></rect>
                            <rect id="Rectangle-195-Copy-2" fill="#FFFFFF" x="192.12951" y="54.8438687" width="48.0323776" height="49.3409326"></rect>
                            <rect id="Rectangle-195-Copy-3" fill="#FFFFFF" x="238.990367" y="54.8438687" width="48.0323776" height="49.3409326"></rect>
                            <rect id="Rectangle-195-Copy-4" fill="#FFFFFF" x="285.851223" y="54.8438687" width="48.0323776" height="49.3409326"></rect>
                            <rect id="Rectangle-195-Copy-5" fill="#FFFFFF" x="332.712079" y="54.8438687" width="46.8608562" height="49.3409326"></rect>
                            <g id="Group-8" transform="translate(0.000000, 0.803800)">
                                <rect id="Rectangle-191" fill="#373737" x="0" y="0" width="91.3786696" height="291.346459"></rect>
                                <rect id="Rectangle-191" fill="#36BF38" x="0" y="0" width="91.3786696" height="23.4956822"></rect>
                            </g>
                            <g id="Group-12" transform="translate(238.723793, 147.899136) scale(-1, -1) translate(-238.723793, -147.899136) translate(104.805568, 111.480829)">
                                <ellipse id="Oval-68" fill="#1B8AF3" cx="4.67268053" cy="52.6042218" rx="4.00173153" ry="4.0464786"></ellipse>
                                <ellipse id="Oval-68-Copy" fill="#1B8AF3" cx="63.4126679" cy="25.6276978" rx="4.00173153" ry="4.0464786"></ellipse>
                                <ellipse id="Oval-68-Copy-2" fill="#1B8AF3" cx="130.108193" cy="68.7901363" rx="4.00173153" ry="4.0464786"></ellipse>
                                <ellipse id="Oval-68-Copy-3" fill="#1B8AF3" cx="196.803719" cy="25.6276978" rx="4.00173153" ry="4.0464786"></ellipse>
                                <path d="M3.97776893,52.6042218 L63.4126679,25.6276978 L129.940456,68.7901363 L196.236607,25.6276978 L263.858681,4.0464786" id="Path-66" stroke="#1B8AF3" stroke-width="2.68238319"></path>
                            </g>
                            <rect id="Rectangle-201" fill="#929292" opacity="0.379139459" x="107.779969" y="71.2908463" width="28.1165137" height="7.04870466"></rect>
                            <rect id="Rectangle-201" fill="#929292" opacity="0.414179104" x="112.466055" y="21.9499136" width="28.1165137" height="7.04870466"></rect>
                            <rect id="Rectangle-201" fill="#929292" opacity="0.414179104" x="203.844725" y="21.9499136" width="28.1165137" height="7.04870466"></rect>
                            <ellipse id="Oval-73" stroke="#1B8AF3" stroke-width="2.35296774" opacity="0.57083722" cx="156.983868" cy="26.6490501" rx="11.7152141" ry="11.7478411"></ellipse>
                            <ellipse id="Oval-73" stroke="#E88B44" stroke-width="2.35296774" opacity="0.57083722" cx="248.362538" cy="26.6490501" rx="11.7152141" ry="11.7478411"></ellipse>
                            <rect id="Rectangle-201-Copy" fill="#929292" opacity="0.379139459" x="154.640826" y="71.2908463" width="28.1165137" height="7.04870466"></rect>
                            <rect id="Rectangle-201-Copy-2" fill="#929292" opacity="0.379139459" x="201.501682" y="71.2908463" width="28.1165137" height="7.04870466"></rect>
                            <rect id="Rectangle-201-Copy-3" fill="#929292" opacity="0.379139459" x="248.362538" y="71.2908463" width="28.1165137" height="7.04870466"></rect>
                            <rect id="Rectangle-201-Copy-4" fill="#929292" opacity="0.379139459" x="295.223394" y="71.2908463" width="28.1165137" height="7.04870466"></rect>
                            <rect id="Rectangle-201-Copy-5" fill="#929292" opacity="0.379139459" x="342.08425" y="71.2908463" width="28.1165137" height="7.04870466"></rect>
                            <rect id="Rectangle-212" fill="#6CACE8" x="173.385168" y="24.2994819" width="11.7152141" height="9.39827288"></rect>
                            <rect id="Rectangle-212" fill="#BBBBBB" x="173.385168" y="17.2507772" width="11.7152141" height="4.69913644"></rect>
                            <rect id="Rectangle-212" fill="#BBBBBB" x="264.763838" y="17.2507772" width="11.7152141" height="4.69913644"></rect>
                            <path d="M298.737958,16.0759931 L298.737958,37.2221071" id="Line" stroke="#979797" stroke-width="2.35296774" stroke-linecap="square" opacity="0.324335354"></path>
                            <path d="M322.168386,16.0759931 L322.168386,37.2221071" id="Line" stroke="#979797" stroke-width="2.35296774" stroke-linecap="square" opacity="0.324335354"></path>
                            <path d="M345.598815,16.0759931 L345.598815,37.2221071" id="Line" stroke="#979797" stroke-width="2.35296774" stroke-linecap="square" opacity="0.324335354"></path>
                            <path d="M369.029243,16.0759931 L369.029243,37.2221071" id="Line" stroke="#979797" stroke-width="2.35296774" stroke-linecap="square" opacity="0.324335354"></path>
                            <rect id="Rectangle-212-Copy" fill="#E1AC83" x="264.763838" y="24.2994819" width="11.7152141" height="9.39827288"></rect>
                            <rect id="Rectangle-216" fill="#6ABA70" x="105.436926" y="97.1360967" width="7.02912843" height="2.34956822"></rect>
                            <rect id="Rectangle-216" fill="#6ABA70" x="114.809098" y="94.7865285" width="7.02912843" height="4.69913644"></rect>
                            <rect id="Rectangle-216" fill="#6ABA70" x="124.181269" y="87.7378238" width="7.02912843" height="11.7478411"></rect>
                            <rect id="Rectangle-216" fill="#6ABA70" x="133.55344" y="90.0873921" width="7.02912843" height="9.39827288"></rect>
                            <g id="Group-9" transform="translate(169.870604, 93.611744) scale(-1, 1) translate(-169.870604, -93.611744) translate(152.297783, 87.737824)" fill="#6ABA70">
                                <rect id="Rectangle-216" x="0" y="9.39827288" width="7.02912843" height="2.34956822"></rect>
                                <rect id="Rectangle-216" x="9.37217124" y="7.04870466" width="7.02912843" height="4.69913644"></rect>
                                <rect id="Rectangle-216" x="18.7443425" y="0" width="7.02912843" height="11.7478411"></rect>
                                <rect id="Rectangle-216" x="28.1165137" y="2.34956822" width="7.02912843" height="9.39827288"></rect>
                            </g>
                            <rect id="Rectangle-216" fill="#6ABA70" x="199.158639" y="97.1360967" width="7.02912843" height="2.34956822"></rect>
                            <rect id="Rectangle-216" fill="#6ABA70" x="208.53081" y="90.0873921" width="7.02912843" height="9.39827288"></rect>
                            <rect id="Rectangle-216" fill="#6ABA70" x="217.902981" y="94.7865285" width="7.02912843" height="4.69913644"></rect>
                            <rect id="Rectangle-216" fill="#6ABA70" x="227.275153" y="90.0873921" width="7.02912843" height="9.39827288"></rect>
                            <rect id="Rectangle-216" fill="#6ABA70" x="246.019495" y="97.1360967" width="7.02912843" height="2.34956822"></rect>
                            <rect id="Rectangle-216" fill="#6ABA70" x="255.391666" y="92.4369603" width="7.02912843" height="7.04870466"></rect>
                            <rect id="Rectangle-216" fill="#6ABA70" x="264.763838" y="92.4369603" width="7.02912843" height="7.04870466"></rect>
                            <rect id="Rectangle-216" fill="#6ABA70" x="274.136009" y="90.0873921" width="7.02912843" height="9.39827288"></rect>
                            <rect id="Rectangle-216" fill="#6ABA70" x="292.880351" y="90.0873921" width="7.02912843" height="9.39827288"></rect>
                            <rect id="Rectangle-216" fill="#6ABA70" x="302.252523" y="92.4369603" width="7.02912843" height="7.04870466"></rect>
                            <rect id="Rectangle-216" fill="#6ABA70" x="311.624694" y="87.7378238" width="7.02912843" height="11.7478411"></rect>
                            <rect id="Rectangle-216" fill="#6ABA70" x="320.996865" y="90.0873921" width="7.02912843" height="9.39827288"></rect>
                            <rect id="Rectangle-216" fill="#6ABA70" x="339.741208" y="97.1360967" width="7.02912843" height="2.34956822"></rect>
                            <rect id="Rectangle-216" fill="#6ABA70" x="349.113379" y="94.7865285" width="7.02912843" height="4.69913644"></rect>
                            <rect id="Rectangle-216" fill="#6ABA70" x="358.48555" y="97.1360967" width="7.02912843" height="2.34956822"></rect>
                            <rect id="Rectangle-216" fill="#6ABA70" x="367.857721" y="87.7378238" width="7.02912843" height="11.7478411"></rect>
                            <ellipse id="Oval-75" fill="#D8D8D8" opacity="0.296700093" cx="11.7152141" cy="36.047323" rx="7.02912843" ry="7.04870466"></ellipse>
                            <rect id="Rectangle-266" fill="#D8D8D8" opacity="0.296700093" x="23.4304281" y="33.6977547" width="35.1456422" height="4.69913644"></rect>
                            <ellipse id="Oval-75" fill="#FFFFFF" opacity="0.296700093" cx="11.7152141" cy="12.5516408" rx="7.02912843" ry="7.04870466"></ellipse>
                            <rect id="Rectangle-266" fill="#FFFFFF" opacity="0.296700093" x="23.4304281" y="10.2020725" width="35.1456422" height="4.69913644"></rect>
                            <ellipse id="Oval-75" fill="#D8D8D8" opacity="0.296700093" cx="11.7152141" cy="59.5430052" rx="7.02912843" ry="7.04870466"></ellipse>
                            <rect id="Rectangle-266" fill="#D8D8D8" opacity="0.296700093" x="23.4304281" y="57.193437" width="56.2330275" height="4.69913644"></rect>
                            <ellipse id="Oval-75" fill="#D8D8D8" opacity="0.296700093" cx="11.7152141" cy="83.0386874" rx="7.02912843" ry="7.04870466"></ellipse>
                            <rect id="Rectangle-266" fill="#D8D8D8" opacity="0.296700093" x="23.4304281" y="80.6891192" width="44.5178134" height="4.69913644"></rect>
                            <ellipse id="Oval-75" fill="#D8D8D8" opacity="0.296700093" cx="11.7152141" cy="106.53437" rx="7.02912843" ry="7.04870466"></ellipse>
                            <rect id="Rectangle-266" fill="#D8D8D8" opacity="0.296700093" x="23.4304281" y="104.184801" width="44.5178134" height="4.69913644"></rect>
                            <ellipse id="Oval-75" fill="#D8D8D8" opacity="0.296700093" cx="11.7152141" cy="130.030052" rx="7.02912843" ry="7.04870466"></ellipse>
                            <rect id="Rectangle-266" fill="#D8D8D8" opacity="0.296700093" x="23.4304281" y="127.680484" width="35.1456422" height="4.69913644"></rect>
                            <ellipse id="Oval-75" fill="#D8D8D8" opacity="0.296700093" cx="11.7152141" cy="153.525734" rx="7.02912843" ry="7.04870466"></ellipse>
                            <rect id="Rectangle-266" fill="#D8D8D8" opacity="0.296700093" x="23.4304281" y="151.176166" width="49.203899" height="4.69913644"></rect>
                        </g>
                    </g>
                </g>
            </g>
        </g>
    </g>
</svg>