<svg width="68" height="62" viewBox="0 0 68 62" fill="none" xmlns="http://www.w3.org/2000/svg">
<path d="M40.8916 16.2619C40.8916 15.1851 40.0379 14.3121 38.9847 14.3121H1.90673C0.853592 14.3121 -0.000141144 15.1851 -0.000141144 16.2619V25.1444C-0.000141144 26.2212 0.853592 27.0942 1.90673 27.0942H38.9847C40.0379 27.0942 40.8916 26.2212 40.8916 25.1444V16.2619Z" fill="#E1EFFF"/>
<path d="M9.95795 30.6688L13.4539 27.0942H9.95795V30.6688Z" fill="#E1EFFF"/>
<path d="M8.01953 2.7761C8.01953 1.2429 9.26244 0 10.7956 0H64.7754C66.3086 0 67.5516 1.2429 67.5516 2.7761V15.4228C67.5516 16.956 66.3086 18.1989 64.7754 18.1989H10.7956C9.26243 18.1989 8.01953 16.956 8.01953 15.4228V2.7761Z" fill="#FFC760"/>
<path d="M53.0541 23.2884L47.9646 18.1989H53.0541V23.2884Z" fill="#FFC760"/>
<path d="M8.01953 2.7761C8.01953 1.2429 9.26244 0 10.7956 0H59.2232C60.7564 0 61.9993 1.2429 61.9993 2.7761V15.4228C61.9993 16.956 60.7564 18.1989 59.2232 18.1989H10.7956C9.26243 18.1989 8.01953 16.956 8.01953 15.4228V2.7761Z" fill="#FFF4CE"/>
<path fill-rule="evenodd" clip-rule="evenodd" d="M18.7334 60.0371C18.6885 60.0099 18.6348 60.0099 18.5899 60.0371L16.3093 61.4166C16.1962 61.485 16.0639 61.3745 16.0855 61.2295L16.5211 58.3077C16.5297 58.2501 16.5131 58.1914 16.4767 58.1506L14.6317 56.0814C14.5402 55.9787 14.5907 55.7998 14.7172 55.7787L17.2669 55.3524C17.3172 55.344 17.3606 55.3077 17.3831 55.2553L18.5233 52.597C18.5799 52.4651 18.7434 52.4651 18.8 52.597L19.9402 55.2553C19.9627 55.3077 20.0061 55.344 20.0564 55.3524L22.6061 55.7787C22.7326 55.7998 22.7831 55.9787 22.6916 56.0814L20.8466 58.1506C20.8102 58.1914 20.7936 58.2501 20.8022 58.3077L21.2378 61.2295C21.2594 61.3745 21.1271 61.485 21.014 61.4166L18.7334 60.0371Z" fill="#E49700"/>
<path d="M27.4521 6.16912C27.4521 5.65805 27.8664 5.24375 28.3775 5.24375H60.4569C60.968 5.24375 61.3823 5.65805 61.3823 6.16912C61.3823 6.68018 60.968 7.09448 60.4569 7.09448H28.3775C27.8664 7.09448 27.4521 6.68018 27.4521 6.16912Z" fill="#FFC760"/>
<path d="M27.4521 11.4129C27.4521 10.9018 27.8664 10.4875 28.3775 10.4875H46.268C46.779 10.4875 47.1933 10.9018 47.1933 11.4129C47.1933 11.9239 46.779 12.3382 46.268 12.3382H28.3775C27.8664 12.3382 27.4521 11.9239 27.4521 11.4129Z" fill="#FFC760"/>
<path d="M40.7748 49L38.7246 44.8996H42.825L40.7748 49Z" fill="#A7AEB8"/>
<path d="M17.3784 32.8396C17.3784 31.6407 18.3503 30.6688 19.5492 30.6688H61.7592C62.9581 30.6688 63.93 31.6407 63.93 32.8396V42.7288C63.93 43.9277 62.9581 44.8996 61.7592 44.8996H19.5492C18.3503 44.8996 17.3784 43.9277 17.3784 42.7288V32.8396Z" fill="#A7AEB8"/>
<path d="M17.3784 32.8396C17.3784 31.6407 18.3503 30.6688 19.5492 30.6688H57.4176C58.6165 30.6688 59.5884 31.6407 59.5884 32.8396V42.7288C59.5884 43.9277 58.6165 44.8996 57.4176 44.8996H19.5492C18.3503 44.8996 17.3784 43.9277 17.3784 42.7288V32.8396Z" fill="#E2E4E8"/>
<path d="M31.1273 38.146C31.1273 39.0785 30.3714 39.8344 29.4389 39.8344C28.5064 39.8344 27.7505 39.0785 27.7505 38.146C27.7505 37.2135 28.5064 36.4576 29.4389 36.4576C30.3714 36.4576 31.1273 37.2135 31.1273 38.146Z" fill="white"/>
<path d="M38.6034 38.146C38.6034 39.0785 37.8474 39.8344 36.915 39.8344C35.9825 39.8344 35.2266 39.0785 35.2266 38.146C35.2266 37.2135 35.9825 36.4576 36.915 36.4576C37.8474 36.4576 38.6034 37.2135 38.6034 38.146Z" fill="white"/>
<path d="M46.0814 38.146C46.0814 39.0785 45.3255 39.8344 44.393 39.8344C43.4605 39.8344 42.7046 39.0785 42.7046 38.146C42.7046 37.2135 43.4605 36.4576 44.393 36.4576C45.3255 36.4576 46.0814 37.2135 46.0814 38.146Z" fill="white"/>
<path d="M53.5589 38.146C53.5589 39.0785 52.803 39.8344 51.8705 39.8344C50.9381 39.8344 50.1821 39.0785 50.1821 38.146C50.1821 37.2135 50.9381 36.4576 51.8705 36.4576C52.803 36.4576 53.5589 37.2135 53.5589 38.146Z" fill="white"/>
</svg>
