<svg width="20" height="19" viewBox="0 0 20 19" fill="none" xmlns="http://www.w3.org/2000/svg">
<path d="M2 1V0H1V1H2ZM18 1H19V0H18V1ZM4.29289 8.29289C3.90237 8.68342 3.90237 9.31658 4.29289 9.70711C4.68342 10.0976 5.31658 10.0976 5.70711 9.70711L4.29289 8.29289ZM8 6L8.70711 5.29289C8.31658 4.90237 7.68342 4.90237 7.29289 5.29289L8 6ZM11 9L10.2929 9.70711C10.6834 10.0976 11.3166 10.0976 11.7071 9.70711L11 9ZM15.7071 5.70711C16.0976 5.31658 16.0976 4.68342 15.7071 4.29289C15.3166 3.90237 14.6834 3.90237 14.2929 4.29289L15.7071 5.70711ZM5.29289 17.2929C4.90237 17.6834 4.90237 18.3166 5.29289 18.7071C5.68342 19.0976 6.31658 19.0976 6.70711 18.7071L5.29289 17.2929ZM10 14L10.7071 13.2929C10.3166 12.9024 9.68342 12.9024 9.29289 13.2929L10 14ZM13.2929 18.7071C13.6834 19.0976 14.3166 19.0976 14.7071 18.7071C15.0976 18.3166 15.0976 17.6834 14.7071 17.2929L13.2929 18.7071ZM1 0C0.447715 0 0 0.447715 0 1C0 1.55228 0.447715 2 1 2V0ZM19 2C19.5523 2 20 1.55228 20 1C20 0.447715 19.5523 0 19 0V2ZM2 2H18V0H2V2ZM17 1V13H19V1H17ZM17 13H3V15H17V13ZM3 13V1H1V13H3ZM3 13H1C1 14.1046 1.89543 15 3 15V13ZM17 13V15C18.1046 15 19 14.1046 19 13H17ZM5.70711 9.70711L8.70711 6.70711L7.29289 5.29289L4.29289 8.29289L5.70711 9.70711ZM7.29289 6.70711L10.2929 9.70711L11.7071 8.29289L8.70711 5.29289L7.29289 6.70711ZM11.7071 9.70711L15.7071 5.70711L14.2929 4.29289L10.2929 8.29289L11.7071 9.70711ZM6.70711 18.7071L10.7071 14.7071L9.29289 13.2929L5.29289 17.2929L6.70711 18.7071ZM9.29289 14.7071L13.2929 18.7071L14.7071 17.2929L10.7071 13.2929L9.29289 14.7071ZM1 2H19V0H1V2Z" fill="#333C48"/>
</svg>
