<svg width="20" height="20" viewBox="0 0 20 20" fill="none" xmlns="http://www.w3.org/2000/svg">
<path fill-rule="evenodd" clip-rule="evenodd" d="M0 10C0 4.48 4.47 0 9.99 0C15.52 0 20 4.48 20 10C20 15.52 15.52 20 9.99 20C4.47 20 0 15.52 0 10ZM2 10C2 14.42 5.58 18 10 18C14.42 18 18 14.42 18 10C18 5.58 14.42 2 10 2C5.58 2 2 5.58 2 10Z" fill="#333C48"/>
<path d="M14.2622 12.1925C14.733 12.6544 14.733 13.4032 14.2622 13.8651C11.9082 16.1745 8.09164 16.1745 5.73764 13.8651C5.26684 13.4032 5.26684 12.6544 5.73764 12.1925C6.20844 11.7307 6.97176 11.7307 7.44255 12.1925C8.85495 13.5781 11.1449 13.5781 12.5573 12.1925C13.0281 11.7307 13.7914 11.7307 14.2622 12.1925Z" fill="#333C48"/>
<path d="M7.74993 7.49037C7.74993 8.14355 7.22042 8.67306 6.56723 8.67306C5.91405 8.67306 5.38454 8.14355 5.38454 7.49037C5.38454 6.83718 5.91405 6.30767 6.56723 6.30767C7.22042 6.30767 7.74993 6.83718 7.74993 7.49037Z" fill="#333C48"/>
<path d="M14.673 7.49037C14.673 8.14355 14.1435 8.67306 13.4903 8.67306C12.8371 8.67306 12.3076 8.14355 12.3076 7.49037C12.3076 6.83718 12.8371 6.30767 13.4903 6.30767C14.1435 6.30767 14.673 6.83718 14.673 7.49037Z" fill="#333C48"/>
</svg>
