<svg width="18" height="18" viewBox="0 0 18 18" fill="none" xmlns="http://www.w3.org/2000/svg">
<path d="M9.89981 2.70078C9.89981 2.20373 9.49686 1.80078 8.9998 1.80078C8.50275 1.80078 8.0998 2.20373 8.0998 2.70078V3.60078C8.0998 4.09784 8.50275 4.50078 8.9998 4.50078C9.49686 4.50078 9.89981 4.09784 9.89981 3.60078V2.70078Z" fill="#CFD6E4"/>
<path d="M14.0909 5.18236C14.4424 4.83089 14.4424 4.26104 14.0909 3.90956C13.7395 3.55809 13.1696 3.55809 12.8181 3.90956L12.1817 4.54596C11.8303 4.89743 11.8303 5.46728 12.1817 5.81875C12.5332 6.17023 13.1031 6.17023 13.4545 5.81875L14.0909 5.18236Z" fill="#CFD6E4"/>
<path d="M16.1998 9.00078C16.1998 9.49784 15.7969 9.90078 15.2998 9.90078H14.3998C13.9027 9.90078 13.4998 9.49784 13.4998 9.00078C13.4998 8.50372 13.9027 8.10078 14.3998 8.10078H15.2998C15.7969 8.10078 16.1998 8.50372 16.1998 9.00078Z" fill="#CFD6E4"/>
<path d="M4.54497 5.81877C4.89645 6.17024 5.46629 6.17024 5.81777 5.81877C6.16924 5.4673 6.16924 4.89745 5.81777 4.54598L5.18137 3.90958C4.8299 3.55811 4.26005 3.55811 3.90858 3.90958C3.55711 4.26105 3.55711 4.8309 3.90858 5.18237L4.54497 5.81877Z" fill="#CFD6E4"/>
<path d="M4.4998 9.00078C4.4998 9.49784 4.09686 9.90078 3.5998 9.90078H2.6998C2.20275 9.90078 1.7998 9.49784 1.7998 9.00078C1.7998 8.50372 2.20275 8.10078 2.6998 8.10078H3.5998C4.09686 8.10078 4.4998 8.50372 4.4998 9.00078Z" fill="#CFD6E4"/>
<path d="M7.1998 14.4008V13.5008H10.7998V14.4008C10.7998 15.3949 9.99392 16.2008 8.9998 16.2008C8.00569 16.2008 7.1998 15.3949 7.1998 14.4008Z" fill="#CFD6E4"/>
<path d="M10.8006 12.6008C10.8137 12.2945 10.9866 12.0191 11.2289 11.8278C12.0639 11.1685 12.5998 10.1472 12.5998 9.00078C12.5998 7.01256 10.988 5.40078 8.9998 5.40078C7.01158 5.40078 5.3998 7.01256 5.3998 9.00078C5.3998 10.1472 5.93571 11.1685 6.77067 11.8278C7.01297 12.0191 7.18587 12.2945 7.199 12.6008H10.8006Z" fill="#CFD6E4"/>
</svg>
