<svg width="800" height="420" viewBox="0 0 800 420" fill="none" xmlns="http://www.w3.org/2000/svg">
<g clip-path="url(#clip0_5382_23829)">
<rect width="800" height="420" rx="8" fill="#E6F0FB"/>
<g opacity="0.8" filter="url(#filter0_d_5382_23829)">
<path d="M166.184 166.001C87.236 166.001 23 101.874 23 23.0597L23 -99.9993H95.7319L95.7319 23.0597C95.7319 61.9496 127.435 93.5992 166.391 93.5992C166.391 93.5992 233.391 80.6975 283.196 93.5992C333 106.501 373 188.501 373 188.501V260.902L283.092 166.001L166.184 166.001Z" fill="#F8FAFD"/>
</g>
<g filter="url(#filter1_d_5382_23829)">
<circle cx="184.242" cy="136.242" r="61.7521" transform="rotate(9.66429 184.242 136.242)" fill="#776DD8" fill-opacity="0.5" shape-rendering="crispEdges"/>
</g>
<g filter="url(#filter2_d_5382_23829)">
<circle cx="184.243" cy="136.243" r="47.0261" transform="rotate(9.66429 184.243 136.243)" fill="#776DD8"/>
</g>
<path d="M189.006 103.849L188.428 107.245L191.807 107.821L192.386 104.424L189.006 103.849ZM187.849 110.642L187.271 114.039L190.65 114.614L191.229 111.218L187.849 110.642ZM186.692 117.436L186.114 120.833L189.493 121.408L190.072 118.011L186.692 117.436ZM185.536 124.229L184.957 127.626L188.337 128.202L188.915 124.805L185.536 124.229ZM184.379 131.023L183.8 134.42L187.18 134.995L187.758 131.598L184.379 131.023ZM183.222 137.816L182.643 141.213L186.023 141.789L186.601 138.392L183.222 137.816ZM182.065 144.61L181.486 148.007L184.866 148.582L185.444 145.185L182.065 144.61ZM180.908 151.404L180.33 154.8L183.709 155.376L184.287 151.979L180.908 151.404ZM179.751 158.197L179.173 161.594L182.552 162.169L183.131 158.773L179.751 158.197ZM178.594 164.991L178.016 168.387L181.395 168.963L181.974 165.566L178.594 164.991ZM154.799 146.957L157.86 141.103L167.616 142.764L168.567 149.302L174.693 150.345L170 121.584L162.634 120.329L148.673 145.914L154.799 146.957ZM160.076 136.865L165.154 127.148L165.365 127.184L166.941 138.034L160.076 136.865ZM191.706 153.242L203.257 155.209C205.282 155.554 207.095 155.526 208.699 155.126C210.302 154.725 211.646 154.037 212.731 153.061C213.817 152.086 214.605 150.898 215.097 149.498C215.545 148.2 215.649 147.029 215.41 145.988C215.171 144.946 214.688 144.085 213.961 143.406C213.235 142.727 212.364 142.283 211.349 142.074L211.447 141.817C212.945 141.745 214.323 141.306 215.583 140.501C216.843 139.696 217.745 138.521 218.289 136.975C218.979 134.999 218.79 133.249 217.723 131.725C216.656 130.2 214.631 129.184 211.647 128.676L200.822 126.833L191.706 153.242ZM199.015 149.654L201.419 142.636L206.197 143.449C207.588 143.686 208.559 144.22 209.11 145.051C209.661 145.882 209.753 146.845 209.386 147.938C209.045 148.927 208.405 149.66 207.463 150.137C206.521 150.613 205.259 150.717 203.675 150.447L199.015 149.654ZM202.741 138.86L204.995 132.322L209.325 133.059C210.584 133.274 211.459 133.73 211.951 134.428C212.444 135.126 212.526 135.957 212.199 136.921C211.85 137.963 211.183 138.716 210.198 139.181C209.213 139.646 208.14 139.78 206.978 139.582L202.741 138.86Z" fill="white"/>
<g opacity="0.8" filter="url(#filter3_d_5382_23829)">
<path d="M436 464.816C436 543.764 371.873 608 293.059 608L170 608L170 535.268L293.059 535.268C331.949 535.268 363.599 503.565 363.599 464.609L363.599 231L436 231L436 464.816Z" fill="#F8FAFD"/>
</g>
<g opacity="0.8" filter="url(#filter4_d_5382_23829)">
<path d="M217.646 301.742C294.006 301.742 356.137 239.728 356.137 163.512C356.137 172.286 285.789 163.512 285.789 163.512C285.789 201.12 255.125 231.727 217.446 231.727L71.3944 231.727C-4.96591 231.727 -67.0963 293.741 -67.0963 369.957C-67.0963 441.573 -76.1709 499.986 -148.122 499.986L-471 499.986L-471 570.001L-147.922 570.001C-37.4897 570.001 3.2514 480.381 3.25139 369.957C3.25139 332.349 33.9156 301.742 71.5947 301.742L217.646 301.742Z" fill="#F8FAFD"/>
</g>
<g filter="url(#filter5_d_5382_23829)">
<circle cx="23.0068" cy="293.006" r="53.6401" transform="rotate(-7.28244 23.0068 293.006)" fill="#776DD8" fill-opacity="0.5" shape-rendering="crispEdges"/>
</g>
<g filter="url(#filter6_d_5382_23829)">
<circle cx="23.0078" cy="293.005" r="40.8485" transform="rotate(-7.28244 23.0078 293.005)" fill="#776DD8"/>
</g>
<path d="M22.226 286.882C27.5858 286.198 31.3775 281.312 30.695 275.971C30.0124 270.63 25.1141 266.856 19.7543 267.54C14.3945 268.225 10.6028 273.111 11.2853 278.452C11.9679 283.793 16.8662 287.567 22.226 286.882ZM9.34697 314.739C14.7068 314.054 18.4985 309.169 17.8159 303.828C17.1334 298.486 12.235 294.712 6.87523 295.397C1.51542 296.082 -2.27627 300.967 -1.59372 306.308C-0.911164 311.649 3.98716 315.424 9.34697 314.739ZM41.6964 310.605C47.0562 309.92 50.8479 305.035 50.1653 299.694C49.4828 294.352 44.5844 290.578 39.2246 291.263C33.8648 291.948 30.0731 296.833 30.7557 302.174C31.4382 307.515 36.3366 311.29 41.6964 310.605Z" fill="white"/>
<g opacity="0.8" filter="url(#filter7_d_5382_23829)">
<path d="M1259.4 58.7452C1157.39 58.7452 1074.41 1.22708 1074.41 -100.595L1074.41 -106.814C1074.41 -174.629 1064.89 -207.985 996.947 -207.985C929.004 -207.985 916.137 -152.772 916.137 -84.9576L916.137 -62.4888C916.137 13.7279 854.006 75.7415 777.646 75.7415L631.595 75.7415C593.915 75.7415 563.251 106.348 563.251 143.956C563.251 254.381 475.932 297.5 365.5 297.5L341.422 263.5L341.422 193.485L365.3 227.485C437.251 227.485 492.904 215.572 492.904 143.956C492.904 67.7397 555.034 5.72615 631.394 5.72614L777.445 5.72613C815.125 5.72612 845.789 -24.8805 845.789 -62.4888L845.789 -84.9576C845.789 -191.381 890.323 -278 996.947 -278C1103.57 -278 1144.36 -213.237 1144.36 -106.814L1144.36 -100.395C1144.36 -37.1813 1195.87 -11.0702 1259.2 -11.0702C1322.53 -11.0702 1374.04 -68.6794 1374.04 -131.893C1374.04 -208.11 1436.17 -270.123 1512.53 -270.123L1831 -270.123L1831 -200.108L1512.73 -200.108C1475.05 -200.108 1444.39 -169.501 1444.39 -131.893C1444.39 -30.271 1361.42 58.7452 1259.4 58.7452Z" fill="#F8FAFD"/>
</g>
<g filter="url(#filter8_d_5382_23829)">
<circle cx="797.885" cy="33.8863" r="40.5748" transform="rotate(-9.79381 797.885 33.8863)" fill="#776DD8" fill-opacity="0.5" shape-rendering="crispEdges"/>
</g>
<g filter="url(#filter9_d_5382_23829)">
<circle cx="797.887" cy="33.886" r="30.899" transform="rotate(-9.79381 797.887 33.886)" fill="#776DD8"/>
</g>
<path d="M781.892 20.1568L808.258 15.6055C810.494 15.2197 812.618 16.719 813.004 18.9543L816.045 36.5677C816.431 38.803 814.931 40.9279 812.696 41.3138L786.33 45.865C784.095 46.2509 781.97 44.7516 781.584 42.5163L778.543 24.9029C778.158 22.6676 779.657 20.5427 781.892 20.1568ZM792.752 23.6941L795.726 33.4722L799.474 32.8253L798.998 22.616L792.752 23.6941ZM796.157 35.9706L796.804 39.7182L800.552 39.0713L799.905 35.3237L796.157 35.9706Z" fill="white"/>
<path d="M802.473 41.3516L790.63 40.0637L787.09 53.3357C787.026 53.5792 787.17 53.8293 787.414 53.8942C787.559 53.9328 787.713 53.898 787.827 53.801L802.473 41.3516Z" fill="white"/>
<g filter="url(#filter10_d_5382_23829)">
<circle cx="552.304" cy="51.3044" r="54.1687" transform="rotate(3.42089 552.304 51.3044)" fill="#9ABCDC" fill-opacity="0.5" shape-rendering="crispEdges"/>
</g>
<g filter="url(#filter11_d_5382_23829)">
<circle cx="552.282" cy="51.2777" r="41.6775" transform="rotate(3.42089 552.282 51.2777)" fill="#9ABCDC"/>
</g>
<path fill-rule="evenodd" clip-rule="evenodd" d="M540.037 64.2861L533.187 63.8766C531.296 63.7636 529.671 65.2053 529.557 67.0969L529.148 73.9468C529.035 75.8383 530.477 77.4634 532.368 77.5765L539.218 77.986C541.11 78.099 542.735 76.6573 542.848 74.7657L543.257 67.9158C543.37 66.0242 541.929 64.3992 540.037 64.2861ZM570.657 69.5537L550.107 68.3253L549.698 75.1752L570.248 76.4036L570.657 69.5537ZM541.265 43.7363L534.416 43.3268C532.524 43.2137 530.899 44.6555 530.786 46.547L530.376 53.397C530.263 55.2885 531.705 56.9136 533.597 57.0267L540.447 57.4362C542.338 57.5492 543.963 56.1075 544.076 54.2159L544.486 47.366C544.599 45.4744 543.157 43.8493 541.265 43.7363ZM585.585 49.8228L551.336 47.7755L550.926 54.6254L585.176 56.6727L585.585 49.8228ZM542.494 23.1865L535.644 22.777C533.752 22.6639 532.127 24.1057 532.014 25.9972L531.605 32.8472C531.492 34.7387 532.933 36.3638 534.825 36.4769L541.675 36.8863C543.567 36.9994 545.192 35.5577 545.305 33.6661L545.714 26.8162C545.827 24.9246 544.385 23.2995 542.494 23.1865ZM573.114 28.454L552.564 27.2256L552.155 34.0756L572.704 35.304L573.114 28.454ZM538.864 26.4067C540.756 26.5198 542.198 28.1448 542.084 30.0364C541.971 31.928 540.346 33.3697 538.455 33.2566C536.563 33.1436 535.121 31.5185 535.234 29.6269C535.348 27.7354 536.973 26.2936 538.864 26.4067Z" fill="white"/>
<g opacity="0.8" filter="url(#filter12_d_5382_23829)">
<path d="M417.863 201.511L488.211 179.043L488.211 201.511C488.211 239.119 518.875 269.726 556.554 269.726L702.605 269.726C778.966 269.726 841.096 331.739 841.096 407.956C841.096 479.572 850.171 537.985 922.122 537.985L946 503.984L946 574L921.921 608C811.49 608 770.748 518.38 770.748 407.956C770.748 370.348 740.084 339.741 702.405 339.741L556.354 339.741C479.993 339.741 417.863 277.728 417.863 201.511Z" fill="#F8FAFD"/>
</g>
<circle cx="737.935" cy="314.935" r="68.5271" transform="rotate(9.53793 737.935 314.935)" fill="#F28B50" fill-opacity="0.5"/>
<g filter="url(#filter13_d_5382_23829)">
<circle cx="737.938" cy="314.935" r="52.3143" transform="rotate(9.53793 737.938 314.935)" fill="#F28B50"/>
</g>
<path fill-rule="evenodd" clip-rule="evenodd" d="M732.195 277.981L708.816 274.053L704.888 297.432L714.239 299.003L711.882 313.03L735.261 316.958L733.69 326.31L724.338 324.739L720.41 348.117L743.789 352.046L747.717 328.667L738.366 327.095L739.937 317.744L763.316 321.672L765.673 307.645L775.024 309.216L778.952 285.837L755.574 281.909L751.645 305.288L760.997 306.859L759.426 316.211L717.344 309.14L718.915 299.788L728.267 301.36L732.195 277.981Z" fill="white"/>
<g filter="url(#filter14_d_5382_23829)">
<circle cx="153.947" cy="276.947" r="64.2314" transform="rotate(10.5955 153.947 276.947)" fill="#9ABCDC" fill-opacity="0.5" shape-rendering="crispEdges"/>
</g>
<g filter="url(#filter15_d_5382_23829)">
<circle cx="153.924" cy="276.912" r="49.4198" transform="rotate(10.5955 153.924 276.912)" fill="#9ABCDC"/>
</g>
<path d="M156.245 245.652L149.442 244.379L148.169 251.183L141.365 249.91C137.622 249.21 133.988 251.699 133.288 255.441L132.016 262.245L125.211 260.973L123.938 267.777L130.743 269.049L129.47 275.853L122.666 274.581L121.393 281.385L128.197 282.658L126.925 289.462C126.225 293.204 128.713 296.838 132.455 297.538L139.26 298.811L137.987 305.615L144.79 306.888L146.063 300.084L152.868 301.357L151.595 308.161L158.398 309.433L159.671 302.629L166.476 303.902C170.218 304.602 173.852 302.113 174.552 298.371L175.824 291.567L182.629 292.84L183.902 286.036L177.097 284.763L178.37 277.959L185.175 279.232L186.447 272.428L179.643 271.155L180.916 264.351C181.616 260.609 179.127 256.974 175.385 256.274L168.58 255.001L169.853 248.197L163.05 246.925L161.777 253.729L154.973 252.456L156.245 245.652ZM174.112 263.078L167.748 297.098L133.728 290.734L140.092 256.714L174.112 263.078ZM166.035 268.609L145.624 264.791L141.805 285.203L162.217 289.021L166.035 268.609ZM157.959 274.141L156.686 280.945L149.881 279.672L151.154 272.868L157.959 274.141Z" fill="white"/>
<circle cx="681.879" cy="61.8802" r="57.7887" transform="rotate(-5.29934 681.879 61.8802)" fill="#FDB744" fill-opacity="0.5"/>
<g filter="url(#filter16_d_5382_23829)">
<circle cx="681.878" cy="61.8799" r="44.8463" transform="rotate(-5.29934 681.878 61.8799)" fill="#FDB744"/>
</g>
<path d="M659.423 38.7817L699.719 35.044C703.135 34.7271 706.162 37.2397 706.478 40.6561L708.975 67.5752C709.292 70.9915 706.78 74.0179 703.363 74.3348L663.067 78.0725C659.651 78.3894 656.624 75.8768 656.307 72.4604L653.811 45.5413C653.494 42.125 656.006 39.0986 659.423 38.7817ZM674.002 68.0517L700.047 65.6359L690.121 49.7443L684.966 58.6285L680.307 55.6983L674.002 68.0517ZM669.758 57.4778C672.395 57.2333 674.333 54.8981 674.089 52.262C673.844 49.6259 671.509 47.6872 668.873 47.9317C666.237 48.1762 664.298 50.5114 664.543 53.1475C664.787 55.7835 667.122 57.7223 669.758 57.4778Z" fill="white"/>
<path d="M677.093 74.1836L693.881 67.6384L704.277 85.6261C704.468 85.9562 704.355 86.3784 704.025 86.5692C703.829 86.6825 703.59 86.6924 703.385 86.5957L677.093 74.1836Z" fill="white"/>
<circle cx="79.0501" cy="57.0502" r="61.1597" transform="rotate(4.78693 79.0501 57.0502)" fill="#F28B50" fill-opacity="0.5"/>
<g filter="url(#filter17_d_5382_23829)">
<circle cx="79.0519" cy="57.0506" r="49.0087" transform="rotate(4.78693 79.0519 57.0506)" fill="#F28B50"/>
</g>
<path fill-rule="evenodd" clip-rule="evenodd" d="M104.06 49.2321L74.7779 58.9397C73.9229 59.2231 73.1148 59.6289 72.3783 60.1442C68.1992 63.0682 67.2058 68.8019 70.1595 72.951C70.68 73.6821 71.3052 74.3342 72.0154 74.8864C76.0455 78.0203 81.8694 77.324 85.0235 73.3311L104.06 49.2321ZM74.543 64.8415C76.4153 63.5315 79.0062 63.9765 80.3296 65.8353C81.6529 67.6941 81.2077 70.2629 79.3355 71.5729C77.4631 72.8828 74.8732 72.4379 73.5499 70.5791C72.2266 68.7203 72.6707 66.1514 74.543 64.8415ZM62.0273 27.2746C50.8125 32.8743 42.7168 43.9555 41.6008 57.2814L49.8751 57.9744C50.7367 47.6856 56.9476 39.1172 65.5709 34.732L62.0273 27.2746ZM100.918 30.5314L96.1832 37.2956C103.957 43.0539 108.656 52.5359 107.795 62.8247L116.069 63.5176L116.144 62.4275C116.846 49.5245 110.768 37.7165 100.918 30.5314ZM81.9272 23.4736C76.2787 23.0005 70.8199 23.7995 65.8368 25.63L69.3961 33.1193C73.0888 31.8647 77.099 31.3325 81.2401 31.6793C85.3812 32.0261 89.247 33.2179 92.6796 35.0691L97.4349 28.2761C92.8257 25.6423 87.5758 23.9466 81.9272 23.4736Z" fill="white"/>
<g filter="url(#filter18_d_5382_23829)">
<circle cx="589.819" cy="300.819" r="59.7889" transform="rotate(-17.2351 589.819 300.819)" fill="#776DD8" fill-opacity="0.5" shape-rendering="crispEdges"/>
</g>
<g filter="url(#filter19_d_5382_23829)">
<circle cx="589.819" cy="300.818" r="45.5311" transform="rotate(-17.2351 589.819 300.818)" fill="#776DD8"/>
</g>
<path fill-rule="evenodd" clip-rule="evenodd" d="M616.341 314.535L573.638 327.783C569.093 329.193 564.72 325.099 565.749 320.417L575.499 276.361C576.016 274.027 577.681 272.425 579.671 271.808C581.661 271.19 583.956 271.563 585.703 273.195L618.66 304.003C622.174 307.276 620.87 313.13 616.341 314.535Z" stroke="white" stroke-width="6"/>
<path fill-rule="evenodd" clip-rule="evenodd" d="M595.065 308.199C594.431 306.153 592.193 305.03 590.068 305.689C587.943 306.348 586.735 308.541 587.37 310.586C588.004 312.631 590.24 313.755 592.366 313.095C594.491 312.436 595.699 310.243 595.065 308.199ZM584.858 301.656C585.478 303.654 587.6 304.771 589.599 304.151C591.597 303.532 592.715 301.409 592.095 299.411L588.227 286.945C587.608 284.946 585.485 283.829 583.487 284.449C581.488 285.069 580.371 287.191 580.991 289.19L584.858 301.656Z" fill="white"/>
<circle cx="398.237" cy="400.236" r="60.2267" transform="rotate(-10.5513 398.237 400.236)" fill="#FDB744" fill-opacity="0.5"/>
<g filter="url(#filter20_d_5382_23829)">
<circle cx="398.236" cy="400.237" r="46.7383" transform="rotate(-10.5513 398.236 400.237)" fill="#FDB744"/>
</g>
<path d="M416.552 427.04L391.06 431.788L387.173 410.924L382.925 411.715L386.811 432.579L378.314 434.162L375.241 417.668C373.504 408.341 379.657 399.371 388.984 397.634L406.192 394.428C415.519 392.691 424.489 398.844 426.226 408.171L429.298 424.666L420.801 426.248L416.915 405.384L412.666 406.175L416.552 427.04Z" fill="white"/>
<path d="M398.371 400.203C407.758 398.455 413.975 389.565 412.258 380.347C410.541 371.129 401.54 365.074 392.154 366.823C382.767 368.571 376.549 377.461 378.266 386.679C379.983 395.897 388.985 401.952 398.371 400.203Z" fill="white"/>
<g filter="url(#filter21_d_5382_23829)">
<rect x="191" y="91" width="418" height="239.456" rx="20.4089" fill="white"/>
<rect x="329.1" y="104.809" width="43.8962" height="7.89145" rx="3.94572" fill="#DEE3ED"/>
<rect x="329.1" y="207.152" width="43.8962" height="7.89145" rx="3.94572" fill="#DEE3ED"/>
<rect x="581.627" y="104.809" width="16.0295" height="7.89145" rx="3.94572" fill="#DEE3ED"/>
<path d="M191 111.409C191 100.137 200.137 91 211.409 91H316.212V330.432H211.409C200.137 330.432 191 321.294 191 310.023V111.409Z" fill="#F8F9FC"/>
<rect x="211.721" y="133.184" width="79.8699" height="12.3744" rx="6.18722" fill="#DEE3ED"/>
<rect x="211.715" y="161.037" width="48.5817" height="9.6177" rx="4.80885" fill="#EBEEF4"/>
<rect x="211.715" y="182.738" width="63.1316" height="9.37109" rx="4.68555" fill="#EBEEF4"/>
<rect x="211.715" y="204.193" width="48.5817" height="9.37109" rx="4.68555" fill="#EBEEF4"/>
<rect x="211.715" y="225.648" width="63.1316" height="9.6177" rx="4.80885" fill="#EBEEF4"/>
<g filter="url(#filter22_d_5382_23829)">
<path d="M597.656 180.904C597.656 185.323 594.074 188.904 589.656 188.904L333.401 188.904C328.983 188.904 325.401 185.323 325.401 180.904L325.401 130.567C325.401 126.149 328.983 122.567 333.401 122.567L589.656 122.567C594.074 122.567 597.656 126.149 597.656 130.567L597.656 180.904Z" stroke="#F1F1F1" stroke-width="4"/>
</g>
<path d="M444.791 142.733C444.803 144.264 443.958 145.511 442.904 145.519L409.886 145.78C408.832 145.789 407.968 144.555 407.956 143.025L407.95 142.302C407.938 140.772 408.782 139.525 409.836 139.517L442.855 139.255C443.909 139.247 444.773 140.481 444.785 142.011L444.791 142.733Z" fill="#EBEEF4"/>
<path d="M573.573 142.733C573.585 144.264 572.741 145.511 571.687 145.519L538.668 145.78C537.615 145.789 536.75 144.555 536.738 143.025L536.733 142.302C536.72 140.772 537.565 139.525 538.619 139.517L571.637 139.255C572.691 139.247 573.555 140.481 573.567 142.011L573.573 142.733Z" fill="#EBEEF4"/>
<path d="M444.791 155.589C444.803 157.119 443.958 158.366 442.904 158.374L409.886 158.636C408.832 158.644 407.968 157.41 407.956 155.88L407.95 155.158C407.938 153.628 408.782 152.38 409.836 152.372L442.855 152.111C443.909 152.102 444.773 153.336 444.785 154.866L444.791 155.589Z" fill="#EBEEF4"/>
<path d="M573.573 155.589C573.585 157.119 572.741 158.366 571.687 158.374L538.668 158.636C537.615 158.644 536.75 157.41 536.738 155.88L536.733 155.158C536.72 153.628 537.565 152.38 538.619 152.372L571.637 152.111C572.691 152.102 573.555 153.336 573.567 154.866L573.573 155.589Z" fill="#EBEEF4"/>
<path d="M444.684 168.659C444.696 170.189 443.851 171.436 442.797 171.445L409.779 171.706C408.725 171.714 407.861 170.481 407.849 168.951L407.843 168.228C407.831 166.698 408.676 165.451 409.729 165.442L442.748 165.181C443.802 165.173 444.666 166.406 444.678 167.936L444.684 168.659Z" fill="#EBEEF4"/>
<path d="M573.467 168.659C573.479 170.189 572.634 171.436 571.58 171.445L538.562 171.706C537.508 171.714 536.644 170.481 536.632 168.951L536.626 168.228C536.614 166.698 537.458 165.451 538.512 165.442L571.531 165.181C572.585 165.173 573.449 166.406 573.461 167.936L573.467 168.659Z" fill="#EBEEF4"/>
<path d="M349.322 155.537C349.322 142.231 360.109 131.445 373.415 131.445C386.72 131.445 397.507 142.231 397.507 155.537C397.507 168.843 386.72 179.629 373.415 179.629C360.109 179.629 349.322 168.843 349.322 155.537Z" fill="#F1F1F1"/>
<path d="M349.322 155.537C349.322 159.499 350.3 163.4 352.167 166.894C354.035 170.388 356.735 173.368 360.03 175.569C363.324 177.77 367.11 179.125 371.053 179.513C374.996 179.901 378.974 179.311 382.634 177.795C386.295 176.279 389.524 173.883 392.038 170.821C394.551 167.758 396.271 164.123 397.044 160.237C397.817 156.351 397.619 152.335 396.469 148.543C395.319 144.752 393.252 141.303 390.45 138.501L373.415 155.537L349.322 155.537Z" fill="#E2E4E8"/>
<path d="M357.032 155.537C357.032 146.489 364.367 139.155 373.415 139.155C382.463 139.155 389.798 146.489 389.798 155.537C389.798 164.585 382.463 171.92 373.415 171.92C364.367 171.92 357.032 164.585 357.032 155.537Z" fill="white"/>
<path d="M478.105 155.537C478.105 142.231 488.892 131.445 502.197 131.445C515.503 131.445 526.289 142.231 526.289 155.537C526.289 168.843 515.503 179.629 502.197 179.629C488.892 179.629 478.105 168.843 478.105 155.537Z" fill="#F1F1F1"/>
<path d="M511.417 177.795C515.077 176.279 518.307 173.883 520.82 170.821C523.334 167.758 525.053 164.123 525.826 160.237C526.599 156.351 526.402 152.335 525.252 148.543C524.102 144.752 522.034 141.303 519.233 138.501L502.197 155.537L511.417 177.795Z" fill="#E2E4E8"/>
<path d="M485.815 155.537C485.815 146.489 493.15 139.155 502.198 139.155C511.246 139.155 518.58 146.489 518.58 155.537C518.58 164.585 511.246 171.92 502.198 171.92C493.15 171.92 485.815 164.585 485.815 155.537Z" fill="white"/>
<g filter="url(#filter23_d_5382_23829)">
<path d="M597.656 330.457L597.656 237.101C597.656 232.683 594.074 229.101 589.656 229.101L333.401 229.101C328.983 229.101 325.401 232.683 325.401 237.101L325.401 330.457" stroke="#F1F1F1" stroke-width="4"/>
</g>
<path d="M372.867 247.39C372.88 248.92 372.035 250.167 370.981 250.175L337.963 250.437C336.909 250.445 336.045 249.211 336.033 247.681L336.027 246.958C336.015 245.428 336.859 244.181 337.913 244.173L370.932 243.912C371.986 243.903 372.85 245.137 372.862 246.667L372.867 247.39Z" fill="#EBEEF4"/>
<path d="M434.273 247.39C434.285 248.92 433.44 250.167 432.387 250.175L399.368 250.437C398.314 250.445 397.45 249.211 397.438 247.681L397.432 246.958C397.42 245.428 398.265 244.181 399.318 244.173L432.337 243.912C433.391 243.903 434.255 245.137 434.267 246.667L434.273 247.39Z" fill="#EBEEF4"/>
<path d="M495.678 247.39C495.69 248.92 494.846 250.167 493.792 250.175L460.773 250.437C459.719 250.445 458.855 249.211 458.843 247.681L458.838 246.958C458.825 245.428 459.67 244.181 460.724 244.173L493.742 243.912C494.796 243.903 495.66 245.137 495.672 246.667L495.678 247.39Z" fill="#EBEEF4"/>
<path d="M336.745 318.597L345.3 300.657L353.855 304.68L361.906 312.776L370.964 309.133L379.519 295.495L388.074 318.597L396.628 321.937L405.183 318.597L413.738 325.277L422.292 318.597L430.847 300.657L439.402 312.776L447.957 318.597L456.511 309.133L465.066 295.217L473.621 318.597L482.176 293.547L490.73 298.437L499.285 277.682L507.84 318.597L516.395 321.937L524.949 293.547L533.504 318.597L542.059 313.448L550.613 318.597L559.168 318.518L567.723 310.029L576.278 318.597L584.832 321.937" stroke="#F8FAFD" stroke-width="4" stroke-linecap="round" stroke-linejoin="round"/>
<path d="M584.833 273.512L576.278 291.455L567.723 287.431L559.672 279.334L550.614 282.977L542.059 296.618L533.504 273.512L524.949 270.171L516.395 273.512L507.84 266.831L499.285 273.512L490.73 291.455L482.176 279.334L473.621 273.512L465.066 282.977L456.512 296.897L447.957 273.512L439.402 298.567L430.847 293.675L422.293 314.435L413.738 320.838L405.183 313.6L396.628 298.567L388.074 273.512L379.519 278.662L370.964 273.512L362.409 273.591L353.855 282.082L345.3 273.512L336.745 270.171" stroke="#E2E4E8" stroke-width="4" stroke-linecap="round" stroke-linejoin="round" stroke-dasharray="2 4"/>
</g>
</g>
<defs>
<filter id="filter0_d_5382_23829" x="-29" y="-148" width="454" height="464.902" filterUnits="userSpaceOnUse" color-interpolation-filters="sRGB">
<feFlood flood-opacity="0" result="BackgroundImageFix"/>
<feColorMatrix in="SourceAlpha" type="matrix" values="0 0 0 0 0 0 0 0 0 0 0 0 0 0 0 0 0 0 127 0" result="hardAlpha"/>
<feOffset dy="4"/>
<feGaussianBlur stdDeviation="26"/>
<feComposite in2="hardAlpha" operator="out"/>
<feColorMatrix type="matrix" values="0 0 0 0 0 0 0 0 0 0 0 0 0 0 0 0 0 0 0.09 0"/>
<feBlend mode="normal" in2="BackgroundImageFix" result="effect1_dropShadow_5382_23829"/>
<feBlend mode="normal" in="SourceGraphic" in2="effect1_dropShadow_5382_23829" result="shape"/>
</filter>
<filter id="filter1_d_5382_23829" x="92.4802" y="48.4805" width="183.524" height="183.523" filterUnits="userSpaceOnUse" color-interpolation-filters="sRGB">
<feFlood flood-opacity="0" result="BackgroundImageFix"/>
<feColorMatrix in="SourceAlpha" type="matrix" values="0 0 0 0 0 0 0 0 0 0 0 0 0 0 0 0 0 0 127 0" result="hardAlpha"/>
<feOffset dy="4"/>
<feGaussianBlur stdDeviation="15"/>
<feComposite in2="hardAlpha" operator="out"/>
<feColorMatrix type="matrix" values="0 0 0 0 0 0 0 0 0 0 0 0 0 0 0 0 0 0 0.15 0"/>
<feBlend mode="normal" in2="BackgroundImageFix" result="effect1_dropShadow_5382_23829"/>
<feBlend mode="normal" in="SourceGraphic" in2="effect1_dropShadow_5382_23829" result="shape"/>
</filter>
<filter id="filter2_d_5382_23829" x="107.209" y="63.209" width="154.067" height="154.068" filterUnits="userSpaceOnUse" color-interpolation-filters="sRGB">
<feFlood flood-opacity="0" result="BackgroundImageFix"/>
<feColorMatrix in="SourceAlpha" type="matrix" values="0 0 0 0 0 0 0 0 0 0 0 0 0 0 0 0 0 0 127 0" result="hardAlpha"/>
<feOffset dy="4"/>
<feGaussianBlur stdDeviation="15"/>
<feComposite in2="hardAlpha" operator="out"/>
<feColorMatrix type="matrix" values="0 0 0 0 0 0 0 0 0 0 0 0 0 0 0 0 0 0 0.15 0"/>
<feBlend mode="normal" in2="BackgroundImageFix" result="effect1_dropShadow_5382_23829"/>
<feBlend mode="normal" in="SourceGraphic" in2="effect1_dropShadow_5382_23829" result="shape"/>
</filter>
<filter id="filter3_d_5382_23829" x="118" y="183" width="370" height="481" filterUnits="userSpaceOnUse" color-interpolation-filters="sRGB">
<feFlood flood-opacity="0" result="BackgroundImageFix"/>
<feColorMatrix in="SourceAlpha" type="matrix" values="0 0 0 0 0 0 0 0 0 0 0 0 0 0 0 0 0 0 127 0" result="hardAlpha"/>
<feOffset dy="4"/>
<feGaussianBlur stdDeviation="26"/>
<feComposite in2="hardAlpha" operator="out"/>
<feColorMatrix type="matrix" values="0 0 0 0 0 0 0 0 0 0 0 0 0 0 0 0 0 0 0.09 0"/>
<feBlend mode="normal" in2="BackgroundImageFix" result="effect1_dropShadow_5382_23829"/>
<feBlend mode="normal" in="SourceGraphic" in2="effect1_dropShadow_5382_23829" result="shape"/>
</filter>
<filter id="filter4_d_5382_23829" x="-523" y="115.512" width="931.137" height="510.49" filterUnits="userSpaceOnUse" color-interpolation-filters="sRGB">
<feFlood flood-opacity="0" result="BackgroundImageFix"/>
<feColorMatrix in="SourceAlpha" type="matrix" values="0 0 0 0 0 0 0 0 0 0 0 0 0 0 0 0 0 0 127 0" result="hardAlpha"/>
<feOffset dy="4"/>
<feGaussianBlur stdDeviation="26"/>
<feComposite in2="hardAlpha" operator="out"/>
<feColorMatrix type="matrix" values="0 0 0 0 0 0 0 0 0 0 0 0 0 0 0 0 0 0 0.09 0"/>
<feBlend mode="normal" in2="BackgroundImageFix" result="effect1_dropShadow_5382_23829"/>
<feBlend mode="normal" in="SourceGraphic" in2="effect1_dropShadow_5382_23829" result="shape"/>
</filter>
<filter id="filter5_d_5382_23829" x="-60.6392" y="213.359" width="167.292" height="167.293" filterUnits="userSpaceOnUse" color-interpolation-filters="sRGB">
<feFlood flood-opacity="0" result="BackgroundImageFix"/>
<feColorMatrix in="SourceAlpha" type="matrix" values="0 0 0 0 0 0 0 0 0 0 0 0 0 0 0 0 0 0 127 0" result="hardAlpha"/>
<feOffset dy="4"/>
<feGaussianBlur stdDeviation="15"/>
<feComposite in2="hardAlpha" operator="out"/>
<feColorMatrix type="matrix" values="0 0 0 0 0 0 0 0 0 0 0 0 0 0 0 0 0 0 0.15 0"/>
<feBlend mode="normal" in2="BackgroundImageFix" result="effect1_dropShadow_5382_23829"/>
<feBlend mode="normal" in="SourceGraphic" in2="effect1_dropShadow_5382_23829" result="shape"/>
</filter>
<filter id="filter6_d_5382_23829" x="-47.8452" y="226.152" width="141.706" height="141.705" filterUnits="userSpaceOnUse" color-interpolation-filters="sRGB">
<feFlood flood-opacity="0" result="BackgroundImageFix"/>
<feColorMatrix in="SourceAlpha" type="matrix" values="0 0 0 0 0 0 0 0 0 0 0 0 0 0 0 0 0 0 127 0" result="hardAlpha"/>
<feOffset dy="4"/>
<feGaussianBlur stdDeviation="15"/>
<feComposite in2="hardAlpha" operator="out"/>
<feColorMatrix type="matrix" values="0 0 0 0 0 0 0 0 0 0 0 0 0 0 0 0 0 0 0.15 0"/>
<feBlend mode="normal" in2="BackgroundImageFix" result="effect1_dropShadow_5382_23829"/>
<feBlend mode="normal" in="SourceGraphic" in2="effect1_dropShadow_5382_23829" result="shape"/>
</filter>
<filter id="filter7_d_5382_23829" x="289.422" y="-326" width="1593.58" height="679.5" filterUnits="userSpaceOnUse" color-interpolation-filters="sRGB">
<feFlood flood-opacity="0" result="BackgroundImageFix"/>
<feColorMatrix in="SourceAlpha" type="matrix" values="0 0 0 0 0 0 0 0 0 0 0 0 0 0 0 0 0 0 127 0" result="hardAlpha"/>
<feOffset dy="4"/>
<feGaussianBlur stdDeviation="26"/>
<feComposite in2="hardAlpha" operator="out"/>
<feColorMatrix type="matrix" values="0 0 0 0 0 0 0 0 0 0 0 0 0 0 0 0 0 0 0.09 0"/>
<feBlend mode="normal" in2="BackgroundImageFix" result="effect1_dropShadow_5382_23829"/>
<feBlend mode="normal" in="SourceGraphic" in2="effect1_dropShadow_5382_23829" result="shape"/>
</filter>
<filter id="filter8_d_5382_23829" x="727.304" y="-32.6953" width="141.163" height="141.162" filterUnits="userSpaceOnUse" color-interpolation-filters="sRGB">
<feFlood flood-opacity="0" result="BackgroundImageFix"/>
<feColorMatrix in="SourceAlpha" type="matrix" values="0 0 0 0 0 0 0 0 0 0 0 0 0 0 0 0 0 0 127 0" result="hardAlpha"/>
<feOffset dy="4"/>
<feGaussianBlur stdDeviation="15"/>
<feComposite in2="hardAlpha" operator="out"/>
<feColorMatrix type="matrix" values="0 0 0 0 0 0 0 0 0 0 0 0 0 0 0 0 0 0 0.15 0"/>
<feBlend mode="normal" in2="BackgroundImageFix" result="effect1_dropShadow_5382_23829"/>
<feBlend mode="normal" in="SourceGraphic" in2="effect1_dropShadow_5382_23829" result="shape"/>
</filter>
<filter id="filter9_d_5382_23829" x="736.983" y="-23.0176" width="121.808" height="121.807" filterUnits="userSpaceOnUse" color-interpolation-filters="sRGB">
<feFlood flood-opacity="0" result="BackgroundImageFix"/>
<feColorMatrix in="SourceAlpha" type="matrix" values="0 0 0 0 0 0 0 0 0 0 0 0 0 0 0 0 0 0 127 0" result="hardAlpha"/>
<feOffset dy="4"/>
<feGaussianBlur stdDeviation="15"/>
<feComposite in2="hardAlpha" operator="out"/>
<feColorMatrix type="matrix" values="0 0 0 0 0 0 0 0 0 0 0 0 0 0 0 0 0 0 0.15 0"/>
<feBlend mode="normal" in2="BackgroundImageFix" result="effect1_dropShadow_5382_23829"/>
<feBlend mode="normal" in="SourceGraphic" in2="effect1_dropShadow_5382_23829" result="shape"/>
</filter>
<filter id="filter10_d_5382_23829" x="468.134" y="-28.8652" width="168.341" height="168.34" filterUnits="userSpaceOnUse" color-interpolation-filters="sRGB">
<feFlood flood-opacity="0" result="BackgroundImageFix"/>
<feColorMatrix in="SourceAlpha" type="matrix" values="0 0 0 0 0 0 0 0 0 0 0 0 0 0 0 0 0 0 127 0" result="hardAlpha"/>
<feOffset dy="4"/>
<feGaussianBlur stdDeviation="15"/>
<feComposite in2="hardAlpha" operator="out"/>
<feColorMatrix type="matrix" values="0 0 0 0 0 0 0 0 0 0 0 0 0 0 0 0 0 0 0.15 0"/>
<feBlend mode="normal" in2="BackgroundImageFix" result="effect1_dropShadow_5382_23829"/>
<feBlend mode="normal" in="SourceGraphic" in2="effect1_dropShadow_5382_23829" result="shape"/>
</filter>
<filter id="filter11_d_5382_23829" x="480.603" y="-16.4004" width="143.358" height="143.357" filterUnits="userSpaceOnUse" color-interpolation-filters="sRGB">
<feFlood flood-opacity="0" result="BackgroundImageFix"/>
<feColorMatrix in="SourceAlpha" type="matrix" values="0 0 0 0 0 0 0 0 0 0 0 0 0 0 0 0 0 0 127 0" result="hardAlpha"/>
<feOffset dy="4"/>
<feGaussianBlur stdDeviation="15"/>
<feComposite in2="hardAlpha" operator="out"/>
<feColorMatrix type="matrix" values="0 0 0 0 0 0 0 0 0 0 0 0 0 0 0 0 0 0 0.15 0"/>
<feBlend mode="normal" in2="BackgroundImageFix" result="effect1_dropShadow_5382_23829"/>
<feBlend mode="normal" in="SourceGraphic" in2="effect1_dropShadow_5382_23829" result="shape"/>
</filter>
<filter id="filter12_d_5382_23829" x="365.863" y="131.043" width="632.137" height="532.957" filterUnits="userSpaceOnUse" color-interpolation-filters="sRGB">
<feFlood flood-opacity="0" result="BackgroundImageFix"/>
<feColorMatrix in="SourceAlpha" type="matrix" values="0 0 0 0 0 0 0 0 0 0 0 0 0 0 0 0 0 0 127 0" result="hardAlpha"/>
<feOffset dy="4"/>
<feGaussianBlur stdDeviation="26"/>
<feComposite in2="hardAlpha" operator="out"/>
<feColorMatrix type="matrix" values="0 0 0 0 0 0 0 0 0 0 0 0 0 0 0 0 0 0 0.09 0"/>
<feBlend mode="normal" in2="BackgroundImageFix" result="effect1_dropShadow_5382_23829"/>
<feBlend mode="normal" in="SourceGraphic" in2="effect1_dropShadow_5382_23829" result="shape"/>
</filter>
<filter id="filter13_d_5382_23829" x="655.615" y="236.613" width="164.645" height="164.645" filterUnits="userSpaceOnUse" color-interpolation-filters="sRGB">
<feFlood flood-opacity="0" result="BackgroundImageFix"/>
<feColorMatrix in="SourceAlpha" type="matrix" values="0 0 0 0 0 0 0 0 0 0 0 0 0 0 0 0 0 0 127 0" result="hardAlpha"/>
<feOffset dy="4"/>
<feGaussianBlur stdDeviation="15"/>
<feComposite in2="hardAlpha" operator="out"/>
<feColorMatrix type="matrix" values="0 0 0 0 0 0 0 0 0 0 0 0 0 0 0 0 0 0 0.15 0"/>
<feBlend mode="normal" in2="BackgroundImageFix" result="effect1_dropShadow_5382_23829"/>
<feBlend mode="normal" in="SourceGraphic" in2="effect1_dropShadow_5382_23829" result="shape"/>
</filter>
<filter id="filter14_d_5382_23829" x="59.7036" y="186.703" width="188.486" height="188.486" filterUnits="userSpaceOnUse" color-interpolation-filters="sRGB">
<feFlood flood-opacity="0" result="BackgroundImageFix"/>
<feColorMatrix in="SourceAlpha" type="matrix" values="0 0 0 0 0 0 0 0 0 0 0 0 0 0 0 0 0 0 127 0" result="hardAlpha"/>
<feOffset dy="4"/>
<feGaussianBlur stdDeviation="15"/>
<feComposite in2="hardAlpha" operator="out"/>
<feColorMatrix type="matrix" values="0 0 0 0 0 0 0 0 0 0 0 0 0 0 0 0 0 0 0.15 0"/>
<feBlend mode="normal" in2="BackgroundImageFix" result="effect1_dropShadow_5382_23829"/>
<feBlend mode="normal" in="SourceGraphic" in2="effect1_dropShadow_5382_23829" result="shape"/>
</filter>
<filter id="filter15_d_5382_23829" x="74.4956" y="201.484" width="158.857" height="158.857" filterUnits="userSpaceOnUse" color-interpolation-filters="sRGB">
<feFlood flood-opacity="0" result="BackgroundImageFix"/>
<feColorMatrix in="SourceAlpha" type="matrix" values="0 0 0 0 0 0 0 0 0 0 0 0 0 0 0 0 0 0 127 0" result="hardAlpha"/>
<feOffset dy="4"/>
<feGaussianBlur stdDeviation="15"/>
<feComposite in2="hardAlpha" operator="out"/>
<feColorMatrix type="matrix" values="0 0 0 0 0 0 0 0 0 0 0 0 0 0 0 0 0 0 0.15 0"/>
<feBlend mode="normal" in2="BackgroundImageFix" result="effect1_dropShadow_5382_23829"/>
<feBlend mode="normal" in="SourceGraphic" in2="effect1_dropShadow_5382_23829" result="shape"/>
</filter>
<filter id="filter16_d_5382_23829" x="607.028" y="-8.96875" width="149.699" height="149.697" filterUnits="userSpaceOnUse" color-interpolation-filters="sRGB">
<feFlood flood-opacity="0" result="BackgroundImageFix"/>
<feColorMatrix in="SourceAlpha" type="matrix" values="0 0 0 0 0 0 0 0 0 0 0 0 0 0 0 0 0 0 127 0" result="hardAlpha"/>
<feOffset dy="4"/>
<feGaussianBlur stdDeviation="15"/>
<feComposite in2="hardAlpha" operator="out"/>
<feColorMatrix type="matrix" values="0 0 0 0 0 0 0 0 0 0 0 0 0 0 0 0 0 0 0.15 0"/>
<feBlend mode="normal" in2="BackgroundImageFix" result="effect1_dropShadow_5382_23829"/>
<feBlend mode="normal" in="SourceGraphic" in2="effect1_dropShadow_5382_23829" result="shape"/>
</filter>
<filter id="filter17_d_5382_23829" x="0.0405273" y="-17.9609" width="158.023" height="158.023" filterUnits="userSpaceOnUse" color-interpolation-filters="sRGB">
<feFlood flood-opacity="0" result="BackgroundImageFix"/>
<feColorMatrix in="SourceAlpha" type="matrix" values="0 0 0 0 0 0 0 0 0 0 0 0 0 0 0 0 0 0 127 0" result="hardAlpha"/>
<feOffset dy="4"/>
<feGaussianBlur stdDeviation="15"/>
<feComposite in2="hardAlpha" operator="out"/>
<feColorMatrix type="matrix" values="0 0 0 0 0 0 0 0 0 0 0 0 0 0 0 0 0 0 0.15 0"/>
<feBlend mode="normal" in2="BackgroundImageFix" result="effect1_dropShadow_5382_23829"/>
<feBlend mode="normal" in="SourceGraphic" in2="effect1_dropShadow_5382_23829" result="shape"/>
</filter>
<filter id="filter18_d_5382_23829" x="500.014" y="215.014" width="179.61" height="179.609" filterUnits="userSpaceOnUse" color-interpolation-filters="sRGB">
<feFlood flood-opacity="0" result="BackgroundImageFix"/>
<feColorMatrix in="SourceAlpha" type="matrix" values="0 0 0 0 0 0 0 0 0 0 0 0 0 0 0 0 0 0 127 0" result="hardAlpha"/>
<feOffset dy="4"/>
<feGaussianBlur stdDeviation="15"/>
<feComposite in2="hardAlpha" operator="out"/>
<feColorMatrix type="matrix" values="0 0 0 0 0 0 0 0 0 0 0 0 0 0 0 0 0 0 0.15 0"/>
<feBlend mode="normal" in2="BackgroundImageFix" result="effect1_dropShadow_5382_23829"/>
<feBlend mode="normal" in="SourceGraphic" in2="effect1_dropShadow_5382_23829" result="shape"/>
</filter>
<filter id="filter19_d_5382_23829" x="514.276" y="229.275" width="151.086" height="151.086" filterUnits="userSpaceOnUse" color-interpolation-filters="sRGB">
<feFlood flood-opacity="0" result="BackgroundImageFix"/>
<feColorMatrix in="SourceAlpha" type="matrix" values="0 0 0 0 0 0 0 0 0 0 0 0 0 0 0 0 0 0 127 0" result="hardAlpha"/>
<feOffset dy="4"/>
<feGaussianBlur stdDeviation="15"/>
<feComposite in2="hardAlpha" operator="out"/>
<feColorMatrix type="matrix" values="0 0 0 0 0 0 0 0 0 0 0 0 0 0 0 0 0 0 0.15 0"/>
<feBlend mode="normal" in2="BackgroundImageFix" result="effect1_dropShadow_5382_23829"/>
<feBlend mode="normal" in="SourceGraphic" in2="effect1_dropShadow_5382_23829" result="shape"/>
</filter>
<filter id="filter20_d_5382_23829" x="321.49" y="327.49" width="153.493" height="153.494" filterUnits="userSpaceOnUse" color-interpolation-filters="sRGB">
<feFlood flood-opacity="0" result="BackgroundImageFix"/>
<feColorMatrix in="SourceAlpha" type="matrix" values="0 0 0 0 0 0 0 0 0 0 0 0 0 0 0 0 0 0 127 0" result="hardAlpha"/>
<feOffset dy="4"/>
<feGaussianBlur stdDeviation="15"/>
<feComposite in2="hardAlpha" operator="out"/>
<feColorMatrix type="matrix" values="0 0 0 0 0 0 0 0 0 0 0 0 0 0 0 0 0 0 0.15 0"/>
<feBlend mode="normal" in2="BackgroundImageFix" result="effect1_dropShadow_5382_23829"/>
<feBlend mode="normal" in="SourceGraphic" in2="effect1_dropShadow_5382_23829" result="shape"/>
</filter>
<filter id="filter21_d_5382_23829" x="160" y="64" width="480" height="301.457" filterUnits="userSpaceOnUse" color-interpolation-filters="sRGB">
<feFlood flood-opacity="0" result="BackgroundImageFix"/>
<feColorMatrix in="SourceAlpha" type="matrix" values="0 0 0 0 0 0 0 0 0 0 0 0 0 0 0 0 0 0 127 0" result="hardAlpha"/>
<feOffset dy="4"/>
<feGaussianBlur stdDeviation="15.5"/>
<feComposite in2="hardAlpha" operator="out"/>
<feColorMatrix type="matrix" values="0 0 0 0 0.769028 0 0 0 0 0.816667 0 0 0 0 0.775242 0 0 0 0.3 0"/>
<feBlend mode="normal" in2="BackgroundImageFix" result="effect1_dropShadow_5382_23829"/>
<feBlend mode="normal" in="SourceGraphic" in2="effect1_dropShadow_5382_23829" result="shape"/>
</filter>
<filter id="filter22_d_5382_23829" x="287.401" y="96.5664" width="348.255" height="142.338" filterUnits="userSpaceOnUse" color-interpolation-filters="sRGB">
<feFlood flood-opacity="0" result="BackgroundImageFix"/>
<feColorMatrix in="SourceAlpha" type="matrix" values="0 0 0 0 0 0 0 0 0 0 0 0 0 0 0 0 0 0 127 0" result="hardAlpha"/>
<feOffset dy="12"/>
<feGaussianBlur stdDeviation="18"/>
<feColorMatrix type="matrix" values="0 0 0 0 0 0 0 0 0 0 0 0 0 0 0 0 0 0 0.09 0"/>
<feBlend mode="normal" in2="BackgroundImageFix" result="effect1_dropShadow_5382_23829"/>
<feBlend mode="normal" in="SourceGraphic" in2="effect1_dropShadow_5382_23829" result="shape"/>
</filter>
<filter id="filter23_d_5382_23829" x="287.401" y="203.102" width="348.255" height="175.355" filterUnits="userSpaceOnUse" color-interpolation-filters="sRGB">
<feFlood flood-opacity="0" result="BackgroundImageFix"/>
<feColorMatrix in="SourceAlpha" type="matrix" values="0 0 0 0 0 0 0 0 0 0 0 0 0 0 0 0 0 0 127 0" result="hardAlpha"/>
<feOffset dy="12"/>
<feGaussianBlur stdDeviation="18"/>
<feColorMatrix type="matrix" values="0 0 0 0 0 0 0 0 0 0 0 0 0 0 0 0 0 0 0.09 0"/>
<feBlend mode="normal" in2="BackgroundImageFix" result="effect1_dropShadow_5382_23829"/>
<feBlend mode="normal" in="SourceGraphic" in2="effect1_dropShadow_5382_23829" result="shape"/>
</filter>
<clipPath id="clip0_5382_23829">
<rect width="800" height="420" rx="8" fill="white"/>
</clipPath>
</defs>
</svg>
