<svg width="20" height="20" viewBox="0 0 20 20" fill="none" xmlns="http://www.w3.org/2000/svg">
<path fill-rule="evenodd" clip-rule="evenodd" d="M4.08727 0.237273L7.51455 3.66545C7.88636 5.38273 5.39636 7.90182 3.65818 7.52182L0.230909 4.09364C0.0745455 4.62545 0 5.17455 0 5.72364C0 7.18 0.548182 8.63455 1.66 9.74727C2.88818 10.9755 4.53636 11.5264 6.14273 11.4027C6.99091 11.3373 7.82636 11.6473 8.42818 12.2491L15.3564 19.1682C15.8809 19.6936 16.5718 20 17.2618 20C18.7718 20 20.0318 18.7173 20 17.2027C19.9855 16.5327 19.68 15.8664 19.1691 15.3545L12.2409 8.43455C11.6391 7.83364 11.33 6.99727 11.3945 6.14909C11.5191 4.54273 10.9664 2.89455 9.74 1.66727C8.62636 0.554545 7.17182 0 5.71545 0C5.16727 0 4.61818 0.0818182 4.08727 0.237273ZM18.1409 17.23C18.1409 17.7327 17.7345 18.1391 17.2318 18.1391C16.7291 18.1391 16.3227 17.7318 16.3227 17.23C16.3227 16.7282 16.7291 16.3209 17.2318 16.3209C17.7345 16.3209 18.1409 16.7273 18.1409 17.23Z" fill="white"/>
</svg>
