<?xml version="1.0" encoding="UTF-8"?>
<svg width="99px" height="99px" viewBox="0 0 99 99" version="1.1" xmlns="http://www.w3.org/2000/svg" xmlns:xlink="http://www.w3.org/1999/xlink">
    <!-- Generator: Sketch 50.2 (55047) - http://www.bohemiancoding.com/sketch -->
    <title>Group 4</title>
    <desc>Created with Sketch.</desc>
    <defs></defs>
    <g id="Page-1" stroke="none" stroke-width="1" fill="none" fill-rule="evenodd">
        <g id="Artboard" transform="translate(-592.000000, -193.000000)">
            <g id="Group-4" transform="translate(592.000000, 196.000000)">
                <g id="Group-3">
                    <g id="Group-2" transform="translate(22.224490, 0.000000)" stroke="#565656" stroke-width="5">
                        <g id="Group">
                            <path d="M3.43731549,1.68136705 C-4.96279971,6.74768378 2.03324285,13.1307848 24.4254431,20.8306702 C18.8334732,2.99815139 11.8374307,-3.38494967 3.43731549,1.68136705 Z" id="Path-2"></path>
                        </g>
                        <g id="Group" transform="translate(39.903061, 10.500000) scale(-1, 1) translate(-39.903061, -10.500000) translate(27.275510, 0.000000)">
                            <path d="M3.43731549,1.68136705 C-4.96279971,6.74768378 2.03324285,13.1307848 24.4254431,20.8306702 C18.8334732,2.99815139 11.8374307,-3.38494967 3.43731549,1.68136705 Z" id="Path-2"></path>
                        </g>
                    </g>
                    <rect id="Rectangle-2" fill="#5C5C5C" x="8.08163265" y="20" width="82.8367347" height="76" rx="7"></rect>
                    <rect id="Rectangle-2" fill="#424242" x="8.08163265" y="20" width="82.8367347" height="35"></rect>
                    <rect id="Rectangle-3" fill="#5C5C5C" x="0" y="20" width="99" height="27" rx="6"></rect>
                    <rect id="Rectangle-4" fill="#2DB52A" x="37.377551" y="20" width="24.244898" height="27"></rect>
                    <rect id="Rectangle-4-Copy-2" fill="#2DB52A" x="38.3877551" y="55" width="22.2244898" height="41"></rect>
                    <rect id="Rectangle-4-Copy" fill="#259923" x="38.3877551" y="47" width="22.2244898" height="8"></rect>
                </g>
            </g>
        </g>
    </g>
</svg>