<?xml version="1.0" encoding="UTF-8"?>
<svg width="44px" height="44px" viewBox="0 0 44 44" version="1.1" xmlns="http://www.w3.org/2000/svg" xmlns:xlink="http://www.w3.org/1999/xlink">
    <!-- Generator: Sketch 48.2 (47327) - http://www.bohemiancoding.com/sketch -->
    <title>views</title>
    <desc>Created with Sketch.</desc>
    <defs></defs>
    <g id="Page-1" stroke="none" stroke-width="1" fill="none" fill-rule="evenodd">
        <g id="views">
            <path d="M35.1901053,22 C30.9240195,16.4095014 26.3649618,13.6469231 21.4999999,13.6469231 C16.6350381,13.6469231 12.0759805,16.4095014 7.80989473,22 C12.0759805,27.5904986 16.6350381,30.3530769 21.4999999,30.3530769 C26.3649618,30.3530769 30.9240194,27.5904986 35.1901053,22 Z" id="Shape" stroke="#636363" stroke-width="1.29384615" fill-rule="nonzero"></path>
            <path d="M23.7787429,16.4927941 C23.0844506,16.1763184 22.312816,16 21.4999999,16 C18.4624339,16 16,18.4624339 16,21.5 C16,24.5375661 18.4624339,27 21.4999999,27 C24.537566,27 27,24.5375661 27,21.5 C27,21.3208653 26.991436,21.1437307 26.9746953,20.9689835 C26.5194937,21.3028376 25.9577718,21.5 25.3499999,21.5 C23.831217,21.5 22.6,20.2687831 22.6,18.75 C22.6,17.8154181 23.066206,16.9897243 23.7787429,16.4927941 Z" id="Path" fill="#636363"></path>
        </g>
    </g>
</svg>