<svg width="10" height="14" viewBox="0 0 10 14" fill="none" xmlns="http://www.w3.org/2000/svg">
<path fill-rule="evenodd" clip-rule="evenodd" d="M1.79995 0.600098C0.916295 0.600098 0.199951 1.31644 0.199951 2.2001V11.8001C0.199951 12.6838 0.916295 13.4001 1.79995 13.4001H8.19995C9.08361 13.4001 9.79995 12.6838 9.79995 11.8001V4.93147C9.79995 4.50712 9.63138 4.10016 9.33132 3.8001L6.59995 1.06873C6.29989 0.768669 5.89293 0.600098 5.46858 0.600098H1.79995ZM5.79995 5.4001C5.79995 4.95827 5.44178 4.6001 4.99995 4.6001C4.55812 4.6001 4.19995 4.95827 4.19995 5.4001V7.0001H2.59995C2.15812 7.0001 1.79995 7.35827 1.79995 7.8001C1.79995 8.24192 2.15812 8.6001 2.59995 8.6001H4.19995V10.2001C4.19995 10.6419 4.55812 11.0001 4.99995 11.0001C5.44178 11.0001 5.79995 10.6419 5.79995 10.2001V8.6001H7.39995C7.84178 8.6001 8.19995 8.24192 8.19995 7.8001C8.19995 7.35827 7.84178 7.0001 7.39995 7.0001H5.79995V5.4001Z" fill="#A7AEB8"/>
</svg>