<svg width="10" height="14" viewBox="0 0 10 14" fill="none" xmlns="http://www.w3.org/2000/svg">
<path fill-rule="evenodd" clip-rule="evenodd" d="M0.199951 2.2001C0.199951 1.31644 0.916295 0.600098 1.79995 0.600098H5.46858C5.89293 0.600098 6.29989 0.768669 6.59995 1.06873L9.33132 3.8001C9.63138 4.10016 9.79995 4.50712 9.79995 4.93147V11.8001C9.79995 12.6838 9.08361 13.4001 8.19995 13.4001H1.79995C0.916295 13.4001 0.199951 12.6838 0.199951 11.8001V2.2001ZM1.79995 7.0001C1.79995 6.55827 2.15812 6.2001 2.59995 6.2001H7.39995C7.84178 6.2001 8.19995 6.55827 8.19995 7.0001C8.19995 7.44193 7.84178 7.8001 7.39995 7.8001H2.59995C2.15812 7.8001 1.79995 7.44193 1.79995 7.0001ZM2.59995 9.4001C2.15812 9.4001 1.79995 9.75827 1.79995 10.2001C1.79995 10.6419 2.15812 11.0001 2.59995 11.0001H7.39995C7.84178 11.0001 8.19995 10.6419 8.19995 10.2001C8.19995 9.75827 7.84178 9.4001 7.39995 9.4001H2.59995Z" fill="#A7AEB8"/>
</svg>
 