<svg width="14" height="12" viewBox="0 0 14 12" fill="none" xmlns="http://www.w3.org/2000/svg">
<path d="M7 11.3334L6.54038 11.793C6.79422 12.0469 7.20578 12.0469 7.45962 11.793L7 11.3334ZM4.33333 8.66675L4.79295 8.20713C4.67105 8.08523 4.50572 8.01675 4.33333 8.01675V8.66675ZM9.66667 8.66675V8.01675C9.49428 8.01675 9.32895 8.08523 9.20705 8.20713L9.66667 8.66675ZM3.66667 2.68341C3.30768 2.68341 3.01667 2.97443 3.01667 3.33341C3.01667 3.6924 3.30768 3.98341 3.66667 3.98341V2.68341ZM10.3333 3.98341C10.6923 3.98341 10.9833 3.6924 10.9833 3.33341C10.9833 2.97443 10.6923 2.68341 10.3333 2.68341V3.98341ZM3.66667 5.35008C3.30768 5.35008 3.01667 5.6411 3.01667 6.00008C3.01667 6.35907 3.30768 6.65008 3.66667 6.65008V5.35008ZM6.33333 6.65008C6.69232 6.65008 6.98333 6.35907 6.98333 6.00008C6.98333 5.6411 6.69232 5.35008 6.33333 5.35008V6.65008ZM2.33333 1.31675H11.6667V0.0167481H2.33333V1.31675ZM12.35 2.00008V7.33341H13.65V2.00008H12.35ZM1.65 7.33341V2.00008H0.35V7.33341H1.65ZM7.45962 10.8738L4.79295 8.20713L3.87371 9.12637L6.54038 11.793L7.45962 10.8738ZM4.33333 8.01675H2.33333V9.31675H4.33333V8.01675ZM11.6667 8.01675H9.66667V9.31675H11.6667V8.01675ZM9.20705 8.20713L6.54038 10.8738L7.45962 11.793L10.1263 9.12637L9.20705 8.20713ZM0.35 7.33341C0.35 8.42878 1.23797 9.31675 2.33333 9.31675V8.01675C1.95594 8.01675 1.65 7.71081 1.65 7.33341H0.35ZM12.35 7.33341C12.35 7.71081 12.0441 8.01675 11.6667 8.01675V9.31675C12.762 9.31675 13.65 8.42878 13.65 7.33341H12.35ZM11.6667 1.31675C12.0441 1.31675 12.35 1.62269 12.35 2.00008H13.65C13.65 0.904717 12.762 0.0167481 11.6667 0.0167481V1.31675ZM2.33333 0.0167481C1.23797 0.0167481 0.35 0.904717 0.35 2.00008H1.65C1.65 1.62269 1.95594 1.31675 2.33333 1.31675V0.0167481ZM3.66667 3.98341H10.3333V2.68341H3.66667V3.98341ZM3.66667 6.65008H6.33333V5.35008H3.66667V6.65008Z" fill="#333C48"/>
</svg>

