<svg width="16" height="12" viewBox="0 0 16 12" fill="none" xmlns="http://www.w3.org/2000/svg">
<path d="M8.00001 7.5999C8.88366 7.5999 9.60001 6.88356 9.60001 5.9999C9.60001 5.11625 8.88366 4.3999 8.00001 4.3999C7.11635 4.3999 6.40001 5.11625 6.40001 5.9999C6.40001 6.88356 7.11635 7.5999 8.00001 7.5999Z" fill="#A7AEB8"/>
<path fill-rule="evenodd" clip-rule="evenodd" d="M0.366211 5.99993C1.38561 2.75423 4.41785 0.399902 7.99998 0.399902C11.5821 0.399902 14.6143 2.75421 15.6337 5.99987C14.6143 9.24557 11.5821 11.5999 7.99996 11.5999C4.41786 11.5999 1.38563 9.2456 0.366211 5.99993ZM11.2 5.9999C11.2 7.76721 9.76732 9.1999 8.00001 9.1999C6.2327 9.1999 4.80001 7.76721 4.80001 5.9999C4.80001 4.23259 6.2327 2.7999 8.00001 2.7999C9.76732 2.7999 11.2 4.23259 11.2 5.9999Z" fill="#A7AEB8"/>
</svg> 
