<?xml version="1.0" encoding="UTF-8"?>
<svg width="85px" height="85px" viewBox="0 0 85 85" version="1.1" xmlns="http://www.w3.org/2000/svg" xmlns:xlink="http://www.w3.org/1999/xlink">
    <!-- Generator: Sketch 49.3 (51167) - http://www.bohemiancoding.com/sketch -->
    <title>Group 2</title>
    <desc>Created with Sketch.</desc>
    <defs>
        <circle id="path-1" cx="42.5" cy="42.5" r="42.5"></circle>
    </defs>
    <g id="Page-1" stroke="none" stroke-width="1" fill="none" fill-rule="evenodd">
        <g id="api_log-copy-5" transform="translate(-634.000000, -147.000000)">
            <g id="Group-2" transform="translate(634.000000, 147.000000)">
                <mask id="mask-2" fill="white">
                    <use xlink:href="#path-1"></use>
                </mask>
                <use id="Mask" fill="#D8D8D8" xlink:href="#path-1"></use>
                <path d="M40.6823259,42.1216944 L57.6933257,35.7348312 C58.9342288,35.268928 60.3178687,35.8971896 60.7837719,37.1380928 C60.9674615,37.6273382 60.9864417,38.1631702 60.8378292,38.6641864 L55.7335948,55.8720509 C54.4607478,60.1631899 51.1000722,63.5169664 46.8063266,64.7809925 L29.4992401,69.8759868 C28.22771,70.2503097 26.8934825,69.5229796 26.5191596,68.2514495 C26.3714749,67.749782 26.3916889,67.2136054 26.5767266,66.7244817 L32.9760033,49.8088114 C34.3195578,46.2572964 37.1274695,43.4563827 40.6823259,42.1216944 Z" id="Rectangle-10" fill="#52A4EF" opacity="0.905061141" mask="url(#mask-2)" transform="translate(43.609152, 52.708740) rotate(45.000000) translate(-43.609152, -52.708740) "></path>
                <path d="M39.4777805,32.5216944 L56.4887802,26.1348312 C57.7296834,25.668928 59.1133233,26.2971896 59.5792264,27.5380928 C59.762916,28.0273382 59.7818963,28.5631702 59.6332837,29.0641864 L54.5290494,46.2720509 C53.2562024,50.5631899 49.8955268,53.9169664 45.6017811,55.1809925 L28.2946946,60.2759868 C27.0231645,60.6503097 25.6889371,59.9229796 25.3146142,58.6514495 C25.1669294,58.149782 25.1871434,57.6136054 25.3721812,57.1244817 L31.7714578,40.2088114 C33.1150124,36.6572964 35.922924,33.8563827 39.4777805,32.5216944 Z" id="Rectangle-10-Copy" fill="#0DC1B9" opacity="0.905061141" mask="url(#mask-2)" transform="translate(42.404607, 43.108740) rotate(45.000000) translate(-42.404607, -43.108740) "></path>
                <path d="M39.4777805,21.7216944 L56.4887802,15.3348312 C57.7296834,14.868928 59.1133233,15.4971896 59.5792264,16.7380928 C59.762916,17.2273382 59.7818963,17.7631702 59.6332837,18.2641864 L54.5290494,35.4720509 C53.2562024,39.7631899 49.8955268,43.1169664 45.6017811,44.3809925 L28.2946946,49.4759868 C27.0231645,49.8503097 25.6889371,49.1229796 25.3146142,47.8514495 C25.1669294,47.349782 25.1871434,46.8136054 25.3721812,46.3244817 L31.7714578,29.4088114 C33.1150124,25.8572964 35.922924,23.0563827 39.4777805,21.7216944 Z" id="Rectangle-10-Copy-2" fill="#FF8700" opacity="0.905061141" mask="url(#mask-2)" transform="translate(42.404607, 32.308740) rotate(45.000000) translate(-42.404607, -32.308740) "></path>
                <g id="Group" mask="url(#mask-2)">
                    <g transform="translate(33.000000, 27.000000)">
                        <polyline id="Path-3" stroke="#FFFFFF" stroke-width="2" fill="none" points="11.7421931 3.80389847 0.898560381 8.98836255 4.04705323 10.5450445"></polyline>
                        <path d="M4.82684224,7.76619155 L7.56637182,8.99622723" id="Path-4" stroke="#FFFFFF" stroke-width="1" fill="none"></path>
                        <ellipse id="Oval" stroke="none" fill="#FFFFFF" fill-rule="evenodd" cx="13.5" cy="3" rx="6.5" ry="3"></ellipse>
                        <ellipse id="Oval" stroke="none" fill="#FB8E14" fill-rule="evenodd" cx="13.5" cy="3" rx="2.5" ry="1"></ellipse>
                    </g>
                </g>
            </g>
        </g>
    </g>
</svg>