<?xml version="1.0" encoding="UTF-8"?>
<svg width="85px" height="85px" viewBox="0 0 85 85" version="1.1" xmlns="http://www.w3.org/2000/svg" xmlns:xlink="http://www.w3.org/1999/xlink">
    <!-- Generator: Sketch 49.3 (51167) - http://www.bohemiancoding.com/sketch -->
    <title>Group 14</title>
    <desc>Created with Sketch.</desc>
    <defs>
        <circle id="path-1" cx="42.5" cy="42.5" r="42.5"></circle>
    </defs>
    <g id="Page-1" stroke="none" stroke-width="1" fill="none" fill-rule="evenodd">
        <g id="help-mode-copy-2" transform="translate(-724.000000, -197.000000)">
            <g id="Group-14" transform="translate(724.000000, 197.000000)">
                <g id="Group-11">
                    <g id="Group-10">
                        <g id="Group-3">
                            <mask id="mask-2" fill="white">
                                <use xlink:href="#path-1"></use>
                            </mask>
                            <use id="Mask" fill="#D8D8D8" xlink:href="#path-1"></use>
                            <g id="Group-12" mask="url(#mask-2)">
                                <g transform="translate(14.000000, 20.000000)">
                                    <rect id="Rectangle-9" fill="#F3F3F3" x="0" y="4" width="49" height="33" rx="5"></rect>
                                    <path d="M20.907,26.332 C20.2496634,26.332 19.6624193,26.1773349 19.14525,25.868 C18.6280807,25.5586651 18.268001,25.0608368 18.065,24.3745 C17.4946638,25.0705035 16.8905032,25.5683318 16.2525,25.868 C15.6144968,26.1676682 14.9281703,26.3175 14.1935,26.3175 C13.584497,26.3175 13.0552522,26.2111677 12.60575,25.9985 C12.1562478,25.7858323 11.7792515,25.4934185 11.47475,25.12125 C11.1702485,24.7490815 10.9430841,24.3092525 10.79325,23.80175 C10.6434159,23.2942475 10.5685,22.7408363 10.5685,22.1415 C10.5685,21.5904972 10.6385826,21.0322528 10.77875,20.46675 C10.9189174,19.9012472 11.1291653,19.355086 11.4095,18.82825 C11.6898347,18.301414 12.0402479,17.808419 12.46075,17.34925 C12.8812521,16.890081 13.3766638,16.4889184 13.947,16.14575 C14.5173362,15.8025816 15.1553298,15.5319177 15.861,15.33375 C16.5666702,15.1355823 17.3496624,15.0365 18.21,15.0365 C18.9543371,15.0365 19.5923307,15.0944994 20.124,15.2105 C20.6556693,15.3265006 21.1679975,15.4908323 21.661,15.7035 L20.269,21.083 C20.1143326,21.7016698 20.037,22.2188313 20.037,22.6345 C20.037,22.9245015 20.0732496,23.1661657 20.14575,23.3595 C20.2182504,23.5528343 20.3149161,23.7074994 20.43575,23.8235 C20.5565839,23.9395006 20.7039991,24.0192498 20.878,24.06275 C21.0520009,24.1062502 21.240499,24.128 21.4435,24.128 C21.849502,24.128 22.2337482,23.9999179 22.59625,23.74375 C22.9587518,23.4875821 23.275332,23.1275023 23.546,22.6635 C23.816668,22.1994977 24.0317492,21.6485032 24.19125,21.0105 C24.3507508,20.3724968 24.4305,19.6765038 24.4305,18.9225 C24.4305,17.6658271 24.234752,16.5590048 23.84325,15.602 C23.451748,14.6449952 22.9055868,13.8450865 22.20475,13.20225 C21.5039132,12.5594135 20.6653382,12.076085 19.689,11.75225 C18.7126618,11.428415 17.6445058,11.2665 16.4845,11.2665 C15.2181603,11.2665 14.0412554,11.5057476 12.95375,11.98425 C11.8662446,12.4627524 10.923754,13.1176625 10.12625,13.949 C9.32874601,14.7803375 8.70525225,15.7614943 8.25575,16.8925 C7.80624775,18.0235057 7.5815,19.2414935 7.5815,20.5465 C7.5815,22.1318413 7.82799754,23.526244 8.321,24.72975 C8.81400247,25.933256 9.49066237,26.9385793 10.351,27.74575 C11.2113376,28.5529207 12.2239108,29.159498 13.38875,29.5655 C14.5535892,29.971502 15.8126599,30.1745 17.166,30.1745 C17.9103371,30.1745 18.6063301,30.1334171 19.254,30.05125 C19.9016699,29.9690829 20.496164,29.8579174 21.0375,29.71775 C21.578836,29.5775826 22.0718311,29.4180842 22.5165,29.23925 C22.9611689,29.0604158 23.3574983,28.869501 23.7055,28.6665 C23.8988343,28.5601661 24.063166,28.507 24.1985,28.507 C24.4788347,28.507 24.6769994,28.6616651 24.793,28.971 L25.286,30.2615 C24.2806616,30.9188366 23.1061734,31.4553313 21.7625,31.871 C20.4188266,32.2866687 18.8866753,32.4945 17.166,32.4945 C15.4163246,32.4945 13.7971741,32.2190028 12.3085,31.668 C10.8198259,31.1169972 9.53175544,30.3267551 8.44425,29.29725 C7.35674456,28.2677449 6.5060864,27.0135074 5.89225,25.5345 C5.2784136,24.0554926 4.9715,22.3928426 4.9715,20.5465 C4.9715,19.5121615 5.10441534,18.5068382 5.37025,17.5305 C5.63608466,16.5541618 6.01549753,15.6382543 6.5085,14.78275 C7.00150246,13.9272457 7.59599652,13.1418369 8.292,12.4265 C8.98800348,11.7111631 9.76132908,11.0973359 10.612,10.585 C11.4626709,10.0726641 12.3834117,9.67391809 13.37425,9.38875 C14.3650883,9.10358191 15.4018279,8.961 16.4845,8.961 C17.8571735,8.961 19.1742437,9.19058104 20.43575,9.64975 C21.6972563,10.108919 22.8137451,10.7662457 23.78525,11.62175 C24.7567549,12.4772543 25.5324971,13.5212438 26.1125,14.75375 C26.6925029,15.9862562 26.9825,17.3758256 26.9825,18.9225 C26.9825,19.9568385 26.8302515,20.9259121 26.52575,21.82975 C26.2212485,22.7335879 25.7959194,23.5189967 25.24975,24.186 C24.7035806,24.8530033 24.0607537,25.3774148 23.32125,25.75925 C22.5817463,26.1410852 21.7770043,26.332 20.907,26.332 Z M14.904,24.012 C15.1553346,24.012 15.4090821,23.9733337 15.66525,23.896 C15.9214179,23.8186663 16.1654988,23.6809177 16.3975,23.48275 C16.6295012,23.2845823 16.8421657,23.0211683 17.0355,22.6925 C17.2288343,22.3638317 17.3883327,21.9530025 17.514,21.46 L18.5725,17.371 C18.2631651,17.3129997 17.9441683,17.284 17.6155,17.284 C17.0161637,17.284 16.4555026,17.4144987 15.9335,17.6755 C15.4114974,17.9365013 14.9595852,18.2893311 14.57775,18.734 C14.1959148,19.1786689 13.8938344,19.6885805 13.6715,20.26375 C13.4491656,20.8389195 13.338,21.4358302 13.338,22.0545 C13.338,22.6731698 13.4709153,23.1540816 13.73675,23.49725 C14.0025847,23.8404184 14.3916641,24.012 14.904,24.012 Z" id="@" fill="#CECECE"></path>
                                </g>
                            </g>
                            <g id="Group-12" opacity="0.605751812" mask="url(#mask-2)">
                                <g transform="translate(14.000000, 58.000000)">
                                    <rect id="Rectangle-9" fill="#F3F3F3" x="0" y="4" width="49" height="33" rx="5"></rect>
                                    <path d="M20.907,26.332 C20.2496634,26.332 19.6624193,26.1773349 19.14525,25.868 C18.6280807,25.5586651 18.268001,25.0608368 18.065,24.3745 C17.4946638,25.0705035 16.8905032,25.5683318 16.2525,25.868 C15.6144968,26.1676682 14.9281703,26.3175 14.1935,26.3175 C13.584497,26.3175 13.0552522,26.2111677 12.60575,25.9985 C12.1562478,25.7858323 11.7792515,25.4934185 11.47475,25.12125 C11.1702485,24.7490815 10.9430841,24.3092525 10.79325,23.80175 C10.6434159,23.2942475 10.5685,22.7408363 10.5685,22.1415 C10.5685,21.5904972 10.6385826,21.0322528 10.77875,20.46675 C10.9189174,19.9012472 11.1291653,19.355086 11.4095,18.82825 C11.6898347,18.301414 12.0402479,17.808419 12.46075,17.34925 C12.8812521,16.890081 13.3766638,16.4889184 13.947,16.14575 C14.5173362,15.8025816 15.1553298,15.5319177 15.861,15.33375 C16.5666702,15.1355823 17.3496624,15.0365 18.21,15.0365 C18.9543371,15.0365 19.5923307,15.0944994 20.124,15.2105 C20.6556693,15.3265006 21.1679975,15.4908323 21.661,15.7035 L20.269,21.083 C20.1143326,21.7016698 20.037,22.2188313 20.037,22.6345 C20.037,22.9245015 20.0732496,23.1661657 20.14575,23.3595 C20.2182504,23.5528343 20.3149161,23.7074994 20.43575,23.8235 C20.5565839,23.9395006 20.7039991,24.0192498 20.878,24.06275 C21.0520009,24.1062502 21.240499,24.128 21.4435,24.128 C21.849502,24.128 22.2337482,23.9999179 22.59625,23.74375 C22.9587518,23.4875821 23.275332,23.1275023 23.546,22.6635 C23.816668,22.1994977 24.0317492,21.6485032 24.19125,21.0105 C24.3507508,20.3724968 24.4305,19.6765038 24.4305,18.9225 C24.4305,17.6658271 24.234752,16.5590048 23.84325,15.602 C23.451748,14.6449952 22.9055868,13.8450865 22.20475,13.20225 C21.5039132,12.5594135 20.6653382,12.076085 19.689,11.75225 C18.7126618,11.428415 17.6445058,11.2665 16.4845,11.2665 C15.2181603,11.2665 14.0412554,11.5057476 12.95375,11.98425 C11.8662446,12.4627524 10.923754,13.1176625 10.12625,13.949 C9.32874601,14.7803375 8.70525225,15.7614943 8.25575,16.8925 C7.80624775,18.0235057 7.5815,19.2414935 7.5815,20.5465 C7.5815,22.1318413 7.82799754,23.526244 8.321,24.72975 C8.81400247,25.933256 9.49066237,26.9385793 10.351,27.74575 C11.2113376,28.5529207 12.2239108,29.159498 13.38875,29.5655 C14.5535892,29.971502 15.8126599,30.1745 17.166,30.1745 C17.9103371,30.1745 18.6063301,30.1334171 19.254,30.05125 C19.9016699,29.9690829 20.496164,29.8579174 21.0375,29.71775 C21.578836,29.5775826 22.0718311,29.4180842 22.5165,29.23925 C22.9611689,29.0604158 23.3574983,28.869501 23.7055,28.6665 C23.8988343,28.5601661 24.063166,28.507 24.1985,28.507 C24.4788347,28.507 24.6769994,28.6616651 24.793,28.971 L25.286,30.2615 C24.2806616,30.9188366 23.1061734,31.4553313 21.7625,31.871 C20.4188266,32.2866687 18.8866753,32.4945 17.166,32.4945 C15.4163246,32.4945 13.7971741,32.2190028 12.3085,31.668 C10.8198259,31.1169972 9.53175544,30.3267551 8.44425,29.29725 C7.35674456,28.2677449 6.5060864,27.0135074 5.89225,25.5345 C5.2784136,24.0554926 4.9715,22.3928426 4.9715,20.5465 C4.9715,19.5121615 5.10441534,18.5068382 5.37025,17.5305 C5.63608466,16.5541618 6.01549753,15.6382543 6.5085,14.78275 C7.00150246,13.9272457 7.59599652,13.1418369 8.292,12.4265 C8.98800348,11.7111631 9.76132908,11.0973359 10.612,10.585 C11.4626709,10.0726641 12.3834117,9.67391809 13.37425,9.38875 C14.3650883,9.10358191 15.4018279,8.961 16.4845,8.961 C17.8571735,8.961 19.1742437,9.19058104 20.43575,9.64975 C21.6972563,10.108919 22.8137451,10.7662457 23.78525,11.62175 C24.7567549,12.4772543 25.5324971,13.5212438 26.1125,14.75375 C26.6925029,15.9862562 26.9825,17.3758256 26.9825,18.9225 C26.9825,19.9568385 26.8302515,20.9259121 26.52575,21.82975 C26.2212485,22.7335879 25.7959194,23.5189967 25.24975,24.186 C24.7035806,24.8530033 24.0607537,25.3774148 23.32125,25.75925 C22.5817463,26.1410852 21.7770043,26.332 20.907,26.332 Z M14.904,24.012 C15.1553346,24.012 15.4090821,23.9733337 15.66525,23.896 C15.9214179,23.8186663 16.1654988,23.6809177 16.3975,23.48275 C16.6295012,23.2845823 16.8421657,23.0211683 17.0355,22.6925 C17.2288343,22.3638317 17.3883327,21.9530025 17.514,21.46 L18.5725,17.371 C18.2631651,17.3129997 17.9441683,17.284 17.6155,17.284 C17.0161637,17.284 16.4555026,17.4144987 15.9335,17.6755 C15.4114974,17.9365013 14.9595852,18.2893311 14.57775,18.734 C14.1959148,19.1786689 13.8938344,19.6885805 13.6715,20.26375 C13.4491656,20.8389195 13.338,21.4358302 13.338,22.0545 C13.338,22.6731698 13.4709153,23.1540816 13.73675,23.49725 C14.0025847,23.8404184 14.3916641,24.012 14.904,24.012 Z" id="@" fill="#CECECE"></path>
                                </g>
                            </g>
                        </g>
                    </g>
                </g>
                <g id="Group-13" transform="translate(36.000000, 13.000000)">
                    <circle id="Oval-2" fill="#FFFFFF" cx="18.5679012" cy="19.18107" r="18.5390947"></circle>
                    <g id="Group-4" transform="translate(18.444230, 20.415620) rotate(45.000000) translate(-18.444230, -20.415620) translate(10.444230, 12.415620)" fill="#DC3030">
                        <rect id="Rectangle" transform="translate(8.045267, 7.870370) rotate(45.000000) translate(-8.045267, -7.870370) " x="6.49267201" y="-1.68650794" width="3.10519096" height="19.1137566"></rect>
                    </g>
                </g>
            </g>
        </g>
    </g>
</svg>