<?xml version="1.0" encoding="UTF-8"?>
<svg width="85px" height="85px" viewBox="0 0 85 85" version="1.1" xmlns="http://www.w3.org/2000/svg" xmlns:xlink="http://www.w3.org/1999/xlink">
    <!-- Generator: Sketch 49.3 (51167) - http://www.bohemiancoding.com/sketch -->
    <title>Group 8</title>
    <desc>Created with Sketch.</desc>
    <defs>
        <circle id="path-1" cx="42.5" cy="42.5" r="42.5"></circle>
        <rect id="path-3" x="0" y="0" width="66.9606114" height="78.072546"></rect>
    </defs>
    <g id="Page-1" stroke="none" stroke-width="1" fill="none" fill-rule="evenodd">
        <g id="delete-user" transform="translate(-724.000000, -197.000000)">
            <g id="Group-9" transform="translate(527.000000, 169.000000)">
                <g id="Group-8" transform="translate(197.000000, 28.000000)">
                    <g id="Group-7">
                        <g id="Group">
                            <mask id="mask-2" fill="white">
                                <use xlink:href="#path-1"></use>
                            </mask>
                            <use id="Mask" fill="#D8D8D8" xlink:href="#path-1"></use>
                            <g id="Group-11" mask="url(#mask-2)">
                                <g transform="translate(8.000000, 7.000000)">
                                    <g id="Group-35-Copy" stroke-width="1" fill="none">
                                        <mask id="mask-4" fill="white">
                                            <use xlink:href="#path-3"></use>
                                        </mask>
                                        <g id="Mask"></g>
                                        <g id="Group-32" mask="url(#mask-4)">
                                            <g transform="translate(2.092519, 7.667839)" id="Group-30">
                                                <g>
                                                    <path d="M50.1040378,53.3117653 L55.2840387,27.0861137 C55.2840387,10.8225496 46.5869553,0 29.8791944,0 C14.4484226,0 4.47695764,10.3162987 4.47695764,27.0861137 L10.8912585,53.3117653 L50.1040378,53.3117653 Z" id="Fill-125" fill="#9E9E9E"></path>
                                                    <polygon id="Fill-128" fill="#C0C0C0" points="25.8077356 70.5385453 34.6934091 70.5385453 34.6934091 57.8573332 25.8077356 57.8573332"></polygon>
                                                    <path d="M33.5792777,3.48538152 L26.5606098,3.48538152 C20.1019669,3.76490912 16.0970209,3.94336065 12.1975385,9.7193349 C8.29405112,15.5008858 9.77254368,16.9995998 10.080257,23.9724541 C10.3138789,29.2416539 7.29815454,25.5450582 9.38406392,40.1989963 C11.4713083,54.8529343 30.0689425,59.5526228 30.0689425,59.5526228 C30.0689425,59.5526228 47.7534491,55.6239007 50.7558237,40.1989963 C53.7581982,24.7747889 49.8246737,29.2416539 50.0596305,23.9724541 C50.3660089,16.9995998 51.8445015,15.5008858 47.9423491,9.7193349 C44.0415317,3.94336065 40.0365857,3.76490912 33.5792777,3.48538152 Z" id="Fill-126" fill="#C0C0C0"></path>
                                                    <path d="M39.9587449,65.6088217 C39.9608374,65.5872123 36.4000674,63.8870432 36.310089,63.9449006 C36.2647511,63.9748748 36.2298758,64.0173965 36.2068581,64.0654948 C35.4744764,63.5573261 34.5363303,62.7368673 34.5363303,62.7368673 C34.4979675,62.9459902 31.2733956,63.4367319 30.4287153,63.7009239 C29.5763626,63.4339436 26.3420255,62.9459902 26.3204028,62.7368673 C26.3204028,62.7368673 25.1520797,63.8584631 24.5452491,64.1888773 C24.5410641,64.0905895 24.4936336,63.9985754 24.4106304,63.9449006 C24.3220471,63.8870432 20.7703447,65.7078065 20.7794122,65.7872732 C20.7738322,65.7510253 20.7682521,65.7140802 20.7619746,65.6764381 C16.7666581,67.7885793 16.149365,67.0726819 14.6476337,71.6169224 L46.2097969,71.6169224 C44.6745854,66.963938 43.8068875,67.6324342 39.9587449,65.6088217 Z" id="Fill-127" fill="#C0C0C0"></path>
                                                    <path d="M23.4841451,71.0431384 C23.3453414,71.0431384 23.2079326,70.9824928 23.1165593,70.865384 C22.9582253,70.6632318 22.9937981,70.3704598 23.1967725,70.2129205 L26.3927467,67.7145991 C26.595721,67.5577569 26.8872787,67.5919136 27.0463101,67.7947628 C27.2046441,67.9976121 27.1690713,68.2903841 26.9660969,68.4486204 L23.7687277,70.9455477 C23.6843295,71.0124671 23.5838885,71.0431384 23.4841451,71.0431384" id="Fill-133" fill="#B0ADB2"></path>
                                                    <path d="M36.7328918,70.4780729 C36.6359384,70.4780729 36.5382875,70.4480986 36.4531917,70.3846647 L32.9670549,67.7552929 C32.7626855,67.601239 32.7222301,67.309164 32.8763791,67.1049207 C33.0312255,66.8992832 33.3213881,66.8581557 33.5285475,67.0136037 L37.0132893,69.6422784 C37.2190537,69.7977264 37.2588116,70.0891043 37.1046627,70.2940448 C37.0132893,70.414639 36.8744856,70.4780729 36.7328918,70.4780729" id="Fill-134" fill="#B0ADB2"></path>
                                                    <path d="M0,43.567269 C11.5088551,41.3919702 24.7689129,5.57661043 29.4733625,5.57661043 C34.1778121,5.57661043 56.1492627,43.567269 57.1955222,43.567269 C58.2417818,43.567269 59.9888912,9.66593642 41.7804874,3.29117363 C23.5713862,-3.08358917 6.27755732,1.39415261 6.27755732,25.0947469" id="Fill-137" fill="#9E9E9E"></path>
                                                    <path d="M35.6828411,64.20491 C35.6828411,64.1554176 35.6953962,64.1080164 35.7170189,64.0654948 C34.9846372,63.5573261 34.0464911,62.7368673 34.0464911,62.7368673 C34.0081283,62.9459902 33.9593028,63.1523248 33.9132674,63.3600535 C32.8439901,68.0918075 29.7512469,68.9540909 29.7512469,68.9540909 C29.7512469,68.9540909 26.6117707,67.5174166 25.9226344,63.3719038 C25.8870616,63.1585985 25.8521863,62.9459902 25.8305636,62.7368673 C25.8305636,62.7368673 24.6622404,63.8584631 24.0554099,64.1888773 C24.0561074,64.1937568 24.0595949,64.1986363 24.0595949,64.20491 C24.0581999,64.3192305 20.7038918,63.5238665 26.0398155,71.6169224 C26.1263063,71.6176194 29.492472,71.6169224 29.5782653,71.6169224 C29.8642429,71.6169224 33.0204592,71.622499 33.3057393,71.6169224 C38.629108,63.528746 35.6842361,64.3192305 35.6828411,64.20491" id="Fill-140" fill="#C0C0C0"></path>
                                                    <path d="M20.7794122,65.6360077 C20.7738322,65.5997597 20.7682521,65.5628147 20.7619746,65.5251725 C16.7666581,67.6373137 16.149365,66.9214164 14.6476337,71.4656568 L19.3599868,71.4656568 C22.1123469,71.4656568 21.1393255,68.8516207 20.7794122,65.6360077" id="Fill-141" fill="#C0C0C0"></path>
                                                    <path d="M41.0515576,71.5332732 L45.8218036,71.5332732 C44.2865921,66.8802889 43.4188942,67.5487851 39.5707515,65.5251725 C39.0392517,69.357001 38.2901299,71.5332732 41.0515576,71.5332732" id="Fill-142" fill="#C0C0C0"></path>
                                                    <path d="M24.0222255,64.1061914 C24.0222255,64.0999178 24.0187379,64.0950382 24.0180404,64.0901587 C24.0138554,63.9918709 23.966425,63.8998569 23.8834217,63.846182 C23.7948384,63.7883247 23.6839349,63.7806568 23.589074,63.8245726 C22.2540468,64.4338173 21.1519868,64.9587158 20.2291858,65.4459721 C20.2396484,65.5247417 20.243136,65.609088 20.2522035,65.6885547 C20.6121168,68.9041676 18.8327781,71.5182038 18.8327781,71.5182038 C18.8055753,71.584426 24.0138554,71.4979886 27.8892008,71.5182038 C25.1480007,69.2617678 24.0208305,64.220512 24.0222255,64.1061914" id="Fill-143" fill="#585858"></path>
                                                    <path d="M39.7278702,65.5101031 C39.7299628,65.4884938 39.7313578,65.4675815 39.7341478,65.4459721 C38.8120444,64.9587158 37.7085893,64.4338173 36.3763521,63.8245726 C36.2793988,63.7806568 36.1691928,63.7883247 36.0792144,63.846182 C36.0338765,63.8761563 35.9990012,63.9186779 35.9759835,63.9667762 C35.9543608,64.0092978 35.9418057,64.056699 35.9418057,64.1061914 C35.9432007,64.220512 35.6976784,68.7898471 32.085293,71.5182038 C35.9501758,71.4519815 41.2721493,71.6729547 41.2086763,71.5182038 C41.2086763,71.5182038 39.1963704,69.3419316 39.7278702,65.5101031 Z" id="Fill-144" fill="#585858"></path>
                                                </g>
                                            </g>
                                        </g>
                                    </g>
                                    <circle id="Oval-2" fill="#FFFFFF" cx="46.9711934" cy="25.5390947" r="18.5390947"></circle>
                                    <g id="Group-4" stroke-width="1" fill="none" transform="translate(46.847522, 26.773645) rotate(45.000000) translate(-46.847522, -26.773645) translate(38.847522, 18.773645)">
                                        <rect id="Rectangle" fill="#DC3030" transform="translate(8.045267, 7.870370) rotate(45.000000) translate(-8.045267, -7.870370) " x="6.49267201" y="-1.68650794" width="3.10519096" height="19.1137566"></rect>
                                    </g>
                                </g>
                            </g>
                        </g>
                    </g>
                </g>
            </g>
        </g>
    </g>
</svg>