<?xml version="1.0" encoding="UTF-8"?>
<svg width="85px" height="85px" viewBox="0 0 85 85" version="1.1" xmlns="http://www.w3.org/2000/svg" xmlns:xlink="http://www.w3.org/1999/xlink">
    <!-- Generator: Sketch 49.3 (51167) - http://www.bohemiancoding.com/sketch -->
    <title>Group 5</title>
    <desc>Created with Sketch.</desc>
    <defs>
        <circle id="path-1" cx="42.5" cy="42.5" r="42.5"></circle>
        <rect id="path-3" x="0" y="0" width="55.9670782" height="65.225165"></rect>
    </defs>
    <g id="Page-1" stroke="none" stroke-width="1" fill="none" fill-rule="evenodd">
        <g id="management_applications-copy-5" transform="translate(-598.000000, -191.000000)">
            <g id="Group-5" transform="translate(598.000000, 191.000000)">
                <g id="Group-10">
                    <g id="Group-3">
                        <mask id="mask-2" fill="white">
                            <use xlink:href="#path-1"></use>
                        </mask>
                        <use id="Mask" fill="#D8D8D8" xlink:href="#path-1"></use>
                        <g id="Group-2" opacity="0.570708786" mask="url(#mask-2)">
                            <g transform="translate(5.596708, 20.987654)">
                                <g id="Group-35-Copy" stroke-width="1" fill="none" fill-rule="evenodd" transform="translate(0.000000, 0.000000)">
                                    <g id="Group-34">
                                        <g id="Group-33">
                                            <mask id="mask-4" fill="white">
                                                <use xlink:href="#path-3"></use>
                                            </mask>
                                            <g id="Mask"></g>
                                            <g mask="url(#mask-4)" id="Group-32">
                                                <g transform="translate(1.748971, 6.406043)">
                                                    <g>
                                                        <g id="Group-30">
                                                            <path d="M49.9500343,59.6926733 C49.9500343,59.6926733 46.8313013,48.9813092 46.2075547,42.8040145 C45.5838081,36.6267198 46.2075547,22.6289051 46.2075547,22.6289051 C46.2075547,9.04162372 38.9383507,0 24.9736551,0 C12.0762935,0 3.74193475,8.61867992 3.74193475,22.6289051 C3.74193475,22.6289051 4.63800862,38.95619 3.74193475,45.1334847 C2.84586087,51.3107794 0,59.6926733 0,59.6926733 L46.6810173,59.6926733" id="Fill-125" fill="#DC6430"></path>
                                                            <polygon id="Fill-128" fill="#E6B88E" points="21.5706447 58.9309366 28.9974763 58.9309366 28.9974763 48.3365062 21.5706447 48.3365062"></polygon>
                                                            <path d="M28.066262,2.91183772 L22.1999127,2.91183772 C16.801644,3.14536711 13.4542264,3.2944532 10.1949575,8.11995068 C6.93234123,12.9501071 8.16809621,14.2021973 8.42528946,20.0276199 C8.62055549,24.4297361 6.09995007,21.341441 7.84339671,33.5839716 C9.58795916,45.8265021 25.1322505,49.7528241 25.1322505,49.7528241 C25.1322505,49.7528241 39.9133306,46.4706006 42.422778,33.5839716 C44.9322253,20.6979249 41.6445034,24.4297361 41.8408852,20.0276199 C42.0969627,14.2021973 43.3327176,12.9501071 40.0712171,8.11995068 C36.8108324,3.2944532 33.4634149,3.14536711 28.066262,2.91183772 Z" id="Fill-126" fill="#EDC29A"></path>
                                                            <path d="M33.3983539,54.8124333 C33.4001029,54.7943799 30.4239369,53.3739855 30.3487311,53.422322 C30.3108368,53.4473638 30.2816872,53.4828882 30.2624486,53.5230716 C29.6503086,53.0985256 28.8661866,52.413079 28.8661866,52.413079 C28.8341221,52.5877893 26.1389575,52.997776 25.4329561,53.2184933 C24.7205418,52.9954466 22.0172154,52.5877893 21.9991427,52.413079 C21.9991427,52.413079 21.0226337,53.3501084 20.5154321,53.6261506 C20.5119342,53.5440368 20.4722908,53.4671643 20.402915,53.422322 C20.3288752,53.3739855 17.3602881,54.8951295 17.3678669,54.9615194 C17.363203,54.9312363 17.3585391,54.9003708 17.3532922,54.868923 C14.0139232,56.6334966 13.4979767,56.0354052 12.2427984,59.8318592 L38.6231139,59.8318592 C37.339952,55.9445558 36.6147119,56.5030463 33.3983539,54.8124333 Z" id="Fill-127" fill="#E6B88E"></path>
                                                            <path d="M31.4472443,24.7707246 C31.2027864,24.7707246 30.9557093,24.7183116 30.74792,24.6088265 C30.256385,24.3520024 30.1716978,23.8773728 30.556719,23.5494999 C31.511851,22.740009 33.3086166,22.1989896 35.2546762,22.1360939 C37.3177263,22.0691216 39.1921947,22.553069 40.5375862,23.4947574 C40.9688798,23.7970061 40.9514185,24.2745475 40.5000445,24.5622371 C40.0460512,24.8499266 39.3301388,24.839444 38.8988452,24.5360305 C37.7036206,23.6997507 36.1582974,23.6147251 35.3620631,23.6450082 C33.9075385,23.6910152 32.7734284,24.1114846 32.3368964,24.4818703 C32.1151382,24.6717222 31.7825008,24.7707246 31.4472443,24.7707246" id="Fill-131" fill="#EB936D" transform="translate(35.582819, 23.450489) rotate(8.000000) translate(-35.582819, -23.450489) "></path>
                                                            <path d="M9.87659954,24.7707246 C9.63214163,24.7707246 9.38506453,24.7183116 9.17727531,24.6088265 C8.6857403,24.3520024 8.6010531,23.8773728 8.9860743,23.5494999 C9.94120628,22.740009 11.7379719,22.1989896 13.6840315,22.1360939 C15.7470816,22.0691216 17.6215499,22.553069 18.9669415,23.4947574 C19.3982351,23.7970061 19.3807738,24.2745475 18.9293998,24.5622371 C18.4754065,24.8499266 17.759494,24.839444 17.3282005,24.5360305 C16.1329759,23.6997507 14.5876527,23.6147251 13.7914183,23.6450082 C12.3368938,23.6910152 11.2027837,24.1114846 10.7662517,24.4818703 C10.5444935,24.6717222 10.2118561,24.7707246 9.87659954,24.7707246" id="Fill-131" fill="#EB936D" transform="translate(14.012174, 23.450489) scale(-1, 1) rotate(8.000000) translate(-14.012174, -23.450489) "></path>
                                                            <path d="M19.6285392,59.3524954 C19.5125241,59.3524954 19.397675,59.3018294 19.3213033,59.2039917 C19.1889644,59.0351051 19.218697,58.7905107 19.3883472,58.6588956 L22.0596092,56.5716904 C22.2292594,56.4406577 22.4729494,56.4691937 22.6058712,56.6386626 C22.73821,56.8081316 22.7084775,57.052726 22.5388273,57.1849234 L19.8663993,59.2709639 C19.7958575,59.3268712 19.7119068,59.3524954 19.6285392,59.3524954" id="Fill-133" fill="#B0ADB2"></path>
                                                            <path d="M30.7021185,58.8804153 C30.6210828,58.8804153 30.5394642,58.8553735 30.4683393,58.8023781 L27.5545533,56.6056877 C27.3837371,56.4769845 27.3499237,56.2329725 27.4787646,56.0623388 C27.6081884,55.8905404 27.8507125,55.8561807 28.0238606,55.9860486 L30.9364806,58.1821567 C31.1084628,58.3120246 31.1416933,58.5554542 31.0128524,58.7266703 C30.9364806,58.8274199 30.8204655,58.8804153 30.7021185,58.8804153" id="Fill-134" fill="#B0ADB2"></path>
                                                            <path d="M0,36.3979716 C9.61934156,34.5806334 20.7023749,4.65894036 24.6344522,4.65894036 C28.5665295,4.65894036 46.930727,36.3979716 47.8052126,36.3979716 C48.6796982,36.3979716 50.1399687,8.07533929 34.9210044,2.74958809 C19.7014571,-2.5761631 5.24691358,1.16473509 5.24691358,20.9652316" id="Fill-137" fill="#DC6430"></path>
                                                            <path d="M29.8244642,53.6395451 C29.8244642,53.598197 29.834958,53.558596 29.8530307,53.5230716 C29.2408908,53.0985256 28.4567687,52.413079 28.4567687,52.413079 C28.4247042,52.5877893 28.3838949,52.7601701 28.3454175,52.9337156 C27.4516932,56.8868265 24.8667138,57.6072152 24.8667138,57.6072152 C24.8667138,57.6072152 22.242674,56.4069557 21.6666795,52.9436159 C21.636947,52.7654114 21.6077975,52.5877893 21.5897248,52.413079 C21.5897248,52.413079 20.6132159,53.3501084 20.1060142,53.6261506 C20.1065972,53.6302272 20.1095122,53.6343038 20.1095122,53.6395451 C20.1083462,53.7350534 17.3047454,53.070572 21.7646219,59.8318592 C21.8369127,59.8324416 24.6504244,59.8318592 24.7221322,59.8318592 C24.9611583,59.8318592 27.5991898,59.8365181 27.8376329,59.8318592 C32.2870156,53.0746486 29.8256301,53.7350534 29.8244642,53.6395451" id="Fill-140" fill="#E6B88E"></path>
                                                            <path d="M17.3678669,54.8351457 C17.363203,54.8048625 17.3585391,54.7739971 17.3532922,54.7425492 C14.0139232,56.5071229 13.4979767,55.9090314 12.2427984,59.7054854 L16.1814815,59.7054854 C18.4819616,59.7054854 17.66869,57.5216071 17.3678669,54.8351457" id="Fill-141" fill="#EEBF95"></path>
                                                            <path d="M34.3117496,59.7619751 L38.2988209,59.7619751 C37.0156591,55.8746717 36.290419,56.4331622 33.074061,54.7425492 C32.6298223,57.9438236 32.0036906,59.7619751 34.3117496,59.7619751" id="Fill-142" fill="#EEBF95"></path>
                                                            <path d="M20.078278,53.5570713 C20.078278,53.55183 20.075363,53.5477535 20.0747801,53.5436769 C20.0712821,53.4615631 20.0316388,53.3846905 19.9622629,53.3398482 C19.8882231,53.2915117 19.7955277,53.2851057 19.716241,53.3217948 C18.6003973,53.8307841 17.6792725,54.2693068 16.9079762,54.6763818 C16.9167211,54.7421893 16.919636,54.8126558 16.9272149,54.8790457 C17.2280379,57.5655071 15.7408294,59.7493854 15.7408294,59.7493854 C15.7180928,59.8047104 20.0712821,59.7324968 23.3103768,59.7493854 C21.0192245,57.8642617 20.077112,53.6525796 20.078278,53.5570713" id="Fill-143" fill="#585858"></path>
                                                            <path d="M33.2053841,54.7299596 C33.2071331,54.7119062 33.208299,54.6944351 33.210631,54.6763818 C32.4399177,54.2693068 31.5176269,53.8307841 30.4041152,53.3217948 C30.3230796,53.2851057 30.2309671,53.2915117 30.1557613,53.3398482 C30.1178669,53.36489 30.0887174,53.4004145 30.0694787,53.4405978 C30.051406,53.4761222 30.0409122,53.5157232 30.0409122,53.5570713 C30.0420782,53.6525796 29.8368656,57.4699989 26.8175583,59.7493854 C30.0479081,59.6940605 34.4961248,59.878671 34.4430727,59.7493854 C34.4430727,59.7493854 32.7611454,57.931234 33.2053841,54.7299596 Z" id="Fill-144" fill="#585858"></path>
                                                        </g>
                                                        <path d="M34.835253,28.745109 C31.7282446,28.745109 31.4814815,29.5826911 31.4814815,27.9593662 C31.4814815,26.3354589 32.9841351,25.0185097 34.835253,25.0185097 C36.6863709,25.0185097 38.1858711,26.3354589 38.1858711,27.9593662 C38.1858711,29.5826911 37.9406847,28.745109 34.835253,28.745109 Z" id="Fill-344" fill="#067400" opacity="0.645946558" transform="translate(34.833676, 26.989824) rotate(1.000000) translate(-34.833676, -26.989824) "></path>
                                                        <path d="M15.0120027,28.745109 C11.9049944,28.745109 11.659808,29.5826911 11.659808,27.9593662 C11.659808,26.3354589 13.16325,25.0185097 15.0120027,25.0185097 C16.8631207,25.0185097 18.3641975,26.3354589 18.3641975,27.9593662 C18.3641975,29.5826911 18.1182227,28.745109 15.0120027,28.745109 Z" id="Fill-347" fill="#067400" opacity="0.645946558" transform="translate(15.012003, 26.989824) rotate(1.000000) translate(-15.012003, -26.989824) "></path>
                                                    </g>
                                                </g>
                                            </g>
                                        </g>
                                    </g>
                                </g>
                                <path d="M27.8444851,48.6378734 C30.9455682,48.5881008 33.4961284,47.3489091 34.841688,45.2386968 C35.1023078,44.8295366 34.982247,44.2864296 34.5730153,44.0265873 C34.1630516,43.7630852 33.6205817,43.8845889 33.3592298,44.295213 C31.9075189,46.57231 28.9997044,46.8628942 27.8159341,46.881193 C25.6211638,46.9141308 23.5574355,46.2136544 22.8714783,45.2101507 C22.5984131,44.8083101 22.0508187,44.706569 21.6503719,44.9810503 C21.2499252,45.2540677 21.1467021,45.8001026 21.4212315,46.2004793 C22.4249106,47.6702353 24.9161726,48.6393373 27.6570731,48.6393373 C27.7200319,48.6393373 27.7815264,48.6393373 27.8444851,48.6378734 Z" id="Shape" fill="#BA8663" fill-rule="nonzero" transform="translate(28.123457, 46.263278) rotate(-5.000000) translate(-28.123457, -46.263278) "></path>
                                <g id="Group" stroke-width="1" fill="none" fill-rule="evenodd" transform="translate(36.098765, 37.178344)">
                                    <ellipse id="Oval" fill="#FFD6B1" cx="2.23868313" cy="0.838609265" rx="1" ry="1"></ellipse>
                                    <ellipse id="Oval" fill="#FFD6B1" cx="4.19753086" cy="2.79536422" rx="1" ry="1"></ellipse>
                                    <ellipse id="Oval" fill="#FFD6B1" cx="0.839506173" cy="3.63397348" rx="1" ry="1"></ellipse>
                                </g>
                                <g id="Group" stroke-width="1" fill="none" fill-rule="evenodd" transform="translate(14.551440, 39.414635) scale(-1, 1) translate(-14.551440, -39.414635) translate(12.032922, 37.178344)">
                                    <ellipse id="Oval" fill="#FFD6B1" cx="2.23868313" cy="0.838609265" rx="1" ry="1"></ellipse>
                                    <ellipse id="Oval" fill="#FFD6B1" cx="4.19753086" cy="2.79536422" rx="1" ry="1"></ellipse>
                                    <ellipse id="Oval" fill="#FFD6B1" cx="0.839506173" cy="3.63397348" rx="1" ry="1"></ellipse>
                                </g>
                            </g>
                        </g>
                    </g>
                    <circle id="Oval-2" fill="#FFFFFF" cx="54.5679012" cy="32.18107" r="18.5390947"></circle>
                </g>
                <g id="Group-4" transform="translate(54.444230, 33.415620) rotate(45.000000) translate(-54.444230, -33.415620) translate(46.444230, 25.415620)" fill="#DC3030">
                    <rect id="Rectangle" transform="translate(8.045267, 7.870370) rotate(45.000000) translate(-8.045267, -7.870370) " x="6.49267201" y="-1.68650794" width="3.10519096" height="19.1137566"></rect>
                </g>
            </g>
        </g>
    </g>
</svg>