<?xml version="1.0" encoding="UTF-8"?>
<svg width="85px" height="85px" viewBox="0 0 85 85" version="1.1" xmlns="http://www.w3.org/2000/svg" xmlns:xlink="http://www.w3.org/1999/xlink">
    <!-- Generator: Sketch 49.3 (51167) - http://www.bohemiancoding.com/sketch -->
    <title>Group 8</title>
    <desc>Created with Sketch.</desc>
    <defs>
        <circle id="path-1" cx="42.5" cy="42.5" r="42.5"></circle>
    </defs>
    <g id="Page-1" stroke="none" stroke-width="1" fill="none" fill-rule="evenodd">
        <g id="help-mode" transform="translate(-539.000000, -147.000000)">
            <g id="Group-7-Copy" transform="translate(539.000000, 147.000000)">
                <g id="Group-8">
                    <g id="Group-16-Copy">
                        <g id="Group-11">
                            <g id="Group-10">
                                <g id="Group-3">
                                    <mask id="mask-2" fill="white">
                                        <use xlink:href="#path-1"></use>
                                    </mask>
                                    <use id="Mask" fill="#D8D8D8" xlink:href="#path-1"></use>
                                </g>
                            </g>
                        </g>
                    </g>
                    <g id="Group-4" transform="translate(24.000000, 24.000000)" fill="#FFFFFF">
                        <g id="Group-13">
                            <circle id="Oval-2" cx="18.5" cy="18.5" r="18.5"></circle>
                        </g>
                    </g>
                    <path d="M42.432,35.376 C41.6639962,35.376 40.9386701,35.471999 40.256,35.664 C39.5733299,35.856001 38.8160042,36.1653312 37.984,36.592 L36.64,32.976 C37.4720042,32.442664 38.4533277,32.0320014 39.584,31.744 C40.7146723,31.4559986 41.8239946,31.312 42.912,31.312 C44.2773402,31.312 45.4026622,31.4933315 46.288,31.856 C47.1733378,32.2186685 47.8719974,32.6773306 48.384,33.232 C48.8960026,33.7866694 49.2533323,34.3946634 49.456,35.056 C49.6586677,35.7173366 49.76,36.3466637 49.76,36.944 C49.76,37.5413363 49.6693342,38.0906642 49.488,38.592 C49.3066658,39.0933358 49.0773347,39.5573312 48.8,39.984 C48.5226653,40.4106688 48.2026685,40.8159981 47.84,41.2 C47.4773315,41.5840019 47.125335,41.946665 46.784,42.288 C46.5279987,42.5440013 46.2613347,42.8159986 45.984,43.104 C45.7066653,43.3920014 45.4560011,43.6959984 45.232,44.016 C45.0079989,44.3360016 44.8213341,44.6719982 44.672,45.024 C44.5226659,45.3760018 44.448,45.7333315 44.448,46.096 L44.448,46.48 C44.448,46.6506675 44.4586666,46.7999994 44.48,46.928 L40.256,46.928 C40.2133331,46.7146656 40.1866667,46.474668 40.176,46.208 C40.1653333,45.941332 40.16,45.712001 40.16,45.52 C40.16,44.9226637 40.2346659,44.3840024 40.384,43.904 C40.5333341,43.4239976 40.7306654,42.9760021 40.976,42.56 C41.2213346,42.1439979 41.5039984,41.7546685 41.824,41.392 C42.1440016,41.0293315 42.474665,40.677335 42.816,40.336 C43.3066691,39.8453309 43.7546646,39.3600024 44.16,38.88 C44.5653354,38.3999976 44.768,37.8506698 44.768,37.232 C44.768,36.7199974 44.5706686,36.2826685 44.176,35.92 C43.7813314,35.5573315 43.2000038,35.376 42.432,35.376 Z M45.408,51.472 C45.408,52.4106714 45.104003,53.1359974 44.496,53.648 C43.887997,54.1600026 43.2000038,54.416 42.432,54.416 C41.6639962,54.416 40.976003,54.1600026 40.368,53.648 C39.759997,53.1359974 39.456,52.4106714 39.456,51.472 C39.456,50.5333286 39.759997,49.8080026 40.368,49.296 C40.976003,48.7839974 41.6639962,48.528 42.432,48.528 C43.2000038,48.528 43.887997,48.7839974 44.496,49.296 C45.104003,49.8080026 45.408,50.5333286 45.408,51.472 Z" id="?" fill="#FDAE45"></path>
                </g>
            </g>
        </g>
    </g>
</svg>