<svg xmlns="http://www.w3.org/2000/svg" width="30" height="30" viewBox="0 0 30 30">
  <path fill="#40B80E" fill-rule="evenodd" d="M17.8180751,9.00037708 C17.4976526,9.00037708 17.238263,8.74049792 17.238263,8.41947042 C17.238263,8.09844333 17.4976526,7.83974 17.8180751,7.83974 C18.1384975,7.83974 18.3978872,8.09844333 18.3978872,8.41947042 C18.3978872,8.74049792 18.1384975,9.00037708 17.8180751,9.00037708 L17.8180751,9.00037708 Z M13.1819249,9.00037708 C12.8615025,9.00037708 12.6021128,8.74049792 12.6021128,8.41947042 C12.6021128,8.09844333 12.8615025,7.83974 13.1819249,7.83974 C13.5023474,7.83974 13.761737,8.09844333 13.761737,8.41947042 C13.761737,8.74049792 13.5023474,9.00037708 13.1819249,9.00037708 L13.1819249,9.00037708 Z M18.1607983,6.67439917 L18.3767606,6.34749208 L18.592723,6.02528917 L19.0739436,5.30092 C19.1338026,5.21154958 19.109155,5.09160542 19.0199532,5.03280917 C18.9319248,4.97283708 18.8110329,4.99753125 18.7535211,5.08690167 L18.0187795,6.1887425 L17.7981219,6.52035292 C17.0997652,6.24871458 16.3215962,6.09702042 15.5,6.09702042 C14.6795776,6.09702042 13.9002348,6.24871458 13.2018781,6.52035292 L12.9823943,6.1887425 L12.7652582,5.86301167 L12.2488261,5.08690167 C12.1889671,4.99753125 12.069249,4.97401292 11.9800468,5.03280917 C11.8920188,5.09160542 11.8673708,5.21154958 11.9260564,5.30092 L12.407277,6.02528917 L12.6232394,6.34749208 L12.8403755,6.67439917 C11.200704,7.43992583 10.0915492,8.88984 10.0915492,10.5490692 L20.9084508,10.5490692 C20.9084508,8.88984 19.799296,7.43992583 18.1607983,6.67439917 Z M10.1748828,11.3228271 L10.0915492,11.3228271 L10.0915492,19.8388692 C10.0915492,20.5150254 10.6396713,21.0653579 11.3157277,21.0653579 L12.1983567,21.0653579 C12.1678405,21.1676633 12.1514084,21.2746725 12.1514084,21.3875613 L12.1514084,23.8393629 C12.1514084,24.4802417 12.6713615,25 13.311033,25 C13.9507042,25 14.4706573,24.4802417 14.4706573,23.8393629 L14.4706573,21.3875613 C14.4706573,21.2746725 14.4530518,21.1676633 14.423709,21.0653579 L16.576291,21.0653579 C16.5469482,21.1676633 16.5305165,21.2746725 16.5305165,21.3875613 L16.5305165,23.8393629 C16.5305165,24.4802417 17.0492958,25 17.688967,25 C18.3298123,25 18.8497654,24.4802417 18.8497654,23.8393629 L18.8497654,21.3875613 C18.8497654,21.2746725 18.8321595,21.1676633 18.8016433,21.0653579 L19.6854461,21.0653579 C20.3615025,21.0653579 20.9084508,20.5150254 20.9084508,19.8388692 L20.9084508,11.3228271 L10.1748828,11.3228271 Z M8.15962424,11.3228271 C7.51877929,11.3228271 7,11.8425854 7,12.4834642 L7,17.4517433 C7,18.0926221 7.51877929,18.6123804 8.15962424,18.6123804 C8.79929579,18.6123804 9.31807507,18.0926221 9.31807507,17.4517433 L9.31807507,12.4834642 C9.31807507,11.8425854 8.79929579,11.3228271 8.15962424,11.3228271 Z M22.8415492,11.3228271 C22.2007042,11.3228271 21.6819249,11.8425854 21.6819249,12.4834642 L21.6819249,17.4517433 C21.6819249,18.0926221 22.2007042,18.6123804 22.8415492,18.6123804 C23.4812207,18.6123804 24,18.0926221 24,17.4517433 L24,12.4834642 C24,11.8425854 23.4812207,11.3228271 22.8415492,11.3228271 Z"/>
</svg>
