<svg xmlns="http://www.w3.org/2000/svg" width="55" height="55" viewBox="0 0 55 55" xmlns:xlink="http://www.w3.org/1999/xlink">
  <defs>
    <rect id="a" width="42.791" height="42.791" x="9.104" y="9.104" rx="8.19"/>
    <mask id="c" width="42.791" height="42.791" x="0" y="0" fill="white">
      <use xlink:href="#a"/>
    </mask>
    <rect id="b" width="37.328" height="37.328" x="12" y="12" rx="7.207"/>
    <mask id="d" width="37.328" height="37.328" x="0" y="0" fill="white">
      <use xlink:href="#b"/>
    </mask>
  </defs>
  <g fill="none" fill-rule="evenodd" transform="translate(-3 -3)">
    <use stroke="#E4E4E4" mask="url(#c)" transform="rotate(45 30.5 30.5)" xlink:href="#a"/>
    <use fill="#FFFFFF" stroke="#E4E4E4" stroke-width="3.276" mask="url(#d)" transform="rotate(45 30.664 30.664)" xlink:href="#b"/>
    <path fill="#B7B7B7" d="M18.092,36.3045898 L18.092,26.5440264 L24.2717867,26.5440264 L24.2717867,28.3890968 L20.1519289,28.3890968 L20.1519289,30.3045898 L23.8096231,30.3045898 L23.8096231,32.1074067 L20.1519289,32.1074067 L20.1519289,34.4595194 L24.5754941,34.4595194 L24.5754941,36.3045898 L18.092,36.3045898 Z M32.2342041,36.3045898 C31.6443925,35.1872133 31.006173,34.083938 30.3195266,32.9947306 C29.6328802,31.9055233 28.902229,30.8773646 28.127551,29.9102236 L28.127551,36.3045898 L26.0940314,36.3045898 L26.0940314,26.5440264 L27.7710248,26.5440264 C28.0615291,26.8538871 28.3828396,27.234165 28.7349659,27.6848715 C29.0870923,28.135578 29.4458156,28.6167938 29.8111467,29.1285334 C30.1764778,29.6402731 30.5396027,30.1707842 30.9005322,30.7200827 C31.2614617,31.2693813 31.6003783,31.797545 31.917292,32.3045898 L31.917292,26.5440264 L33.9640162,26.5440264 L33.9640162,36.3045898 L32.2342041,36.3045898 Z M38.1366927,34.5158574 C38.2335274,34.5252471 38.345766,34.5322893 38.4734118,34.5369842 C38.6010576,34.541679 38.7529099,34.5440264 38.928973,34.5440264 C39.9589426,34.5440264 40.7226052,34.2670339 41.2199837,33.7130405 C41.7173622,33.1590471 41.9660477,32.3937965 41.9660477,31.4172658 C41.9660477,30.3937865 41.728366,29.6191464 41.2529954,29.0933222 C40.7776248,28.567498 40.024966,28.3045898 38.9949964,28.3045898 C38.8541459,28.3045898 38.7088959,28.3069372 38.5592422,28.311632 C38.4095885,28.3163269 38.2687401,28.3280639 38.1366927,28.3468433 L38.1366927,34.5158574 Z M44.092,31.4172658 C44.092,32.2623405 43.9687576,32.9994223 43.7222691,33.6285334 C43.4757807,34.2576446 43.1258604,34.7787661 42.6724977,35.1919137 C42.219135,35.6050613 41.666745,35.9149174 41.0153113,36.1214912 C40.3638775,36.328065 39.6332263,36.4313504 38.8233357,36.4313504 C38.453603,36.4313504 38.0222547,36.4149186 37.5292778,36.3820546 C37.0363009,36.3491906 36.5521344,36.2811161 36.0767638,36.1778292 L36.0767638,26.670787 C36.5521344,26.5768898 37.0473046,26.5135101 37.5622894,26.4806461 C38.0772742,26.4477821 38.5196263,26.4313504 38.889359,26.4313504 C39.6728402,26.4313504 40.3836846,26.5252461 41.0219136,26.7130405 C41.6601426,26.9008349 42.2081311,27.1966065 42.6658953,27.6003644 C43.1236596,28.0041223 43.4757807,28.5205491 43.7222691,29.1496602 C43.9687576,29.7787713 44.092,30.5346323 44.092,31.4172658 Z"/>
  </g>
</svg>
