<svg xmlns="http://www.w3.org/2000/svg" width="30" height="30" viewBox="0 0 30 30">
  <path fill="#363636" fill-rule="evenodd" d="M17.9419762,8.92218711 C18.5146989,8.16438712 18.9488597,7.0933065 18.7918228,6 C17.8557599,6.066678 16.7616339,6.68053837 16.1232226,7.48067362 C15.5412625,8.20566374 15.0629673,9.28415324 15.2497693,10.3308907 C16.2730748,10.3637006 17.3292248,9.73502286 17.9419762,8.92218711 L17.9419762,8.92218711 Z M23,19.2064653 C22.5904726,20.1420731 22.3934066,20.5601332 21.8658449,21.3888449 C21.129927,22.5456543 20.0922522,23.9861092 18.8051659,23.9966932 C17.6627995,24.0093937 17.3682273,23.2293674 15.8173602,23.2388932 C14.266493,23.2473599 13.9431815,24.0115106 12.7987627,23.9998683 C11.5127026,23.9882261 10.5294263,22.6885353 9.79350835,21.5317263 C7.73458055,18.2994337 7.51801348,14.5051413 8.78765152,12.4868107 C9.69086993,11.0537644 11.115492,10.2155276 12.4538974,10.2155276 C13.8159098,10.2155276 14.672941,10.9860281 15.8009377,10.9860281 C16.895064,10.9860281 17.5611877,10.2134107 19.1366882,10.2134107 C20.329347,10.2134107 21.5928266,10.8833651 22.4919398,12.0391162 C19.5441628,13.7050061 20.0214317,18.0454226 23,19.2064653 L23,19.2064653 Z"/>
</svg>
