<svg xmlns="http://www.w3.org/2000/svg" width="30" height="30" viewBox="0 0 30 30">
  <g fill="none" fill-rule="evenodd" transform="translate(8 6)">
    <path fill="#EAC622" d="M9.17647059,14.25 L4.58823529,14.25 C4.12941176,14.25 3.82352941,13.95 3.82352941,13.5 L3.82352941,13.125 C3.82352941,12.075 3.36470588,11.025 2.52352941,10.2 C1.3,9 0.688235294,7.425 0.764705882,5.775 C0.917647059,2.625 3.59411765,0.075 6.80588235,0 L6.88235294,0 C10.2470588,0 13,2.7 13,6 C13,7.575 12.3882353,9.15 11.1647059,10.275 C10.3235294,11.025 9.94117647,12.075 9.94117647,13.125 L9.94117647,13.5 C9.94117647,13.95 9.63529412,14.25 9.17647059,14.25 Z"/>
    <path fill="#EAC622" d="M6.88235294,18 L6.88235294,18 C5.2,18 3.82352941,16.65 3.82352941,15 L3.82352941,13.5 C3.82352941,13.05 4.12941176,12.75 4.58823529,12.75 L9.17647059,12.75 C9.63529412,12.75 9.94117647,13.05 9.94117647,13.5 L9.94117647,15 C9.94117647,16.65 8.56470588,18 6.88235294,18 Z M5.35294118,14.25 L5.35294118,15 C5.35294118,15.825 6.04117647,16.5 6.88235294,16.5 L6.88235294,16.5 C7.72352941,16.5 8.41176471,15.825 8.41176471,15 L8.41176471,14.25 L5.35294118,14.25 Z"/>
    <path fill="#FFFFFF" d="M4.58823529,6.75 C4.12941176,6.75 3.82352941,6.45 3.82352941,6 C3.82352941,4.35 5.2,3 6.88235294,3 C7.34117647,3 7.64705882,3.3 7.64705882,3.75 C7.64705882,4.2 7.34117647,4.5 6.88235294,4.5 C6.04117647,4.5 5.35294118,5.175 5.35294118,6 C5.35294118,6.45 5.04705882,6.75 4.58823529,6.75 Z"/>
  </g>
</svg>
