<?xml version="1.0" encoding="UTF-8"?>
<svg width="55px" height="43px" viewBox="0 0 55 43" version="1.1" xmlns="http://www.w3.org/2000/svg" xmlns:xlink="http://www.w3.org/1999/xlink">
    <!-- Generator: Sketch 54.1 (76490) - https://sketchapp.com -->
    <title>Combined Shape</title>
    <desc>Created with Sketch.</desc>
    <g id="Page-1" stroke="none" stroke-width="1" fill="none" fill-rule="evenodd">
        <path d="M49,13 L49,11.2556021 L43.75,6 L38.5,6 L30,6 C28.8954305,6 28,6.8954305 28,8 L28,13 L3,13 C1.34314575,13 2.02906125e-16,11.6568542 0,10 L0,3 C-2.02906125e-16,1.34314575 1.34314575,3.04359188e-16 3,0 L52,0 C53.6568542,-3.04359188e-16 55,1.34314575 55,3 L55,10 C55,11.6568542 53.6568542,13 52,13 L49,13 Z M28,15 L28,28 L3,28 C1.34314575,28 2.02906125e-16,26.6568542 0,25 L0,18 C-2.02906125e-16,16.3431458 1.34314575,15 3,15 L28,15 Z M49,15 L52,15 C53.6568542,15 55,16.3431458 55,18 L55,25 C55,26.6568542 53.6568542,28 52,28 L49,28 L49,21 L49,15 Z M28,30 L28,34 C28,35.1045695 28.8954305,36 30,36 L47,36 C48.1045695,36 49,35.1045695 49,34 L49,30 L52,30 C53.6568542,30 55,31.3431458 55,33 L55,40 C55,41.6568542 53.6568542,43 52,43 L3,43 C1.34314575,43 2.02906125e-16,41.6568542 0,40 L0,33 C-2.02906125e-16,31.3431458 1.34314575,30 3,30 L28,30 Z M7.5,9 C8.88071187,9 10,7.88071187 10,6.5 C10,5.11928813 8.88071187,4 7.5,4 C6.11928813,4 5,5.11928813 5,6.5 C5,7.88071187 6.11928813,9 7.5,9 Z M15.5,9 C16.8807119,9 18,7.88071187 18,6.5 C18,5.11928813 16.8807119,4 15.5,4 C14.1192881,4 13,5.11928813 13,6.5 C13,7.88071187 14.1192881,9 15.5,9 Z M7.5,24 C8.88071187,24 10,22.8807119 10,21.5 C10,20.1192881 8.88071187,19 7.5,19 C6.11928813,19 5,20.1192881 5,21.5 C5,22.8807119 6.11928813,24 7.5,24 Z M15.5,24 C16.8807119,24 18,22.8807119 18,21.5 C18,20.1192881 16.8807119,19 15.5,19 C14.1192881,19 13,20.1192881 13,21.5 C13,22.8807119 14.1192881,24 15.5,24 Z M7.5,39 C8.88071187,39 10,37.8807119 10,36.5 C10,35.1192881 8.88071187,34 7.5,34 C6.11928813,34 5,35.1192881 5,36.5 C5,37.8807119 6.11928813,39 7.5,39 Z M15.5,39 C16.8807119,39 18,37.8807119 18,36.5 C18,35.1192881 16.8807119,34 15.5,34 C14.1192881,34 13,35.1192881 13,36.5 C13,37.8807119 14.1192881,39 15.5,39 Z M31,13 L44,13 L44,15 L31,15 L31,13 Z M31,18 L46,18 L46,20 L31,20 L31,18 Z M31,23 L46,23 L46,25 L31,25 L31,23 Z M31,28 L39,28 L39,30 L31,30 L31,28 Z" id="Combined-Shape" fill="#ED6262"></path>
    </g>
</svg>