<?xml version="1.0" encoding="UTF-8"?>
<svg width="55px" height="43px" viewBox="0 0 55 43" version="1.1" xmlns="http://www.w3.org/2000/svg" xmlns:xlink="http://www.w3.org/1999/xlink">
    <!-- Generator: Sketch 54.1 (76490) - https://sketchapp.com -->
    <title>Combined Shape</title>
    <desc>Created with Sketch.</desc>
    <g id="Page-1" stroke="none" stroke-width="1" fill="none" fill-rule="evenodd">
        <path d="M40,13 L40,8 L35.5555556,13 L3,13 C1.34314575,13 2.02906125e-16,11.6568542 0,10 L0,3 C-2.02906125e-16,1.34314575 1.34314575,3.04359188e-16 3,0 L52,0 C53.6568542,-3.04359188e-16 55,1.34314575 55,3 L55,10 C55,11.6568542 53.6568542,13 52,13 L40,13 Z M40,19 L40,15 L52,15 C53.6568542,15 55,16.3431458 55,18 L55,19 L40,19 Z M40,24 L55,24 L55,25 C55,26.6568542 53.6568542,28 52,28 L40,28 L40,24 Z M33.7777778,28 L3,28 C1.34314575,28 2.02906125e-16,26.6568542 0,25 L0,18 C-2.02906125e-16,16.3431458 1.34314575,15 3,15 L33.7777778,15 L28,21.5 L33.7777778,28 Z M35.5555556,30 L40,35 L40,30 L52,30 C53.6568542,30 55,31.3431458 55,33 L55,40 C55,41.6568542 53.6568542,43 52,43 L3,43 C1.34314575,43 2.02906125e-16,41.6568542 0,40 L0,33 C-2.02906125e-16,31.3431458 1.34314575,30 3,30 L35.5555556,30 Z M7.5,9 C8.88071187,9 10,7.88071187 10,6.5 C10,5.11928813 8.88071187,4 7.5,4 C6.11928813,4 5,5.11928813 5,6.5 C5,7.88071187 6.11928813,9 7.5,9 Z M15.5,9 C16.8807119,9 18,7.88071187 18,6.5 C18,5.11928813 16.8807119,4 15.5,4 C14.1192881,4 13,5.11928813 13,6.5 C13,7.88071187 14.1192881,9 15.5,9 Z M7.5,24 C8.88071187,24 10,22.8807119 10,21.5 C10,20.1192881 8.88071187,19 7.5,19 C6.11928813,19 5,20.1192881 5,21.5 C5,22.8807119 6.11928813,24 7.5,24 Z M15.5,24 C16.8807119,24 18,22.8807119 18,21.5 C18,20.1192881 16.8807119,19 15.5,19 C14.1192881,19 13,20.1192881 13,21.5 C13,22.8807119 14.1192881,24 15.5,24 Z M7.5,39 C8.88071187,39 10,37.8807119 10,36.5 C10,35.1192881 8.88071187,34 7.5,34 C6.11928813,34 5,35.1192881 5,36.5 C5,37.8807119 6.11928813,39 7.5,39 Z M15.5,39 C16.8807119,39 18,37.8807119 18,36.5 C18,35.1192881 16.8807119,34 15.5,34 C14.1192881,34 13,35.1192881 13,36.5 C13,37.8807119 14.1192881,39 15.5,39 Z" id="Combined-Shape" fill="#FF8700"></path>
    </g>
</svg>