<svg width="18" height="18" viewBox="0 0 18 18" fill="none" xmlns="http://www.w3.org/2000/svg">
<mask id="path-1-outside-1_26186_165274" maskUnits="userSpaceOnUse" x="-1" y="-1" width="20" height="20" fill="black">
<rect fill="white" x="-1" y="-1" width="20" height="20"/>
<path fill-rule="evenodd" clip-rule="evenodd" d="M0 0H18V18H0V0ZM9 1.70251L13.245 5.94751C15.585 8.28751 15.585 12.09 13.245 14.43C12.075 15.6 10.5375 16.185 9 16.185C7.4625 16.185 5.925 15.6 4.755 14.43C2.415 12.09 2.415 8.28751 4.755 5.94751L9 1.70251Z"/>
</mask>
<path fill-rule="evenodd" clip-rule="evenodd" d="M0 0H18V18H0V0ZM9 1.70251L13.245 5.94751C15.585 8.28751 15.585 12.09 13.245 14.43C12.075 15.6 10.5375 16.185 9 16.185C7.4625 16.185 5.925 15.6 4.755 14.43C2.415 12.09 2.415 8.28751 4.755 5.94751L9 1.70251Z" fill="white"/>
<path d="M18 0H19V-1H18V0ZM0 0V-1H-1V0H0ZM18 18V19H19V18H18ZM0 18H-1V19H0V18ZM9 1.70251L9.70711 0.995408L9 0.288301L8.29289 0.995408L9 1.70251ZM13.245 14.43L12.5379 13.7229L13.245 14.43ZM4.755 14.43L5.46211 13.7229H5.46211L4.755 14.43ZM18 -1H0V1H18V-1ZM19 18V0H17V18H19ZM0 19H18V17H0V19ZM-1 0V18H1V0H-1ZM13.9521 5.24041L9.70711 0.995408L8.29289 2.40962L12.5379 6.65462L13.9521 5.24041ZM13.9521 15.1371C16.6826 12.4066 16.6826 7.97093 13.9521 5.24041L12.5379 6.65462C14.4874 8.6041 14.4874 11.7734 12.5379 13.7229L13.9521 15.1371ZM9 17.185C10.7908 17.185 12.5863 16.5029 13.9521 15.1371L12.5379 13.7229C11.5637 14.6971 10.2842 15.185 9 15.185V17.185ZM4.04789 15.1371C5.41369 16.5029 7.2092 17.185 9 17.185V15.185C7.7158 15.185 6.43631 14.6971 5.46211 13.7229L4.04789 15.1371ZM4.04789 5.24041C1.31737 7.97093 1.31737 12.4066 4.04789 15.1371L5.46211 13.7229C3.51263 11.7734 3.51263 8.6041 5.46211 6.65462L4.04789 5.24041ZM8.29289 0.995408L4.04789 5.24041L5.46211 6.65462L9.70711 2.40962L8.29289 0.995408Z" fill="#81868D" mask="url(#path-1-outside-1_26186_165274)"/>
</svg>

