<svg width="16" height="16" viewBox="0 0 16 16" fill="none" xmlns="http://www.w3.org/2000/svg">
<path fill-rule="evenodd" clip-rule="evenodd" d="M1.15146 1.15152C1.62009 0.682892 2.37989 0.682892 2.84852 1.15152L7.99999 6.30299L13.1515 1.15152C13.6201 0.682892 14.3799 0.682892 14.8485 1.15152C15.3171 1.62015 15.3171 2.37995 14.8485 2.84858L9.69704 8.00005L14.8485 13.1515C15.3171 13.6202 15.3171 14.3799 14.8485 14.8486C14.3799 15.3172 13.6201 15.3172 13.1515 14.8486L7.99999 9.69711L2.84852 14.8486C2.37989 15.3172 1.62009 15.3172 1.15146 14.8486C0.68283 14.3799 0.68283 13.6202 1.15146 13.1515L6.30293 8.00005L1.15146 2.84858C0.68283 2.37995 0.68283 1.62015 1.15146 1.15152Z" fill="white"/>
</svg>
