<svg width="34" height="34" viewBox="0 0 34 34" fill="none" xmlns="http://www.w3.org/2000/svg">
<path d="M4.99995 0.199951C2.34898 0.199951 0.199951 2.34898 0.199951 4.99995V9.79995C0.199951 12.4509 2.34898 14.6 4.99995 14.6H9.79995C12.4509 14.6 14.6 12.4509 14.6 9.79995V4.99995C14.6 2.34898 12.4509 0.199951 9.79995 0.199951H4.99995Z" fill="#39C0C8"/>
<path d="M4.99995 19.4C2.34898 19.4 0.199951 21.549 0.199951 24.1999V29C0.199951 31.6509 2.34898 33.7999 4.99995 33.7999H9.79995C12.4509 33.7999 14.6 31.6509 14.6 29V24.1999C14.6 21.549 12.4509 19.4 9.79995 19.4H4.99995Z" fill="#39C0C8"/>
<path d="M19.4 4.99995C19.4 2.34898 21.549 0.199951 24.1999 0.199951H29C31.6509 0.199951 33.7999 2.34898 33.7999 4.99995V9.79995C33.7999 12.4509 31.6509 14.6 29 14.6H24.1999C21.549 14.6 19.4 12.4509 19.4 9.79995V4.99995Z" fill="#39C0C8"/>
<path d="M26.5999 19.4C27.9254 19.4 29 20.4745 29 21.7999V24.1999H31.4C32.7254 24.1999 33.7999 25.2745 33.7999 26.5999C33.7999 27.9254 32.7254 29 31.4 29H29V31.4C29 32.7254 27.9254 33.7999 26.5999 33.7999C25.2745 33.7999 24.1999 32.7254 24.1999 31.4V29H21.7999C20.4745 29 19.4 27.9254 19.4 26.5999C19.4 25.2745 20.4745 24.1999 21.7999 24.1999H24.1999V21.7999C24.1999 20.4745 25.2745 19.4 26.5999 19.4Z" fill="#39C0C8"/>
</svg>
