<svg width="16" height="18" viewBox="0 0 16 18" fill="none" xmlns="http://www.w3.org/2000/svg">
<path d="M5.33333 8.98889C5.33333 8.49797 4.93536 8.1 4.44444 8.1V8.1C3.95352 8.1 3.55556 8.49797 3.55556 8.98889V9.01111C3.55556 9.50203 3.95352 9.9 4.44444 9.9V9.9C4.93536 9.9 5.33333 9.50203 5.33333 9.01111V8.98889ZM8.88889 8.98889C8.88889 8.49797 8.49092 8.1 8 8.1V8.1C7.50908 8.1 7.11111 8.49797 7.11111 8.98889V9.01111C7.11111 9.50203 7.50908 9.9 8 9.9V9.9C8.49092 9.9 8.88889 9.50203 8.88889 9.01111V8.98889ZM12.4444 8.98889C12.4444 8.49797 12.0465 8.1 11.5556 8.1V8.1C11.0646 8.1 10.6667 8.49797 10.6667 8.98889V9.01111C10.6667 9.50203 11.0646 9.9 11.5556 9.9V9.9C12.0465 9.9 12.4444 9.50203 12.4444 9.01111V8.98889ZM14.2222 1.8H13.3333V0H11.5556V1.8H4.44444V0H2.66667V1.8H1.77778C0.791111 1.8 0.00888888 2.61 0.00888888 3.6L0 16.2C0 17.19 0.791111 18 1.77778 18H14.2222C15.2 18 16 17.19 16 16.2V3.6C16 2.61 15.2 1.8 14.2222 1.8ZM14.2222 16.2H1.77778V6.3H14.2222V16.2Z" fill="#333C48"/>
</svg>