<?xml version="1.0" encoding="UTF-8"?>
<svg width="8px" height="11px" viewBox="0 0 8 11" version="1.1" xmlns="http://www.w3.org/2000/svg" xmlns:xlink="http://www.w3.org/1999/xlink">
    <!-- Generator: Sketch 63.1 (92452) - https://sketch.com -->
    <title>Combined Shape</title>
    <desc>Created with Sketch.</desc>
    <g id="Page-1" stroke="none" stroke-width="1" fill="none" fill-rule="evenodd">
        <g id="Artboard-Copy" transform="translate(-628.000000, -492.000000)" fill="#8D8D8D">
            <g id="Group-3" transform="translate(594.000000, 251.000000)">
                <g id="Group-2-Copy" transform="translate(19.000000, 225.000000)">
                    <g id="Group" transform="translate(15.000000, 16.000000)">
                        <path d="M1.5,8 C2.32842712,8 3,8.67157288 3,9.5 C3,10.3284271 2.32842712,11 1.5,11 C0.671572875,11 1.01453063e-16,10.3284271 0,9.5 C-1.01453063e-16,8.67157288 0.671572875,8 1.5,8 Z M6.5,8 C7.32842712,8 8,8.67157288 8,9.5 C8,10.3284271 7.32842712,11 6.5,11 C5.67157288,11 5,10.3284271 5,9.5 C5,8.67157288 5.67157288,8 6.5,8 Z M1.5,4 C2.32842712,4 3,4.67157288 3,5.5 C3,6.32842712 2.32842712,7 1.5,7 C0.671572875,7 1.01453063e-16,6.32842712 0,5.5 C-1.01453063e-16,4.67157288 0.671572875,4 1.5,4 Z M6.5,4 C7.32842712,4 8,4.67157288 8,5.5 C8,6.32842712 7.32842712,7 6.5,7 C5.67157288,7 5,6.32842712 5,5.5 C5,4.67157288 5.67157288,4 6.5,4 Z M1.5,0 C2.32842712,-1.52179594e-16 3,0.671572875 3,1.5 C3,2.32842712 2.32842712,3 1.5,3 C0.671572875,3 1.01453063e-16,2.32842712 0,1.5 C-1.01453063e-16,0.671572875 0.671572875,1.52179594e-16 1.5,0 Z M6.5,0 C7.32842712,-1.52179594e-16 8,0.671572875 8,1.5 C8,2.32842712 7.32842712,3 6.5,3 C5.67157288,3 5,2.32842712 5,1.5 C5,0.671572875 5.67157288,1.52179594e-16 6.5,0 Z" id="Combined-Shape"></path>
                    </g>
                </g>
            </g>
        </g>
    </g>
</svg>