<svg width="60" height="60" viewBox="0 0 60 60" fill="none" xmlns="http://www.w3.org/2000/svg">
    <circle cx="30" cy="30" r="30" fill="#E1EFFF"/>
    <mask id="mask0_24314_162044" style="mask-type:alpha" maskUnits="userSpaceOnUse" x="0" y="0" width="60" height="60">
    <circle cx="30" cy="30" r="30" fill="#E1EFFF"/>
    </mask>
    <g mask="url(#mask0_24314_162044)">
    <path d="M29.7222 39.5695L50.4728 33.7334V60.9686L29.7222 66.8047V39.5695Z" fill="#F5C900"/>
    <path d="M8.97119 33.7334L29.7218 39.5695V66.8047L8.97119 60.9686V33.7334Z" fill="#F5C900"/>
    <path d="M8.97136 33.7334L29.722 39.5695L23.8858 44.1087L3.13525 38.2726L8.97136 33.7334Z" fill="#FFF4CE"/>
    <path d="M56.3086 38.2725L35.5665 44.1385L29.7573 39.5544L50.4995 33.6884L56.3086 38.2725Z" fill="#FFF4CE"/>
    <path d="M29.7871 27.8965L9.04497 33.7625L3.23582 29.1784L23.978 23.3124L29.7871 27.8965Z" fill="#FFF4CE"/>
    <path d="M35.5583 23.3584L56.3089 29.1945L50.4728 33.7337L29.7222 27.8976L35.5583 23.3584Z" fill="#FFF4CE"/>
    <path d="M8.97119 33.7323L29.7218 27.8962V33.7323V39.5685L8.97119 33.7323Z" fill="#E6BC00"/>
    <path d="M50.4502 33.732L29.6996 39.5681L29.6996 33.732L29.6996 27.8959L50.4502 33.732Z" fill="#E5BC00"/>
    <path d="M18.1375 18.262L19.9873 20.3056" stroke="#616165" stroke-linecap="round"/>
    <path d="M23.1546 14.1199L24.7918 17.4869" stroke="#616165" stroke-linecap="round"/>
    <path d="M37.1263 14.2833L35.2277 17.5101" stroke="#616165" stroke-linecap="round"/>
    <path d="M41.9132 18.2416L40.0037 20.2294" stroke="#616165" stroke-linecap="round"/>
    <path d="M30 22.4963H30.0113" stroke="#616165" stroke-width="2" stroke-linecap="round" stroke-linejoin="round"/>
    <path d="M30 12L30 18.1229" stroke="#616165" stroke-width="2" stroke-linecap="round" stroke-linejoin="round"/>
    </g>
    </svg>