<svg width="303" height="210" viewBox="0 0 303 210" fill="none" xmlns="http://www.w3.org/2000/svg">
<g filter="url(#filter0_d_49479_157771)">
<rect x="185.633" y="11.1719" width="136.897" height="89.142" rx="6.36728" transform="rotate(-2.16485 185.633 11.1719)" fill="white"/>
<rect x="186.046" y="11.5545" width="136.101" height="88.3461" rx="5.96933" transform="rotate(-2.16485 186.046 11.5545)" stroke="#ECECEC" stroke-width="0.79591"/>
<rect x="198.137" y="46.9902" width="9.55093" height="4.77546" rx="2.38773" transform="rotate(-2.16485 198.137 46.9902)" fill="#017AFF"/>
</g>
<rect x="195.599" y="21.9473" width="23.0814" height="6.36728" rx="3.18364" transform="rotate(-2.16485 195.599 21.9473)" fill="#D8D8D8" fill-opacity="0.7"/>
<rect x="212.376" y="44.4082" width="23.0814" height="7.16319" rx="3.5816" transform="rotate(-2.16485 212.376 44.4082)" fill="#D8D8D8" fill-opacity="0.7"/>
<rect x="212.95" y="59.5195" width="49.3464" height="9.55093" rx="4.77546" transform="rotate(-2.16485 212.95 59.5195)" fill="#D8D8D8"/>
<rect x="264.574" y="76.6836" width="50.1424" height="9.55093" rx="4.77546" transform="rotate(-2.16485 264.574 76.6836)" fill="#D8D8D8" fill-opacity="0.7"/>
<rect x="212.985" y="77.0625" width="48.5505" height="12.7346" rx="6.36728" transform="rotate(-2.16485 212.985 77.0625)" fill="#FBECE5"/>
<g filter="url(#filter1_d_49479_157771)">
<rect x="56.3208" y="57.5256" width="233.527" height="73.448" rx="7.21924" transform="rotate(-1.27784 56.3208 57.5256)" stroke="#ECECEC" stroke-width="0.62776"/>
<rect x="55.9965" y="57.2207" width="234.155" height="74.0757" rx="7.53312" transform="rotate(-1.27784 55.9965 57.2207)" fill="white" stroke="#ECECEC" stroke-width="0.62776"/>
<rect x="77.3914" y="115.771" width="199" height="5.02208" rx="2.51104" transform="rotate(-1.27784 77.3914 115.771)" fill="#F6F6F6"/>
<path d="M72.4272 118.394C72.3953 116.962 73.5305 115.775 74.9629 115.743L183.783 113.316L183.899 118.503L75.0786 120.93C73.6462 120.962 72.4592 119.827 72.4272 118.394Z" fill="#017AFF"/>
<rect x="70.8224" y="74.4688" width="55.2429" height="7.53312" rx="3.76656" transform="rotate(-1.27784 70.8224 74.4688)" fill="#D8D8D8" fill-opacity="0.7"/>
<rect x="215.703" y="95.1016" width="60.265" height="7.53312" rx="3.76656" transform="rotate(-1.27784 215.703 95.1016)" fill="#D8D8D8" fill-opacity="0.7"/>
<rect x="71.3128" y="96.4355" width="33.8991" height="9.41641" rx="4.7082" transform="rotate(-1.27784 71.3128 96.4355)" fill="#D8D8D8"/>
<rect x="110.852" y="95.5586" width="41.4322" height="9.41641" rx="4.7082" transform="rotate(-1.27784 110.852 95.5586)" fill="#EBFAEE"/>
</g>
<g filter="url(#filter2_d_49479_157771)">
<rect x="16" y="127.609" width="318.902" height="109.338" rx="6.83361" transform="rotate(-1.90663 16 127.609)" fill="white" stroke="#ECECEC" stroke-width="0.569468"/>
<rect x="135.672" y="145.277" width="113.894" height="4.55574" rx="2.27787" transform="rotate(-1.90663 135.672 145.277)" fill="#39C0C8"/>
<rect x="136.698" y="176.014" width="56.9468" height="4.55574" rx="2.27787" transform="rotate(-1.90663 136.698 176.014)" fill="#F5C900"/>
<rect x="137.715" y="206.742" width="181.091" height="4.55574" rx="2.27787" transform="rotate(-1.90663 137.715 206.742)" fill="#F96300"/>
<rect x="36.6033" y="147.438" width="38.7238" height="6.83361" rx="3.41681" transform="rotate(-1.90663 36.6033 147.438)" fill="#D8D8D8" fill-opacity="0.6"/>
<rect x="37.5106" y="208.943" width="39.8627" height="6.83361" rx="3.41681" transform="rotate(-1.90663 37.5106 208.943)" fill="#D8D8D8" fill-opacity="0.6"/>
<rect x="43.8863" y="177.963" width="32.4596" height="6.83361" rx="3.41681" transform="rotate(-1.90663 43.8863 177.963)" fill="#D8D8D8" fill-opacity="0.6"/>
<rect x="89.5313" y="145.672" width="17.6535" height="6.83361" rx="3.41681" transform="rotate(-1.90663 89.5313 145.672)" fill="#D8D8D8"/>
<rect x="91.5813" y="207.145" width="17.6535" height="6.83361" rx="3.41681" transform="rotate(-1.90663 91.5813 207.145)" fill="#D8D8D8"/>
<rect x="90.5563" y="176.408" width="17.6535" height="6.83361" rx="3.41681" transform="rotate(-1.90663 90.5563 176.408)" fill="#D8D8D8"/>
<rect x="112.866" y="144.896" width="17.6535" height="6.83361" rx="3.41681" transform="rotate(-1.90663 112.866 144.896)" fill="#D8D8D8"/>
<rect x="114.916" y="206.363" width="17.6535" height="6.83361" rx="3.41681" transform="rotate(-1.90663 114.916 206.363)" fill="#D8D8D8"/>
<rect x="113.891" y="175.633" width="17.6535" height="6.83361" rx="3.41681" transform="rotate(-1.90663 113.891 175.633)" fill="#D8D8D8"/>
<path d="M112.033 205.324L112.326 214.146" stroke="#D8D8D8" stroke-width="0.569468"/>
<path d="M111.008 174.588L111.301 183.41" stroke="#D8D8D8" stroke-width="0.569468"/>
<path d="M109.987 143.854L110.281 152.675" stroke="#D8D8D8" stroke-width="0.569468"/>
</g>
<g filter="url(#filter3_d_49479_157771)">
<mask id="path-33-inside-1_49479_157771" fill="white">
<path d="M131.35 87.9811C131.636 81.5367 137.091 76.5439 143.536 76.8294L359.33 86.3887C365.775 86.6742 370.768 92.1298 370.482 98.5742L368.156 151.083C367.871 157.527 362.415 162.52 355.971 162.234L140.176 152.675C133.732 152.39 128.739 146.934 129.024 140.49L131.35 87.9811Z"/>
</mask>
<path d="M131.35 87.9811C131.636 81.5367 137.091 76.5439 143.536 76.8294L359.33 86.3887C365.775 86.6742 370.768 92.1298 370.482 98.5742L368.156 151.083C367.871 157.527 362.415 162.52 355.971 162.234L140.176 152.675C133.732 152.39 128.739 146.934 129.024 140.49L131.35 87.9811Z" fill="white" shape-rendering="crispEdges"/>
<path d="M143.503 77.5587L359.298 87.118L359.363 85.6595L143.568 76.1001L143.503 77.5587ZM369.753 98.5419L367.427 151.05L368.885 151.115L371.211 98.6065L369.753 98.5419ZM356.003 161.505L140.208 151.946L140.144 153.404L355.938 162.964L356.003 161.505ZM129.754 140.522L132.08 88.0134L130.621 87.9488L128.295 140.457L129.754 140.522ZM140.208 151.946C134.167 151.678 129.486 146.563 129.754 140.522L128.295 140.457C127.992 147.304 133.296 153.101 140.144 153.404L140.208 151.946ZM367.427 151.05C367.159 157.092 362.044 161.773 356.003 161.505L355.938 162.964C362.785 163.267 368.582 157.962 368.885 151.115L367.427 151.05ZM359.298 87.118C365.34 87.3857 370.02 92.5003 369.753 98.5419L371.211 98.6065C371.515 91.7594 366.21 85.9628 359.363 85.6595L359.298 87.118ZM143.568 76.1001C136.721 75.7968 130.924 81.1016 130.621 87.9488L132.08 88.0134C132.347 81.9718 137.462 77.291 143.503 77.5587L143.568 76.1001Z" fill="#ECECEC" mask="url(#path-33-inside-1_49479_157771)"/>
<path fill-rule="evenodd" clip-rule="evenodd" d="M158.583 133.033C168.25 133.461 176.433 125.972 176.861 116.305C177.29 106.639 169.801 98.4555 160.134 98.0273C150.467 97.5991 142.284 105.088 141.856 114.755C141.428 124.421 148.917 132.605 158.583 133.033ZM158.842 127.198C165.286 127.484 170.742 122.491 171.027 116.047C171.313 109.602 166.32 104.147 159.875 103.861C153.431 103.576 147.976 108.569 147.69 115.013C147.405 121.457 152.397 126.913 158.842 127.198Z" fill="#39C0C8"/>
<path fill-rule="evenodd" clip-rule="evenodd" d="M147.69 115.014C147.69 115.013 147.69 115.013 147.69 115.013C147.976 108.569 153.431 103.576 159.875 103.861C159.876 103.861 159.876 103.861 159.876 103.861L160.134 98.0273C160.134 98.0273 160.134 98.0273 160.134 98.0273C150.467 97.5991 142.284 105.088 141.856 114.755C141.856 114.755 141.856 114.755 141.856 114.755L147.69 115.014Z" fill="#F6F6F6"/>
</g>
<rect x="190.033" y="99.3477" width="32.85" height="8.76" rx="4.38" transform="rotate(2.53645 190.033 99.3477)" fill="#D8D8D8" fill-opacity="0.7"/>
<rect x="237.145" y="124.443" width="81.8213" height="8.76" rx="4.38" transform="rotate(2.53645 237.145 124.443)" fill="#D8D8D8" fill-opacity="0.6"/>
<rect x="189.16" y="119.039" width="41.8957" height="13.14" rx="6.57" transform="rotate(2.53645 189.16 119.039)" fill="#D8D8D8" fill-opacity="0.9"/>
<defs>
<filter id="filter0_d_49479_157771" x="179.266" y="0.428627" width="152.901" height="106.985" filterUnits="userSpaceOnUse" color-interpolation-filters="sRGB">
<feFlood flood-opacity="0" result="BackgroundImageFix"/>
<feColorMatrix in="SourceAlpha" type="matrix" values="0 0 0 0 0 0 0 0 0 0 0 0 0 0 0 0 0 0 127 0" result="hardAlpha"/>
<feOffset dy="0.79591"/>
<feGaussianBlur stdDeviation="3.18364"/>
<feColorMatrix type="matrix" values="0 0 0 0 0 0 0 0 0 0 0 0 0 0 0 0 0 0 0.08 0"/>
<feBlend mode="normal" in2="BackgroundImageFix" result="effect1_dropShadow_49479_157771"/>
<feBlend mode="normal" in="SourceGraphic" in2="effect1_dropShadow_49479_157771" result="shape"/>
</filter>
<filter id="filter1_d_49479_157771" x="38.2714" y="38.0408" width="271.199" height="114.729" filterUnits="userSpaceOnUse" color-interpolation-filters="sRGB">
<feFlood flood-opacity="0" result="BackgroundImageFix"/>
<feColorMatrix in="SourceAlpha" type="matrix" values="0 0 0 0 0 0 0 0 0 0 0 0 0 0 0 0 0 0 127 0" result="hardAlpha"/>
<feOffset dy="3.76656"/>
<feGaussianBlur stdDeviation="8.78865"/>
<feComposite in2="hardAlpha" operator="out"/>
<feColorMatrix type="matrix" values="0 0 0 0 0 0 0 0 0 0 0 0 0 0 0 0 0 0 0.05 0"/>
<feBlend mode="normal" in2="BackgroundImageFix" result="effect1_dropShadow_49479_157771"/>
<feBlend mode="normal" in="SourceGraphic" in2="effect1_dropShadow_49479_157771" result="shape"/>
</filter>
<filter id="filter2_d_49479_157771" x="-0.00630856" y="104.409" width="354.376" height="151.9" filterUnits="userSpaceOnUse" color-interpolation-filters="sRGB">
<feFlood flood-opacity="0" result="BackgroundImageFix"/>
<feColorMatrix in="SourceAlpha" type="matrix" values="0 0 0 0 0 0 0 0 0 0 0 0 0 0 0 0 0 0 127 0" result="hardAlpha"/>
<feOffset dy="3.41681"/>
<feGaussianBlur stdDeviation="7.97255"/>
<feComposite in2="hardAlpha" operator="out"/>
<feColorMatrix type="matrix" values="0 0 0 0 0 0 0 0 0 0 0 0 0 0 0 0 0 0 0.05 0"/>
<feBlend mode="normal" in2="BackgroundImageFix" result="effect1_dropShadow_49479_157771"/>
<feBlend mode="normal" in="SourceGraphic" in2="effect1_dropShadow_49479_157771" result="shape"/>
</filter>
<filter id="filter3_d_49479_157771" x="108.067" y="60.2525" width="283.372" height="127.319" filterUnits="userSpaceOnUse" color-interpolation-filters="sRGB">
<feFlood flood-opacity="0" result="BackgroundImageFix"/>
<feColorMatrix in="SourceAlpha" type="matrix" values="0 0 0 0 0 0 0 0 0 0 0 0 0 0 0 0 0 0 127 0" result="hardAlpha"/>
<feOffset dy="4.38"/>
<feGaussianBlur stdDeviation="10.22"/>
<feComposite in2="hardAlpha" operator="out"/>
<feColorMatrix type="matrix" values="0 0 0 0 0 0 0 0 0 0 0 0 0 0 0 0 0 0 0.05 0"/>
<feBlend mode="normal" in2="BackgroundImageFix" result="effect1_dropShadow_49479_157771"/>
<feBlend mode="normal" in="SourceGraphic" in2="effect1_dropShadow_49479_157771" result="shape"/>
</filter>
</defs>
</svg>
