<svg width="18" height="15" viewBox="0 0 18 15" fill="none" xmlns="http://www.w3.org/2000/svg">
<path fill-rule="evenodd" clip-rule="evenodd" d="M1.68039 0C1.37365 0 1.12499 0.248657 1.12499 0.555392V3.32308H16.875C16.875 2.1535 15.9269 1.20536 14.7572 1.20536H9.06183C9.02239 1.20536 8.98472 1.189 8.9578 1.16016C8.26713 0.420148 7.30028 0 6.28803 0H1.68039ZM1.34296 4.43079C0.626926 4.43079 0.0702382 5.05383 0.150531 5.76534L1.0047 13.3345C1.07318 13.9414 1.58646 14.4 2.19713 14.4H15.8027C16.4134 14.4 16.9266 13.9414 16.9952 13.3345L17.8493 5.76534C17.9296 5.05383 17.3729 4.43079 16.6569 4.43079H1.34296Z" fill="#333C48"/>
</svg>
