<svg width="16" height="18" viewBox="0 0 16 18" fill="none" xmlns="http://www.w3.org/2000/svg">
<path fill-rule="evenodd" clip-rule="evenodd" d="M4.125 5.55539C4.125 5.24866 4.37365 5 4.6804 5H9.28804C10.3003 5 11.2671 5.42015 11.9578 6.16016C11.9847 6.189 12.0224 6.20536 12.0618 6.20536H17.7572C18.9269 6.20536 19.875 7.1535 19.875 8.32308H4.125V5.55539Z" fill="#333C48"/>
<path fill-rule="evenodd" clip-rule="evenodd" d="M3.1506 10.7653C3.07031 10.0538 3.62699 9.43079 4.34302 9.43079H19.657C20.373 9.43079 20.9297 10.0538 20.8494 10.7653L19.9952 18.3345C19.9267 18.9414 19.4135 19.4 18.8028 19.4H5.1972C4.58653 19.4 4.07324 18.9414 4.00477 18.3345L3.1506 10.7653Z" fill="#333C48"/>
</svg>
