<svg width="36" height="36" viewBox="0 0 36 36" fill="none" xmlns="http://www.w3.org/2000/svg">
<rect width="36" height="36" rx="13" fill="#E49700"/>
<g filter="url(#filter0_d_2081_12897)">
<path fill-rule="evenodd" clip-rule="evenodd" d="M19.7557 9.21893C18.9977 7.8292 17.0022 7.8292 16.2442 9.21893L7.61325 25.0423C6.88629 26.375 7.85092 28 9.36904 28H26.6309C28.149 28 29.1136 26.375 28.3867 25.0423L19.7557 9.21893ZM17 14H19V21H17V14ZM16.75 24C16.75 24.69 17.31 25.25 18 25.25C18.69 25.25 19.25 24.69 19.25 24C19.25 23.31 18.69 22.75 18 22.75C17.31 22.75 16.75 23.31 16.75 24Z" fill="white"/>
</g>
<defs>
<filter id="filter0_d_2081_12897" x="3.36621" y="6.17664" width="29.2675" height="27.8234" filterUnits="userSpaceOnUse" color-interpolation-filters="sRGB">
<feFlood flood-opacity="0" result="BackgroundImageFix"/>
<feColorMatrix in="SourceAlpha" type="matrix" values="0 0 0 0 0 0 0 0 0 0 0 0 0 0 0 0 0 0 127 0" result="hardAlpha"/>
<feOffset dy="2"/>
<feGaussianBlur stdDeviation="2"/>
<feColorMatrix type="matrix" values="0 0 0 0 0 0 0 0 0 0 0 0 0 0 0 0 0 0 0.01 0"/>
<feBlend mode="normal" in2="BackgroundImageFix" result="effect1_dropShadow_2081_12897"/>
<feBlend mode="normal" in="SourceGraphic" in2="effect1_dropShadow_2081_12897" result="shape"/>
</filter>
</defs>
</svg>