<svg width="36" height="36" viewBox="0 0 36 36" fill="none" xmlns="http://www.w3.org/2000/svg">
<rect width="36" height="36" rx="13" fill="#0166D6"/>
<path fill-rule="evenodd" clip-rule="evenodd" d="M18 6C11.373 6 6 11.373 6 18C6 24.627 11.373 30 18 30C24.627 30 30 24.627 30 18C30 11.373 24.627 6 18 6ZM17.999 11.75C18.689 11.75 19.25 12.31 19.25 13C19.25 13.69 18.689 14.25 17.999 14.25C17.309 14.25 16.75 13.69 16.75 13C16.75 12.31 17.309 11.75 17.999 11.75ZM16 23V24H20V23.001C19.9046 22.966 19.8078 22.9371 19.714 22.909C19.3329 22.7949 19 22.6953 19 22.266V16.001H16V17.001C16.0701 17.0269 16.1409 17.0509 16.2107 17.0745C16.6227 17.2138 17 17.3414 17 17.798V22.265C17 22.6923 16.6696 22.7918 16.2896 22.9062C16.1947 22.9347 16.0967 22.9642 16 23Z" fill="white"/>
</svg>