<svg width="40" height="40" viewBox="0 0 40 40" fill="none" xmlns="http://www.w3.org/2000/svg">
<path fill-rule="evenodd" clip-rule="evenodd" d="M20 39.2001C30.6039 39.2001 39.2001 30.6039 39.2001 20C39.2001 9.39618 30.6039 0.800049 20 0.800049C9.39618 0.800049 0.800049 9.39618 0.800049 20C0.800049 30.6039 9.39618 39.2001 20 39.2001ZM18.9313 13.2031C18.1949 12.7122 17.248 12.6664 16.4676 13.084C15.6872 13.5017 15.2 14.3149 15.2 15.2001V24.8001C15.2 25.6852 15.6872 26.4984 16.4676 26.9161C17.248 27.3337 18.1949 27.2879 18.9313 26.797L26.1313 21.997C26.799 21.5519 27.2001 20.8025 27.2001 20.0001C27.2001 19.1976 26.799 18.4483 26.1313 18.0031L18.9313 13.2031Z" fill="white"/>
</svg>
