<svg width="34" height="34" viewBox="0 0 34 34" fill="none" xmlns="http://www.w3.org/2000/svg">
<path fill-rule="evenodd" clip-rule="evenodd" d="M0.199951 2.59995C0.199951 1.27447 1.27447 0.199951 2.59995 0.199951H31.4C32.7254 0.199951 33.7999 1.27447 33.7999 2.59995C33.7999 3.92543 32.7254 4.99995 31.4 4.99995H2.59995C1.27447 4.99995 0.199951 3.92543 0.199951 2.59995ZM0.199951 12.2C0.199951 10.8745 1.27447 9.79995 2.59995 9.79995H31.4C32.7254 9.79995 33.7999 10.8745 33.7999 12.2C33.7999 13.5254 32.7254 14.6 31.4 14.6H2.59995C1.27447 14.6 0.199951 13.5254 0.199951 12.2ZM0.199951 21.7999C0.199951 20.4745 1.27447 19.4 2.59995 19.4H31.4C32.7254 19.4 33.7999 20.4745 33.7999 21.7999C33.7999 23.1254 32.7254 24.1999 31.4 24.1999H2.59995C1.27447 24.1999 0.199951 23.1254 0.199951 21.7999ZM0.199951 31.4C0.199951 30.0745 1.27447 29 2.59995 29H31.4C32.7254 29 33.7999 30.0745 33.7999 31.4C33.7999 32.7254 32.7254 33.7999 31.4 33.7999H2.59995C1.27447 33.7999 0.199951 32.7254 0.199951 31.4Z" fill="#39C0C8"/>
</svg>
