<svg width="16" height="18" viewBox="0 0 16 18" fill="none" xmlns="http://www.w3.org/2000/svg">
<path fill-rule="evenodd" clip-rule="evenodd" d="M0 2.64706C0 1.18513 1.18513 0 2.64706 0H7.94118H11.9118L16 3.97059V10.0588V15.3529C16 16.8149 14.8149 18 13.3529 18H2.64706C1.18513 18 0 16.8149 0 15.3529V2.64706ZM2.2689 2.26891H9.07563V4.53781H2.2689V2.26891ZM7.94118 15.7311C9.8208 15.7311 11.3445 14.2074 11.3445 12.3277C11.3445 10.4481 9.8208 8.92437 7.94118 8.92437C6.06155 8.92437 4.53781 10.4481 4.53781 12.3277C4.53781 14.2074 6.06155 15.7311 7.94118 15.7311Z" fill="#333C48"/>
</svg>
