<svg width="16" height="18" viewBox="0 0 16 18" fill="none" xmlns="http://www.w3.org/2000/svg">
<path fill-rule="evenodd" clip-rule="evenodd" d="M0 2.64706C0 1.18513 1.18513 0 2.64706 0H7.94118H11.9118L16 3.97059V10.0588V15.3529C16 16.8149 14.8149 18 13.3529 18H2.64706C1.18513 18 0 16.8149 0 15.3529V2.64706ZM2.2689 2.26891H9.07563V4.53781H2.2689V2.26891ZM7.94118 14.8067C9.8208 14.8067 11.3445 13.283 11.3445 11.4034C11.3445 9.52374 9.8208 8 7.94118 8C6.06155 8 4.53781 9.52374 4.53781 11.4034C4.53781 13.283 6.06155 14.8067 7.94118 14.8067Z" fill="#333C48"/>
</svg>
