<?xml version="1.0" encoding="UTF-8"?>
<svg width="15px" height="15px" viewBox="0 0 15 15" version="1.1" xmlns="http://www.w3.org/2000/svg" xmlns:xlink="http://www.w3.org/1999/xlink">
    <title>Shape</title>
    <g id="Page-1" stroke="none" stroke-width="1" fill="none" fill-rule="evenodd">
        <g id="zoom-1" transform="translate(-1405.000000, -90.000000)" fill="#313C49" fill-rule="nonzero">
            <g id="Group-33" transform="translate(304.000000, 27.000000)">
                <g id="Group-21" transform="translate(0.000000, 40.000000)">
                    <g id="Group-40" transform="translate(960.000000, 14.000000)">
                        <g id="Group-10" transform="translate(132.000000, 0.000000)">
                            <path d="M17.6666667,15.6666667 L15.6666667,15.6666667 L15.6666667,17.6666667 L14.3333333,17.6666667 L14.3333333,15.6666667 L12.3333333,15.6666667 L12.3333333,14.3333333 L14.3333333,14.3333333 L14.3333333,12.3333333 L15.6666667,12.3333333 L15.6666667,14.3333333 L17.6666667,14.3333333 L17.6666667,15.6666667 Z M21.8834994,23.7688328 C21.3807125,23.2660458 20.9703238,22.8556571 20.6523333,22.5376667 C20.1051481,21.9904815 19.2843704,21.1697037 18.19,20.0753333 C17.2646667,20.658 16.174,21 15,21 C11.686,21 9,18.314 9,15 C9,11.686 11.686,9 15,9 C18.314,9 21,11.686 21,15 C21,16.174 20.6573333,17.2653333 20.0753333,18.19 C21.1697037,19.2843704 21.9904815,20.1051481 22.5376667,20.6523333 C22.8556571,20.9703238 23.2660458,21.3807125 23.7688328,21.8834994 C24.1312214,22.2458881 22.2458881,24.1312214 21.8834994,23.7688328 Z M15,19.6666667 C17.5726667,19.6666667 19.6666667,17.5733333 19.6666667,15 C19.6666667,12.4266667 17.5726667,10.3333333 15,10.3333333 C12.4273333,10.3333333 10.3333333,12.4266667 10.3333333,15 C10.3333333,17.5733333 12.4273333,19.6666667 15,19.6666667 Z" id="Shape"></path>
                        </g>
                    </g>
                </g>
            </g>
        </g>
    </g>
</svg>