<svg width="100" height="100" viewBox="0 0 100 100" fill="none" xmlns="http://www.w3.org/2000/svg">
    <circle cx="50" cy="50" r="50" fill="#67A3E6"/>
    <path d="M100 48.874L66 15L41.5 16.9926L30 85.2387L43 99.4321C49 99.9785 62 102.43 79.5 90.2201C98.1306 77.2218 100 56.9894 100 48.874Z" fill="#3485DE"/>
    <path fill-rule="evenodd" clip-rule="evenodd" d="M50 6.99951C38.9543 6.99951 30 15.9538 30 26.9995V51.9995H70V26.9995C70 15.9538 61.0457 6.99951 50 6.99951ZM49.9995 18.9998C45.5812 18.9998 41.9995 22.5815 41.9995 26.9998V41.9998H57.9995V26.9998C57.9995 22.5815 54.4178 18.9998 49.9995 18.9998Z" fill="white"/>
    <path fill-rule="evenodd" clip-rule="evenodd" d="M70 26.9995C70 15.9538 61.0457 6.99951 50 6.99951V18.9998C54.4183 18.9998 58 22.5815 58 26.9998V41.9998H50V51.9995H70V26.9995Z" fill="#E2E4E8"/>
    <path d="M22 41.9995H78V69.9995C78 80.4929 69.4934 88.9995 59 88.9995H41C30.5066 88.9995 22 80.4929 22 69.9995V41.9995Z" fill="#E49700"/>
    <path d="M22 41.9995H50V88.9995H41C30.5066 88.9995 22 80.4929 22 69.9995V41.9995Z" fill="#F5C900"/>
    <path fill-rule="evenodd" clip-rule="evenodd" d="M54.6254 65.2547C56.0814 63.9719 57 62.0935 57 60.0005C57 56.1345 53.866 53.0005 50 53.0005C46.134 53.0005 43 56.1345 43 60.0005C43 62.0933 43.9184 63.9716 45.3742 65.2543L43.4998 78.0002H56.4998L54.6254 65.2547Z" fill="#81868D"/>
    <path fill-rule="evenodd" clip-rule="evenodd" d="M54.9502 55.0498C53.6375 53.737 51.857 52.9995 50.0005 52.9995V59.9995L50.0005 61H50V78H56.5L54.6256 65.2539C54.7367 65.1561 54.845 65.0545 54.9502 64.9493C56.263 63.6365 57.0005 61.856 57.0005 59.9995C57.0005 58.143 56.263 56.3625 54.9502 55.0498Z" fill="#333C48"/>
</svg>