<?xml version="1.0" encoding="UTF-8"?>
<svg width="63px" height="63px" viewBox="0 0 63 63" version="1.1" xmlns="http://www.w3.org/2000/svg" xmlns:xlink="http://www.w3.org/1999/xlink">
    <!-- Generator: Sketch 49.1 (51147) - http://www.bohemiancoding.com/sketch -->
    <title>Artboard Copy 18</title>
    <desc>Created with Sketch.</desc>
    <defs></defs>
    <g id="Artboard-Copy-18" stroke="none" stroke-width="1" fill="none" fill-rule="evenodd">
        <g id="Group-3">
            <circle id="Oval" fill="#FFA183" cx="31.5" cy="31.5" r="31.5"></circle>
            <path d="M17.0625,44.6485478 C21.8221573,41.1328493 26.6346573,39.375 31.5,39.375 C36.3653427,39.375 41.1778427,41.1328493 45.9375,44.6485478" id="Path-2" stroke="#685F50" stroke-width="4.72500019" stroke-linecap="round"></path>
            <path d="M39.7574222,23.7246704 C39.992347,23.7420433 40.2295522,23.7508788 40.46875,23.7508788 C43.6830403,23.7508788 46.537508,22.1554285 48.3340433,19.6875 C50.7731157,20.6788394 52.5,23.1387119 52.5,26.0162841 C52.5,29.7697305 49.5618687,32.8125 45.9375,32.8125 C42.3131313,32.8125 39.375,29.7697305 39.375,26.0162841 C39.375,25.21215 39.5098552,24.4406349 39.7574222,23.7246704 Z" id="Combined-Shape" fill="#685F50"></path>
            <path d="M10.8824222,23.7246704 C11.117347,23.7420433 11.3545522,23.7508788 11.59375,23.7508788 C14.8080403,23.7508788 17.662508,22.1554285 19.4590433,19.6875 C21.8981157,20.6788394 23.625,23.1387119 23.625,26.0162841 C23.625,29.7697305 20.6868687,32.8125 17.0625,32.8125 C13.4381313,32.8125 10.5,29.7697305 10.5,26.0162841 C10.5,25.21215 10.6348552,24.4406349 10.8824222,23.7246704 Z" id="Combined-Shape" fill="#685F50" transform="translate(17.062500, 26.250000) scale(-1, 1) translate(-17.062500, -26.250000) "></path>
        </g>
    </g>
</svg>