<?xml version="1.0" encoding="UTF-8"?>
<svg width="63px" height="63px" viewBox="0 0 63 63" version="1.1" xmlns="http://www.w3.org/2000/svg" xmlns:xlink="http://www.w3.org/1999/xlink">
    <!-- Generator: Sketch 49.1 (51147) - http://www.bohemiancoding.com/sketch -->
    <title>Artboard Copy 17</title>
    <desc>Created with Sketch.</desc>
    <defs></defs>
    <g id="Artboard-Copy-17" stroke="none" stroke-width="1" fill="none" fill-rule="evenodd">
        <g id="Group-7">
            <circle id="Oval" fill="#FFC385" cx="31.5" cy="31.5" r="31.5"></circle>
            <path d="M19,40.9500192 C23.1209154,38.7975192 27.2875821,37.7212692 31.5,37.7212692 C35.7124179,37.7212692 39.8790846,38.7975192 44,40.9500192" id="Path-2" stroke="#685F50" stroke-width="4.72500019" stroke-linecap="round"></path>
            <path d="M41.4914685,19 C42.9971362,21.0683591 45.3894519,22.4054984 48.0833333,22.4054984 C48.2838039,22.4054984 48.4826044,22.3980935 48.6794937,22.3835333 C48.8869785,22.9835797 49,23.6301829 49,24.3041238 C49,27.4498694 46.5375661,30 43.5,30 C40.4624339,30 38,27.4498694 38,24.3041238 C38,21.8924442 39.4472935,19.8308368 41.4914685,19 Z" id="Combined-Shape" fill="#685F50"></path>
            <path d="M17.4914685,19 C18.9971362,21.0683591 21.3894519,22.4054984 24.0833333,22.4054984 C24.2838039,22.4054984 24.4826044,22.3980935 24.6794937,22.3835333 C24.8869785,22.9835797 25,23.6301829 25,24.3041238 C25,27.4498694 22.5375661,30 19.5,30 C16.4624339,30 14,27.4498694 14,24.3041238 C14,21.8924442 15.4472935,19.8308368 17.4914685,19 Z" id="Combined-Shape" fill="#685F50" transform="translate(19.500000, 24.500000) scale(-1, 1) translate(-19.500000, -24.500000) "></path>
        </g>
    </g>
</svg>