<?xml version="1.0" encoding="UTF-8"?>
<svg width="48px" height="48px" viewBox="0 0 48 48" version="1.1" xmlns="http://www.w3.org/2000/svg" xmlns:xlink="http://www.w3.org/1999/xlink">
    <!-- Generator: Sketch 49.1 (51147) - http://www.bohemiancoding.com/sketch -->
    <title>Artboard Copy 2</title>
    <desc>Created with Sketch.</desc>
    <defs></defs>
    <g id="Artboard-Copy-2" stroke="none" stroke-width="1" fill="none" fill-rule="evenodd">
        <g id="Group-7">
            <circle id="Oval" fill="#C8CED3" cx="24" cy="24" r="24"></circle>
            <path d="M14.4,31.2000146 C17.564863,29.5600146 20.764863,28.7400146 24,28.7400146 C27.235137,28.7400146 30.435137,29.5600146 33.6,31.2000146" id="Path-2" stroke="#FEFEFE" stroke-width="3.60000014" stroke-linecap="round"></path>
            <path d="M31.4662123,14.4 C32.6159949,15.9794742 34.4428542,17.0005624 36.5,17.0005624 C36.6530866,17.0005624 36.8048979,16.9949077 36.9552498,16.9837891 C37.1136927,17.4420063 37.2,17.935776 37.2,18.4504218 C37.2,20.8526275 35.3195959,22.8 33,22.8 C30.6804041,22.8 28.8,20.8526275 28.8,18.4504218 C28.8,16.6087756 29.9052059,15.0344572 31.4662123,14.4 Z" id="Combined-Shape" fill="#FEFEFE"></path>
            <path d="M13.4662123,14.4 C14.6159949,15.9794742 16.4428542,17.0005624 18.5,17.0005624 C18.6530866,17.0005624 18.8048979,16.9949077 18.9552498,16.9837891 C19.1136927,17.4420063 19.2,17.935776 19.2,18.4504218 C19.2,20.8526275 17.3195959,22.8 15,22.8 C12.6804041,22.8 10.8,20.8526275 10.8,18.4504218 C10.8,16.6087756 11.9052059,15.0344572 13.4662123,14.4 Z" id="Combined-Shape" fill="#FEFEFE" transform="translate(15.000000, 18.600000) scale(-1, 1) translate(-15.000000, -18.600000) "></path>
        </g>
    </g>
</svg>