<?xml version="1.0" encoding="UTF-8"?>
<svg width="44px" height="28px" viewBox="0 0 44 28" version="1.1" xmlns="http://www.w3.org/2000/svg" xmlns:xlink="http://www.w3.org/1999/xlink">
    <!-- Generator: Sketch 49.2 (51160) - http://www.bohemiancoding.com/sketch -->
    <title>Group 17</title>
    <desc>Created with Sketch.</desc>
    <defs></defs>
    <g id="Page-1" stroke="none" stroke-width="1" fill="none" fill-rule="evenodd">
        <g id="Artboard-Copy-9" transform="translate(-758.000000, -244.000000)">
            <g id="Group-17" transform="translate(758.000000, 244.000000)">
                <rect id="Rectangle-19" fill="#636363" x="0" y="25" width="44" height="3" rx="1.5"></rect>
                <path d="M3.5,25.5 L40.5,25.5 L40.5,2 C40.5,1.17157288 39.8284271,0.5 39,0.5 L5,0.5 C4.17157288,0.5 3.5,1.17157288 3.5,2 L3.5,25.5 Z" id="Rectangle-13" stroke="#636363"></path>
                <path d="M5,0 L39,0 C40.1045695,-2.02906125e-16 41,0.8954305 41,2 L41,3 L3,3 L3,2 C3,0.8954305 3.8954305,2.02906125e-16 5,0 Z" id="Rectangle-13" fill="#636363"></path>
                <circle id="Oval-6" fill="#FFFFFF" cx="22.5" cy="1.5" r="1"></circle>
            </g>
        </g>
    </g>
</svg>