<svg width="52" height="52" viewBox="0 0 82 82" fill="none" xmlns="http://www.w3.org/2000/svg">
<rect width="82" height="82" fill="white"/>
<path fill-rule="evenodd" clip-rule="evenodd" d="M34.294 72.82C24.1125 72.3509 17.3732 71.0459 14.0757 68.9049C8.26531 65.1323 7.69095 17.2417 14.0757 13.1573C17.6121 10.8951 24.1625 9.57256 33.727 9.18978C37.0181 8.89806 41.7097 9.01415 44.1132 9.07362C44.7288 9.08885 45.1943 9.10037 45.4477 9.10037C45.4849 9.10037 45.522 9.10088 45.5591 9.1021C56.9453 9.4807 64.4003 10.8139 67.9243 13.102C73.7347 16.8746 74.3091 64.7653 67.9243 68.8497C64.0206 71.3468 56.4443 72.6989 45.1952 72.906C45.0495 72.9087 44.8229 72.9149 44.5303 72.9229C42.5807 72.976 37.7011 73.109 34.294 72.82Z" fill="#ECECEC"/>
<path d="M27.3702 34.1893C28.074 34.1893 28.6868 33.8033 29.1128 33.2281C29.5389 32.6527 29.7933 31.8722 29.7933 31.0233C29.7933 30.1743 29.5389 29.3938 29.1128 28.8185C28.6868 28.2432 28.074 27.8573 27.3702 27.8573C26.6663 27.8573 26.0536 28.2432 25.6276 28.8185C25.2015 29.3938 24.9471 30.1743 24.9471 31.0233C24.9471 31.8722 25.2015 32.6527 25.6276 33.2281C26.0536 33.8033 26.6663 34.1893 27.3702 34.1893Z" fill="black" stroke="black" stroke-width="0.605773"/>
<path d="M54.0225 34.1893C54.7264 34.1893 55.3391 33.8033 55.7652 33.2281C56.1912 32.6527 56.4456 31.8722 56.4456 31.0233C56.4456 30.1743 56.1912 29.3938 55.7652 28.8185C55.3391 28.2432 54.7264 27.8573 54.0225 27.8573C53.3187 27.8573 52.7059 28.2432 52.2799 28.8185C51.8539 29.3938 51.5995 30.1743 51.5995 31.0233C51.5995 31.8722 51.8539 32.6527 52.2799 33.2281C52.7059 33.8033 53.3187 34.1893 54.0225 34.1893Z" fill="black" stroke="black" stroke-width="0.605773"/>
<path d="M40.8257 35.5225L43.4219 44.1118L39.7873 42.8848" stroke="black" stroke-width="3.02886" stroke-linecap="round" stroke-linejoin="round"/>
<path d="M32.2676 56.4756H50.7944" stroke="black" stroke-width="3.02886" stroke-linecap="round"/>
</svg>
