<svg width="52" height="52" viewBox="0 0 82 82" fill="none" xmlns="http://www.w3.org/2000/svg">
<rect width="82" height="82" fill="white"/>
<path fill-rule="evenodd" clip-rule="evenodd" d="M34.1993 72.8117C24.0707 72.3389 17.3628 71.0354 14.0756 68.901C8.26535 65.1284 7.69099 17.2378 14.0756 13.1533C17.6223 10.8844 24.201 9.56082 33.8116 9.18249C37.098 8.90001 41.7308 9.01465 44.1139 9.07362C44.7295 9.08885 45.195 9.10037 45.4484 9.10037C45.4856 9.10037 45.5228 9.10088 45.5598 9.1021C56.9457 9.4807 64.4005 10.8139 67.9244 13.102C73.7347 16.8746 74.309 64.7653 67.9244 68.8497C64.0209 71.3468 56.4447 72.6989 45.1959 72.906C45.0502 72.9087 44.8236 72.9149 44.531 72.9229C42.5632 72.9765 37.6101 73.1116 34.1993 72.8117Z" fill="#FFD61A"/>
<path d="M26.1381 56.526C30.029 54.1043 39.6629 51.4536 47.0708 60.2248" stroke="black" stroke-width="3.02296" stroke-linecap="round" stroke-linejoin="round"/>
<path d="M27.6769 36.2304C28.4642 36.2304 29.1525 35.7988 29.6332 35.1496C30.114 34.5003 30.4022 33.6177 30.4022 32.6559C30.4022 31.6942 30.114 30.8115 29.6332 30.1623C29.1525 29.5131 28.4642 29.0815 27.6769 29.0815C26.8897 29.0815 26.2014 29.5131 25.7206 30.1623C25.2399 30.8115 24.9516 31.6942 24.9516 32.6559C24.9516 33.6177 25.2399 34.5003 25.7206 35.1496C26.2014 35.7988 26.8897 36.2304 27.6769 36.2304Z" fill="black" stroke="black" stroke-width="0.604592"/>
<path d="M56.7472 36.2304C57.5345 36.2304 58.2228 35.7988 58.7035 35.1496C59.1843 34.5003 59.4725 33.6177 59.4725 32.6559C59.4725 31.6942 59.1843 30.8115 58.7035 30.1623C58.2228 29.5131 57.5345 29.0815 56.7472 29.0815C55.96 29.0815 55.2717 29.5131 54.791 30.1623C54.3102 30.8115 54.0219 31.6942 54.0219 32.6559C54.0219 33.6177 54.3102 34.5003 54.791 35.1496C55.2717 35.7988 55.96 36.2304 56.7472 36.2304Z" fill="black" stroke="black" stroke-width="0.604592"/>
<path d="M41.6119 35.5156L44.6406 44.105L40.4004 45.332" stroke="black" stroke-width="3.02296" stroke-linecap="round" stroke-linejoin="round"/>
</svg>