<svg width="44" height="44" viewBox="0 0 44 44" fill="none" xmlns="http://www.w3.org/2000/svg">
<path fill-rule="evenodd" clip-rule="evenodd" d="M0.333496 22C0.333496 10.04 10.0185 0.333374 21.9785 0.333374C33.9602 0.333374 43.6668 10.04 43.6668 22C43.6668 33.96 33.9602 43.6667 21.9785 43.6667C10.0185 43.6667 0.333496 33.96 0.333496 22ZM4.66683 22C4.66683 31.5767 12.4235 39.3334 22.0002 39.3334C31.5768 39.3334 39.3335 31.5767 39.3335 22C39.3335 12.4234 31.5768 4.66671 22.0002 4.66671C12.4235 4.66671 4.66683 12.4234 4.66683 22Z" fill="#333C48"/>
<path d="M31.235 26.7505C32.255 27.7513 32.255 29.3737 31.235 30.3745C26.1346 35.3781 17.8654 35.3781 12.7651 30.3745C11.745 29.3737 11.745 27.7513 12.7651 26.7505C13.7851 25.7498 15.439 25.7498 16.459 26.7505C19.5192 29.7527 24.4808 29.7527 27.541 26.7505C28.561 25.7498 30.2149 25.7498 31.235 26.7505Z" fill="#333C48"/>
<path d="M17.125 16.5625C17.125 17.9777 15.9777 19.125 14.5625 19.125C13.1473 19.125 12 17.9777 12 16.5625C12 15.1473 13.1473 14 14.5625 14C15.9777 14 17.125 15.1473 17.125 16.5625Z" fill="#333C48"/>
<path d="M32.125 16.5625C32.125 17.9777 30.9777 19.125 29.5625 19.125C28.1473 19.125 27 17.9777 27 16.5625C27 15.1473 28.1473 14 29.5625 14C30.9777 14 32.125 15.1473 32.125 16.5625Z" fill="#333C48"/>
</svg>
