<svg width="52" height="52" viewBox="0 0 82 82" fill="none" xmlns="http://www.w3.org/2000/svg">
<rect width="82" height="82" fill="white"/>
<path fill-rule="evenodd" clip-rule="evenodd" d="M34.2011 72.812C24.0715 72.3392 17.3632 71.0357 14.0757 68.9012C8.26531 65.1286 7.69095 17.238 14.0757 13.1535C17.6216 10.8852 24.198 9.56169 33.8049 9.18298C37.0917 8.89988 41.7286 9.01461 44.1132 9.07362C44.7288 9.08885 45.1943 9.10037 45.4477 9.10037C45.4849 9.10037 45.522 9.10088 45.5591 9.1021C56.9453 9.4807 64.4003 10.8139 67.9243 13.102C73.7347 16.8746 74.3091 64.7653 67.9243 68.8497C64.0206 71.3468 56.4443 72.6989 45.1952 72.906C45.0495 72.9087 44.8229 72.9149 44.5303 72.9229C42.5629 72.9765 37.6118 73.1115 34.2011 72.812Z" fill="#ECECEC"/>
<path d="M26.1368 56.526C30.0279 54.1043 39.662 51.4536 47.0701 60.2248" stroke="black" stroke-width="3.02886" stroke-linecap="round" stroke-linejoin="round"/>
<path d="M27.6731 36.2309C28.4606 36.2309 29.149 35.7992 29.6299 35.1499C30.1107 34.5006 30.399 33.6178 30.399 32.6559C30.399 31.694 30.1107 30.8113 29.6299 30.1619C29.149 29.5126 28.4606 29.0809 27.6731 29.0809C26.8856 29.0809 26.1971 29.5126 25.7163 30.1619C25.2354 30.8113 24.9471 31.694 24.9471 32.6559C24.9471 33.6178 25.2354 34.5006 25.7163 35.1499C26.1971 35.7992 26.8856 36.2309 27.6731 36.2309Z" fill="black" stroke="black" stroke-width="0.605773"/>
<path d="M56.7473 36.2309C57.5348 36.2309 58.2233 35.7992 58.7041 35.1499C59.1849 34.5006 59.4733 33.6178 59.4733 32.6559C59.4733 31.694 59.1849 30.8113 58.7041 30.1619C58.2233 29.5126 57.5348 29.0809 56.7473 29.0809C55.9598 29.0809 55.2713 29.5126 54.7905 30.1619C54.3096 30.8113 54.0213 31.694 54.0213 32.6559C54.0213 33.6178 54.3096 34.5006 54.7905 35.1499C55.2713 35.7992 55.9598 36.2309 56.7473 36.2309Z" fill="black" stroke="black" stroke-width="0.605773"/>
<path d="M41.6098 35.5156L44.6387 44.105L40.3983 45.332" stroke="black" stroke-width="3.02886" stroke-linecap="round" stroke-linejoin="round"/>
</svg>
