<svg width="44" height="44" viewBox="0 0 44 44" fill="none" xmlns="http://www.w3.org/2000/svg">
<path fill-rule="evenodd" clip-rule="evenodd" d="M0.333496 22C0.333496 10.04 10.0185 0.333374 21.9785 0.333374C33.9602 0.333374 43.6668 10.04 43.6668 22C43.6668 33.96 33.9602 43.6667 21.9785 43.6667C10.0185 43.6667 0.333496 33.96 0.333496 22ZM4.66683 22C4.66683 31.5767 12.4235 39.3334 22.0002 39.3334C31.5768 39.3334 39.3335 31.5767 39.3335 22C39.3335 12.4234 31.5768 4.66671 22.0002 4.66671C12.4235 4.66671 4.66683 12.4234 4.66683 22Z" fill="#333C48"/>
<path d="M17.125 16.5625C17.125 17.9777 15.9777 19.125 14.5625 19.125C13.1473 19.125 12 17.9777 12 16.5625C12 15.1473 13.1473 14 14.5625 14C15.9777 14 17.125 15.1473 17.125 16.5625Z" fill="#333C48"/>
<path d="M32.095 16.5625C32.095 17.9777 30.9477 19.125 29.5325 19.125C28.1173 19.125 26.97 17.9777 26.97 16.5625C26.97 15.1473 28.1173 14 29.5325 14C30.9477 14 32.095 15.1473 32.095 16.5625Z" fill="#333C48"/>
<path d="M12 28.5C12 27.1193 13.1193 26 14.5 26H29.5C30.8807 26 32 27.1193 32 28.5C32 29.8807 30.8807 31 29.5 31H14.5C13.1193 31 12 29.8807 12 28.5Z" fill="#333C48"/>
</svg>
