<svg width="52" height="52" viewBox="0 0 82 82" fill="none" xmlns="http://www.w3.org/2000/svg">
<rect width="82" height="82" fill="white"/>
<path fill-rule="evenodd" clip-rule="evenodd" d="M34.2011 72.812C24.0715 72.3392 17.3632 71.0357 14.0757 68.9012C8.26531 65.1286 7.69095 17.238 14.0757 13.1535C17.6216 10.8852 24.198 9.56169 33.8049 9.18298C37.0917 8.89988 41.7286 9.01461 44.1132 9.07362C44.7288 9.08885 45.1943 9.10037 45.4477 9.10037C45.4849 9.10037 45.522 9.10088 45.5591 9.1021C56.9453 9.4807 64.4003 10.8139 67.9243 13.102C73.7347 16.8746 74.3091 64.7653 67.9243 68.8497C64.0206 71.3468 56.4443 72.6989 45.1952 72.906C45.0495 72.9087 44.8229 72.9149 44.5303 72.9229C42.5629 72.9765 37.6118 73.1115 34.2011 72.812Z" fill="#ECECEC"/>
<path d="M27.6731 35.0015C28.4606 35.0015 29.149 34.5697 29.6299 33.9204C30.1107 33.2711 30.399 32.3883 30.399 31.4264C30.399 30.4646 30.1107 29.5818 29.6299 28.9324C29.149 28.2831 28.4606 27.8514 27.6731 27.8514C26.8856 27.8514 26.1971 28.2831 25.7163 28.9324C25.2354 29.5818 24.9471 30.4646 24.9471 31.4264C24.9471 32.3883 25.2354 33.2711 25.7163 33.9204C26.1971 34.5697 26.8856 35.0015 27.6731 35.0015Z" fill="black" stroke="black" stroke-width="0.605773"/>
<path d="M54.3215 35.0015C55.109 35.0015 55.7975 34.5697 56.2783 33.9204C56.7592 33.2711 57.0475 32.3883 57.0475 31.4264C57.0475 30.4646 56.7592 29.5818 56.2783 28.9324C55.7975 28.2831 55.109 27.8514 54.3215 27.8514C53.534 27.8514 52.8456 28.2831 52.3647 28.9324C51.8839 29.5818 51.5956 30.4646 51.5956 31.4264C51.5956 32.3883 51.8839 33.2711 52.3647 33.9204C52.8456 34.5697 53.534 35.0015 54.3215 35.0015Z" fill="black" stroke="black" stroke-width="0.605773"/>
<path d="M41.8038 35.4765L38.7213 44.2128L43.6432 45.8341" stroke="black" stroke-width="3.02886" stroke-linecap="round" stroke-linejoin="round"/>
<path d="M32.0135 57.8858C37.7585 60.994 50.7594 63.0018 56.8025 46.1678" stroke="black" stroke-width="3.02886" stroke-linecap="round" stroke-linejoin="round"/>
</svg>
