<svg width="52" height="52" viewBox="0 0 82 82" fill="none" xmlns="http://www.w3.org/2000/svg">
<rect width="82" height="82" fill="white"/>
<path fill-rule="evenodd" clip-rule="evenodd" d="M34.304 72.8208C24.1169 72.3521 17.3742 71.0469 14.0756 68.9052C8.26535 65.1326 7.69099 17.2419 14.0756 13.1575C17.6116 10.8955 24.1611 9.57304 33.7241 9.19013C37.0153 8.89796 41.7096 9.01412 44.1139 9.07362C44.7295 9.08885 45.195 9.10037 45.4484 9.10037C45.4856 9.10037 45.5228 9.10088 45.5598 9.1021C56.9457 9.4807 64.4005 10.8139 67.9244 13.102C73.7347 16.8746 74.309 64.7653 67.9244 68.8497C64.0209 71.3468 56.4447 72.6989 45.1959 72.906C45.0502 72.9087 44.8236 72.9149 44.531 72.9229C42.5833 72.976 37.7106 73.1088 34.304 72.8208Z" fill="#FFD61A"/>
<path d="M24.5547 22.3789L33.2159 27.9871" stroke="black" stroke-width="3.02296" stroke-linecap="round"/>
<path d="M54.5078 22.3789L45.8466 27.9871" stroke="black" stroke-width="3.02296" stroke-linecap="round"/>
<path d="M26.4621 37.8163C27.2493 37.8163 27.9376 37.3847 28.4183 36.7355C28.8991 36.0863 29.1874 35.2036 29.1874 34.2419C29.1874 33.2801 28.8991 32.3975 28.4183 31.7482C27.9376 31.099 27.2493 30.6674 26.4621 30.6674C25.6748 30.6674 24.9865 31.099 24.5058 31.7482C24.025 32.3975 23.7368 33.2801 23.7368 34.2419C23.7368 35.2036 24.025 36.0863 24.5058 36.7355C24.9865 37.3847 25.6748 37.8163 26.4621 37.8163Z" fill="black" stroke="black" stroke-width="0.604592"/>
<path d="M51.9074 37.8163C52.6946 37.8163 53.3829 37.3847 53.8637 36.7355C54.3444 36.0863 54.6327 35.2036 54.6327 34.2419C54.6327 33.2801 54.3444 32.3975 53.8637 31.7482C53.3829 31.099 52.6946 30.6674 51.9074 30.6674C51.1201 30.6674 50.4318 31.099 49.9511 31.7482C49.4703 32.3975 49.1821 33.2801 49.1821 34.2419C49.1821 35.2036 49.4703 36.0863 49.9511 36.7355C50.4318 37.3847 51.1201 37.8163 51.9074 37.8163Z" fill="black" stroke="black" stroke-width="0.604592"/>
<path d="M37.3686 35.8789L34.3398 44.4683L38.5801 46.9224" stroke="black" stroke-width="3.02296" stroke-linecap="round" stroke-linejoin="round"/>
<path d="M34.9914 62.8447C38.7936 55.8281 48.2695 40.431 57.9657 52.7002L34.9914 62.8447Z" fill="black" stroke="black" stroke-width="3.02296" stroke-linecap="round" stroke-linejoin="round"/>
</svg>