<svg width="52" height="52" viewBox="0 0 82 82" fill="none" xmlns="http://www.w3.org/2000/svg">
<rect width="82" height="82" fill="white"/>
<path fill-rule="evenodd" clip-rule="evenodd" d="M34.1993 72.8117C24.0707 72.3389 17.3628 71.0354 14.0756 68.901C8.26535 65.1284 7.69099 17.2378 14.0756 13.1533C17.6223 10.8844 24.201 9.56082 33.8116 9.18249C37.098 8.90001 41.7308 9.01465 44.1139 9.07362C44.7295 9.08885 45.195 9.10037 45.4484 9.10037C45.4856 9.10037 45.5228 9.10088 45.5598 9.1021C56.9457 9.4807 64.4005 10.8139 67.9244 13.102C73.7347 16.8746 74.309 64.7653 67.9244 68.8497C64.0209 71.3468 56.4447 72.6989 45.1959 72.906C45.0502 72.9087 44.8236 72.9149 44.531 72.9229C42.5632 72.9765 37.6101 73.1116 34.1993 72.8117Z" fill="#FFD61A"/>
<path d="M27.6769 34.9999C28.4642 34.9999 29.1525 34.5683 29.6332 33.9191C30.114 33.2698 30.4022 32.3872 30.4022 31.4255C30.4022 30.4637 30.114 29.5811 29.6332 28.9318C29.1525 28.2826 28.4642 27.851 27.6769 27.851C26.8897 27.851 26.2014 28.2826 25.7206 28.9318C25.2399 29.5811 24.9516 30.4637 24.9516 31.4255C24.9516 32.3872 25.2399 33.2698 25.7206 33.9191C26.2014 34.5683 26.8897 34.9999 27.6769 34.9999Z" fill="black" stroke="black" stroke-width="0.604592"/>
<path d="M54.3214 34.9999C55.1087 34.9999 55.797 34.5683 56.2777 33.9191C56.7585 33.2698 57.0468 32.3872 57.0468 31.4255C57.0468 30.4637 56.7585 29.5811 56.2777 28.9318C55.797 28.2826 55.1087 27.851 54.3214 27.851C53.5342 27.851 52.8459 28.2826 52.3652 28.9318C51.8844 29.5811 51.5961 30.4637 51.5961 31.4255C51.5961 32.3872 51.8844 33.2698 52.3652 33.9191C52.8459 34.5683 53.5342 34.9999 54.3214 34.9999Z" fill="black" stroke="black" stroke-width="0.604592"/>
<path d="M41.8057 35.4765L38.7233 44.2128L43.645 45.8341" stroke="black" stroke-width="3.02296" stroke-linecap="round" stroke-linejoin="round"/>
<path d="M32.0117 57.8858C37.7566 60.994 50.7571 63.0018 56.8 46.1678" stroke="black" stroke-width="3.02296" stroke-linecap="round" stroke-linejoin="round"/>
</svg>