<svg width="51" height="52" viewBox="0 0 82 82" fill="none" xmlns="http://www.w3.org/2000/svg">
<rect width="82" height="82" fill="white"/>
<path fill-rule="evenodd" clip-rule="evenodd" d="M34.2081 72.8123C24.0746 72.3399 17.3639 71.0362 14.0757 68.9012C8.26532 65.1286 7.69096 17.238 14.0757 13.1536C17.621 10.8856 24.1957 9.56218 33.7998 9.18321C37.0869 8.89952 41.7275 9.01435 44.1134 9.07338C44.729 9.08862 45.1944 9.10013 45.4478 9.10013C45.485 9.10013 45.5222 9.10065 45.5592 9.10187C56.9454 9.48046 64.4003 10.8137 67.9243 13.1018C73.7347 16.8744 74.309 64.765 67.9243 68.8494C64.0207 71.3466 56.4444 72.6987 45.1954 72.9058C45.0496 72.9085 44.8231 72.9146 44.5305 72.9226C42.5644 72.9762 37.6186 73.1111 34.2081 72.8123Z" fill="#FFD61A"/>
<path d="M22.8291 34.293L27.0695 29.3848L31.3098 34.293" stroke="black" stroke-width="3.02296" stroke-linecap="round" stroke-linejoin="round"/>
<path d="M49.4727 34.293L53.713 29.3848L57.9534 34.293" stroke="black" stroke-width="3.02296" stroke-linecap="round" stroke-linejoin="round"/>
<path d="M40.4208 34.3545L43.5033 43.0907L38.5814 44.7121" stroke="black" stroke-width="3.02296" stroke-linecap="round" stroke-linejoin="round"/>
<path d="M26.4584 49.9203L48.7458 55.2013C46.1803 59.6047 39.6243 64.3944 33.9938 63.0602C28.3633 61.7261 26.63 54.9722 26.4584 49.9203Z" fill="black" stroke="black" stroke-width="3.02296" stroke-linecap="round" stroke-linejoin="round"/>
<path fill-rule="evenodd" clip-rule="evenodd" d="M1.93411 39.3375C3.44582 37.2355 6.22141 36.9476 8.13356 38.6945L9.56766 40.0047L10.7014 38.4282C12.2132 36.3262 14.9887 36.0383 16.9009 37.7852C18.813 39.5321 19.1377 42.6522 17.6259 44.7542L11.0178 53.9426L2.65916 46.3064C0.74701 44.5596 0.422396 41.4395 1.93411 39.3375Z" fill="#F62404"/>
<path fill-rule="evenodd" clip-rule="evenodd" d="M60.1004 3.6436C62.1142 1.99226 64.8854 2.43012 66.2901 4.62159L67.3437 6.26519L68.854 5.02669C70.8678 3.37534 73.639 3.8132 75.0437 6.00467C76.4485 8.19615 75.9547 11.3114 73.9409 12.9627L65.138 20.1813L58.9976 10.6016C57.5929 8.41016 58.0866 5.29495 60.1004 3.6436Z" fill="#F62404"/>
<path fill-rule="evenodd" clip-rule="evenodd" d="M66.0176 47.7125C67.8538 46.0963 70.4696 46.4165 71.8603 48.4277L72.9033 49.9361L74.2804 48.724C76.1165 47.1078 78.7324 47.428 80.1231 49.4392C81.5138 51.4504 81.1527 54.391 79.3166 56.0071L71.2903 63.0719L65.2111 54.2804C63.8204 52.2692 64.1815 49.3287 66.0176 47.7125Z" fill="#F62404"/>
</svg>