<svg width="44" height="44" viewBox="0 0 44 44" fill="none" xmlns="http://www.w3.org/2000/svg">
<path d="M21.9785 0.333374C10.0185 0.333374 0.333496 10.04 0.333496 22C0.333496 33.96 10.0185 43.6667 21.9785 43.6667C33.9602 43.6667 43.6668 33.96 43.6668 22C43.6668 10.04 33.9602 0.333374 21.9785 0.333374ZM22.0002 39.3334C12.4235 39.3334 4.66683 31.5767 4.66683 22C4.66683 12.4234 12.4235 4.66671 22.0002 4.66671C31.5768 4.66671 39.3335 12.4234 39.3335 22C39.3335 31.5767 31.5768 39.3334 22.0002 39.3334ZM29.5835 19.8334C31.3818 19.8334 32.8335 18.3817 32.8335 16.5834C32.8335 14.785 31.3818 13.3334 29.5835 13.3334C27.7852 13.3334 26.3335 14.785 26.3335 16.5834C26.3335 18.3817 27.7852 19.8334 29.5835 19.8334ZM14.4168 19.8334C16.2152 19.8334 17.6668 18.3817 17.6668 16.5834C17.6668 14.785 16.2152 13.3334 14.4168 13.3334C12.6185 13.3334 11.1668 14.785 11.1668 16.5834C11.1668 18.3817 12.6185 19.8334 14.4168 19.8334ZM22.0002 33.9167C27.0485 33.9167 31.3385 30.7534 33.0718 26.3334H10.9285C12.6618 30.7534 16.9518 33.9167 22.0002 33.9167Z" fill="#323232"/>
</svg>
