<svg width="42" height="42" viewBox="0 0 42 42" fill="none" xmlns="http://www.w3.org/2000/svg">
<path fill-rule="evenodd" clip-rule="evenodd" d="M0.199707 20.7C0.199707 9.38395 9.36321 0.199951 20.6792 0.199951C32.0157 0.199951 41.1997 9.38395 41.1997 20.7C41.1997 32.016 32.0157 41.2 20.6792 41.2C9.36321 41.2 0.199707 32.016 0.199707 20.7ZM11.465 27.7527C10.445 28.7534 10.445 30.3759 11.465 31.3766C12.4851 32.3773 14.139 32.3773 15.159 31.3766C18.2192 28.3745 23.1808 28.3745 26.241 31.3766C27.261 32.3773 28.9149 32.3773 29.935 31.3766C30.955 30.3759 30.955 28.7534 29.935 27.7527C24.8346 22.7491 16.5654 22.7491 11.465 27.7527ZM15.1952 15C16.0263 15 16.73 15.7138 16.3304 16.4425C16.088 16.8846 15.738 17.2585 15.3128 17.5296C14.8876 17.8007 14.4009 17.9602 13.8978 17.9934C13.3946 18.0267 12.8912 17.9326 12.4341 17.7198C11.9769 17.507 11.5808 17.1824 11.2822 16.776C10.9837 16.3696 10.7924 15.8946 10.7261 15.3947C10.6597 14.8948 10.7205 14.3863 10.9026 13.9161C11.2029 13.1412 12.2022 13.2201 12.7373 13.8559L13.0865 14.2709C13.4755 14.7331 14.0487 15 14.6528 15H15.1952ZM25.0696 16.4425C24.67 15.7138 25.3737 15 26.2048 15H26.7472C27.3513 15 27.9245 14.7331 28.3135 14.2709L28.6627 13.8559C29.1978 13.2201 30.1971 13.1412 30.4974 13.9161C30.6795 14.3863 30.7403 14.8948 30.6739 15.3947C30.6076 15.8946 30.4163 16.3696 30.1178 16.776C29.8192 17.1824 29.4231 17.507 28.9659 17.7198C28.5088 17.9326 28.0054 18.0267 27.5022 17.9934C26.9991 17.9602 26.5124 17.8007 26.0872 17.5296C25.662 17.2585 25.312 16.8846 25.0696 16.4425Z" fill="#333C48"/>
</svg>
