<svg width="44" height="44" viewBox="0 0 44 44" fill="none" xmlns="http://www.w3.org/2000/svg">
<path fill-rule="evenodd" clip-rule="evenodd" d="M0.333496 22C0.333496 10.04 10.0185 0.333374 21.9785 0.333374C33.9602 0.333374 43.6668 10.04 43.6668 22C43.6668 33.96 33.9602 43.6667 21.9785 43.6667C10.0185 43.6667 0.333496 33.96 0.333496 22ZM4.66683 22C4.66683 31.5767 12.4235 39.3334 22.0002 39.3334C31.5768 39.3334 39.3335 31.5767 39.3335 22C39.3335 12.4234 31.5768 4.66671 22.0002 4.66671C12.4235 4.66671 4.66683 12.4234 4.66683 22Z" fill="#333C48"/>
<path d="M12.765 31.3767C11.745 30.3759 11.745 28.7535 12.765 27.7527C17.8654 22.7491 26.1346 22.7491 31.235 27.7527C32.255 28.7535 32.255 30.3759 31.235 31.3767C30.2149 32.3774 28.561 32.3774 27.541 31.3767C24.4808 28.3745 19.5192 28.3745 16.459 31.3767C15.439 32.3774 13.7851 32.3774 12.765 31.3767Z" fill="#333C48"/>
<path d="M16.4952 16C17.3263 16 18.03 16.7138 17.6304 17.4425C17.388 17.8846 17.038 18.2585 16.6128 18.5296C16.1876 18.8007 15.701 18.9602 15.1978 18.9935C14.6946 19.0267 14.1912 18.9326 13.7341 18.7198C13.2769 18.507 12.8808 18.1825 12.5822 17.7761C12.2837 17.3697 12.0924 16.8946 12.0261 16.3947C11.9597 15.8949 12.0205 15.3863 12.2026 14.9161C12.5029 14.1412 13.5022 14.2201 14.0373 14.856L14.3865 15.2709C14.7755 15.7332 15.3487 16 15.9528 16H16.4952Z" fill="#333C48"/>
<path d="M27.5048 16C26.6737 16 25.97 16.7138 26.3696 17.4425C26.612 17.8846 26.962 18.2585 27.3872 18.5296C27.8124 18.8007 28.299 18.9602 28.8022 18.9935C29.3054 19.0267 29.8088 18.9326 30.2659 18.7198C30.7231 18.507 31.1192 18.1825 31.4178 17.7761C31.7163 17.3697 31.9076 16.8946 31.9739 16.3947C32.0403 15.8949 31.9795 15.3863 31.7974 14.9161C31.4971 14.1412 30.4978 14.2201 29.9627 14.856L29.6135 15.2709C29.2245 15.7332 28.6513 16 28.0472 16H27.5048Z" fill="#333C48"/>
</svg>
