<svg width="52" height="52" viewBox="0 0 82 82" fill="none" xmlns="http://www.w3.org/2000/svg">
<rect width="82" height="82" fill="white"/>
<path fill-rule="evenodd" clip-rule="evenodd" d="M34.3298 72.823C24.1284 72.3553 17.3771 71.0498 14.0757 68.9063C8.26531 65.1337 7.69095 17.243 14.0757 13.1586C17.6086 10.8987 24.1496 9.57655 33.6988 9.19229C36.9912 8.89739 41.7028 9.01398 44.1132 9.07362C44.7288 9.08885 45.1943 9.10037 45.4477 9.10037C45.4849 9.10037 45.522 9.10088 45.5591 9.1021C56.9453 9.4807 64.4003 10.8139 67.9243 13.102C73.7347 16.8746 74.3091 64.7653 67.9243 68.8497C64.0206 71.3468 56.4443 72.6989 45.1952 72.906C45.0495 72.9087 44.8229 72.9149 44.5303 72.9229C42.5876 72.9758 37.7352 73.1081 34.3298 72.823Z" fill="#ECECEC"/>
<path d="M24.5557 22.3809L33.2172 27.9891" stroke="black" stroke-width="3.06361" stroke-linecap="round"/>
<path d="M54.5088 22.3809L45.8473 27.9891" stroke="black" stroke-width="3.06361" stroke-linecap="round"/>
<path d="M26.4592 37.8204C27.2481 37.8204 27.9375 37.3879 28.4188 36.7379C28.9001 36.0879 29.1886 35.2044 29.1886 34.2419C29.1886 33.2793 28.9001 32.3958 28.4188 31.7458C27.9375 31.0958 27.2481 30.6634 26.4592 30.6634C25.6704 30.6634 24.9809 31.0958 24.4996 31.7458C24.0183 32.3958 23.7298 33.2793 23.7298 34.2419C23.7298 35.2044 24.0183 36.0879 24.4996 36.7379C24.9809 37.3879 25.6704 37.8204 26.4592 37.8204Z" fill="black" stroke="black" stroke-width="0.612721"/>
<path d="M51.9045 37.8204C52.6934 37.8204 53.3828 37.3879 53.8641 36.7379C54.3455 36.0879 54.634 35.2044 54.634 34.2419C54.634 33.2793 54.3455 32.3958 53.8641 31.7458C53.3828 31.0958 52.6934 30.6634 51.9045 30.6634C51.1157 30.6634 50.4263 31.0958 49.9449 31.7458C49.4636 32.3958 49.1751 33.2793 49.1751 34.2419C49.1751 35.2044 49.4636 36.0879 49.9449 36.7379C50.4263 37.3879 51.1157 37.8204 51.9045 37.8204Z" fill="black" stroke="black" stroke-width="0.612721"/>
<path d="M37.3667 35.8809L34.3379 44.4702L38.5783 46.9243" stroke="black" stroke-width="3.06361" stroke-linecap="round" stroke-linejoin="round"/>
<path d="M34.9914 62.8457C38.7937 55.8292 48.2699 40.4323 57.9664 52.7013L34.9914 62.8457Z" fill="black" stroke="black" stroke-width="3.06361" stroke-linecap="round" stroke-linejoin="round"/>
</svg>