<svg width="51" height="52" viewBox="0 0 82 82" fill="none" xmlns="http://www.w3.org/2000/svg">
<rect width="82" height="82" fill="white"/>
<path fill-rule="evenodd" clip-rule="evenodd" d="M34.2081 72.8126C24.0746 72.3401 17.3639 71.0365 14.0757 68.9015C8.26532 65.1289 7.69096 17.2382 14.0757 13.1538C17.621 10.8859 24.1957 9.56241 33.7998 9.18344C37.0869 8.89975 41.7275 9.01458 44.1134 9.07362C44.729 9.08885 45.1944 9.10037 45.4478 9.10037C45.485 9.10037 45.5222 9.10088 45.5592 9.1021C56.9454 9.4807 64.4003 10.8139 67.9243 13.102C73.7347 16.8746 74.309 64.7653 67.9243 68.8497C64.0207 71.3468 56.4444 72.6989 45.1954 72.906C45.0496 72.9087 44.8231 72.9149 44.5305 72.9229C42.5644 72.9765 37.6186 73.1113 34.2081 72.8126Z" fill="#FFD61A"/>
<path d="M22.8291 34.293L27.0695 29.3848L31.3098 34.293" stroke="black" stroke-width="3.02296" stroke-linecap="round" stroke-linejoin="round"/>
<path d="M49.4727 34.293L53.713 29.3848L57.9534 34.293" stroke="black" stroke-width="3.02296" stroke-linecap="round" stroke-linejoin="round"/>
<path d="M40.4208 34.3545L43.5033 43.0907L38.5814 44.7121" stroke="black" stroke-width="3.02296" stroke-linecap="round" stroke-linejoin="round"/>
<path d="M26.4584 49.9203L48.7458 55.2013C46.1803 59.6047 39.6243 64.3944 33.9938 63.0602C28.3633 61.7261 26.63 54.9722 26.4584 49.9203Z" fill="black" stroke="black" stroke-width="3.02296" stroke-linecap="round" stroke-linejoin="round"/>
<path fill-rule="evenodd" clip-rule="evenodd" d="M1.93411 39.3375C3.44582 37.2355 6.22141 36.9476 8.13356 38.6945L9.56766 40.0047L10.7014 38.4282C12.2132 36.3262 14.9887 36.0383 16.9009 37.7852C18.813 39.5321 19.1377 42.6522 17.6259 44.7542L11.0178 53.9426L2.65916 46.3064C0.74701 44.5596 0.422396 41.4395 1.93411 39.3375Z" fill="#F62404"/>
<path fill-rule="evenodd" clip-rule="evenodd" d="M33.6707 72.8005C22.9899 72.3018 15.9161 70.9282 12.4489 68.6795C6.31839 64.7036 5.71239 14.2313 12.4489 9.92672C16.1916 7.53517 23.1342 6.14015 33.2768 5.74165C36.7439 5.44455 41.6281 5.56527 44.1413 5.62739C44.7908 5.64344 45.2819 5.65558 45.5493 5.65558C45.5885 5.65558 45.6278 5.65613 45.6668 5.65741C57.6803 6.05641 65.5459 7.46154 69.264 9.87294C75.3945 13.8489 76.0005 64.3212 69.264 68.6258C65.1454 71.2575 57.1516 72.6825 45.2829 72.9007C45.1292 72.9036 44.8901 72.9101 44.5814 72.9185C42.5032 72.9751 37.2697 73.1176 33.6707 72.8005Z" fill="#ECECEC"/>
<path d="M21.6797 32.2079L26.1537 27.0352L30.6276 32.2079" stroke="black" stroke-width="2.69232" stroke-linecap="round" stroke-linejoin="round"/>
<path d="M49.7959 32.2079L54.2699 27.0352L58.7438 32.2079" stroke="black" stroke-width="2.69232" stroke-linecap="round" stroke-linejoin="round"/>
<path d="M40.2449 32.2729L43.4972 41.48L38.3042 43.1888" stroke="black" stroke-width="2.69232" stroke-linecap="round" stroke-linejoin="round"/>
<path d="M25.5142 48.6773L49.0295 54.2429C46.3227 58.8837 39.4055 63.9316 33.4648 62.5255C27.5241 61.1194 25.6952 54.0015 25.5142 48.6773Z" fill="black" stroke="black" stroke-width="2.69232" stroke-linecap="round" stroke-linejoin="round"/>
<path fill-rule="evenodd" clip-rule="evenodd" d="M1.93449 39.341C3.446 37.2388 6.22183 36.9513 8.13448 38.6989L9.56896 40.0096L10.7026 38.433C12.2141 36.3307 14.9899 36.0433 16.9026 37.7909C18.8152 39.5385 19.1404 42.6594 17.6289 44.7617L11.0216 53.9511L2.66082 46.3117C0.748167 44.5641 0.422978 41.4432 1.93449 39.341Z" fill="#81868D"/>
<path fill-rule="evenodd" clip-rule="evenodd" d="M60.1023 3.64365C62.1166 1.99219 64.8872 2.43001 66.2905 4.62155L67.3429 6.2652L68.8537 5.02661C70.868 3.37515 73.6386 3.81297 75.0419 6.0045C76.4452 8.19604 75.9498 11.3114 73.9355 12.9629L65.1302 20.1819L58.9959 10.602C57.5926 8.41048 58.0879 5.29511 60.1023 3.64365Z" fill="#81868D"/>
<path fill-rule="evenodd" clip-rule="evenodd" d="M66.0123 47.7089C67.8492 46.0924 70.4653 46.4126 71.8553 48.4243L72.8978 49.933L74.2756 48.7206C76.1125 47.104 78.7286 47.4243 80.1186 49.436C81.5086 51.4476 81.1463 54.3889 79.3093 56.0055L71.2793 63.072L65.203 54.2784C63.813 52.2668 64.1753 49.3255 66.0123 47.7089Z" fill="#81868D"/>
</svg>
