<svg width="42" height="42" viewBox="0 0 42 42" fill="none" xmlns="http://www.w3.org/2000/svg">
<path fill-rule="evenodd" clip-rule="evenodd" d="M21.0002 41.7999C32.4877 41.7999 41.8002 32.4875 41.8002 21C41.8002 9.51243 32.4877 0.199951 21.0002 0.199951C9.51267 0.199951 0.200195 9.51243 0.200195 21C0.200195 32.4875 9.51267 41.7999 21.0002 41.7999ZM13.2002 18.4C14.6361 18.4 15.8002 17.2359 15.8002 15.8C15.8002 14.364 14.6361 13.2 13.2002 13.2C11.7643 13.2 10.6002 14.364 10.6002 15.8C10.6002 17.2359 11.7643 18.4 13.2002 18.4ZM31.4002 15.8C31.4002 17.2359 30.2361 18.4 28.8002 18.4C27.3643 18.4 26.2002 17.2359 26.2002 15.8C26.2002 14.364 27.3643 13.2 28.8002 13.2C30.2361 13.2 31.4002 14.364 31.4002 15.8ZM30.1926 30.1921C31.2079 29.1767 31.2079 27.5305 30.1926 26.5151C29.1772 25.4998 27.531 25.4998 26.5156 26.5151C23.4695 29.5612 18.5309 29.5612 15.4848 26.5151C14.4694 25.4998 12.8232 25.4998 11.8078 26.5151C10.7924 27.5305 10.7924 29.1767 11.8078 30.1921C16.8846 35.2689 25.1158 35.2689 30.1926 30.1921Z" fill="#333C48"/>
</svg>
