<svg width="52" height="52" viewBox="0 0 82 82" fill="none" xmlns="http://www.w3.org/2000/svg">
<rect width="82" height="82" fill="white"/>
<path fill-rule="evenodd" clip-rule="evenodd" d="M34.304 72.8208C24.1169 72.3521 17.3742 71.0469 14.0756 68.9052C8.26535 65.1326 7.69099 17.2419 14.0756 13.1575C17.6116 10.8955 24.1611 9.57304 33.7241 9.19013C37.0153 8.89796 41.7096 9.01412 44.1139 9.07362C44.7295 9.08885 45.195 9.10037 45.4484 9.10037C45.4856 9.10037 45.5228 9.10088 45.5598 9.1021C56.9457 9.4807 64.4005 10.8139 67.9244 13.102C73.7347 16.8746 74.309 64.7653 67.9244 68.8497C64.0209 71.3468 56.4447 72.6989 45.1959 72.906C45.0502 72.9087 44.8236 72.9149 44.531 72.9229C42.5833 72.976 37.7106 73.1088 34.304 72.8208Z" fill="#FFD61A"/>
<path d="M27.374 34.1887C28.0777 34.1887 28.6902 33.8029 29.1161 33.2277C29.5421 32.6525 29.7965 31.8721 29.7965 31.0233C29.7965 30.1745 29.5421 29.3941 29.1161 28.8188C28.6902 28.2437 28.0777 27.8579 27.374 27.8579C26.6704 27.8579 26.0579 28.2437 25.6319 28.8188C25.206 29.3941 24.9516 30.1745 24.9516 31.0233C24.9516 31.8721 25.206 32.6525 25.6319 33.2277C26.0579 33.8029 26.6704 34.1887 27.374 34.1887Z" fill="black" stroke="black" stroke-width="0.604592"/>
<path d="M54.0264 34.1887C54.73 34.1887 55.3426 33.8029 55.7685 33.2277C56.1944 32.6525 56.4488 31.8721 56.4488 31.0233C56.4488 30.1745 56.1944 29.3941 55.7685 28.8188C55.3426 28.2437 54.73 27.8579 54.0264 27.8579C53.3228 27.8579 52.7102 28.2437 52.2843 28.8188C51.8583 29.3941 51.604 30.1745 51.604 31.0233C51.604 31.8721 51.8583 32.6525 52.2843 33.2277C52.7102 33.8029 53.3228 34.1887 54.0264 34.1887Z" fill="black" stroke="black" stroke-width="0.604592"/>
<path d="M40.8297 35.5215L43.4258 44.1108L39.7913 42.8838" stroke="black" stroke-width="3.02296" stroke-linecap="round" stroke-linejoin="round"/>
<path d="M32.2695 56.4756H50.7959" stroke="black" stroke-width="3.02296" stroke-linecap="round"/>
</svg>