<svg width="44" height="44" viewBox="0 0 44 44" fill="none" xmlns="http://www.w3.org/2000/svg">
<path fill-rule="evenodd" clip-rule="evenodd" d="M0.330078 21.995C0.330078 10.0359 10.0143 0.329956 21.9734 0.329956C33.9542 0.329956 43.6601 10.0359 43.6601 21.995C43.6601 33.954 33.9542 43.66 21.9734 43.66C10.0143 43.66 0.330078 33.954 0.330078 21.995ZM4.66308 21.995C4.66308 31.5709 12.4191 39.327 21.9951 39.327C31.571 39.327 39.3271 31.5709 39.3271 21.995C39.3271 12.419 31.571 4.66296 21.9951 4.66296C12.4191 4.66296 4.66308 12.419 4.66308 21.995Z" fill="#333C48"/>
<path d="M31 26C32.1046 26 33.0269 26.9188 32.664 27.962C32.534 28.336 32.3666 28.7034 32.1627 29.0614C31.6099 30.032 30.7996 30.9139 29.7782 31.6568C28.7567 32.3997 27.5441 32.989 26.2095 33.391C24.8749 33.793 23.4445 34 22 34C20.5555 34 19.1251 33.793 17.7905 33.391C16.4559 32.989 15.2433 32.3997 14.2218 31.6568C13.2004 30.9139 12.3901 30.032 11.8373 29.0614C11.6334 28.7034 11.466 28.336 11.336 27.962C10.9731 26.9188 11.8954 26 13 26H31Z" fill="#333C48"/>
<path d="M17.125 16.5625C17.125 17.9777 15.9777 19.125 14.5625 19.125C13.1473 19.125 12 17.9777 12 16.5625C12 15.1472 13.1473 14 14.5625 14C15.9777 14 17.125 15.1472 17.125 16.5625Z" fill="#333C48"/>
<path d="M32.095 16.5625C32.095 17.9777 30.9477 19.125 29.5325 19.125C28.1173 19.125 26.97 17.9777 26.97 16.5625C26.97 15.1472 28.1173 14 29.5325 14C30.9477 14 32.095 15.1472 32.095 16.5625Z" fill="#333C48"/>
</svg>
