<svg width="44" height="44" viewBox="0 0 44 44" fill="none" xmlns="http://www.w3.org/2000/svg">
<path d="M21.9785 0.333374C10.0185 0.333374 0.333496 10.04 0.333496 22C0.333496 33.96 10.0185 43.6667 21.9785 43.6667C33.9602 43.6667 43.6668 33.96 43.6668 22C43.6668 10.04 33.9602 0.333374 21.9785 0.333374ZM14.4168 13.3334C16.2152 13.3334 17.6668 14.785 17.6668 16.5834C17.6668 18.3817 16.2152 19.8334 14.4168 19.8334C12.6185 19.8334 11.1668 18.3817 11.1668 16.5834C11.1668 14.785 12.6185 13.3334 14.4168 13.3334ZM22.0002 35C17.0602 35 12.8568 31.4034 11.1668 26.3334H32.8335C31.1435 31.4034 26.9402 35 22.0002 35ZM29.5835 19.8334C27.7852 19.8334 26.3335 18.3817 26.3335 16.5834C26.3335 14.785 27.7852 13.3334 29.5835 13.3334C31.3818 13.3334 32.8335 14.785 32.8335 16.5834C32.8335 18.3817 31.3818 19.8334 29.5835 19.8334Z" fill="#323232"/>
</svg>
