<svg width="42" height="42" viewBox="0 0 42 42" fill="none" xmlns="http://www.w3.org/2000/svg">
<path fill-rule="evenodd" clip-rule="evenodd" d="M0.199707 20.9999C0.199707 9.51835 9.49731 0.199951 20.9789 0.199951C32.4813 0.199951 41.7997 9.51835 41.7997 20.9999C41.7997 32.4815 32.4813 41.7999 20.9789 41.7999C9.49731 41.7999 0.199707 32.4815 0.199707 20.9999ZM28.4325 18.1249C29.8477 18.1249 30.995 16.9776 30.995 15.5624C30.995 14.1472 29.8477 12.9999 28.4325 12.9999C27.0173 12.9999 25.87 14.1472 25.87 15.5624C25.87 16.9776 27.0173 18.1249 28.4325 18.1249ZM16.1247 15.5624C16.1247 16.9776 14.9774 18.1249 13.5622 18.1249C12.147 18.1249 10.9997 16.9776 10.9997 15.5624C10.9997 14.1472 12.147 12.9999 13.5622 12.9999C14.9774 12.9999 16.1247 14.1472 16.1247 15.5624ZM31.6637 28.962C32.0266 27.9187 31.1043 26.9999 29.9997 26.9999H11.9997C10.8951 26.9999 9.97277 27.9187 10.3357 28.962C10.4658 29.3359 10.6331 29.7034 10.837 30.0614C11.3898 31.032 12.2001 31.9139 13.2215 32.6568C14.243 33.3996 15.4556 33.9889 16.7902 34.391C18.1248 34.793 19.5552 34.9999 20.9997 34.9999C22.4442 34.9999 23.8746 34.793 25.2092 34.391C26.5438 33.9889 27.7564 33.3996 28.7779 32.6568C29.7993 31.9139 30.6096 31.032 31.1624 30.0614C31.3663 29.7034 31.5337 29.3359 31.6637 28.962Z" fill="#333C48"/>
</svg>
