<svg width="42" height="42" viewBox="0 0 42 42" fill="none" xmlns="http://www.w3.org/2000/svg">
<path fill-rule="evenodd" clip-rule="evenodd" d="M0.199707 20.7C0.199707 9.38395 9.36321 0.199951 20.6792 0.199951C32.0157 0.199951 41.1997 9.38395 41.1997 20.7C41.1997 32.016 32.0157 41.2 20.6792 41.2C9.36321 41.2 0.199707 32.016 0.199707 20.7ZM28.4425 18.1249C29.8577 18.1249 31.005 16.9776 31.005 15.5624C31.005 14.1472 29.8577 12.9999 28.4425 12.9999C27.0273 12.9999 25.88 14.1472 25.88 15.5624C25.88 16.9776 27.0273 18.1249 28.4425 18.1249ZM16.1247 15.5624C16.1247 16.9776 14.9774 18.1249 13.5622 18.1249C12.147 18.1249 10.9997 16.9776 10.9997 15.5624C10.9997 14.1472 12.147 12.9999 13.5622 12.9999C14.9774 12.9999 16.1247 14.1472 16.1247 15.5624ZM13.2 25.9999C11.8193 25.9999 10.7 27.1192 10.7 28.4999C10.7 29.8807 11.8193 30.9999 13.2 30.9999H28.2C29.5807 30.9999 30.7 29.8807 30.7 28.4999C30.7 27.1192 29.5807 25.9999 28.2 25.9999H13.2Z" fill="#333C48"/>
</svg>
