<svg width="42" height="42" viewBox="0 0 42 42" fill="none" xmlns="http://www.w3.org/2000/svg">
<path fill-rule="evenodd" clip-rule="evenodd" d="M21.0002 41.7999C32.4877 41.7999 41.8002 32.4875 41.8002 21C41.8002 9.51243 32.4877 0.199951 21.0002 0.199951C9.51267 0.199951 0.200195 9.51243 0.200195 21C0.200195 32.4875 9.51267 41.7999 21.0002 41.7999ZM13.2002 18.4C14.6361 18.4 15.8002 17.2359 15.8002 15.8C15.8002 14.364 14.6361 13.2 13.2002 13.2C11.7643 13.2 10.6002 14.364 10.6002 15.8C10.6002 17.2359 11.7643 18.4 13.2002 18.4ZM31.4002 15.8C31.4002 17.2359 30.2361 18.4 28.8002 18.4C27.3643 18.4 26.2002 17.2359 26.2002 15.8C26.2002 14.364 27.3643 13.2 28.8002 13.2C30.2361 13.2 31.4002 14.364 31.4002 15.8ZM11.8078 31.0839C12.8232 32.0993 14.4694 32.0993 15.4848 31.0839C18.5309 28.0379 23.4695 28.0379 26.5156 31.0839C27.531 32.0993 29.1772 32.0993 30.1926 31.0839C31.2079 30.0686 31.2079 28.4223 30.1926 27.407C25.1158 22.3302 16.8846 22.3302 11.8078 27.407C10.7924 28.4223 10.7924 30.0686 11.8078 31.0839Z" fill="#333C48"/>
</svg>
