<svg width="132" height="19" viewBox="0 0 132 19" fill="none" xmlns="http://www.w3.org/2000/svg">
<path fill-rule="evenodd" clip-rule="evenodd" d="M0 13.6168V5.68485H0.778669C0.95437 5.68485 1.06618 5.76462 1.1141 5.92415L1.21592 6.54867C1.3437 6.4047 1.47947 6.27241 1.62323 6.15178C1.76698 6.03116 1.92171 5.92805 2.08743 5.84244C2.25315 5.75684 2.43085 5.69069 2.62052 5.644C2.8102 5.5973 3.01285 5.57396 3.22848 5.57396C3.5719 5.57396 3.88336 5.64108 4.16289 5.77532C4.44241 5.90956 4.682 6.10509 4.88166 6.3619C5.08132 6.61872 5.23605 6.93681 5.34586 7.31619C5.45568 7.69558 5.51058 8.1304 5.51058 8.62068C5.51058 9.06038 5.44969 9.46991 5.3279 9.84929C5.2061 10.2287 5.0314 10.5575 4.80379 10.8357C4.57618 11.1139 4.30065 11.3318 3.9772 11.4894C3.65375 11.647 3.28838 11.7258 2.88108 11.7258C2.52169 11.7258 2.21621 11.6703 1.96464 11.5594C1.71307 11.4485 1.48746 11.2939 1.2878 11.0954V13.6168H0ZM2.79722 6.58369C2.46578 6.58369 2.18227 6.65276 1.94667 6.7909C1.71107 6.92903 1.49145 7.1265 1.2878 7.38331V10.144C1.46749 10.3697 1.66416 10.5283 1.87779 10.6197C2.09143 10.7112 2.32802 10.7569 2.58758 10.7569C3.09072 10.7569 3.48305 10.5779 3.76457 10.2199C4.04609 9.86194 4.18685 9.32886 4.18685 8.62068C4.18685 8.25492 4.1549 7.94266 4.09101 7.6839C4.02712 7.42514 3.93528 7.21405 3.81548 7.05063C3.69568 6.8872 3.54993 6.76852 3.37823 6.69459C3.20652 6.62066 3.01285 6.58369 2.79722 6.58369ZM9.40393 5.59147C9.85516 5.59147 10.2635 5.66345 10.6288 5.80742C10.9942 5.95139 11.3057 6.15567 11.5632 6.42027C11.8208 6.68486 12.0195 7.00588 12.1592 7.38331C12.299 7.76075 12.3689 8.18488 12.3689 8.6557C12.3689 9.12652 12.299 9.55065 12.1592 9.92809C12.0195 10.3055 11.8208 10.6275 11.5632 10.8941C11.3057 11.1606 10.9942 11.3658 10.6288 11.5098C10.2635 11.6538 9.85516 11.7258 9.40393 11.7258C8.9487 11.7258 8.53841 11.6538 8.17303 11.5098C7.80766 11.3658 7.49519 11.1606 7.23563 10.8941C6.97608 10.6275 6.77642 10.3055 6.63666 9.92809C6.4969 9.55065 6.42702 9.12652 6.42702 8.6557C6.42702 8.18488 6.4969 7.76075 6.63666 7.38331C6.77642 7.00588 6.97608 6.68486 7.23563 6.42027C7.49519 6.15567 7.80766 5.95139 8.17303 5.80742C8.53841 5.66345 8.9487 5.59147 9.40393 5.59147ZM9.40393 10.7452C9.95499 10.7452 10.3653 10.5653 10.6348 10.2053C10.9044 9.8454 11.0391 9.33081 11.0391 8.66154C11.0391 7.99227 10.9044 7.47573 10.6348 7.11191C10.3653 6.74809 9.95499 6.56618 9.40393 6.56618C8.84488 6.56618 8.4296 6.74809 8.15806 7.11191C7.88652 7.47573 7.75075 7.99227 7.75075 8.66154C7.75075 9.33081 7.88652 9.8454 8.15806 10.2053C8.4296 10.5653 8.84488 10.7452 9.40393 10.7452ZM12.9678 5.68485H13.9861C14.0859 5.68485 14.1688 5.70917 14.2347 5.75781C14.3006 5.80645 14.3435 5.86384 14.3635 5.92999L15.3817 9.39695C15.4216 9.55649 15.4566 9.71116 15.4865 9.86097C15.5165 10.0108 15.5434 10.1596 15.5674 10.3075C15.6073 10.1596 15.6483 10.0108 15.6902 9.86097C15.7321 9.71116 15.779 9.55649 15.8309 9.39695L16.975 5.91248C16.995 5.84244 17.0359 5.78505 17.0978 5.7403C17.1597 5.69555 17.2345 5.67318 17.3224 5.67318H17.8854C17.9773 5.67318 18.0551 5.69555 18.119 5.7403C18.1829 5.78505 18.2249 5.84244 18.2448 5.91248L19.3589 9.39695C19.4028 9.55649 19.4468 9.71213 19.4907 9.86388C19.5346 10.0156 19.5745 10.1654 19.6105 10.3133C19.6584 10.0176 19.7263 9.71213 19.8141 9.39695L20.8504 5.92999C20.8743 5.85995 20.9183 5.80159 20.9821 5.75489C21.046 5.7082 21.1239 5.68485 21.2157 5.68485H22.1861L20.2274 11.6382H19.2032C19.0834 11.6382 18.9995 11.5623 18.9516 11.4106L17.7357 7.70433C17.7037 7.59927 17.6748 7.49518 17.6488 7.39207C17.6229 7.28895 17.5999 7.18487 17.58 7.07981C17.536 7.28993 17.4821 7.50005 17.4182 7.71017L16.1843 11.4106C16.1404 11.5623 16.0466 11.6382 15.9028 11.6382H14.9265L12.9678 5.68485ZM25.6781 5.59147C26.0535 5.59147 26.4009 5.6508 26.7203 5.76948C27.0398 5.88816 27.3153 6.06229 27.5469 6.29186C27.7785 6.52144 27.9592 6.80257 28.089 7.13526C28.2188 7.46795 28.2837 7.84635 28.2837 8.27048C28.2837 8.46504 28.2617 8.59539 28.2178 8.66154C28.1739 8.72769 28.094 8.76076 27.9782 8.76076H24.0549C24.0709 9.09929 24.1248 9.39209 24.2166 9.63917C24.3085 9.88626 24.4312 10.0915 24.585 10.2549C24.7387 10.4184 24.9224 10.54 25.136 10.6197C25.3497 10.6995 25.5883 10.7394 25.8518 10.7394C26.1034 10.7394 26.321 10.7112 26.5047 10.6547C26.6884 10.5983 26.8481 10.5361 26.9839 10.468C27.1197 10.3999 27.2355 10.3376 27.3313 10.2812C27.4271 10.2248 27.515 10.1966 27.5948 10.1966C27.6987 10.1966 27.7785 10.2355 27.8344 10.3133L28.1998 10.7744C28.0481 10.9495 27.8764 11.0974 27.6847 11.218C27.493 11.3386 27.2894 11.4369 27.0737 11.5127C26.8581 11.5886 26.6365 11.6431 26.4089 11.6762C26.1813 11.7092 25.9596 11.7258 25.744 11.7258C25.3207 11.7258 24.9284 11.6567 24.567 11.5186C24.2056 11.3804 23.8922 11.1771 23.6266 10.9086C23.3611 10.6402 23.1534 10.3075 23.0037 9.91058C22.8539 9.51368 22.7791 9.05649 22.7791 8.53897C22.7791 8.12651 22.846 7.7413 22.9797 7.38331C23.1135 7.02533 23.3052 6.71405 23.5547 6.44945C23.8043 6.18486 24.1078 5.97571 24.4652 5.82201C24.8226 5.66831 25.2269 5.59147 25.6781 5.59147ZM25.7021 6.50198C25.2349 6.50198 24.8675 6.63233 24.6 6.89304C24.3324 7.15374 24.1627 7.5195 24.0908 7.99032H27.1276C27.1276 7.7802 27.0967 7.58468 27.0348 7.40374C26.9729 7.22281 26.8821 7.06522 26.7623 6.93097C26.6425 6.79673 26.4937 6.69167 26.316 6.6158C26.1383 6.53992 25.9337 6.50198 25.7021 6.50198ZM29.4816 11.6382V5.68485H30.2303C30.3661 5.68485 30.4599 5.70917 30.5119 5.75781C30.5638 5.80645 30.5997 5.89108 30.6197 6.0117L30.6915 6.78798C30.8872 6.41054 31.1208 6.11385 31.3924 5.89789C31.6639 5.68193 31.9893 5.57396 32.3687 5.57396C32.5005 5.57396 32.6242 5.58855 32.74 5.61773C32.8559 5.64691 32.9597 5.69069 33.0515 5.74906L32.9617 6.69459C32.9457 6.76074 32.9207 6.80646 32.8868 6.83175C32.8529 6.85704 32.8079 6.86969 32.752 6.86969C32.6921 6.86969 32.6063 6.85899 32.4945 6.83759C32.3827 6.81619 32.2649 6.80549 32.1411 6.80549C31.9614 6.80549 31.8017 6.83078 31.6619 6.88136C31.5221 6.93195 31.3983 7.00588 31.2905 7.10316C31.1827 7.20043 31.0869 7.31911 31.003 7.45919C30.9192 7.59927 30.8413 7.7588 30.7694 7.93779V11.6382H29.4816ZM36.4597 5.59147C36.8351 5.59147 37.1825 5.6508 37.5019 5.76948C37.8214 5.88816 38.0969 6.06229 38.3285 6.29186C38.5601 6.52144 38.7408 6.80257 38.8706 7.13526C39.0003 7.46795 39.0652 7.84635 39.0652 8.27048C39.0652 8.46504 39.0433 8.59539 38.9994 8.66154C38.9554 8.72769 38.8756 8.76076 38.7598 8.76076H34.8365C34.8524 9.09929 34.9063 9.39209 34.9982 9.63917C35.09 9.88626 35.2128 10.0915 35.3666 10.2549C35.5203 10.4184 35.704 10.54 35.9176 10.6197C36.1313 10.6995 36.3698 10.7394 36.6334 10.7394C36.885 10.7394 37.1026 10.7112 37.2863 10.6547C37.47 10.5983 37.6297 10.5361 37.7655 10.468C37.9012 10.3999 38.017 10.3376 38.1129 10.2812C38.2087 10.2248 38.2966 10.1966 38.3764 10.1966C38.4802 10.1966 38.5601 10.2355 38.616 10.3133L38.9814 10.7744C38.8296 10.9495 38.6579 11.0974 38.4663 11.218C38.2746 11.3386 38.0709 11.4369 37.8553 11.5127C37.6397 11.5886 37.4181 11.6431 37.1904 11.6762C36.9628 11.7092 36.7412 11.7258 36.5256 11.7258C36.1023 11.7258 35.71 11.6567 35.3486 11.5186C34.9872 11.3804 34.6737 11.1771 34.4082 10.9086C34.1427 10.6402 33.935 10.3075 33.7853 9.91058C33.6355 9.51368 33.5606 9.05649 33.5606 8.53897C33.5606 8.12651 33.6275 7.7413 33.7613 7.38331C33.8951 7.02533 34.0867 6.71405 34.3363 6.44945C34.5859 6.18486 34.8894 5.97571 35.2468 5.82201C35.6042 5.66831 36.0085 5.59147 36.4597 5.59147ZM36.4837 6.50198C36.0164 6.50198 35.6491 6.63233 35.3815 6.89304C35.114 7.15374 34.9443 7.5195 34.8724 7.99032H37.9092C37.9092 7.7802 37.8783 7.58468 37.8164 7.40374C37.7545 7.22281 37.6636 7.06522 37.5438 6.93097C37.424 6.79673 37.2753 6.69167 37.0976 6.6158C36.9199 6.53992 36.7153 6.50198 36.4837 6.50198ZM44.6717 11.6382C44.5 11.6382 44.3901 11.5585 44.3422 11.3989L44.2284 10.7569C44.1006 10.9009 43.9649 11.0322 43.8211 11.1509C43.6774 11.2695 43.5226 11.3717 43.3569 11.4573C43.1912 11.5429 43.0145 11.609 42.8268 11.6557C42.6391 11.7024 42.4375 11.7258 42.2218 11.7258C41.8784 11.7258 41.567 11.6587 41.2874 11.5244C41.0079 11.3902 40.7683 11.1946 40.5687 10.9378C40.369 10.681 40.2143 10.3629 40.1045 9.98353C39.9946 9.60415 39.9397 9.16933 39.9397 8.67905C39.9397 8.23546 40.0006 7.82495 40.1224 7.44752C40.2442 7.07008 40.4189 6.74226 40.6465 6.46404C40.8741 6.18583 41.1507 5.96793 41.4761 5.81034C41.8016 5.65275 42.1659 5.57396 42.5693 5.57396C42.9286 5.57396 43.2341 5.6294 43.4857 5.7403C43.7373 5.8512 43.9629 6.00587 44.1625 6.20431V3H45.4503V11.6382H44.6717ZM42.6531 10.716C42.9805 10.716 43.2621 10.6479 43.4977 10.5118C43.7333 10.3756 43.9549 10.1791 44.1625 9.92225V7.14985C43.9788 6.92805 43.7802 6.77144 43.5665 6.68C43.3529 6.58856 43.1203 6.54284 42.8687 6.54284C42.3656 6.54284 41.9723 6.7228 41.6888 7.08273C41.4052 7.44266 41.2635 7.97476 41.2635 8.67905C41.2635 9.04481 41.2954 9.35707 41.3593 9.61583C41.4232 9.87459 41.5151 10.0857 41.6348 10.2491C41.7546 10.4125 41.9004 10.5312 42.0721 10.6051C42.2438 10.6791 42.4375 10.716 42.6531 10.716ZM50.0025 11.6382V3H51.2903V6.4728C51.5419 6.20431 51.8234 5.9903 52.1349 5.83077C52.4464 5.67123 52.8018 5.59147 53.2011 5.59147C53.5565 5.59147 53.8769 5.65859 54.1624 5.79283C54.448 5.92707 54.6905 6.12065 54.8902 6.37358C55.0899 6.6265 55.2436 6.93292 55.3514 7.29285C55.4592 7.65277 55.5131 8.05842 55.5131 8.50978C55.5131 8.99228 55.4522 9.431 55.3304 9.82595C55.2087 10.2209 55.034 10.5594 54.8063 10.8415C54.5787 11.1236 54.3032 11.3415 53.9798 11.4952C53.6563 11.6489 53.2949 11.7258 52.8956 11.7258C52.6999 11.7258 52.5222 11.7073 52.3625 11.6703C52.2028 11.6334 52.055 11.5808 51.9193 11.5127C51.7835 11.4446 51.6587 11.361 51.5449 11.2618C51.4311 11.1625 51.3223 11.0507 51.2185 10.9262L51.1646 11.3872C51.1446 11.4767 51.1087 11.5409 51.0567 11.5799C51.0048 11.6188 50.933 11.6382 50.8411 11.6382H50.0025ZM52.7698 6.58369C52.4544 6.58369 52.1798 6.65276 51.9462 6.7909C51.7126 6.92903 51.494 7.1265 51.2903 7.38331V10.144C51.47 10.3697 51.6667 10.5283 51.8803 10.6197C52.094 10.7112 52.3266 10.7569 52.5781 10.7569C53.0853 10.7569 53.4806 10.5779 53.7641 10.2199C54.0476 9.86194 54.1894 9.30746 54.1894 8.55648C54.1894 7.87164 54.0666 7.37164 53.821 7.05646C53.5754 6.74128 53.225 6.58369 52.7698 6.58369ZM58.8135 13.3308C58.7696 13.4203 58.7167 13.4904 58.6548 13.541C58.5929 13.5915 58.498 13.6168 58.3702 13.6168H57.4179L58.5439 11.2355L56.0522 5.68485H57.1723C57.2801 5.68485 57.363 5.70917 57.4209 5.75781C57.4788 5.80645 57.5217 5.86384 57.5497 5.92999L59.0052 9.3094C59.077 9.50396 59.1369 9.69851 59.1849 9.89307C59.2168 9.7919 59.2497 9.69268 59.2837 9.5954C59.3176 9.49812 59.3546 9.40085 59.3945 9.30357L60.7901 5.92999C60.8181 5.85995 60.865 5.80159 60.9309 5.75489C60.9968 5.7082 61.0696 5.68485 61.1495 5.68485H62.1797L58.8135 13.3308Z" fill="#81868D"/>
<path fill-rule="evenodd" clip-rule="evenodd" d="M120.59 13.5282C120.793 13.5282 120.959 13.3631 120.959 13.1594V0.368832C120.959 0.165131 120.793 0 120.59 0H118.511C118.308 0 118.143 0.165132 118.143 0.368832V13.1594C118.143 13.3631 118.308 13.5282 118.511 13.5282H120.59ZM78.7295 9.278C78.3094 10.4813 76.8463 13.6928 73.1991 13.6928C69.0846 13.6928 67 10.786 67 7.14804C67 3.4552 69.0846 0.566733 73.1991 0.566733C77.1762 0.566733 78.4441 3.93245 78.7704 5.13599C78.83 5.35579 78.6607 5.55756 78.433 5.55756H76.2568C76.0755 5.55756 75.9194 5.42617 75.8672 5.25254C75.673 4.60727 75.0334 3.16269 73.1991 3.16269C71.0779 3.16269 69.9258 4.57036 69.9258 7.14804C69.9258 9.72572 71.0779 11.1151 73.1991 11.1151C74.961 11.1151 75.6542 9.72523 75.874 9.11336C75.9325 8.95034 76.0837 8.82993 76.2569 8.82993H78.3987C78.6377 8.82993 78.8083 9.05243 78.7295 9.278ZM89.2948 8.75681C89.2948 11.6087 87.6307 13.6928 84.5221 13.6928C81.4134 13.6928 79.7493 11.627 79.7493 8.75681C79.7493 5.88662 81.45 3.80254 84.5221 3.80254C87.5942 3.80254 89.2948 5.88662 89.2948 8.75681ZM84.5213 11.2248C83.3692 11.2248 82.6195 10.4935 82.6195 8.7568C82.6195 7.03834 83.3509 6.27052 84.5213 6.27052C85.6916 6.27052 86.423 7.02006 86.423 8.7568C86.423 10.4935 85.6916 11.2248 84.5213 11.2248ZM99.1769 4.33591V9.70745C99.1769 11.7367 97.9335 13.6928 94.8065 13.6928H94.7883L94.695 13.6922C91.6365 13.6537 90.4178 11.7164 90.4178 9.70745V4.33591C90.4178 4.13221 90.5829 3.96708 90.7866 3.96708H92.865C93.0687 3.96708 93.2339 4.13221 93.2339 4.33591V9.28697C93.2339 10.3839 93.691 11.042 94.8065 11.042C95.9037 11.042 96.3608 10.3839 96.3608 9.28697V4.33591C96.3608 4.13221 96.526 3.96708 96.7297 3.96708H98.8081C99.0118 3.96708 99.1769 4.13221 99.1769 4.33591ZM103.328 13.5283C103.532 13.5283 103.697 13.3631 103.697 13.1594V8.22665C103.697 7.07492 104.428 6.36194 105.434 6.36194C106.549 6.36194 107.043 7.02007 107.043 8.11696V13.1594C107.043 13.3631 107.208 13.5283 107.412 13.5283H109.49C109.694 13.5283 109.859 13.3631 109.859 13.1594V7.23945C109.859 5.1188 108.433 3.80254 106.312 3.80254C105.068 3.80254 104.227 4.25958 103.697 4.88115H103.624L103.472 4.24981C103.432 4.08399 103.284 3.96707 103.113 3.96707H101.249C101.046 3.96707 100.881 4.13221 100.881 4.33591V13.1594C100.881 13.3631 101.046 13.5283 101.249 13.5283H103.328ZM115.576 13.6928H114.591C112.378 13.6928 111.391 12.3765 111.391 10.6398V6.36192V2.49251C111.391 2.32519 111.503 2.17884 111.665 2.13598L113.744 1.58526C113.978 1.52325 114.207 1.6997 114.207 1.94179V3.96705H116.124C116.327 3.96705 116.493 4.13219 116.493 4.33589V5.99309C116.493 6.19679 116.327 6.36192 116.124 6.36192H114.207V9.96336C114.207 10.8591 114.591 11.2431 115.432 11.2431H116.045C116.289 11.2431 116.466 11.4748 116.401 11.7096L115.931 13.4216C115.887 13.5818 115.742 13.6928 115.576 13.6928ZM126.657 18.7165C126.604 18.8618 126.466 18.9583 126.311 18.9583H124.156C123.903 18.9583 123.725 18.7089 123.808 18.4695L125.465 13.6535C125.493 13.5726 125.492 13.4844 125.462 13.4042L122.007 4.17614C122.001 4.15879 121.997 4.1404 121.997 4.12187C121.997 4.03638 122.067 3.96708 122.152 3.96708H124.619C124.778 3.96708 124.92 4.06996 124.969 4.22191L126.999 10.4657L129.007 4.22298C129.056 4.07048 129.197 3.96708 129.358 3.96708H131.845C131.93 3.96708 132 4.03659 132 4.12233C132 4.14056 131.997 4.15866 131.99 4.17578L126.657 18.7165Z" fill="#81868D"/>
</svg>
