<?xml version="1.0" encoding="UTF-8"?>
<svg width="133px" height="21px" viewBox="0 0 133 21" version="1.1" xmlns="http://www.w3.org/2000/svg" xmlns:xlink="http://www.w3.org/1999/xlink">
    <!-- Generator: Sketch 49.1 (51147) - http://www.bohemiancoding.com/sketch -->
    <title>Group 11</title>
    <desc>Created with Sketch.</desc>
    <defs></defs>
    <g id="Page-1" stroke="none" stroke-width="1" fill="none" fill-rule="evenodd" opacity="0.4140625">
        <g id="Artboard-Copy-7" transform="translate(-574.000000, -502.000000)" fill="#273B4C">
            <g id="Group" transform="translate(574.000000, 502.000000)">
                <g id="Group-11">
                    <path d="M84.8260444,12.1324619 C83.7707187,14.7497128 80.9630354,15.7655872 79.1510934,15.7655872 C76.2041612,15.7655872 74.7904106,14.4764013 74.7904106,10.960814 C74.7904106,7.42552981 76.5226881,0.804129531 81.7396008,0.804129531 C83.6113896,0.804129531 85.0649068,1.52673797 85.0649068,3.42138047 C85.0649068,4.45656566 84.686533,5.21831056 83.670974,5.21831056 C83.352447,5.21831056 82.9143576,5.14016637 82.5359838,4.71056645 C83.0138399,4.47613389 83.4519293,3.65581303 83.4519293,2.91363636 C83.4519293,2.28861161 83.1334023,1.7221628 82.2372745,1.7221628 C80.0469587,1.7221628 78.0956365,6.85895227 78.0956365,10.8434046 C78.0956365,12.6404635 78.5734926,13.8903842 80.4850481,13.8903842 C82.0381788,13.8903842 83.4519293,13.1483363 84.3678748,11.9374233 L84.8260444,12.1324619 Z" id="Shape" fill-rule="nonzero"></path>
                    <path d="M92.0339146,8.63631412 C92.1135792,8.67545058 92.1931125,8.67545058 92.2528281,8.67545058 C93.1689048,8.67545058 94.4632241,8.08943355 95.3193228,7.50341652 L95.4984696,8.0308576 C94.741722,8.83161022 93.4278474,9.41749851 91.9740678,9.65205981 C91.6554096,13.2654882 89.6641895,15.5311547 87.2147998,15.5311547 C85.3632223,15.5311547 84.0291364,14.6716974 84.0291364,12.4449099 C84.0291364,10.1988116 85.38304,5.5110616 89.4850427,5.5110616 C91.1975024,5.51119033 92.0339146,6.58538324 92.0339146,8.63631412 Z M90.3215861,9.71063577 C89.9031831,9.61292335 89.7837519,9.28090711 89.7837519,8.89018618 C89.7837519,8.34330561 90.0426945,7.99172113 90.4009882,7.8355615 C90.3612215,7.01524064 90.1621258,6.70266389 89.6442405,6.70266389 C88.23049,6.70266389 86.9960176,10.2770846 86.9960176,12.1910378 C86.9960176,13.4802238 87.2548289,13.7731036 88.0114453,13.7731036 C88.9873689,13.7731036 90.0030591,12.01531 90.3215861,9.71063577 Z" id="Shape" fill-rule="nonzero"></path>
                    <path d="M102.188848,5.68704694 L100.755149,12.327758 C100.695433,12.5817588 100.675484,12.7770549 100.675484,12.9527827 C100.675484,13.4996633 100.934427,13.6753912 101.491948,13.6753912 C102.268382,13.6753912 102.806216,12.9330858 103.104794,11.9564765 L103.941206,11.9564765 C102.806216,15.1401763 101.014091,15.5699049 99.9388169,15.5699049 C98.8038267,15.5699049 98.0871082,14.9254407 97.9675458,13.7142702 C96.9719357,15.3159041 95.8568945,15.5699049 95.0204823,15.5699049 C93.8256452,15.5699049 92.889882,14.8666072 92.889882,13.2259655 C92.889882,12.8548128 92.9495976,12.4253417 93.0493424,11.9564765 L94.403246,5.68678946 L97.270645,5.68678946 L95.8369455,12.3275005 C95.7971789,12.5229253 95.7772299,12.6986532 95.7772299,12.8743811 C95.7772299,13.323678 95.9364278,13.6752624 96.3745172,13.6752624 C97.1512138,13.6752624 97.6687053,12.932957 97.967677,11.9563478 L99.3215807,5.68666072 L102.188848,5.68666072 L102.188848,5.68704694 Z" id="Shape" fill-rule="nonzero"></path>
                    <path d="M108.122217,7.38626461 C107.405236,7.38626461 106.867664,8.20658546 106.569086,9.18319469 L105.21492,15.4530105 L102.347521,15.4530105 L104.458173,5.68704694 L107.325571,5.68704694 L107.106658,6.70266389 C107.942808,5.76519113 108.818987,5.60890275 109.436223,5.60890275 C110.710724,5.60890275 111.646619,6.25349574 111.646619,7.816122 C111.646619,9.39818776 110.690775,11.7614379 110.690775,12.855199 C110.690775,13.3435037 110.890002,13.6756486 111.487158,13.6756486 C112.363337,13.6756486 112.721893,12.9726084 113.15972,11.956734 L113.996133,11.956734 C112.881091,15.1601307 111.34791,15.5701624 110.292584,15.5701624 C108.560044,15.5701624 107.942808,14.4764013 107.942808,13.3629432 C107.942808,12.0348782 108.838935,9.63236284 108.838935,8.38231333 C108.838935,7.73784908 108.600073,7.38626461 108.122217,7.38626461 Z" id="Shape" fill-rule="nonzero"></path>
                    <path d="M118.057712,2.60093088 L117.38076,5.68704694 L118.575597,5.68704694 L118.416137,6.46823133 L117.2213,6.46823133 L115.947061,12.327758 C115.887345,12.5817588 115.867396,12.7770549 115.867396,12.9527827 C115.867396,13.4996633 116.126339,13.6753912 116.68386,13.6753912 C117.460556,13.6753912 118.177275,12.9330858 118.475853,11.9564765 L119.312265,11.9564765 C118.177275,15.1401763 116.206004,15.5699049 115.130729,15.5699049 C113.935892,15.5699049 113.000129,14.8666072 113.000129,13.2259655 C113.000129,12.8548128 113.059844,12.4253417 113.159589,11.9564765 L114.354426,6.46810259 L113.697161,6.46810259 L113.856621,5.6869182 L114.513624,5.6869182 L115.110911,2.99139434 L118.057712,2.60093088 Z" id="Shape" fill-rule="nonzero"></path>
                    <path d="M123.553254,1.78061002 L121.263456,12.327758 C121.20374,12.5817588 121.183791,12.7770549 121.183791,12.9527827 C121.183791,13.4996633 121.442734,13.6753912 122.000255,13.6753912 C122.776951,13.6753912 123.49367,12.9330858 123.792248,11.9564765 L124.62866,11.9564765 C123.49367,15.1401763 121.522398,15.5699049 120.447124,15.5699049 C119.252287,15.5699049 118.316524,14.8666072 118.316524,13.2259655 C118.316524,12.8548128 118.376239,12.4253417 118.475984,11.9564765 L120.606322,2.17107348 L123.553254,1.78061002 Z" id="Shape" fill-rule="nonzero"></path>
                    <path d="M128.01355,5.68704694 L126.579851,12.327758 C126.540084,12.4841751 126.520135,12.659903 126.520135,12.8160626 C126.520135,13.2653595 126.659515,13.6755199 127.117422,13.6755199 C127.894119,13.6755199 128.41161,12.9332145 128.710582,11.9566053 L130.064486,5.6869182 L132.951571,5.6869182 L130.522262,17.0153793 C129.924975,19.8083581 128.212646,20.3359279 126.898509,20.3359279 C125.683723,20.3359279 124.548995,19.4961676 124.548995,18.2262923 C124.548995,16.4099228 126.102126,15.8433452 127.993601,15.2964646 L128.192828,14.4372648 C127.33673,15.3943058 126.440471,15.5700337 125.763519,15.5700337 C124.568682,15.5700337 123.632919,14.866736 123.632919,13.2260943 C123.632919,12.8549416 123.692634,12.4254704 123.792379,11.9566053 L125.146283,5.6869182 L128.01355,5.6869182 L128.01355,5.68704694 Z M126.440471,18.5975738 C126.838793,18.5975738 127.356416,18.2264211 127.615227,17.074084 L127.85409,15.9217469 C126.5998,16.3319073 125.643956,16.8983561 125.643956,17.9531095 C125.643956,18.2264211 126.002381,18.5975738 126.440471,18.5975738 Z" id="Shape" fill-rule="nonzero"></path>
                    <path d="M0.726,16.034 L0.726,7.88 L1.506,7.88 C1.68200088,7.88 1.79399976,7.96199918 1.842,8.126 L1.944,8.768 C2.07200064,8.61999926 2.20799928,8.48400062 2.352,8.36 C2.49600072,8.23599938 2.65099917,8.13000044 2.817,8.042 C2.98300083,7.95399956 3.16099905,7.88600024 3.351,7.838 C3.54100095,7.78999976 3.74399892,7.766 3.96,7.766 C4.30400172,7.766 4.6159986,7.83499931 4.896,7.973 C5.1760014,8.11100069 5.415999,8.31199868 5.616,8.576 C5.816001,8.84000132 5.97099945,9.16699805 6.081,9.557 C6.19100055,9.94700195 6.246,10.3939975 6.246,10.898 C6.246,11.3500023 6.18500061,11.770998 6.063,12.161 C5.94099939,12.5510019 5.76600114,12.8889986 5.538,13.175 C5.30999886,13.4610014 5.03400162,13.6849992 4.71,13.847 C4.38599838,14.0090008 4.02000204,14.09 3.612,14.09 C3.2519982,14.09 2.94600126,14.0330006 2.694,13.919 C2.44199874,13.8049994 2.216001,13.646001 2.016,13.442 L2.016,16.034 L0.726,16.034 Z M3.528,8.804 C3.19599834,8.804 2.91200118,8.87499929 2.676,9.017 C2.43999882,9.15900071 2.22000102,9.36199868 2.016,9.626 L2.016,12.464 C2.1960009,12.6960012 2.39299893,12.8589995 2.607,12.953 C2.82100107,13.0470005 3.0579987,13.094 3.318,13.094 C3.82200252,13.094 4.21499859,12.9100018 4.497,12.542 C4.77900141,12.1739982 4.92,11.6260036 4.92,10.898 C4.92,10.5219981 4.88800032,10.2010013 4.824,9.935 C4.75999968,9.66899867 4.6680006,9.45200084 4.548,9.284 C4.4279994,9.11599916 4.28200086,8.99400038 4.11,8.918 C3.93799914,8.84199962 3.74400108,8.804 3.528,8.804 Z M10.146,7.784 C10.5980023,7.784 11.0069982,7.85799926 11.373,8.006 C11.7390018,8.15400074 12.0509987,8.36399864 12.309,8.636 C12.5670013,8.90800136 12.7659993,9.23799806 12.906,9.626 C13.0460007,10.0140019 13.116,10.4499976 13.116,10.934 C13.116,11.4180024 13.0460007,11.8539981 12.906,12.242 C12.7659993,12.6300019 12.5670013,12.9609986 12.309,13.235 C12.0509987,13.5090014 11.7390018,13.7199993 11.373,13.868 C11.0069982,14.0160007 10.5980023,14.09 10.146,14.09 C9.68999772,14.09 9.27900183,14.0160007 8.913,13.868 C8.54699817,13.7199993 8.2340013,13.5090014 7.974,13.235 C7.7139987,12.9609986 7.5140007,12.6300019 7.374,12.242 C7.2339993,11.8539981 7.164,11.4180024 7.164,10.934 C7.164,10.4499976 7.2339993,10.0140019 7.374,9.626 C7.5140007,9.23799806 7.7139987,8.90800136 7.974,8.636 C8.2340013,8.36399864 8.54699817,8.15400074 8.913,8.006 C9.27900183,7.85799926 9.68999772,7.784 10.146,7.784 Z M10.146,13.082 C10.6980028,13.082 11.1089986,12.8970018 11.379,12.527 C11.6490014,12.1569981 11.784,11.6280034 11.784,10.94 C11.784,10.2519966 11.6490014,9.72100187 11.379,9.347 C11.1089986,8.97299813 10.6980028,8.786 10.146,8.786 C9.5859972,8.786 9.17000136,8.97299813 8.898,9.347 C8.62599864,9.72100187 8.49,10.2519966 8.49,10.94 C8.49,11.6280034 8.62599864,12.1569981 8.898,12.527 C9.17000136,12.8970018 9.5859972,13.082 10.146,13.082 Z M13.716,7.88 L14.736,7.88 C14.8360005,7.88 14.9189997,7.90499975 14.985,7.955 C15.0510003,8.00500025 15.0939999,8.06399966 15.114,8.132 L16.134,11.696 C16.1740002,11.8600008 16.2089999,12.0189992 16.239,12.173 C16.2690002,12.3270008 16.2959999,12.4799992 16.32,12.632 C16.3600002,12.4799992 16.4009998,12.3270008 16.443,12.173 C16.4850002,12.0189992 16.5319997,11.8600008 16.584,11.696 L17.73,8.114 C17.7500001,8.04199964 17.7909997,7.98300023 17.853,7.937 C17.9150003,7.89099977 17.9899996,7.868 18.078,7.868 L18.642,7.868 C18.7340005,7.868 18.8119997,7.89099977 18.876,7.937 C18.9400003,7.98300023 18.9819999,8.04199964 19.002,8.114 L20.118,11.696 C20.1620002,11.8600008 20.2059998,12.0199992 20.25,12.176 C20.2940002,12.3320008 20.3339998,12.4859992 20.37,12.638 C20.4180002,12.3339985 20.4859996,12.0200016 20.574,11.696 L21.612,8.132 C21.6360001,8.05999964 21.6799997,8.00000024 21.744,7.952 C21.8080003,7.90399976 21.8859995,7.88 21.978,7.88 L22.95,7.88 L20.988,14 L19.962,14 C19.8419994,14 19.7580002,13.9220008 19.71,13.766 L18.492,9.956 C18.4599998,9.84799946 18.4310001,9.74100053 18.405,9.635 C18.3789999,9.52899947 18.3560001,9.42200054 18.336,9.314 C18.2919998,9.53000108 18.2380003,9.74599892 18.174,9.962 L16.938,13.766 C16.8939998,13.9220008 16.8000007,14 16.656,14 L15.678,14 L13.716,7.88 Z M26.448,7.784 C26.8240019,7.784 27.1719984,7.84499939 27.492,7.967 C27.8120016,8.08900061 28.0879988,8.26799882 28.32,8.504 C28.5520012,8.74000118 28.7329994,9.02899829 28.863,9.371 C28.9930007,9.71300171 29.058,10.1019978 29.058,10.538 C29.058,10.738001 29.0360002,10.8719997 28.992,10.94 C28.9479998,11.0080003 28.8680006,11.042 28.752,11.042 L24.822,11.042 C24.8380001,11.3900017 24.8919995,11.6909987 24.984,11.945 C25.0760005,12.1990013 25.1989992,12.4099992 25.353,12.578 C25.5070008,12.7460008 25.6909989,12.8709996 25.905,12.953 C26.1190011,13.0350004 26.3579987,13.076 26.622,13.076 C26.8740013,13.076 27.0919991,13.0470003 27.276,12.989 C27.4600009,12.9309997 27.6199993,12.8670003 27.756,12.797 C27.8920007,12.7269996 28.0079995,12.6630003 28.104,12.605 C28.2000005,12.5469997 28.2879996,12.518 28.368,12.518 C28.4720005,12.518 28.5519997,12.5579996 28.608,12.638 L28.974,13.112 C28.8219992,13.2920009 28.650001,13.4439994 28.458,13.568 C28.265999,13.6920006 28.0620011,13.7929996 27.846,13.871 C27.6299989,13.9490004 27.4080011,14.0049998 27.18,14.039 C26.9519989,14.0730002 26.7300011,14.09 26.514,14.09 C26.0899979,14.09 25.6970018,14.0190007 25.335,13.877 C24.9729982,13.7349993 24.6590013,13.5260014 24.393,13.25 C24.1269987,12.9739986 23.9190008,12.632002 23.769,12.224 C23.6189993,11.815998 23.544,11.3460027 23.544,10.814 C23.544,10.3899979 23.6109993,9.99400184 23.745,9.626 C23.8790007,9.25799816 24.0709988,8.93800136 24.321,8.666 C24.5710013,8.39399864 24.8749982,8.17900079 25.233,8.021 C25.5910018,7.86299921 25.9959977,7.784 26.448,7.784 Z M26.472,8.72 C26.0039977,8.72 25.6360013,8.85399866 25.368,9.122 C25.0999987,9.39000134 24.9300004,9.76599758 24.858,10.25 L27.9,10.25 C27.9,10.0339989 27.8690003,9.83300093 27.807,9.647 C27.7449997,9.46099907 27.6540006,9.29900069 27.534,9.161 C27.4139994,9.02299931 27.2650009,8.91500039 27.087,8.837 C26.9089991,8.75899961 26.7040012,8.72 26.472,8.72 Z M30.258,14 L30.258,7.88 L31.008,7.88 C31.1440007,7.88 31.2379997,7.90499975 31.29,7.955 C31.3420003,8.00500025 31.3779999,8.09199938 31.398,8.216 L31.47,9.014 C31.666001,8.62599806 31.8999986,8.32100111 32.172,8.099 C32.4440014,7.87699889 32.7699981,7.766 33.15,7.766 C33.2820007,7.766 33.4059994,7.78099985 33.522,7.811 C33.6380006,7.84100015 33.7419995,7.8859997 33.834,7.946 L33.744,8.918 C33.7279999,8.98600034 33.7030002,9.03299987 33.669,9.059 C33.6349998,9.08500013 33.5900003,9.098 33.534,9.098 C33.4739997,9.098 33.3880006,9.08700011 33.276,9.065 C33.1639994,9.04299989 33.0460006,9.032 32.922,9.032 C32.7419991,9.032 32.5820007,9.05799974 32.442,9.11 C32.3019993,9.16200026 32.1780005,9.2379995 32.07,9.338 C31.9619995,9.4380005 31.8660004,9.55999928 31.782,9.704 C31.6979996,9.84800072 31.6200004,10.0119991 31.548,10.196 L31.548,14 L30.258,14 Z M37.248,7.784 C37.6240019,7.784 37.9719984,7.84499939 38.292,7.967 C38.6120016,8.08900061 38.8879988,8.26799882 39.12,8.504 C39.3520012,8.74000118 39.5329994,9.02899829 39.663,9.371 C39.7930007,9.71300171 39.858,10.1019978 39.858,10.538 C39.858,10.738001 39.8360002,10.8719997 39.792,10.94 C39.7479998,11.0080003 39.6680006,11.042 39.552,11.042 L35.622,11.042 C35.6380001,11.3900017 35.6919995,11.6909987 35.784,11.945 C35.8760005,12.1990013 35.9989992,12.4099992 36.153,12.578 C36.3070008,12.7460008 36.4909989,12.8709996 36.705,12.953 C36.9190011,13.0350004 37.1579987,13.076 37.422,13.076 C37.6740013,13.076 37.8919991,13.0470003 38.076,12.989 C38.2600009,12.9309997 38.4199993,12.8670003 38.556,12.797 C38.6920007,12.7269996 38.8079995,12.6630003 38.904,12.605 C39.0000005,12.5469997 39.0879996,12.518 39.168,12.518 C39.2720005,12.518 39.3519997,12.5579996 39.408,12.638 L39.774,13.112 C39.6219992,13.2920009 39.450001,13.4439994 39.258,13.568 C39.065999,13.6920006 38.8620011,13.7929996 38.646,13.871 C38.4299989,13.9490004 38.2080011,14.0049998 37.98,14.039 C37.7519989,14.0730002 37.5300011,14.09 37.314,14.09 C36.8899979,14.09 36.4970018,14.0190007 36.135,13.877 C35.7729982,13.7349993 35.4590013,13.5260014 35.193,13.25 C34.9269987,12.9739986 34.7190007,12.632002 34.569,12.224 C34.4189993,11.815998 34.344,11.3460027 34.344,10.814 C34.344,10.3899979 34.4109993,9.99400184 34.545,9.626 C34.6790007,9.25799816 34.8709988,8.93800136 35.121,8.666 C35.3710012,8.39399864 35.6749982,8.17900079 36.033,8.021 C36.3910018,7.86299921 36.7959977,7.784 37.248,7.784 Z M37.272,8.72 C36.8039977,8.72 36.4360013,8.85399866 36.168,9.122 C35.8999987,9.39000134 35.7300004,9.76599758 35.658,10.25 L38.7,10.25 C38.7,10.0339989 38.6690003,9.83300093 38.607,9.647 C38.5449997,9.46099907 38.4540006,9.29900069 38.334,9.161 C38.2139994,9.02299931 38.0650009,8.91500039 37.887,8.837 C37.7089991,8.75899961 37.5040012,8.72 37.272,8.72 Z M45.474,14 C45.3019991,14 45.1920002,13.9180008 45.144,13.754 L45.03,13.094 C44.9019994,13.2420007 44.7660007,13.3769994 44.622,13.499 C44.4779993,13.6210006 44.3230008,13.7259996 44.157,13.814 C43.9909992,13.9020004 43.8140009,13.9699998 43.626,14.018 C43.4379991,14.0660002 43.2360011,14.09 43.02,14.09 C42.6759983,14.09 42.3640014,14.0210007 42.084,13.883 C41.8039986,13.7449993 41.564001,13.5440013 41.364,13.28 C41.163999,13.0159987 41.0090005,12.6890019 40.899,12.299 C40.7889995,11.908998 40.734,11.4620025 40.734,10.958 C40.734,10.5019977 40.7949994,10.0800019 40.917,9.692 C41.0390006,9.30399806 41.2139989,8.96700143 41.442,8.681 C41.6700011,8.39499857 41.9469984,8.17100081 42.273,8.009 C42.5990016,7.84699919 42.963998,7.766 43.368,7.766 C43.7280018,7.766 44.0339987,7.82299943 44.286,7.937 C44.5380013,8.05100057 44.763999,8.20999898 44.964,8.414 L44.964,5.12 L46.254,5.12 L46.254,14 L45.474,14 Z M43.452,13.052 C43.7800016,13.052 44.0619988,12.9820007 44.298,12.842 C44.5340012,12.7019993 44.755999,12.5000013 44.964,12.236 L44.964,9.386 C44.7799991,9.15799886 44.5810011,8.99700047 44.367,8.903 C44.1529989,8.80899953 43.9200013,8.762 43.668,8.762 C43.1639975,8.762 42.7700014,8.94699815 42.486,9.317 C42.2019986,9.68700185 42.06,10.2339964 42.06,10.958 C42.06,11.3340019 42.0919997,11.6549987 42.156,11.921 C42.2200003,12.1870013 42.3119994,12.4039992 42.432,12.572 C42.5520006,12.7400008 42.6979991,12.8619996 42.87,12.938 C43.0420009,13.0140004 43.2359989,13.052 43.452,13.052 Z M50.814,14 L50.814,5.12 L52.104,5.12 L52.104,8.69 C52.3560013,8.41399862 52.6379984,8.19400082 52.95,8.03 C53.2620016,7.86599918 53.617998,7.784 54.018,7.784 C54.3740018,7.784 54.6949986,7.85299931 54.981,7.991 C55.2670014,8.12900069 55.509999,8.3279987 55.71,8.588 C55.910001,8.8480013 56.0639995,9.16299815 56.172,9.533 C56.2800005,9.90300185 56.334,10.3199977 56.334,10.784 C56.334,11.2800025 56.2730006,11.730998 56.151,12.137 C56.0289994,12.543002 55.8540011,12.8909985 55.626,13.181 C55.3979989,13.4710014 55.1220016,13.6949992 54.798,13.853 C54.4739984,14.0110008 54.112002,14.09 53.712,14.09 C53.515999,14.09 53.3380008,14.0710002 53.178,14.033 C53.0179992,13.9949998 52.8700007,13.9410003 52.734,13.871 C52.5979993,13.8009996 52.4730006,13.7150005 52.359,13.613 C52.2449994,13.5109995 52.1360005,13.3960006 52.032,13.268 L51.978,13.742 C51.9579999,13.8340005 51.9220003,13.8999998 51.87,13.94 C51.8179997,13.9800002 51.7460005,14 51.654,14 L50.814,14 Z M53.586,8.804 C53.2699984,8.804 52.9950012,8.87499929 52.761,9.017 C52.5269988,9.15900071 52.308001,9.36199868 52.104,9.626 L52.104,12.464 C52.2840009,12.6960012 52.4809989,12.8589995 52.695,12.953 C52.9090011,13.0470005 53.1419987,13.094 53.394,13.094 C53.9020025,13.094 54.2979986,12.9100018 54.582,12.542 C54.8660014,12.1739982 55.008,11.6040039 55.008,10.832 C55.008,10.1279965 54.8850012,9.61400162 54.639,9.29 C54.3929988,8.96599838 54.0420023,8.804 53.586,8.804 Z M59.64,15.74 C59.5959998,15.8320005 59.5430003,15.9039997 59.481,15.956 C59.4189997,16.0080003 59.3240006,16.034 59.196,16.034 L58.242,16.034 L59.37,13.586 L56.874,7.88 L57.996,7.88 C58.1040005,7.88 58.1869997,7.90499975 58.245,7.955 C58.3030003,8.00500025 58.3459999,8.06399966 58.374,8.132 L59.832,11.606 C59.9040004,11.806001 59.9639998,12.005999 60.012,12.206 C60.0440002,12.1019995 60.0769998,12.0000005 60.111,11.9 C60.1450002,11.7999995 60.1819998,11.7000005 60.222,11.6 L61.62,8.132 C61.6480001,8.05999964 61.6949997,8.00000024 61.761,7.952 C61.8270003,7.90399976 61.8999996,7.88 61.98,7.88 L63.012,7.88 L59.64,15.74 Z" id="powered-by"></path>
                </g>
            </g>
        </g>
    </g>
</svg>