<svg width="42" height="39" viewBox="0 0 42 39" fill="none" xmlns="http://www.w3.org/2000/svg">
<path fill-rule="evenodd" clip-rule="evenodd" d="M17.2784 2.71537C18.4503 -0.89097 23.5523 -0.890958 24.7242 2.71537L27.697 11.8635L37.3161 11.8639C41.1081 11.864 42.6846 16.7163 39.617 18.9453L31.8352 24.5995L34.8073 33.7479C35.979 37.3543 31.8513 40.3532 28.7835 38.1244L21.0013 32.4708L13.2191 38.1244C10.1513 40.3532 6.02368 37.3543 7.19532 33.7479L10.1674 24.5995L2.38567 18.9453C-0.682019 16.7163 0.894594 11.864 4.68656 11.8639L14.3056 11.8635L17.2784 2.71537ZM21.0013 3.92518L18.0285 13.0733C17.5044 14.6861 16.0015 15.778 14.3057 15.7781L4.68671 15.7784L12.4685 21.4327C13.8403 22.4295 14.4144 24.1962 13.8904 25.809L10.9183 34.9574L18.7005 29.3038C20.0725 28.3071 21.9302 28.3071 23.3021 29.3038L31.0843 34.9574L28.1122 25.809C27.5882 24.1962 28.1623 22.4295 29.5342 21.4327L37.3159 15.7784L27.6969 15.7781C26.0011 15.778 24.4982 14.6861 23.9741 13.0733L21.0013 3.92518Z" fill="#333C48"/>
</svg>
