<svg width="40" height="38" viewBox="0 0 40 38" fill="none" xmlns="http://www.w3.org/2000/svg">
<path d="M17.5272 2.21037C18.3055 -0.185034 21.6943 -0.185033 22.4727 2.21037L25.2535 10.769C25.6016 11.8403 26.5999 12.5656 27.7263 12.5656H36.7254C39.2441 12.5656 40.2913 15.7886 38.2536 17.269L30.9732 22.5586C30.0619 23.2207 29.6806 24.3942 30.0287 25.4655L32.8096 34.0242C33.5879 36.4196 30.8463 38.4115 28.8086 36.931L21.5282 31.6415C20.6169 30.9794 19.3829 30.9794 18.4717 31.6415L11.1912 36.931C9.15357 38.4115 6.41192 36.4196 7.19024 34.0242L9.97112 25.4655C10.3192 24.3942 9.93788 23.2207 9.02662 22.5586L1.74618 17.269C-0.29148 15.7886 0.755737 12.5656 3.27442 12.5656H12.2735C13.3999 12.5656 14.3982 11.8403 14.7463 10.769L17.5272 2.21037Z" fill="#333C48"/>
</svg>
