<svg width="52" height="52" viewBox="0 0 82 82" fill="none" xmlns="http://www.w3.org/2000/svg">
<path d="M34.5193 8.02786C35.2732 5.58799 38.7268 5.588 39.4807 8.02786L45.169 26.4356C45.5052 27.5235 46.5111 28.2655 47.6498 28.2655H66.324C68.8076 28.2655 69.8739 31.4176 67.9002 32.9253L52.572 44.635C51.7073 45.2956 51.3462 46.4253 51.6675 47.4649L57.4689 66.2386C58.2152 68.6539 55.4208 70.6032 53.4119 69.0685L38.5762 57.7351C37.6456 57.0242 36.3544 57.0242 35.4238 57.7351L20.5881 69.0685C18.5792 70.6032 15.7848 68.6539 16.5311 66.2386L22.3325 47.4649C22.6538 46.4253 22.2927 45.2956 21.428 44.635L6.09976 32.9253C4.12613 31.4176 5.19236 28.2655 7.67599 28.2655H26.3502C27.4889 28.2655 28.4948 27.5235 28.831 26.4356L34.5193 8.02786Z" fill="#ECECEC"/>
</svg>