<svg width="43" height="44" viewBox="0 0 43 44" fill="none" xmlns="http://www.w3.org/2000/svg">
<path d="M32.9477 39.1046L31.1588 38.2102L32.9477 39.1046ZM40.531 23.9379L42.3199 24.8324L40.531 23.9379ZM19.3158 41.3706L19.8009 39.4303L19.8009 39.4303L19.3158 41.3706ZM11.1667 19.8333L9.50257 18.7239C9.28354 19.0525 9.16667 19.4385 9.16667 19.8333H11.1667ZM22 15.6667C20.8954 15.6667 20 16.5621 20 17.6667C20 18.7712 20.8954 19.6667 22 19.6667V15.6667ZM12.25 19.6667C13.3546 19.6667 14.25 18.7712 14.25 17.6667C14.25 16.5621 13.3546 15.6667 12.25 15.6667V19.6667ZM18.5167 8.80823L20.1808 9.91763L18.5167 8.80823ZM36.6552 15.6667H26.3333V19.6667H36.6552V15.6667ZM34.7366 39.999L42.3199 24.8324L38.7422 23.0435L31.1588 38.2102L34.7366 39.999ZM10.6816 41.2736L18.8307 43.3109L19.8009 39.4303L11.6517 37.3931L10.6816 41.2736ZM20.3668 43.5H29.0719V39.5H20.3668V43.5ZM28.3333 17.6667V6.83333H24.3333V17.6667H28.3333ZM22 0.5H21.7931V4.5H22V0.5ZM9.16667 19.8333V39.3333H13.1667V19.8333H9.16667ZM18.8307 43.3109C19.3331 43.4365 19.849 43.5 20.3668 43.5V39.5C20.176 39.5 19.986 39.4766 19.8009 39.4303L18.8307 43.3109ZM31.1588 38.2102C30.7636 39.0007 29.9557 39.5 29.0719 39.5V43.5C31.4707 43.5 33.6637 42.1446 34.7366 39.999L31.1588 38.2102ZM28.3333 6.83333C28.3333 3.33553 25.4978 0.5 22 0.5V4.5C23.2887 4.5 24.3333 5.54467 24.3333 6.83333H28.3333ZM36.6552 19.6667C38.3897 19.6667 39.5179 21.4921 38.7422 23.0435L42.3199 24.8324C44.4254 20.6213 41.3633 15.6667 36.6552 15.6667V19.6667ZM26.3333 15.6667H22V19.6667H26.3333V15.6667ZM12.25 15.6667H6.83333V19.6667H12.25V15.6667ZM0.5 22V35H4.5V22H0.5ZM6.83333 41.3333H11.1667V37.3333H6.83333V41.3333ZM0.5 35C0.5 38.4978 3.33553 41.3333 6.83333 41.3333V37.3333C5.54467 37.3333 4.5 36.2887 4.5 35H0.5ZM6.83333 15.6667C3.33553 15.6667 0.5 18.5022 0.5 22H4.5C4.5 20.7113 5.54467 19.6667 6.83333 19.6667V15.6667ZM16.8526 7.69883L9.50257 18.7239L12.8308 20.9427L20.1808 9.91763L16.8526 7.69883ZM17.8333 4.45981C17.8333 5.61262 17.4921 6.73963 16.8526 7.69883L20.1808 9.91763C21.2584 8.30136 21.8333 6.40232 21.8333 4.45981H17.8333ZM21.7931 0.5C19.6062 0.5 17.8333 2.27287 17.8333 4.45981H21.8333C21.8333 4.45976 21.8333 4.46035 21.8332 4.4615C21.8331 4.46264 21.8329 4.46409 21.8325 4.46579C21.8318 4.46928 21.8307 4.47281 21.8294 4.47607C21.8267 4.48232 21.8237 4.48604 21.8216 4.48823C21.8194 4.49041 21.8157 4.49337 21.8094 4.49602C21.8061 4.4974 21.8026 4.4985 21.7991 4.49921C21.7974 4.49956 21.796 4.49977 21.7948 4.49988C21.7937 4.5 21.7931 4.5 21.7931 4.5V0.5Z" fill="#333C48"/>
</svg>
