<svg width="45" height="43" viewBox="0 0 64 64" fill="none" xmlns="http://www.w3.org/2000/svg">
<path d="M15.6523 33.6767V55.6228C15.6523 58.6842 17.4205 60.8231 20.2196 62.1922L20.4255 62.2929C22.72 63.4152 25.2501 63.9994 27.8155 63.9994H50.1901C54.1285 63.9994 49.4177 61.8393 50.1901 58.0613L48.4279 34.9379C49.4504 29.9365 60.3613 25.0719 55.1474 25.0719H40.439V8.0824C40.439 3.61862 36.7399 0 32.1768 0C29.8952 0 28.0457 1.80931 28.0457 4.0412V6.73533C28.0457 10.2329 26.886 13.6362 24.7408 16.4342L18.9572 23.9778C16.812 26.7759 15.6523 30.1791 15.6523 33.6767Z" fill="#ECECEC"/>
<rect x="34.7422" y="25.0742" width="28.7583" height="10.5566" rx="5.2783" fill="#ECECEC"/>
<rect x="36.1084" y="35.6289" width="27.3889" height="9.89682" rx="4.94841" fill="#ECECEC"/>
<rect x="36.1084" y="45.5283" width="26.0194" height="9.23703" rx="4.61852" fill="#ECECEC"/>
<rect x="37.4844" y="54.7627" width="20.5417" height="9.23703" rx="4.61852" fill="#ECECEC"/>
<path d="M53.9177 35.6312H42.4328C39.6999 35.6312 37.4844 33.4157 37.4844 30.6828V30.6828C37.4844 27.9499 39.6999 25.7344 42.4328 25.7344H42.72" stroke="white" stroke-width="1.31958" stroke-linecap="round"/>
<path d="M52.5411 45.5257H43.7951C41.0622 45.5257 38.8467 43.3102 38.8467 40.5773V40.5773C38.8467 37.8444 41.0622 35.6289 43.7951 35.6289H44.0823" stroke="white" stroke-width="1.31958" stroke-linecap="round"/>
<path d="M51.1764 54.7654H44.1547C41.6039 54.7654 39.5361 52.6976 39.5361 50.1468V50.1468C39.5361 47.5961 41.6039 45.5283 44.1546 45.5283H44.7717" stroke="white" stroke-width="1.31958" stroke-linecap="round"/>
<path d="M49.7989 63.3399H45.1871C42.8185 63.3399 40.8984 61.4199 40.8984 59.0513V59.0513C40.8984 56.6828 42.8185 54.7627 45.1871 54.7627H46.1335" stroke="white" stroke-width="1.31958" stroke-linecap="round"/>
<path d="M0.5 40.543C0.5 35.7607 4.15005 31.7692 8.91322 31.3427L17.6127 30.5637L26.5194 29.0312V60.7011L17.6127 59.6795L9.18663 59.1764C4.3076 58.8852 0.5 54.8435 0.5 49.9558V40.543Z" fill="#ECECEC"/>
</svg>
