<svg width="41" height="42" viewBox="0 0 41 42" fill="none" xmlns="http://www.w3.org/2000/svg">
<path d="M0.200195 22.2999C0.200195 20.146 1.94629 18.4 4.1002 18.4C6.25411 18.4 8.0002 20.146 8.0002 22.2999V37.8999C8.0002 40.0539 6.25411 41.7999 4.1002 41.7999C1.94629 41.7999 0.200195 40.0539 0.200195 37.8999V22.2999Z" fill="#333C48"/>
<path d="M10.6002 21.8666V35.9862C10.6002 37.9558 11.713 39.7564 13.4747 40.6372L13.6043 40.702C15.0484 41.424 16.6408 41.7999 18.2553 41.7999H32.3372C34.816 41.7999 36.9501 40.0504 37.4362 37.6198L40.5562 22.0198C41.1998 18.802 38.7387 15.8 35.4572 15.8H26.2002V5.39995C26.2002 2.52807 23.8721 0.199951 21.0002 0.199951C19.5643 0.199951 18.4002 1.36401 18.4002 2.79995V4.53328C18.4002 6.78354 17.6703 8.97308 16.3202 10.7733L12.6802 15.6266C11.33 17.4268 10.6002 19.6164 10.6002 21.8666Z" fill="#333C48"/>
</svg>
