<svg width="44" height="40" viewBox="0 0 44 40" fill="none" xmlns="http://www.w3.org/2000/svg">
<path d="M24.4052 8.39337L23.1702 14.655C22.9102 15.9334 23.2568 17.255 24.0802 18.2517C24.9035 19.2484 26.1168 19.8334 27.4168 19.8334H39.3335V22.1734L33.7652 35H16.2368C15.8468 35 15.5002 34.6534 15.5002 34.2634V17.2767L24.4052 8.39337ZM26.3335 0.333374L12.4452 14.2217C11.6218 15.045 11.1668 16.15 11.1668 17.2984V34.2634C11.1668 37.0584 13.4418 39.3334 16.2368 39.3334H33.7868C35.3252 39.3334 36.7335 38.5317 37.5135 37.2317L43.2985 23.9067C43.5368 23.365 43.6668 22.78 43.6668 22.1734V19.8334C43.6668 17.45 41.7168 15.5 39.3335 15.5H27.4168L29.4102 5.42504C29.5185 4.94837 29.4535 4.42837 29.2368 3.99504C28.7385 3.02004 28.1102 2.13171 27.3302 1.35171L26.3335 0.333374ZM4.66683 15.5H0.333496V39.3334H4.66683C5.8585 39.3334 6.8335 38.3584 6.8335 37.1667V17.6667C6.8335 16.475 5.8585 15.5 4.66683 15.5Z" fill="#323232"/>
</svg>
