<svg xmlns="http://www.w3.org/2000/svg" width="688" height="200" viewBox="0 0 688 200">
  <g fill="none">
    <g fill="#FFFFFF" transform="translate(245.93 39)">
      <path d="M76.5295508,88.1512437 C68.531551,108.3801 47.2529518,116.231841 33.5207808,116.231841 C11.1868556,116.231841 0.472459895,106.267662 0.472459895,79.0955225 C0.472459895,51.7711442 13.600877,0.59402985 53.1383101,0.59402985 C67.3240429,0.59402985 78.339818,6.17910446 78.339818,20.8228856 C78.339818,28.8238806 75.4722355,34.7114428 67.775615,34.7114428 C65.3615937,34.7114428 62.0414437,34.1074627 59.1738612,30.7870647 C62.7953906,28.9751244 66.1155402,22.6348259 66.1155402,16.8985075 C66.1155402,12.0676617 63.7015189,7.68955225 56.9100323,7.68955225 C40.3102781,7.68955225 25.5217861,47.39204 25.5217861,78.1880596 C25.5217861,92.0776121 29.1433155,101.738308 43.6304278,101.738308 C55.4011444,101.738308 66.1155402,96.002985 73.0572192,86.6437812 L76.5295508,88.1512437 L76.5295508,88.1512437 Z"/>
      <path d="M131.155861,61.1293533 C131.759615,61.4318408 132.362374,61.4318408 132.814941,61.4318408 C139.757615,61.4318408 149.566877,56.9024875 156.054995,52.3731342 L157.412695,56.4497513 C151.677529,62.6388058 141.720064,67.1671642 130.702299,68.9800996 C128.287284,96.9084579 113.196417,114.4199 94.6332192,114.4199 C80.6006632,114.4199 70.4900215,107.777115 70.4900215,90.5661692 C70.4900215,73.20597 80.7508556,36.9741293 111.838716,36.9741293 C124.816941,36.9751244 131.155861,45.2776121 131.155861,61.1293533 L131.155861,61.1293533 Z M118.178631,69.4328358 C115.007679,68.6776121 114.102545,66.1114429 114.102545,63.0915421 C114.102545,58.8646767 116.064995,56.1472638 118.780396,54.9402983 C118.479016,48.6 116.970128,46.1840796 113.04523,46.1840796 C102.330834,46.1840796 92.9751339,73.8109454 92.9751339,88.60398 C92.9751339,98.5681592 94.9365884,100.831841 100.670759,100.831841 C108.066995,100.831841 115.76461,87.2457713 118.178631,69.4328358 L118.178631,69.4328358 Z"/>
      <path d="M208.117091,38.3343284 L197.251508,89.6606967 C196.798941,91.6238804 196.647754,93.1333333 196.647754,94.4915421 C196.647754,98.7184079 198.610203,100.076617 202.835487,100.076617 C208.71985,100.076617 212.795936,94.3393033 215.05877,86.7910446 L221.39769,86.7910446 C212.795936,111.39801 199.213957,114.719403 191.06477,114.719403 C182.463016,114.719403 177.031219,109.738308 176.125091,100.377115 C168.579658,112.756219 160.129091,114.719403 153.790171,114.719403 C144.734856,114.719403 137.642984,109.283582 137.642984,96.602985 C137.642984,93.7343283 138.095551,90.4149254 138.851487,86.7910446 L149.112321,38.3323383 L170.843487,38.3323383 L159.977904,89.6587067 C159.676524,91.1691542 159.525337,92.5273633 159.525337,93.8855721 C159.525337,97.3582087 160.73185,100.075622 164.052,100.075622 C169.938353,100.075622 173.860267,94.3383083 176.126085,86.7900496 L186.38692,38.3313433 L208.117091,38.3313433 L208.117091,38.3343284 Z"/>
      <path d="M253.084332,51.4676617 C247.650545,51.4676617 243.576449,57.80796 241.313615,65.3562188 L231.050791,113.81592 L209.319626,113.81592 L225.315626,38.3343284 L247.046791,38.3343284 L245.387711,46.1840796 C251.724642,38.9383085 258.364941,37.7303483 263.042791,37.7303483 C272.701861,37.7303483 279.794727,42.7124379 279.794727,54.7900496 C279.794727,67.0179104 272.550674,85.2835821 272.550674,93.7373133 C272.550674,97.5114429 274.060556,100.078607 278.586225,100.078607 C285.226524,100.078607 287.943915,94.6447763 291.262075,86.793035 L297.600995,86.793035 C289.150428,111.552239 277.530898,114.721393 269.532898,114.721393 C256.402492,114.721393 251.724642,106.267662 251.724642,97.6616917 C251.724642,87.397015 258.516128,68.8278608 258.516128,59.1661692 C258.516128,54.1850746 256.705861,51.4676617 253.084332,51.4676617 L253.084332,51.4676617 Z"/>
      <path d="M328.382503,14.481592 L323.252086,38.3343284 L332.307401,38.3343284 L331.098898,44.3721392 L322.043583,44.3721392 L312.386503,89.6606967 C311.933936,91.6238804 311.782749,93.1333333 311.782749,94.4915421 C311.782749,98.7184079 313.745198,100.076617 317.970481,100.076617 C323.856834,100.076617 329.288631,94.3393033 331.551465,86.7910446 L337.890385,86.7910446 C329.288631,111.39801 314.348952,114.719403 306.199765,114.719403 C297.144449,114.719403 290.052577,109.283582 290.052577,96.602985 C290.052577,93.7343283 290.505145,90.4149254 291.26108,86.7910446 L300.316396,44.3711442 L295.335177,44.3711442 L296.543679,38.3333333 L301.522909,38.3333333 L306.049572,17.4995025 L328.382503,14.481592 L328.382503,14.481592 Z"/>
      <path d="M370.031583,8.14129354 L352.677882,89.6606967 C352.225315,91.6238804 352.074128,93.1333333 352.074128,94.4915421 C352.074128,98.7184079 354.036578,100.076617 358.261861,100.076617 C364.148214,100.076617 369.580011,94.3393033 371.842845,86.7910446 L378.181765,86.7910446 C369.580011,111.39801 354.640332,114.719403 346.491144,114.719403 C337.435829,114.719403 330.343957,109.283582 330.343957,96.602985 C330.343957,93.7343283 330.796524,90.4149254 331.55246,86.7910446 L347.697658,11.159204 L370.031583,8.14129354 L370.031583,8.14129354 Z"/>
      <path d="M403.834845,38.3343284 L392.969262,89.6606967 C392.667882,90.8696517 392.516695,92.2278608 392.516695,93.4348258 C392.516695,96.9074625 393.573016,100.077612 397.043358,100.077612 C402.929711,100.077612 406.851626,94.3402983 409.117444,86.79204 L419.378277,38.3333333 L441.258641,38.3333333 L422.847625,125.891542 C418.320961,147.478607 405.343733,151.556219 395.384278,151.556219 C386.177775,151.556219 377.578011,145.065672 377.578011,135.250746 C377.578011,121.21194 389.348727,116.832836 403.683658,112.60597 L405.19354,105.965174 C398.705423,113.362189 391.912941,114.720398 386.782524,114.720398 C377.727208,114.720398 370.635337,109.284577 370.635337,96.60398 C370.635337,93.7353233 371.087904,90.4159204 371.84384,86.79204 L382.104674,38.3333333 L403.834845,38.3333333 L403.834845,38.3343284 Z M391.912941,138.120398 C394.931711,138.120398 398.85462,135.251741 400.816075,126.345274 L402.626342,117.438806 C393.120449,120.608955 385.876396,124.987065 385.876396,133.139303 C385.876396,135.251741 388.592791,138.120398 391.912941,138.120398 L391.912941,138.120398 Z"/>
    </g>
    <path fill="#2FA732" d="M159.512406,199.457711 C181.486268,199.457711 199.298503,181.638806 199.298503,159.656716 L199.298503,40.2537313 C199.298503,18.2716418 181.486268,0.452736317 159.512406,0.452736317 L40.1541176,0.452736317 C18.1812513,0.452736317 0.36802139,18.2716418 0.36802139,40.2537313 L0.36802139,159.656716 C0.36802139,181.638806 18.1812513,199.457711 40.1541176,199.457711 L159.512406,199.457711 Z M82.5223316,11.5741293 L117.146182,11.5741293 C119.058898,11.5741293 120.608567,13.1253731 120.608567,15.037811 C120.608567,16.9512438 119.057904,18.5014925 117.146182,18.5014925 L82.5223316,18.5014925 C80.609615,18.5014925 79.0599464,16.9502488 79.0599464,15.037811 C79.0589518,13.1243781 80.609615,11.5741293 82.5223316,11.5741293 L82.5223316,11.5741293 Z M99.8332622,190.79801 C94.2413264,190.79801 89.7077005,186.261692 89.7077005,180.668657 C89.7077005,175.073632 94.2413264,170.537313 99.8332622,170.537313 C105.426193,170.537313 109.959818,175.073632 109.959818,180.668657 C109.959818,186.261692 105.426193,190.79801 99.8332622,190.79801 L99.8332622,190.79801 Z M174.432192,29.761194 C179.925658,29.761194 184.378716,34.2159204 184.378716,39.7114428 L184.378716,155.134328 C184.378716,160.629851 179.925658,165.084577 174.432192,165.084577 L25.2343316,165.084577 C19.741861,165.084577 15.2878075,160.629851 15.2878075,155.134328 L15.2878075,39.7114428 C15.2878075,34.2159204 19.741861,29.761194 25.2343316,29.761194 L174.432192,29.761194 Z"/>
    <g fill="#FFFFFF" transform="translate(33.818 32.836)">
      <path d="M32.1929198,32.680597 L16.2456578,32.680597 C14.6323316,34.6517413 13.1393583,36.2517413 11.7657433,37.4756219 C10.3911337,38.7004975 9.09211763,39.7154229 7.86869518,40.522388 C6.64427808,41.3293533 5.43478073,42.0318408 4.2402032,42.6288558 C3.04463102,43.2268658 1.82120856,43.8248754 0.566951873,44.4208954 L4.68779681,54.3691542 L13.646631,50.1572138 L13.646631,83.4089554 L4.68779681,83.4089554 L4.68779681,95.3283583 L40.5241283,95.3283583 L40.5241283,83.4089554 L32.1919251,83.4089554 L32.1919251,32.680597 L32.1929198,32.680597 Z"/>
      <polygon points="68.329 61.706 68.329 .181 63.703 .181 63.703 129.033 68.329 129.033 68.329 66.335 145.632 66.335 145.632 61.706"/>
      <path d="M133.662385 21.4109453L118.611305 21.4109453 118.611305 28.5810945 102.84308 28.5810945C103.380193 27.6845771 104.170941 26.6845771 105.217316 25.5781095 106.261701 24.4736318 107.426438 23.3681592 108.711529 22.2616915 109.995626 21.1572139 111.309562 20.1104478 112.653337 19.1243781 113.997112 18.1383085 115.20661 17.2875622 116.281829 16.5701493 118.669989 15.0169154 120.760749 13.5830846 122.553112 12.2676617 124.344481 10.9542289 125.83646 9.56517413 127.032032 8.1004975 128.22661 6.63681592 131.111102 2.98905473 131.708888 1.13631841L112.652342 1.19900498C111.606962 2.4238806 110.292032 3.61890547 108.710535 4.78407958 107.127048 5.94925375 105.410278 7.12935325 103.55923 8.32437813 101.707187 9.520398 99.9754973 10.8338308 98.3631656 12.2676617 96.9298716 13.4039801 95.6756149 14.4636816 94.6003956 15.4497513 93.5251763 16.4358209 92.4947168 17.481592 91.5100109 18.5860697 90.52431 19.6925373 89.5535295 20.9472637 88.598663 22.3502488 87.6428021 23.7552239 86.5377432 25.4736318 85.2834866 27.5034826L85.2834866 40.4995025 133.662385 40.4995025 133.662385 21.4109453 133.662385 21.4109453zM129.22723 120.428856C128.360888 119.233831 127.448791 118.218905 126.493925 117.38209 125.538064 116.546269 124.702556 115.858707 123.985412 115.320398 124.582203 114.902487 125.253594 114.350249 126.001572 113.662687 126.747562 112.977115 127.464706 112.170149 128.152011 111.242786 128.837326 110.317413 129.420192 109.256716 129.89862 108.061692 130.376053 106.866667 130.615765 105.492537 130.615765 103.937313 130.615765 101.070647 130.107497 98.4706467 129.092952 96.1402983 128.076417 93.8099504 126.598364 91.80796 124.658791 90.1353233 122.71723 88.4636817 120.328075 87.1771146 117.491326 86.2815921 114.653583 85.3860696 111.413006 84.9363183 107.771583 84.9363183 105.740503 84.9363183 103.753187 85.2218904 101.813615 85.7890546 99.8720535 86.3562188 98.0508449 87.0577113 96.3489947 87.8935325 94.6471446 88.7313433 93.1233367 89.6427863 91.7795616 90.6278608 90.4357861 91.6129354 89.3744921 92.5542288 88.598663 93.4517412L97.2889412 103.936318C98.8415936 102.264677 100.543444 100.949254 102.395487 99.993035 104.246535 99.0388058 106.037904 98.5592042 107.771583 98.5592042 108.725454 98.5592042 109.666396 98.7084579 110.593412 99.00796 111.519433 99.3074625 112.354941 99.7402983 113.101925 100.308458 113.847915 100.875622 114.459626 101.606965 114.939048 102.502488 115.416481 103.4 115.656193 104.445771 115.656193 105.640796 115.656193 107.671642 114.924128 109.210945 113.460995 110.256716 111.996866 111.302487 110.190577 111.824875 108.041134 111.824875L101.501294 111.824875 101.501294 122.490547 108.220171 122.490547C110.488973 122.490547 112.296257 122.968159 113.640032 123.922388 114.983807 124.880597 115.656193 125.58806 115.656193 128.036816L132.319604 128.026866C132.319604 125.99801 132.020214 126.179105 131.423422 124.595025 130.824642 123.01393 130.092578 121.62388 129.22723 120.428856L129.22723 120.428856z"/>
    </g>
  </g>
</svg>
