<?xml version="1.0" encoding="UTF-8"?>
<svg width="96px" height="96px" viewBox="0 0 96 96" version="1.1" xmlns="http://www.w3.org/2000/svg" xmlns:xlink="http://www.w3.org/1999/xlink">
    <title>empty-funnels@2x</title>
    <defs>
        <circle id="path-1" cx="48" cy="48" r="48"></circle>
    </defs>
    <g id="Page-1" stroke="none" stroke-width="1" fill="none" fill-rule="evenodd">
        <g id="Artboard" transform="translate(-26.000000, -22.000000)">
            <g id="empty-funnels" transform="translate(26.000000, 22.000000)">
                <circle id="Oval" fill="#FFF4CE" fill-rule="nonzero" cx="48" cy="48" r="48"></circle>
                <g id="Clipped">
                    <mask id="mask-2" fill="white">
                        <use xlink:href="#path-1"></use>
                    </mask>
                    <g id="Oval"></g>
                    <g id="Group" mask="url(#mask-2)">
                        <g transform="translate(-99.999100, 24.000000)">
                            <rect id="Rectangle" stroke="none" fill="#FFFFFF" fill-rule="nonzero" x="34.1378" y="0" width="145.861" height="91.0075" rx="4.98671"></rect>
                            <rect id="Rectangle" stroke="none" fill="#12AF51" fill-rule="nonzero" x="155.0002" y="8.0005" width="17" height="6" rx="1"></rect>
                            <rect id="Rectangle" stroke="none" fill="#ECECEC" fill-rule="nonzero" x="142.0003" y="20.0005" width="30" height="6" rx="1"></rect>
                            <rect id="Rectangle" stroke="none" fill="#ECECEC" fill-rule="nonzero" x="126.9991" y="8" width="25" height="6" rx="1"></rect>
                            <rect id="Rectangle" stroke="none" fill="#ECECEC" fill-rule="nonzero" x="130.0001" y="20" width="9" height="6" rx="1"></rect>
                            <rect id="Rectangle" stroke="none" fill="#E2E4E8" fill-rule="nonzero" x="0" y="28.0009" width="172" height="6" rx="1"></rect>
                            <rect id="Rectangle" stroke="none" fill="#ECECEC" fill-rule="nonzero" x="106.00044" y="43.5009" width="8" height="3" rx="0.5"></rect>
                            <polyline id="Path" stroke="#F62404" stroke-width="1" fill="none" stroke-linecap="round" stroke-linejoin="round" points="129.0004 47.0009 138.6066 43.0009 147.8569 45.8342 152.4821 44.8342 153.9052 43.0009 157.4631 43.0009 160.3093 44.3342 163.0004 46.9701"></polyline>
                            <polyline id="Path" stroke="#10A14A" stroke-width="1" fill="none" stroke-linecap="round" stroke-linejoin="round" points="129.0004 69.0009 138.7664 65.4453 148.1707 67.9638 152.8728 67.0749 154.3196 65.4453 157.9366 65.4453 160.8302 66.6305 163.0004 65.0009"></polyline>
                            <line x1="2.0004" y1="56.0009" x2="172.0004" y2="56.0009" id="Path" stroke="#ECECEC" stroke-width="0.362487" fill="none" stroke-linecap="round" stroke-linejoin="round"></line>
                        </g>
                    </g>
                </g>
            </g>
        </g>
    </g>
</svg>