<svg xmlns="http://www.w3.org/2000/svg" width="79" height="45" viewBox="0 0 79 45" xmlns:xlink="http://www.w3.org/1999/xlink">
  <defs>
    <path id="a" d="M13.0864457,20 L9.61410497,24.9634047 C9.31098553,25.3966872 8.81547913,25.6547624 8.28669266,25.6547624 C7.39199135,25.6547624 6.66669264,24.9294637 6.66669264,24.0347624 L6.66669264,20 L4.86000006,20 C2.17589614,20 3.28707927e-16,17.8241039 0,15.1399999 L0,4.86000006 L0,4.86000006 C-3.28707927e-16,2.17589614 2.17589614,4.93061891e-16 4.86000006,0 L4.86000006,0 L25.1399999,0 C27.8241039,-2.87702507e-15 30,2.17589614 30,4.86000006 L30,15.1399999 L30,15.1399999 C30,17.8241039 27.8241039,20 25.1399999,20 L13.0864457,20 Z"/>
    <circle id="b" cx="4.5" cy="9" r="4.5"/>
  </defs>
  <g fill="none" fill-rule="evenodd" transform="translate(11 9)">
    <g transform="translate(28)">
      <use fill="#FFFFFF" xlink:href="#a"/>
      <path stroke="#636363" d="M9.20440982,24.6767867 L12.8260302,19.5 L25.1399999,19.5 C27.5479615,19.5 29.5,17.5479615 29.5,15.1399999 L29.5,4.86000006 C29.5,2.45203852 27.5479615,0.5 25.1399999,0.5 L4.86000006,0.5 C2.45203852,0.5 0.5,2.45203852 0.5,4.86000006 L0.5,15.1399999 C0.5,17.5479615 2.45203852,19.5 4.86000006,19.5 L7.16669264,19.5 L7.16669264,24.0347624 C7.16669264,24.6533213 7.66813373,25.1547624 8.28669266,25.1547624 C8.65227343,25.1547624 8.99484576,24.9763401 9.20440982,24.6767867 Z"/>
      <g fill="#636363" transform="translate(7 7)">
        <rect width="15" height="1"/>
        <rect width="17" height="1" y="3"/>
        <rect width="15" height="1" y="6"/>
      </g>
    </g>
    <g transform="translate(0 1)">
      <path stroke="#636363" stroke-width="2" d="M10.5,9 L25.8000002,9" stroke-dasharray="1"/>
      <use fill="#FFFFFF" xlink:href="#b"/>
      <circle cx="4.5" cy="9" r="4" stroke="#636363"/>
      <path stroke="#636363" d="M0,2.25 C1.5,1.25 3,0.75 4.5,0.75 C6,0.75 7.5,1.25 9,2.25"/>
      <path stroke="#636363" d="M0,17.25 C1.5,16.25 3,15.75 4.5,15.75 C6,15.75 7.5,16.25 9,17.25" transform="matrix(1 0 0 -1 0 33)"/>
    </g>
  </g>
</svg>
