<svg xmlns="http://www.w3.org/2000/svg" width="79" height="45" viewBox="0 0 79 45" xmlns:xlink="http://www.w3.org/1999/xlink">
  <defs>
    <path id="a" d="M23.3333333,20 L23.3333333,24.0347624 C23.3333333,24.9294637 22.6080346,25.6547624 21.7133333,25.6547624 C21.1845468,25.6547624 20.6890404,25.3966872 20.385921,24.9634047 L16.9135802,20 L4.86000006,20 C2.17589614,20 3.28707927e-16,17.8241039 0,15.1399999 L0,4.86000006 L0,4.86000006 C-3.28707927e-16,2.17589614 2.17589614,4.93061891e-16 4.86000006,0 L4.86000006,0 L25.1399999,0 C27.8241039,-2.87702507e-15 30,2.17589614 30,4.86000006 L30,15.1399999 L30,15.1399999 C30,17.8241039 27.8241039,20 25.1399999,20 L23.3333333,20 Z"/>
  </defs>
  <g fill="none" fill-rule="evenodd" transform="translate(25 9)">
    <use fill="#FFFFFF" xlink:href="#a"/>
    <path stroke="#636363" d="M22.8333333,24.0347624 L22.8333333,19.5 L25.1399999,19.5 C27.5479615,19.5 29.5,17.5479615 29.5,15.1399999 L29.5,4.86000006 C29.5,2.45203852 27.5479615,0.5 25.1399999,0.5 L4.86000006,0.5 C2.45203852,0.5 0.5,2.45203852 0.5,4.86000006 L0.5,15.1399999 C0.5,17.5479615 2.45203852,19.5 4.86000006,19.5 L17.1739958,19.5 L20.7956162,24.6767867 C21.0051802,24.9763401 21.3477525,25.1547624 21.7133333,25.1547624 C22.3318922,25.1547624 22.8333333,24.6533213 22.8333333,24.0347624 Z"/>
    <g fill="#2EB52B" transform="translate(6 6)">
      <rect width="15" height="1" x=".667" y=".353"/>
      <rect width="18.333" height="1" x=".667" y="3.529"/>
      <rect width="10" height="1" x=".667" y="6.706"/>
    </g>
  </g>
</svg>
