<?xml version="1.0" encoding="UTF-8"?>
<svg width="108px" height="45px" viewBox="0 0 108 45" version="1.1" xmlns="http://www.w3.org/2000/svg" xmlns:xlink="http://www.w3.org/1999/xlink">
    <title>Group 2</title>
    <g id="Page-1" stroke="none" stroke-width="1" fill="none" fill-rule="evenodd">
        <g id="Artboard" transform="translate(-777.000000, -167.000000)">
            <g id="Group-2" transform="translate(777.000000, 167.000000)">
                <g id="Group" transform="translate(54.519608, 0.000000)">
                    <g id="a-link" fill-rule="nonzero">
                        <path d="M22.8927267,35.0377074 L16.8184,43.7330235 C16.2881391,44.4920847 15.4213267,44.9442029 14.496296,44.9442029 C12.9311535,44.9442029 11.6623548,43.6735627 11.6623548,42.1061486 L11.6623548,35.0377074 L8.50182363,35.0377074 C3.80639609,35.0377074 0,31.2257868 0,26.5235443 L0,8.514163 L0,8.514163 C0,3.81192061 3.80639609,0 8.50182363,0 L8.50182363,0 L43.9785685,0 C48.6739961,0 52.4803922,3.81192061 52.4803922,8.514163 L52.4803922,26.5235443 L52.4803922,26.5235443 C52.4803922,31.2257868 48.6739961,35.0377074 43.9785685,35.0377074 L22.8927267,35.0377074 Z" id="a"></path>
                    </g>
                    <path d="M16.1017012,43.2309016 L22.4371698,34.1617647 L43.9785685,34.1617647 C48.1909274,34.1617647 51.605719,30.742017 51.605719,26.5235443 L51.605719,8.514163 C51.605719,4.29569041 48.1909274,0.875942685 43.9785685,0.875942685 L8.50182363,0.875942685 C4.28946477,0.875942685 0.874673203,4.29569041 0.874673203,8.514163 L0.874673203,26.5235443 C0.874673203,30.742017 4.28946477,34.1617647 8.50182363,34.1617647 L12.537028,34.1617647 L12.537028,42.1061486 C12.537028,43.1897929 13.4142222,44.0682602 14.496296,44.0682602 C15.1358234,44.0682602 15.7351011,43.7556848 16.1017012,43.2309016 Z" id="Path" stroke="#636363" stroke-width="1.6"></path>
                    <g transform="translate(12.245425, 12.263198)" fill="#636363" fill-rule="nonzero" id="Rectangle">
                        <rect x="0" y="0" width="18.240196" height="1.75188537"></rect>
                        <rect x="0" y="5.25565611" width="29.7388889" height="1.75188537"></rect>
                        <rect x="0" y="10.5113122" width="9.240196" height="1.75188537"></rect>
                    </g>
                </g>
                <line x1="30" y1="18" x2="52.1986078" y2="17.8152051" id="Path" stroke="#636363" stroke-width="2" stroke-dasharray="2"></line>
                <circle id="Oval" stroke="#636363" stroke-width="1.5" cx="13" cy="18" r="12.25"></circle>
                <path d="M5.53483333,22 C5.6375,21.7066667 5.742,21.4115 5.84833333,21.1145 C5.95466667,20.8175 6.05916667,20.515 6.16183333,20.207 L6.16183333,20.207 L9.37383333,20.207 C9.4765,20.515 9.58283333,20.8156667 9.69283333,21.109 C9.80283333,21.4023333 9.90916667,21.6993333 10.0118333,22 L10.0118333,22 L11.5078333,22 C11.2218333,21.186 10.9486667,20.4343333 10.6883333,19.745 C10.428,19.0556667 10.175,18.403 9.92933333,17.787 C9.68366667,17.171 9.43983333,16.5843333 9.19783333,16.027 C8.95583333,15.4696667 8.7065,14.9196667 8.44983333,14.377 L8.44983333,14.377 L7.14083333,14.377 C6.88416667,14.9196667 6.63483333,15.4696667 6.39283333,16.027 C6.15083333,16.5843333 5.907,17.171 5.66133333,17.787 C5.41566667,18.403 5.1645,19.0556667 4.90783333,19.745 C4.65116667,20.4343333 4.37983333,21.186 4.09383333,22 L4.09383333,22 L5.53483333,22 Z M9.02183333,19.085 L6.51383333,19.085 C6.7485,18.4323333 6.974,17.8273333 7.19033333,17.27 C7.40666667,16.7126667 7.59916667,16.2396667 7.76783333,15.851 C7.92916667,16.225 8.11983333,16.6943333 8.33983333,17.259 C8.55983333,17.8236667 8.78716667,18.4323333 9.02183333,19.085 L9.02183333,19.085 Z M13.9729444,22 L13.9729444,19.316 L14.6659444,19.316 C15.2232778,19.316 15.7182778,19.2683333 16.1509444,19.173 C16.5836111,19.0776667 16.9502778,18.9291667 17.2509444,18.7275 C17.5516111,18.5258333 17.7807778,18.2655 17.9384444,17.9465 C18.0961111,17.6275 18.1749444,17.2443333 18.1749444,16.797 C18.1749444,15.939 17.8797778,15.3083333 17.2894444,14.905 C16.6991111,14.5016667 15.8502778,14.3 14.7429444,14.3 C14.4129444,14.3 14.0517778,14.3128333 13.6594444,14.3385 C13.2671111,14.3641667 12.9096111,14.4136667 12.5869444,14.487 L12.5869444,14.487 L12.5869444,22 L13.9729444,22 Z M14.6439444,18.128 L13.9729444,18.128 L13.9729444,15.532 C14.2002778,15.51 14.4899444,15.499 14.8419444,15.499 C15.1059444,15.499 15.3534444,15.5191667 15.5844444,15.5595 C15.8154444,15.5998333 16.0152778,15.6676667 16.1839444,15.763 C16.3526111,15.8583333 16.4846111,15.9903333 16.5799444,16.159 C16.6752778,16.3276667 16.7229444,16.5366667 16.7229444,16.786 C16.7229444,17.3066667 16.5432778,17.6605 16.1839444,17.8475 C15.8246111,18.0345 15.3112778,18.128 14.6439444,18.128 L14.6439444,18.128 Z M20.9370556,22 L20.9370556,14.377 L19.5510556,14.377 L19.5510556,22 L20.9370556,22 Z" id="API" fill="#666666" fill-rule="nonzero"></path>
            </g>
        </g>
    </g>
</svg>