<svg width="20" height="19" viewBox="0 0 20 19" fill="none" xmlns="http://www.w3.org/2000/svg">
<path fill-rule="evenodd" clip-rule="evenodd" d="M18.3031 0C17.4907 0 16.8321 0.658595 16.8321 1.47101V17.529C16.8321 18.3414 17.4907 19 18.3031 19H18.529C19.3414 19 20 18.3414 20 17.529V1.47101C20 0.658595 19.3414 0 18.529 0H18.3031ZM7.08173 6.57693C6.26931 6.57693 5.61072 7.23553 5.61072 8.04795V17.529C5.61072 18.3414 6.26931 19 7.08173 19H7.30759C8.12 19 8.7786 18.3414 8.7786 17.529V8.04795C8.7786 7.23553 8.12 6.57693 7.30759 6.57693H7.08173ZM1.47101 14.6154C0.658596 14.6154 0 15.274 0 16.0864V17.529C0 18.3414 0.658595 19 1.47101 19H1.69687C2.50929 19 3.16788 18.3414 3.16788 17.529V16.0864C3.16788 15.274 2.50929 14.6154 1.69687 14.6154H1.47101ZM11.2213 11.7018C11.2213 10.8894 11.8799 10.2308 12.6923 10.2308H12.9182C13.7306 10.2308 14.3892 10.8894 14.3892 11.7018V17.529C14.3892 18.3414 13.7306 19 12.9182 19H12.6923C11.8799 19 11.2213 18.3414 11.2213 17.529V11.7018Z" fill="#A7AEB8"/>
</svg>
