<svg width="24" height="25" viewBox="0 0 24 25" fill="none" xmlns="http://www.w3.org/2000/svg">
<path fill-rule="evenodd" clip-rule="evenodd" d="M22.3746 1.5014C20.6196 0.395842 16.269 0.0871484 13.9763 0.000955291C13.1658 -0.0295169 12.5089 0.625104 12.5089 1.43622V10.2878C12.5089 11.0172 13.0996 11.6087 13.8289 11.6096L22.4024 11.6209C23.3333 11.6221 24.0708 10.8413 23.9947 9.91348C23.7698 7.17246 23.2381 2.0454 22.3746 1.5014ZM1.74498 1.50145C3.49999 0.395892 7.85054 0.0871984 10.1432 0.00100529C10.9538 -0.0294669 11.6107 0.625154 11.6107 1.43627V22.33C11.6107 23.2319 10.8747 23.9563 9.974 23.9107C7.59965 23.7907 3.31253 23.4388 1.74498 22.4366C-0.47085 21.0198 -0.689892 3.03529 1.74498 1.50145ZM13.9763 24.0009C16.269 23.9148 20.6196 23.6061 22.3746 22.5005C23.2381 21.9565 23.7698 16.8294 23.9947 14.0884C24.0708 13.1606 23.3333 12.3798 22.4024 12.381L13.8289 12.3923C13.0996 12.3932 12.5089 12.9847 12.5089 13.7141V22.5657C12.5089 23.3768 13.1658 24.0314 13.9763 24.0009Z" fill="#3EBB60"/>
<mask id="mask0_18219_153283" style="mask-type:alpha" maskUnits="userSpaceOnUse" x="0" y="0" width="25" height="25">
<path fill-rule="evenodd" clip-rule="evenodd" d="M22.3746 1.5014C20.6196 0.395842 16.269 0.0871484 13.9763 0.000955291C13.1658 -0.0295169 12.5089 0.625104 12.5089 1.43622V10.2878C12.5089 11.0172 13.0996 11.6087 13.8289 11.6096L22.4024 11.6209C23.3333 11.6221 24.0708 10.8413 23.9947 9.91348C23.7698 7.17246 23.2381 2.0454 22.3746 1.5014ZM1.74498 1.50145C3.49999 0.395892 7.85054 0.0871984 10.1432 0.00100529C10.9538 -0.0294669 11.6107 0.625154 11.6107 1.43627V22.33C11.6107 23.2319 10.8747 23.9563 9.974 23.9107C7.59965 23.7907 3.31253 23.4388 1.74498 22.4366C-0.47085 21.0198 -0.689892 3.03529 1.74498 1.50145ZM13.9763 24.0009C16.269 23.9148 20.6196 23.6061 22.3746 22.5005C23.2381 21.9565 23.7698 16.8294 23.9947 14.0884C24.0708 13.1606 23.3333 12.3798 22.4024 12.381L13.8289 12.3923C13.0996 12.3932 12.5089 12.9847 12.5089 13.7141V22.5657C12.5089 23.3768 13.1658 24.0314 13.9763 24.0009Z" fill="white"/>
</mask>
<g mask="url(#mask0_18219_153283)">
<path fill-rule="evenodd" clip-rule="evenodd" d="M16.6391 -0.922411C16.5511 -0.898571 16.4812 -1.06201 16.5619 -1.10425C16.592 -1.12001 16.6285 -1.11302 16.6501 -1.0868C16.6755 -1.056 16.7134 -1.01058 16.7616 -0.95475C16.7201 -0.944097 16.6793 -0.933311 16.6391 -0.922411ZM16.7616 -0.95475C17.2148 -1.07123 17.7419 -1.17155 18.3346 -1.22715C20.0948 -1.39229 21.0717 -1.22665 21.3783 -1.15809C21.4475 -1.14261 21.5052 -1.09883 21.5394 -1.03668C21.7313 -0.687648 22.3405 0.565111 21.8953 1.69589C21.3719 3.02523 19.0051 5.16684 19.0051 5.16684H21.7648C21.927 5.16684 22.0585 5.29835 22.0585 5.46057V7.1194C22.0585 7.28162 21.927 7.41313 21.7648 7.41313H15.2949C15.1327 7.41313 15.0012 7.28162 15.0012 7.1194V5.86095C15.0012 5.58937 15.1253 5.33387 15.3375 5.16438C16.0191 4.61995 17.5638 3.35999 18.3346 2.52145C18.5346 2.30384 18.7107 2.11932 18.8636 1.95914C19.4802 1.31317 19.7191 1.06286 19.6261 0.63323C19.593 0.479958 19.0215 0.388237 18.351 0.297565C17.8327 0.227477 17.0776 -0.588089 16.7616 -0.95475ZM15.2055 16.363C15.0433 16.363 14.9118 16.4945 14.9118 16.6567V18.4471C14.9118 18.6093 15.0433 18.7408 15.2055 18.7408H18.2132L16.2561 20.4215C16.1911 20.4773 16.1537 20.5587 16.1537 20.6443V22.0212C16.1537 22.2134 16.3355 22.3558 16.5238 22.3173C17.1976 22.1795 18.6059 21.961 19.1609 22.4009C19.9025 22.9888 19.6907 24.2971 19.6907 24.2971L22.1782 23.7847C22.3029 23.7591 22.3965 23.656 22.4022 23.5288C22.4201 23.1335 22.4125 22.2695 22.0708 21.6457C21.7821 21.1187 21.1079 20.7013 20.651 20.4655C20.4508 20.3622 20.4113 20.0771 20.5868 19.9358L21.9613 18.829C22.0305 18.7733 22.0708 18.6892 22.0708 18.6002V16.6567C22.0708 16.4945 21.9393 16.363 21.7771 16.363H15.2055ZM3.43342 8.21793C3.43342 7.87018 3.67734 7.57011 4.01775 7.49908L7.59941 6.75174C8.05548 6.65658 8.48373 7.0047 8.48373 7.47059V8.6633L8.48371 8.66908V16.8389C8.48371 17.2445 8.15494 17.5732 7.74938 17.5732H6.39926C5.9937 17.5732 5.66493 17.2445 5.66493 16.8389V9.84838L4.31773 10.1295C3.86167 10.2246 3.43342 9.87653 3.43342 9.41064V8.21793Z" fill="#101013"/>
</g>
</svg>
