<svg width="16" height="20" viewBox="0 0 16 20" fill="none" xmlns="http://www.w3.org/2000/svg">
<path d="M14.6491 0H1.35092C0.591029 0 0 0.61117 0 1.34879V18.6512C0 19.4099 0.612137 20 1.35092 20H14.6491C15.409 20 16 19.3888 16 18.6512V1.34879C16 0.61117 15.3879 0 14.6491 0ZM5.91029 5.01581C5.91029 4.27819 6.50132 3.098 8.04222 3.098C9.56201 3.098 10.0897 4.10959 10.0897 5.03688C10.0897 5.98525 9.30871 6.61749 8.86543 6.97576C8.54881 7.22866 8.5277 7.27081 8.5277 7.43941V7.56586C8.5277 7.73446 8.37995 7.88198 8.21108 7.88198H7.59894C7.43008 7.88198 7.28232 7.73446 7.28232 7.56586V7.43941C7.28232 6.72287 7.64116 6.36459 8.08443 6.00632C8.33773 5.79557 8.84433 5.39515 8.84433 5.03688C8.84433 4.42571 8.46438 4.34141 8.04222 4.34141C7.17678 4.34141 7.15567 4.93151 7.15567 4.99473V5.03688C7.15567 5.20548 7.00792 5.353 6.83905 5.353H6.22691C6.05805 5.353 5.91029 5.20548 5.91029 5.03688V5.01581ZM8.63325 8.91465V9.54689C8.63325 9.73656 8.48549 9.86301 8.31662 9.86301H7.57784C7.38786 9.86301 7.26121 9.71549 7.26121 9.54689V8.91465C7.26121 8.72497 7.40897 8.59852 7.57784 8.59852H8.31662C8.48549 8.59852 8.63325 8.74605 8.63325 8.91465ZM11.905 16.8177H4.09499C3.71504 16.8177 3.41952 16.5227 3.41952 16.1433C3.41952 15.764 3.71504 15.4689 4.09499 15.4689H11.9261C12.3061 15.4689 12.6016 15.764 12.6016 16.1433C12.6016 16.5227 12.285 16.8177 11.905 16.8177ZM11.905 13.509H4.09499C3.71504 13.509 3.41952 13.2139 3.41952 12.8346C3.41952 12.4552 3.71504 12.1602 4.09499 12.1602H11.9261C12.3061 12.1602 12.6016 12.4552 12.6016 12.8346C12.6016 13.1928 12.285 13.509 11.905 13.509Z" fill="#A7AEB8"/>
</svg>
