<svg width="16" height="19" viewBox="0 0 16 19" fill="none" xmlns="http://www.w3.org/2000/svg">
<path fill-rule="evenodd" clip-rule="evenodd" d="M6.5 2.26853C3.91216 2.95849 2 5.39211 2 8.29065V12.4358C2 12.8177 1.70058 13.1273 1.33403 13.1273C0.597265 13.1273 0 13.7475 0 14.5091C0 15.2722 0.598018 15.8909 1.33663 15.8909H14.6634C15.4016 15.8909 16 15.2707 16 14.5091C16 13.7459 15.3999 13.1273 14.666 13.1273C14.2982 13.1273 14 12.8201 14 12.4358V8.29065C14 5.39326 12.0882 2.95872 9.5 2.26855V1.55484C9.5 0.694104 8.82843 0 8 0C7.17326 0 6.5 0.696126 6.5 1.55484V2.26853ZM5.66667 16.5818H10.3333C10.3333 17.9173 9.28866 19 8 19C6.71134 19 5.66667 17.9173 5.66667 16.5818Z" fill="#12AF51"/>
</svg>
