<svg width="20" height="18" viewBox="0 0 20 18" fill="none" xmlns="http://www.w3.org/2000/svg">
<path fill-rule="evenodd" clip-rule="evenodd" d="M0.958904 0C0.429316 0 0 0.438436 0 0.979275V4.15026C0 4.6911 0.429316 5.12953 0.958904 5.12953H19.0411C19.5707 5.12953 20 4.6911 20 4.15026V0.979275C20 0.438436 19.5707 0 19.0411 0H0.958904ZM18.1279 1.91192H13.79V3.21762H18.1279V1.91192Z" fill="white"/>
<path fill-rule="evenodd" clip-rule="evenodd" d="M0.958904 6.43523C0.429316 6.43523 0 6.87367 0 7.41451V10.5855C0 11.1263 0.429316 11.5648 0.958904 11.5648H19.0411C19.5707 11.5648 20 11.1263 20 10.5855V7.41451C20 6.87367 19.5707 6.43523 19.0411 6.43523H0.958904ZM18.1279 8.34715H6.34703V9.65285H18.1279V8.34715Z" fill="white"/>
<path fill-rule="evenodd" clip-rule="evenodd" d="M0.958904 12.8705C0.429316 12.8705 0 13.3089 0 13.8497V17.0207C0 17.5616 0.429316 18 0.958904 18H19.0411C19.5707 18 20 17.5616 20 17.0207V13.8497C20 13.3089 19.5707 12.8705 19.0411 12.8705H0.958904ZM18.1279 14.7824H11.3699V16.0881H18.1279V14.7824Z" fill="white"/>
</svg>
