<svg xmlns="http://www.w3.org/2000/svg" width="96" height="98" viewBox="0 0 96 98" xmlns:xlink="http://www.w3.org/1999/xlink">
  <defs>
    <path id="a" d="M23.7279348,71.8197014 C25.0396372,66.4533055 30.4517255,61.0400234 35.8197014,59.7279348 L74.2441271,50.3358937 C79.610523,49.0241913 82.8978878,52.3095899 81.5857992,57.6775657 L72.1937581,96.1019915 C70.8820557,101.468387 65.4699674,106.88167 60.1019915,108.193758 L21.6775657,117.585799 C16.3111699,118.897502 13.0238051,115.612103 14.3358937,110.244127 L23.7279348,71.8197014 Z"/>
    <mask id="b" width="67.827" height="67.827" x="0" y="0" fill="white">
      <use xlink:href="#a"/>
    </mask>
  </defs>
  <g fill="none" fill-rule="evenodd" transform="translate(0 -17)">
    <use fill="#C2C2C2" fill-opacity="0" stroke="#ACACAC" stroke-width="4" mask="url(#b)" stroke-dasharray="9 3" transform="rotate(45 47.96 83.96)" xlink:href="#a"/>
    <path fill="#6CB9FF" d="M23.7279348,54.8197014 C25.0396372,49.4533055 30.4517255,44.0400234 35.8197014,42.7279348 L74.2441271,33.3358937 C79.610523,32.0241913 82.8978878,35.3095899 81.5857992,40.6775657 L72.1937581,79.1019915 C70.8820557,84.4683874 65.4699674,89.8816695 60.1019915,91.1937581 L21.6775657,100.585799 C16.3111699,101.897502 13.0238051,98.612103 14.3358937,93.2441271 L23.7279348,54.8197014 Z" transform="rotate(45 47.96 66.96)"/>
    <path fill="#3868BF" d="M23.7279348,35.8197014 C25.0396372,30.4533055 30.4517255,25.0400234 35.8197014,23.7279348 L74.2441271,14.3358937 C79.610523,13.0241913 82.8978878,16.3095899 81.5857992,21.6775657 L72.1937581,60.1019915 C70.8820557,65.4683874 65.4699674,70.8816695 60.1019915,72.1937581 L21.6775657,81.5857992 C16.3111699,82.8975016 13.0238051,79.612103 14.3358937,74.2441271 L23.7279348,35.8197014 Z" transform="rotate(45 47.96 47.96)"/>
    <path fill="#FFFFFF" d="M36.18,50.496 C36.905337,50.496 37.4333317,50.3733346 37.764,50.128 C38.0946683,49.8826654 38.26,49.5360022 38.26,49.088 C38.26,48.821332 38.2040006,48.592001 38.092,48.4 C37.9799994,48.207999 37.820001,48.0346674 37.612,47.88 C37.403999,47.7253326 37.1506682,47.581334 36.852,47.448 C36.5533318,47.314666 36.2120019,47.1840006 35.828,47.056 C35.4439981,46.9173326 35.0733351,46.7653342 34.716,46.6 C34.3586649,46.4346658 34.0440014,46.2293346 33.772,45.984 C33.4999986,45.7386654 33.2813342,45.445335 33.116,45.104 C32.9506658,44.762665 32.868,44.3520024 32.868,43.872 C32.868,42.8693283 33.2146632,42.0826695 33.908,41.512 C34.6013368,40.9413305 35.5453274,40.656 36.74,40.656 C37.4333368,40.656 38.0493306,40.7333326 38.588,40.888 C39.1266694,41.0426674 39.5506651,41.2106658 39.86,41.392 L39.236,43.024 C38.8733315,42.8213323 38.4760022,42.6666672 38.044,42.56 C37.6119978,42.4533328 37.166669,42.4 36.708,42.4 C36.1639973,42.4 35.7400015,42.5119989 35.436,42.736 C35.1319985,42.9600011 34.98,43.2746646 34.98,43.68 C34.98,43.9253346 35.0306662,44.1359991 35.132,44.312 C35.2333338,44.4880009 35.3773324,44.6453326 35.564,44.784 C35.7506676,44.9226674 35.9693321,45.0506661 36.22,45.168 C36.4706679,45.2853339 36.7453318,45.3973328 37.044,45.504 C37.5666693,45.696001 38.0333313,45.8906657 38.444,46.088 C38.8546687,46.2853343 39.2013319,46.5199986 39.484,46.792 C39.7666681,47.0640014 39.9826659,47.3839982 40.132,47.752 C40.2813341,48.1200018 40.356,48.5653307 40.356,49.088 C40.356,50.0906717 40.0013369,50.8666639 39.292,51.416 C38.5826631,51.9653361 37.5453402,52.24 36.18,52.24 C35.721331,52.24 35.3026686,52.210667 34.924,52.152 C34.5453314,52.093333 34.2093348,52.0213338 33.916,51.936 C33.6226652,51.8506662 33.3693344,51.7626671 33.156,51.672 C32.9426656,51.5813329 32.7720006,51.498667 32.644,51.424 L33.236,49.776 C33.5240014,49.9360008 33.9133309,50.0959992 34.404,50.256 C34.8946691,50.4160008 35.4866632,50.496 36.18,50.496 Z M44.148,50.336 C44.2653339,50.3466667 44.419999,50.3546666 44.612,50.36 C44.804001,50.3653334 45.0653317,50.368 45.396,50.368 C46.7506734,50.368 47.76133,50.0240034 48.428,49.336 C49.09467,48.6479966 49.428,47.6853395 49.428,46.448 C49.428,45.189327 49.1026699,44.2240034 48.452,43.552 C47.8013301,42.8799966 46.7933402,42.544 45.428,42.544 C44.8306637,42.544 44.4040013,42.5599998 44.148,42.592 L44.148,50.336 Z M51.54,46.448 C51.54,47.4080048 51.3906682,48.2426631 51.092,48.952 C50.7933318,49.6613369 50.3693361,50.253331 49.82,50.728 C49.2706639,51.202669 48.6093372,51.5546655 47.836,51.784 C47.0626628,52.0133345 46.2066714,52.128 45.268,52.128 C44.8199978,52.128 44.3133362,52.1093335 43.748,52.072 C43.1826638,52.0346665 42.6440026,51.9573339 42.132,51.84 L42.132,41.072 C42.6440026,40.9546661 43.1879971,40.8800002 43.764,40.848 C44.3400029,40.8159998 44.8519978,40.8 45.3,40.8 C46.2280046,40.8 47.0759962,40.9093322 47.844,41.128 C48.6120038,41.3466678 49.2706639,41.6879977 49.82,42.152 C50.3693361,42.6160023 50.7933318,43.2026631 51.092,43.912 C51.3906682,44.6213369 51.54,45.4666618 51.54,46.448 Z M60.372,52 C60.0946653,51.5733312 59.7746685,51.1253357 59.412,50.656 C59.0493315,50.1866643 58.668002,49.7333355 58.268,49.296 C57.867998,48.8586645 57.4546688,48.4426686 57.028,48.048 C56.6013312,47.6533314 56.1800021,47.3120014 55.764,47.024 L55.764,52 L53.748,52 L53.748,40.912 L55.764,40.912 L55.764,45.488 C56.1160018,45.1359982 56.4839981,44.760002 56.868,44.36 C57.2520019,43.959998 57.6333314,43.5546687 58.012,43.144 C58.3906686,42.7333313 58.750665,42.3360019 59.092,41.952 C59.433335,41.5679981 59.7426653,41.2213349 60.02,40.912 L62.436,40.912 C62.0839982,41.3173354 61.7106686,41.7386645 61.316,42.176 C60.9213314,42.6133355 60.5160021,43.0533311 60.1,43.496 C59.6839979,43.9386689 59.2653354,44.3786645 58.844,44.816 C58.4226646,45.2533355 58.0093354,45.6693314 57.604,46.064 C58.0520022,46.405335 58.5079977,46.8026644 58.972,47.256 C59.4360023,47.7093356 59.8919978,48.1946641 60.34,48.712 C60.7880022,49.2293359 61.2173313,49.7679972 61.628,50.328 C62.0386687,50.8880028 62.414665,51.4453306 62.756,52 L60.372,52 Z" opacity=".804"/>
  </g>
</svg>
