<?xml version="1.0" encoding="UTF-8" standalone="no"?>
<svg width="144px" height="43px" viewBox="0 0 144 43" version="1.1" xmlns="http://www.w3.org/2000/svg" xmlns:xlink="http://www.w3.org/1999/xlink" xmlns:sketch="http://www.bohemiancoding.com/sketch/ns">
    <!-- Generator: Sketch 3.5.2 (25235) - http://www.bohemiancoding.com/sketch -->
    <title>svg_countly_logo</title>
    <desc>Created with Sketch.</desc>
    <defs></defs>
    <g id="Page-1" stroke="none" stroke-width="1" fill="none" fill-rule="evenodd" sketch:type="MSPage">
        <g id="svg_countly_logo" sketch:type="MSLayerGroup">
            <g id="Page-1" sketch:type="MSShapeGroup">
                <g id="countly_logo_vector">
                    <g id="Group">
                        <g id="Shape" transform="translate(49.976471, 5.082353)" fill="#353535">
                            <path d="M16.2933882,18.7606588 C14.5905882,23.0658353 10.0603059,24.7368706 7.13668235,24.7368706 C2.38171765,24.7368706 0.100588235,22.6162588 0.100588235,16.8333882 C0.100588235,11.0181176 2.89567059,0.126423529 11.3133176,0.126423529 C14.3335059,0.126423529 16.6788,1.31505882 16.6788,4.4316 C16.6788,6.1344 16.0682824,7.38741176 14.4296471,7.38741176 C13.9156941,7.38741176 13.2088235,7.25887059 12.5983059,6.55221176 C13.3693412,6.16658824 14.0762118,4.81722353 14.0762118,3.5964 C14.0762118,2.56828235 13.5622588,1.63651765 12.1163294,1.63651765 C8.58218824,1.63651765 5.43367059,10.0861412 5.43367059,16.6402588 C5.43367059,19.5962824 6.20470588,21.6523059 9.28905882,21.6523059 C11.7950824,21.6523059 14.0762118,20.4316941 15.5541176,18.4398353 L16.2933882,18.7606588 L16.2933882,18.7606588 L16.2933882,18.7606588 Z"></path>
                            <path d="M27.9235059,13.0097647 C28.0520471,13.0741412 28.1803765,13.0741412 28.2767294,13.0741412 C29.7548471,13.0741412 31.8432706,12.1101882 33.2246118,11.1462353 L33.5136706,12.0138353 C32.2926353,13.3310118 30.1726588,14.2947529 27.8269412,14.6805882 C27.3127765,20.6244 24.0998824,24.3512471 20.1477176,24.3512471 C17.1601412,24.3512471 15.0075529,22.9375059 15.0075529,19.2746118 C15.0075529,15.5799529 17.1921176,7.86896471 23.8108235,7.86896471 C26.5739294,7.86917647 27.9235059,9.63614118 27.9235059,13.0097647 L27.9235059,13.0097647 L27.9235059,13.0097647 Z M25.1606118,14.7769412 C24.4855059,14.6162118 24.2928,14.0700706 24.2928,13.4273647 C24.2928,12.5277882 24.7106118,11.9494588 25.2887294,11.6925882 C25.2245647,10.3432235 24.9033176,9.82905882 24.0676941,9.82905882 C21.7865647,9.82905882 19.7947059,15.7087059 19.7947059,18.8570118 C19.7947059,20.9776235 20.2123059,21.4593882 21.4331294,21.4593882 C23.0078118,21.4593882 24.6466588,18.5679529 25.1606118,14.7769412 L25.1606118,14.7769412 L25.1606118,14.7769412 Z"></path>
                            <path d="M44.3088,8.15844706 L41.9954824,19.0819059 C41.8991294,19.4997176 41.8669412,19.8209647 41.8669412,20.1100235 C41.8669412,21.0096 42.2847529,21.2986588 43.1843294,21.2986588 C44.4371294,21.2986588 45.3049412,20.0776235 45.7867059,18.4711765 L47.1362824,18.4711765 C45.3049412,23.7081176 42.4132941,24.4149882 40.6783059,24.4149882 C38.8469647,24.4149882 37.6905176,23.3548941 37.4976,21.3626118 C35.8911529,23.9971765 34.092,24.4149882 32.7424235,24.4149882 C30.8145176,24.4149882 29.3046353,23.2581176 29.3046353,20.5593882 C29.3046353,19.9488706 29.4009882,19.2424235 29.5619294,18.4711765 L31.7464941,8.15802353 L36.3731294,8.15802353 L34.0598118,19.0814824 C33.9956471,19.4029412 33.9634588,19.692 33.9634588,19.9810588 C33.9634588,20.7201176 34.2203294,21.2984471 34.9272,21.2984471 C36.1804235,21.2984471 37.0154118,20.0774118 37.4978118,18.4709647 L39.6823765,8.15781176 L44.3088,8.15781176 L44.3088,8.15844706 L44.3088,8.15844706 Z"></path>
                            <path d="M53.8824706,10.9535294 C52.7256,10.9535294 51.8582118,12.3028941 51.3764471,13.9093412 L49.1914588,24.2227059 L44.5648235,24.2227059 L47.9704235,8.15844706 L52.5970588,8.15844706 L52.2438353,9.82905882 C53.5929882,8.28698824 55.0067294,8.02990588 56.0026588,8.02990588 C58.0591059,8.02990588 59.5692,9.09021176 59.5692,11.6606118 C59.5692,14.2629882 58.0269176,18.1503529 58.0269176,19.9495059 C58.0269176,20.7527294 58.3483765,21.2990824 59.3119059,21.2990824 C60.7256471,21.2990824 61.3041882,20.1426353 62.0106353,18.4716 L63.3602118,18.4716 C61.5610588,23.7409412 59.0872235,24.4154118 57.3844235,24.4154118 C54.5889176,24.4154118 53.5929882,22.6162588 53.5929882,20.7847059 C53.5929882,18.6001412 55.0389176,14.6481882 55.0389176,12.5919529 C55.0389176,11.5318588 54.6535059,10.9535294 53.8824706,10.9535294 L53.8824706,10.9535294 L53.8824706,10.9535294 Z"></path>
                            <path d="M69.9136941,3.08202353 L68.8214118,8.15844706 L70.7493176,8.15844706 L70.4920235,9.44343529 L68.5641176,9.44343529 L66.5080941,19.0819059 C66.4117412,19.4997176 66.3795529,19.8209647 66.3795529,20.1100235 C66.3795529,21.0096 66.7973647,21.2986588 67.6969412,21.2986588 C68.9501647,21.2986588 70.1066118,20.0776235 70.5883765,18.4711765 L71.9379529,18.4711765 C70.1066118,23.7081176 66.9259059,24.4149882 65.1909176,24.4149882 C63.2630118,24.4149882 61.7531294,23.2581176 61.7531294,20.5593882 C61.7531294,19.9488706 61.8494824,19.2424235 62.0104235,18.4711765 L63.9383294,9.44322353 L62.8778118,9.44322353 L63.1351059,8.15823529 L64.1952,8.15823529 L65.1589412,3.72430588 L69.9136941,3.08202353 L69.9136941,3.08202353 L69.9136941,3.08202353 Z"></path>
                            <path d="M78.7809176,1.73265882 L75.0862588,19.0819059 C74.9899059,19.4997176 74.9577176,19.8209647 74.9577176,20.1100235 C74.9577176,21.0096 75.3755294,21.2986588 76.2751059,21.2986588 C77.5283294,21.2986588 78.6847765,20.0776235 79.1665412,18.4711765 L80.5161176,18.4711765 C78.6847765,23.7081176 75.5040706,24.4149882 73.7690824,24.4149882 C71.8411765,24.4149882 70.3312941,23.2581176 70.3312941,20.5593882 C70.3312941,19.9488706 70.4276471,19.2424235 70.5885882,18.4711765 L74.0259529,2.37494118 L78.7809176,1.73265882 L78.7809176,1.73265882 L78.7809176,1.73265882 Z"></path>
                            <path d="M85.9777412,8.15844706 L83.6644235,19.0819059 C83.6002588,19.3392 83.5680706,19.6282588 83.5680706,19.8851294 C83.5680706,20.6241882 83.7929647,21.2988706 84.5318118,21.2988706 C85.7850353,21.2988706 86.6200235,20.0778353 87.1024235,18.4713882 L89.2869882,8.15823529 L93.9453882,8.15823529 L90.0256235,26.7926824 C89.0618824,31.3869176 86.2989882,32.2547294 84.1785882,32.2547294 C82.2184941,32.2547294 80.3875765,30.8733882 80.3875765,28.7845412 C80.3875765,25.7967529 82.8936,24.8647765 85.9455529,23.9652 L86.2670118,22.5518824 C84.8856706,24.1261412 83.4395294,24.4152 82.3472471,24.4152 C80.4193412,24.4152 78.9094588,23.2583294 78.9094588,20.5596 C78.9094588,19.9490824 79.0058118,19.2426353 79.1667529,18.4713882 L81.3513176,8.15823529 L85.9777412,8.15823529 L85.9777412,8.15844706 L85.9777412,8.15844706 Z M83.4395294,29.3952706 C84.0822353,29.3952706 84.9174353,28.7847529 85.3350353,26.8892471 L85.7204471,24.9937412 C83.6966118,25.6684235 82.1543294,26.6001882 82.1543294,28.3351765 C82.1543294,28.7847529 82.7326588,29.3952706 83.4395294,29.3952706 L83.4395294,29.3952706 L83.4395294,29.3952706 Z"></path>
                        </g>
                        <path d="M33.9607059,42.4492941 C38.6390118,42.4492941 42.4312941,38.6570118 42.4312941,33.9787059 L42.4312941,8.56694118 C42.4312941,3.88863529 38.6390118,0.0963529412 33.9607059,0.0963529412 L8.54894118,0.0963529412 C3.87084706,0.0963529412 0.0783529412,3.88863529 0.0783529412,8.56694118 L0.0783529412,33.9787059 C0.0783529412,38.6570118 3.87084706,42.4492941 8.54894118,42.4492941 L33.9607059,42.4492941 L33.9607059,42.4492941 Z M17.5692706,2.46324706 L24.9408,2.46324706 C25.3480235,2.46324706 25.6779529,2.79338824 25.6779529,3.2004 C25.6779529,3.60762353 25.3478118,3.93755294 24.9408,3.93755294 L17.5692706,3.93755294 C17.1620471,3.93755294 16.8321176,3.60741176 16.8321176,3.2004 C16.8319059,2.79317647 17.1620471,2.46324706 17.5692706,2.46324706 L17.5692706,2.46324706 L17.5692706,2.46324706 Z M21.2548235,40.6063059 C20.0642824,40.6063059 19.0990588,39.6408706 19.0990588,38.4505412 C19.0990588,37.2597882 20.0642824,36.2943529 21.2548235,36.2943529 C22.4455765,36.2943529 23.4108,37.2597882 23.4108,38.4505412 C23.4108,39.6408706 22.4455765,40.6063059 21.2548235,40.6063059 L21.2548235,40.6063059 L21.2548235,40.6063059 Z M37.1371765,6.33388235 C38.3067529,6.33388235 39.2548235,7.28195294 39.2548235,8.45152941 L39.2548235,33.0162353 C39.2548235,34.1858118 38.3067529,35.1338824 37.1371765,35.1338824 L5.37247059,35.1338824 C4.20310588,35.1338824 3.25482353,34.1858118 3.25482353,33.0162353 L3.25482353,8.45152941 C3.25482353,7.28195294 4.20310588,6.33388235 5.37247059,6.33388235 L37.1371765,6.33388235 L37.1371765,6.33388235 Z" id="Shape" fill="#2FA732"></path>
                        <g id="Shape" transform="translate(7.200000, 6.988235)" fill="#353535">
                            <path d="M6.85397647,6.9552 L3.45875294,6.9552 C3.11527059,7.37470588 2.79741176,7.71522353 2.50496471,7.97569412 C2.21230588,8.23637647 1.93574118,8.45237647 1.67527059,8.62411765 C1.41458824,8.79585882 1.15708235,8.94536471 0.902752941,9.07242353 C0.648211765,9.19969412 0.387741176,9.32696471 0.120705882,9.45381176 L0.998047059,11.5710353 L2.90541176,10.6746353 L2.90541176,17.7513882 L0.998047059,17.7513882 L0.998047059,20.2881176 L8.62771765,20.2881176 L8.62771765,17.7513882 L6.85376471,17.7513882 L6.85376471,6.9552 L6.85397647,6.9552 L6.85397647,6.9552 Z"></path>
                            <path d="M14.5473882,13.1325882 L14.5473882,0.0385411765 L13.5624706,0.0385411765 L13.5624706,27.4612235 L14.5473882,27.4612235 L14.5473882,14.1177176 L31.0055294,14.1177176 L31.0055294,13.1325882 L14.5473882,13.1325882 L14.5473882,13.1325882 Z"></path>
                            <path d="M28.4571529,4.55675294 L25.2527294,4.55675294 L25.2527294,6.08272941 L21.8956235,6.08272941 C22.0099765,5.89192941 22.1783294,5.67910588 22.4011059,5.44362353 C22.6234588,5.20856471 22.8714353,4.97329412 23.1450353,4.73781176 C23.4184235,4.50275294 23.6981647,4.27997647 23.9842588,4.07011765 C24.2703529,3.86025882 24.5278588,3.6792 24.7567765,3.52651765 C25.2652235,3.19595294 25.7103529,2.8908 26.0919529,2.61084706 C26.4733412,2.33131765 26.7909882,2.03569412 27.0455294,1.72397647 C27.2998588,1.41247059 27.9139765,0.636141176 28.0412471,0.241835294 L23.9840471,0.255176471 C23.7614824,0.515858824 23.4815294,0.770188235 23.1448235,1.01816471 C22.8076941,1.26614118 22.4421882,1.51729412 22.0480941,1.77162353 C21.6537882,2.02616471 21.2851059,2.30569412 20.9418353,2.61084706 C20.6366824,2.85268235 20.3696471,3.07821176 20.1407294,3.28807059 C19.9118118,3.49792941 19.6924235,3.72049412 19.4827765,3.95555294 C19.2729176,4.19103529 19.0662353,4.45807059 18.8629412,4.75665882 C18.6594353,5.05567059 18.4241647,5.42138824 18.1571294,5.85338824 L18.1571294,8.61924706 L28.4571529,8.61924706 L28.4571529,4.55675294 L28.4571529,4.55675294 L28.4571529,4.55675294 Z"></path>
                            <path d="M27.5128941,25.6300941 C27.3284471,25.3757647 27.1342588,25.1597647 26.9309647,24.9816706 C26.7274588,24.8037882 26.5495765,24.6574588 26.3968941,24.5428941 C26.5239529,24.4539529 26.6668941,24.3364235 26.8261412,24.1900941 C26.9849647,24.0441882 27.1376471,23.8724471 27.2839765,23.6750824 C27.4298824,23.4781412 27.5539765,23.2524 27.6558353,22.9980706 C27.7574824,22.7437412 27.8085176,22.4512941 27.8085176,22.1203059 C27.8085176,21.5102118 27.7003059,20.9568706 27.4843059,20.4609176 C27.2678824,19.9649647 26.9532,19.5388941 26.5402588,19.1829176 C26.1268941,18.8271529 25.6182353,18.5533412 25.0142824,18.3627529 C24.4101176,18.1721647 23.7201882,18.0764471 22.9449176,18.0764471 C22.5124941,18.0764471 22.0893882,18.1372235 21.6764471,18.2579294 C21.2630824,18.3786353 20.8753412,18.5279294 20.5130118,18.7058118 C20.1506824,18.8841176 19.8262588,19.0780941 19.5401647,19.2877412 C19.2540706,19.4973882 19.0281176,19.6977176 18.8629412,19.8887294 L20.7131294,22.1200941 C21.0436941,21.7643294 21.4060235,21.4843765 21.8003294,21.2808706 C22.1944235,21.0777882 22.5758118,20.9757176 22.9449176,20.9757176 C23.148,20.9757176 23.3483294,21.0074824 23.5456941,21.0712235 C23.7428471,21.1349647 23.9207294,21.2270824 24.0797647,21.348 C24.2385882,21.4687059 24.3688235,21.6243529 24.4708941,21.8149412 C24.5725412,22.0059529 24.6235765,22.2285176 24.6235765,22.4828471 C24.6235765,22.9150588 24.4677176,23.2426588 24.1562118,23.4652235 C23.8444941,23.6877882 23.4599294,23.7989647 23.0023059,23.7989647 L21.6099529,23.7989647 L21.6099529,26.0688706 L23.0404235,26.0688706 C23.5234588,26.0688706 23.9082353,26.1705176 24.1943294,26.3736 C24.4804235,26.5775294 24.6235765,26.7280941 24.6235765,27.2492471 L28.1712706,27.2471294 C28.1712706,26.8153412 28.1075294,26.8538824 27.9804706,26.5167529 C27.8529882,26.1802588 27.6971294,25.8844235 27.5128941,25.6300941 L27.5128941,25.6300941 L27.5128941,25.6300941 Z"></path>
                        </g>
                    </g>
                </g>
            </g>
        </g>
    </g>
</svg>