<svg xmlns="http://www.w3.org/2000/svg" width="691" height="201" viewBox="0 0 691 201">
  <g fill="none">
    <g fill="#353535" transform="translate(247 39)">
      <path d="M76.941,88.592 C68.9,108.922 47.507,116.813 33.701,116.813 C11.247,116.813 0.475,106.799 0.475,79.491 C0.475,52.03 13.674,0.597 53.424,0.597 C67.686,0.597 78.761,6.21 78.761,20.927 C78.761,28.968 75.878,34.885 68.14,34.885 C65.713,34.885 62.375,34.278 59.492,30.941 C63.133,29.12 66.471,22.748 66.471,16.983 C66.471,12.128 64.044,7.728 57.216,7.728 C40.527,7.728 25.659,47.629 25.659,78.579 C25.659,92.538 29.3,102.247 43.865,102.247 C55.699,102.247 66.471,96.483 73.45,87.077 L76.941,88.592 Z"/>
      <path d="M131.861,61.435 C132.468,61.739 133.074,61.739 133.529,61.739 C140.509,61.739 150.371,57.187 156.894,52.635 L158.259,56.732 C152.493,62.952 142.482,67.503 131.405,69.325 C128.977,97.393 113.805,114.992 95.142,114.992 C81.034,114.992 70.869,108.316 70.869,91.019 C70.869,73.572 81.185,37.159 112.44,37.159 C125.488,37.16 131.861,45.504 131.861,61.435 Z M118.814,69.78 C115.626,69.021 114.716,66.442 114.716,63.407 C114.716,59.159 116.689,56.428 119.419,55.215 C119.116,48.843 117.599,46.415 113.653,46.415 C102.881,46.415 93.475,74.18 93.475,89.047 C93.475,99.061 95.447,101.336 101.212,101.336 C108.648,101.336 116.387,87.682 118.814,69.78 Z"/>
      <path d="M209.236,38.526 L198.312,90.109 C197.857,92.082 197.705,93.599 197.705,94.964 C197.705,99.212 199.678,100.577 203.926,100.577 C209.842,100.577 213.94,94.811 216.215,87.225 L222.588,87.225 C213.94,111.955 200.285,115.293 192.092,115.293 C183.444,115.293 177.983,110.287 177.072,100.879 C169.486,113.32 160.99,115.293 154.617,115.293 C145.513,115.293 138.383,109.83 138.383,97.086 C138.383,94.203 138.838,90.867 139.598,87.225 L149.914,38.524 L171.762,38.524 L160.838,90.107 C160.535,91.625 160.383,92.99 160.383,94.355 C160.383,97.845 161.596,100.576 164.934,100.576 C170.852,100.576 174.795,94.81 177.073,87.224 L187.389,38.523 L209.236,38.523 L209.236,38.526 Z"/>
      <path d="M254.445,51.725 C248.982,51.725 244.886,58.097 242.611,65.683 L232.293,114.385 L210.445,114.385 L226.527,38.526 L248.375,38.526 L246.707,46.415 C253.078,39.133 259.754,37.919 264.457,37.919 C274.168,37.919 281.299,42.926 281.299,55.064 C281.299,67.353 274.016,85.71 274.016,94.206 C274.016,97.999 275.534,100.579 280.084,100.579 C286.76,100.579 289.492,95.118 292.828,87.227 L299.201,87.227 C290.705,112.11 279.023,115.295 270.982,115.295 C257.781,115.295 253.078,106.799 253.078,98.15 C253.078,87.834 259.906,69.172 259.906,59.462 C259.906,54.456 258.086,51.725 254.445,51.725 Z"/>
      <path d="M330.148,14.554 L324.99,38.526 L334.094,38.526 L332.879,44.594 L323.775,44.594 L314.066,90.109 C313.611,92.082 313.459,93.599 313.459,94.964 C313.459,99.212 315.432,100.577 319.68,100.577 C325.598,100.577 331.059,94.811 333.334,87.225 L339.707,87.225 C331.059,111.955 316.039,115.293 307.846,115.293 C298.742,115.293 291.612,109.83 291.612,97.086 C291.612,94.203 292.067,90.867 292.827,87.225 L301.931,44.593 L296.923,44.593 L298.138,38.525 L303.144,38.525 L307.695,17.587 L330.148,14.554 Z"/>
      <path d="M372.021,8.182 L354.574,90.109 C354.119,92.082 353.967,93.599 353.967,94.964 C353.967,99.212 355.94,100.577 360.188,100.577 C366.106,100.577 371.567,94.811 373.842,87.225 L380.215,87.225 C371.567,111.955 356.547,115.293 348.354,115.293 C339.25,115.293 332.12,109.83 332.12,97.086 C332.12,94.203 332.575,90.867 333.335,87.225 L349.567,11.215 L372.021,8.182 Z"/>
      <path d="M406.006,38.526 L395.082,90.109 C394.779,91.324 394.627,92.689 394.627,93.902 C394.627,97.392 395.689,100.578 399.178,100.578 C405.096,100.578 409.039,94.812 411.317,87.226 L421.633,38.525 L443.631,38.525 L425.121,126.521 C420.57,148.216 407.523,152.314 397.51,152.314 C388.254,152.314 379.608,145.791 379.608,135.927 C379.608,121.818 391.442,117.417 405.854,113.169 L407.372,106.495 C400.849,113.929 394.02,115.294 388.862,115.294 C379.758,115.294 372.628,109.831 372.628,97.087 C372.628,94.204 373.083,90.868 373.843,87.226 L384.159,38.525 L406.006,38.525 L406.006,38.526 Z M394.02,138.811 C397.055,138.811 400.999,135.928 402.971,126.977 L404.791,118.026 C395.234,121.212 387.951,125.612 387.951,133.805 C387.951,135.928 390.682,138.811 394.02,138.811 Z"/>
    </g>
    <path fill="#2FA732" d="M160.37,200.455 C182.462,200.455 200.37,182.547 200.37,160.455 L200.37,40.455 C200.37,18.363 182.462,0.455 160.37,0.455 L40.37,0.455 C18.279,0.455 0.37,18.363 0.37,40.455 L0.37,160.455 C0.37,182.547 18.279,200.455 40.37,200.455 L160.37,200.455 Z M82.966,11.632 L117.776,11.632 C119.699,11.632 121.257,13.191 121.257,15.113 C121.257,17.036 119.698,18.594 117.776,18.594 L82.966,18.594 C81.043,18.594 79.485,17.035 79.485,15.113 C79.484,13.19 81.043,11.632 82.966,11.632 Z M100.37,191.752 C94.748,191.752 90.19,187.193 90.19,181.572 C90.19,175.949 94.748,171.39 100.37,171.39 C105.993,171.39 110.551,175.949 110.551,181.572 C110.551,187.193 105.993,191.752 100.37,191.752 Z M175.37,29.91 C180.893,29.91 185.37,34.387 185.37,39.91 L185.37,155.91 C185.37,161.433 180.893,165.91 175.37,165.91 L25.37,165.91 C19.848,165.91 15.37,161.433 15.37,155.91 L15.37,39.91 C15.37,34.387 19.848,29.91 25.37,29.91 L175.37,29.91 Z"/>
    <g fill="#353535" transform="translate(34 33)">
      <path d="M32.366,32.844 L16.333,32.844 C14.711,34.825 13.21,36.433 11.829,37.663 C10.447,38.894 9.141,39.914 7.911,40.725 C6.68,41.536 5.464,42.242 4.263,42.842 C3.061,43.443 1.831,44.044 0.57,44.643 L4.713,54.641 L13.72,50.408 L13.72,83.826 L4.713,83.826 L4.713,95.805 L40.742,95.805 L40.742,83.826 L32.365,83.826 L32.365,32.844 L32.366,32.844 Z"/>
      <polygon points="68.696 62.015 68.696 .182 64.045 .182 64.045 129.678 68.696 129.678 68.696 66.667 146.415 66.667 146.415 62.015"/>
      <path d="M134.381 21.518L119.249 21.518 119.249 28.724 103.396 28.724C103.936 27.823 104.731 26.818 105.783 25.706 106.833 24.596 108.004 23.485 109.296 22.373 110.587 21.263 111.908 20.211 113.259 19.22 114.61 18.229 115.826 17.374 116.907 16.653 119.308 15.092 121.41 13.651 123.212 12.329 125.013 11.009 126.513 9.613 127.715 8.141 128.916 6.67 131.816 3.004 132.417 1.142L113.258 1.205C112.207 2.436 110.885 3.637 109.295 4.808 107.703 5.979 105.977 7.165 104.116 8.366 102.254 9.568 100.513 10.888 98.892 12.329 97.451 13.471 96.19 14.536 95.109 15.527 94.028 16.518 92.992 17.569 92.002 18.679 91.011 19.791 90.035 21.052 89.075 22.462 88.114 23.874 87.003 25.601 85.742 27.641L85.742 40.702 134.381 40.702 134.381 21.518 134.381 21.518zM129.922 121.031C129.051 119.83 128.134 118.81 127.174 117.969 126.213 117.129 125.373 116.438 124.652 115.897 125.252 115.477 125.927 114.922 126.679 114.231 127.429 113.542 128.15 112.731 128.841 111.799 129.53 110.869 130.116 109.803 130.597 108.602 131.077 107.401 131.318 106.02 131.318 104.457 131.318 101.576 130.807 98.963 129.787 96.621 128.765 94.279 127.279 92.267 125.329 90.586 123.377 88.906 120.975 87.613 118.123 86.713 115.27 85.813 112.012 85.361 108.351 85.361 106.309 85.361 104.311 85.648 102.361 86.218 100.409 86.788 98.578 87.493 96.867 88.333 95.156 89.175 93.624 90.091 92.273 91.081 90.922 92.071 89.855 93.017 89.075 93.919L97.812 104.456C99.373 102.776 101.084 101.454 102.946 100.493 104.807 99.534 106.608 99.052 108.351 99.052 109.31 99.052 110.256 99.202 111.188 99.503 112.119 99.804 112.959 100.239 113.71 100.81 114.46 101.38 115.075 102.115 115.557 103.015 116.037 103.917 116.278 104.968 116.278 106.169 116.278 108.21 115.542 109.757 114.071 110.808 112.599 111.859 110.783 112.384 108.622 112.384L102.047 112.384 102.047 123.103 108.802 123.103C111.083 123.103 112.9 123.583 114.251 124.542 115.602 125.505 116.278 126.216 116.278 128.677L133.031 128.667C133.031 126.628 132.73 126.81 132.13 125.218 131.528 123.629 130.792 122.232 129.922 121.031z"/>
    </g>
  </g>
</svg>
