<?xml version="1.0" encoding="UTF-8"?>
<svg width="600px" height="600px" viewBox="0 0 600 600" version="1.1" xmlns="http://www.w3.org/2000/svg" xmlns:xlink="http://www.w3.org/1999/xlink">
    <title>Artboard Copy@2x</title>
    <defs>
        <path d="M525.933753,288.842228 C542.518225,288.821009 555.978702,302.25492 556,318.848145 C556,319.556791 555.977186,320.265436 555.928657,320.971046 C547.24668,445.965755 534.441332,513.815126 517.512614,524.51916 C482.975785,546.358181 415.941821,558.183604 316.415274,559.99543 C301.341238,560.268569 288.899851,548.264088 288.625364,533.182235 C288.620815,533.016834 288.620815,532.851433 288.620815,532.684514 L288.620815,313.705535 C288.620815,300.141124 299.600293,289.141189 313.15631,289.12298 L525.933753,288.842228 Z M269.371848,26.8219504 L269.376397,27.0702039 L269.376397,527.981962 C269.376397,544.576705 255.932602,558.027308 239.349646,558.027308 C239.020565,558.027308 238.691484,558.027308 238.36392,558.012134 C137.622654,554.701076 71.6635873,543.041054 40.4845977,523.03055 C-10.9240813,490.036815 -16.0058814,71.2046926 40.4845977,35.4841147 C75.0223372,13.6449418 142.055391,1.81997379 241.583454,0.00445345664 C256.655974,-0.265142865 269.097361,11.7393385 269.371848,26.8219504 Z M315.913312,0.00445345664 L316.415274,0.00905885249 C415.941821,1.81997379 482.975785,13.6449418 517.512614,35.4841147 C534.441332,46.1881485 547.24668,114.03752 555.928657,239.032229 C555.977186,239.739356 556,240.446484 556,241.15513 C555.978702,257.748355 542.518225,271.182266 525.933753,271.161047 L313.15631,270.880295 C299.600293,270.862086 288.620815,259.862151 288.620815,246.29774 L288.620815,27.3184574 C288.620815,27.1529045 288.620815,26.9875033 288.625364,26.8219504 C288.899851,11.7393385 301.341238,-0.265142865 316.415274,0.00905885249 L315.913312,0.00445345664 Z" id="path-1"></path>
    </defs>
    <g id="Artboard-Copy" stroke="none" stroke-width="1" fill="none" fill-rule="evenodd">
        <g id="Clipped-Copy" transform="translate(22.000000, 20.000000)">
            <mask id="mask-2" fill="white">
                <use xlink:href="#path-1"></use>
            </mask>
            <g id="Shape"></g>
            <g id="Group" mask="url(#mask-2)">
                <g transform="translate(0.000000, -31.000000)" id="Shape">
                    <path d="M525.933753,319.836455 C542.518225,319.815235 555.978702,333.249433 556,349.843011 C556,350.551672 555.977186,351.260332 555.928657,351.965957 C547.24668,476.963327 534.441332,544.814143 517.512614,555.518405 C482.975785,577.357891 415.941821,589.183566 316.415274,590.99543 C301.341238,591.268575 288.899851,579.263838 288.625364,564.181664 C288.620815,564.016259 288.620815,563.850855 288.620815,563.683932 L288.620815,344.700292 C288.620815,331.135591 299.600293,320.135422 313.15631,320.117213 L525.933753,319.836455 Z M269.371848,57.8105992 L269.376397,58.058858 L269.376397,558.98128 C269.376397,575.576376 255.932602,589.027266 239.349646,589.027266 C239.020565,589.027266 238.691484,589.027266 238.36392,589.012091 C137.622654,585.700963 71.6635873,574.040693 40.4845977,554.029763 C-10.9240813,521.035325 -16.0058814,102.194286 40.4845977,66.4729479 C75.0223372,44.6333101 142.055391,32.8080903 241.583454,30.9925313 C256.655974,30.7229293 269.097361,42.7276662 269.371848,57.8105992 Z M315.913312,30.9925313 L316.415274,30.9971368 C415.941821,32.8080903 482.975785,44.6333101 517.512614,66.4729479 C534.441332,77.1772096 547.24668,145.028025 555.928657,270.025395 C555.977186,270.732538 556,271.439681 556,272.148341 C555.978702,288.74192 542.518225,302.176117 525.933753,302.154898 L313.15631,301.87414 C299.600293,301.85593 288.620815,290.855761 288.620815,277.291061 L288.620815,58.3071167 C288.620815,58.1415603 288.620815,57.9761557 288.625364,57.8105992 C288.899851,42.7276662 301.341238,30.7229293 316.415274,30.9971368 L315.913312,30.9925313 Z" fill="#2CAE5C" fill-rule="nonzero"></path>
                    <path d="M497.180864,404.763431 C500.195671,404.763431 502.640274,407.208082 502.640274,410.226337 L502.640274,457.530555 C502.640274,459.181567 501.894154,460.743047 500.611193,461.781 L466.14109,489.641823 C465.487477,490.169904 464.964284,490.842145 464.613971,491.605434 C463.350725,494.345992 464.548762,497.590352 467.286049,498.85289 C484.71218,506.889432 496.496922,516.536015 502.640274,527.791119 C509.203697,539.820136 511.781751,554.723248 510.374437,572.501974 C510.183357,574.923862 508.415115,576.928446 506.037239,577.420107 L447.421382,589.538655 C450.697027,569.225748 446.599437,554.50625 435.128612,545.378643 C424.406939,536.848922 403.38973,536.290491 372.075468,543.706387 C371.664496,543.805023 371.241392,543.853582 370.818287,543.853582 C367.80348,543.853582 365.358878,541.407414 365.358878,538.390675 L365.358878,503.831722 C365.358878,502.241409 366.05192,500.731523 367.254506,499.693571 L413.140841,460.14061 L342.006255,460.14061 C338.991448,460.14061 336.546846,457.694442 336.546846,454.677704 L336.546846,410.226337 C336.546846,407.208082 338.991448,404.763431 342.006255,404.763431 L497.180864,404.763431 Z M191.670805,197.467375 C191.863401,198.388482 191.960457,199.324763 191.960457,200.265597 L191.960457,426.117325 C191.960457,433.660689 185.850468,439.774591 178.311934,439.774591 L140.211323,439.774591 C132.674306,439.774591 126.5628,433.660689 126.5628,426.117325 L126.5628,259.867424 L91.2349629,267.268145 C83.8570262,268.812934 76.6240672,264.08145 75.0798126,256.698938 C74.8872168,255.777832 74.7903123,254.840033 74.7903123,253.900716 L74.7903123,219.089862 C74.7903123,212.625423 79.3193472,207.047189 85.6425564,205.722434 L175.515503,186.898169 C182.894805,185.35338 190.127006,190.084864 191.670805,197.467375 Z M415.956986,2.00608402 C447.980971,-1.14492043 471.623246,-0.583910283 486.885328,3.68914481 C488.266862,4.07585788 489.440635,4.99097059 490.153391,6.23664984 L490.659903,7.13203538 C503.71699,30.3962171 506.352672,52.3959484 498.568464,73.1314722 C490.473373,94.6958402 468.121642,124.365947 431.514786,162.142097 L496.895762,162.142097 C499.910569,162.142097 502.355171,164.586748 502.355171,167.605004 L502.355171,211.337088 C502.355171,214.353826 499.910569,216.799994 496.895762,216.799994 L344.079314,216.799994 C341.064507,216.799994 338.619905,214.353826 338.619905,211.337088 L338.619905,175.835783 C338.619905,171.21204 340.571643,166.80226 343.995906,163.695991 C363.590636,145.917265 379.977963,130.445707 393.15637,117.283744 L394.754764,115.683568 C403.189551,107.211055 410.25797,99.7230799 415.956986,93.2196415 C439.312643,66.571432 448.611836,60.3208048 445.921561,47.2743219 C445.152694,43.5446742 437.435212,40.21306 421.511935,37.936849 C411.907925,36.5747643 398.356458,27.1471535 380.413199,8.87676631 L379.671629,8.11848454 L380.722566,7.85631056 C391.024168,5.32294838 402.217473,3.42860969 414.303999,2.17329448 L415.956986,2.00608402 Z M378.907312,7.33470921 L379.66253,8.1106392 L379.671629,8.11848454 L379.32435,8.20572412 C370.962355,10.325954 363.197862,12.8740964 356.030871,15.8498629 C355.911067,15.8997878 355.773065,15.8427308 355.723021,15.7223951 C355.677526,15.611316 355.723021,15.4832412 355.827659,15.4252737 L372.36512,6.34941333 C374.518554,5.1671645 377.196697,5.57043322 378.907312,7.33470921 Z" fill="#FCFFFC" fill-rule="evenodd"></path>
                </g>
            </g>
        </g>
    </g>
</svg>