<svg width="20" height="20" viewBox="0 0 20 20" fill="none" xmlns="http://www.w3.org/2000/svg">
<g clip-path="url(#clip0)">
<path d="M10 20C15.5228 20 20 15.5228 20 10C20 4.47715 15.5228 0 10 0C4.47715 0 0 4.47715 0 10C0 15.5228 4.47715 20 10 20Z" fill="#EEEEEE"/>
<path d="M19.375 6.52344H0.625005C-0.208437 8.76622 -0.208437 11.2338 0.625005 13.4766H19.375C20.2088 11.2338 20.2088 8.76616 19.375 6.52344Z" fill="#D80027"/>
<path d="M10 -3.92036e-05C8.56085 -0.00143081 7.13843 0.308557 5.83035 0.908653C4.52228 1.50875 3.35952 2.38474 2.42188 3.47652H17.5781C16.6412 2.38394 15.4785 1.50739 14.1703 0.90722C12.8621 0.307054 11.4393 -0.00246957 10 -3.92036e-05ZM17.5781 16.5234H2.42188C4.25391 18.6523 6.96875 20 10 20C13.0312 20 15.7461 18.6523 17.5781 16.5234Z" fill="#0052B4"/>
</g>
<defs>
<clipPath id="clip0">
<rect width="20" height="20" fill="white"/>
</clipPath>
</defs>
</svg>
