<svg width="20" height="20" viewBox="0 0 20 20" fill="none" xmlns="http://www.w3.org/2000/svg">
<path d="M10 20C15.5228 20 20 15.5228 20 10C20 4.47715 15.5228 0 10 0C4.47715 0 0 4.47715 0 10C0 15.5228 4.47715 20 10 20Z" fill="#EEEEEE"/>
<path d="M19.914 8.69525H11.3047V0.0858718C10.4385 -0.0269404 9.56143 -0.0269404 8.6953 0.0858718V8.69525H0.0859238C-0.0269323 9.56138 -0.0269323 10.4385 0.0859238 11.3046H8.6953V19.914C9.56143 20.0269 10.4385 20.0269 11.3047 19.914V11.3046H19.914C20.0269 10.4385 20.0269 9.56138 19.914 8.69525Z" fill="#D80027"/>
<path d="M12.8242 10.4336L13.4766 10.8711V9.12888L12.8242 9.57028H10.4336V7.17966L10.8711 6.52732H9.12891L9.56641 7.17966V9.57028H7.17578L6.52344 9.12888V10.8711L7.17578 10.4336H9.56641V12.8242L9.12891 13.4765H10.8711L10.4297 12.8242V10.4336H12.8242Z" fill="#FFDA44"/>
</svg>
