<svg width="20" height="20" viewBox="0 0 20 20" fill="none" xmlns="http://www.w3.org/2000/svg">
<path d="M10 20C15.5228 20 20 15.5228 20 10C20 4.47715 15.5228 0 10 0C4.47715 0 0 4.47715 0 10C0 15.5228 4.47715 20 10 20Z" fill="#D80027"/>
<path d="M3.47656 5.21889H16.5234V14.7814H3.47656V5.21889Z" fill="#6DA544"/>
<path d="M11.6094 12.8241C11.1802 12.8229 10.7569 12.7239 10.3717 12.5347C9.98652 12.3454 9.64953 12.0708 9.38634 11.7318C9.12316 11.3928 8.9407 10.9982 8.85283 10.5781C8.76496 10.158 8.77399 9.72344 8.87923 9.30736C8.98448 8.89128 9.18317 8.50466 9.46021 8.17686C9.73725 7.84907 10.0854 7.58873 10.4781 7.41562C10.8708 7.24251 11.2978 7.16118 11.7267 7.17782C12.1556 7.19445 12.575 7.30861 12.9531 7.51162C12.4638 7.0334 11.8442 6.71019 11.1721 6.58248C10.4999 6.45478 9.80496 6.52825 9.17435 6.79371C8.54374 7.05916 8.00547 7.50479 7.62698 8.07477C7.24849 8.64475 7.0466 9.31374 7.0466 9.99795C7.0466 10.6822 7.24849 11.3511 7.62698 11.9211C8.00547 12.4911 8.54374 12.9367 9.17435 13.2022C9.80496 13.4676 10.4999 13.5411 11.1721 13.4134C11.8442 13.2857 12.4638 12.9625 12.9531 12.4843C12.5406 12.7079 12.0786 12.8247 11.6094 12.8241Z" fill="#EEEEEE"/>
</svg>
