<svg width="20" height="20" viewBox="0 0 20 20" fill="none" xmlns="http://www.w3.org/2000/svg">
<g clip-path="url(#clip0)">
<path d="M10 20C15.5228 20 20 15.5228 20 10C20 4.47715 15.5228 0 10 0C4.47715 0 0 4.47715 0 10C0 15.5228 4.47715 20 10 20Z" fill="#EEEEEE"/>
<path d="M9.56647 9.99994H20.0001C20.0001 9.09759 19.8829 8.22259 19.6563 7.39056H9.56647V9.99994ZM9.56647 4.78118H18.5313C17.9204 3.78534 17.1404 2.90365 16.2266 2.17571H9.56647V4.78118ZM10.0001 19.9999C12.2624 20.0028 14.4584 19.2355 16.2266 17.8242H3.7735C5.54171 19.2355 7.73768 20.0028 10.0001 19.9999ZM1.46881 15.2187H18.5313C19.0293 14.4073 19.4082 13.5285 19.6563 12.6093H0.343811C0.591929 13.5285 0.970798 14.4073 1.46881 15.2187Z" fill="#D80027"/>
<path d="M10 10V0C7.34784 0 4.8043 1.05357 2.92893 2.92893C1.05357 4.8043 0 7.34784 0 10H10Z" fill="#0052B4"/>
<path d="M6.64844 8.55865C6.27219 8.55849 5.90093 8.47247 5.56295 8.30713C5.22497 8.1418 4.92918 7.90152 4.6981 7.60459C4.46702 7.30765 4.30676 6.9619 4.22951 6.59366C4.15226 6.22543 4.16006 5.84442 4.25233 5.47965C4.34459 5.11489 4.51888 4.77599 4.76192 4.48877C5.00496 4.20154 5.31035 3.97357 5.65482 3.82222C5.99928 3.67087 6.37375 3.60012 6.74969 3.61537C7.12564 3.63062 7.49314 3.73146 7.82422 3.91021C7.39574 3.49016 6.85276 3.20598 6.2634 3.09331C5.67404 2.98064 5.06453 3.0445 4.51132 3.27688C3.9581 3.50925 3.48582 3.8998 3.1537 4.39954C2.82158 4.89928 2.64441 5.48596 2.64441 6.08599C2.64441 6.68603 2.82158 7.2727 3.1537 7.77244C3.48582 8.27218 3.9581 8.66273 4.51132 8.89511C5.06453 9.12748 5.67404 9.19134 6.2634 9.07867C6.85276 8.966 7.39574 8.68182 7.82422 8.26177C7.46436 8.45663 7.06158 8.55867 6.65235 8.55865H6.64844Z" fill="#FFDA44"/>
<path d="M7.34378 4.34773L7.78519 5.2657L8.77737 5.03523L8.33206 5.9532L9.12894 6.58601L8.13675 6.80867L8.14066 7.8243L7.34769 7.19148L6.55081 7.8243L6.55472 6.80867L5.56253 6.58601L6.35941 5.9532L5.91409 5.03523L6.90628 5.26961L7.34378 4.34773Z" fill="#FFDA44"/>
</g>
<defs>
<clipPath id="clip0">
<rect width="20" height="20" fill="white"/>
</clipPath>
</defs>
</svg>
