<svg width="20" height="20" viewBox="0 0 20 20" fill="none" xmlns="http://www.w3.org/2000/svg">
<path d="M20 10C20 12.6522 18.9464 15.1957 17.0711 17.0711C15.1957 18.9464 12.6522 20 10 20C7.34784 20 4.8043 18.9464 2.92893 17.0711C1.05357 15.1957 0 12.6522 0 10L10 0C12.6522 0 15.1957 1.05357 17.0711 2.92893C18.9464 4.8043 20 7.34784 20 10Z" fill="#338AF3"/>
<path d="M4.78126 9.99988H8.15626L5.21876 6.52332L4.78126 7.8241V9.99988ZM10 8.15613L6.52345 4.78113H10V8.15613Z" fill="#0052B4"/>
<path d="M9.97266 10.0001H10V9.97272L9.97266 10.0001Z" fill="#EEEEEE"/>
<path d="M10 5.21875V0C7.34784 0 4.8043 1.05357 2.92893 2.92893C1.05357 4.8043 0 7.34784 0 10H5.21875V7.0625L8.15625 10H9.97266L10 9.97266V8.15625L7.0625 5.21875H10Z" fill="#EEEEEE"/>
<path d="M5.05859 1.30457C3.49335 2.19666 2.19678 3.49323 1.30469 5.05847V9.99988H3.91406V3.91394H10V1.30457H5.05859Z" fill="#D80027"/>
<path d="M10 8.76953L6.44531 5.21484H5.21875L10 10V8.76953Z" fill="#D80027"/>
<path d="M10.9141 16.5234L11.1289 17.1874H11.832L11.2617 17.5976L11.4805 18.2617L10.9141 17.8515L10.3477 18.2617L10.5664 17.5976L10 17.1874H10.6992L10.9141 16.5234ZM16.4766 12.1757L16.6914 12.8398H17.3945L16.8281 13.2499L17.043 13.914L16.4766 13.5038L15.9102 13.914L16.1289 13.2499L15.5625 12.8398H16.2617L16.4766 12.1757ZM17.8711 5.65228L18.0859 6.31635H18.7891L18.2227 6.7265L18.4414 7.39056L17.875 6.98041L17.3086 7.39056L17.5273 6.7265L16.9609 6.31635H17.6562L17.8711 5.65228ZM18.2148 10.4335L18.4336 11.0976H19.1289L18.5664 11.5078L18.7812 12.1718L18.2148 11.7617L17.6523 12.1757L17.8672 11.5117L17.3008 11.0976H18.0039L18.2148 10.4335ZM11.9141 14.9609L12.5391 15.2734L13.0312 14.7812L12.9219 15.4726L13.5469 15.789L12.8516 15.8984L12.7422 16.5898L12.4258 15.9648L11.7344 16.0742L12.2305 15.582L11.9141 14.9609ZM11.9141 12.3515L12.5391 12.6679L13.0312 12.1757L12.9219 12.8632L13.5469 13.1796L12.8555 13.289L12.7461 13.9804L12.4297 13.3554L11.7383 13.4687L12.2344 12.9726L11.9141 12.3515ZM14.0898 14.0234L14.7148 14.3398L15.207 13.8476L15.0977 14.5351L15.7227 14.8515L15.0273 14.9609L14.9219 15.6523L14.6016 15.0273L13.9141 15.1406L14.4062 14.6445L14.0898 14.0234ZM14.0898 8.43744L14.7148 8.75385L15.207 8.26166L15.0977 8.94916L15.7227 9.26947L15.0273 9.37885L14.9219 10.0663L14.6016 9.44135L13.9141 9.55463L14.4062 9.05853L14.0898 8.43744ZM16.1992 8.37103L16.8203 8.68744L17.3125 8.19525L17.2031 8.88275L17.8281 9.19916L17.1367 9.30853L17.0273 9.99994L16.7109 9.37494L16.0156 9.49213L16.5117 8.99603L16.1992 8.37103Z" fill="#FFDA44"/>
</svg>
