<?xml version="1.0" encoding="UTF-8"?>
<svg width="1500px" height="487px" viewBox="0 0 1500 487" version="1.1" xmlns="http://www.w3.org/2000/svg" xmlns:xlink="http://www.w3.org/1999/xlink">
    <title>Artboard@2x</title>
    <defs>
        <path d="M383.099227,210.442194 C395.179642,210.426735 404.984486,220.214299 405,232.303649 C405,232.819947 404.983382,233.336246 404.948033,233.850334 C398.623931,324.917907 389.296294,374.351021 376.965124,382.149674 C351.807901,398.060961 302.979204,406.676626 230.482349,407.99667 C219.502161,408.195672 210.43964,399.44955 210.239699,388.461343 C210.236385,388.340836 210.236385,388.220329 210.236385,388.098717 L210.236385,228.55689 C210.236385,218.674247 218.234027,210.660009 228.108463,210.646742 L383.099227,210.442194 Z M196.215105,19.5417067 L196.218419,19.7225771 L196.218419,384.672572 C196.218419,396.763028 186.425726,406.562753 174.346415,406.562753 C174.106707,406.562753 173.866998,406.562753 173.628395,406.551697 C100.246717,404.139355 52.2009943,395.644196 29.48968,381.065115 C-7.95728944,357.026822 -11.6589604,51.8777046 29.48968,25.8527121 C54.6475658,9.94131476 103.475599,1.32598091 175.973559,0.00324466127 C186.952643,-0.193175516 196.015164,8.55294664 196.215105,19.5417067 Z M230.116711,0.00324466127 L230.482349,0.0066000211 C302.979204,1.32598091 351.807901,9.94131476 376.965124,25.8527121 C389.296294,33.6513654 398.623931,83.0844787 404.948033,174.152052 C404.983382,174.667245 405,175.182439 405,175.698737 C404.984486,187.788087 395.179642,197.575651 383.099227,197.560191 L228.108463,197.355644 C218.234027,197.342377 210.236385,189.328139 210.236385,179.445496 L210.236385,19.9034475 C210.236385,19.7828304 210.236385,19.6623238 210.239699,19.5417067 C210.43964,8.55294664 219.502161,-0.193175516 230.482349,0.0066000211 L230.116711,0.00324466127 Z" id="path-1"></path>
    </defs>
    <g id="Artboard" stroke="none" stroke-width="1" fill="none" fill-rule="evenodd">
        <g id="Logo-2021" transform="translate(22.000000, 40.000000)">
            <path d="M586.650624,294.231795 C629.429387,294.231795 656.96546,271.841736 669.257738,227.062722 C669.795885,225.103274 668.643345,223.079763 666.683034,222.541854 C666.365893,222.4557 666.038806,222.411519 665.709509,222.411519 L630.371972,222.411519 C628.700072,222.411519 627.238126,223.538146 626.812692,225.155187 C621.381503,245.826588 607.994147,256.161736 586.650624,256.161736 C555.288961,256.161736 538.257238,235.641657 538.257238,197.570493 C538.257238,159.500434 555.288961,138.710848 586.650624,138.710848 C608.938942,138.710848 622.278782,149.518738 626.671249,171.134517 C627.019332,172.848757 628.527688,174.080316 630.27694,174.080316 L666.057591,174.080316 C668.089729,174.080316 669.737318,172.434556 669.737318,170.402209 C669.737318,170.165838 669.714113,169.928363 669.668807,169.69641 C660.615352,123.478185 632.943361,100.370178 586.650624,100.370178 C525.820202,100.370178 495,143.03069 495,197.570493 C495,251.301775 525.820202,294.231795 586.650624,294.231795 Z M754.053904,294.231795 C800.014028,294.231795 824.616265,263.451677 824.616265,221.331282 C824.616265,178.941381 799.473672,148.160158 754.053904,148.160158 C708.634135,148.160158 683.490437,178.941381 683.490437,221.331282 C683.490437,263.721183 708.093779,294.231795 754.053904,294.231795 Z M754.053904,257.782091 C737.021076,257.782091 725.936588,246.981933 725.936588,221.331282 C725.936588,195.951243 736.750345,184.610966 754.053904,184.610966 C771.356357,184.610966 782.170114,195.680631 782.170114,221.331282 C782.170114,246.981933 771.356357,257.782091 754.053904,257.782091 Z M970.714697,235.371045 L970.714697,154.268245 C970.714697,152.237002 969.067107,150.590138 967.03497,150.590138 L932.75936,150.590138 C930.727223,150.590138 929.079633,152.237002 929.079633,154.268245 L929.079633,229.161341 C929.079633,245.361578 922.321311,255.081499 906.099571,255.081499 C889.608204,255.081499 882.849882,245.361578 882.849882,229.161341 L882.849882,154.268245 C882.849882,152.237002 881.202293,150.590138 879.170155,150.590138 L844.894546,150.590138 C842.862408,150.590138 841.214818,152.237002 841.214818,154.268245 L841.214818,235.371045 C841.214818,265.042209 859.233327,293.654122 904.450876,294.222959 L905.83105,294.231795 L906.099571,294.231795 C952.330426,294.231795 970.714697,265.341538 970.714697,235.371045 Z M1037.5454,288.123708 L1037.5454,213.501223 C1037.5454,196.491361 1048.36026,185.96071 1063.22945,185.96071 C1079.72082,185.96071 1087.0217,195.680631 1087.0217,211.880868 L1087.0217,288.123708 C1087.0217,290.154951 1088.66819,291.801815 1090.70143,291.801815 L1124.97925,291.801815 C1127.01249,291.801815 1128.65898,290.154951 1128.65898,288.123708 L1128.65898,198.921341 C1128.65898,167.601105 1107.56409,148.160158 1076.20684,148.160158 C1057.82257,148.160158 1045.38664,154.911085 1037.5454,164.090888 L1036.46468,164.090888 L1033.89771,153.41002 C1033.49991,151.756529 1032.02138,150.590138 1030.31965,150.590138 L999.591163,150.590138 C997.559026,150.590138 995.911436,152.237002 995.911436,154.268245 L995.911436,288.123708 C995.911436,290.154951 997.559026,291.801815 999.591163,291.801815 L1033.86567,291.801815 C1035.89891,291.801815 1037.5454,290.154951 1037.5454,288.123708 Z M1198.618,294.231795 C1203.92211,294.231795 1209.22622,294.231795 1214.51928,294.231795 C1216.17682,294.231795 1217.63545,293.125049 1218.07746,291.52789 L1226.00047,262.703905 C1226.53088,260.745562 1225.38166,258.720947 1223.42577,258.183037 C1223.10531,258.095779 1222.7738,258.051598 1222.4423,258.051598 C1217.23764,258.051598 1213.43636,258.051598 1211.04951,258.051598 C1198.618,258.051598 1192.93818,252.382012 1192.93818,239.151874 L1192.93818,185.96071 L1223.05006,185.96071 C1225.0833,185.96071 1226.72979,184.313846 1226.72979,182.282604 L1226.72979,154.268245 C1226.72979,152.237002 1225.0833,150.590138 1223.05006,150.590138 L1192.93818,150.590138 L1192.93818,118.379645 C1192.93818,116.347298 1191.29169,114.701538 1189.25845,114.701538 C1188.93799,114.701538 1188.62859,114.742406 1188.31918,114.823037 L1154.04136,123.8957 C1152.42803,124.323156 1151.3009,125.783353 1151.3009,127.451203 L1151.3009,185.96071 L1151.3009,249.141302 C1151.3009,274.791953 1165.90931,294.231795 1198.618,294.231795 Z M1292.75492,288.123708 L1292.75492,95.6781065 C1292.75492,93.6468639 1291.10844,92 1289.0752,92 L1254.79738,92 C1252.76413,92 1251.11765,93.6468639 1251.11765,95.6781065 L1251.11765,288.123708 C1251.11765,290.154951 1252.76413,291.801815 1254.79738,291.801815 L1289.0752,291.801815 C1291.10844,291.801815 1292.75492,290.154951 1292.75492,288.123708 Z M1376.58198,369.588797 L1455.76795,153.903748 C1455.92265,153.498383 1456,153.069822 1456,152.636844 L1456,151.940986 C1456,151.195424 1455.39224,150.590138 1454.64082,150.590138 L1415.6335,150.590138 C1414.04227,150.590138 1412.62784,151.621775 1412.13058,153.141617 L1382.05185,246.569941 L1351.65266,153.131677 C1351.1554,151.616252 1349.75202,150.590138 1348.14974,150.590138 L1309.46287,150.590138 C1308.71146,150.590138 1308.11475,151.195424 1308.11475,151.940986 L1308.11475,152.624694 C1308.11475,153.065404 1308.1921,153.501696 1308.3468,153.914793 L1359.55358,290.563629 C1359.85193,291.364418 1359.86298,292.243629 1359.58673,293.05215 L1334.06069,367.124576 C1333.40873,369.04426 1334.42535,371.138462 1336.34809,371.800079 C1336.73485,371.932623 1337.13265,372 1337.54151,372 L1373.12326,372 C1374.67029,372 1376.05157,371.036844 1376.58198,369.588797 Z" id="Shape" fill="#FFFFFF" fill-rule="nonzero"></path>
            <g id="Clipped">
                <mask id="mask-2" fill="white">
                    <use xlink:href="#path-1"></use>
                </mask>
                <g id="Shape"></g>
                <g id="Group" mask="url(#mask-2)" fill="#2CAE5C" fill-rule="nonzero">
                    <path d="M383.099227,210.442194 C395.179642,210.426735 404.984486,220.214299 405,232.303649 C405,232.819947 404.983382,233.336246 404.948033,233.850334 C398.623931,324.917907 389.296294,374.351021 376.965124,382.149674 C375.396881,383.141546 373.736652,384.105068 371.984436,385.040239 C371.646584,376.178596 369.69584,368.481881 366.131854,361.948796 C361.65693,353.748823 353.072721,346.720748 340.379226,340.865678 C338.385339,339.945848 337.512668,337.582151 338.432839,335.585501 C338.688012,335.029402 339.069115,334.539637 339.545218,334.1549 L339.545218,334.1549 L364.653837,313.856733 C365.588368,313.100526 366.131854,311.9629 366.131854,310.760046 L366.131854,310.760046 L366.131854,276.296278 C366.131854,274.09731 364.351163,272.316245 362.155126,272.316245 L362.155126,272.316245 L249.123261,272.316245 C246.927224,272.316245 245.146533,274.09731 245.146533,276.296278 L245.146533,276.296278 L245.146533,308.681584 C245.146533,310.879447 246.927224,312.661617 249.123261,312.661617 L249.123261,312.661617 L300.938922,312.661617 L267.514523,341.47816 C266.638539,342.234367 266.133715,343.334404 266.133715,344.493035 L266.133715,344.493035 L266.133715,369.671165 C266.133715,371.869028 267.914406,373.651198 270.110443,373.651198 C270.418639,373.651198 270.726836,373.61582 271.026195,373.543958 C293.836044,368.141064 309.145342,368.547912 316.955194,374.762291 C323.857231,380.255449 327.094528,388.52849 326.667087,399.582036 C301.409355,404.484693 269.346812,407.289015 230.482349,407.99667 C219.502161,408.195672 210.43964,399.44955 210.239699,388.461343 L210.236799,388.280444 L210.236799,388.280444 L210.236385,228.55689 C210.236385,218.674247 218.234027,210.660009 228.108463,210.646742 L383.099227,210.442194 Z M196.215105,19.5417067 L196.218419,19.7225771 L196.218419,384.672572 C196.218419,396.763028 186.425726,406.562753 174.346415,406.562753 C174.106707,406.562753 173.866998,406.562753 173.628395,406.551697 C100.246717,404.139355 52.2009943,395.644196 29.48968,381.065115 C-7.95728944,357.026822 -11.6589604,51.8777046 29.48968,25.8527121 C54.6475658,9.94131476 103.475599,1.32598091 175.973559,0.00324466127 C186.952643,-0.193175516 196.015164,8.55294664 196.215105,19.5417067 Z M139.616324,121.289477 C138.491794,115.910905 133.223734,112.463754 127.848523,113.589219 L127.848523,113.589219 L62.3835168,127.303749 C57.7775821,128.268907 54.4785548,132.332963 54.4785548,137.042668 L54.4785548,137.042668 L54.4785548,162.404322 C54.4785548,163.088667 54.5491417,163.771906 54.6894319,164.442983 C55.8142936,169.821555 61.0829058,173.268706 66.4571223,172.143241 L66.4571223,172.143241 L92.190529,166.751402 L92.190529,287.873752 C92.190529,293.369514 96.642255,297.823834 102.132349,297.823834 L102.132349,297.823834 L129.885492,297.823834 C135.37669,297.823834 139.827311,293.369514 139.827311,287.873752 L139.827311,287.873752 L139.827311,123.328139 C139.827311,122.642688 139.756614,121.960555 139.616324,121.289477 Z M230.13985,0.00326153507 L230.482349,0.0066000211 C262.51722,0.589607328 289.930706,2.59720383 312.722523,6.02939907 C320.494454,7.6037733 324.357678,9.63709493 324.816964,11.8654395 C326.776607,21.3705318 320.002914,25.9244633 302.990251,45.339174 C298.838989,50.0772925 293.690231,55.5327014 287.546186,61.7054007 L287.546186,61.7054007 L286.381888,62.8712186 C276.782509,72.4604444 264.845697,83.7323396 250.572558,96.6851354 C248.078265,98.9482263 246.656585,102.160997 246.656585,105.529653 L246.656585,105.529653 L246.656585,131.394338 C246.656585,133.592201 248.437276,135.374371 250.633313,135.374371 L250.633313,135.374371 L361.947452,135.374371 C364.14349,135.374371 365.92418,133.592201 365.92418,131.394338 L365.92418,131.394338 L365.92418,99.53307 C365.92418,97.3341018 364.14349,95.5530372 361.947452,95.5530372 L361.947452,95.5530372 L314.322821,95.5530372 C340.987887,68.0309995 357.269274,46.4146673 363.165878,30.7038194 C364.487493,27.1826392 365.39676,23.6114207 365.893665,19.9901618 C369.987776,21.8197586 373.678463,23.7739705 376.965124,25.8527121 C389.296294,33.6513654 398.623931,83.0844787 404.948033,174.152052 C404.983382,174.667245 405,175.182439 405,175.698737 C404.984486,187.788087 395.179642,197.575651 383.099227,197.560191 L228.108463,197.355644 C218.234027,197.342377 210.236385,189.328139 210.236385,179.445496 L210.236385,19.9034475 C210.236385,19.7828304 210.236385,19.6623238 210.239699,19.5417067 C210.437557,8.66741289 219.31432,-0.0107212959 230.13985,0.00326153507 Z" id="Combined-Shape"></path>
                </g>
            </g>
        </g>
    </g>
</svg>