<?xml version="1.0" encoding="UTF-8" standalone="no"?>
<svg width="162px" height="48px" viewBox="0 0 162 48" version="1.1" xmlns="http://www.w3.org/2000/svg" xmlns:xlink="http://www.w3.org/1999/xlink">
    <!-- Generator: Sketch 3.6.1 (26313) - http://www.bohemiancoding.com/sketch -->
    <title>countly_logo_vector (1)</title>
    <desc>Created with Sketch.</desc>
    <defs></defs>
    <g id="Page-1" stroke="none" stroke-width="1" fill="none" fill-rule="evenodd">
        <g id="Artboard-7" transform="translate(-482.000000, -587.000000)">
            <g id="countly_logo_vector-(1)" transform="translate(482.000000, 587.000000)">
                <g id="Layer_1">
                    <g id="Group">
                        <g transform="translate(56.268072, 5.731343)" id="Shape" fill="#FFFFFF">
                            <path d="M18.3445835,21.1562985 C16.4274159,26.0112239 11.3268105,27.8956418 8.03512833,27.8956418 C2.6815551,27.8956418 0.113251416,25.5042388 0.113251416,18.9829254 C0.113251416,12.4250746 3.26021022,0.142567164 12.7375655,0.142567164 C16.1379691,0.142567164 18.7785152,1.48298507 18.7785152,4.99749254 C18.7785152,6.91773134 18.0911388,8.33074627 16.2462136,8.33074627 C15.6675585,8.33074627 14.871699,8.18579104 14.1843226,7.38889552 C15.0524245,6.95402985 15.8482839,5.43235821 15.8482839,4.05564179 C15.8482839,2.89623881 15.2696288,1.84549254 13.6416695,1.84549254 C9.66261077,1.84549254 6.11772226,11.3740896 6.11772226,18.7651343 C6.11772226,22.0986269 6.98582416,24.417194 10.4584702,24.417194 C13.2799802,24.417194 15.8482839,23.0407164 17.5122452,20.7945075 L18.3445835,21.1562985 L18.3445835,21.1562985 Z"></path>
                            <path d="M31.4388314,14.6710448 C31.5835548,14.7436418 31.7280397,14.7436418 31.8365227,14.7436418 C33.5007224,14.7436418 35.8520602,13.656597 37.4073002,12.5695522 L37.732749,13.5479403 C36.357996,15.0333134 33.971133,16.1201194 31.33011,16.5552239 C30.7512165,23.2580299 27.133847,27.4607761 22.6841393,27.4607761 C19.3204531,27.4607761 16.8968728,25.8665075 16.8968728,21.7358806 C16.8968728,17.5694328 19.3564551,8.87379104 26.8083982,8.87379104 C29.919355,8.87402985 31.4388314,10.8666269 31.4388314,14.6710448 L31.4388314,14.6710448 Z M28.328113,16.6638806 C27.5680172,16.4826269 27.3510513,15.8667463 27.3510513,15.1419701 C27.3510513,14.1275224 27.821462,13.4753433 28.4723596,13.1856716 C28.4001171,11.664 28.0384278,11.0841791 27.0976066,11.0841791 C24.5293029,11.0841791 22.2866865,17.7146269 22.2866865,21.2649552 C22.2866865,23.6563582 22.7568587,24.1996418 24.1313732,24.1996418 C25.9042943,24.1996418 27.7494579,20.9389851 28.328113,16.6638806 L28.328113,16.6638806 Z"></path>
                            <path d="M49.8868909,9.20023881 L47.2823468,21.5185672 C47.1738638,21.9897313 47.1376234,22.352 47.1376234,22.6779701 C47.1376234,23.6924179 47.608034,24.0183881 48.6208593,24.0183881 C50.0313759,24.0183881 51.0084376,22.6414328 51.5508522,20.8298507 L53.0703286,20.8298507 C51.0084376,26.7355224 47.7527574,27.5326567 45.7993493,27.5326567 C43.7374583,27.5326567 42.4354246,26.337194 42.2182203,24.0905075 C40.4095356,27.0614925 38.383885,27.5326567 36.8644087,27.5326567 C34.6937963,27.5326567 32.9938329,26.2280597 32.9938329,23.1847164 C32.9938329,22.4962388 33.1023159,21.6995821 33.2835181,20.8298507 L35.7431004,9.19976119 L40.9521887,9.19976119 L38.3476446,21.5180896 C38.2754021,21.880597 38.2391616,22.2065672 38.2391616,22.5325373 C38.2391616,23.3659701 38.52837,24.0181493 39.3242294,24.0181493 C40.7352228,24.0181493 41.6753288,22.641194 42.2184587,20.8296119 L44.6780411,9.19952239 L49.8868909,9.19952239 L49.8868909,9.20023881 Z"></path>
                            <path d="M60.665803,12.3522388 C59.3632925,12.3522388 58.3867077,13.8739104 57.844293,15.6854925 L55.3842338,27.3158209 L50.1751456,27.3158209 L54.0094809,9.20023881 L59.2185691,9.20023881 L58.8208778,11.0841791 C60.3398774,9.34519403 61.9315962,9.05528358 63.0529044,9.05528358 C65.3682402,9.05528358 67.068442,10.2509851 67.068442,13.1496119 C67.068442,16.0842985 65.3319997,20.4680597 65.3319997,22.4969552 C65.3319997,23.4027463 65.6939274,24.0188657 66.7787568,24.0188657 C68.3704756,24.0188657 69.0218501,22.7147463 69.8172327,20.8303284 L71.336709,20.8303284 C69.3110584,26.7725373 66.5257889,27.5331343 64.6086212,27.5331343 C61.4611856,27.5331343 60.3398774,25.5042388 60.3398774,23.438806 C60.3398774,20.9752836 61.9678366,16.5186866 61.9678366,14.1998806 C61.9678366,13.0044179 61.5339049,12.3522388 60.665803,12.3522388 L60.665803,12.3522388 Z"></path>
                            <path d="M78.7152176,3.47558209 L77.4854264,9.20023881 L79.6560388,9.20023881 L79.3663536,10.6493134 L77.1957412,10.6493134 L74.8808823,21.5185672 C74.7723993,21.9897313 74.7361589,22.352 74.7361589,22.6779701 C74.7361589,23.6924179 75.2065695,24.0183881 76.2193948,24.0183881 C77.6303882,24.0183881 78.9324218,22.6414328 79.4748365,20.8298507 L80.9943129,20.8298507 C78.9324218,26.7355224 75.3512929,27.5326567 73.3978848,27.5326567 C71.2272724,27.5326567 69.527309,26.2280597 69.527309,23.1847164 C69.527309,22.4962388 69.635792,21.6995821 69.8169942,20.8298507 L71.9876066,10.6490746 L70.7935791,10.6490746 L71.0832643,9.2 L72.276815,9.2 L73.3618827,4.1998806 L78.7152176,3.47558209 L78.7152176,3.47558209 Z"></path>
                            <path d="M88.6987471,1.95391045 L84.538963,21.5185672 C84.43048,21.9897313 84.3942396,22.352 84.3942396,22.6779701 C84.3942396,23.6924179 84.8646502,24.0183881 85.8774755,24.0183881 C87.2884689,24.0183881 88.5905026,22.6414328 89.1329172,20.8298507 L90.6523936,20.8298507 C88.5905026,26.7355224 85.0093736,27.5326567 83.0559655,27.5326567 C80.8853531,27.5326567 79.1853897,26.2280597 79.1853897,23.1847164 C79.1853897,22.4962388 79.2938727,21.6995821 79.4750749,20.8298507 L83.3451738,2.67820896 L88.6987471,1.95391045 L88.6987471,1.95391045 Z"></path>
                            <path d="M96.8015878,9.20023881 L94.1970437,21.5185672 C94.1248012,21.8087164 94.0885608,22.1346866 94.0885608,22.4243582 C94.0885608,23.257791 94.3417671,24.0186269 95.1736285,24.0186269 C96.584622,24.0186269 97.5247279,22.6416716 98.0678579,20.8300896 L100.52744,9.2 L105.772292,9.2 L101.359063,30.2139701 C100.273995,35.3948657 97.1632771,36.3734925 94.7759372,36.3734925 C92.5690844,36.3734925 90.5076702,34.8157612 90.5076702,32.4601791 C90.5076702,29.0908657 93.3291802,28.0398806 96.7653474,27.0254328 L97.1272751,25.4316418 C95.5720351,27.2069254 93.9438374,27.5328955 92.7140462,27.5328955 C90.5434338,27.5328955 88.8434705,26.2282985 88.8434705,23.1849552 C88.8434705,22.4964776 88.9519534,21.6998209 89.1331557,20.8300896 L91.592738,9.2 L96.8015878,9.2 L96.8015878,9.20023881 Z M93.9438374,33.1488955 C94.6674543,33.1488955 95.6077987,32.4604179 96.0779709,30.3228657 L96.5119026,28.1853134 C94.2332841,28.9461493 92.4968419,29.9968955 92.4968419,31.9534328 C92.4968419,32.4604179 93.1479779,33.1488955 93.9438374,33.1488955 L93.9438374,33.1488955 Z"></path>
                        </g>
                        <path d="M38.2360621,47.8698507 C43.5033259,47.8698507 47.7730234,43.5933134 47.7730234,38.3176119 L47.7730234,9.66089552 C47.7730234,4.38519403 43.5033259,0.108656716 38.2360621,0.108656716 L9.6251782,0.108656716 C4.35815289,0.108656716 0.0882168921,4.38519403 0.0882168921,9.66089552 L0.0882168921,38.3176119 C0.0882168921,43.5933134 4.35815289,47.8698507 9.6251782,47.8698507 L38.2360621,47.8698507 Z M19.7810883,2.77779104 L28.0806289,2.77779104 C28.5391183,2.77779104 28.9105829,3.15008955 28.9105829,3.60907463 C28.9105829,4.06829851 28.5388799,4.44035821 28.0806289,4.44035821 L19.7810883,4.44035821 C19.3225989,4.44035821 18.9511342,4.0680597 18.9511342,3.60907463 C18.9508958,3.14985075 19.3225989,2.77779104 19.7810883,2.77779104 L19.7810883,2.77779104 Z M23.9306202,45.7915224 C22.5902003,45.7915224 21.5034635,44.702806 21.5034635,43.3604776 C21.5034635,42.0176716 22.5902003,40.9289552 23.9306202,40.9289552 C25.2712785,40.9289552 26.3580152,42.0176716 26.3580152,43.3604776 C26.3580152,44.702806 25.2712785,45.7915224 23.9306202,45.7915224 L23.9306202,45.7915224 Z M41.8124226,7.14268657 C43.1292385,7.14268657 44.1966629,8.2118209 44.1966629,9.53074627 L44.1966629,37.2322388 C44.1966629,38.5511642 43.1292385,39.6202985 41.8124226,39.6202985 L6.04881771,39.6202985 C4.7322402,39.6202985 3.66457738,38.5511642 3.66457738,37.2322388 L3.66457738,9.53074627 C3.66457738,8.2118209 4.7322402,7.14268657 6.04881771,7.14268657 L41.8124226,7.14268657 Z" id="Shape" fill="#2FA732"></path>
                        <g transform="translate(8.106417, 7.880597)" id="Shape" fill="#FFFFFF">
                            <path d="M7.71683224,7.84334328 L3.89417973,7.84334328 C3.50745595,8.31641791 3.14958147,8.70041791 2.82031788,8.99414925 C2.49081587,9.2881194 2.17943408,9.53170149 1.88617252,9.72537313 C1.59267254,9.91904478 1.30274891,10.0876418 1.01640165,10.2309254 C0.729815964,10.3744478 0.436554404,10.5179701 0.135901699,10.6610149 L1.12369247,13.048597 L3.27117773,12.0377313 L3.27117773,20.0181493 L1.12369247,20.0181493 L1.12369247,22.878806 L9.71387194,22.878806 L9.71387194,20.0181493 L7.71659382,20.0181493 L7.71659382,7.84334328 L7.71683224,7.84334328 Z"></path>
                            <path d="M16.3787774,14.8095522 L16.3787774,0.0434626866 L15.2698672,0.0434626866 L15.2698672,30.9678806 L16.3787774,30.9678806 L16.3787774,15.9204776 L34.9088547,15.9204776 L34.9088547,14.8095522 L16.3787774,14.8095522 Z"></path>
                            <path d="M32.0396599,5.13862687 L28.4318275,5.13862687 L28.4318275,6.85946269 L24.6520913,6.85946269 C24.7808403,6.64429851 24.9703874,6.40429851 25.2212095,6.13874627 C25.4715547,5.87367164 25.7507492,5.60835821 26.0587931,5.34280597 C26.3665985,5.07773134 26.6815567,4.82650746 27.0036675,4.58985075 C27.3257784,4.35319403 27.615702,4.14901493 27.8734384,3.97683582 C28.4458945,3.6040597 28.9470618,3.2599403 29.3767019,2.94423881 C29.8061036,2.62901493 30.1637397,2.29564179 30.4503253,1.9441194 C30.7366726,1.59283582 31.4281023,0.717373134 31.5713951,0.272716418 L27.0034291,0.287761194 C26.7528454,0.581731343 26.4376489,0.868537313 26.0585547,1.1481791 C25.6789836,1.4278209 25.2674637,1.71104478 24.8237566,1.99785075 C24.379811,2.28489552 23.9647148,2.6001194 23.5782294,2.94423881 C23.2346604,3.21695522 22.9340077,3.47128358 22.6762713,3.7079403 C22.4185349,3.94459701 22.1715277,4.19558209 21.9354879,4.46065672 C21.6992096,4.72620896 21.4665078,5.02734328 21.2376207,5.3640597 C21.0084952,5.70125373 20.7436061,6.11367164 20.4429534,6.60083582 L20.4429534,9.7198806 L32.0396599,9.7198806 L32.0396599,5.13862687 L32.0396599,5.13862687 Z"></path>
                            <path d="M30.9765272,28.9029254 C30.7688598,28.6161194 30.550225,28.3725373 30.3213379,28.1717015 C30.0922124,27.9711045 29.8919363,27.8060896 29.7200325,27.6768955 C29.8630869,27.576597 30.0240232,27.4440597 30.203318,27.2790448 C30.3821361,27.1145075 30.5540398,26.9208358 30.7187908,26.6982687 C30.883065,26.4761791 31.0227814,26.2216119 31.1374634,25.934806 C31.2519069,25.648 31.3093671,25.318209 31.3093671,24.9449552 C31.3093671,24.2569552 31.1875324,23.6329552 30.9443399,23.0736716 C30.7006706,22.5143881 30.3463725,22.0339104 29.8814456,21.6324776 C29.4160419,21.2312836 28.8433474,20.9225075 28.163362,20.7075821 C27.4831383,20.4926567 26.7063528,20.3847164 25.8334824,20.3847164 C25.3466205,20.3847164 24.8702493,20.4532537 24.4053224,20.5893731 C23.9399187,20.7254925 23.5033643,20.8938507 23.0954208,21.0944478 C22.6874773,21.2955224 22.3222116,21.5142687 22.0001008,21.7506866 C21.6779899,21.9871045 21.4235915,22.2130149 21.2376207,22.4284179 L23.3207315,24.9447164 C23.6929114,24.5435224 24.1008549,24.2278209 24.5448005,23.9983284 C24.9885076,23.7693134 25.4179093,23.654209 25.8334824,23.654209 C26.062131,23.654209 26.2876802,23.6900299 26.5098913,23.7619104 C26.7318641,23.833791 26.9321403,23.9376716 27.1111968,24.0740299 C27.2900148,24.2101493 27.4366456,24.3856716 27.5515659,24.600597 C27.6660095,24.816 27.7234697,25.0669851 27.7234697,25.353791 C27.7234697,25.841194 27.5479896,26.2106269 27.1972678,26.4616119 C26.8463077,26.712597 26.4133296,26.8379701 25.8980953,26.8379701 L24.3304573,26.8379701 L24.3304573,29.3977313 L25.9410116,29.3977313 C26.4848568,29.3977313 26.9180733,29.5123582 27.2401842,29.7413731 C27.562295,29.9713433 27.7234697,30.1411343 27.7234697,30.7288358 L31.7177875,30.7264478 C31.7177875,30.2395224 31.6460219,30.2829851 31.5029674,29.902806 C31.3594362,29.5233433 31.1839561,29.1897313 30.9765272,28.9029254 L30.9765272,28.9029254 Z"></path>
                        </g>
                    </g>
                </g>
            </g>
        </g>
    </g>
</svg>