<svg width="200" height="200" viewBox="0 0 200 200" fill="none" xmlns="http://www.w3.org/2000/svg">
<g clip-path="url(#clip0_4390_19119)">
<path fill-rule="evenodd" clip-rule="evenodd" d="M81.8599 60.3876C81.8599 60.3876 83.594 59.3972 85.2757 63.4852L92.5143 77.2896C92.5143 77.2896 90.4785 52.3081 90.8111 49.7839C90.8111 49.7839 92.0165 46.2037 94.5636 48.2364C94.5636 48.2364 95.9498 49.1883 96.9337 54.9683L100.188 75.2682L103.536 45.781C103.536 45.781 104.567 43.2287 106.771 43.7701C106.771 43.7701 108.928 43.4593 109.055 51.7289C109.055 51.7289 108.227 60.9992 108.29 64.6774C108.407 71.5902 107.819 76.5177 107.744 80.2008C107.724 81.2016 108.479 80.1241 108.479 80.1241C108.479 80.1241 109.087 63.3478 109.092 63.2603C109.225 61.0096 109.485 59.4895 109.681 57.7155C109.932 55.4461 110.101 52.9232 110.293 52.299C110.293 52.299 110.947 49.2374 114.021 50.6124C114.021 50.6124 115.253 51.7767 115.258 53.902C115.258 53.902 115.956 68.1199 115.53 70.8691C115.53 70.8691 115.62 78.3641 113.979 85.1967C113.979 85.1967 117.676 78.8178 121.539 77.7777C121.539 77.7777 125.186 76.4912 126.129 79.5686C126.129 79.5686 127.016 81.2523 124.364 84.3075C124.364 84.3075 120.456 88.7415 119.136 93.2035C119.136 93.2035 118.754 104.719 120.877 111.045C120.877 111.045 122.336 116.359 146.037 137.177C146.037 137.177 145.09 157.183 126.982 157.372C126.982 157.372 108.519 131.905 105.152 128.117C105.152 128.117 93.0558 125.295 90.8419 120.506C90.8419 120.506 83.2082 111.977 82.2931 95.3528L79.9106 63.1067C79.9106 63.1067 79.8267 60.7075 81.8599 60.3876Z" fill="#CE966E"/>
<path fill-rule="evenodd" clip-rule="evenodd" d="M112.942 140.784C112.942 140.784 109.735 137.205 110.162 135.586C110.162 135.586 118.135 124.12 129.118 120.466C129.118 120.466 131.041 120.748 133.34 124.131C133.34 124.131 118.42 141.791 112.942 140.784Z" fill="#FFFFFE"/>
<path fill-rule="evenodd" clip-rule="evenodd" d="M187.792 176.381L186.179 199.258L156.759 197.183C127.678 162.74 110.542 139.2 110.542 139.2C117.598 128.184 132.366 122.005 132.366 122.005C136.614 125.354 173.445 162.052 187.792 176.381Z" fill="#FDB744"/>
<path fill-rule="evenodd" clip-rule="evenodd" d="M116.587 140.606C116.117 141.58 114.946 141.989 113.972 141.518C112.998 141.048 112.589 139.877 113.06 138.903C113.53 137.928 114.701 137.52 115.675 137.991C116.65 138.461 117.058 139.632 116.587 140.606Z" fill="#FFFFFE"/>
<path fill-rule="evenodd" clip-rule="evenodd" d="M120.147 145.833C119.677 146.807 118.505 147.215 117.531 146.745C116.557 146.274 116.149 145.103 116.619 144.129C117.09 143.155 118.261 142.747 119.235 143.217C120.209 143.688 120.617 144.858 120.147 145.833Z" fill="#FFFFFE"/>
<path fill-rule="evenodd" clip-rule="evenodd" d="M117.301 89.0734C117.301 89.0734 113.715 97.0015 113.124 103.571C113.124 103.571 112.687 113.842 105.388 119.602C105.388 119.602 100.728 123.923 95.7489 126.303C95.7489 126.303 88.9037 134.173 83.1029 143.146L53.1119 196.334L15.7065 200.242L15.2429 195.806C27.6958 179.09 68.0902 125.008 69.83 122.862C69.83 122.862 74.2784 117.623 74.9026 115.815C74.9026 115.815 76.1369 98.7202 75.2 89.7541C75.2 89.7541 73.393 74.681 72.694 70.9581C72.694 70.9581 71.5653 65.3431 73.2027 64.7071C73.2027 64.7071 76.0866 63.3988 77.1719 67.8562C77.1719 67.8562 80.1853 76.6829 81.1435 78.4419C81.1435 78.4419 81.5171 64.2259 81.3419 61.0681C81.3419 61.0681 81.4616 51.8363 81.503 50.7474C81.503 50.7474 82.1536 48.8203 84.491 50.4352C84.491 50.4352 85.6274 50.9366 86.1892 54.8286C86.1892 54.8286 88.5398 71.3943 88.732 73.2334C88.732 73.2334 89.9719 53.9684 90.0219 51.4843C90.0219 51.4843 89.8504 43.9101 92.032 43.2949C92.032 43.2949 95.2829 41.793 95.6333 48.1091C95.6333 48.1091 96.2522 56.2559 96.2686 61.5999C96.2686 61.5999 96.9055 72.1465 96.9252 73.0742C96.9252 73.0742 99.787 58.2109 99.861 55.9564C99.861 55.9564 99.7923 50.8503 103.421 51.4785C103.421 51.4785 106.34 51.2507 105.166 62.9942C105.166 62.9942 104.052 76.0482 104.083 77.8265C104.083 77.8265 104.495 97.3347 105.352 95.8999C105.352 95.8999 108.924 90.0648 109.912 87.2887C109.912 87.2887 112.804 78.2714 118.064 79.6972C118.064 79.6972 122.576 80.6201 117.301 89.0734Z" fill="#F4BC8F"/>
<path fill-rule="evenodd" clip-rule="evenodd" d="M96.9735 73.0767C96.9735 73.0767 96.1772 78.3336 95.9694 80.1314C95.9694 80.1314 95.9497 86.3883 96.2592 88.209C96.2592 88.209 95.3145 81.599 95.555 79.396L96.7924 71.3436L96.9735 73.0767Z" fill="#E6A879"/>
<path fill-rule="evenodd" clip-rule="evenodd" d="M96.9742 73.1144L96.7886 71.3711L96.7954 71.3712L96.4902 73.4849L96.1899 75.5992L95.6672 79.2996L95.6487 79.4319L95.6438 79.4649C95.6428 79.4729 95.6419 79.4863 95.6411 79.4965L95.636 79.5624L95.6262 79.6949L95.6205 79.8277C95.6068 80.182 95.6127 80.5372 95.6247 80.8926C95.637 81.2475 95.6575 81.6027 95.6822 81.9575C95.7293 82.6669 95.7936 83.3757 95.8653 84.0837C95.9374 84.7916 96.0177 85.4991 96.1043 86.2055L96.2353 87.2651C96.2805 87.6181 96.3264 87.971 96.3752 88.3233L96.2713 88.3394C96.245 88.1703 96.2224 88.0012 96.2059 87.8321C96.1966 87.7474 96.1886 87.6628 96.1812 87.5782C96.1735 87.4936 96.1665 87.409 96.1603 87.3243C96.1468 87.1549 96.1358 86.9857 96.1253 86.8161C96.1147 86.6468 96.106 86.4773 96.0973 86.3079C96.0811 85.9692 96.0663 85.63 96.0561 85.2911C96.0455 84.9522 96.0367 84.6132 96.0291 84.2743C96.0147 83.5963 96.005 82.918 95.9996 82.2402C95.9941 81.5623 95.9917 80.8841 95.9941 80.2061L95.994 80.2046L95.9942 80.2038L96.1048 79.3159L96.2237 78.4289L96.4691 76.6565C96.6335 75.4754 96.8025 74.2947 96.9742 73.1144ZM96.974 73.114C96.8069 74.295 96.6425 75.4764 96.4823 76.6582L96.363 77.5448L96.2482 78.4321L96.1377 79.3196L96.0359 80.2082L96.036 80.2059C96.0403 80.8835 96.0491 81.5615 96.0613 82.239C96.0735 82.917 96.0895 83.5945 96.1106 84.2719C96.1216 84.6104 96.1337 84.9491 96.1473 85.2876C96.162 85.6261 96.1763 85.9646 96.1943 86.3027C96.2037 86.4717 96.2131 86.6407 96.2244 86.8095C96.2352 86.9784 96.2469 87.1475 96.2608 87.3161C96.2677 87.4003 96.2746 87.4846 96.283 87.5687C96.2903 87.653 96.2987 87.7367 96.3082 87.8207C96.3254 87.9889 96.3485 88.1557 96.3748 88.3215L96.2709 88.3376C96.2209 87.9847 96.1735 87.6319 96.1268 87.2787C96.0813 86.9253 96.035 86.5724 95.9939 86.2182C95.9102 85.5111 95.832 84.8027 95.7628 84.0937C95.694 83.3846 95.6318 82.6745 95.5875 81.9629C95.5662 81.6074 95.5489 81.2511 95.5402 80.8946C95.5315 80.5382 95.5291 80.1811 95.5466 79.8238L95.5537 79.69L95.5649 79.5559L95.5707 79.4892C95.5721 79.4773 95.5722 79.4683 95.5741 79.4541L95.5794 79.4214L95.599 79.2894L95.6791 78.7612L96.158 75.5943L96.4755 73.4823L96.7884 71.37L96.7924 71.3436L96.7951 71.3701L96.974 73.114Z" fill="#E6A879"/>
<path fill-rule="evenodd" clip-rule="evenodd" d="M81.1151 78.4114C81.1151 78.4114 81.2594 86.0764 81.4519 87.918C81.4519 87.918 80.6426 79.9761 80.8102 77.7416L81.1151 78.4114Z" fill="#E6A879"/>
<path fill-rule="evenodd" clip-rule="evenodd" d="M81.1324 78.5783L80.8373 77.9136L80.8531 77.9104L80.8457 78.2269L80.8418 78.3851L80.8442 78.5434C80.8486 78.7549 80.8479 78.9662 80.8588 79.1773L80.8712 79.4943C80.875 79.5999 80.8798 79.7058 80.8859 79.8115L80.9193 80.4453L80.9598 81.0788C80.9724 81.2902 80.9895 81.5011 81.0043 81.7122C81.0194 81.9233 81.0346 82.1344 81.052 82.3453L81.1021 82.9785L81.1534 83.6116L81.2067 84.2445C81.2422 84.6662 81.2807 85.0879 81.3185 85.5097L81.4375 86.7746L81.5605 88.039L81.4654 88.0486L81.4209 87.4561L81.3989 87.16C81.3915 87.0612 81.3884 86.9627 81.3827 86.8641L81.3528 86.272C81.3434 86.0749 81.3319 85.8773 81.3242 85.6801L81.2771 84.4964C81.2687 84.2993 81.2632 84.1018 81.2574 83.9047L81.2396 83.3129C81.2273 82.9181 81.2154 82.5236 81.2057 82.1289C81.1958 81.7347 81.1838 81.3398 81.1758 80.9453L81.1518 79.7619C81.1445 79.3673 81.1378 78.9727 81.1324 78.5783ZM81.1324 78.5782L81.2646 82.1283C81.2788 82.5229 81.2947 82.9173 81.3109 83.3117L81.3352 83.9033L81.4114 85.6776C81.4198 85.8748 81.4322 86.0716 81.4423 86.2689L81.4741 86.8597C81.4801 86.9583 81.4835 87.0571 81.4911 87.1552L81.5143 87.4496L81.5604 88.0385L81.4654 88.0485L81.4016 87.4159L81.3414 86.7834L81.2272 85.5173C81.1907 85.0953 81.1538 84.6734 81.1196 84.2512L81.0685 83.6177L81.0194 82.984L80.9755 82.3502C80.9604 82.1391 80.9475 81.9273 80.9346 81.716C80.9221 81.5046 80.9072 81.2935 80.897 81.0818L80.8632 80.4473L80.8364 79.8124C80.8316 79.7066 80.8291 79.6008 80.8269 79.4951L80.82 79.1775C80.813 78.9656 80.8169 78.754 80.8165 78.5425L80.8167 78.3839L80.8232 78.2253L80.8364 77.9083L80.8378 77.871L80.8523 77.9055L81.1324 78.5782Z" fill="#E6A879"/>
<path fill-rule="evenodd" clip-rule="evenodd" d="M88.7033 73.1087C88.7033 73.1087 88.296 78.8647 88.3758 79.6283C88.3758 79.6283 88.1459 84.1599 88.5348 87.8348C88.5348 87.8348 87.8359 81.1532 87.9942 78.6961C87.9942 78.6961 88.4693 73.6648 88.7033 73.1087Z" fill="#E6A879"/>
<path fill-rule="evenodd" clip-rule="evenodd" d="M88.7033 73.1087C88.6768 73.1805 88.6613 73.2561 88.6458 73.3313C88.6307 73.4069 88.6174 73.4826 88.6053 73.5586C88.5809 73.7102 88.5596 73.8626 88.5394 74.0153C88.4989 74.3203 88.4629 74.6259 88.4291 74.9317C88.3612 75.5437 88.301 76.1563 88.2435 76.7695C88.1855 77.3823 88.1291 77.9957 88.0766 78.609C88.054 78.9133 88.0527 79.2221 88.0534 79.5295C88.0548 79.8369 88.064 80.1449 88.0742 80.4525C88.0863 80.7602 88.0994 81.0679 88.1166 81.3754C88.133 81.6827 88.1509 81.9903 88.1703 82.298C88.2097 82.9126 88.2549 83.5274 88.3041 84.1414C88.4033 85.3701 88.5166 86.5977 88.6428 87.8235L88.5348 87.8348L88.4871 87.3228C88.4697 87.1523 88.4584 86.9815 88.4456 86.8105C88.434 86.6394 88.4183 86.4687 88.41 86.2976L88.3804 85.7844C88.371 85.6134 88.3655 85.4424 88.3575 85.2713L88.3467 85.0145L88.3389 84.7577L88.324 84.2441L88.3141 83.7304C88.3105 83.5592 88.3101 83.388 88.3083 83.217C88.3061 83.0456 88.3054 82.8745 88.3058 82.7032C88.3058 82.532 88.3047 82.3609 88.3065 82.1899L88.3109 81.6762L88.3197 81.1627L88.3326 80.6496C88.3418 80.3074 88.3539 79.9656 88.3696 79.623L88.3695 79.629C88.3582 79.4894 88.3597 79.3537 88.3604 79.2169C88.3611 79.0806 88.3648 78.9446 88.3685 78.8083C88.3766 78.5364 88.388 78.2645 88.3998 77.9929C88.4248 77.4493 88.4536 76.9063 88.4864 76.3637C88.5191 75.8208 88.5537 75.278 88.5895 74.7358L88.6447 73.9221L88.7033 73.1087ZM88.7033 73.1087L88.6152 74.7373C88.5868 75.2805 88.5592 75.8233 88.5338 76.3667C88.5091 76.9096 88.4832 77.4526 88.4633 77.9961C88.4533 78.2674 88.4445 78.5391 88.4385 78.8108C88.4359 78.9466 88.4333 79.0824 88.4336 79.2179C88.4338 79.3531 88.4339 79.4897 88.4457 79.621L88.4461 79.6244L88.446 79.627C88.4331 79.9685 88.4236 80.3105 88.4172 80.652L88.4088 81.1651L88.4032 81.6778L88.4001 82.1906C88.399 82.3616 88.4004 82.5326 88.4007 82.7034C88.4007 82.8747 88.4022 83.0457 88.4047 83.2167C88.4072 83.3876 88.4075 83.5584 88.4119 83.7292L88.4231 84.242L88.4394 84.7547L88.4479 85.011L88.4593 85.267C88.4677 85.4377 88.4738 85.6087 88.4836 85.7792L88.5145 86.2912C88.5232 86.4618 88.5391 86.6321 88.5511 86.8025C88.5645 86.973 88.5761 87.1434 88.5939 87.3135L88.6428 87.8235L88.5348 87.8348C88.4721 87.2211 88.4149 86.6072 88.3599 85.9931C88.3048 85.3785 88.2534 84.764 88.2055 84.1491C88.1581 83.5342 88.1143 82.9192 88.0766 82.3036C88.0583 81.9958 88.04 81.6876 88.0265 81.3796C88.0114 81.0714 88.0008 80.7631 87.9912 80.4548C87.9834 80.1462 87.9771 79.8378 87.9781 79.5291C87.9802 79.2203 87.9841 78.912 88.0095 78.6022L88.0978 77.6828C88.1286 77.3762 88.1591 77.0697 88.1917 76.7636C88.257 76.1512 88.3253 75.5392 88.401 74.9282C88.4392 74.6224 88.4789 74.3171 88.5238 74.0128C88.5466 73.8606 88.5701 73.7083 88.5974 73.5568C88.6111 73.4814 88.6254 73.4056 88.6417 73.3306C88.6587 73.2556 88.6753 73.1803 88.7033 73.1087Z" fill="#E6A879"/>
<path fill-rule="evenodd" clip-rule="evenodd" d="M72.669 65.8901C72.669 65.8901 74.2006 64.9559 74.9091 65.8265C74.9091 65.8265 75.3972 67.6866 74.2223 67.8976C74.2223 67.8976 72.446 68.5144 72.669 65.8901Z" fill="#F4C5A1"/>
<path fill-rule="evenodd" clip-rule="evenodd" d="M81.8068 51.5406C81.8068 51.5406 83.3381 50.6064 84.047 51.4766C84.047 51.4766 84.5351 53.3366 83.3602 53.548C83.3602 53.548 81.5839 54.1648 81.8068 51.5406Z" fill="#F4C5A1"/>
<path fill-rule="evenodd" clip-rule="evenodd" d="M91.6085 45.0589C91.6085 45.0589 93.3699 44.1442 94.0607 45.2301C94.0607 45.2301 94.4158 47.438 93.1126 47.5541C93.1126 47.5541 91.1137 48.0745 91.6085 45.0589Z" fill="#F4C5A1"/>
<path fill-rule="evenodd" clip-rule="evenodd" d="M100.98 52.9951C100.98 52.9951 102.747 52.1227 103.426 53.16C103.426 53.16 103.76 55.2692 102.457 55.3795C102.457 55.3795 100.457 55.8755 100.98 52.9951Z" fill="#F4C5A1"/>
<path fill-rule="evenodd" clip-rule="evenodd" d="M116.448 81.6348C116.448 81.6348 118.962 81.581 119.173 83.1804C119.173 83.1804 118.396 85.855 116.837 85.2659C116.837 85.2659 114.261 84.7466 116.448 81.6348Z" fill="#F4C5A1"/>
<path fill-rule="evenodd" clip-rule="evenodd" d="M77.46 151.9C77.46 151.9 81.5185 153.156 80.7648 148.037C80.7648 148.037 76.4995 141.099 60.6889 133.162C60.6889 133.162 55.6579 134.605 58.5109 138.668C58.5109 138.668 66.9908 145.325 77.46 151.9Z" fill="#298BE5"/>
<path fill-rule="evenodd" clip-rule="evenodd" d="M84.0011 142.651C84.0011 142.651 73.9456 135.487 61.3919 130.128C61.3919 130.128 60.2781 129.116 62.5541 128.764C62.5541 128.764 75.2995 133.178 85.0693 141.398C85.0693 141.398 85.2928 142.743 84.0011 142.651Z" fill="#FFBD39"/>
<path fill-rule="evenodd" clip-rule="evenodd" d="M87.2162 140.739C87.2162 140.739 77.1606 133.575 64.6066 128.216C64.6066 128.216 63.4928 127.204 65.7689 126.852C65.7689 126.852 78.5144 131.266 88.284 139.486C88.284 139.486 88.5079 140.831 87.2162 140.739Z" fill="#7384F2"/>
<path fill-rule="evenodd" clip-rule="evenodd" d="M83.5421 144.538C83.5421 144.538 73.4862 137.374 60.9324 132.015C60.9324 132.015 59.8186 131.003 62.095 130.651C62.095 130.651 74.8404 135.065 84.6098 143.285C84.6098 143.285 84.8333 144.629 83.5421 144.538Z" fill="#CEE564"/>
<path fill-rule="evenodd" clip-rule="evenodd" d="M90.9113 21.3458C91.0763 22.8441 91.2409 24.3423 91.4055 25.8405C91.643 28.0034 91.8809 30.1662 92.1184 32.329C92.1479 32.5976 92.1775 32.8661 92.2071 33.1346C92.2738 33.7434 92.8388 34.1981 93.4614 34.1331C94.079 34.0685 94.5488 33.5057 94.4821 32.8969C94.3175 31.3987 94.1529 29.9004 93.9879 28.4022C93.7504 26.2394 93.5125 24.0766 93.2751 21.9137C93.2455 21.6452 93.2159 21.3767 93.1863 21.1081C93.1196 20.4994 92.5546 20.0446 91.932 20.1097C91.3144 20.1742 90.8446 20.7371 90.9113 21.3458Z" fill="#F5BF2D"/>
<path fill-rule="evenodd" clip-rule="evenodd" d="M76.3122 23.2983C76.7651 24.5055 77.2177 25.7129 77.6702 26.9202C78.512 29.1652 79.3538 31.4103 80.1957 33.6554C80.6523 34.873 81.1089 36.0906 81.5652 37.3083C81.5652 37.3083 81.5652 37.3084 81.5652 37.3084C81.7797 37.8802 82.4571 38.1632 83.021 37.9432C83.5969 37.7185 83.8724 37.0623 83.6579 36.4906C83.2054 35.2833 82.7525 34.076 82.2999 32.8687C81.4581 30.6237 80.6163 28.3786 79.7745 26.1335C79.3182 24.9159 78.8616 23.6983 78.4049 22.4807C78.4049 22.4806 78.4049 22.4806 78.4049 22.4805C78.1905 21.9087 77.513 21.6258 76.9495 21.8457C76.3732 22.0704 76.0981 22.7266 76.3122 23.2983Z" fill="#F5BF2D"/>
<path fill-rule="evenodd" clip-rule="evenodd" d="M64.2636 34.1763C65.347 35.2247 66.43 36.2732 67.5133 37.3216C69.0771 38.8351 70.6409 40.3486 72.2047 41.862C72.3991 42.0499 72.5931 42.2378 72.7872 42.4258C73.2266 42.851 73.9479 42.8539 74.384 42.4154C74.8143 41.9829 74.8195 41.2545 74.379 40.8283C73.2957 39.7799 72.2124 38.7315 71.1294 37.6831C69.5656 36.1696 68.0018 34.6561 66.438 33.1427C66.2436 32.9548 66.0495 32.7669 65.8555 32.5789C65.4161 32.1537 64.6948 32.1508 64.2587 32.5892C63.8284 33.0218 63.8232 33.7502 64.2636 34.1763Z" fill="#F5BF2D"/>
<path fill-rule="evenodd" clip-rule="evenodd" d="M63.9795 52.7913C65.6916 53.4363 67.404 54.0809 69.1165 54.7259C69.1908 54.7536 69.2648 54.7818 69.339 54.8096C69.9178 55.0278 70.5794 54.5701 70.7323 54.0174C70.813 53.7256 70.7707 53.4077 70.6175 53.1463C70.458 52.8742 70.2263 52.736 69.9398 52.6281C68.2278 51.9834 66.5153 51.3385 64.8029 50.6937C64.7286 50.6658 64.6546 50.6377 64.5803 50.6098C64.0016 50.3919 63.34 50.8495 63.1871 51.402C63.1063 51.6939 63.1487 52.012 63.3018 52.2731C63.4614 52.5452 63.693 52.6834 63.9795 52.7913Z" fill="#F5BF2D"/>
<path fill-rule="evenodd" clip-rule="evenodd" d="M103.894 29.3657C103.453 31.7223 103.011 34.0789 102.569 36.4355C102.329 37.7136 104.527 38.18 104.765 36.9128C105.207 34.5561 105.649 32.1996 106.091 29.8429C106.33 28.5648 106.57 27.2867 106.81 26.0086C106.922 25.4084 106.538 24.8095 105.932 24.6875C105.338 24.5681 104.72 24.9637 104.607 25.5639C104.37 26.8312 104.132 28.0984 103.894 29.3657Z" fill="#F5BF2D"/>
<path fill-rule="evenodd" clip-rule="evenodd" d="M120.232 26.1303C119.508 27.4542 118.784 28.7781 118.06 30.102C117.016 32.0131 115.971 33.9243 114.926 35.8354C114.796 36.0727 114.666 36.31 114.537 36.5473C114.242 37.086 114.571 37.7968 115.098 38.0356C115.688 38.3031 116.293 38.0111 116.587 37.4744C117.31 36.1505 118.034 34.8266 118.758 33.5027C119.803 31.5915 120.848 29.6804 121.892 27.7693C122.022 27.532 122.152 27.2947 122.282 27.0574C122.576 26.5187 122.247 25.8079 121.72 25.5692C121.13 25.3016 120.525 25.5937 120.232 26.1303Z" fill="#F5BF2D"/>
<path fill-rule="evenodd" clip-rule="evenodd" d="M126.984 41.171C125.553 42.2794 124.122 43.3881 122.69 44.4964C122.629 44.5445 122.566 44.5926 122.504 44.6407C122.023 45.0139 121.894 45.7038 122.264 46.2047C122.618 46.6859 123.347 46.8189 123.83 46.4445C125.262 45.3362 126.693 44.2278 128.124 43.1191C128.186 43.071 128.248 43.0229 128.31 42.9752C128.792 42.602 128.92 41.9118 128.551 41.4108C128.196 40.9298 127.467 40.7968 126.984 41.171Z" fill="#F5BF2D"/>
<path fill-rule="evenodd" clip-rule="evenodd" d="M1.32208 206.033L38.7176 160.523L71.2574 174.139L51.9445 205.847L1.32208 206.033Z" fill="#7384F2"/>
</g>
<defs>
<clipPath id="clip0_4390_19119">
<rect width="200" height="200" rx="100" fill="white"/>
</clipPath>
</defs>
</svg>
