<svg width="140" height="140" viewBox="0 0 140 140" fill="none" xmlns="http://www.w3.org/2000/svg">
<g clip-path="url(#clip0_4390_19119)">
<path fill-rule="evenodd" clip-rule="evenodd" d="M57.3019 42.2737C57.3019 42.2737 58.5158 41.5804 59.693 44.442L64.76 54.1051C64.76 54.1051 63.335 36.618 63.5678 34.8511C63.5678 34.8511 64.4116 32.3449 66.1945 33.7678C66.1945 33.7678 67.1648 34.4342 67.8536 38.4802L70.1313 52.6901L72.4753 32.0491C72.4753 32.0491 73.1967 30.2624 74.7395 30.6414C74.7395 30.6414 76.2496 30.4239 76.3388 36.2126C76.3388 36.2126 75.759 42.7018 75.8027 45.2765C75.8848 50.1155 75.4733 53.5647 75.4209 56.1429C75.4067 56.8434 75.935 56.0892 75.935 56.0892C75.935 56.0892 76.3607 44.3458 76.3643 44.2845C76.4577 42.7091 76.6396 41.645 76.7767 40.4032C76.9521 38.8146 77.0705 37.0486 77.2053 36.6117C77.2053 36.6117 77.6632 34.4685 79.8147 35.431C79.8147 35.431 80.6772 36.2461 80.6807 37.7338C80.6807 37.7338 81.1695 47.6863 80.8713 49.6107C80.8713 49.6107 80.9342 54.8572 79.7851 59.6401C79.7851 59.6401 82.3735 55.1748 85.077 54.4467C85.077 54.4467 87.6305 53.5462 88.2904 55.7004C88.2904 55.7004 88.9111 56.8789 87.0551 59.0176C87.0551 59.0176 84.3191 62.1214 83.3952 65.2448C83.3952 65.2448 83.128 73.3054 84.6137 77.7335C84.6137 77.7335 85.635 81.4535 102.226 96.0259C102.226 96.0259 101.563 110.03 88.8875 110.163C88.8875 110.163 75.9633 92.336 73.6064 89.684C73.6064 89.684 65.1391 87.7089 63.5893 84.3569C63.5893 84.3569 58.2458 78.3865 57.6052 66.7493L55.9374 44.1771C55.9374 44.1771 55.8787 42.4976 57.3019 42.2737Z" fill="#CE966E"/>
<path fill-rule="evenodd" clip-rule="evenodd" d="M79.0593 98.5517C79.0593 98.5517 76.8142 96.0463 77.1132 94.913C77.1132 94.913 82.6942 86.8866 90.3824 84.3291C90.3824 84.3291 91.7286 84.5265 93.3382 86.8947C93.3382 86.8947 82.8939 99.2566 79.0593 98.5517Z" fill="#FFFFFE"/>
<path fill-rule="evenodd" clip-rule="evenodd" d="M131.455 123.47L130.325 139.484L109.731 138.032C89.3746 113.921 77.3791 97.4433 77.3791 97.4433C82.3184 89.7321 92.656 85.4072 92.656 85.4072C95.6298 87.7515 121.412 113.44 131.455 123.47Z" fill="#FDB744"/>
<path fill-rule="evenodd" clip-rule="evenodd" d="M81.6112 98.428C81.2819 99.1098 80.4623 99.3957 79.7802 99.0664C79.0983 98.7373 78.8125 97.9174 79.1418 97.2355C79.4711 96.5537 80.2907 96.2677 80.9725 96.5971C81.6547 96.9262 81.9403 97.7461 81.6112 98.428Z" fill="#FFFFFE"/>
<path fill-rule="evenodd" clip-rule="evenodd" d="M84.1027 102.086C83.7736 102.768 82.9537 103.054 82.2718 102.725C81.59 102.395 81.3041 101.576 81.6334 100.894C81.9628 100.212 82.7824 99.926 83.4643 100.255C84.1461 100.585 84.4321 101.404 84.1027 102.086Z" fill="#FFFFFE"/>
<path fill-rule="evenodd" clip-rule="evenodd" d="M82.111 62.3526C82.111 62.3526 79.6008 67.9022 79.1867 72.5008C79.1867 72.5008 78.8808 79.6908 73.7719 83.7225C73.7719 83.7225 70.5098 86.7476 67.0242 88.4135C67.0242 88.4135 62.2326 93.9223 58.172 100.203L37.1783 137.435L10.9946 140.171L10.6701 137.065C19.387 125.364 47.6631 87.5068 48.881 86.0043C48.881 86.0043 51.9949 82.3375 52.4318 81.0719C52.4318 81.0719 53.2958 69.1053 52.64 62.829C52.64 62.829 51.3751 52.2779 50.8858 49.6719C50.8858 49.6719 50.0957 45.7413 51.2419 45.2961C51.2419 45.2961 53.2606 44.3803 54.0204 47.5005C54.0204 47.5005 56.1297 53.6792 56.8005 54.9105C56.8005 54.9105 57.062 44.9593 56.9394 42.7488C56.9394 42.7488 57.0231 36.2866 57.0521 35.5244C57.0521 35.5244 57.5075 34.1754 59.1437 35.3058C59.1437 35.3058 59.9391 35.6568 60.3324 38.3812C60.3324 38.3812 61.9778 49.9772 62.1124 51.2645C62.1124 51.2645 62.9803 37.7791 63.0153 36.0402C63.0153 36.0402 62.8953 30.7383 64.4224 30.3076C64.4224 30.3076 66.698 29.2563 66.9433 33.6775C66.9433 33.6775 67.3765 39.3803 67.388 43.1211C67.388 43.1211 67.8338 50.5037 67.8477 51.1531C67.8477 51.1531 69.8509 40.7488 69.9027 39.1707C69.9027 39.1707 69.8546 35.5964 72.3946 36.0361C72.3946 36.0361 74.4381 35.8767 73.6163 44.0971C73.6163 44.0971 72.8361 53.2349 72.8578 54.4797C72.8578 54.4797 73.1463 68.1355 73.7461 67.1311C73.7461 67.1311 76.2471 63.0465 76.9386 61.1033C76.9386 61.1033 78.9626 54.7911 82.6451 55.7892C82.6451 55.7892 85.803 56.4352 82.111 62.3526Z" fill="#F4BC8F"/>
<path fill-rule="evenodd" clip-rule="evenodd" d="M67.8814 51.1555C67.8814 51.1555 67.3241 54.8353 67.1786 56.0938C67.1786 56.0938 67.1648 60.4735 67.3815 61.7481C67.3815 61.7481 66.7202 57.1211 66.8885 55.5789L67.7547 49.9422L67.8814 51.1555Z" fill="#E6A879"/>
<path fill-rule="evenodd" clip-rule="evenodd" d="M67.8819 51.1818L67.752 49.9615L67.7568 49.9616L67.5431 51.4412L67.3329 52.9212L66.967 55.5115L66.9541 55.6041L66.9507 55.6272C66.95 55.6328 66.9494 55.6421 66.9488 55.6493L66.9452 55.6955L66.9383 55.7882L66.9344 55.8812C66.9248 56.1291 66.9289 56.3778 66.9373 56.6266C66.9459 56.875 66.9603 57.1237 66.9775 57.372C67.0105 57.8686 67.0555 58.3648 67.1057 58.8603C67.1562 59.3559 67.2124 59.8511 67.273 60.3456L67.3647 61.0873C67.3963 61.3344 67.4285 61.5815 67.4626 61.8281L67.3899 61.8394C67.3715 61.721 67.3557 61.6026 67.3441 61.4843C67.3377 61.4249 67.332 61.3657 67.3269 61.3065C67.3215 61.2473 67.3166 61.1881 67.3122 61.1288C67.3027 61.0102 67.2951 60.8918 67.2877 60.773C67.2803 60.6545 67.2742 60.5359 67.2681 60.4173C67.2568 60.1802 67.2464 59.9428 67.2393 59.7055C67.2318 59.4683 67.2257 59.231 67.2204 58.9938C67.2103 58.5191 67.2035 58.0444 67.1997 57.5699C67.1959 57.0953 67.1942 56.6206 67.1959 56.146L67.1958 56.145L67.196 56.1444L67.2733 55.5229L67.3566 54.902L67.5284 53.6613C67.6435 52.8346 67.7618 52.008 67.8819 51.1818ZM67.8818 51.1816C67.7648 52.0083 67.6498 52.8353 67.5376 53.6625L67.4541 54.2831L67.3738 54.9042L67.2964 55.5255L67.2251 56.1475L67.2252 56.1459C67.2282 56.6202 67.2344 57.0948 67.2429 57.5691C67.2515 58.0436 67.2626 58.5179 67.2775 58.9921C67.2851 59.229 67.2936 59.4661 67.3031 59.7031C67.3134 59.94 67.3234 60.177 67.336 60.4136C67.3426 60.5319 67.3492 60.6503 67.3571 60.7684C67.3647 60.8866 67.3728 61.005 67.3825 61.123C67.3874 61.182 67.3922 61.241 67.3981 61.2999C67.4032 61.3588 67.4091 61.4175 67.4158 61.4763C67.4278 61.594 67.444 61.7108 67.4624 61.8268L67.3897 61.8381C67.3546 61.5911 67.3215 61.3441 67.2888 61.0968C67.2569 60.8495 67.2245 60.6025 67.1957 60.3545C67.1371 59.8595 67.0824 59.3636 67.034 58.8673C66.9858 58.371 66.9423 57.8739 66.9113 57.3758C66.8963 57.1269 66.8842 56.8775 66.8781 56.628C66.872 56.3785 66.8704 56.1285 66.8827 55.8784L66.8876 55.7848L66.8954 55.6909L66.8995 55.6442C66.9005 55.6359 66.9006 55.6295 66.9019 55.6196L66.9056 55.5968L66.9193 55.5043L66.9754 55.1346L67.3106 52.9178L67.5328 51.4394L67.7519 49.9608L67.7547 49.9422L67.7566 49.9608L67.8818 51.1816Z" fill="#E6A879"/>
<path fill-rule="evenodd" clip-rule="evenodd" d="M56.7806 54.8895C56.7806 54.8895 56.8816 60.2551 57.0163 61.5441C57.0163 61.5441 56.4498 55.9848 56.5671 54.4207L56.7806 54.8895Z" fill="#E6A879"/>
<path fill-rule="evenodd" clip-rule="evenodd" d="M56.7927 55.0066L56.5861 54.5413L56.5972 54.5391L56.592 54.7606L56.5893 54.8713L56.591 54.9822C56.594 55.1302 56.5936 55.2781 56.6012 55.4259L56.6099 55.6478C56.6125 55.7217 56.6159 55.7958 56.6202 55.8698L56.6435 56.3135L56.6719 56.7569C56.6806 56.9049 56.6926 57.0525 56.703 57.2003C56.7136 57.3481 56.7242 57.4959 56.7364 57.6435L56.7714 58.0867L56.8074 58.5299L56.8447 58.9729C56.8696 59.2681 56.8965 59.5633 56.923 59.8586L57.0063 60.744L57.0923 61.6291L57.0258 61.6358L56.9946 61.221L56.9792 61.0138C56.974 60.9446 56.9719 60.8757 56.9679 60.8066L56.9469 60.3921C56.9404 60.2542 56.9324 60.1159 56.9269 59.9778L56.894 59.1493C56.8881 59.0112 56.8842 58.873 56.8802 58.7351L56.8677 58.3208C56.8591 58.0444 56.8508 57.7683 56.844 57.492C56.8371 57.216 56.8287 56.9396 56.8231 56.6635L56.8063 55.8351C56.8011 55.5589 56.7965 55.2827 56.7927 55.0066ZM56.7927 55.0065L56.8852 57.4916C56.8952 57.7678 56.9063 58.0439 56.9176 58.3199L56.9346 58.734L56.988 59.9761C56.9939 60.1141 57.0025 60.2518 57.0096 60.39L57.0318 60.8035C57.0361 60.8726 57.0385 60.9417 57.0438 61.0104L57.06 61.2165L57.0923 61.6287L57.0258 61.6357L56.9811 61.1929L56.939 60.7501L56.859 59.8638C56.8335 59.5685 56.8077 59.2731 56.7837 58.9776L56.748 58.5342L56.7136 58.0906L56.6829 57.6469C56.6723 57.4991 56.6632 57.3509 56.6542 57.203C56.6454 57.055 56.6351 56.9072 56.6279 56.7591L56.6043 56.3149L56.5855 55.8704C56.5821 55.7963 56.5803 55.7224 56.5788 55.6483L56.574 55.426C56.5691 55.2777 56.5718 55.1295 56.5715 54.9815L56.5717 54.8705L56.5762 54.7595L56.5855 54.5376L56.5865 54.5114L56.5966 54.5356L56.7927 55.0065Z" fill="#E6A879"/>
<path fill-rule="evenodd" clip-rule="evenodd" d="M62.0923 51.1773C62.0923 51.1773 61.8072 55.2065 61.8631 55.741C61.8631 55.741 61.7021 58.9131 61.9744 61.4856C61.9744 61.4856 61.4851 56.8084 61.596 55.0885C61.596 55.0885 61.9285 51.5665 62.0923 51.1773Z" fill="#E6A879"/>
<path fill-rule="evenodd" clip-rule="evenodd" d="M62.0923 51.1773C62.0737 51.2275 62.0629 51.2805 62.0521 51.3331C62.0415 51.386 62.0322 51.439 62.0237 51.4922C62.0066 51.5983 61.9917 51.705 61.9776 51.8119C61.9492 52.0254 61.924 52.2393 61.9004 52.4534C61.8528 52.8817 61.8107 53.3106 61.7704 53.7398C61.7299 54.1688 61.6903 54.5982 61.6536 55.0275C61.6378 55.2405 61.6369 55.4566 61.6374 55.6718C61.6384 55.887 61.6448 56.1026 61.652 56.3179C61.6604 56.5333 61.6696 56.7487 61.6816 56.964C61.6931 57.1791 61.7056 57.3944 61.7192 57.6098C61.7468 58.04 61.7784 58.4704 61.8129 58.9002C61.8823 59.7603 61.9616 60.6196 62.05 61.4777L61.9743 61.4856L61.941 61.1271C61.9288 61.0078 61.9209 60.8882 61.9119 60.7685C61.9038 60.6487 61.8928 60.5292 61.887 60.4095L61.8663 60.0502C61.8597 59.9306 61.8559 59.8109 61.8502 59.6911L61.8427 59.5113L61.8372 59.3316L61.8268 58.9721L61.8199 58.6124C61.8173 58.4926 61.8171 58.3728 61.8158 58.2531C61.8143 58.1331 61.8138 58.0133 61.814 57.8934C61.814 57.7736 61.8133 57.6538 61.8146 57.5341L61.8177 57.1745L61.8238 56.8151L61.8328 56.4559C61.8392 56.2163 61.8477 55.9771 61.8587 55.7373L61.8587 55.7415C61.8507 55.6437 61.8518 55.5487 61.8523 55.453C61.8528 55.3576 61.8554 55.2624 61.8579 55.167C61.8636 54.9767 61.8716 54.7863 61.8799 54.5962C61.8974 54.2157 61.9175 53.8356 61.9404 53.4558C61.9634 53.0757 61.9876 52.6958 62.0126 52.3163L62.0513 51.7466L62.0923 51.1773ZM62.0923 51.1773L62.0306 52.3173C62.0108 52.6975 61.9914 53.0775 61.9736 53.4578C61.9563 53.8379 61.9383 54.218 61.9243 54.5984C61.9173 54.7884 61.9111 54.9785 61.907 55.1687C61.9051 55.2638 61.9033 55.3589 61.9035 55.4537C61.9037 55.5483 61.9037 55.644 61.912 55.7359L61.9123 55.7382L61.9122 55.7401C61.9032 55.9791 61.8965 56.2185 61.8921 56.4576L61.8861 56.8167L61.8822 57.1756L61.8801 57.5346C61.8793 57.6543 61.8803 57.774 61.8805 57.8936C61.8805 58.0134 61.8815 58.1332 61.8833 58.2528C61.8851 58.3725 61.8853 58.4921 61.8883 58.6116L61.8962 58.9706L61.9076 59.3295L61.9135 59.5089L61.9215 59.6881C61.9274 59.8076 61.9317 59.9272 61.9385 60.0466L61.9601 60.405C61.9662 60.5245 61.9774 60.6437 61.9858 60.7629C61.9952 60.8823 62.0033 61.0016 62.0157 61.1206L62.05 61.4777L61.9743 61.4856C61.9305 61.056 61.8904 60.6262 61.8519 60.1963C61.8133 59.7661 61.7773 59.336 61.7439 58.9056C61.7107 58.4751 61.68 58.0446 61.6536 57.6137C61.6408 57.3982 61.628 57.1825 61.6185 56.9669C61.608 56.7512 61.6005 56.5354 61.5938 56.3195C61.5884 56.1035 61.584 55.8877 61.5847 55.6715C61.5861 55.4553 61.5889 55.2395 61.6066 55.0227L61.6685 54.3791C61.69 54.1645 61.7113 53.9499 61.7342 53.7357C61.7799 53.307 61.8277 52.8786 61.8807 52.4509C61.9074 52.2368 61.9352 52.0231 61.9666 51.8101C61.9826 51.7036 61.9991 51.597 62.0182 51.4909C62.0277 51.4382 62.0378 51.3851 62.0492 51.3326C62.0611 51.2801 62.0727 51.2274 62.0923 51.1773Z" fill="#E6A879"/>
<path fill-rule="evenodd" clip-rule="evenodd" d="M50.8683 46.1244C50.8683 46.1244 51.9404 45.4705 52.4364 46.0799C52.4364 46.0799 52.7781 47.382 51.9556 47.5297C51.9556 47.5297 50.7122 47.9615 50.8683 46.1244Z" fill="#F4C5A1"/>
<path fill-rule="evenodd" clip-rule="evenodd" d="M57.2648 36.0796C57.2648 36.0796 58.3367 35.4257 58.8329 36.0348C58.8329 36.0348 59.1746 37.3368 58.3522 37.4848C58.3522 37.4848 57.1087 37.9165 57.2648 36.0796Z" fill="#F4C5A1"/>
<path fill-rule="evenodd" clip-rule="evenodd" d="M64.126 31.5442C64.126 31.5442 65.3589 30.9039 65.8424 31.664C65.8424 31.664 66.091 33.2095 65.1788 33.2908C65.1788 33.2908 63.7796 33.6551 64.126 31.5442Z" fill="#F4C5A1"/>
<path fill-rule="evenodd" clip-rule="evenodd" d="M70.6857 37.0968C70.6857 37.0968 71.923 36.4861 72.3982 37.2122C72.3982 37.2122 72.6317 38.6887 71.7202 38.7658C71.7202 38.7658 70.3199 39.1131 70.6857 37.0968Z" fill="#F4C5A1"/>
<path fill-rule="evenodd" clip-rule="evenodd" d="M81.5139 57.1459C81.5139 57.1459 83.2736 57.1082 83.4209 58.2279C83.4209 58.2279 82.877 60.1001 81.7856 59.6877C81.7856 59.6877 79.9829 59.3242 81.5139 57.1459Z" fill="#F4C5A1"/>
<path fill-rule="evenodd" clip-rule="evenodd" d="M54.222 106.332C54.222 106.332 57.063 107.211 56.5354 103.627C56.5354 103.627 53.5496 98.771 42.4822 93.2149C42.4822 93.2149 38.9605 94.2245 40.9576 97.069C40.9576 97.069 46.8935 101.729 54.222 106.332Z" fill="#298BE5"/>
<path fill-rule="evenodd" clip-rule="evenodd" d="M58.8008 99.8585C58.8008 99.8585 51.7619 94.8436 42.9743 91.0924C42.9743 91.0924 42.1947 90.3839 43.7879 90.1378C43.7879 90.1378 52.7096 93.2275 59.5485 98.9816C59.5485 98.9816 59.705 99.9229 58.8008 99.8585Z" fill="#FFBD39"/>
<path fill-rule="evenodd" clip-rule="evenodd" d="M61.0514 98.5186C61.0514 98.5186 54.0124 93.5038 45.2246 89.7523C45.2246 89.7523 44.445 89.044 46.0382 88.798C46.0382 88.798 54.9601 91.8876 61.7988 97.6418C61.7988 97.6418 61.9556 98.583 61.0514 98.5186Z" fill="#7384F2"/>
<path fill-rule="evenodd" clip-rule="evenodd" d="M58.4794 101.179C58.4794 101.179 51.4403 96.164 42.6526 92.4125C42.6526 92.4125 41.873 91.7042 43.4665 91.4581C43.4665 91.4581 52.3882 94.5478 59.2269 100.302C59.2269 100.302 59.3833 101.243 58.4794 101.179Z" fill="#CEE564"/>
<path fill-rule="evenodd" clip-rule="evenodd" d="M63.6379 14.9423C63.7534 15.991 63.8686 17.0398 63.9838 18.0886C64.1501 19.6026 64.3166 21.1165 64.4828 22.6305C64.5036 22.8185 64.5243 23.0065 64.545 23.1944C64.5917 23.6205 64.9871 23.9389 65.423 23.8934C65.8553 23.8482 66.1842 23.4542 66.1375 23.028C66.0223 21.9793 65.907 20.9305 65.7915 19.8817C65.6253 18.3678 65.4588 16.8538 65.2925 15.3398C65.2718 15.1518 65.2511 14.9639 65.2304 14.7759C65.1837 14.3498 64.7882 14.0314 64.3524 14.077C63.92 14.1221 63.5912 14.5161 63.6379 14.9423Z" fill="#F5BF2D"/>
<path fill-rule="evenodd" clip-rule="evenodd" d="M53.4185 16.3102C53.7356 17.1553 54.0524 18.0004 54.3691 18.8455C54.9584 20.417 55.5477 21.9886 56.137 23.5601C56.4566 24.4125 56.7762 25.2648 57.0956 26.1172C57.0956 26.1172 57.0956 26.1172 57.0956 26.1172C57.2458 26.5175 57.72 26.7156 58.1147 26.5616C58.5178 26.4043 58.7107 25.945 58.5605 25.5448C58.2438 24.6997 57.9267 23.8546 57.6099 23.0095C57.0207 21.4379 56.4314 19.8664 55.8421 18.2948C55.5227 17.4425 55.2031 16.5902 54.8835 15.7378C54.8835 15.7378 54.8835 15.7378 54.8835 15.7377C54.7333 15.3375 54.2591 15.1394 53.8646 15.2933C53.4613 15.4506 53.2687 15.91 53.4185 16.3102Z" fill="#F5BF2D"/>
<path fill-rule="evenodd" clip-rule="evenodd" d="M44.9845 23.9244C45.7429 24.6583 46.501 25.3922 47.2593 26.1261C48.354 27.1855 49.4486 28.245 50.5433 29.3044C50.6794 29.4359 50.8152 29.5675 50.951 29.699C51.2586 29.9967 51.7635 29.9987 52.0688 29.6918C52.37 29.389 52.3736 28.8791 52.0653 28.5808C51.307 27.8469 50.5486 27.1131 49.7906 26.3791C48.6959 25.3197 47.6012 24.2603 46.5066 23.2008C46.3705 23.0693 46.2347 22.9378 46.0988 22.8062C45.7913 22.5086 45.2864 22.5065 44.9811 22.8134C44.6799 23.1162 44.6762 23.6261 44.9845 23.9244Z" fill="#F5BF2D"/>
<path fill-rule="evenodd" clip-rule="evenodd" d="M44.7856 36.9555C45.9841 37.407 47.1828 37.8582 48.3815 38.3097C48.4335 38.3291 48.4853 38.3488 48.5373 38.3683C48.9424 38.521 49.4055 38.2006 49.5126 37.8138C49.5691 37.6094 49.5395 37.3869 49.4323 37.204C49.3206 37.0135 49.1584 36.9167 48.9579 36.8412C47.7595 36.3899 46.5607 35.9385 45.362 35.4871C45.31 35.4676 45.2582 35.448 45.2062 35.4284C44.8011 35.2759 44.338 35.5962 44.2309 35.983C44.1744 36.1873 44.2041 36.4099 44.3113 36.5927C44.4229 36.7832 44.5851 36.8799 44.7856 36.9555Z" fill="#F5BF2D"/>
<path fill-rule="evenodd" clip-rule="evenodd" d="M72.726 20.5574C72.4168 22.207 72.1074 23.8566 71.798 25.5062C71.6301 26.4009 73.1689 26.7274 73.3352 25.8403C73.6446 24.1907 73.954 22.5411 74.2635 20.8914C74.4311 19.9968 74.5989 19.1021 74.7668 18.2074C74.8456 17.7872 74.5765 17.368 74.1523 17.2826C73.7369 17.199 73.304 17.4759 73.2251 17.8961C73.0588 18.7832 72.8925 19.6703 72.726 20.5574Z" fill="#F5BF2D"/>
<path fill-rule="evenodd" clip-rule="evenodd" d="M84.1622 18.293C83.6556 19.2197 83.1489 20.1464 82.6422 21.0732C81.9109 22.411 81.1794 23.7488 80.4481 25.0866C80.3572 25.2527 80.2664 25.4188 80.1756 25.5849C79.9696 25.962 80.1999 26.4595 80.5684 26.6267C80.9817 26.8139 81.4052 26.6095 81.6106 26.2338C82.1172 25.3071 82.6239 24.3804 83.1306 23.4536C83.8619 22.1158 84.5934 20.778 85.3247 19.4403C85.4156 19.2741 85.5064 19.108 85.5972 18.9419C85.8032 18.5648 85.5729 18.0673 85.2042 17.9002C84.7911 17.7129 84.3676 17.9173 84.1622 18.293Z" fill="#F5BF2D"/>
<path fill-rule="evenodd" clip-rule="evenodd" d="M88.8887 28.8199C87.8871 29.5958 86.8852 30.3719 85.8833 31.1477C85.84 31.1814 85.7964 31.215 85.7531 31.2487C85.4158 31.5099 85.3261 31.9928 85.5846 32.3435C85.8325 32.6803 86.3431 32.7735 86.6812 32.5113C87.6831 31.7355 88.6848 30.9597 89.6867 30.1836C89.73 30.1499 89.7735 30.1162 89.8171 30.0828C90.1542 29.8216 90.2439 29.3385 89.9856 28.9877C89.7374 28.651 89.2271 28.5579 88.8887 28.8199Z" fill="#F5BF2D"/>
<path fill-rule="evenodd" clip-rule="evenodd" d="M0.925456 144.223L27.1023 112.366L49.8802 121.897L36.3612 144.093L0.925456 144.223Z" fill="#7384F2"/>
</g>
<defs>
<clipPath id="clip0_4390_19119">
<rect width="140" height="140" rx="70" fill="white"/>
</clipPath>
</defs>
</svg>
