<svg xmlns="http://www.w3.org/2000/svg" width="13" height="13" viewBox="0 0 13 13" fill="none">
  <path d="M3.89147 10.1208C4.05815 9.95408 4.31667 9.92751 4.52745 10.0331C6.09363 10.8175 8.0606 10.5489 9.37983 9.22997C9.6206 8.9892 9.82592 8.72488 9.99648 8.44622C10.1101 8.2609 10.3186 8.14967 10.5337 8.18105L11.8485 8.37302C12.166 8.41939 12.3609 8.74697 12.2214 9.03593C11.9123 9.67594 11.4924 10.2773 10.9598 10.8099C8.79887 12.9705 5.50716 13.2986 3.03589 11.7856C2.77382 11.6252 2.74839 11.2642 2.96546 11.0468L3.89147 10.1208ZM7.38695 0.483671C7.38862 0.178625 7.65945 -0.0567656 7.95664 0.0120363C9.07764 0.271646 10.1394 0.837316 11.0102 1.70799C12.2253 2.92307 12.8428 4.51051 12.867 6.1129C12.8715 6.40666 12.6046 6.62137 12.3139 6.57901L11.0606 6.39602C10.8086 6.35912 10.6267 6.13959 10.6055 5.88572C10.527 4.94317 10.1317 4.02387 9.41298 3.30519C8.93686 2.82913 8.37248 2.49403 7.77158 2.29908C7.54511 2.22561 7.37881 2.02271 7.38004 1.78464L7.38695 0.483671ZM4.78225 4.63102C5.70472 3.70857 7.19264 3.70082 8.1051 4.61306C8.71581 5.22377 8.91607 6.09315 8.70173 6.88078C8.59688 7.26594 8.39244 7.63062 8.08715 7.93591C7.16462 8.85844 5.67675 8.86632 4.7643 7.95387C3.85205 7.0414 3.85979 5.55348 4.78225 4.63102ZM1.90894 1.75909C2.78683 0.881202 3.85167 0.30429 4.97215 0.0313713C5.2727 -0.0417891 5.54827 0.197146 5.54668 0.506459L5.53908 1.80397C5.53766 2.03793 5.37445 2.23713 5.15238 2.31082C4.54535 2.51195 3.97307 2.85484 3.48888 3.33903C2.16993 4.65826 1.90132 6.62522 2.68579 8.19141C2.79118 8.40213 2.7647 8.66078 2.5981 8.82739L1.67209 9.7534C1.45466 9.97047 1.09369 9.94504 0.933218 9.68296C-0.579939 7.21167 -0.251748 3.92007 1.90894 1.75909Z" fill="currentColor"/>
</svg>
