<svg width="20" height="20" viewBox="0 0 20 20" fill="none" xmlns="http://www.w3.org/2000/svg">
<g clip-path="url(#clip0)">
<path d="M5.65234 19.0078C6.96875 19.6445 8.44141 20 10 20C11.5586 20 13.0312 19.6445 14.3477 19.0078L15.2188 10L14.3477 0.992188C13.0312 0.355469 11.5586 0 10 0C8.44141 0 6.96875 0.355469 5.65234 0.992188L4.78125 10L5.65234 19.0078Z" fill="#FFDA44"/>
<path d="M14.3477 19.0078C16.0426 18.1907 17.4726 16.9119 18.4733 15.3185C19.4741 13.7251 20.0049 11.8816 20.0049 10C20.0049 8.11838 19.4741 6.27494 18.4733 4.68151C17.4726 3.08808 16.0426 1.80932 14.3477 0.992188V19.0078Z" fill="#D80027"/>
<path d="M5.65233 19.0078V0.992188C3.9574 1.80932 2.5274 3.08808 1.52666 4.68151C0.525927 6.27494 -0.00494385 8.11838 -0.00494385 10C-0.00494385 11.8816 0.525927 13.7251 1.52666 15.3185C2.5274 16.9119 3.9574 18.1907 5.65233 19.0078Z" fill="#0052B4"/>
<path d="M10 13.4766V10H12.6094V11.3047C12.6094 11.5313 12.1758 12.3594 11.1016 13.043C10.6953 13.3008 10.2734 13.3867 10 13.4766ZM7.39062 7.39062H10V10H7.39062V7.39062Z" fill="#D80027"/>
<path d="M11.3047 6.52344C11.3044 6.37086 11.2641 6.22102 11.1877 6.08894C11.1113 5.95686 11.0015 5.84716 10.8694 5.77082C10.7373 5.69448 10.5875 5.65418 10.4349 5.65395C10.2823 5.65373 10.1323 5.69358 10 5.76953C9.86834 5.6929 9.71875 5.65246 9.56641 5.65234C9.08594 5.65234 8.69531 6.04297 8.69531 6.52344H6.52344V10.8711C6.52344 12.4883 7.80859 13.4258 8.81641 13.9102C8.7391 14.043 8.69865 14.194 8.69922 14.3477C8.69989 14.4997 8.74032 14.6489 8.81651 14.7804C8.89269 14.9119 9.00198 15.0213 9.1335 15.0975C9.26502 15.1737 9.41419 15.2142 9.56621 15.2149C9.71822 15.2156 9.86777 15.1765 10 15.1016C10.1317 15.1782 10.2813 15.2186 10.4336 15.2187C10.5864 15.2182 10.7364 15.1774 10.8685 15.1005C11.0006 15.0237 11.1101 14.9134 11.1861 14.7808C11.2621 14.6482 11.3019 14.498 11.3014 14.3451C11.301 14.1923 11.2603 14.0423 11.1836 13.9102C12.1914 13.4258 13.4766 12.4883 13.4766 10.8711V6.52344H11.3047ZM12.1758 10.8711C12.1758 11.0977 12.1758 11.7852 11.1016 12.4687C10.7554 12.6834 10.3858 12.8577 10 12.9883C9.72656 12.8945 9.30469 12.7266 8.89844 12.4687C7.82422 11.7852 7.82422 11.0977 7.82422 10.8672V7.82422H12.1758V10.8711Z" fill="#FF9811"/>
</g>
<defs>
<clipPath id="clip0">
<rect width="20" height="20" fill="white"/>
</clipPath>
</defs>
</svg>
