<svg width="20" height="20" viewBox="0 0 20 20" fill="none" xmlns="http://www.w3.org/2000/svg">
<path d="M10 20C15.5228 20 20 15.5228 20 10C20 4.47715 15.5228 0 10 0C4.47715 0 0 4.47715 0 10C0 15.5228 4.47715 20 10 20Z" fill="#EEEEEE"/>
<path d="M5.65234 13.4766L6.52344 19.375C9.00986 20.2967 11.7606 20.1931 14.1706 19.087C16.5807 17.9809 18.4527 15.9628 19.375 13.4766H5.65234Z" fill="#333333"/>
<path d="M5.65234 6.52344L6.52344 0.624997C9.00986 -0.296728 11.7606 -0.193132 14.1706 0.913C16.5807 2.01913 18.4527 4.03722 19.375 6.52344H5.65234Z" fill="#6DA544"/>
<path d="M0 10C0.000249226 12.0417 0.625473 14.0345 1.79165 15.7104C2.95782 17.3864 4.60905 18.6652 6.52344 19.375V0.625C4.60905 1.33483 2.95782 2.61364 1.79165 4.28957C0.625473 5.96551 0.000249226 7.95826 0 10H0Z" fill="#A2001D"/>
</svg>
