<svg width="20" height="20" viewBox="0 0 20 20" fill="none" xmlns="http://www.w3.org/2000/svg">
<g clip-path="url(#clip0)">
<path d="M14.3477 0.992188C13.0312 0.355469 11.5586 0 10 0C8.44141 0 6.96875 0.355469 5.65234 0.992188L4.78125 10L5.65234 19.0078C6.96875 19.6445 8.44141 20 10 20C11.5586 20 13.0312 19.6445 14.3477 19.0078L15.2188 10L14.3477 0.992188Z" fill="#D80027"/>
<path d="M5.65235 0.992188C3.95743 1.80932 2.52743 3.08808 1.52669 4.68151C0.525958 6.27494 -0.00491333 8.11838 -0.00491333 10C-0.00491333 11.8816 0.525958 13.7251 1.52669 15.3185C2.52743 16.9119 3.95743 18.1907 5.65235 19.0078V0.992188Z" fill="#333333"/>
<path d="M14.3476 0.992188V19.0078C16.0426 18.1907 17.4726 16.9119 18.4733 15.3185C19.474 13.7251 20.0049 11.8816 20.0049 10C20.0049 8.11838 19.474 6.27494 18.4733 4.68151C17.4726 3.08808 16.0426 1.80932 14.3476 0.992188Z" fill="#496E2D"/>
<path d="M10 6.52344C9.07796 6.52344 8.19368 6.88972 7.5417 7.5417C6.88972 8.19368 6.52344 9.07796 6.52344 10C6.52344 10.922 6.88972 11.8063 7.5417 12.4583C8.19368 13.1103 9.07796 13.4766 10 13.4766C10.922 13.4766 11.8063 13.1103 12.4583 12.4583C13.1103 11.8063 13.4766 10.922 13.4766 10C13.4766 9.07796 13.1103 8.19368 12.4583 7.5417C11.8063 6.88972 10.922 6.52344 10 6.52344ZM10 12.1758C9.42295 12.1758 8.86953 11.9465 8.46149 11.5385C8.05345 11.1305 7.82422 10.5771 7.82422 10C7.82422 9.42295 8.05345 8.86953 8.46149 8.46149C8.86953 8.05345 9.42295 7.82422 10 7.82422C10.5771 7.82422 11.1305 8.05345 11.5385 8.46149C11.9465 8.86953 12.1758 9.42295 12.1758 10C12.1758 10.5771 11.9465 11.1305 11.5385 11.5385C11.1305 11.9465 10.5771 12.1758 10 12.1758Z" fill="#FFDA44"/>
<path d="M10 8.69531C9.51955 8.69531 9.12892 9.08594 9.12892 9.56641V10.8711H10.8711V9.56641C10.8711 9.08594 10.4805 8.69531 10 8.69531Z" fill="#FFDA44"/>
</g>
<defs>
<clipPath id="clip0">
<rect width="20" height="20" fill="white"/>
</clipPath>
</defs>
</svg>
