<svg width="20" height="20" viewBox="0 0 20 20" fill="none" xmlns="http://www.w3.org/2000/svg">
<g clip-path="url(#clip0)">
<path d="M4.53935e-06 10C-0.000634052 10.6717 0.0661063 11.3417 0.199223 12L10 12.6094L19.8008 12C20.0691 10.6802 20.0691 9.31984 19.8008 8L10 7.39062L0.199223 8C0.0661063 8.65833 -0.000634052 9.32835 4.53935e-06 10Z" fill="#0052B4"/>
<path d="M19.8008 12H0.195312C0.653588 14.2614 1.8798 16.2948 3.66606 17.7554C5.45232 19.2159 7.68871 20.0139 9.99609 20.0139C12.3035 20.0139 14.5399 19.2159 16.3261 17.7554C18.1124 16.2948 19.3386 14.2614 19.7969 12H19.8008Z" fill="#EEEEEE"/>
<path d="M0.199234 8.00001H19.8047C19.3464 5.73859 18.1202 3.70523 16.334 2.24464C14.5477 0.784059 12.3113 -0.0138702 10.0039 -0.0138702C7.69654 -0.0138702 5.46014 0.784059 3.67388 2.24464C1.88762 3.70523 0.661416 5.73859 0.20314 8.00001H0.199234Z" fill="#333333"/>
<path d="M14.3477 8H5.65236L7.4297 7.16407L6.48439 5.44531L8.41017 5.8125L8.65627 3.86328L10 5.29688L11.3438 3.86719L11.5899 5.82031L13.5156 5.44922L12.5703 7.16797L14.3477 8Z" fill="#FFDA44"/>
<path d="M-4.94546e-06 10C-4.94546e-06 12.6522 1.05356 15.1957 2.92893 17.0711C4.80429 18.9464 7.34783 20 10 20L1.99999 4C0.69898 5.7295 -0.00311885 7.83579 -4.94546e-06 10ZM10 20C11.8571 20 13.6775 19.4829 15.2573 18.5065C16.8371 17.5302 18.1137 16.1332 18.9443 14.4721C19.7748 12.8111 20.1264 10.9516 19.9596 9.10194C19.7928 7.25233 19.1143 5.4857 18 4L10 20Z" fill="#A2001D"/>
</g>
<defs>
<clipPath id="clip0">
<rect width="20" height="20" fill="white"/>
</clipPath>
</defs>
</svg>
