<svg width="20" height="20" viewBox="0 0 20 20" fill="none" xmlns="http://www.w3.org/2000/svg">
<path d="M20 10C20 12.6522 18.9464 15.1957 17.0711 17.0711C15.1957 18.9464 12.6522 20 10 20C7.34784 20 4.8043 18.9464 2.92893 17.0711C1.05357 15.1957 0 12.6522 0 10L10 0C12.6522 0 15.1957 1.05357 17.0711 2.92893C18.9464 4.8043 20 7.34784 20 10Z" fill="#0052B4"/>
<path d="M9.97264 10H9.99998V9.97266L9.97264 10Z" fill="#EEEEEE"/>
<path d="M10 5.21875V0C7.34784 0 4.8043 1.05357 2.92893 2.92893C1.05357 4.8043 0 7.34784 0 10H5.21875V7.0625L8.15625 10H9.97266L10 9.97266V8.15625L7.0625 5.21875H10Z" fill="#EEEEEE"/>
<path d="M5.05863 1.30469C3.49339 2.19678 2.19682 3.49335 1.30473 5.05859V10H3.9141V3.91406H10V1.30469H5.05863Z" fill="#D80027"/>
<path d="M10.0001 8.76953L6.44537 5.21484H5.21881L10.0001 10V8.76953Z" fill="#D80027"/>
<path d="M16.9141 11.4648C17.2271 11.0409 17.3943 10.527 17.3907 10V5.65234C17.0145 5.93485 16.5564 6.08707 16.086 6.08594C15.7488 6.08624 15.4162 6.00804 15.1145 5.85752C14.8128 5.707 14.5502 5.48831 14.3477 5.21875C14.1451 5.48831 13.8826 5.707 13.5809 5.85752C13.2792 6.00804 12.9466 6.08624 12.6094 6.08594C12.1389 6.08707 11.6809 5.93485 11.3047 5.65234V10C11.3047 10.5859 11.5 11.0664 11.7852 11.4648H16.9102H16.9141Z" fill="#EEEEEE"/>
<path d="M16.0078 9.19531C16.1456 8.85098 16.2286 8.4872 16.2539 8.11719C16.2539 7.72266 15.7383 7.40234 15.7383 7.40234C15.7383 7.40234 15.2227 7.72266 15.2227 8.11719C15.248 8.4872 15.331 8.85098 15.4688 9.19531L15.1719 9.86328C15.5349 10.0118 15.9417 10.0118 16.3047 9.86328L16.0078 9.19531ZM13.9961 7.02344C13.6298 7.07596 13.274 7.18535 12.9414 7.34766C12.5977 7.54297 12.5781 8.14844 12.5781 8.14844C12.5781 8.14844 13.1133 8.4375 13.4531 8.23828C13.668 8.11719 14.0391 7.77734 14.2656 7.48828L14.9922 7.41016C14.967 7.2177 14.9046 7.03198 14.8086 6.86328C14.7115 6.69564 14.5828 6.54839 14.4297 6.42969L13.9961 7.02344ZM13.1211 9.84375C13.3497 10.1357 13.6225 10.3901 13.9297 10.5977C14.2735 10.793 14.8086 10.5078 14.8086 10.5078C14.8086 10.5078 14.7852 9.90234 14.4453 9.70703C14.113 9.54337 13.7572 9.43266 13.3906 9.37891L12.9571 8.78906C12.8043 8.90662 12.6757 9.05251 12.5781 9.21875C12.4808 9.38716 12.4171 9.5729 12.3906 9.76562L13.1211 9.84375Z" fill="#FF9811"/>
<path d="M11.6797 11.3047C12.4883 12.6055 14.3477 13.043 14.3477 13.043C14.3477 13.043 16.2071 12.6055 17.0196 11.3047H11.6758H11.6797Z" fill="#338AF3"/>
</svg>
