<svg width="20" height="20" viewBox="0 0 20 20" fill="none" xmlns="http://www.w3.org/2000/svg">
<path d="M10 20C15.5228 20 20 15.5228 20 10C20 4.47715 15.5228 0 10 0C4.47715 0 0 4.47715 0 10C0 15.5228 4.47715 20 10 20Z" fill="#D80027"/>
<path d="M15.6523 7.42187H12.0312C12.2088 7.23755 12.328 7.00497 12.374 6.75322C12.4199 6.50148 12.3906 6.24176 12.2897 6.00659C12.1888 5.77141 12.0208 5.57123 11.8067 5.43109C11.5925 5.29095 11.3418 5.21709 11.0859 5.21875C10.8709 5.21846 10.6592 5.27147 10.4697 5.37304C10.2802 5.47461 10.1188 5.62157 9.99999 5.80078C9.90013 5.64956 9.76986 5.52081 9.61749 5.42272C9.46512 5.32463 9.29399 5.25936 9.115 5.23106C8.93601 5.20277 8.75309 5.21206 8.5779 5.25837C8.4027 5.30467 8.23907 5.38696 8.09744 5.5C7.9558 5.61304 7.83926 5.75434 7.75526 5.9149C7.67125 6.07546 7.62161 6.25176 7.6095 6.43257C7.59739 6.61338 7.62308 6.79472 7.68493 6.96505C7.74678 7.13538 7.84344 7.29096 7.96873 7.42187H4.34764C4.3609 7.88886 4.55629 8.33214 4.89206 8.65696C5.22784 8.98179 5.67735 9.16238 6.14452 9.16015H6.08592C6.08592 10.1211 6.86717 10.9023 7.8242 10.9023C7.8242 11.2148 7.90624 11.5039 8.05077 11.7539L6.60545 13.1992L7.71483 14.3047L9.28514 12.7344C9.34731 12.7579 9.41133 12.7762 9.47655 12.7891L8.52733 14.9297L9.99999 16.5234L11.4726 14.9297L10.5234 12.7891C10.5886 12.7762 10.6527 12.7579 10.7148 12.7344L12.2851 14.3047L13.3906 13.1992L11.9453 11.7539C12.0946 11.4948 12.174 11.2014 12.1758 10.9023C13.1328 10.9023 13.914 10.1211 13.914 9.16015H13.8555C14.8164 9.16015 15.6523 8.38281 15.6523 7.42187Z" fill="#333333"/>
</svg>
