<svg width="20" height="20" viewBox="0 0 20 20" fill="none" xmlns="http://www.w3.org/2000/svg">
<g clip-path="url(#clip0)">
<path d="M20 10C20 8.77734 19.7813 7.60547 19.375 6.52344L10 6.08594L0.625039 6.52344C-0.208402 8.76622 -0.208402 11.2338 0.625039 13.4766L10 13.9141L19.375 13.4766C19.7813 12.3945 20 11.2227 20 10Z" fill="#0052B4"/>
<path d="M10 20C12.0417 19.9998 14.0345 19.3745 15.7104 18.2084C17.3864 17.0422 18.6652 15.3909 19.375 13.4766H0.625C1.33483 15.3909 2.61364 17.0422 4.28957 18.2084C5.96551 19.3745 7.95826 19.9998 10 20Z" fill="#FF9811"/>
<path d="M0.625 6.52344H19.375C18.6646 4.60967 17.3856 2.95914 15.7097 1.79359C14.0338 0.628037 12.0414 0.0032959 10 0.0032959C7.95865 0.0032959 5.96619 0.628037 4.29029 1.79359C2.6144 2.95914 1.33536 4.60967 0.625 6.52344Z" fill="#D80027"/>
</g>
<defs>
<clipPath id="clip0">
<rect width="20" height="20" fill="white"/>
</clipPath>
</defs>
</svg>
