<svg width="20" height="20" viewBox="0 0 20 20" fill="none" xmlns="http://www.w3.org/2000/svg">
<path d="M0 10C0 7.34784 1.05357 4.8043 2.92893 2.92893C4.8043 1.05357 7.34784 0 10 0C12.6522 0 15.1957 1.05357 17.0711 2.92893C18.9464 4.8043 20 7.34784 20 10C19.5664 10 10 11.3047 10 11.3047L0 10Z" fill="#D80027"/>
<path d="M20 10C20 12.6522 18.9464 15.1957 17.0711 17.0711C15.1957 18.9464 12.6522 20 10 20C7.34784 20 4.8043 18.9464 2.92893 17.0711C1.05357 15.1957 0 12.6522 0 10" fill="#333333"/>
<path d="M8.62893 7.95313L9.47659 8.57031L9.15237 9.56641L10 8.94531L10.8477 9.55859L10.5235 8.5625L11.3711 7.94922H10.3242L10 6.95312L9.67581 7.94922L8.62893 7.95313Z" fill="#FFDA44"/>
<path d="M12.5 5.66797C11.7399 5.22978 10.8774 5.00066 10 5.00391V6.30469C10.6489 6.30389 11.2864 6.47506 11.8477 6.80079C12.6439 7.31632 13.2116 8.118 13.4336 9.04018C13.6556 9.96237 13.5149 10.9346 13.0405 11.756C12.5661 12.5774 11.7943 13.1851 10.8846 13.4537C9.97492 13.7223 8.9968 13.6312 8.15236 13.1992C7.65566 12.9129 7.23292 12.5142 6.91798 12.0352L5.82814 12.7539C6.29827 13.4645 6.94207 14.0434 7.69855 14.4355C8.45502 14.8276 9.29909 15.0201 10.1508 14.9947C11.0025 14.9693 11.8336 14.7268 12.5653 14.2902C13.297 13.8536 13.9052 13.2374 14.332 12.5C14.9945 11.3509 15.1736 9.98588 14.8301 8.7048C14.4866 7.42373 13.6485 6.33144 12.5 5.66797Z" fill="#FFDA44"/>
<path d="M7.11719 9.12891C7.03458 9.2794 6.9825 9.44472 6.96391 9.61539C6.94532 9.78605 6.96059 9.95871 7.00885 10.1235C7.05712 10.2882 7.13742 10.4418 7.24516 10.5755C7.35291 10.7091 7.48597 10.8202 7.63672 10.9023L11.8711 13.2148C11.582 13.7422 11.7383 14.3867 12.2617 14.6719L13.4062 15.2969C13.5314 15.3658 13.6689 15.4094 13.8108 15.4251C13.9528 15.4408 14.0965 15.4283 14.2337 15.3884C14.3709 15.3485 14.4988 15.2819 14.6102 15.1925C14.7216 15.103 14.8142 14.9925 14.8828 14.8672L15.5078 13.7227L7.11719 9.12891Z" fill="#FFDA44"/>
</svg>
