<svg width="20" height="20" viewBox="0 0 20 20" fill="none" xmlns="http://www.w3.org/2000/svg">
<g clip-path="url(#clip0)">
<path d="M10 20C15.5228 20 20 15.5228 20 10C20 4.47715 15.5228 0 10 0C4.47715 0 0 4.47715 0 10C0 15.5228 4.47715 20 10 20Z" fill="#EEEEEE"/>
<path d="M10 2.82363e-07C8.11894 -0.000446655 6.27587 0.52969 4.68249 1.52952C3.08911 2.52936 1.81006 3.95834 0.992222 5.65234H19.0078C18.19 3.95834 16.911 2.52936 15.3176 1.52952C13.7242 0.52969 11.8811 -0.000446655 10 2.82363e-07ZM10 20C11.8811 20.0004 13.7242 19.4703 15.3176 18.4705C16.911 17.4706 18.19 16.0417 19.0078 14.3477H0.992222C1.81006 16.0417 3.08911 17.4706 4.68249 18.4705C6.27587 19.4703 8.11894 20.0004 10 20Z" fill="#338AF3"/>
<path d="M12.9883 10L11.7656 10.5742L12.4218 11.7578L11.0937 11.5039L10.9258 12.8438L10.0039 11.8594L9.082 12.8438L8.91403 11.5039L7.58591 11.7578L8.23435 10.5742L7.0156 10L8.23825 9.42578L7.5781 8.24219L8.90622 8.4961L9.07419 7.15625L9.99607 8.14063L10.9179 7.15625L11.0859 8.4961L12.414 8.24219L11.7656 9.42578L12.9883 10Z" fill="#FFDA44"/>
</g>
<defs>
<clipPath id="clip0">
<rect width="20" height="20" fill="white"/>
</clipPath>
</defs>
</svg>
