<svg width="20" height="20" viewBox="0 0 20 20" fill="none" xmlns="http://www.w3.org/2000/svg">
<g clip-path="url(#clip0)">
<path d="M10 20C15.5228 20 20 15.5228 20 10C20 4.47715 15.5228 0 10 0C4.47715 0 0 4.47715 0 10C0 15.5228 4.47715 20 10 20Z" fill="#EEEEEE"/>
<path d="M14.8516 1.25391C13.3291 0.409222 11.6125 -0.0233429 9.87161 -0.000991516C8.1307 0.0213599 6.42578 0.497854 4.92553 1.38135C3.42529 2.26484 2.18171 3.52472 1.31782 5.03634C0.453932 6.54796 -0.000324175 8.25894 -7.4639e-06 10L6.95312 6.52344L14.8555 1.25L14.8516 1.25391ZM-7.4639e-06 10.0039C0.000355853 11.7446 0.455107 13.4551 1.31927 14.9662C2.18344 16.4773 3.42708 17.7366 4.92722 18.6196C6.42735 19.5027 8.132 19.9788 9.87259 20.001C11.6132 20.0232 13.3294 19.5906 14.8516 18.7461L6.95702 13.4766L-7.4639e-06 10V10.0039Z" fill="#0052B4"/>
<path d="M15.6836 1.77344C15.415 1.58544 15.1373 1.41075 14.8516 1.25L0 10L14.8516 18.75C15.1372 18.5905 15.4149 18.4171 15.6836 18.2305L1.71094 10L15.6836 1.77344Z" fill="#D80027"/>
<path d="M17.3906 9.62891H16.1991C16.5116 9.25391 16.4921 8.70313 16.1406 8.35156C16.3175 8.17432 16.417 7.93408 16.417 7.6836C16.417 7.43311 16.3175 7.19287 16.1406 7.01563L16.121 7.03516C16.3003 6.85552 16.4025 6.61316 16.4062 6.35943C16.4098 6.10569 16.3146 5.8605 16.1406 5.67578L10.789 11.0273C10.8758 11.1152 10.9792 11.185 11.0932 11.2326C11.2072 11.2802 11.3295 11.3047 11.4531 11.3047C11.5766 11.3047 11.6989 11.2802 11.8129 11.2326C11.9269 11.185 12.0303 11.1152 12.1171 11.0273L12.2187 10.9297L14.7812 10.6953V11.8008H15.6523V10.6211L16.957 10.5039L17.3906 9.62891Z" fill="#A2001D"/>
<path d="M10.8711 12.1758L10 11.7383L10.8711 11.3047H16.5234V12.1758H10.8711Z" fill="#FFDA44"/>
</g>
<defs>
<clipPath id="clip0">
<rect width="20" height="20" fill="white"/>
</clipPath>
</defs>
</svg>
