<svg width="20" height="20" viewBox="0 0 20 20" fill="none" xmlns="http://www.w3.org/2000/svg">
<path d="M20 10C20 12.6522 18.9464 15.1957 17.0711 17.0711C15.1957 18.9464 12.6522 20 10 20C7.34784 20 4.8043 18.9464 2.92893 17.0711C1.05357 15.1957 0 12.6522 0 10L10 0C12.6522 0 15.1957 1.05357 17.0711 2.92893C18.9464 4.8043 20 7.34784 20 10Z" fill="#0052B4"/>
<path d="M9.97266 10H10V9.97266L9.97266 10Z" fill="#EEEEEE"/>
<path d="M10 5.21875V0C7.34784 0 4.8043 1.05357 2.92893 2.92893C1.05357 4.8043 0 7.34784 0 10H5.21875V7.0625L8.15625 10H9.97266L10 9.97266V8.15625L7.0625 5.21875H10Z" fill="#EEEEEE"/>
<path d="M5.05858 1.30469C3.49333 2.19678 2.19676 3.49335 1.30467 5.05859V10H3.91405V3.91406H9.99998V1.30469H5.05858Z" fill="#D80027"/>
<path d="M9.99998 8.76953L6.4453 5.21484H5.21873L9.99998 10V8.76953Z" fill="#D80027"/>
<path d="M6.03123 11.7383L6.57811 12.8867L7.8203 12.6016L7.26561 13.7461L8.2617 14.5352L7.01952 14.8164L7.02342 16.0859L6.03123 15.293L5.03905 16.0859V14.8164L3.80467 14.5313L4.80077 13.7422L4.24608 12.5977L5.48436 12.8828L6.03123 11.7383ZM14.9726 13.9141L15.2461 14.4883L15.8672 14.3438L15.5898 14.9141L16.0859 15.3125L15.4648 15.4492V16.0859L14.9726 15.6875L14.4765 16.0859V15.4492L13.8555 15.3125L14.3555 14.9141L14.0781 14.3438L14.6992 14.4883L14.9726 13.9141ZM12.418 7.82422L12.6914 8.39844L13.3164 8.25781L13.0351 8.82813L13.5351 9.22266L12.9101 9.36328L12.914 10L12.418 9.60156L11.9219 10V9.36328L11.3047 9.22266L11.8008 8.83203L11.5273 8.25781L12.1445 8.39844L12.418 7.82422ZM14.9726 4.34766L15.2461 4.92188L15.8672 4.77734L15.5859 5.35156L16.082 5.74219L15.4609 5.88672V6.52344L14.9687 6.125L14.4726 6.52344V5.88672L13.8515 5.74609L14.3515 5.35156L14.0742 4.77734L14.6953 4.92188L14.9726 4.34766ZM17.1992 6.95703L17.4726 7.53125L18.0976 7.38672L17.8203 7.96094L18.3164 8.35156L17.6953 8.49609V9.12891L17.2031 8.73438L16.707 9.12891V8.49609L16.0859 8.35547L16.5859 7.96094L16.3086 7.38672L16.9258 7.53125L17.1992 6.95703ZM15.6094 10L15.8281 10.6641H16.5234L15.957 11.0742L16.1719 11.7383L15.6055 11.3281L15.043 11.7383L15.2578 11.0742L14.6914 10.6641H15.3945L15.6094 10Z" fill="#EEEEEE"/>
</svg>
