<svg width="20" height="20" viewBox="0 0 20 20" fill="none" xmlns="http://www.w3.org/2000/svg">
<g clip-path="url(#clip0)">
<path d="M10 20C15.5228 20 20 15.5228 20 10C20 4.47715 15.5228 0 10 0C4.47715 0 0 4.47715 0 10C0 15.5228 4.47715 20 10 20Z" fill="#FFDA44"/>
<path d="M9.99999 20C13.0312 20 15.7461 18.6523 17.5781 16.5234H2.42187C3.35918 17.6156 4.52187 18.4919 5.83002 19.092C7.13817 19.6921 8.56075 20.0019 9.99999 20ZM20 9.99999C19.9986 8.57648 19.6932 7.16967 19.1044 5.87364C18.5156 4.57761 17.6569 3.42222 16.5856 2.48475C15.5144 1.54727 14.2554 0.849304 12.8927 0.437522C11.53 0.0257401 10.0952 -0.0903683 8.68404 0.0969609C7.2729 0.28429 5.91802 0.770739 4.70999 1.52378C3.50197 2.27682 2.46863 3.2791 1.6791 4.4636C0.889556 5.64809 0.362005 6.9875 0.131719 8.39227C-0.0985664 9.79704 -0.02628 11.2348 0.343745 12.6094H19.6562C19.8789 11.7773 20 10.9023 20 9.99999ZM0.792964 13.9141C0.985824 14.365 1.2117 14.8011 1.46874 15.2187H18.5312C18.7882 14.801 19.0141 14.365 19.207 13.9141H0.792964Z" fill="#338AF3"/>
<path d="M4.58202 6.30859L2.62889 5.44531L4.58202 4.58594L5.44139 2.62891L6.30858 4.58203L8.2617 5.44141L6.30858 6.30859L5.4453 8.26172L4.58202 6.30859Z" fill="#EEEEEE"/>
<path d="M5.4453 3.70703L5.97655 4.91406L7.18748 5.44531L5.97655 5.97656L5.4453 7.1875L4.91405 5.97656L3.70311 5.44531L4.91405 4.91406L5.4453 3.70703Z" fill="#D80027"/>
</g>
<defs>
<clipPath id="clip0">
<rect width="20" height="20" fill="white"/>
</clipPath>
</defs>
</svg>
