<svg width="20" height="20" viewBox="0 0 20 20" fill="none" xmlns="http://www.w3.org/2000/svg">
<g clip-path="url(#clip0)">
<path d="M19.6562 12.6094C20.1176 10.9004 20.1176 9.09962 19.6562 7.39062L9.12891 0.0390625C7.17578 0.207031 5.38281 0.9375 3.91406 2.06641L0.343749 7.39062C-0.114807 9.09469 -0.114807 10.8897 0.343749 12.5938L3.91406 17.9336C5.38281 19.0664 7.17578 19.793 9.12891 19.9648L19.6562 12.6094Z" fill="#FFDA44"/>
<path d="M0.343735 12.6094C0.918642 14.7262 2.17306 16.5954 3.91405 17.9297V12.6094H0.343735ZM9.1328 19.9609C9.42117 19.9863 9.7105 19.9994 9.99998 20C12.198 20.0006 14.335 19.277 16.0805 17.941C17.826 16.6051 19.0827 14.7313 19.6562 12.6094H9.12889V19.9609H9.1328ZM19.6562 7.39062C19.0435 5.12447 17.653 3.14611 15.7283 1.80205C13.8036 0.457982 11.4674 -0.166115 9.12889 0.0390604V7.39062H19.6562ZM3.91405 2.07031C2.17306 3.40457 0.918642 5.27384 0.343735 7.39062H3.91405V2.07031Z" fill="#0052B4"/>
<path d="M19.9141 8.69533H7.82421V0.238297C6.91421 0.439968 6.03712 0.768713 5.21874 1.21486V8.69533H0.0859315C-0.0270569 9.56145 -0.0270569 10.4386 0.0859315 11.3047H5.21874V18.7852C6.03712 19.2313 6.91421 19.5601 7.82421 19.7617V11.3047H19.9141C20.0269 10.4386 20.0269 9.56146 19.9141 8.69533Z" fill="#D80027"/>
</g>
<defs>
<clipPath id="clip0">
<rect width="20" height="20" fill="white"/>
</clipPath>
</defs>
</svg>
