<svg width="20" height="20" viewBox="0 0 20 20" fill="none" xmlns="http://www.w3.org/2000/svg">
<g clip-path="url(#clip0)">
<path d="M20 10C20 8.77734 19.7813 7.60547 19.375 6.52344L10.0001 6.08594L0.625051 6.52344C-0.208391 8.76622 -0.208391 11.2338 0.625051 13.4766L10.0001 13.9141L19.375 13.4766C19.7813 12.3945 20 11.2227 20 10Z" fill="#D80027"/>
<path d="M10 20C12.0417 19.9998 14.0345 19.3745 15.7104 18.2084C17.3864 17.0422 18.6652 15.3909 19.375 13.4766H0.625C1.33483 15.3909 2.61364 17.0422 4.28957 18.2084C5.96551 19.3745 7.95826 19.9998 10 20Z" fill="#6DA544"/>
<path d="M0.625 6.52344H19.375C18.6646 4.60967 17.3856 2.95914 15.7097 1.79359C14.0338 0.628037 12.0414 0.0032959 10 0.0032959C7.95865 0.0032959 5.96619 0.628037 4.29029 1.79359C2.6144 2.95914 1.33536 4.60967 0.625 6.52344Z" fill="#338AF3"/>
<path d="M10.2188 12.8242C9.78959 12.823 9.36632 12.724 8.98112 12.5348C8.59593 12.3455 8.25893 12.0709 7.99575 11.7319C7.73256 11.3929 7.5501 10.9983 7.46223 10.5782C7.37436 10.1581 7.38339 9.72354 7.48863 9.30746C7.59388 8.89138 7.79257 8.50476 8.06961 8.17696C8.34665 7.84917 8.69476 7.58883 9.08748 7.41572C9.48021 7.24261 9.90722 7.16128 10.3361 7.17792C10.765 7.19455 11.1844 7.30871 11.5625 7.51172C11.0732 7.03349 10.4536 6.71029 9.78146 6.58258C9.10928 6.45487 8.41436 6.52835 7.78375 6.7938C7.15314 7.05926 6.61488 7.50489 6.23639 8.07487C5.8579 8.64485 5.65601 9.31384 5.65601 9.99805C5.65601 10.6823 5.8579 11.3512 6.23639 11.9212C6.61488 12.4912 7.15314 12.9368 7.78375 13.2023C8.41436 13.4677 9.10928 13.5412 9.78146 13.4135C10.4536 13.2858 11.0732 12.9626 11.5625 12.4844C11.15 12.708 10.688 12.8248 10.2188 12.8242Z" fill="#EEEEEE"/>
<path d="M12.3907 8.04688L12.7657 9.09766L13.7735 8.61719L13.2969 9.625L14.3477 10L13.293 10.375L13.7735 11.3828L12.7657 10.9023L12.3907 11.957L12.0157 10.9023L11.0079 11.3828L11.4883 10.375L10.4337 10L11.4883 9.625L11.0079 8.61719L12.0157 9.09766L12.3907 8.04688Z" fill="#EEEEEE"/>
</g>
<defs>
<clipPath id="clip0">
<rect width="20" height="20" fill="white"/>
</clipPath>
</defs>
</svg>
