<svg width="20" height="20" viewBox="0 0 20 20" fill="none" xmlns="http://www.w3.org/2000/svg">
<g clip-path="url(#clip0)">
<path d="M10 20C15.5228 20 20 15.5228 20 10C20 4.47715 15.5228 0 10 0C4.47715 0 0 4.47715 0 10C0 15.5228 4.47715 20 10 20Z" fill="#EEEEEE"/>
<path d="M10 2.22061e-06C8.31764 -0.00111925 6.66223 0.422554 5.18726 1.23174C3.71229 2.04093 2.4655 3.20943 1.5625 4.62891L15.125 18.5859C17.0042 17.4639 18.4633 15.7564 19.2786 13.7253C20.094 11.6942 20.2204 9.45165 19.6386 7.34175C19.0569 5.23185 17.7989 3.37108 16.0578 2.0449C14.3167 0.718709 12.1886 0.000344881 10 2.22061e-06Z" fill="#FFDA44"/>
<path d="M20 10C20.0033 7.50782 19.0722 5.10495 17.3906 3.26562V16.7344C19.0722 14.8951 20.0033 12.4922 20 10ZM12.4922 18.8242H13.539L13.8632 17.8242L14.1875 18.8203H14.7109C15.0335 18.6488 15.3465 18.4597 15.6484 18.2539L1.74215 4.35547C1.51286 4.69013 1.30414 5.03843 1.11715 5.39844L1.24215 5.77734H2.28903L1.44528 6.39453L1.7695 7.39063L0.921841 6.77344L0.414029 7.14453C-0.113861 8.91289 -0.142112 10.7928 0.332405 12.5763C0.806922 14.3597 1.7657 15.977 3.10259 17.2492C4.43948 18.5214 6.10234 19.3988 7.90709 19.7844C9.71184 20.1699 11.5881 20.0485 13.3281 19.4336L12.4922 18.8242ZM2.22653 9.56641L2.55075 8.57031L1.70309 7.95313H2.74997L3.07418 6.95703L3.3984 7.95313H4.44528L3.59762 8.56641L3.92184 9.5625L3.07418 8.94922L2.22653 9.56641ZM4.38278 11.7383L4.707 10.7422L3.85934 10.1289H4.90622L5.23043 9.12891L5.55465 10.125H6.60153L5.75778 10.7422L6.082 11.7383L5.23434 11.1211L4.38669 11.7383H4.38278ZM6.53903 13.9141L6.86325 12.918L6.01559 12.3008H7.07028L7.3945 11.3047L7.71872 12.3008H8.76559L7.91793 12.9141L8.24215 13.9102L7.3945 13.2969L6.54684 13.9141H6.53903ZM9.54684 15.4727L8.69918 16.0859L9.0195 15.0898L8.17184 14.4766H9.22262L9.54293 13.4766L9.86715 14.4727H10.914L10.0781 15.0898L10.4023 16.0859L9.55465 15.4727H9.54684ZM10.8554 18.2617L11.1797 17.2656L10.332 16.6484H11.3789L11.7031 15.6523L12.0273 16.6484H13.0742L12.2265 17.2656L12.5507 18.2617L11.7031 17.6445L10.8554 18.2617Z" fill="#0052B4"/>
</g>
<defs>
<clipPath id="clip0">
<rect width="20" height="20" fill="white"/>
</clipPath>
</defs>
</svg>
