<svg width="20" height="20" viewBox="0 0 20 20" fill="none" xmlns="http://www.w3.org/2000/svg">
<g clip-path="url(#clip0)">
<path d="M14.3477 0.992188C13.0313 0.355469 11.5586 0 10 0C8.44144 0 6.96878 0.355469 5.65237 0.992188L4.78128 10L5.65237 19.0078C6.96878 19.6445 8.44144 20 10 20C11.5586 20 13.0313 19.6445 14.3477 19.0078L15.2188 10L14.3477 0.992188Z" fill="#FFDA44"/>
<path d="M5.65229 0.992172C3.95737 1.80931 2.52737 3.08807 1.52663 4.68149C0.525897 6.27492 -0.00497437 8.11837 -0.00497437 9.99998C-0.00497437 11.8816 0.525897 13.725 1.52663 15.3185C2.52737 16.9119 3.95737 18.1907 5.65229 19.0078V0.992172ZM14.3476 0.992172V19.0078C16.0425 18.1907 17.4725 16.9119 18.4733 15.3185C19.474 13.725 20.0049 11.8816 20.0049 9.99998C20.0049 8.11837 19.474 6.27492 18.4733 4.68149C17.4725 3.08807 16.0425 1.80931 14.3476 0.992172Z" fill="#0052B4"/>
<path d="M13.0469 6.08595L13.625 6.37892L13.043 6.08595L12.457 5.79689C12.4258 5.8672 11.6641 7.41408 11.5391 9.78126H10.6523V6.08595L10 5.21877L9.34765 6.08595V9.78126H8.46094C8.40848 8.40678 8.09565 7.05473 7.53906 5.79689L6.375 6.37892C6.38281 6.39455 7.17578 8.00783 7.17578 10.4336V11.086H9.34765V14.7813H10.6523V11.086H12.8242V10.4336C12.8242 9.18361 13.043 8.14455 13.2266 7.50001C13.4219 6.79689 13.625 6.38283 13.6289 6.37892L13.043 6.08595H13.0469Z" fill="#333333"/>
</g>
<defs>
<clipPath id="clip0">
<rect width="20" height="20" fill="white"/>
</clipPath>
</defs>
</svg>
