<svg width="20" height="20" viewBox="0 0 20 20" fill="none" xmlns="http://www.w3.org/2000/svg">
<path d="M0 10C0 7.34784 1.05357 4.8043 2.92893 2.92893C4.8043 1.05357 7.34784 0 10 0C12.6522 0 15.1957 1.05357 17.0711 2.92893C18.9464 4.8043 20 7.34784 20 10C19.5664 10 10 11.3047 10 11.3047L0 10Z" fill="#D80027"/>
<path d="M20 10C20 12.6522 18.9464 15.1957 17.0711 17.0711C15.1957 18.9464 12.6522 20 10 20C7.34784 20 4.8043 18.9464 2.92893 17.0711C1.05357 15.1957 0 12.6522 0 10" fill="#6DA544"/>
<path d="M9.99997 6.52344L10.7539 8.84766H13.2031L11.2265 10.2852L11.9804 12.6094L9.99997 11.1719L8.02341 12.6094L8.77731 10.2852L6.80075 8.84766H9.24606L9.99997 6.52344Z" fill="#FFDA44"/>
</svg>
