<svg width="20" height="20" viewBox="0 0 20 20" fill="none" xmlns="http://www.w3.org/2000/svg">
<g clip-path="url(#clip0)">
<path d="M20 9.99998C20 8.77733 19.7812 7.60545 19.375 6.52342L9.99999 6.08592L0.62499 6.52342C-0.208452 8.7662 -0.208452 11.2338 0.62499 13.4765L9.99999 13.914L19.375 13.4765C19.7812 12.3945 20 11.2226 20 9.99998Z" fill="#496E2D"/>
<path d="M10 20C12.0417 19.9998 14.0345 19.3745 15.7104 18.2084C17.3864 17.0422 18.6652 15.3909 19.375 13.4766H0.625C1.33483 15.3909 2.61364 17.0422 4.28957 18.2084C5.96551 19.3745 7.95826 19.9998 10 20Z" fill="#D80027"/>
<path d="M0.625 6.52344H19.375C18.6646 4.60967 17.3856 2.95914 15.7097 1.79359C14.0338 0.628037 12.0414 0.0032959 10 0.0032959C7.95865 0.0032959 5.96619 0.628037 4.29029 1.79359C2.6144 2.95914 1.33536 4.60967 0.625 6.52344Z" fill="#EEEEEE"/>
</g>
<defs>
<clipPath id="clip0">
<rect width="20" height="20" fill="white"/>
</clipPath>
</defs>
</svg>
