<svg width="20" height="20" viewBox="0 0 20 20" fill="none" xmlns="http://www.w3.org/2000/svg">
<g clip-path="url(#clip0)">
<path d="M10 20C15.5228 20 20 15.5228 20 10C20 4.47715 15.5228 0 10 0C4.47715 0 0 4.47715 0 10C0 15.5228 4.47715 20 10 20Z" fill="#EEEEEE"/>
<path d="M10 0C7.99219 0 6.125 0.589844 4.55859 1.60938L7.12891 3.33203L3.91406 5L7.12891 6.66797L3.91406 8.33203L7.12891 10L3.91406 11.668L7.12891 13.332L3.91406 15L7.12891 16.668L4.55859 18.3906C5.86387 19.2369 7.3486 19.7671 8.89472 19.9388C10.4408 20.1106 12.0057 19.9193 13.4649 19.3801C14.9241 18.841 16.2374 17.9688 17.3004 16.8329C18.3633 15.6971 19.1466 14.3289 19.588 12.8372C20.0294 11.3455 20.1166 9.77138 19.8429 8.24003C19.5691 6.70867 18.9418 5.26231 18.0109 4.01595C17.08 2.76958 15.8711 1.75758 14.4805 1.06042C13.0898 0.363262 11.5556 0.000164271 10 0V0Z" fill="#D80027"/>
</g>
<defs>
<clipPath id="clip0">
<rect width="20" height="20" fill="white"/>
</clipPath>
</defs>
</svg>
