<svg width="20" height="20" viewBox="0 0 20 20" fill="none" xmlns="http://www.w3.org/2000/svg">
<g clip-path="url(#clip0)">
<path d="M10 20C15.5228 20 20 15.5228 20 10C20 4.47715 15.5228 0 10 0C4.47715 0 0 4.47715 0 10C0 15.5228 4.47715 20 10 20Z" fill="#EEEEEE"/>
<path d="M16.0898 2.06641C14.3427 0.725868 12.2021 -0.000747681 10 -0.000747681C7.79786 -0.000747681 5.65725 0.725868 3.91016 2.06641L10 8.15626L16.0898 2.06641ZM10 11.8438L3.91016 17.9336C5.65725 19.2741 7.79786 20.0008 10 20.0008C12.2021 20.0008 14.3427 19.2741 16.0898 17.9336L10 11.8438Z" fill="#D80027"/>
<path d="M8.15626 10L2.06641 3.91017C0.725868 5.65727 -0.000747681 7.79788 -0.000747681 10C-0.000747681 12.2022 0.725868 14.3428 2.06641 16.0899L8.15626 10ZM11.8438 10L17.9336 16.0899C19.2741 14.3428 20.0008 12.2022 20.0008 10C20.0008 7.79788 19.2741 5.65727 17.9336 3.91017L11.8438 10Z" fill="#6DA544"/>
<path d="M10 14.3477C12.4012 14.3477 14.3477 12.4012 14.3477 10C14.3477 7.59887 12.4012 5.65236 10 5.65236C7.59887 5.65236 5.65236 7.59887 5.65236 10C5.65236 12.4012 7.59887 14.3477 10 14.3477Z" fill="#EEEEEE"/>
<path d="M10 6.95312L10.375 7.60938H11.1328L10.7578 8.26172L11.1328 8.91406H10.3789L10.0039 9.56641L9.62891 8.91406H8.86719L9.24219 8.26172L8.86719 7.60938H9.62109L10 6.95312ZM8.08594 10L8.46094 10.6523H9.21875L8.84375 11.3047L9.21875 11.957H8.46484L8.08984 12.6094L7.71484 11.957H6.95312L7.32813 11.3047L6.95312 10.6523H7.70703L8.08594 10ZM11.9141 10L12.2891 10.6523H13.0469L12.6719 11.3047L13.0469 11.957H12.293L11.918 12.6094L11.543 11.957H10.7812L11.1562 11.3047L10.7812 10.6523H11.5352L11.9141 10Z" fill="#D80027"/>
</g>
<defs>
<clipPath id="clip0">
<rect width="20" height="20" fill="white"/>
</clipPath>
</defs>
</svg>
