<svg width="20" height="20" viewBox="0 0 20 20" fill="none" xmlns="http://www.w3.org/2000/svg">
<g clip-path="url(#clip0)">
<path d="M6.52344 9.12892L7.39062 19.6563C8.87322 20.0546 10.4276 20.1066 11.9335 19.8083C13.4394 19.5101 14.8566 18.8695 16.0754 17.9361C17.2942 17.0027 18.2821 15.8016 18.9626 14.4255C19.6431 13.0494 19.9981 11.5352 20 10L6.52344 9.12892Z" fill="#D80027"/>
<path d="M6.52344 9.99998L7.39062 0.343739C8.87322 -0.0545805 10.4276 -0.106616 11.9335 0.191655C13.4394 0.489927 14.8566 1.13051 16.0754 2.0639C17.2942 2.99728 18.2821 4.19845 18.9626 5.57455C19.6431 6.95065 19.9981 8.46481 20 9.99998H6.52344Z" fill="#FFDA44"/>
<path d="M3.62848e-07 9.99998C-0.000591557 12.198 0.723038 14.335 2.05898 16.0805C3.39491 17.826 5.26873 19.0827 7.39063 19.6562V0.343735C5.26873 0.917288 3.39491 2.17398 2.05898 3.91945C0.723038 5.66493 -0.000591557 7.80194 3.62848e-07 9.99998Z" fill="#6DA544"/>
</g>
<defs>
<clipPath id="clip0">
<rect width="20" height="20" fill="white"/>
</clipPath>
</defs>
</svg>
