<svg width="20" height="20" viewBox="0 0 20 20" fill="none" xmlns="http://www.w3.org/2000/svg">
<path d="M10 20C15.5228 20 20 15.5228 20 10C20 4.47715 15.5228 0 10 0C4.47715 0 0 4.47715 0 10C0 15.5228 4.47715 20 10 20Z" fill="#EEEEEE"/>
<path d="M6.52344 6.95312C6.23336 6.95312 5.95516 7.06836 5.75004 7.27348C5.54492 7.47859 5.42969 7.75679 5.42969 8.04688H2.14844C2.14844 8.33696 2.26367 8.61516 2.46879 8.82027C2.67391 9.02539 2.95211 9.14062 3.24219 9.14062C3.24219 9.43071 3.35742 9.70891 3.56254 9.91402C3.76766 10.1191 4.04586 10.2344 4.33594 10.2344C4.33594 10.5245 4.45117 10.8027 4.65629 11.0078C4.86141 11.2129 5.13961 11.3281 5.42969 11.3281H14.5703C14.8604 11.3281 15.1386 11.2129 15.3437 11.0078C15.5488 10.8027 15.6641 10.5245 15.6641 10.2344C15.9541 10.2344 16.2323 10.1191 16.4375 9.91402C16.6426 9.70891 16.7578 9.43071 16.7578 9.14062C17.0479 9.14062 17.3261 9.02539 17.5312 8.82027C17.7363 8.61516 17.8516 8.33696 17.8516 8.04688H14.5703C14.5703 7.75679 14.4551 7.47859 14.25 7.27348C14.0448 7.06836 13.7666 6.95312 13.4766 6.95312H6.52344Z" fill="#ACABB1"/>
<path d="M4.80469 13.9453H6.52344V15.6641H4.80469V13.9453ZM13.4766 13.9453H15.1953V15.6641H13.4766V13.9453ZM6.52344 14.375H13.4766V16.0938H6.52344V14.375ZM9.14062 3.90625V5.21484L8.71094 5.66406L8.24219 5.42969V4.76562H6.52344V6.95312L10 7.5L13.4766 6.95312V4.76562H11.7578V5.42969L11.2891 5.66406L10.8594 5.21484V3.90625H9.14062Z" fill="#FFDA44"/>
<path d="M6.52344 6.95312V11.3281C6.52344 13.9844 10 14.7852 10 14.7852C10 14.7852 13.4766 13.9883 13.4766 11.3281V6.95312H6.52344Z" fill="#0052B4"/>
<path d="M6.52344 8.6758H13.4766V11.3711H6.52344V8.6758Z" fill="#D80027"/>
</svg>
