<svg width="20" height="20" viewBox="0 0 20 20" fill="none" xmlns="http://www.w3.org/2000/svg">
<path d="M20 10C20 12.6522 18.9464 15.1957 17.0711 17.0711C15.1957 18.9464 12.6522 20 10 20C7.34784 20 4.8043 18.9464 2.92893 17.0711C1.05357 15.1957 0 12.6522 0 10L10 0C12.6522 0 15.1957 1.05357 17.0711 2.92893C18.9464 4.8043 20 7.34784 20 10Z" fill="#D80027"/>
<path d="M10 4.78123V8.15623L6.52348 4.78123H10ZM5.21879 9.99998H8.15629L5.21879 6.08592L4.78129 9.1328L5.21879 9.99998Z" fill="#0052B4"/>
<path d="M9.97264 9.99998H9.99998V9.97264L9.97264 9.99998Z" fill="#EEEEEE"/>
<path d="M10 5.21875V0C7.34784 0 4.8043 1.05357 2.92893 2.92893C1.05357 4.8043 0 7.34784 0 10H5.21875V7.0625L8.15625 10H9.97266L10 9.97266V8.15625L7.0625 5.21875H10Z" fill="#EEEEEE"/>
<path d="M5.05863 1.30467C3.49339 2.19676 2.19682 3.49333 1.30473 5.05858V10.4336H3.9141V3.91014H10.4375V1.30858H5.05472L5.05863 1.30467Z" fill="#D80027"/>
<path d="M10.3985 9.16797L6.44537 5.21875H5.21881L10.3985 10.3984V9.16797Z" fill="#D80027"/>
<path d="M11.3047 5.21877V10C11.3047 12.3281 17.3907 12.3281 17.3907 10V5.21877H11.3047Z" fill="#EEEEEE"/>
<path d="M11.3047 10C11.3047 12.3281 14.3476 13.0469 14.3476 13.0469C14.3476 13.0469 17.3945 12.3281 17.3945 10H11.3008H11.3047Z" fill="#6DA544"/>
<path d="M14.3476 8.08594L12.9336 8.69531V10L14.3476 10.8711L15.7617 10V8.69531L14.3476 8.08594Z" fill="#A2001D"/>
<path d="M12.9336 7.39064H15.7617V8.69533H12.9297L12.9336 7.39064Z" fill="#338AF3"/>
</svg>
