<svg width="20" height="20" viewBox="0 0 20 20" fill="none" xmlns="http://www.w3.org/2000/svg">
<g clip-path="url(#clip0)">
<path d="M10 20C15.5228 20 20 15.5228 20 10C20 4.47715 15.5228 0 10 0C4.47715 0 0 4.47715 0 10C0 15.5228 4.47715 20 10 20Z" fill="#EEEEEE"/>
<path d="M1.33981 5C0.890591 5.78125 0.558559 6.60156 0.335903 7.42969L17.0547 17.0859C17.6779 16.4641 18.2164 15.7627 18.6562 15L1.34372 5H1.33981Z" fill="#333333"/>
<path d="M15 1.34077C13.0969 0.242248 10.8849 -0.198827 8.70598 0.0857177C6.52706 0.370262 4.50253 1.36458 2.94532 2.91498L19.6641 12.5673C20.2281 10.4436 20.0769 8.19316 19.2339 6.16393C18.3908 4.13471 16.9029 2.43965 15 1.34077ZM5.00001 18.6611C6.90314 19.7596 9.11512 20.2007 11.294 19.9161C13.473 19.6316 15.4975 18.6373 17.0547 17.0869L0.33595 7.43061C-0.229023 9.55492 -0.0783104 11.8062 0.764778 13.8362C1.60787 15.8663 3.09635 17.562 5.00001 18.6611Z" fill="#FFDA44"/>
<path d="M12.8242 8.91409C12.823 9.34328 12.724 9.76655 12.5348 10.1517C12.3455 10.5369 12.0709 10.8739 11.7319 11.1371C11.3929 11.4003 10.9983 11.5828 10.5782 11.6706C10.1581 11.7585 9.72355 11.7495 9.30747 11.6442C8.89139 11.539 8.50476 11.3403 8.17697 11.0633C7.84918 10.7862 7.58884 10.4381 7.41573 10.0454C7.24261 9.65265 7.16129 9.22564 7.17792 8.79678C7.19456 8.36791 7.30872 7.94848 7.51173 7.57034C7.0335 8.05966 6.71029 8.67922 6.58259 9.3514C6.45488 10.0236 6.52836 10.7185 6.79381 11.3491C7.05926 11.9797 7.50489 12.518 8.07487 12.8965C8.64486 13.275 9.31385 13.4769 9.99805 13.4769C10.6823 13.4769 11.3513 13.275 11.9212 12.8965C12.4912 12.518 12.9368 11.9797 13.2023 11.3491C13.4678 10.7185 13.5412 10.0236 13.4135 9.3514C13.2858 8.67922 12.9626 8.05966 12.4844 7.57034C12.708 7.9829 12.8248 8.44484 12.8242 8.91409Z" fill="#D80027"/>
<path d="M9.34764 5.65236H10.6523V12.1758H9.34764V5.65236Z" fill="#D80027"/>
<path d="M12.1718 6.95312H7.8281C7.8281 7.25781 8.08591 7.5 8.38669 7.5H8.37107C8.37106 7.64437 8.42814 7.78288 8.52986 7.88532C8.63157 7.98777 8.76967 8.04584 8.91403 8.04688C8.91607 8.18988 8.97406 8.3264 9.07555 8.42717C9.17705 8.52794 9.31398 8.58493 9.457 8.58594H10.5429C10.6873 8.58594 10.8258 8.52886 10.9283 8.42715C11.0307 8.32543 11.0888 8.18733 11.0898 8.04297C11.2328 8.04093 11.3693 7.98295 11.4701 7.88145C11.5709 7.77995 11.6279 7.64302 11.6289 7.5H11.6133C11.9101 7.5 12.1718 7.25781 12.1718 6.95703V6.95312ZM6.957 12.6133H13.0429V13.918H6.957V12.6133Z" fill="#D80027"/>
<path d="M11.3047 13.043H13.914V14.3477H11.3047V13.043ZM6.08592 13.043H8.6953V14.3477H6.08592V13.043Z" fill="#D80027"/>
</g>
<defs>
<clipPath id="clip0">
<rect width="20" height="20" fill="white"/>
</clipPath>
</defs>
</svg>
