<svg width="20" height="20" viewBox="0 0 20 20" fill="none" xmlns="http://www.w3.org/2000/svg">
<g clip-path="url(#clip0)">
<path d="M10 20C15.5228 20 20 15.5228 20 10C20 4.47715 15.5228 0 10 0C4.47715 0 0 4.47715 0 10C0 15.5228 4.47715 20 10 20Z" fill="#EEEEEE"/>
<path d="M2.92975 2.92967C1.91029 3.94653 1.12302 5.17201 0.622028 6.52194C0.121032 7.87186 -0.0818195 9.31424 0.0274086 10.75L10.7501 0.0273285C9.31432 -0.0818996 7.87194 0.120952 6.52202 0.621948C5.17209 1.12294 3.94661 1.91021 2.92975 2.92967Z" fill="#FFDA44"/>
<path d="M3.57035 17.6563C5.48654 19.2588 7.93313 20.0861 10.4287 19.9755C12.9242 19.8648 15.288 18.8242 17.0548 17.0583C18.8216 15.2925 19.8636 12.9293 19.9756 10.4338C20.0877 7.93835 19.2617 5.4913 17.6602 3.57422L3.57035 17.6602V17.6563Z" fill="#0052B4"/>
<path d="M9.9609 9.59767L10.8242 9.12892L9.96481 8.66017C9.86502 8.02261 9.56537 7.43319 9.10905 6.97687C8.65273 6.52055 8.06332 6.2209 7.42575 6.12111L6.957 5.26173L6.48825 6.12111C5.85068 6.2209 5.26126 6.52055 4.80494 6.97687C4.34863 7.43319 4.04898 8.02261 3.94918 8.66017L3.08981 9.12892L3.94918 9.59767C4.04898 10.2352 4.34863 10.8247 4.80494 11.281C5.26126 11.7373 5.85068 12.0369 6.48825 12.1367L6.957 13L7.42575 12.1406C8.06387 12.0406 8.6537 11.7404 9.11008 11.2833C9.56646 10.8262 9.86578 10.236 9.96481 9.59767H9.9609ZM6.95309 10.8711C6.49207 10.8711 6.04993 10.688 5.72394 10.362C5.39795 10.036 5.21481 9.59385 5.21481 9.13283C5.21481 8.67181 5.39795 8.22967 5.72394 7.90368C6.04993 7.57769 6.49207 7.39455 6.95309 7.39455C7.41411 7.39455 7.85625 7.57769 8.18224 7.90368C8.50823 8.22967 8.69137 8.67181 8.69137 9.13283C8.69137 9.59385 8.50823 10.036 8.18224 10.362C7.85625 10.688 7.41411 10.8711 6.95309 10.8711Z" fill="#333333"/>
<path d="M6.95306 7.8242L7.33196 8.47655H8.08587L7.71087 9.12889L8.08587 9.78124H7.33196L6.95696 10.4336L6.57806 9.78124H5.82806L6.20306 9.12889L5.82806 8.47655H6.57806L6.95306 7.8242Z" fill="#D80027"/>
</g>
<defs>
<clipPath id="clip0">
<rect width="20" height="20" fill="white"/>
</clipPath>
</defs>
</svg>
