<svg width="20" height="20" viewBox="0 0 20 20" fill="none" xmlns="http://www.w3.org/2000/svg">
<g clip-path="url(#clip0)">
<path d="M4.36328 18.2618C6.02367 19.3974 7.98838 20.0051 10 20.0051C12.0116 20.0051 13.9763 19.3974 15.6367 18.2618L10 17.3907L4.36328 18.2618ZM15.6367 1.73832C13.9763 0.602651 12.0116 -0.00498962 10 -0.00498962C7.98838 -0.00498962 6.02367 0.602651 4.36328 1.73832L10 2.60941L15.6367 1.73832Z" fill="#D80027"/>
<path d="M4.36328 18.2618C6.02367 19.3974 7.98838 20.0051 10 20.0051C12.0116 20.0051 13.9763 19.3974 15.6367 18.2618L10 17.3907L4.36328 18.2618ZM15.6367 1.73832C13.9763 0.602651 12.0116 -0.00498962 10 -0.00498962C7.98838 -0.00498962 6.02367 0.602651 4.36328 1.73832L10 2.60941L15.6367 1.73832Z" fill="#D80027"/>
<path d="M19.9727 9.34766C19.7383 6.26172 17.8633 3.26172 15.6367 1.73828H4.36328C3.10874 2.59331 2.06553 3.72297 1.31288 5.04147C0.560222 6.35997 0.11791 7.83264 0.0195312 9.34766L10 10L19.9727 9.34766ZM0.0195312 10.6523C0.226562 13.8164 1.89453 16.5742 4.36328 18.2617H15.6367C16.8913 17.4067 17.9345 16.277 18.6871 14.9585C19.4398 13.64 19.8821 12.1674 19.9805 10.6523L10 10L0.0195312 10.6523Z" fill="#0052B4"/>
<path d="M19.9727 9.34761H10.6523V1.30074H9.34766V9.34761H0.0195328C0.00603836 9.56479 -0.000475416 9.78235 1.51575e-06 9.99996C1.51575e-06 10.2187 0.00781402 10.4375 0.0195328 10.6523H9.34766V18.6992H10.6523V10.6523H19.9805C20.0057 10.2177 20.0031 9.78189 19.9727 9.34761Z" fill="#D80027"/>
<path d="M3.91406 10L10 6.17188L16.0859 10L10 13.8281L3.91406 10Z" fill="#EEEEEE"/>
<path d="M6.52344 11.7383H14.3477L12.6094 9.12895L11.7383 10L10.8711 9.56645L10 10.8711H8.26172L7.39062 10L6.52344 11.7383Z" fill="#6DA544"/>
<path d="M10 7.39067L10.2148 8.05473H10.918L10.3477 8.46489L10.5664 9.12895L10 8.7188L9.43359 9.12895L9.65234 8.46489L9.08594 8.05473H9.78516L10 7.39067Z" fill="#FFDA44"/>
<path d="M10 5.07812L2.17578 10L10 14.9219L17.8242 10L10 5.07812ZM4.625 10L10 6.62109L15.375 10L10 13.3789L4.625 10Z" fill="#D80027"/>
</g>
<defs>
<clipPath id="clip0">
<rect width="20" height="20" fill="white"/>
</clipPath>
</defs>
</svg>
