<svg width="20" height="20" viewBox="0 0 20 20" fill="none" xmlns="http://www.w3.org/2000/svg">
<g clip-path="url(#clip0)">
<path d="M10 20C15.5228 20 20 15.5228 20 10C20 4.47715 15.5228 0 10 0C4.47715 0 0 4.47715 0 10C0 15.5228 4.47715 20 10 20Z" fill="#EEEEEE"/>
<path d="M10 -0.000117499C9.99219 -0.00793 0 9.99988 0 9.99988C0 7.34772 1.05357 4.80418 2.92893 2.92881C4.8043 1.05345 7.34784 -0.000117499 10 -0.000117499ZM10 -0.000117499C10.0078 -0.00793 20 9.99988 20 9.99988C20 7.34772 18.9464 4.80418 17.0711 2.92881C15.1957 1.05345 12.6522 -0.000117499 10 -0.000117499Z" fill="#D80027"/>
<path d="M10 20C9.99219 20.0078 0 10 0 10C0 12.6522 1.05357 15.1957 2.92893 17.0711C4.8043 18.9464 7.34784 20 10 20ZM10 20C10.0078 20.0078 20 10 20 10C20 12.6522 18.9464 15.1957 17.0711 17.0711C15.1957 18.9464 12.6522 20 10 20Z" fill="#0052B4"/>
<path d="M10 5.21877L11.0781 8.53908H14.5703L11.7461 10.586L12.8242 13.9063L10 11.8555L7.17578 13.9102L8.25391 10.5899L5.42969 8.53517H8.92187L10 5.21877Z" fill="#FFDA44"/>
</g>
<defs>
<clipPath id="clip0">
<rect width="20" height="20" fill="white"/>
</clipPath>
</defs>
</svg>
