<svg width="20" height="20" viewBox="0 0 20 20" fill="none" xmlns="http://www.w3.org/2000/svg">
<path d="M10 20C15.5228 20 20 15.5228 20 10C20 4.47715 15.5228 0 10 0C4.47715 0 0 4.47715 0 10C0 15.5228 4.47715 20 10 20Z" fill="#6DA544"/>
<path d="M10 3.91411L18.2617 10L10 16.086L1.73828 10L10 3.91411Z" fill="#FFDA44"/>
<path d="M10 13.4766C11.9201 13.4766 13.4766 11.9201 13.4766 10C13.4766 8.07995 11.9201 6.52344 10 6.52344C8.07995 6.52344 6.52344 8.07995 6.52344 10C6.52344 11.9201 8.07995 13.4766 10 13.4766Z" fill="#EEEEEE"/>
<path d="M8.26172 9.78129C7.67218 9.78128 7.08607 9.87085 6.52344 10.0469C6.53255 10.7831 6.77517 11.4975 7.21633 12.0869C7.65749 12.6764 8.27441 13.1106 8.97819 13.327C9.68197 13.5433 10.4363 13.5306 11.1324 13.2908C11.8285 13.0509 12.4305 12.5962 12.8516 11.9922C12.3027 11.3012 11.6048 10.7432 10.81 10.3597C10.0153 9.97615 9.14417 9.7771 8.26172 9.77738V9.78129ZM13.4141 10.668C13.4563 10.4479 13.4772 10.2242 13.4766 10C13.4768 9.19928 13.2007 8.42297 12.6948 7.80228C12.1889 7.18159 11.4842 6.75458 10.6998 6.59339C9.91545 6.4322 9.09949 6.54671 8.3898 6.91759C7.68011 7.28847 7.1202 7.89297 6.80469 8.62894C7.28389 8.52859 7.77212 8.47754 8.26172 8.4766C10.2812 8.4766 12.1094 9.31644 13.4141 10.6641V10.668Z" fill="#0052B4"/>
</svg>
