<svg width="20" height="20" viewBox="0 0 20 20" fill="none" xmlns="http://www.w3.org/2000/svg">
<path d="M2.92969 17.0703C1.09957 15.1859 0.0844178 12.657 0.103615 10.0302C0.122813 7.40346 1.17482 4.88971 3.03228 3.03225C4.88974 1.17479 7.40349 0.122782 10.0303 0.103585C12.657 0.0843873 15.1859 1.09954 17.0703 2.92965C17.0703 2.92965 19.7266 11.914 15.8203 15.8203C11.9141 19.7265 2.92969 17.0703 2.92969 17.0703Z" fill="#FFDA44"/>
<path d="M2.92969 17.0703C4.8141 18.9004 7.34295 19.9156 9.96973 19.8964C12.5965 19.8772 15.1103 18.8252 16.9677 16.9677C18.8252 15.1103 19.8772 12.5965 19.8964 9.96973C19.9156 7.34295 18.9004 4.8141 17.0703 2.92969L2.92969 17.0703Z" fill="#FF9811"/>
<path d="M15.6563 5.65239V3.91411H12.3242L12.0703 4.16801C11.1641 5.07426 11.3164 6.12895 11.4258 6.90239C11.5313 7.61723 11.543 7.89067 11.2774 8.1563C11.0117 8.42583 10.7344 8.4102 10.0195 8.30864C9.25001 8.19536 8.19142 8.04301 7.28517 8.94926C6.37892 9.85551 6.53127 10.9141 6.64455 11.6836C6.74611 12.3985 6.76173 12.6758 6.4922 12.9415C6.22658 13.2071 5.95314 13.1954 5.2383 13.0899C4.95705 13.0508 4.67189 13.0118 4.3633 13.004L4.34377 14.7461C4.53908 14.7461 4.75783 14.7774 4.9883 14.8125C5.26173 14.8516 5.57423 14.8985 5.90627 14.8985C6.24611 14.8985 6.60939 14.8477 6.96095 14.6954V16.086H9.57033V14.7813H8.26564V13.9141H9.13673V12.6094H8.43751C8.46876 12.1875 8.41017 11.7813 8.35939 11.4375C8.25783 10.7188 8.2422 10.4454 8.51173 10.1797C8.77736 9.91411 9.0508 9.92583 9.76955 10.0313C10.3281 10.1094 11.043 10.2149 11.7383 9.91411V11.3047H14.3477V10H13.0469V9.12895H13.918V7.82426H13.2227C13.242 7.43193 13.2158 7.03868 13.1445 6.65239C13.0742 6.15239 13.0469 5.87114 13.1289 5.65239H15.6563Z" fill="#EEEEEE"/>
</svg>
