<svg width="20" height="20" viewBox="0 0 20 20" fill="none" xmlns="http://www.w3.org/2000/svg">
<g clip-path="url(#clip0)">
<path d="M0.468725 6.95312C-0.165763 8.93483 -0.165763 11.0652 0.468725 13.0469L9.99998 13.4766L19.5312 13.0469C20.1657 11.0652 20.1657 8.93483 19.5312 6.95312L9.99998 6.52344L0.468725 6.95312Z" fill="#EEEEEE"/>
<path d="M20 10C20 9.40625 19.9492 8.82812 19.8476 8.26172H0.156221C-0.0456446 9.41178 -0.0456446 10.5882 0.156221 11.7383H19.8437C19.946 11.1645 19.9983 10.5829 20 10Z" fill="#333333"/>
<path d="M10 19.9999C14.4609 19.9999 18.2422 17.0781 19.5312 13.0468H0.46875C1.11544 15.0664 2.38714 16.8282 4.1003 18.078C5.81346 19.3277 7.87943 20.0008 10 19.9999ZM10 -5.87722e-05C5.53906 -5.87722e-05 1.75781 2.92182 0.46875 6.95307H19.5312C18.8851 4.93319 17.6135 3.17103 15.9002 1.92118C14.187 0.671329 12.1207 -0.00148506 10 -5.87722e-05Z" fill="#338AF3"/>
</g>
<defs>
<clipPath id="clip0">
<rect width="20" height="20" fill="white"/>
</clipPath>
</defs>
</svg>
