<svg width="20" height="20" viewBox="0 0 20 20" fill="none" xmlns="http://www.w3.org/2000/svg">
<g clip-path="url(#clip0)">
<path d="M10 20C15.5228 20 20 15.5228 20 10C20 4.47715 15.5228 0 10 0C4.47715 0 0 4.47715 0 10C0 15.5228 4.47715 20 10 20Z" fill="#EEEEEE"/>
<path d="M4.12888 9.27348L3.04684 7.30473L4.13278 5.36333L5.22263 7.30473L4.12888 9.27348ZM1.957 9.27348L0.871063 7.30473L1.95309 5.36333L3.04294 7.30473L1.957 9.27348ZM4.12888 14.6368L3.04684 12.6641L4.13278 10.7266L5.22263 12.6641L4.12888 14.6368ZM1.957 14.6368L0.871063 12.6641L1.95309 10.7266L3.03903 12.6641L1.957 14.6368ZM5.21872 1.94145L4.90622 1.39458C4.35728 1.71964 3.84061 2.09635 3.36325 2.51958L4.12888 3.91411L5.21872 1.94145ZM4.12888 16.086L3.35934 17.4727C3.8376 17.8988 4.35559 18.2782 4.90622 18.6055L5.21872 18.0274L4.13278 16.086H4.12888Z" fill="#A2001D"/>
<path d="M6.08591 12.6093V19.2031C7.33103 19.733 8.67075 20.0047 10.0239 20.0017C11.3771 19.9987 12.7157 19.7212 13.9584 19.1858C15.2012 18.6504 16.3224 17.8683 17.2541 16.887C18.1858 15.9056 18.9087 14.7454 19.3789 13.4765L6.08591 12.6093Z" fill="#6DA544"/>
<path d="M19.375 13.4765C20.0554 11.6445 20.1841 9.65315 19.7452 7.74873C19.3062 5.8443 18.3188 4.11025 16.905 2.76089C15.4912 1.41153 13.7131 0.506017 11.7903 0.156267C9.86744 -0.193483 7.88429 0.0278621 6.08591 0.792945V13.4765H19.3828H19.375Z" fill="#A2001D"/>
</g>
<defs>
<clipPath id="clip0">
<rect width="20" height="20" fill="white"/>
</clipPath>
</defs>
</svg>
