<svg width="20" height="20" viewBox="0 0 20 20" fill="none" xmlns="http://www.w3.org/2000/svg">
<g clip-path="url(#clip0)">
<path d="M20 9.99998C20 6.56639 18.2695 3.53905 15.6367 1.73827L9.99997 1.30467L4.36325 1.73827C3.01759 2.65534 1.91655 3.88753 1.15606 5.3275C0.395567 6.76746 -0.00131883 8.37153 -2.73759e-05 9.99998C-2.73759e-05 13.4336 1.73044 16.4609 4.36325 18.2617L9.99997 18.6953L15.6367 18.2617C16.9824 17.3446 18.0834 16.1124 18.8439 14.6725C19.6044 13.2325 20.0013 11.6284 20 9.99998Z" fill="#0052B4"/>
<path d="M15.6367 1.73825C13.9758 0.604361 12.0111 -0.0015129 10 -3.1257e-05C7.98861 -0.00346602 6.02338 0.602582 4.36328 1.73825H15.6367ZM4.36328 18.2617C6.02367 19.3974 7.98838 20.005 10 20.005C12.0116 20.005 13.9763 19.3974 15.6367 18.2617H4.36328Z" fill="#A2001D"/>
<path d="M9.99997 14.7813C12.6406 14.7813 14.7812 12.6406 14.7812 10C14.7812 7.35942 12.6406 5.21878 9.99997 5.21878C7.35936 5.21878 5.21872 7.35942 5.21872 10C5.21872 12.6406 7.35936 14.7813 9.99997 14.7813Z" fill="#EEEEEE"/>
<path d="M10 13.914C12.1617 13.914 13.9141 12.1616 13.9141 9.99995C13.9141 7.83828 12.1617 6.08589 10 6.08589C7.83832 6.08589 6.08594 7.83828 6.08594 9.99995C6.08594 12.1616 7.83832 13.914 10 13.914Z" fill="#6DA544"/>
<path d="M10 12.6094C11.4411 12.6094 12.6094 11.4412 12.6094 10C12.6094 8.55893 11.4411 7.39067 10 7.39067C8.55888 7.39067 7.39062 8.55893 7.39062 10C7.39062 11.4412 8.55888 12.6094 10 12.6094Z" fill="#EEEEEE"/>
<path d="M10 9.34761L8.58594 9.99996V11.0859L10 11.957L11.4141 11.0859V9.99996L10 9.34761Z" fill="#0052B4"/>
<path d="M8.58594 8.69534H11.4141V10H8.58594V8.69534Z" fill="#FFDA44"/>
</g>
<defs>
<clipPath id="clip0">
<rect width="20" height="20" fill="white"/>
</clipPath>
</defs>
</svg>
