<svg width="20" height="20" viewBox="0 0 20 20" fill="none" xmlns="http://www.w3.org/2000/svg">
<g clip-path="url(#clip0)">
<path d="M0 10C0 7.34784 1.05357 4.8043 2.92893 2.92893C4.8043 1.05357 7.34784 0 10 0C12.6522 0 15.1957 1.05357 17.0711 2.92893C18.9464 4.8043 20 7.34784 20 10H0Z" fill="#EEEEEE"/>
<path d="M7.39062 9.45307L6.84375 9.99995H7.39062V9.45307ZM12.6094 9.45307V9.99995H13.1562L12.6094 9.45307ZM0.289063 7.60933C0.0969524 8.39168 -0.000102558 9.19435 8.13228e-08 9.99995H3.15625L5.54688 7.60933H0.289063ZM14.4531 7.60933L16.8438 9.99995H20C19.9999 9.19436 19.9029 8.39172 19.7109 7.60933H14.4531Z" fill="#0052B4"/>
<path d="M13.8398 7.60933H12.6094L15 9.99995H16.2305L13.8398 7.60933ZM7.39453 8.83979V7.60933L5 9.99995H6.23047L7.39453 8.83979Z" fill="#D80027"/>
<path d="M4.68753 1.52736C4.2752 1.78624 3.88223 2.07476 3.51175 2.39064H5.54691L4.68753 1.53127V1.52736ZM16.4844 2.39064C16.1151 2.07625 15.7234 1.78904 15.3125 1.53127L14.4532 2.39064H16.4844Z" fill="#0052B4"/>
<path d="M11.3047 6.30469H19.293C18.918 5.35547 18.3945 4.47656 17.7617 3.69531H11.3047V0.0859375C10.8721 0.0291355 10.4363 0.000429516 10 0C9.55859 0 9.12109 0.0273438 8.69531 0.0859375V3.69531H2.23828C1.597 4.48208 1.07934 5.36197 0.703125 6.30469H8.69141V10H11.3008V6.30469H11.3047Z" fill="#D80027"/>
<path d="M7.39063 2.39067L5.88281 0.882858C5.60581 1.00841 5.33469 1.14658 5.07031 1.29692L6.16406 2.39067H7.39063ZM12.6094 2.39067L14.1172 0.882858C13.8286 0.753016 13.534 0.636999 13.2344 0.535202L12.6094 1.1602V2.39067Z" fill="#D80027"/>
<path d="M20 10C20 12.6522 18.9464 15.1957 17.0711 17.0711C15.1957 18.9464 12.6522 20 10 20C7.34784 20 4.8043 18.9464 2.92893 17.0711C1.05357 15.1957 0 12.6522 0 10H20Z" fill="#EEEEEE"/>
<path d="M18.332 11.2735C17.5 11.2735 17.5 10.5117 16.6679 10.5117C15.832 10.5117 15.832 11.2735 15 11.2735C14.1679 11.2735 14.1679 10.5117 13.332 10.5117C12.5 10.5117 12.5 11.2735 11.6679 11.2735C10.8359 11.2735 10.832 10.5117 9.99997 10.5117C9.16794 10.5117 9.16794 11.2735 8.332 11.2735C7.49997 11.2735 7.49997 10.5117 6.66794 10.5117C5.832 10.5117 5.832 11.2735 4.99997 11.2735C4.16794 11.2735 4.16794 10.5117 3.332 10.5117C2.49997 10.5117 2.49997 11.2735 1.66794 11.2735C0.835907 11.2735 0.832001 10.5235 0.0116882 10.5196C0.0346941 10.9706 0.0882018 11.4195 0.171844 11.8633C0.835907 11.961 0.894501 12.6133 1.66794 12.6133C2.49997 12.6133 2.49997 11.8516 3.332 11.8516C4.16794 11.8516 4.16794 12.6133 4.99997 12.6133C5.832 12.6133 5.832 11.8516 6.66794 11.8516C7.49997 11.8516 7.49997 12.6133 8.332 12.6133C9.16794 12.6133 9.16794 11.8516 9.99997 11.8516C10.832 11.8516 10.832 12.6133 11.6679 12.6133C12.5039 12.6133 12.5 11.8516 13.332 11.8516C14.1679 11.8516 14.1679 12.6133 15 12.6133C15.832 12.6133 15.832 11.8516 16.6679 11.8516C17.5 11.8516 17.5 12.6133 18.332 12.6133C19.1054 12.6133 19.164 11.961 19.8281 11.8633C19.9104 11.4194 19.9626 10.9705 19.9843 10.5196C19.164 10.5274 19.164 11.2813 18.332 11.2813V11.2735ZM16.6679 13.125C15.832 13.125 15.832 13.8867 15 13.8867C14.1679 13.8867 14.1679 13.125 13.332 13.125C12.5 13.125 12.5 13.8867 11.6679 13.8867C10.832 13.8867 10.832 13.125 9.99997 13.125C9.16794 13.125 9.16794 13.8867 8.332 13.8867C7.49997 13.8867 7.49997 13.125 6.66794 13.125C5.832 13.125 5.832 13.8867 4.99997 13.8867C4.16794 13.8867 4.16794 13.125 3.332 13.125C2.49997 13.125 2.49997 13.8828 1.66794 13.8828C1.07028 13.8828 0.902313 13.4922 0.546845 13.2735C0.7807 13.9448 1.08583 14.5891 1.457 15.1953C1.5195 15.2071 1.58981 15.2149 1.66794 15.2149C2.49997 15.2188 2.49997 14.4532 3.332 14.4532C4.16794 14.4532 4.16794 15.2149 4.99997 15.2149C5.832 15.2149 5.832 14.4532 6.66794 14.4532C7.49997 14.4532 7.49997 15.2149 8.332 15.2149C9.16794 15.2149 9.16794 14.4532 9.99997 14.4532C10.832 14.4532 10.832 15.2149 11.6679 15.2149C12.5039 15.2149 12.5 14.4532 13.332 14.4532C14.1679 14.4532 14.1679 15.2149 15 15.2149C15.832 15.2149 15.832 14.4532 16.6679 14.4532C17.5 14.4532 17.5 15.2149 18.332 15.2149C18.4101 15.2149 18.4804 15.2071 18.5429 15.1953C18.9143 14.5878 19.2195 13.9422 19.4531 13.2696C19.1015 13.4922 18.9297 13.8789 18.332 13.8789C17.5 13.8789 17.5 13.1172 16.6679 13.1172V13.125Z" fill="#0052B4"/>
<path d="M3.0518e-05 9.76563V9.6875V9.76563ZM-0.00387573 10C-0.00387573 10.1836 3.05176e-05 10.3633 0.0117493 10.543C0.832062 10.5508 0.832062 11.3047 1.66409 11.3047C2.49612 11.3047 2.49612 10.543 3.32816 10.543C4.16409 10.543 4.16409 11.3047 4.99612 11.3047C5.82816 11.3047 5.82816 10.543 6.66409 10.543C7.49613 10.543 7.49613 11.3047 8.32816 11.3047C9.16409 11.3047 9.16409 10.543 9.99613 10.543C10.8282 10.543 10.8282 11.3047 11.6641 11.3047C12.5 11.3047 12.4961 10.543 13.3282 10.543C14.1641 10.543 14.1641 11.3047 14.9961 11.3047C15.8282 11.3047 15.8282 10.543 16.6641 10.543C17.4961 10.543 17.4961 11.3047 18.3282 11.3047C19.1563 11.3047 19.1641 10.5508 19.9805 10.543C19.9922 10.3633 19.9961 10.1836 19.9961 10H3.0518e-05H-0.00387573Z" fill="#EEEEEE"/>
<path d="M16.6679 15.7305C15.832 15.7305 15.832 16.4922 15 16.4922C14.1679 16.4922 14.1679 15.7305 13.332 15.7305C12.5 15.7305 12.5 16.4922 11.6679 16.4922C10.832 16.4922 10.832 15.7305 9.99997 15.7305C9.16794 15.7305 9.16794 16.4922 8.332 16.4922C7.49997 16.4922 7.49997 15.7305 6.66794 15.7305C5.832 15.7305 5.832 16.4922 4.99997 16.4922C4.16794 16.4922 4.16794 15.7305 3.332 15.7305C2.75778 15.7305 2.57809 16.0938 2.24997 16.3165C3.12907 17.3941 4.22249 18.2774 5.46091 18.9102L9.99997 18.6837L14.539 18.9102C15.777 18.2784 16.8704 17.3965 17.75 16.3204C17.4218 16.0938 17.2422 15.7344 16.6679 15.7344V15.7305Z" fill="#0052B4"/>
<path d="M15.5469 15.9687L12.5039 16.5547L12.1172 13.4766L10 15.7422L7.88281 13.4766L7.49219 16.5508L4.45312 15.9687L5.94531 18.6836L5.45703 18.9102C6.82422 19.6094 8.36328 20 10 20C11.6367 20 13.1797 19.6094 14.543 18.9102L14.0547 18.6836L15.5469 15.9687Z" fill="#FFDA44"/>
</g>
<defs>
<clipPath id="clip0">
<rect width="20" height="20" fill="white"/>
</clipPath>
</defs>
</svg>
