<svg width="20" height="20" viewBox="0 0 20 20" fill="none" xmlns="http://www.w3.org/2000/svg">
<g clip-path="url(#clip0)">
<path d="M10 20C15.5228 20 20 15.5228 20 10C20 4.47715 15.5228 0 10 0C4.47715 0 0 4.47715 0 10C0 15.5228 4.47715 20 10 20Z" fill="#EEEEEE"/>
<path d="M20 9.99998C20.0004 8.11889 19.4703 6.27582 18.4705 4.68244C17.4706 3.08906 16.0417 1.81001 14.3477 0.992172V19.0078C16.0417 18.19 17.4706 16.9109 18.4705 15.3175C19.4703 13.7242 20.0004 11.8811 20 9.99998ZM2.82363e-07 9.99998C-0.000446655 11.8811 0.52969 13.7242 1.52952 15.3175C2.52936 16.9109 3.95834 18.19 5.65234 19.0078V0.992172C3.95834 1.81001 2.52936 3.08906 1.52952 4.68244C0.52969 6.27582 -0.000446655 8.11889 2.82363e-07 9.99998ZM11.7383 11.3047L13.4766 10.4297L12.6094 9.99998V9.12889L10.8711 9.99998L11.7383 8.2617H10.8711L10 6.95311L9.12891 8.2578H8.26172L9.12891 9.99608L7.39062 9.12498V9.99998L6.52344 10.4336L8.26172 11.3047L7.82422 12.1758H9.57031V13.4765H10.4297V12.1758H12.1719L11.7383 11.3047Z" fill="#D80027"/>
</g>
<defs>
<clipPath id="clip0">
<rect width="20" height="20" fill="white"/>
</clipPath>
</defs>
</svg>
