<svg width="20" height="20" viewBox="0 0 20 20" fill="none" xmlns="http://www.w3.org/2000/svg">
<path d="M10 20C15.5228 20 20 15.5228 20 10C20 4.47715 15.5228 0 10 0C4.47715 0 0 4.47715 0 10C0 15.5228 4.47715 20 10 20Z" fill="#6DA544"/>
<path d="M15.3515 14.3477L15.625 14.9219L16.2461 14.7773L15.9687 15.3516L16.4648 15.7422L15.8437 15.8867V16.5234L15.3515 16.125L14.8554 16.5234V15.8867L14.2343 15.7461L14.7343 15.3516L14.457 14.7773L15.0781 14.9219L15.3515 14.3477ZM12.7968 8.26172L13.0703 8.83594L13.6953 8.69141L13.414 9.26562L13.914 9.65625L13.289 9.79688L13.2929 10.4336L12.7968 10.0352L12.3008 10.4336V9.79688L11.6836 9.66016L12.1797 9.26562L11.9062 8.69141L12.5234 8.83594L12.7968 8.26172ZM15.3515 4.78516L15.625 5.35547L16.2461 5.21484L15.9687 5.78516L16.4648 6.17969L15.8437 6.32031V6.95703L15.3515 6.55859L14.8554 6.95703V6.32031L14.2343 6.17969L14.7343 5.78906L14.457 5.21484L15.0781 5.35156L15.3515 4.78516ZM17.5781 7.39062L17.8515 7.96484L18.4765 7.82031L18.1992 8.39453L18.6953 8.78906L18.0742 8.92969V9.56641L17.582 9.16797L17.0859 9.56641V8.92969L16.4648 8.78906L16.9648 8.39453L16.6875 7.82031L17.3047 7.96875L17.5781 7.39062ZM15.9843 10.4375L16.2031 11.1016H16.9023L16.3359 11.5078L16.5508 12.1719L15.9843 11.7617L15.4218 12.1758L15.6367 11.5117L15.0703 11.0977H15.7734L15.9843 10.4375Z" fill="#FFDA44"/>
<path d="M11.0859 12.8242C10.6568 12.823 10.2335 12.7241 9.84829 12.5348C9.46309 12.3455 9.1261 12.0709 8.86292 11.7319C8.59973 11.3929 8.41727 10.9984 8.3294 10.5783C8.24153 10.1582 8.25056 9.72357 8.3558 9.30749C8.46105 8.8914 8.65974 8.50478 8.93678 8.17699C9.21382 7.8492 9.56193 7.58885 9.95465 7.41574C10.3474 7.24263 10.7744 7.1613 11.2033 7.17794C11.6321 7.19457 12.0515 7.30873 12.4297 7.51174C11.9404 7.03352 11.3208 6.71031 10.6486 6.5826C9.97645 6.4549 9.28153 6.52837 8.65092 6.79383C8.02031 7.05928 7.48205 7.50491 7.10356 8.07489C6.72507 8.64488 6.52318 9.31387 6.52318 9.99807C6.52318 10.6823 6.72507 11.3513 7.10356 11.9213C7.48205 12.4912 8.02031 12.9369 8.65092 13.2023C9.28153 13.4678 9.97645 13.5412 10.6486 13.4135C11.3208 13.2858 11.9404 12.9626 12.4297 12.4844C12.0171 12.708 11.5552 12.8248 11.0859 12.8242ZM6.28906 3.91409C6.13656 3.64962 5.91709 3.42998 5.65275 3.27726C5.3884 3.12455 5.08849 3.04414 4.78321 3.04414C4.47792 3.04414 4.17801 3.12455 3.91366 3.27726C3.64932 3.42998 3.42985 3.64962 3.27735 3.91409H6.28516H6.28906ZM6.29297 3.9219L4.78125 5.43362L3.26953 3.9219C3.12049 4.18375 3.04239 4.47998 3.04297 4.78128C3.04297 5.00955 3.08793 5.23559 3.17529 5.44649C3.26265 5.65738 3.39069 5.84901 3.5521 6.01043C3.71352 6.17184 3.90514 6.29988 4.11604 6.38724C4.32694 6.47459 4.55298 6.51956 4.78125 6.51956C5.00953 6.51956 5.23557 6.47459 5.44646 6.38724C5.65736 6.29988 5.84899 6.17184 6.0104 6.01043C6.17182 5.84901 6.29986 5.65738 6.38721 5.44649C6.47457 5.23559 6.51953 5.00955 6.51953 4.78128C6.52011 4.47998 6.44202 4.18375 6.29297 3.9219Z" fill="#FFDA44"/>
<path d="M4.34772 5V6.46875C4.48938 6.50511 4.63506 6.52348 4.78131 6.52344C4.93366 6.52344 5.07819 6.50391 5.21881 6.46875V5H4.34772Z" fill="#A2001D"/>
</svg>
