<svg width="20" height="20" viewBox="0 0 20 20" fill="none" xmlns="http://www.w3.org/2000/svg">
<g clip-path="url(#clip0)">
<path d="M18.8906 5.41408C17.9384 3.56637 16.4337 2.06161 14.5859 1.10939L7.53906 7.53908L1.10938 14.586C2.0616 16.4337 3.56635 17.9384 5.41406 18.8906L12.4609 12.461L18.8906 5.41408Z" fill="#FFDA44"/>
<path d="M2.92969 17.0704C3.34155 17.4834 3.78855 17.8598 4.26562 18.1954L18.1953 4.26567C17.8598 3.78858 17.4833 3.34159 17.0703 2.92973C16.6584 2.51672 16.2114 2.14031 15.7344 1.80473L1.80469 15.7344C2.14024 16.2115 2.51666 16.6585 2.92969 17.0704Z" fill="#D80027"/>
<path d="M2.92968 2.92971C1.43007 4.42891 0.445621 6.36585 0.118438 8.46095C-0.208745 10.556 0.138263 12.7009 1.10937 14.586L14.5859 1.1094C12.7009 0.138286 10.556 -0.208722 8.46092 0.118461C6.36583 0.445644 4.42889 1.43009 2.92968 2.92971ZM17.0703 17.0703C18.5699 15.5711 19.5544 13.6342 19.8815 11.5391C20.2087 9.444 19.8617 7.29913 18.8906 5.41408L5.41406 18.8906C7.29911 19.8618 9.44397 20.2088 11.5391 19.8816C13.6342 19.5544 15.5711 18.57 17.0703 17.0703Z" fill="#338AF3"/>
<path d="M5.32812 3.04688L5.86719 4.70312H7.61719L6.20703 5.73047L6.74609 7.39062L5.33203 6.36328L3.92188 7.39062L4.46094 5.73047L3.04688 4.70312H4.79297L5.32812 3.04688Z" fill="#FFDA44"/>
</g>
<defs>
<clipPath id="clip0">
<rect width="20" height="20" fill="white"/>
</clipPath>
</defs>
</svg>
