<svg width="20" height="20" viewBox="0 0 20 20" fill="none" xmlns="http://www.w3.org/2000/svg">
<g clip-path="url(#clip0)">
<path d="M10 20C15.5228 20 20 15.5228 20 10C20 4.47715 15.5228 0 10 0C4.47715 0 0 4.47715 0 10C0 15.5228 4.47715 20 10 20Z" fill="#EEEEEE"/>
<path d="M18.7852 5.2187C18.1376 4.03171 17.2567 2.98795 16.1954 2.15017C15.1341 1.3124 13.9143 0.697925 12.6094 0.343704L12.1758 5.2187H18.7852ZM1.21484 5.2187H7.82422L7.39453 0.343704C6.08811 0.696774 4.86672 1.31073 3.80398 2.14857C2.74124 2.98641 1.85917 4.03077 1.21094 5.2187H1.21484Z" fill="#0052B4"/>
<path d="M12.1758 10V14.7812H18.7852C19.5586 13.3633 20 11.7344 20 10H12.1758ZM7.82422 10H0C0 11.7344 0.441406 13.3594 1.21484 14.7812H7.82422V10Z" fill="#6DA544"/>
<path d="M1.21486 14.7813C1.8624 15.9682 2.74332 17.012 3.80463 17.8498C4.86595 18.6876 6.08573 19.302 7.39064 19.6563L7.82423 15.3945L1.21486 14.7813ZM12.6094 19.6563C13.9137 19.3018 15.1328 18.6872 16.1934 17.8494C17.2541 17.0116 18.1343 15.968 18.7813 14.7813L12.1758 15.3945L12.6055 19.6524L12.6094 19.6563ZM12.1758 15.3945L18.7852 14.7813H12.1758V15.3945ZM7.82423 14.7813H1.21486L7.82423 15.3945V14.7813Z" fill="#FFDA44"/>
<path d="M10 5.42473e-06C9.1188 -0.00179386 8.24129 0.113806 7.39062 0.343755V19.6563C9.09962 20.1176 10.9004 20.1176 12.6094 19.6563V0.343755C11.7585 0.114846 10.8811 -0.000735717 10 5.42473e-06Z" fill="#D80027"/>
<path d="M5.37891 2.17583L5.64844 3.00395H6.52344L5.81641 3.51567L6.08594 4.3477L5.37891 3.83598L4.67578 4.3477L4.94141 3.51567L4.23828 3.00786H5.10938L5.37891 2.17583Z" fill="#FFDA44"/>
</g>
<defs>
<clipPath id="clip0">
<rect width="20" height="20" fill="white"/>
</clipPath>
</defs>
</svg>
