<svg width="20" height="20" viewBox="0 0 20 20" fill="none" xmlns="http://www.w3.org/2000/svg">
<g clip-path="url(#clip0)">
<path d="M5.42186 18.8906L12.7656 12.7656L18.8906 5.42189C17.9414 3.57423 16.4297 2.06252 14.5859 1.10939L7.23436 7.23439L1.10936 14.586C2.06511 16.4338 3.57233 17.9382 5.42186 18.8906Z" fill="#FFDA44"/>
<path d="M17.0703 17.0703C18.5699 15.5711 19.5544 13.6342 19.8816 11.5391C20.2088 9.44397 19.8617 7.2991 18.8906 5.41405L5.41408 18.8906C7.29913 19.8617 9.44399 20.2087 11.5391 19.8816C13.6342 19.5544 15.5711 18.5699 17.0703 17.0703Z" fill="#D80027"/>
<path d="M2.9297 2.92971C1.43008 4.42891 0.445636 6.36585 0.118453 8.46095C-0.20873 10.556 0.138278 12.7009 1.10939 14.586L14.586 1.1094C12.7009 0.138286 10.556 -0.208722 8.46094 0.118461C6.36585 0.445644 4.42891 1.43009 2.9297 2.92971Z" fill="#6DA544"/>
</g>
<defs>
<clipPath id="clip0">
<rect width="20" height="20" fill="white"/>
</clipPath>
</defs>
</svg>
