<svg width="20" height="20" viewBox="0 0 20 20" fill="none" xmlns="http://www.w3.org/2000/svg">
<g clip-path="url(#clip0)">
<path d="M9.99998 20.0001C11.2226 20.0001 12.3945 19.7813 13.4765 19.3751L13.914 10.0001L13.4765 0.625051C11.2338 -0.208391 8.7662 -0.208391 6.52342 0.625051L6.08592 10.0001L6.52342 19.3751C7.60545 19.7813 8.77733 20.0001 9.99998 20.0001Z" fill="#EEEEEE"/>
<path d="M0 10C0.000249226 12.0417 0.625473 14.0345 1.79165 15.7104C2.95782 17.3864 4.60905 18.6652 6.52344 19.375V0.625C4.60905 1.33483 2.95782 2.61364 1.79165 4.28957C0.625473 5.96551 0.000249226 7.95826 0 10H0Z" fill="#FF9811"/>
<path d="M13.4766 0.625V19.375C15.3903 18.6646 17.0409 17.3856 18.2064 15.7097C19.372 14.0338 19.9967 12.0414 19.9967 10C19.9967 7.95865 19.372 5.96619 18.2064 4.29029C17.0409 2.6144 15.3903 1.33536 13.4766 0.625Z" fill="#6DA544"/>
</g>
<defs>
<clipPath id="clip0">
<rect width="20" height="20" fill="white"/>
</clipPath>
</defs>
</svg>
