<svg width="20" height="20" viewBox="0 0 20 20" fill="none" xmlns="http://www.w3.org/2000/svg">
<path d="M20 10C20 12.6522 18.9464 15.1957 17.0711 17.0711C15.1957 18.9464 12.6522 20 10 20C7.34784 20 4.8043 18.9464 2.92893 17.0711C1.05357 15.1957 0 12.6522 0 10L10 0C12.6522 0 15.1957 1.05357 17.0711 2.92893C18.9464 4.8043 20 7.34784 20 10Z" fill="#0052B4"/>
<path d="M9.97264 9.99995H9.99998V9.97261L9.97264 9.99995Z" fill="#EEEEEE"/>
<path d="M10 5.21875V0C7.34784 0 4.8043 1.05357 2.92893 2.92893C1.05357 4.8043 0 7.34784 0 10H5.21875V7.0625L8.15625 10H9.97266L10 9.97266V8.15625L7.0625 5.21875H10Z" fill="#EEEEEE"/>
<path d="M5.05863 1.3047C3.49339 2.19679 2.19682 3.49336 1.30473 5.05861V10H3.9141V3.91408H10V1.3047H5.05863Z" fill="#D80027"/>
<path d="M10.0001 8.76953L6.44537 5.21484H5.21881L10.0001 10V8.76953Z" fill="#D80027"/>
<path d="M13.4766 10L13.6641 10.5703H14.2578L13.7734 10.9219L13.957 11.4922L13.4727 11.1406L12.9883 11.4922L13.1758 10.9219L12.6914 10.5703H13.2891L13.4766 10ZM11.0156 11.0156L11.5508 11.2891L11.9766 10.8672L11.8828 11.457L12.4141 11.7305L11.8242 11.8242L11.7305 12.4141L11.457 11.8828L10.8672 11.9766L11.2891 11.5508L11.0156 11.0156ZM10 13.4766L10.5703 13.293V12.6953L10.9219 13.1797L11.4922 12.9922L11.1406 13.4766L11.4922 13.9609L10.9219 13.7773L10.5703 14.2617V13.6641L10 13.4766ZM11.0156 15.9375L11.2891 15.4062L10.8672 14.9805L11.457 15.0742L11.7305 14.543L11.8242 15.1289L12.4141 15.2266L11.8828 15.5L11.9766 16.0859L11.5508 15.6641L11.0156 15.9375ZM13.4766 16.9531L13.293 16.3867H12.6953L13.1797 16.0352L12.9922 15.4648L13.4766 15.8164L13.9609 15.4648L13.7773 16.0352L14.2617 16.3867H13.6641L13.4766 16.9531ZM15.9375 15.9375L15.4062 15.6641L14.9805 16.0898L15.0742 15.4961L14.543 15.2227L15.1289 15.1328L15.2266 14.543L15.5 15.0742L16.0859 14.9805L15.6641 15.4062L15.9375 15.9375ZM16.9531 13.4766L16.3867 13.6641V14.2578L16.0352 13.7734L15.4648 13.957L15.8164 13.4727L15.4648 12.9883L16.0352 13.1758L16.3867 12.6914V13.2891L16.9531 13.4766ZM15.9375 11.0156L15.6641 11.5508L16.0898 11.9766L15.4961 11.8828L15.2227 12.4141L15.1328 11.8242L14.543 11.7305L15.0742 11.457L14.9805 10.8672L15.4062 11.2891L15.9375 11.0156Z" fill="#EEEEEE"/>
</svg>
