<svg width="20" height="20" viewBox="0 0 20 20" fill="none" xmlns="http://www.w3.org/2000/svg">
<path d="M10 20C15.5228 20 20 15.5228 20 10C20 4.47715 15.5228 0 10 0C4.47715 0 0 4.47715 0 10C0 15.5228 4.47715 20 10 20Z" fill="#EEEEEE"/>
<path d="M20 10C20 12.6522 18.9464 15.1957 17.0711 17.0711C15.1957 18.9464 12.6522 20 10 20C7.34784 20 4.8043 18.9464 2.92893 17.0711C1.05357 15.1957 0 12.6522 0 10C0 4.47656 10 10 10 10H20Z" fill="#D80027"/>
<path d="M0 10C0 7.34784 1.05357 4.8043 2.92893 2.92893C4.8043 1.05357 7.34784 0 10 0V10H0Z" fill="#0052B4"/>
<path d="M5.95314 3.47656L6.60158 5.46875H8.69533L7.00001 6.70313L7.64845 8.69531L5.95314 7.46484L4.25783 8.69531L4.90627 6.70313L3.21095 5.46875H5.3047L5.95314 3.47656Z" fill="#EEEEEE"/>
</svg>
