<svg width="20" height="20" viewBox="0 0 20 20" fill="none" xmlns="http://www.w3.org/2000/svg">
<g clip-path="url(#clip0)">
<path d="M14.3477 0.992188C13.0313 0.355469 11.5586 0 10 0C8.44144 0 6.96878 0.355469 5.65238 0.992188L4.78128 10L5.65238 19.0078C6.96878 19.6445 8.44144 20 10 20C11.5586 20 13.0313 19.6445 14.3477 19.0078L15.2188 10L14.3477 0.992188Z" fill="#D80027"/>
<path d="M10 6.52344L10.8633 9.17969H13.6563L11.3985 10.8203L12.2579 13.4766L10 11.8359L7.73832 13.4766L8.6016 10.8203L6.34379 9.17969H9.13676L10 6.52344Z" fill="#FFDA44"/>
<path d="M5.6523 0.992203C3.95738 1.80934 2.52738 3.0881 1.52664 4.68152C0.525906 6.27495 -0.00496483 8.1184 -0.00496483 10C-0.00496483 11.8816 0.525906 13.7251 1.52664 15.3185C2.52738 16.9119 3.95738 18.1907 5.6523 19.0078V0.992203Z" fill="#496E2D"/>
<path d="M14.3476 0.992203V19.0078C16.0426 18.1907 17.4726 16.9119 18.4733 15.3185C19.474 13.7251 20.0049 11.8816 20.0049 10C20.0049 8.1184 19.474 6.27495 18.4733 4.68152C17.4726 3.0881 16.0426 1.80934 14.3476 0.992203Z" fill="#FFDA44"/>
</g>
<defs>
<clipPath id="clip0">
<rect width="20" height="20" fill="white"/>
</clipPath>
</defs>
</svg>
