<svg width="20" height="20" viewBox="0 0 20 20" fill="none" xmlns="http://www.w3.org/2000/svg">
<path d="M10 20C15.5228 20 20 15.5228 20 10C20 4.47715 15.5228 0 10 0C4.47715 0 0 4.47715 0 10C0 15.5228 4.47715 20 10 20Z" fill="#D80027"/>
<path d="M5.47266 6.08595L6.33594 8.7422H9.12891L6.87109 10.3867L7.73438 13.043L5.47266 11.4024L3.21094 13.043L4.07812 10.3867L1.81641 8.7422H4.60938L5.47266 6.08595ZM11.8555 15.4883L11.1953 14.6758L10.2188 15.0547L10.7852 14.1758L10.125 13.3594L11.1367 13.6289L11.707 12.75L11.7617 13.7969L12.7773 14.0664L11.7969 14.4414L11.8555 15.4883ZM13.168 13.1055L13.4805 12.1055L12.625 11.5L13.6719 11.4844L13.9805 10.4844L14.3203 11.4766L15.3672 11.4649L14.5273 12.0899L14.8633 13.082L14.0078 12.4766L13.168 13.1055ZM14.9375 7.33986L14.4766 8.28126L15.2266 9.01173L14.1914 8.8633L13.7305 9.8008L13.5508 8.76955L12.5117 8.62111L13.4414 8.13283L13.2617 7.09767L14.0117 7.82814L14.9375 7.33986ZM11.8828 4.4883L11.8047 5.53127L12.7773 5.9258L11.7578 6.1758L11.6836 7.22267L11.1328 6.33205L10.1133 6.58205L10.7891 5.78126L10.2344 4.89455L11.207 5.28908L11.8828 4.4883Z" fill="#FFDA44"/>
</svg>
