<svg width="20" height="20" viewBox="0 0 20 20" fill="none" xmlns="http://www.w3.org/2000/svg">
<g clip-path="url(#clip0)">
<path d="M0 10C0 7.34784 1.05357 4.8043 2.92893 2.92893C4.8043 1.05357 7.34784 0 10 0C12.6522 0 15.1957 1.05357 17.0711 2.92893C18.9464 4.8043 20 7.34784 20 10L10 10.8711L0 10Z" fill="#FFDA44"/>
<path d="M1.33991 14.9999C2.21681 16.5211 3.4789 17.7844 4.99918 18.6628C6.51945 19.5412 8.24427 20.0037 10.0001 20.0037C11.7559 20.0037 13.4807 19.5412 15.001 18.6628C16.5212 17.7844 17.7833 16.5211 18.6602 14.9999L10.0001 14.3476L1.33991 14.9999Z" fill="#D80027"/>
<path d="M18.6602 15C19.5399 13.4807 20.0022 11.7557 20 10H0C0 11.8203 0.488281 13.5273 1.33984 15H18.6602Z" fill="#0052B4"/>
</g>
<defs>
<clipPath id="clip0">
<rect width="20" height="20" fill="white"/>
</clipPath>
</defs>
</svg>
