<svg width="20" height="20" viewBox="0 0 20 20" fill="none" xmlns="http://www.w3.org/2000/svg">
<g clip-path="url(#clip0)">
<path d="M10 20C15.5228 20 20 15.5228 20 10C20 4.47715 15.5228 0 10 0C4.47715 0 0 4.47715 0 10C0 15.5228 4.47715 20 10 20Z" fill="#EEEEEE"/>
<path d="M9.99899 -7.32357e-05C8.44632 -0.00128839 6.91477 0.359629 5.52603 1.054C4.13728 1.74838 2.92962 2.75707 1.99899 3.99993H17.999C17.0684 2.75707 15.8607 1.74838 14.472 1.054C13.0832 0.359629 11.5517 -0.00128839 9.99899 -7.32357e-05ZM9.99899 19.9999C13.2724 19.9999 16.1748 18.4296 17.999 15.9999H1.99899C2.92962 17.2428 4.13728 18.2515 5.52603 18.9459C6.91477 19.6402 8.44632 20.0011 9.99899 19.9999ZM-0.00101161 9.99993C-0.0016502 10.6716 0.0650902 11.3416 0.198207 11.9999H19.8037C20.0719 10.6801 20.0719 9.31977 19.8037 7.99993H0.194301C0.0624955 8.65839 -0.00293613 9.32841 -0.00101161 9.99993Z" fill="#0052B4"/>
<path d="M2.92967 2.92969C1.05477 4.80499 0.00149536 7.34821 0.00149536 10C0.00149536 12.6518 1.05477 15.195 2.92967 17.0703L9.99999 10L2.92967 2.92969Z" fill="#D80027"/>
<path d="M4.04686 7.39065L4.6953 9.38284H6.78905L5.09373 10.6172L5.74217 12.6094L4.04686 11.3789L2.35155 12.6094L2.99998 10.6172L1.30467 9.38284H3.39842L4.04686 7.39065Z" fill="#EEEEEE"/>
</g>
<defs>
<clipPath id="clip0">
<rect width="20" height="20" fill="white"/>
</clipPath>
</defs>
</svg>
