<svg width="20" height="20" viewBox="0 0 20 20" fill="none" xmlns="http://www.w3.org/2000/svg">
<g clip-path="url(#clip0)">
<path d="M10 20C15.5228 20 20 15.5228 20 10C20 4.47715 15.5228 0 10 0C4.47715 0 0 4.47715 0 10C0 15.5228 4.47715 20 10 20Z" fill="#EEEEEE"/>
<path d="M10 0C7.34712 0.00207095 4.8036 1.05738 2.92846 2.93398C1.05332 4.81059 -8.08332e-07 7.35493 0 10.0078C6.66406 10.0039 13.3477 10.0195 20 10C19.9979 7.34847 18.9437 4.80613 17.0688 2.93122C15.1939 1.0563 12.6515 0.00206908 10 0V0ZM1.34375 15.0078C2.23768 16.5469 3.52503 17.8205 5.07369 18.6978C6.62234 19.5751 8.37654 20.0245 10.1562 20C11.8828 19.9692 13.5722 19.4935 15.0612 18.619C16.5502 17.7445 17.7884 16.5007 18.6562 15.0078H1.34375Z" fill="#0052B4"/>
<path d="M0.14064 11.6758C0.237122 12.2419 0.38219 12.7987 0.574234 13.3399H19.4258C19.6165 12.7985 19.7603 12.2418 19.8555 11.6758H0.144547H0.14064Z" fill="#D80027"/>
<path d="M7.14063 7.43753L7.34375 8.07816H8.01172L7.47266 8.46878L7.67969 9.1055L7.14063 8.71487L6.59375 9.1055L6.80469 8.46878L6.26172 8.07816H6.92969L7.14063 7.43753ZM7.14063 15.7696L7.34375 16.4063H8.01172L7.47266 16.7969L7.67969 17.4297L7.14063 17.0391L6.59375 17.4297L6.79688 16.7969L6.25 16.4063H6.92188L7.14063 15.7696ZM3.26562 12.9532L3.46875 13.586H4.13672L3.59766 13.9844L3.80078 14.6172L3.26562 14.2266L2.71875 14.6172L2.92969 13.9844L2.38281 13.5899H3.05469L3.26562 12.9532ZM4.74609 8.27347L4.94141 8.89847H5.61328L5.07422 9.30081L5.27734 9.93362L4.74219 9.543L4.19531 9.93362L4.40625 9.29691L3.85938 8.90237H4.53125L4.74609 8.27347ZM2.38672 10.8907H3.05078L3.26562 10.2578L3.46875 10.8907H4.13672L3.59766 11.2891L3.80078 11.9297L3.26562 11.5235L2.71875 11.9258L2.92969 11.2852L2.38672 10.8907ZM4.20313 16.4766L4.41016 15.8438L3.86719 15.4453H4.53516L4.74609 14.8125L4.94922 15.4492H5.61719L5.07813 15.8438L5.28516 16.4766L4.74609 16.086L4.20313 16.4766ZM11.0156 12.9532L10.8047 13.586H10.1406L10.6797 13.9844L10.4727 14.6172L11.0156 14.2266L11.5547 14.6172L11.3516 13.9805L11.8867 13.586H11.2227L11.0156 12.9532ZM9.53125 8.27347L9.32422 8.90628H8.65625L9.20313 9.30472L8.99219 9.93753L9.53516 9.54691L10.0742 9.93753L9.86719 9.30081L10.4063 8.90628H9.74219L9.53125 8.27347ZM11.8867 10.8907H11.2227L11.0156 10.2578L10.8047 10.8907H10.1406L10.6797 11.2852L10.4727 11.9258L11.0156 11.5235L11.5547 11.9258L11.3516 11.2852L11.8867 10.8907ZM10.0742 16.4766L9.86719 15.8438L10.4063 15.4453H9.74219L9.53516 14.8125L9.32422 15.4492H8.65625L9.20313 15.8438L8.99219 16.4766L9.53516 16.086L10.0742 16.4766Z" fill="#FFDA44"/>
</g>
<defs>
<clipPath id="clip0">
<rect width="20" height="20" fill="white"/>
</clipPath>
</defs>
</svg>
