<svg width="20" height="20" viewBox="0 0 20 20" fill="none" xmlns="http://www.w3.org/2000/svg">
<g clip-path="url(#clip0)">
<path d="M10 20C15.5228 20 20 15.5228 20 10C20 4.47715 15.5228 0 10 0C4.47715 0 0 4.47715 0 10C0 15.5228 4.47715 20 10 20Z" fill="#FFDA44"/>
<path d="M9.99999 20C13.2812 20 16.1914 18.4179 18.0156 15.9765H1.98436C2.9141 17.2258 4.12319 18.2403 5.51498 18.9389C6.90678 19.6375 8.4427 20.0009 9.99999 20ZM20 9.99997C20.0002 8.54179 19.6816 7.1012 19.0663 5.77916C18.4511 4.45712 17.5542 3.28563 16.4385 2.34678C15.3227 1.40794 14.0152 0.724454 12.6074 0.34424C11.1997 -0.0359748 9.72585 -0.103722 8.28917 0.145746C6.85249 0.395214 5.48774 0.955861 4.29059 1.78839C3.09344 2.62093 2.09284 3.7052 1.35892 4.96522C0.625007 6.22524 0.175533 7.63053 0.0420026 9.08258C-0.0915278 10.5346 0.0941162 11.9983 0.585923 13.3711H19.414C19.793 12.3164 20 11.1836 20 9.99997Z" fill="#0052B4"/>
<path d="M6.84373 6.41409L7.3828 8.07425H9.12889L7.71873 9.10159L8.2578 10.7617L6.84373 9.7344L5.43358 10.7617L5.97264 9.10159L4.55858 8.07425H6.30467L6.84373 6.41409ZM3.84764 4.6758L4.16795 5.6719H5.21873L4.37108 6.28518L4.6953 7.28128L3.84764 6.66799L2.99998 7.28128L3.3203 6.28909L2.47264 5.67581H3.52342L3.84764 4.6758Z" fill="#EEEEEE"/>
</g>
<defs>
<clipPath id="clip0">
<rect width="20" height="20" fill="white"/>
</clipPath>
</defs>
</svg>
