<svg width="20" height="20" viewBox="0 0 20 20" fill="none" xmlns="http://www.w3.org/2000/svg">
<path d="M17.0703 17.0703C15.1859 18.9004 12.657 19.9156 10.0303 19.8964C7.40347 19.8772 4.88973 18.8252 3.03226 16.9677C1.1748 15.1103 0.122797 12.5965 0.1036 9.96973C0.0844026 7.34295 1.09955 4.8141 2.92967 2.92969C3.23436 3.23438 10.9219 9.07812 10.9219 9.07812L17.0703 17.0703Z" fill="#0052B4"/>
<path d="M2.92969 2.92969C4.8141 1.09957 7.34295 0.0844178 9.96973 0.103615C12.5965 0.122813 15.1103 1.17482 16.9677 3.03228C18.8252 4.88974 19.8772 7.40349 19.8964 10.0303C19.9156 12.657 18.9004 15.1859 17.0703 17.0703" fill="#6DA544"/>
<path d="M10 12.6094C11.4412 12.6094 12.6094 11.4411 12.6094 10C12.6094 8.55891 11.4412 7.39065 10 7.39065C8.55891 7.39065 7.39066 8.55891 7.39066 10C7.39066 11.4411 8.55891 12.6094 10 12.6094Z" fill="#FFDA44"/>
<path d="M3.72263 14.3476L3.99606 14.9219L4.62106 14.7773L4.33591 15.3515L4.84372 15.7422L4.21872 15.8828L4.22263 16.5195L3.72653 16.1211L3.22653 16.5234V15.8867L2.61325 15.7422L3.10544 15.3515L2.832 14.7773L3.44919 14.9219L3.72263 14.3476ZM1.92575 9.57029L2.20309 10.1445L2.82419 9.99998L2.54684 10.5703L3.04294 10.9687L2.42184 11.1054V11.7422L1.92966 11.3437L1.43356 11.7422V11.1054L0.812469 10.9687L1.31247 10.5703L1.03513 9.99998L1.65231 10.1445L1.92575 9.57029ZM3.72263 5.65623L3.99606 6.23045L4.62106 6.08591L4.33981 6.66013L4.83981 7.05076L4.21481 7.19529L4.21872 7.8281L3.72263 7.43357L3.22653 7.8281V7.19529L2.60934 7.05466L3.10544 6.66013L2.832 6.08591L3.44919 6.23045L3.72263 5.65623ZM5.95309 8.7031L6.22653 9.27341L6.84763 9.12888L6.57028 9.7031L7.06638 10.0976L6.44919 10.2383V10.875L5.95309 10.4687L5.457 10.8672V10.2344L4.83981 10.0937L5.33591 9.6992L5.06247 9.12498L5.67966 9.26951L5.95309 8.7031ZM4.35934 11.3086L4.57419 11.9726H5.27341L4.707 12.3828L4.92575 13.0469L4.35934 12.6367L3.78903 13.0429L4.00778 12.3789L3.44138 11.9687H4.14059L4.35934 11.3086Z" fill="#EEEEEE"/>
<path d="M10 11.7383H10.8711C10.8711 11.7383 11.2461 11.0742 10.8711 10.4336L11.7383 9.56638L11.3047 8.69528H10.8711C10.8711 8.69528 10.6523 9.34763 9.78125 9.34763C8.91016 9.34763 8.69531 8.69528 8.69531 8.69528H8.26172L8.69531 9.56638L8.26172 10.4336L8.69531 10.8711C8.69531 10.8711 9.12891 9.99997 10 10.4297C10 10.4297 10.3711 10.9765 10 11.7343V11.7383Z" fill="#6DA544"/>
<path d="M16.4922 5.4766C16.5711 5.05994 16.4957 4.62878 16.2801 4.26363C16.0644 3.89847 15.7233 3.62427 15.3203 3.49223C15.6176 4.09589 15.72 4.77704 15.6133 5.44144C15.5048 5.26822 15.3674 5.11494 15.207 4.98832C14.9121 4.75306 14.5503 4.61727 14.1734 4.60042C13.7966 4.58358 13.424 4.68655 13.1093 4.89457C13.6091 5.00416 14.0769 5.22738 14.4765 5.54691C14.8008 5.80472 15.0625 6.15238 15.2656 6.48832L12.6093 7.32035C15.2187 7.75785 17.3906 6.01566 17.3906 6.01566C17.1523 5.53519 16.7773 5.45316 16.4922 5.4766Z" fill="#FFDA44"/>
</svg>
