<svg width="20" height="20" viewBox="0 0 20 20" fill="none" xmlns="http://www.w3.org/2000/svg">
<path d="M10 20C15.5228 20 20 15.5228 20 10C20 4.47715 15.5228 0 10 0C4.47715 0 0 4.47715 0 10C0 15.5228 4.47715 20 10 20Z" fill="#EEEEEE"/>
<path d="M15.6523 8.69528H14.3476C14.3476 9.84835 13.8896 10.9542 13.0742 11.7695C12.2589 12.5849 11.153 13.0429 9.99997 13.0429C8.8469 13.0429 7.74106 12.5849 6.92571 11.7695C6.11037 10.9542 5.65231 9.84835 5.65231 8.69528H4.34763C4.34763 11.2812 6.08591 13.4609 8.457 14.1328C8.32502 14.3825 8.26912 14.6655 8.29619 14.9466C8.32327 15.2278 8.43214 15.4949 8.60934 15.7148L10.0273 14.5742L11.4492 15.7148C11.6276 15.4929 11.7364 15.2233 11.7622 14.9398C11.7879 14.6562 11.7293 14.3714 11.5937 14.1211C12.7653 13.7761 13.7938 13.0611 14.5254 12.0831C15.2569 11.1051 15.6523 9.91662 15.6523 8.69528Z" fill="#6DA544"/>
<path d="M6.52344 8.26169C6.52344 8.26169 6.52344 10.4336 8.69531 10.4336L9.12891 10.8711H10C10 10.8711 10.4336 9.56638 11.3047 9.56638C11.3047 9.56638 11.3047 8.69528 12.1758 8.69528H13.4766C13.4766 8.69528 13.0469 6.957 15.2188 5.65231L14.3477 5.21872C14.3477 5.21872 11.3008 7.39059 9.12891 6.957V7.82419H8.26172L7.82422 7.3945L6.52344 8.26169Z" fill="#FFDA44"/>
</svg>
