<svg width="20" height="20" viewBox="0 0 20 20" fill="none" xmlns="http://www.w3.org/2000/svg">
<path d="M10 20C15.5228 20 20 15.5228 20 10C20 4.47715 15.5228 0 10 0C4.47715 0 0 4.47715 0 10C0 15.5228 4.47715 20 10 20Z" fill="#EEEEEE"/>
<path d="M9.12891 10L2.92969 17.0703C4.32821 18.4685 6.1099 19.4207 8.04951 19.8064C9.98912 20.1922 11.9996 19.9941 13.8266 19.2374C15.6537 18.4806 17.2154 17.1991 18.3142 15.5549C19.413 13.9107 19.9997 11.9776 20 10H9.12891Z" fill="#D80027"/>
<path d="M2.92973 2.92969C1.05483 4.80499 0.0015564 7.34821 0.0015564 10C0.0015564 12.6518 1.05483 15.195 2.92973 17.0703L10 10L2.92973 2.92969Z" fill="#0052B4"/>
</svg>
