<svg width="20" height="20" viewBox="0 0 20 20" fill="none" xmlns="http://www.w3.org/2000/svg">
<g clip-path="url(#clip0)">
<path d="M0.625 13.4765C1.33536 15.3903 2.6144 17.0408 4.29029 18.2064C5.96619 19.3719 7.95865 19.9967 10 19.9967C12.0414 19.9967 14.0338 19.3719 15.7097 18.2064C17.3856 17.0408 18.6646 15.3903 19.375 13.4765L10 12.6094L0.625 13.4765Z" fill="#FFDA44"/>
<path d="M10 0C7.95826 0.000249226 5.96551 0.625473 4.28957 1.79165C2.61364 2.95782 1.33483 4.60905 0.625 6.52344L10 7.39062L19.375 6.52344C18.6652 4.60905 17.3864 2.95782 15.7104 1.79165C14.0345 0.625473 12.0417 0.000249226 10 0V0Z" fill="#333333"/>
<path d="M0.625051 6.52344C-0.208391 8.76622 -0.208391 11.2338 0.625051 13.4766H19.375C20.2088 11.2338 20.2088 8.76616 19.375 6.52344H0.625051Z" fill="#D80027"/>
</g>
<defs>
<clipPath id="clip0">
<rect width="20" height="20" fill="white"/>
</clipPath>
</defs>
</svg>
