<svg width="20" height="20" viewBox="0 0 20 20" fill="none" xmlns="http://www.w3.org/2000/svg">
<path d="M9.12891 10.8711C9.12891 10.8711 2.93359 2.92577 2.92969 2.92968C4.32821 1.53146 6.1099 0.579292 8.04951 0.193564C9.98912 -0.192163 11.9996 0.00586803 13.8266 0.76262C15.6537 1.51937 17.2154 2.80086 18.3142 4.44508C19.413 6.08929 19.9997 8.0224 20 9.99999L9.12891 10.8711Z" fill="#338AF3"/>
<path d="M9.12891 10L2.92969 17.0703C4.32821 18.4685 6.1099 19.4207 8.04951 19.8064C9.98912 20.1922 11.9996 19.9941 13.8266 19.2374C15.6537 18.4806 17.2154 17.1991 18.3142 15.5549C19.413 13.9107 19.9997 11.9776 20 10H9.12891Z" fill="#6DA544"/>
<path d="M2.92973 2.92969C1.05483 4.80499 0.0015564 7.34821 0.0015564 10C0.0015564 12.6518 1.05483 15.195 2.92973 17.0703L10 10L2.92973 2.92969Z" fill="#EEEEEE"/>
<path d="M4.04691 7.39065L4.69534 9.38284H6.78909L5.09378 10.6172L5.74222 12.6094L4.04691 11.3789L2.35159 12.6094L3.00003 10.6172L1.30472 9.38284H3.39847L4.04691 7.39065Z" fill="#D80027"/>
</svg>
