<svg width="20" height="20" viewBox="0 0 20 20" fill="none" xmlns="http://www.w3.org/2000/svg">
<g clip-path="url(#clip0)">
<path d="M10 20C15.5228 20 20 15.5228 20 10C20 4.47715 15.5228 0 10 0C4.47715 0 0 4.47715 0 10C0 15.5228 4.47715 20 10 20Z" fill="#EEEEEE"/>
<path d="M7.82416 8.69532H19.914C19.5975 6.28996 18.4173 4.08169 16.5933 2.48196C14.7694 0.882221 12.426 0.000123393 9.99994 1.13746e-05C9.2683 -0.00141249 8.53871 0.0771797 7.82416 0.234386V8.69532ZM5.21869 8.69532V1.21486C3.8344 1.96931 2.64794 3.04014 1.75597 4.34008C0.864003 5.64002 0.291763 7.13229 0.0858765 8.69532H5.21869ZM5.21869 11.3047H0.0858765C0.291763 12.8677 0.864003 14.36 1.75597 15.6599C2.64794 16.9599 3.8344 18.0307 5.21869 18.7852V11.3047ZM7.82416 11.3047V19.7617C8.53856 19.9202 9.26816 20.0002 9.99994 20C12.426 19.9999 14.7694 19.1178 16.5933 17.5181C18.4173 15.9183 19.5975 13.7101 19.914 11.3047H7.82416Z" fill="#D80027"/>
</g>
<defs>
<clipPath id="clip0">
<rect width="20" height="20" fill="white"/>
</clipPath>
</defs>
</svg>
