<svg width="20" height="20" viewBox="0 0 20 20" fill="none" xmlns="http://www.w3.org/2000/svg">
<path d="M10 20C15.5228 20 20 15.5228 20 10C20 4.47715 15.5228 0 10 0C4.47715 0 0 4.47715 0 10C0 15.5228 4.47715 20 10 20Z" fill="#EEEEEE"/>
<path d="M11.9531 19.8047C15.9102 19.0234 19.0234 15.9102 19.8047 11.9531H11.9531V19.8047ZM0.195312 11.9531C0.976562 15.9102 4.08984 19.0234 8.04688 19.8047V11.9531H0.195312ZM19.8047 8.04688C19.4168 6.10942 18.4643 4.33005 17.0671 2.93288C15.6699 1.5357 13.8906 0.583194 11.9531 0.195312V8.04688H19.8047ZM8.04688 0.195312C6.10942 0.583194 4.33005 1.5357 2.93288 2.93288C1.5357 4.33005 0.583194 6.10942 0.195312 8.04688H8.04688V0.195312Z" fill="#496E2D"/>
<path d="M9.34766 11.9531H8.04297V19.8047C8.47362 19.8905 8.90946 19.9479 9.34766 19.9766V11.957V11.9531ZM9.34766 8.04688V0.0195312C8.90955 0.0468361 8.47371 0.102947 8.04297 0.1875V8.03906H9.34766V8.04688Z" fill="#FFDA44"/>
<path d="M10.6523 0.0233974C10.2179 -0.00471686 9.7821 -0.00471686 9.34766 0.0233974V8.04293H10.6523V0.0233974ZM9.34766 19.9765C9.7821 20.0046 10.2179 20.0046 10.6523 19.9765V11.957H9.34766V19.9765Z" fill="#333333"/>
<path d="M8.04687 9.34769V8.043H0.195312C0.109437 8.47365 0.0520207 8.90949 0.0234375 9.34769H8.04297H8.04687ZM11.9531 9.34769H19.9766C19.9492 8.90958 19.8931 8.47374 19.8086 8.043H11.9531V9.34769Z" fill="#FFDA44"/>
<path d="M11.9531 10.6523H19.9766C20.0046 10.2179 20.0046 9.78208 19.9766 9.34763H11.957V10.6523H11.9531ZM0.0273458 9.34763C-0.000692412 9.78208 -0.000692412 10.2179 0.0273458 10.6523H8.04688V9.34763H0.0234395H0.0273458Z" fill="#333333"/>
<path d="M10 14.7812C12.6406 14.7812 14.7813 12.6406 14.7813 9.99997C14.7813 7.35936 12.6406 5.21872 10 5.21872C7.35939 5.21872 5.21875 7.35936 5.21875 9.99997C5.21875 12.6406 7.35939 14.7812 10 14.7812Z" fill="#D80027"/>
<path d="M11.0898 10.5351C10.7344 9.82029 10.2695 9.10154 10.2695 9.10154C10.2695 9.10154 10.2813 8.77341 10.2813 8.5781C10.2722 8.44689 10.2152 8.32359 10.1211 8.23173C10.027 8.13988 9.90233 8.0859 9.77094 8.0801C9.63955 8.07431 9.51062 8.1171 9.40877 8.20031C9.30692 8.28352 9.23927 8.40132 9.21875 8.53123C9.12754 8.53786 9.04095 8.57396 8.97204 8.63409C8.90312 8.69421 8.85561 8.7751 8.83666 8.86456C8.81771 8.95403 8.82834 9.04724 8.86696 9.13014C8.90558 9.21304 8.97009 9.28114 9.05078 9.32419C9.08384 9.24617 9.13291 9.17595 9.19481 9.11808C9.25672 9.06021 9.33008 9.01599 9.41016 8.98826C9.43685 9.01051 9.46563 9.03013 9.49609 9.04685L9.56641 9.0781C9.56641 9.0781 9.3125 9.79294 9.3125 10.1797C9.3125 11.2578 10.0234 11.5898 10.0234 11.5898V11.6015L9.66797 11.9531H10.3789V11.25L10.7305 11.6015C10.7383 11.6015 11.4063 11.1718 11.0898 10.539V10.5351ZM10 6.08591L10.1602 6.58591H10.6875L10.2617 6.89451L10.4258 7.3906L10 7.08201L9.57813 7.39451L9.73828 6.89451L9.3125 6.58201H9.84375L10 6.08591ZM7.69922 6.83591L8.125 7.1406L8.54688 6.83591L8.38672 7.33201L8.80859 7.6406H8.28516L8.125 8.13669L7.96094 7.6406H7.4375L7.86328 7.33201L7.69922 6.83591ZM6.27734 8.78904H6.80078L6.96484 8.29294L7.125 8.78904H7.64844L7.22656 9.10154L7.38672 9.59763L6.96484 9.28904L6.53906 9.59763L6.70313 9.09763L6.27734 8.78904ZM6.27734 11.2109L6.70313 10.8984L6.53906 10.4023L6.96484 10.7109L7.38672 10.4023L7.22656 10.9023L7.64844 11.2109H7.125L6.96484 11.707L6.79688 11.2109H6.27734ZM7.69922 13.164L7.86328 12.6679L7.4375 12.3593H7.96094L8.125 11.8633L8.28516 12.3593H8.80859L8.38672 12.6679L8.54688 13.164L8.125 12.8593L7.69922 13.164ZM10 13.914L9.83984 13.414H9.3125L9.73828 13.1054L9.57422 12.6093L10 12.9179L10.4219 12.6054L10.2617 13.1054L10.6875 13.4179H10.1563L10 13.914ZM12.3008 13.164L11.875 12.8593L11.4531 13.164L11.6133 12.6679L11.1914 12.3593H11.7148L11.875 11.8633L12.0391 12.3593H12.5625L12.1367 12.6679L12.3008 13.164ZM13.7227 11.2109H13.1992L13.0352 11.707L12.875 11.2109H12.3516L12.7734 10.8984L12.6133 10.4023L13.0352 10.7109L13.4609 10.4023L13.2969 10.9023L13.7227 11.2109ZM13.7227 8.78904L13.2969 9.10154L13.4609 9.59763L13.0352 9.28904L12.6133 9.59763L12.7734 9.09763L12.3516 8.78904H12.875L13.0352 8.29294L13.2031 8.78904H13.7227ZM12.3008 6.83591L12.1367 7.33201L12.5625 7.6406H12.0391L11.875 8.13669L11.7148 7.6406H11.1914L11.6133 7.33201L11.4531 6.83591L11.875 7.1406L12.3008 6.83591Z" fill="#496E2D"/>
</svg>
