<svg width="20" height="20" viewBox="0 0 20 20" fill="none" xmlns="http://www.w3.org/2000/svg">
<path d="M10 20C15.5228 20 20 15.5228 20 10C20 4.47715 15.5228 0 10 0C4.47715 0 0 4.47715 0 10C0 15.5228 4.47715 20 10 20Z" fill="#EEEEEE"/>
<path d="M0.34375 12.6094C0.801462 14.2967 1.6927 15.8348 2.92893 17.0711C4.16515 18.3073 5.70332 19.1985 7.39062 19.6562V12.6094H0.34375Z" fill="#D80027"/>
<path d="M7.39062 0.343727C5.70314 0.801082 4.16478 1.6922 2.9285 2.92848C1.69223 4.16476 0.801105 5.70312 0.34375 7.3906H7.39062V0.343727Z" fill="#0052B4"/>
<path d="M19.6563 7.3906C19.1989 5.70312 18.3078 4.16476 17.0715 2.92848C15.8352 1.6922 14.2969 0.801082 12.6094 0.343727V7.3906H19.6563Z" fill="#D80027"/>
<path d="M12.6094 19.6562C14.2967 19.1985 15.8349 18.3073 17.0711 17.0711C18.3073 15.8348 19.1985 14.2967 19.6563 12.6094H12.6094V19.6562Z" fill="#0052B4"/>
<path d="M12.6094 10C12.6094 10.3427 12.5419 10.682 12.4108 10.9986C12.2796 11.3152 12.0874 11.6028 11.8451 11.8451C11.6028 12.0874 11.3152 12.2796 10.9986 12.4108C10.682 12.5419 10.3427 12.6094 10 12.6094C9.65733 12.6094 9.31802 12.5419 9.00144 12.4108C8.68485 12.2796 8.3972 12.0874 8.15489 11.8451C7.91259 11.6028 7.72039 11.3152 7.58925 10.9986C7.45812 10.682 7.39062 10.3427 7.39062 10C7.39062 8.55862 10 7.39065 10 7.39065C10 7.39065 12.6094 8.56252 12.6094 10Z" fill="#496E2D"/>
<path d="M7.39063 10C7.39062 9.65735 7.45812 9.31804 7.58925 9.00146C7.72039 8.68487 7.91259 8.39722 8.15489 8.15492C8.3972 7.91261 8.68485 7.72041 9.00144 7.58927C9.31802 7.45814 9.65733 7.39065 10 7.39065C10.3427 7.39065 10.682 7.45814 10.9986 7.58927C11.3152 7.72041 11.6028 7.91261 11.8451 8.15492C12.0874 8.39722 12.2796 8.68487 12.4108 9.00146C12.5419 9.31804 12.6094 9.65735 12.6094 10" fill="#0052B4"/>
<path d="M8.53123 8.69528V10.3242C8.53123 10.7137 8.68598 11.0873 8.96142 11.3628C9.23687 11.6382 9.61045 11.7929 9.99999 11.7929C10.3895 11.7929 10.7631 11.6382 11.0385 11.3628C11.314 11.0873 11.4687 10.7137 11.4687 10.3242V8.69528H8.53123Z" fill="#D80027"/>
</svg>
