<svg width="20" height="20" viewBox="0 0 20 20" fill="none" xmlns="http://www.w3.org/2000/svg">
<g clip-path="url(#clip0)">
<path d="M10 0C12.6522 0 15.1957 1.05357 17.0711 2.92893C18.9464 4.8043 20 7.34784 20 10C20 12.6522 18.9464 15.1957 17.0711 17.0711C15.1957 18.9464 12.6522 20 10 20C10 19.5664 8.69533 10 8.69533 10L10 0Z" fill="#EEEEEE"/>
<path d="M10 20C7.34784 20 4.8043 18.9464 2.92893 17.0711C1.05357 15.1957 0 12.6522 0 10C0 7.34784 1.05357 4.8043 2.92893 2.92893C4.8043 1.05357 7.34784 0 10 0" fill="#496E2D"/>
<path d="M12.1484 8.08206L11.3281 9.21487L10 8.78519L10.8203 9.91019L10 11.043L11.3281 10.6094L12.1484 11.7422V10.3438L13.4766 9.91019L12.1484 9.4805V8.08206Z" fill="#D80027"/>
<path d="M10.8281 12.8242C10.3991 12.8224 9.97613 12.7229 9.59132 12.5333C9.2065 12.3436 8.86995 12.0687 8.60722 11.7296C8.34449 11.3904 8.16248 10.9959 8.07501 10.5759C7.98754 10.1558 7.9969 9.72143 8.10239 9.30558C8.20788 8.88974 8.40673 8.50339 8.68383 8.17587C8.96093 7.84834 9.30901 7.58825 9.70164 7.41535C10.0943 7.24244 10.5211 7.16125 10.9498 7.17795C11.3785 7.19465 11.7978 7.30879 12.1758 7.51172C11.6865 7.03349 11.0669 6.71029 10.3947 6.58258C9.72253 6.45487 9.02762 6.52835 8.397 6.7938C7.76639 7.05926 7.22813 7.50489 6.84964 8.07487C6.47115 8.64485 6.26926 9.31384 6.26926 9.99805C6.26926 10.6823 6.47115 11.3512 6.84964 11.9212C7.22813 12.4912 7.76639 12.9368 8.397 13.2023C9.02762 13.4677 9.72253 13.5412 10.3947 13.4135C11.0669 13.2858 11.6865 12.9626 12.1758 12.4844C11.7621 12.7086 11.2987 12.8255 10.8281 12.8242Z" fill="#D80027"/>
</g>
<defs>
<clipPath id="clip0">
<rect width="20" height="20" fill="white"/>
</clipPath>
</defs>
</svg>
