<svg width="20" height="20" viewBox="0 0 20 20" fill="none" xmlns="http://www.w3.org/2000/svg">
<path d="M10 20C15.5228 20 20 15.5228 20 10C20 4.47715 15.5228 0 10 0C4.47715 0 0 4.47715 0 10C0 15.5228 4.47715 20 10 20Z" fill="#EEEEEE"/>
<path d="M13.0469 8.26172V9.12891H14.2383C13.7377 9.82578 13.0738 10.3891 12.3047 10.7695C12.1693 10.6264 11.9974 10.523 11.8075 10.4704C11.6176 10.4178 11.417 10.418 11.2273 10.4711C11.0375 10.5242 10.8659 10.628 10.7308 10.7715C10.5958 10.9149 10.5025 11.0926 10.4609 11.2852C10.1542 11.3121 9.84576 11.3121 9.53906 11.2852C9.49636 11.0934 9.40242 10.9168 9.26726 10.7742C9.1321 10.6315 8.96078 10.5283 8.77156 10.4754C8.58233 10.4224 8.3823 10.4219 8.19277 10.4737C8.00324 10.5255 7.83131 10.6277 7.69531 10.7695C6.92623 10.3891 6.26227 9.82578 5.76172 9.12891H6.95703V8.26172H3.91016C3.91016 9.87633 4.55156 11.4248 5.69326 12.5665C6.83496 13.7082 8.38344 14.3496 9.99805 14.3496C11.6127 14.3496 13.1611 13.7082 14.3028 12.5665C15.4445 11.4248 16.0859 9.87633 16.0859 8.26172H13.0469Z" fill="#D80027"/>
</svg>
