<svg width="20" height="20" viewBox="0 0 20 20" fill="none" xmlns="http://www.w3.org/2000/svg">
<g clip-path="url(#clip0)">
<path d="M20 9.99997C20 8.77732 19.7813 7.60544 19.375 6.52341L10 6.08591L0.625036 6.52341C-0.208406 8.7662 -0.208406 11.2338 0.625036 13.4765L10 13.914L19.375 13.4765C19.7813 12.3945 20 11.2226 20 9.99997Z" fill="#EEEEEE"/>
<path d="M10 20C12.0417 19.9998 14.0345 19.3745 15.7104 18.2084C17.3864 17.0422 18.6652 15.3909 19.375 13.4766H0.625C1.33483 15.3909 2.61364 17.0422 4.28957 18.2084C5.96551 19.3745 7.95826 19.9998 10 20Z" fill="#0052B4"/>
<path d="M0.625 6.52343H19.375C18.6646 4.60966 17.3856 2.95913 15.7097 1.79358C14.0338 0.628022 12.0414 0.00328064 10 0.00328064C7.95865 0.00328064 5.96619 0.628022 4.29029 1.79358C2.6144 2.95913 1.33536 4.60966 0.625 6.52343Z" fill="#6DA544"/>
</g>
<defs>
<clipPath id="clip0">
<rect width="20" height="20" fill="white"/>
</clipPath>
</defs>
</svg>
