<svg width="20" height="20" viewBox="0 0 20 20" fill="none" xmlns="http://www.w3.org/2000/svg">
<g clip-path="url(#clip0)">
<path d="M0 10C0 7.34784 1.05357 4.8043 2.92893 2.92893C4.8043 1.05357 7.34784 0 10 0C12.6522 0 15.1957 1.05357 17.0711 2.92893C18.9464 4.8043 20 7.34784 20 10L10 10.8711L0 10Z" fill="#FFDA44"/>
<path d="M1.33983 15C2.21673 16.5211 3.47882 17.7845 4.99909 18.6629C6.51937 19.5413 8.24419 20.0037 9.99999 20.0037C11.7558 20.0037 13.4806 19.5413 15.0009 18.6629C16.5212 17.7845 17.7832 16.5211 18.6601 15L9.99999 14.3476L1.33983 15Z" fill="#D80027"/>
<path d="M18.6602 15C19.5399 13.4807 20.0022 11.7557 20 10H0C0 11.8203 0.488281 13.5273 1.33984 15H18.6602Z" fill="#0052B4"/>
<path d="M10 13.4766C11.9201 13.4766 13.4766 11.9201 13.4766 10C13.4766 8.07995 11.9201 6.52344 10 6.52344C8.07995 6.52344 6.52344 8.07995 6.52344 10C6.52344 11.9201 8.07995 13.4766 10 13.4766Z" fill="#FFDA44"/>
<path d="M9.99998 12.1758C8.80077 12.1758 7.8242 11.1992 7.8242 10V8.69534C7.8242 8.11829 8.05344 7.56487 8.46147 7.15683C8.86951 6.7488 9.42293 6.51956 9.99998 6.51956C10.577 6.51956 11.1305 6.7488 11.5385 7.15683C11.9465 7.56487 12.1758 8.11829 12.1758 8.69534V10C12.1758 11.1992 11.1992 12.1758 9.99998 12.1758Z" fill="#338AF3"/>
<path d="M13.4766 4.78121H10.8711C10.8711 4.55018 10.7793 4.32862 10.616 4.16526C10.4526 4.00189 10.231 3.91012 10 3.91012C9.76897 3.91012 9.54741 4.00189 9.38404 4.16526C9.22068 4.32862 9.12891 4.55018 9.12891 4.78121H6.52344C6.53055 5.01472 6.62833 5.23628 6.79606 5.3989C6.96378 5.56152 7.18826 5.65241 7.42188 5.6523H7.39062C7.39062 6.13277 7.78125 6.5234 8.26172 6.5234C8.26172 7.00387 8.65234 7.39058 9.12891 7.39058H10.8711C11.3516 7.39058 11.7383 6.99996 11.7383 6.5234C12.2188 6.5234 12.6094 6.13277 12.6094 5.6523H12.5781C12.8117 5.65241 13.0362 5.56152 13.2039 5.3989C13.3717 5.23628 13.4695 5.01472 13.4766 4.78121Z" fill="#333333"/>
</g>
<defs>
<clipPath id="clip0">
<rect width="20" height="20" fill="white"/>
</clipPath>
</defs>
</svg>
