<svg width="20" height="20" viewBox="0 0 20 20" fill="none" xmlns="http://www.w3.org/2000/svg">
<g clip-path="url(#clip0)">
<path d="M2.41284e-09 9.99997C2.41284e-09 11.2226 0.21875 12.3945 0.625 13.4765L10 13.914L19.375 13.4765C20.2088 11.2338 20.2088 8.76613 19.375 6.52341L10 6.08591L0.625 6.52341C0.211621 7.63589 -2.60931e-05 8.81318 2.41284e-09 9.99997H2.41284e-09Z" fill="#333333"/>
<path d="M10 0C7.95826 0.000249226 5.96551 0.625473 4.28957 1.79165C2.61364 2.95782 1.33483 4.60905 0.625 6.52344H19.375C18.6652 4.60905 17.3864 2.95782 15.7104 1.79165C14.0345 0.625473 12.0417 0.000249226 10 0V0Z" fill="#0052B4"/>
<path d="M19.375 13.4766H0.625C1.33536 15.3903 2.6144 17.0409 4.29029 18.2064C5.96619 19.372 7.95865 19.9967 10 19.9967C12.0414 19.9967 14.0338 19.372 15.7097 18.2064C17.3856 17.0409 18.6646 15.3903 19.375 13.4766Z" fill="#EEEEEE"/>
</g>
<defs>
<clipPath id="clip0">
<rect width="20" height="20" fill="white"/>
</clipPath>
</defs>
</svg>
