<svg width="20" height="20" viewBox="0 0 20 20" fill="none" xmlns="http://www.w3.org/2000/svg">
<g clip-path="url(#clip0)">
<path d="M10 20C15.5228 20 20 15.5228 20 10C20 4.47715 15.5228 0 10 0C4.47715 0 0 4.47715 0 10C0 15.5228 4.47715 20 10 20Z" fill="#EEEEEE"/>
<path d="M10 0C7.95826 0.000249226 5.96551 0.625473 4.28957 1.79165C2.61364 2.95782 1.33483 4.60905 0.625 6.52344H19.375C18.6652 4.60905 17.3864 2.95782 15.7104 1.79165C14.0345 0.625473 12.0417 0.000249226 10 0V0Z" fill="#D80027"/>
<path d="M10 20C12.0417 19.9998 14.0345 19.3745 15.7104 18.2084C17.3864 17.0422 18.6652 15.3909 19.375 13.4766H0.625C1.33483 15.3909 2.61364 17.0422 4.28957 18.2084C5.96551 19.3745 7.95826 19.9998 10 20Z" fill="#333333"/>
<path d="M13.4766 8.91409H10.8711C10.8711 8.68306 10.7793 8.4615 10.616 8.29814C10.4526 8.13478 10.231 8.043 10 8.043C9.76897 8.043 9.54741 8.13478 9.38404 8.29814C9.22068 8.4615 9.12891 8.68306 9.12891 8.91409H6.52344C6.53154 9.14692 6.62976 9.36749 6.79738 9.52928C6.965 9.69107 7.18891 9.78142 7.42188 9.78128H7.39062C7.39062 10.2617 7.78125 10.6524 8.26172 10.6524C8.26172 11.1328 8.65234 11.5235 9.12891 11.5235H10.8711C11.3516 11.5235 11.7383 11.1328 11.7383 10.6524C12.2188 10.6524 12.6094 10.2617 12.6094 9.78128H12.5781C12.8111 9.78142 13.035 9.69107 13.2026 9.52928C13.3702 9.36749 13.4685 9.14692 13.4766 8.91409Z" fill="#FF9811"/>
</g>
<defs>
<clipPath id="clip0">
<rect width="20" height="20" fill="white"/>
</clipPath>
</defs>
</svg>
