<svg width="20" height="20" viewBox="0 0 20 20" fill="none" xmlns="http://www.w3.org/2000/svg">
<g clip-path="url(#clip0)">
<path d="M0.992188 5.65238C0.355469 6.96879 0 8.44144 0 10C0 11.5586 0.355469 13.0313 0.992188 14.3477L10 15.2188L19.0078 14.3477C19.6445 13.0313 20 11.5586 20 10C20 8.44144 19.6445 6.96879 19.0078 5.65238L10 4.78129L0.992188 5.65238Z" fill="#EEEEEE"/>
<path d="M0.992222 14.3476C1.80936 16.0426 3.08811 17.4726 4.68154 18.4733C6.27497 19.474 8.11842 20.0049 10 20.0049C11.8817 20.0049 13.7251 19.474 15.3185 18.4733C16.912 17.4726 18.1907 16.0426 19.0078 14.3476H0.992222Z" fill="#496E2D"/>
<path d="M0.992222 5.65231H19.0078C18.1907 3.95738 16.912 2.52739 15.3185 1.52665C13.7251 0.525912 11.8817 -0.00495911 10 -0.00495911C8.11842 -0.00495911 6.27497 0.525912 4.68154 1.52665C3.08811 2.52739 1.80936 3.95738 0.992222 5.65231Z" fill="#333333"/>
<path d="M2.92971 2.92969C1.05481 4.80499 0.00153732 7.34821 0.00153732 10C0.00153732 12.6518 1.05481 15.195 2.92971 17.0703L10 10L2.92971 2.92969ZM12.6094 10C12.61 9.3064 12.8473 8.63376 13.2819 8.09326C13.7166 7.55275 14.3227 7.17673 15 7.02734C14.7857 6.98055 14.567 6.95698 14.3477 6.95703C13.9158 6.95019 13.4874 7.03524 13.0909 7.20655C12.6944 7.37786 12.3389 7.63151 12.0479 7.95068C11.7569 8.26985 11.5371 8.64724 11.403 9.05783C11.2689 9.46842 11.2237 9.90282 11.2703 10.3322C11.3169 10.7616 11.4543 11.1762 11.6733 11.5485C11.8923 11.9208 12.1879 12.2422 12.5406 12.4915C12.8933 12.7409 13.295 12.9123 13.719 12.9946C14.143 13.0769 14.5797 13.0681 15 12.9688C14.3227 12.8194 13.7166 12.4433 13.2819 11.9028C12.8473 11.3623 12.61 10.6897 12.6094 9.99609V10Z" fill="#D80027"/>
<path d="M15.1289 8.04688L15.5586 9.375H16.9571L15.8243 10.1953L16.2578 11.5234L15.125 10.7031L13.9961 11.5234L14.4297 10.1953L13.2969 9.375H14.6953L15.1289 8.04688Z" fill="#D80027"/>
</g>
<defs>
<clipPath id="clip0">
<rect width="20" height="20" fill="white"/>
</clipPath>
</defs>
</svg>
