<svg width="20" height="20" viewBox="0 0 20 20" fill="none" xmlns="http://www.w3.org/2000/svg">
<g clip-path="url(#clip0)">
<path d="M9.12891 9.12893C9.12891 9.12893 2.93359 17.0742 2.92969 17.0703C4.32821 18.4686 6.1099 19.4207 8.04951 19.8064C9.98912 20.1922 11.9996 19.9941 13.8266 19.2374C15.6537 18.4806 17.2154 17.1991 18.3142 15.5549C19.413 13.9107 19.9997 11.9776 20 10L9.12891 9.12893Z" fill="#338AF3"/>
<path d="M9.12891 9.99999L2.92969 2.92968C4.32821 1.53146 6.1099 0.579292 8.04951 0.193565C9.98912 -0.192163 11.9996 0.00586803 13.8266 0.76262C15.6537 1.51937 17.2154 2.80086 18.3142 4.44508C19.413 6.08929 19.9997 8.0224 20 9.99999H9.12891Z" fill="#6DA544"/>
<path d="M2.92971 2.92969C1.05481 4.80499 0.00153351 7.34821 0.00153351 10C0.00153351 12.6518 1.05481 15.195 2.92971 17.0703L20 10L2.92971 2.92969Z" fill="#D80027"/>
<path d="M5.21871 5.87107C3.30074 5.87107 1.74215 7.43357 1.74215 9.34764V10.6523C1.78452 11.5459 2.1693 12.3888 2.81664 13.0061C3.46398 13.6235 4.32417 13.9679 5.21871 13.9679C6.11325 13.9679 6.97344 13.6235 7.62078 13.0061C8.26813 12.3888 8.65291 11.5459 8.69527 10.6523V9.34764C8.69527 7.43357 7.13278 5.87107 5.21871 5.87107ZM7.39059 10.6523C7.39059 11.625 6.74996 12.4492 5.86715 12.7226V11.3047L6.79293 10.3828L5.87106 9.46092V8.69529H4.56637V9.99998L3.64449 10.9219L4.56637 11.8437V12.7265C4.12484 12.5878 3.73906 12.3118 3.4651 11.9388C3.19113 11.5658 3.04324 11.1151 3.04293 10.6523V9.34764C3.0667 8.78704 3.30612 8.25731 3.71119 7.86905C4.11626 7.48079 4.65566 7.26402 5.21676 7.26402C5.77785 7.26402 6.31726 7.48079 6.72233 7.86905C7.1274 8.25731 7.36682 8.78704 7.39059 9.34764V10.6523Z" fill="#FFDA44"/>
</g>
<defs>
<clipPath id="clip0">
<rect width="20" height="20" fill="white"/>
</clipPath>
</defs>
</svg>
