<svg width="20" height="20" viewBox="0 0 20 20" fill="none" xmlns="http://www.w3.org/2000/svg">
<g clip-path="url(#clip0)">
<path d="M10 20C15.5228 20 20 15.5228 20 10C20 4.47715 15.5228 0 10 0C4.47715 0 0 4.47715 0 10C0 15.5228 4.47715 20 10 20Z" fill="#EEEEEE"/>
<path d="M10 -0.000161281C8.6866 -0.00166864 7.38585 0.256378 6.1725 0.75915C4.95914 1.26192 3.85709 1.99951 2.92969 2.92953L10 9.99984V-0.000161281ZM0 9.99984C0 12.7616 1.12109 15.2616 2.92969 17.0702L10 9.99984H0ZM10 19.9998C12.7617 19.9998 15.2617 18.8787 17.0703 17.0702L10 9.99984V19.9998ZM20 9.99984C20 7.23812 18.8789 4.73812 17.0703 2.92953L10 9.99984H20Z" fill="#333333"/>
<path d="M6.52344 6.95312L10 7.39062L13.4766 6.95703V4.87109L12.0859 5.56641L10 3.47656L7.91406 5.56641L6.52344 4.87109V6.95312Z" fill="#FFDA44"/>
<path d="M10 15.2187C8.08203 15.2187 6.52344 13.6562 6.52344 11.7422V8.26169L7.82422 6.957H12.1758L13.4766 8.26169V11.7383C13.4766 12.6603 13.1103 13.5446 12.4583 14.1966C11.8063 14.8485 10.922 15.2148 10 15.2148V15.2187Z" fill="#D80027"/>
<path d="M10 13.9141C8.80078 13.9141 7.82422 12.9375 7.82422 11.7383V8.26172H12.1758V11.7383C12.1758 12.9375 11.1992 13.9141 10 13.9141Z" fill="#EEEEEE"/>
<path d="M6.52344 6.95312H7.82422V8.26172H6.52344V6.95312ZM12.1758 6.95312H13.4766V8.26172H12.1758V6.95312ZM12.1758 9.78125H13.4766V11.0859H12.1758V9.78125ZM6.52344 9.78125H7.82422V11.0859H6.52344V9.78125ZM10 13.9141C9.77344 13.9141 9.55469 13.875 9.34766 13.8125V15.1563C9.77866 15.2386 10.2213 15.2386 10.6523 15.1563V13.8125C10.4414 13.8795 10.2214 13.9137 10 13.9141ZM7.85156 12.0938L6.8125 13.1328C6.99267 13.5426 7.24994 13.9139 7.57031 14.2266L8.49219 13.3008C8.15481 12.9764 7.93144 12.5516 7.85547 12.0898L7.85156 12.0938ZM13.1875 13.1328L12.1445 12.0938C12.0664 12.5625 11.8398 12.9844 11.5078 13.3047L12.4297 14.2227C12.7496 13.9112 13.0069 13.5412 13.1875 13.1328Z" fill="#FFDA44"/>
<path d="M9.56641 8.98438V9.71094C9.56641 9.82593 9.61209 9.93622 9.6934 10.0175C9.77472 10.0988 9.885 10.1445 10 10.1445C10.115 10.1445 10.2253 10.0988 10.3066 10.0175C10.3879 9.93622 10.4336 9.82593 10.4336 9.71094V8.98438H9.57031H9.56641ZM9.56641 11.8828V12.6094C9.56641 12.7244 9.61209 12.8347 9.6934 12.916C9.77472 12.9973 9.885 13.043 10 13.043C10.115 13.043 10.2253 12.9973 10.3066 12.916C10.3879 12.8347 10.4336 12.7244 10.4336 12.6094V11.8828H9.57031H9.56641ZM10.8711 10.4375V11.1602C10.8711 11.2752 10.9168 11.3854 10.9981 11.4668C11.0794 11.5481 11.1897 11.5937 11.3047 11.5937C11.4197 11.5937 11.53 11.5481 11.6113 11.4668C11.6926 11.3854 11.7383 11.2752 11.7383 11.1602V10.4297H10.8711V10.4375ZM9.56641 10.4375V11.1602C9.56641 11.2752 9.61209 11.3854 9.6934 11.4668C9.77472 11.5481 9.885 11.5937 10 11.5937C10.115 11.5937 10.2253 11.5481 10.3066 11.4668C10.3879 11.3854 10.4336 11.2752 10.4336 11.1602V10.4297H9.57031L9.56641 10.4375ZM8.26172 10.4375V11.1602C8.26172 11.2752 8.3074 11.3854 8.38872 11.4668C8.47003 11.5481 8.58032 11.5937 8.69531 11.5937C8.81031 11.5937 8.92059 11.5481 9.00191 11.4668C9.08322 11.3854 9.12891 11.2752 9.12891 11.1602V10.4297H8.26172V10.4375Z" fill="#0052B4"/>
</g>
<defs>
<clipPath id="clip0">
<rect width="20" height="20" fill="white"/>
</clipPath>
</defs>
</svg>
