<svg width="20" height="20" viewBox="0 0 20 20" fill="none" xmlns="http://www.w3.org/2000/svg">
<g clip-path="url(#clip0)">
<path d="M10 2.41284e-09C8.77734 2.41284e-09 7.60547 0.21875 6.52344 0.625L6.08594 10L6.52344 19.375C8.76616 20.2088 11.2338 20.2088 13.4766 19.375L13.9141 10L13.4766 0.625C12.3641 0.211621 11.1868 -2.60931e-05 10 2.41284e-09V2.41284e-09Z" fill="#338AF3"/>
<path d="M20 10C19.9998 7.95826 19.3745 5.96551 18.2084 4.28957C17.0422 2.61364 15.3909 1.33483 13.4766 0.625V19.375C15.3909 18.6652 17.0422 17.3864 18.2084 15.7104C19.3745 14.0345 19.9998 12.0417 20 10Z" fill="#FFDA44"/>
<path d="M6.52344 19.375V0.625C4.60967 1.33536 2.95914 2.6144 1.79359 4.29029C0.628037 5.96619 0.0032959 7.95865 0.0032959 10C0.0032959 12.0414 0.628037 14.0338 1.79359 15.7097C2.95914 17.3856 4.60967 18.6646 6.52344 19.375Z" fill="#EEEEEE"/>
</g>
<defs>
<clipPath id="clip0">
<rect width="20" height="20" fill="white"/>
</clipPath>
</defs>
</svg>
