<svg width="20" height="20" viewBox="0 0 20 20" fill="none" xmlns="http://www.w3.org/2000/svg">
<path d="M10 20C15.5228 20 20 15.5228 20 10C20 4.47715 15.5228 0 10 0C4.47715 0 0 4.47715 0 10C0 15.5228 4.47715 20 10 20Z" fill="#EEEEEE"/>
<path d="M17.0703 17.0703C16.6585 17.4833 16.2115 17.8598 15.7344 18.1953L1.8047 4.26565C2.14026 3.78856 2.51668 3.34156 2.9297 2.92971C3.34157 2.5167 3.78856 2.14028 4.26564 1.80471L18.1953 15.7344C17.8598 16.2115 17.4834 16.6585 17.0703 17.0703Z" fill="#338AF3"/>
<path d="M7.26562 7.07031V11.0938C7.26563 11.819 7.55371 12.5145 8.06651 13.0272C8.5793 13.54 9.2748 13.8281 10 13.8281C10.7252 13.8281 11.4207 13.54 11.9335 13.0272C12.4463 12.5145 12.7344 11.819 12.7344 11.0938V7.07031H7.26562Z" fill="#0052B4"/>
<path d="M8.24219 7.07031H11.7578V5.58594L11.0547 5.9375L10 4.88281L8.94531 5.9375L8.24219 5.58594V7.07031Z" fill="#D80027"/>
</svg>
