<svg width="20" height="20" viewBox="0 0 20 20" fill="none" xmlns="http://www.w3.org/2000/svg">
<g clip-path="url(#clip0)">
<path d="M10 0C11.9778 0 13.9112 0.58649 15.5557 1.6853C17.2002 2.78412 18.4819 4.3459 19.2388 6.17317C19.9957 8.00043 20.1937 10.0111 19.8079 11.9509C19.422 13.8907 18.4696 15.6725 17.0711 17.0711C15.6725 18.4696 13.8907 19.422 11.9509 19.8079C10.0111 20.1937 8.00043 19.9957 6.17317 19.2388C4.3459 18.4819 2.78412 17.2002 1.6853 15.5557C0.58649 13.9112 0 11.9778 0 10" fill="#FFDA44"/>
<path d="M9.78127 4.44529H18.3203C17.759 3.60526 17.0742 2.85465 16.2891 2.21873H9.78127V4.44529ZM9.78127 8.8906H19.9375C19.8543 8.13137 19.6839 7.38426 19.4297 6.66404H9.78127V8.8906ZM0.570328 13.332H19.4297C19.6836 12.613 19.854 11.8673 19.9375 11.1094H0.0625153C0.145659 11.8686 0.316055 12.6157 0.570328 13.3359V13.332ZM3.71095 17.7773H16.2891C17.0739 17.1426 17.7586 16.3933 18.3203 15.5547H1.6797C2.24107 16.3947 2.92585 17.1453 3.71095 17.7812V17.7773Z" fill="#D80027"/>
<path d="M10 0C7.34784 0 4.8043 1.05357 2.92893 2.92893C1.05357 4.8043 0 7.34784 0 10H10V0Z" fill="#4A1F63"/>
<path d="M8.26172 5.21873V6.08591H7.82422V5.21873H6.95703V6.08591H6.52344V4.34763H4.78125V6.08591H4.35156V5.21873H3.47656V6.08591H3.04688V5.21873H2.17188V7.82419H9.125V5.21873H8.26172Z" fill="#EEEEEE"/>
</g>
<defs>
<clipPath id="clip0">
<rect width="20" height="20" fill="white"/>
</clipPath>
</defs>
</svg>
