<svg width="20" height="20" viewBox="0 0 20 20" fill="none" xmlns="http://www.w3.org/2000/svg">
<path d="M10 20C15.5228 20 20 15.5228 20 10C20 4.47715 15.5228 0 10 0C4.47715 0 0 4.47715 0 10C0 15.5228 4.47715 20 10 20Z" fill="#338AF3"/>
<path d="M4.78128 10.8711H15.2188V12.1758H4.78128V10.8711Z" fill="#ACABB1"/>
<path d="M6.52344 6.95312L10 7.39062L13.4766 6.95703V4.87109L12.0859 5.56641L10 3.47656L7.91406 5.56641L6.52344 4.87109V6.95312Z" fill="#FFDA44"/>
<path d="M5.65231 13.4766H4.34763V11.086L4.78122 10.4336L4.34763 9.78128V8.25784H5.65231V13.4766ZM15.6523 13.4766H14.3476V8.26566H15.6523V9.78909L15.2187 10.4532L15.6523 11.0899V13.4766Z" fill="#EEEEEE"/>
<path d="M4.34763 9.78128H15.6523V11.086H4.34763V9.78128Z" fill="#ACABB1"/>
<path d="M10 15.2188C8.08203 15.2188 6.52344 13.6562 6.52344 11.7422V6.95312H13.4766V11.7344C13.4766 12.1909 13.3866 12.643 13.2119 13.0648C13.0372 13.4866 12.7811 13.8698 12.4583 14.1927C12.1355 14.5155 11.7522 14.7716 11.3304 14.9463C10.9086 15.121 10.4565 15.2109 10 15.2109V15.2188Z" fill="#EEEEEE"/>
<path d="M10 13.9141C9.42365 13.913 8.87124 13.6833 8.46405 13.2754C8.05685 12.8675 7.82815 12.3147 7.82816 11.7383V8.26172H12.1719V11.7383C12.1719 12.3147 11.9432 12.8675 11.536 13.2754C11.1288 13.6833 10.5764 13.913 10 13.9141Z" fill="#0052B4"/>
<path d="M6.52344 6.95312H7.82812V8.26172H6.52344V6.95312ZM12.1758 6.95312H13.4766V8.26172H12.1719L12.1758 6.95312ZM12.1758 9.78125H13.4766V11.0859H12.1719L12.1758 9.78125ZM6.52344 9.78125H7.82422V11.0859H6.52344V9.78125ZM9.34766 6.95703H10.6523V8.26172H9.34766V6.95703ZM10 13.9062C9.77344 13.9062 9.55469 13.875 9.34766 13.8086V15.1562C9.77869 15.2382 10.2213 15.2382 10.6523 15.1562V13.8125C10.4414 13.8795 10.2214 13.9137 10 13.9141V13.9062ZM7.85547 12.0898L6.8125 13.1289C6.99258 13.5387 7.24987 13.9101 7.57031 14.2227L8.49219 13.2969C8.15481 12.9725 7.93144 12.5477 7.85547 12.0859V12.0898ZM13.1875 13.1289L12.1445 12.0898C12.0683 12.5515 11.845 12.9763 11.5078 13.3008L12.4297 14.2188C12.7496 13.9073 13.0069 13.5373 13.1875 13.1289Z" fill="#D80027"/>
</svg>
