<svg width="20" height="20" viewBox="0 0 20 20" fill="none" xmlns="http://www.w3.org/2000/svg">
<g clip-path="url(#clip0)">
<path d="M10 20C15.5228 20 20 15.5228 20 10C20 4.47715 15.5228 0 10 0C4.47715 0 0 4.47715 0 10C0 15.5228 4.47715 20 10 20Z" fill="#EEEEEE"/>
<path d="M0.085968 11.3047C0.320343 13.0899 1.02347 14.7266 2.06644 16.0899L7.39065 11.3047H0.085968ZM8.69534 19.9141V12.6094L3.91019 17.9297C5.30245 19.0007 6.95343 19.684 8.69534 19.9102V19.9141ZM8.69534 0.0859604C6.91019 0.320335 5.27347 1.02346 3.91019 2.06643L8.69534 7.39065V0.0859604ZM0.085968 8.69533H7.39065L2.07034 3.91018C0.997953 5.30202 0.313286 6.95304 0.085968 8.69533ZM11.3047 0.0859604V7.39065L16.0899 2.07034C14.698 0.997945 13.047 0.313279 11.3047 0.0859604ZM19.9141 8.69533C19.6797 6.91018 18.9766 5.27346 17.9336 3.91018L12.6094 8.69533H19.9141ZM12.6094 11.3047L17.9297 16.0899C19.0007 14.6976 19.684 13.0466 19.9102 11.3047H12.6055H12.6094ZM11.3047 19.9141C13.0899 19.6797 14.7266 18.9766 16.0899 17.9336L11.3047 12.6094V19.9141Z" fill="#D80027"/>
<path d="M17.9336 16.0899L11.8438 10L17.9336 3.91019C17.4012 3.21974 16.7815 2.6013 16.0899 2.07035L10 8.15629L3.91019 2.06644C3.56519 2.33148 3.23769 2.61854 2.92972 2.92582C2.62095 3.23491 2.33258 3.56373 2.06644 3.91019L8.15628 10L2.06644 16.0899C2.59865 16.7817 3.21842 17.4014 3.91019 17.9336L10 11.8438L16.0899 17.9336C16.4349 17.6686 16.7624 17.3815 17.0703 17.0743C17.3791 16.7651 17.6675 16.4363 17.9336 16.0899Z" fill="#496E2D"/>
<path d="M11.3047 19.9141V11.3047H19.9141C20.0271 10.4386 20.0271 9.56143 19.9141 8.69531H11.3047V0.0859375C10.8721 0.0291355 10.4363 0.000429516 10 0C9.56372 0.000451399 9.12792 0.0291573 8.69533 0.0859375V8.69531H0.0859569C-0.0269433 9.56144 -0.0269433 10.4386 0.0859569 11.3047H8.69533V19.9141C9.12791 19.9709 9.56372 19.9996 10 20C10.4414 20 10.8789 19.9727 11.3047 19.9141Z" fill="#EEEEEE"/>
</g>
<defs>
<clipPath id="clip0">
<rect width="20" height="20" fill="white"/>
</clipPath>
</defs>
</svg>
