<svg width="20" height="20" viewBox="0 0 20 20" fill="none" xmlns="http://www.w3.org/2000/svg">
<g clip-path="url(#clip0)">
<path d="M2.41284e-09 10C2.41284e-09 11.2227 0.21875 12.3946 0.625 13.4766L10 14.3477L19.375 13.4766C20.2084 11.2338 20.2084 8.76624 19.375 6.52346L10 5.65237L0.625 6.52346C0.211621 7.63594 -2.60931e-05 8.81323 2.41284e-09 10H2.41284e-09Z" fill="#FFDA44"/>
<path d="M19.375 6.52343C18.6646 4.60966 17.3856 2.95913 15.7097 1.79358C14.0338 0.628022 12.0414 0.00328064 10 0.00328064C7.95865 0.00328064 5.96619 0.628022 4.29029 1.79358C2.6144 2.95913 1.33536 4.60966 0.625 6.52343H19.375ZM0.625 13.4766C1.33536 15.3903 2.6144 17.0409 4.29029 18.2064C5.96619 19.372 7.95865 19.9967 10 19.9967C12.0414 19.9967 14.0338 19.372 15.7097 18.2064C17.3856 17.0409 18.6646 15.3903 19.375 13.4766H0.625Z" fill="#D80027"/>
</g>
<defs>
<clipPath id="clip0">
<rect width="20" height="20" fill="white"/>
</clipPath>
</defs>
</svg>
