<svg width="20" height="20" viewBox="0 0 20 20" fill="none" xmlns="http://www.w3.org/2000/svg">
<path d="M10 20C15.5228 20 20 15.5228 20 10C20 4.47715 15.5228 0 10 0C4.47715 0 0 4.47715 0 10C0 15.5228 4.47715 20 10 20Z" fill="#6DA544"/>
<path d="M0 10C0 7.34784 1.05357 4.8043 2.92893 2.92893C4.8043 1.05357 7.34784 0 10 0V10H0Z" fill="#EEEEEE"/>
<path d="M5.95312 3.47656L6.60156 5.46875H8.69531L7 6.70313L7.64844 8.69531L5.95312 7.46484L4.25781 8.69531L4.90625 6.70313L3.21094 5.46875H5.30469L5.95312 3.47656Z" fill="#6DA544"/>
</svg>
