<svg width="20" height="20" viewBox="0 0 20 20" fill="none" xmlns="http://www.w3.org/2000/svg">
<g clip-path="url(#clip0)">
<path d="M0 9.99997C0 11.2226 0.21875 12.3945 0.625 13.4765L10 14.3476L19.375 13.4765C20.2054 11.2479 20.2124 8.79581 19.3945 6.56248L10 5.65623L0.605469 6.56638C0.214844 7.63669 0 8.79294 0 9.99997Z" fill="#FFDA44"/>
<path d="M10 20C12.0417 19.9998 14.0345 19.3745 15.7104 18.2084C17.3864 17.0422 18.6652 15.3909 19.375 13.4766H0.625C1.33483 15.3909 2.61364 17.0422 4.28957 18.2084C5.96551 19.3745 7.95826 19.9998 10 20Z" fill="#D80027"/>
<path d="M10 0C7.95826 0.000249226 5.96551 0.625473 4.28957 1.79165C2.61364 2.95782 1.33483 4.60905 0.625 6.52344H19.375C18.6652 4.60905 17.3864 2.95782 15.7104 1.79165C14.0345 0.625473 12.0417 0.000249226 10 0V0Z" fill="#6DA544"/>
<path d="M9.99997 14.7812C12.6406 14.7812 14.7812 12.6406 14.7812 9.99997C14.7812 7.35936 12.6406 5.21872 9.99997 5.21872C7.35936 5.21872 5.21872 7.35936 5.21872 9.99997C5.21872 12.6406 7.35936 14.7812 9.99997 14.7812Z" fill="#0052B4"/>
<path d="M9.99994 6.2969L10.8593 8.95315H13.6601L11.3945 10.5938L12.2656 13.2617L9.99994 11.6094L7.73432 13.2578L8.6015 10.5977L6.33588 8.95706H9.14057L9.99994 6.2969Z" fill="#FFDA44"/>
<path d="M13.4413 10.6641L10.7069 9.76952L12.3944 7.4414L11.6913 6.93359L9.99988 9.2578L8.30847 6.92577L7.60535 7.43749L9.29675 9.76952L6.55847 10.6562L6.828 11.4844L9.56238 10.5937V13.4766H10.4335V10.5976L13.1718 11.4883L13.4413 10.6641Z" fill="#FFDA44"/>
</g>
<defs>
<clipPath id="clip0">
<rect width="20" height="20" fill="white"/>
</clipPath>
</defs>
</svg>
