<svg width="20" height="20" viewBox="0 0 20 20" fill="none" xmlns="http://www.w3.org/2000/svg">
<path d="M10 20C15.5228 20 20 15.5228 20 10C20 4.47715 15.5228 0 10 0C4.47715 0 0 4.47715 0 10C0 15.5228 4.47715 20 10 20Z" fill="#0052B4"/>
<path d="M9.99994 3.91409L10.3242 4.91018H11.3671L10.5195 5.52346L10.8437 6.52346L9.99603 5.90627L9.14838 6.52346L9.4726 5.52346L8.62494 4.91018H9.67181L9.99994 3.91409ZM5.69525 5.69534L6.63275 6.1719L7.37103 5.42971L7.20697 6.46487L8.14056 6.94143L7.10541 7.10549L6.94135 8.14065L6.46478 7.20315L5.42963 7.37112L6.17181 6.62893L5.69525 5.69534ZM3.914 10L4.9101 9.6758V8.63283L5.52338 9.48049L6.52338 9.15627L5.90619 10.0039L6.52338 10.8516L5.52338 10.5274L4.9101 11.375V10.3281L3.914 10ZM5.69525 14.3047L6.17181 13.3672L5.42963 12.6289L6.46478 12.793L6.94135 11.8594L7.10541 12.8946L8.14056 13.0586L7.20306 13.5352L7.37103 14.5703L6.62885 13.8281L5.69525 14.3047ZM9.99994 16.086L9.67572 15.0899H8.63275L9.48041 14.4766L9.15619 13.4766L10.0038 14.0938L10.8515 13.4766L10.5273 14.4766L11.3749 15.0899H10.3281L9.99994 16.086ZM14.3046 14.3047L13.3671 13.8281L12.6288 14.5703L12.7929 13.5352L11.8593 13.0586L12.8945 12.8946L13.0585 11.8594L13.5351 12.7969L14.5703 12.6289L13.8281 13.3711L14.3046 14.3047ZM16.0859 10L15.0898 10.3242V11.3672L14.4765 10.5196L13.4765 10.8438L14.0937 9.99612L13.4765 9.14846L14.4765 9.47268L15.0898 8.62502V9.6719L16.0859 10ZM14.3046 5.69534L13.8281 6.63284L14.5703 7.37112L13.5351 7.20705L13.0585 8.14065L12.8945 7.10549L11.8593 6.94143L12.7968 6.46487L12.6288 5.42971L13.371 6.1719L14.3046 5.69534Z" fill="#FFDA44"/>
</svg>
