<svg width="20" height="20" viewBox="0 0 20 20" fill="none" xmlns="http://www.w3.org/2000/svg">
<path d="M10 20C15.5228 20 20 15.5228 20 10C20 4.47715 15.5228 0 10 0C4.47715 0 0 4.47715 0 10C0 15.5228 4.47715 20 10 20Z" fill="#EEEEEE"/>
<path d="M19.9141 8.69526H7.82421V0.238228C6.91421 0.439899 6.03712 0.768644 5.21875 1.21479V8.69526H0.0859315C-0.0270569 9.56138 -0.0270569 10.4385 0.0859315 11.3046H5.21875V18.7851C6.03712 19.2312 6.91421 19.56 7.82421 19.7617V11.3046H19.9141C20.0269 10.4385 20.0269 9.56139 19.9141 8.69526Z" fill="#0052B4"/>
</svg>
