<svg width="20" height="20" viewBox="0 0 20 20" fill="none" xmlns="http://www.w3.org/2000/svg">
<path d="M20 10C20 12.6522 18.9464 15.1957 17.0711 17.0711C15.1957 18.9464 12.6522 20 10 20C7.34784 20 4.8043 18.9464 2.92893 17.0711C1.05357 15.1957 0 12.6522 0 10L10 0C12.6522 0 15.1957 1.05357 17.0711 2.92893C18.9464 4.8043 20 7.34784 20 10Z" fill="#338AF3"/>
<path d="M9.99998 4.7813V8.1563L6.52342 4.7813H9.99998ZM5.21873 10.0001H8.15623L5.21873 6.08599L4.78123 9.13287L5.21873 10.0001Z" fill="#0052B4"/>
<path d="M9.97266 10.0001H10V9.97272L9.97266 10.0001Z" fill="#EEEEEE"/>
<path d="M10 5.21875V0C7.34784 0 4.8043 1.05357 2.92893 2.92893C1.05357 4.8043 0 7.34784 0 10H5.21875V7.0625L8.15625 10H9.97266L10 9.97266V8.15625L7.0625 5.21875H10Z" fill="#EEEEEE"/>
<path d="M5.05858 1.30474C3.49333 2.19683 2.19676 3.4934 1.30467 5.05865V10.0001H3.91405V3.91412H9.99998V1.30474H5.05858Z" fill="#D80027"/>
<path d="M9.99998 8.76953L6.4453 5.21484H5.21873L9.99998 10V8.76953Z" fill="#D80027"/>
<path d="M11.3047 6.52337V9.99994C11.3047 12.3281 14.3477 13.0468 14.3477 13.0468C14.3477 13.0468 17.3945 12.3281 17.3945 9.99994V6.52337L14.3477 5.65228L11.3008 6.52337H11.3047Z" fill="#EEEEEE"/>
<path d="M17.3906 6.52339V5.2187H11.3047V6.52339H13.914V9.12886H11.3047V9.99996H13.914V12.9101C14.1758 13.0039 14.3476 13.0429 14.3476 13.0429C14.3476 13.0429 14.5195 13.0039 14.7812 12.9101V9.99996H17.3906V9.12886H14.7812V6.52339H17.3906Z" fill="#D80027"/>
</svg>
