<svg width="20" height="20" viewBox="0 0 20 20" fill="none" xmlns="http://www.w3.org/2000/svg">
<path d="M20 10C20 12.6522 18.9464 15.1957 17.0711 17.0711C15.1957 18.9464 12.6522 20 10 20C7.34784 20 4.8043 18.9464 2.92893 17.0711C1.05357 15.1957 0 12.6522 0 10L10 0C12.6522 0 15.1957 1.05357 17.0711 2.92893C18.9464 4.8043 20 7.34784 20 10Z" fill="#0052B4"/>
<path d="M9.97264 10.0001H9.99998V9.97272L9.97264 10.0001Z" fill="#EEEEEE"/>
<path d="M10 5.21875V0C7.34784 0 4.8043 1.05357 2.92893 2.92893C1.05357 4.8043 0 7.34784 0 10H5.21875V7.0625L8.15625 10H9.97266L10 9.97266V8.15625L7.0625 5.21875H10Z" fill="#EEEEEE"/>
<path d="M5.05858 1.30474C3.49333 2.19683 2.19676 3.4934 1.30467 5.05865V10.0001H3.91405V3.91412H9.99998V1.30474H5.05858Z" fill="#D80027"/>
<path d="M10 8.76953L6.44531 5.21484H5.21875L10 10V8.76953Z" fill="#D80027"/>
<path d="M16.0859 11.7383V12.1758H12.6094V11.7383H11.3047V13.4766H12.1758V13.9141H16.5234V13.4766H17.3906V11.7383H16.0859Z" fill="#FFDA44"/>
<path d="M11.3047 5.2187V9.99995C11.3047 12.3281 14.3476 13.0468 14.3476 13.0468C14.3476 13.0468 17.3945 12.3281 17.3945 9.99995V5.2187H11.3008H11.3047Z" fill="#338AF3"/>
<path d="M14.3476 8.78516C13.5859 8.78516 13.5859 9.48047 12.8242 9.48047C12.0625 9.48047 12.0664 8.78516 11.3008 8.78516V10C12.0664 10 12.0664 10.6953 12.8242 10.6953C13.582 10.6953 13.5859 10 14.3476 10C15.1094 10 15.1094 10.6953 15.8711 10.6953C16.6328 10.6953 16.6289 10 17.3945 10V8.78125C16.6289 8.78125 16.6289 9.47656 15.8711 9.47656C15.1094 9.47656 15.1094 8.78125 14.3476 8.78125V8.78516ZM14.3476 6.34766C13.5859 6.34766 13.5859 7.04297 12.8242 7.04297C12.0625 7.04297 12.0664 6.34766 11.3008 6.34766V7.56641C12.0664 7.56641 12.0664 8.26172 12.8242 8.26172C13.582 8.26172 13.5859 7.56641 14.3476 7.56641C15.1094 7.56641 15.1094 8.26172 15.8711 8.26172C16.6328 8.26172 16.6289 7.56641 17.3945 7.56641V6.34766C16.6289 6.34766 16.6289 7.04297 15.8711 7.04297C15.1094 7.04297 15.1094 6.34766 14.3476 6.34766Z" fill="#EEEEEE"/>
</svg>
