<svg width="20" height="20" viewBox="0 0 20 20" fill="none" xmlns="http://www.w3.org/2000/svg">
<path d="M10 20C15.5228 20 20 15.5228 20 10C20 4.47715 15.5228 0 10 0C4.47715 0 0 4.47715 0 10C0 15.5228 4.47715 20 10 20Z" fill="#338AF3"/>
<path d="M9.99999 4.34772L10.4297 5.67585H11.8281L10.6953 6.49616L11.1289 7.82429L9.99999 7.00398L8.86717 7.82429L9.30077 6.49616L8.16795 5.67585H9.5703L9.99999 4.34772ZM4.34764 10.0001L5.67577 9.57038V8.17194L6.49608 9.30476L7.8242 8.87116L7.00389 10.0001L7.8242 11.1329L6.49608 10.6993L5.67577 11.8321V10.4298L4.34764 10.0001ZM9.99999 15.6524L9.5703 14.3243H8.17186L9.30467 13.504L8.87108 12.1759L9.99999 12.9962L11.1328 12.1759L10.6992 13.504L11.832 14.3243H10.4297L9.99999 15.6524ZM15.6523 10.0001L14.3242 10.4298V11.8282L13.5039 10.6954L12.1758 11.129L12.9961 10.0001L12.1758 8.86726L13.5039 9.30085L14.3242 8.16804V9.57038L15.6523 10.0001Z" fill="#EEEEEE"/>
</svg>
