<svg width="20" height="20" viewBox="0 0 20 20" fill="none" xmlns="http://www.w3.org/2000/svg">
<path d="M10 20C15.5228 20 20 15.5228 20 10C20 4.47715 15.5228 0 10 0C4.47715 0 0 4.47715 0 10C0 15.5228 4.47715 20 10 20Z" fill="#EEEEEE"/>
<path d="M19.5664 10L19.918 8.69531C19.8598 8.25508 19.7724 7.81922 19.6563 7.39062H9.12892V0.0390625C8.69019 0.0753102 8.25434 0.140557 7.82423 0.234375L6.08595 1.30469L5.21877 1.21484C4.76228 1.46563 4.32606 1.75165 3.91408 2.07031V7.39453H0.343765C0.228938 7.82322 0.14281 8.25908 0.0859528 8.69922L0.437515 10.0039L0.0859528 11.3086C0.14281 11.7487 0.228938 12.1846 0.343765 12.6133H3.91408V17.9297C4.32619 18.247 4.76241 18.5317 5.21877 18.7812L6.52345 18.6914L7.82423 19.7578C8.25426 19.8529 8.69011 19.9195 9.12892 19.957V12.6094H19.6563C19.7711 12.1807 19.8572 11.7448 19.9141 11.3047L19.5625 10H19.5664Z" fill="#0052B4"/>
<path d="M19.9141 8.69526H7.82425V0.238228C6.91424 0.439899 6.03715 0.768644 5.21878 1.21479V8.69526H0.0859671C-0.026845 9.56139 -0.026845 10.4385 0.0859671 11.3046H5.21878V18.7851C6.03715 19.2312 6.91424 19.56 7.82425 19.7617V11.3046H19.9141C20.0269 10.4385 20.0269 9.56139 19.9141 8.69526Z" fill="#D80027"/>
</svg>
