<svg width="20" height="20" viewBox="0 0 20 20" fill="none" xmlns="http://www.w3.org/2000/svg">
<path d="M10 20C15.5228 20 20 15.5228 20 10C20 4.47715 15.5228 0 10 0C4.47715 0 0 4.47715 0 10C0 15.5228 4.47715 20 10 20Z" fill="#EEEEEE"/>
<path d="M13.4804 8.46868C13.4814 7.59068 13.1805 6.73905 12.6281 6.05653C12.0758 5.37401 11.3057 4.90209 10.4468 4.71987C9.58791 4.53766 8.69249 4.65622 7.91063 5.05569C7.12876 5.45516 6.50798 6.11125 6.15233 6.914L5.68358 8.62493L6.11327 9.06243L5.24608 10.8007L6.11717 11.2343L5.67967 11.6679V12.1093L6.11717 12.5429V13.414L6.55076 13.8437L7.85545 13.414C7.85545 13.414 7.85545 13.8437 8.28904 14.2812C8.72264 14.7187 9.16014 15.5859 9.16014 15.5859C9.16014 15.5859 10.4648 16.0195 11.332 14.7187C12.2031 13.414 13.0742 12.9765 13.0742 12.9765L12.2344 11.3007C12.6279 10.9422 12.9424 10.5054 13.1576 10.0185C13.3728 9.53151 13.4841 9.005 13.4844 8.47259L13.4804 8.46868Z" fill="#333333"/>
<path d="M13.793 9.93355C15.5625 9.63667 15.8555 6.17574 15.8555 6.17574H13.4219C14.6797 9.22261 13.3633 9.42574 13.3633 9.42574C11.1158 8.31823 8.85519 7.23742 6.58203 6.18355C6.53125 6.24995 6.35156 6.41792 6.13281 6.95699C5.91406 7.49214 5.85938 7.97261 5.85938 7.97261C8.20718 8.82583 10.5668 9.64622 12.9375 10.4335C13.2969 10.664 13.7344 11.3593 13.4883 13.4257L15.832 12.7656C15.832 12.7656 15.0352 10.6523 13.793 9.93355Z" fill="#ACABB1"/>
</svg>
