<svg width="20" height="20" viewBox="0 0 20 20" fill="none" xmlns="http://www.w3.org/2000/svg">
<g clip-path="url(#clip0)">
<path d="M10 20C15.5228 20 20 15.5228 20 10C20 4.47715 15.5228 0 10 0C4.47715 0 0 4.47715 0 10C0 15.5228 4.47715 20 10 20Z" fill="#EEEEEE"/>
<path d="M19.9141 8.69525H11.3047V0.0858718C10.4386 -0.0269404 9.56145 -0.0269404 8.69531 0.0858718V8.69525H0.0859375C0.0291355 9.12783 0.000429516 9.56364 0 9.99994C0 10.4413 0.0273438 10.8788 0.0859375 11.3046H8.69531V19.914C9.56144 20.0269 10.4386 20.0269 11.3047 19.914V11.3046H19.9141C19.9709 10.872 19.9996 10.4362 20 9.99994C20 9.55853 19.9727 9.12103 19.9141 8.69525Z" fill="#D80027"/>
</g>
<defs>
<clipPath id="clip0">
<rect width="20" height="20" fill="white"/>
</clipPath>
</defs>
</svg>
