<svg width="20" height="20" viewBox="0 0 20 20" fill="none" xmlns="http://www.w3.org/2000/svg">
<g clip-path="url(#clip0)">
<path d="M19.6563 12.6094C20.1176 10.9004 20.1176 9.09962 19.6563 7.39062L9.12894 0.0390625C7.17581 0.207031 5.38284 0.9375 3.91409 2.06641L0.34378 7.39062C-0.114776 9.09469 -0.114776 10.8897 0.34378 12.5938L3.91409 17.9336C5.38284 19.0664 7.17581 19.793 9.12894 19.9648L19.6563 12.6094Z" fill="#FFDA44"/>
<path d="M0.343819 12.6094C0.918726 14.7261 2.17315 16.5954 3.91413 17.9297V12.6094H0.343819ZM9.13288 19.9609C9.42125 19.9863 9.71058 19.9994 10.0001 20C12.1981 20.0006 14.3351 19.277 16.0806 17.941C17.8261 16.6051 19.0828 14.7313 19.6563 12.6094H9.12898V19.9609H9.13288ZM19.6563 7.39062C19.0436 5.12446 17.6531 3.14611 15.7284 1.80204C13.8037 0.457978 11.4675 -0.166119 9.12898 0.0390566V7.39062H19.6563ZM3.91413 2.07031C2.17315 3.40456 0.918726 5.27384 0.343819 7.39062H3.91413V2.07031Z" fill="#D80027"/>
<path d="M19.914 8.69526H7.82415V0.238228C6.91414 0.439899 6.03705 0.768644 5.21868 1.21479V8.69526H0.0858679C-0.0269442 9.56139 -0.0269442 10.4385 0.0858679 11.3046H5.21868V18.7851C6.03705 19.2312 6.91414 19.56 7.82415 19.7617V11.3046H19.914C20.0268 10.4385 20.0268 9.56139 19.914 8.69526Z" fill="#0052B4"/>
</g>
<defs>
<clipPath id="clip0">
<rect width="20" height="20" fill="white"/>
</clipPath>
</defs>
</svg>
