<svg width="20" height="20" viewBox="0 0 20 20" fill="none" xmlns="http://www.w3.org/2000/svg">
<path d="M10 20C15.5228 20 20 15.5228 20 10C20 4.47715 15.5228 0 10 0C4.47715 0 0 4.47715 0 10C0 15.5228 4.47715 20 10 20Z" fill="#EEEEEE"/>
<path d="M16.0898 2.07031C14.4023 0.765625 12.293 0 10 0C7.70703 0 5.59766 0.769531 3.91016 2.07031L10 8.15234L16.0898 2.06641V2.07031ZM2.06641 3.90625C0.769531 5.59766 0 7.70703 0 10C0 12.293 0.769531 14.4023 2.07031 16.0898L8.15234 10L2.06641 3.91016V3.90625ZM3.91016 17.9297C5.59766 19.2305 7.70703 20 10 20C12.293 20 14.4023 19.2305 16.0898 17.9297L10 11.8477L3.91016 17.9336V17.9297ZM17.9336 16.0859C19.2305 14.4023 20 12.293 20 10C20 7.70703 19.2305 5.59766 17.9297 3.91016L11.8477 10L17.9375 16.0898L17.9336 16.0859Z" fill="#0052B4"/>
</svg>
