<svg width="20" height="20" viewBox="0 0 20 20" fill="none" xmlns="http://www.w3.org/2000/svg">
<path d="M10 20C15.5228 20 20 15.5228 20 10C20 4.47715 15.5228 0 10 0C4.47715 0 0 4.47715 0 10C0 15.5228 4.47715 20 10 20Z" fill="#EEEEEE"/>
<path d="M20 10C20 12.6522 18.9464 15.1957 17.0711 17.0711C15.1957 18.9464 12.6522 20 10 20C7.34784 20 4.8043 18.9464 2.92893 17.0711C1.05357 15.1957 0 12.6522 0 10" fill="#496E2D"/>
<path d="M17.3047 6.95697C17.1246 6.44834 16.7912 6.00807 16.3505 5.69676C15.9097 5.38545 15.3833 5.21843 14.8438 5.21869H12.6094C12.1514 5.21806 11.7013 5.33797 11.3044 5.56637C10.9075 5.79477 10.5776 6.12362 10.348 6.51987C10.1184 6.91612 9.99716 7.36582 9.99641 7.82379C9.99566 8.28175 10.1155 8.73184 10.3437 9.12885C9.51172 9.12494 8.74219 9.13666 8.26172 9.12885V6.57416L8.36328 6.4726C8.82422 6.01166 8.67188 5.24213 8.67188 5.24213C8.67188 5.24213 7.90234 5.08588 7.44141 5.55072L6.90234 6.08588H6.30469C5.67065 6.08588 5.06259 6.33775 4.61426 6.78608C4.16593 7.23441 3.91406 7.84247 3.91406 8.4765H5.65234V10.4335C5.6512 10.7111 5.70566 10.986 5.8125 11.2421L5.21875 11.7382H4.34766V10.871H3.47656V12.6093H7.39062V14.3476H6.52344V15.2187H8.26172V13.4765L9.05859 12.5234H10.9375L11.7344 13.4765V14.3476H10.8672V15.2187H14.3438V10.4296C14.3441 10.2539 14.38 10.0801 14.4492 9.9186C14.5184 9.75709 14.6195 9.61122 14.7464 9.48974C14.8734 9.36827 15.0235 9.27368 15.1879 9.21167C15.3523 9.14965 15.5276 9.12148 15.7031 9.12885C15.6664 8.98592 15.6481 8.83891 15.6484 8.69135C15.6479 8.24484 15.8192 7.81524 16.1268 7.49161C16.4344 7.16798 16.8548 6.97514 17.3008 6.95307L17.3047 6.95697ZM12.6094 14.3476V12.5234H12.6797L13.4766 13.4765V14.3476H12.6094Z" fill="#D80027"/>
</svg>
