<svg width="20" height="20" viewBox="0 0 20 20" fill="none" xmlns="http://www.w3.org/2000/svg">
<path d="M10 20C15.5228 20 20 15.5228 20 10C20 4.47715 15.5228 0 10 0C4.47715 0 0 4.47715 0 10C0 15.5228 4.47715 20 10 20Z" fill="#EEEEEE"/>
<path d="M2.0703 3.91022C1.27191 4.9458 0.685228 6.12845 0.343735 7.39069H5.54686L2.0703 3.91413V3.91022ZM19.6562 7.39069C19.3154 6.13012 18.7301 4.94886 17.9336 3.91413L14.457 7.39069H19.6523H19.6562ZM0.343735 12.6094C0.684524 13.87 1.26984 15.0513 2.06639 16.086L5.54295 12.6094H0.351547H0.343735ZM16.0859 2.06647C15.0509 1.27131 13.8696 0.68733 12.6094 0.347721V5.54694L16.0859 2.07038V2.06647ZM3.91405 17.9337C4.95027 18.7293 6.13287 19.3133 7.39452 19.6524V14.4532L3.91795 17.9298L3.91405 17.9337ZM7.39061 0.343815C6.13004 0.684604 4.94878 1.26993 3.91405 2.06647L7.39061 5.54694V0.343815ZM12.6094 19.6563C13.8699 19.3155 15.0512 18.7302 16.0859 17.9337L12.6094 14.4571V19.6524V19.6563ZM14.4531 12.6094L17.9297 16.086C18.7276 15.0516 19.3143 13.8703 19.6562 12.6094H14.4531Z" fill="#0052B4"/>
<path d="M19.9141 8.69531H11.3047V0.0859375C10.8721 0.0291464 10.4363 0.000440461 10 0C9.55859 0 9.12109 0.0273438 8.69531 0.0859375V8.69531H0.0859375C0.0291464 9.1279 0.000440461 9.5637 0 10C0 10.4414 0.0273438 10.8789 0.0859375 11.3047H8.69531V19.9141C9.56144 20.027 10.4386 20.027 11.3047 19.9141V11.3047H19.9141C19.9709 10.8721 19.9996 10.4363 20 10C20 9.55859 19.9727 9.12109 19.9141 8.69531Z" fill="#D80027"/>
<path d="M12.6094 12.6094L17.0703 17.0703C17.2748 16.8653 17.4703 16.6516 17.6562 16.4297L13.8398 12.6094H12.6094ZM7.39062 12.6094L2.92969 17.0703C3.13467 17.2748 3.34841 17.4703 3.57031 17.6562L7.39062 13.8398V12.6094ZM7.39062 7.39062L2.92969 2.92969C2.72521 3.13467 2.52972 3.34841 2.34375 3.57031L6.16016 7.39062H7.39062ZM12.6094 7.39062L17.0703 2.92969C16.8653 2.7252 16.6516 2.52971 16.4297 2.34375L12.6094 6.16016V7.39062Z" fill="#D80027"/>
</svg>
