<svg width="20" height="20" viewBox="0 0 20 20" fill="none" xmlns="http://www.w3.org/2000/svg">
<g clip-path="url(#clip0)">
<path d="M10 20C15.5228 20 20 15.5228 20 10C20 4.47715 15.5228 0 10 0C4.47715 0 0 4.47715 0 10C0 15.5228 4.47715 20 10 20Z" fill="#FFDA44"/>
<path d="M4.3633 1.73834C6.02368 0.602666 7.98839 -0.00497437 10 -0.00497437C12.0116 -0.00497437 13.9763 0.602666 15.6367 1.73834L10 2.17584L4.3633 1.73834Z" fill="#A2001D"/>
<path d="M9.99998 9.99994L9.36326 9.36321L9.19139 9.664L9.99998 9.99994Z" fill="#0052B4"/>
<path d="M2.92967 2.92969C1.05477 4.80499 0.00149536 7.34821 0.00149536 10C0.00149536 12.6518 1.05477 15.195 2.92967 17.0703L9.99998 10L2.92967 2.92969ZM17.0703 2.92969C18.9452 4.80499 19.9985 7.34821 19.9985 10C19.9985 12.6518 18.9452 15.195 17.0703 17.0703L9.99998 10L17.0703 2.92969Z" fill="#496E2D"/>
<path d="M10 13.4766C11.9201 13.4766 13.4766 11.9201 13.4766 10C13.4766 8.07995 11.9201 6.52344 10 6.52344C8.07995 6.52344 6.52344 8.07995 6.52344 10C6.52344 11.9201 8.07995 13.4766 10 13.4766Z" fill="#A2001D"/>
<path d="M9.99999 6.52344L10.7812 8.92188H13.3047L11.2617 10.4063L12.043 12.8047L9.99999 11.3203L7.95702 12.8047L8.73827 10.4063L6.6953 8.92188H9.21874L9.99999 6.52344Z" fill="#FFDA44"/>
<path d="M10 -5.06546e-05C8.6866 -0.00155801 7.38585 0.256488 6.1725 0.759261C4.95914 1.26203 3.85709 1.99962 2.92969 2.92964H17.0703C16.1429 1.99962 15.0409 1.26203 13.8275 0.759261C12.6141 0.256488 11.3134 -0.00155801 10 -5.06546e-05ZM2.92969 17.0703C4.73828 18.8828 7.23828 20 10 20C12.7617 20 15.2617 18.8828 17.0703 17.0703H2.92969Z" fill="#A2001D"/>
<path d="M10 1.086L10.1602 1.586H10.6875L10.2617 1.8946L10.4258 2.39069L10 2.0821L9.57814 2.3946L9.73829 1.8946L9.31251 1.5821H9.84376L10 1.086ZM7.57814 1.086L7.73439 1.586H8.26173L7.83595 1.8946L8.00001 2.39069L7.57423 2.0821L7.15236 2.3946L7.31251 1.8946L6.89064 1.5821H7.41407L7.57814 1.086ZM12.4219 1.086L12.5859 1.586H13.1094L12.6875 1.8946L12.8477 2.39069L12.4258 2.0821L12 2.3946L12.1641 1.8946L11.7383 1.5821H12.2656L12.4219 1.086ZM10 17.6094L10.1602 18.1055H10.6875L10.2617 18.418L10.4258 18.9141L10 18.6016L9.57814 18.9141L9.73829 18.4141L9.31251 18.1055H9.84376L10 17.6094ZM7.57814 17.6094L7.73439 18.1055H8.26173L7.83595 18.418L8.00001 18.9141L7.57423 18.6016L7.15236 18.9141L7.31251 18.4141L6.89064 18.1055H7.41407L7.57814 17.6094ZM12.4219 17.6094L12.5859 18.1055H13.1094L12.6875 18.418L12.8477 18.9141L12.4258 18.6016L12 18.9141L12.1641 18.4141L11.7383 18.1055H12.2656L12.4219 17.6094ZM3.04689 9.836C3.15224 10.0302 3.17989 10.2571 3.12424 10.4709C3.06859 10.6847 2.93379 10.8693 2.74714 10.9875C2.56048 11.1056 2.33591 11.1485 2.11887 11.1073C1.90183 11.0661 1.70855 10.944 1.57814 10.7657C1.10939 10.0313 1.38282 8.8321 1.38282 8.8321C1.38282 8.8321 2.57814 9.10163 3.04689 9.836Z" fill="#FFDA44"/>
<path d="M2.54297 11.1016C2.78244 11.1016 2.97656 10.9074 2.97656 10.668C2.97656 10.4285 2.78244 10.2344 2.54297 10.2344C2.3035 10.2344 2.10938 10.4285 2.10938 10.668C2.10938 10.9074 2.3035 11.1016 2.54297 11.1016Z" fill="#A2001D"/>
</g>
<defs>
<clipPath id="clip0">
<rect width="20" height="20" fill="white"/>
</clipPath>
</defs>
</svg>
