<svg width="20" height="20" viewBox="0 0 20 20" fill="none" xmlns="http://www.w3.org/2000/svg">
<g clip-path="url(#clip0)">
<path d="M10 20C15.5228 20 20 15.5228 20 10C20 4.47715 15.5228 0 10 0C4.47715 0 0 4.47715 0 10C0 15.5228 4.47715 20 10 20Z" fill="#EEEEEE"/>
<path d="M16.9961 2.85539C15.1294 1.02199 12.6165 -0.00365675 10 -8.22408e-05C9.12894 -8.22408e-05 6.58597 1.08976 4.78128 2.85539H16.9961ZM10 8.57023H19.8985C19.7574 7.58058 19.4677 6.6179 19.0391 5.71476H9.56644L10 8.57023ZM0.964874 14.2851H19.0352C19.4637 13.3819 19.7535 12.4193 19.8946 11.4296H0.105499C0.24653 12.4193 0.536257 13.382 0.964874 14.2851ZM3.00394 17.1484C4.87338 18.9778 7.38519 20.0019 10.0008 20.0011C12.6165 20.0004 15.1277 18.9749 16.9961 17.1444H3.00784L3.00394 17.1484Z" fill="#6DA544"/>
<path d="M9.99997 6.79822e-08C7.59531 -0.000280186 5.27107 0.865948 3.45313 2.43996C1.6352 4.01397 0.445323 6.19035 0.101532 8.57031H9.99997V6.79822e-08Z" fill="#D80027"/>
<path d="M5.00003 7.66804L4.56644 6.79694V5.05866L5.65237 4.18757L6.73831 5.05866V6.36335L7.17581 5.92585V6.79694L6.30472 7.66804H5.00003ZM2.66019 5.00007L2.77737 5.35163H3.14847L2.84769 5.57429L2.96487 5.92585L2.66019 5.7071L2.35941 5.92585L2.47659 5.57429L2.17581 5.35554H2.54691L2.66019 5.00007ZM3.53128 4.12897L3.64847 4.48444H4.01956L3.71878 4.70319L3.83597 5.05476L3.53128 4.83991L3.2305 5.05866L3.34769 4.7071L3.043 4.48444H3.41409L3.53128 4.12897ZM4.40237 3.26179L4.51566 3.61335H4.88675L4.58597 3.83601L4.70316 4.18757L4.40237 3.96882L4.09769 4.18757L4.21487 3.83601L3.91409 3.61335H4.28519L4.40237 3.26179ZM8.64456 5.00007L8.52738 5.35163H8.15628L8.45706 5.57429L8.33987 5.92585L8.64456 5.7071L8.94534 5.92585L8.82816 5.57429L9.12894 5.35554H8.75784L8.64456 5.00007ZM7.77347 4.12897L7.65628 4.48444H7.28519L7.58597 4.70319L7.46878 5.05476L7.77347 4.83991L8.07425 5.05866L7.95706 4.7071L8.26175 4.48444H7.88675L7.77347 4.12897ZM6.90237 3.26179L6.78519 3.61335H6.418L6.71878 3.83601L6.60159 4.18757L6.90237 3.96882L7.20706 4.18757L7.08987 3.83601L7.39066 3.61335H7.01956L6.90237 3.26179ZM5.65237 2.82429L5.53519 3.17976H5.16409L5.46878 3.39851L5.35159 3.75007L5.65628 3.53522L5.95706 3.75397L5.83987 3.40241L6.14456 3.17976H5.76956L5.65237 2.82429Z" fill="#EEEEEE"/>
</g>
<defs>
<clipPath id="clip0">
<rect width="20" height="20" fill="white"/>
</clipPath>
</defs>
</svg>
