<svg width="20" height="20" viewBox="0 0 20 20" fill="none" xmlns="http://www.w3.org/2000/svg">
<g clip-path="url(#clip0)">
<path d="M10 20C15.5228 20 20 15.5228 20 10C20 4.47715 15.5228 0 10 0C4.47715 0 0 4.47715 0 10C0 15.5228 4.47715 20 10 20Z" fill="#EEEEEE"/>
<path d="M19.9141 8.69525H11.3047V0.0858718C10.4386 -0.0269404 9.56145 -0.0269404 8.69531 0.0858718V8.69525H0.0859375C0.0291464 9.12783 0.000440461 9.56364 0 9.99994C0 10.4413 0.0273438 10.8788 0.0859375 11.3046H8.69531V19.914C9.56144 20.0269 10.4386 20.0269 11.3047 19.914V11.3046H19.9141C19.9709 10.872 19.9996 10.4362 20 9.99994C20 9.55853 19.9727 9.12103 19.9141 8.69525Z" fill="#D80027"/>
<path d="M6.08594 4.78125V3.47657H4.78125V4.78125H3.47656V6.08594H4.78125V7.39063H6.08594V6.08594H7.39062V4.78125H6.08594ZM15.2188 4.78125V3.47657H13.9141V4.78125H12.6094V6.08594H13.9141V7.39063H15.2188V6.08594H16.5234V4.78125H15.2188ZM6.08594 13.9141V12.6094H4.78125V13.9141H3.47656V15.2188H4.78125V16.5234H6.08594V15.2188H7.39062V13.9141H6.08594ZM15.2188 13.9141V12.6094H13.9141V13.9141H12.6094V15.2188H13.9141V16.5234H15.2188V15.2188H16.5234V13.9141H15.2188Z" fill="#D80027"/>
</g>
<defs>
<clipPath id="clip0">
<rect width="20" height="20" fill="white"/>
</clipPath>
</defs>
</svg>
