<svg width="20" height="20" viewBox="0 0 20 20" fill="none" xmlns="http://www.w3.org/2000/svg">
<g clip-path="url(#clip0)">
<path d="M2.41284e-09 10.0001C2.41284e-09 11.2227 0.21875 12.3946 0.625 13.4766L10 13.9141L19.375 13.4766C20.2088 11.2339 20.2088 8.76622 19.375 6.52351L10 6.08601L0.625 6.52351C0.211621 7.63598 -2.60931e-05 8.81327 2.41284e-09 10.0001H2.41284e-09Z" fill="#FFDA44"/>
<path d="M10 0C7.95826 0.000249226 5.96551 0.625473 4.28957 1.79165C2.61364 2.95782 1.33483 4.60905 0.625 6.52344H19.375C18.6652 4.60905 17.3864 2.95782 15.7104 1.79165C14.0345 0.625473 12.0417 0.000249226 10 0V0Z" fill="#D80027"/>
<path d="M19.375 13.4766H0.625C1.33536 15.3903 2.6144 17.0409 4.29029 18.2064C5.96619 19.372 7.95865 19.9967 10 19.9967C12.0414 19.9967 14.0338 19.372 15.7097 18.2064C17.3856 17.0409 18.6646 15.3903 19.375 13.4766Z" fill="#496E2D"/>
<path d="M10 6.52344L10.8633 9.17969H13.6563L11.3985 10.8203L12.2578 13.4766L10 11.8359L7.73831 13.4766L8.60159 10.8203L6.34378 9.17969H9.13675L10 6.52344Z" fill="#333333"/>
</g>
<defs>
<clipPath id="clip0">
<rect width="20" height="20" fill="white"/>
</clipPath>
</defs>
</svg>
