<svg width="20" height="20" viewBox="0 0 20 20" fill="none" xmlns="http://www.w3.org/2000/svg">
<g clip-path="url(#clip0)">
<path d="M10 20C15.5228 20 20 15.5228 20 10C20 4.47715 15.5228 0 10 0C4.47715 0 0 4.47715 0 10C0 15.5228 4.47715 20 10 20Z" fill="#EEEEEE"/>
<path d="M10 20.0001C12.0417 19.9998 14.0345 19.3746 15.7104 18.2084C17.3864 17.0423 18.6652 15.391 19.375 13.4766H0.625C1.33483 15.391 2.61364 17.0423 4.28957 18.2084C5.96551 19.3746 7.95826 19.9998 10 20.0001ZM13.9141 8.26179V6.95319H14.3477V6.0821H13.4766V6.52351H12.6094V6.08601H11.7383V6.9571H12.1758V8.26179H11.3047V5.21491H11.7383V4.34772H10.8711V4.78132H10.4297V4.35163H9.57031V4.78132H9.13281V4.35163H8.26562V5.21882H8.69922V8.26179H7.82812V6.95319H8.26562V6.0821H7.39453V6.52351H6.52344V6.08601H5.65234V6.9571H6.08594V8.26179H5.21875V11.7384H14.7812V8.26179H13.9141Z" fill="#D80027"/>
<path d="M10 11.3047C9.69214 11.3048 9.39422 11.4137 9.15891 11.6122C8.9236 11.8107 8.76606 12.086 8.71416 12.3895C8.66226 12.6929 8.71934 13.0049 8.8753 13.2704C9.03126 13.5358 9.27606 13.7375 9.56641 13.8399V15.6524H8.26172V17.3907H10.4297V13.836C10.7173 13.7317 10.9592 13.5297 11.113 13.2652C11.2668 13.0007 11.3227 12.6906 11.2711 12.3891C11.2194 12.0875 11.0634 11.8137 10.8304 11.6155C10.5973 11.4173 10.302 11.3073 9.9961 11.3047H10ZM10 13.043C9.94306 13.043 9.88668 13.0318 9.83407 13.01C9.78147 12.9882 9.73367 12.9563 9.6934 12.916C9.65314 12.8757 9.6212 12.8279 9.59941 12.7753C9.57762 12.7227 9.56641 12.6663 9.56641 12.6094C9.56641 12.5525 9.57762 12.4961 9.59941 12.4435C9.6212 12.3909 9.65314 12.3431 9.6934 12.3028C9.73367 12.2625 9.78147 12.2306 9.83407 12.2088C9.88668 12.187 9.94306 12.1758 10 12.1758C10.115 12.1758 10.2253 12.2215 10.3066 12.3028C10.3879 12.3841 10.4336 12.4944 10.4336 12.6094C10.4336 12.7244 10.3879 12.8347 10.3066 12.916C10.2253 12.9973 10.115 13.043 10 13.043Z" fill="#FFDA44"/>
</g>
<defs>
<clipPath id="clip0">
<rect width="20" height="20" fill="white"/>
</clipPath>
</defs>
</svg>
