<svg width="20" height="20" viewBox="0 0 20 20" fill="none" xmlns="http://www.w3.org/2000/svg">
<path d="M0 10C0 7.34784 1.05357 4.8043 2.92893 2.92893C4.8043 1.05357 7.34784 0 10 0C12.6522 0 15.1957 1.05357 17.0711 2.92893C18.9464 4.8043 20 7.34784 20 10C19.5664 10 10 11.3047 10 11.3047L0 10Z" fill="#EEEEEE"/>
<path d="M20 10C20 12.6522 18.9464 15.1957 17.0711 17.0711C15.1957 18.9464 12.6522 20 10 20C7.34784 20 4.8043 18.9464 2.92893 17.0711C1.05357 15.1957 0 12.6522 0 10" fill="#D80027"/>
<path d="M6.95703 14.7812C9.59764 14.7812 11.7383 12.6406 11.7383 9.99997C11.7383 7.35936 9.59764 5.21872 6.95703 5.21872C4.31642 5.21872 2.17578 7.35936 2.17578 9.99997C2.17578 12.6406 4.31642 14.7812 6.95703 14.7812Z" fill="#EEEEEE"/>
<path d="M2.17578 9.99997C2.17578 8.73191 2.67952 7.51578 3.57618 6.61912C4.47284 5.72246 5.68897 5.21872 6.95703 5.21872C8.2251 5.21872 9.44123 5.72246 10.3379 6.61912C11.2345 7.51578 11.7383 8.73191 11.7383 9.99997" fill="#D80027"/>
</svg>
