<svg width="20" height="20" viewBox="0 0 20 20" fill="none" xmlns="http://www.w3.org/2000/svg">
<g clip-path="url(#clip0)">
<path d="M10 20C15.5228 20 20 15.5228 20 10C20 4.47715 15.5228 0 10 0C4.47715 0 0 4.47715 0 10C0 15.5228 4.47715 20 10 20Z" fill="#EEEEEE"/>
<path d="M10 -1.07439e-05C8.03749 -0.000962739 6.11806 0.575574 4.48088 1.65777C2.84369 2.73996 1.56113 4.27997 0.792984 6.08593H19.207C18.4389 4.27997 17.1563 2.73996 15.5192 1.65777C13.882 0.575574 11.9625 -0.000962739 10 -1.07439e-05Z" fill="#A2001D"/>
<path d="M10 19.9999C11.9625 20.0009 13.882 19.4243 15.5192 18.3421C17.1563 17.2599 18.4389 15.7199 19.207 13.914H0.792984C1.56113 15.7199 2.84369 17.2599 4.48088 18.3421C6.11806 19.4243 8.03749 20.0009 10 19.9999Z" fill="#496E2D"/>
<path d="M19.6562 7.39056H0.343749C-0.117615 9.09955 -0.117615 10.9003 0.343749 12.6093H19.6562C20.1176 10.9003 20.1176 9.09955 19.6562 7.39056Z" fill="#0052B4"/>
</g>
<defs>
<clipPath id="clip0">
<rect width="20" height="20" fill="white"/>
</clipPath>
</defs>
</svg>
