<svg width="20" height="20" viewBox="0 0 20 20" fill="none" xmlns="http://www.w3.org/2000/svg">
<g clip-path="url(#clip0)">
<path d="M10 20C15.5228 20 20 15.5228 20 10C20 4.47715 15.5228 0 10 0C4.47715 0 0 4.47715 0 10C0 15.5228 4.47715 20 10 20Z" fill="#EEEEEE"/>
<path d="M6.08594 6.52344H19.3789C18.7962 4.95135 17.8275 3.55101 16.562 2.45121C15.2965 1.35141 13.7748 0.587448 12.1368 0.229588C10.4988 -0.128272 8.79711 -0.0685442 7.18825 0.403278C5.57938 0.8751 4.11497 1.74387 2.92969 2.92969L6.08594 6.52344Z" fill="#6DA544"/>
<path d="M6.08594 13.4766H19.3789C18.7962 15.0487 17.8275 16.449 16.562 17.5488C15.2965 18.6486 13.7748 19.4126 12.1368 19.7704C10.4988 20.1283 8.79711 20.0685 7.18825 19.5967C5.57938 19.1249 4.11497 18.2561 2.92969 17.0703L6.08594 13.4766Z" fill="#D80027"/>
<path d="M2.92967 2.92969C1.05477 4.80499 0.00149536 7.34821 0.00149536 10C0.00149536 12.6518 1.05477 15.195 2.92967 17.0703L9.99999 10L2.92967 2.92969Z" fill="#0052B4"/>
<path d="M13.0469 10.0429H13.914V11.3047H13.043L13.0469 10.0429Z" fill="#FF9811"/>
<path d="M14.3477 9.56643C14.3557 9.4474 14.3391 9.32799 14.299 9.21561C14.259 9.10323 14.1963 9.00029 14.1148 8.91315C14.0333 8.82601 13.9348 8.75654 13.8253 8.70904C13.7159 8.66155 13.5978 8.63704 13.4785 8.63704C13.3592 8.63704 13.2412 8.66155 13.1317 8.70904C13.0223 8.75654 12.9238 8.82601 12.8423 8.91315C12.7608 9.00029 12.6981 9.10323 12.658 9.21561C12.618 9.32799 12.6014 9.4474 12.6094 9.56643C12.4944 9.56643 12.3841 9.61212 12.3028 9.69343C12.2215 9.77475 12.1758 9.88503 12.1758 10C12.1758 10.115 12.2215 10.2253 12.3028 10.3066C12.3841 10.3879 12.4944 10.4336 12.6094 10.4336H14.3477C14.4627 10.4336 14.573 10.3879 14.6543 10.3066C14.7356 10.2253 14.7813 10.115 14.7813 10C14.7813 9.88503 14.7356 9.77475 14.6543 9.69343C14.573 9.61212 14.4627 9.56643 14.3477 9.56643Z" fill="#6DA544"/>
</g>
<defs>
<clipPath id="clip0">
<rect width="20" height="20" fill="white"/>
</clipPath>
</defs>
</svg>
