<svg width="20" height="20" viewBox="0 0 20 20" fill="none" xmlns="http://www.w3.org/2000/svg">
<g clip-path="url(#clip0)">
<path d="M10 20C15.5228 20 20 15.5228 20 10C20 4.47715 15.5228 0 10 0C4.47715 0 0 4.47715 0 10C0 15.5228 4.47715 20 10 20Z" fill="#EEEEEE"/>
<path d="M9.99997 7.39055H19.6562C19.4081 6.4714 19.0292 5.59264 18.5312 4.78118H9.99997V7.39055ZM3.77341 17.8241H16.2265C17.1404 17.0962 17.9203 16.2145 18.5312 15.2187H1.46872C2.07968 16.2145 2.85958 17.0962 3.77341 17.8241ZM3.47653 2.4218C2.68903 3.10095 2.0117 3.8982 1.46872 4.78508H3.47653V2.4218ZM9.99997 9.99993V7.39055H6.08591V9.99993H3.47653V7.39055H0.343719C-0.117645 9.09955 -0.117645 10.9003 0.343719 12.6093H19.6562C19.8789 11.7773 20 10.9023 20 9.99993H9.99997ZM9.99997 -7.19709e-05C8.61325 -7.19709e-05 7.28903 0.285084 6.08591 0.792897V4.78118H9.99997V2.17571H16.2265C14.4583 0.764388 12.2624 -0.00296273 9.99997 -7.19709e-05Z" fill="#338AF3"/>
</g>
<defs>
<clipPath id="clip0">
<rect width="20" height="20" fill="white"/>
</clipPath>
</defs>
</svg>
