<svg width="20" height="20" viewBox="0 0 20 20" fill="none" xmlns="http://www.w3.org/2000/svg">
<g clip-path="url(#clip0)">
<path d="M10 20C15.5228 20 20 15.5228 20 10C20 4.47715 15.5228 0 10 0C4.47715 0 0 4.47715 0 10C0 15.5228 4.47715 20 10 20Z" fill="#EEEEEE"/>
<path d="M20 10C20.0004 8.11894 19.4703 6.27586 18.4705 4.68249C17.4706 3.08911 16.0417 1.81006 14.3477 0.99222V19.0078C16.0417 18.19 17.4706 16.911 18.4705 15.3176C19.4703 13.7242 20.0004 11.8811 20 10ZM2.82363e-07 10C-0.000446655 11.8811 0.52969 13.7242 1.52952 15.3176C2.52936 16.911 3.95834 18.19 5.65234 19.0078V0.99222C3.95834 1.81006 2.52936 3.08911 1.52952 4.68249C0.52969 6.27586 -0.000446655 8.11894 2.82363e-07 10Z" fill="#338AF3"/>
<path d="M12.6133 11.6913L10.9219 9.99993L12.5313 8.39055L12.4609 7.53899L12.0039 7.07806L10.0039 9.07805L8.00392 7.07806L7.54689 7.53899L7.46877 8.39055L9.08204 9.99993L7.39064 11.6913L8.31251 12.6132L10.0039 10.9218L11.6953 12.6132L12.6133 11.6913Z" fill="#ACABB1"/>
<path d="M12.4609 7.53906L11.5391 8.46094C11.8461 8.76396 12.0557 9.15168 12.1412 9.57451C12.2266 9.99733 12.184 10.436 12.0187 10.8345C11.8535 11.233 11.5731 11.5731 11.2135 11.8113C10.8539 12.0496 10.4314 12.1751 9.99999 12.1719C9.5703 12.1713 9.1504 12.0436 8.79322 11.8047C8.43605 11.5658 8.1576 11.2265 7.99299 10.8296C7.82838 10.4327 7.78497 9.99596 7.86825 9.57442C7.95153 9.15288 8.15775 8.76543 8.46093 8.46094L7.53905 7.53906C7.05359 8.02557 6.72322 8.64504 6.58968 9.31923C6.45614 9.99341 6.52542 10.692 6.78878 11.3269C7.05213 11.9617 7.49773 12.5042 8.06929 12.8859C8.64084 13.2676 9.31271 13.4713 9.99999 13.4713C10.6873 13.4713 11.3591 13.2676 11.9307 12.8859C12.5022 12.5042 12.9478 11.9617 13.2112 11.3269C13.4746 10.692 13.5438 9.99341 13.4103 9.31923C13.2768 8.64504 12.9464 8.02557 12.4609 7.53906Z" fill="#6DA544"/>
</g>
<defs>
<clipPath id="clip0">
<rect width="20" height="20" fill="white"/>
</clipPath>
</defs>
</svg>
