<svg width="20" height="20" viewBox="0 0 20 20" fill="none" xmlns="http://www.w3.org/2000/svg">
<g clip-path="url(#clip0)">
<path d="M4.3633 18.2618C6.02369 19.3974 7.9884 20.0051 10 20.0051C12.0116 20.0051 13.9764 19.3974 15.6367 18.2618L10 17.3907L4.3633 18.2618ZM15.6367 1.73833C13.9764 0.602665 12.0116 -0.0049758 10 -0.0049758C7.9884 -0.0049758 6.02369 0.602665 4.3633 1.73833L10 2.60943L15.6367 1.73833Z" fill="#D80027"/>
<path d="M20 10C20 6.69141 18.0195 3.36719 15.6367 1.73828H4.36325C3.01759 2.65536 1.91655 3.88755 1.15606 5.32751C0.395567 6.76748 -0.00131883 8.37155 -2.73759e-05 10C-2.73759e-05 13.4336 1.73044 16.4609 4.36325 18.2617H15.6367C16.9824 17.3446 18.0834 16.1125 18.8439 14.6725C19.6044 13.2325 20.0013 11.6285 20 10Z" fill="#0052B4"/>
<path d="M9.43357 16.3125C9.29685 16.1953 6.08592 13.4023 6.08592 10C6.08592 6.59766 9.29685 3.80469 9.43357 3.6875L9.99998 3.20312L10.5664 3.6875C10.7031 3.80469 13.914 6.59375 13.914 10C13.914 13.4062 10.7031 16.1953 10.5664 16.3125L9.99998 16.7969L9.43357 16.3125Z" fill="#D80027"/>
<path d="M13.0469 10.0001C13.0469 6.95319 10 4.34773 10 4.34773C10 4.34773 6.95312 6.9571 6.95312 10.0001C6.97495 10.9112 7.20902 11.8046 7.63672 12.6094H12.3633C12.7896 11.8043 13.0223 10.9109 13.043 10.0001H13.0469Z" fill="#338AF3"/>
<path d="M13.0468 10C13.025 10.9111 12.7909 11.8046 12.3633 12.6094L9.99997 13.043L7.63669 12.6094C7.21035 11.8043 6.97762 10.9108 6.957 10H13.0429H13.0468Z" fill="#0052B4"/>
<path d="M10 15.6523C10 15.6523 11.4648 14.3945 12.3633 12.6054H7.63672C8.53516 14.3945 10 15.6523 10 15.6523Z" fill="#FFDA44"/>
<path d="M8.04688 8.26172H11.9531L10 10.2148L8.04688 8.26172Z" fill="#6DA544"/>
<path d="M9.34764 9.56643H10.6523V13.4766H9.34764V9.56643Z" fill="#A2001D"/>
</g>
<defs>
<clipPath id="clip0">
<rect width="20" height="20" fill="white"/>
</clipPath>
</defs>
</svg>
