<svg width="20" height="20" viewBox="0 0 20 20" fill="none" xmlns="http://www.w3.org/2000/svg">
<g clip-path="url(#clip0)">
<path d="M10 -1.31719e-05C9.1188 -0.00181246 8.24129 0.113788 7.39062 0.343737L6.52344 9.99999L7.39062 19.6562C8.87322 20.0546 10.4276 20.1066 11.9335 19.8083C13.4394 19.51 14.8566 18.8695 16.0754 17.9361C17.2942 17.0027 18.2821 15.8015 18.9626 14.4254C19.6431 13.0493 19.9981 11.5352 20 9.99999C20 7.34782 18.9464 4.80428 17.0711 2.92892C15.1957 1.05356 12.6522 -1.31719e-05 10 -1.31719e-05Z" fill="#FFDA44"/>
<path d="M6.52344 10L7.39062 19.6562C8.87322 20.0546 10.4276 20.1066 11.9335 19.8083C13.4394 19.5101 14.8566 18.8695 16.0754 17.9361C17.2942 17.0027 18.2821 15.8015 18.9626 14.4254C19.6431 13.0493 19.9981 11.5352 20 10H6.52344Z" fill="#6DA544"/>
<path d="M-1.89739e-05 10C-1.89739e-05 13.7891 2.10936 17.0898 5.21873 18.7852V1.21094C3.63873 2.07106 2.32 3.34147 1.40154 4.88829C0.48307 6.43511 -0.00112416 8.20105 -1.89739e-05 10Z" fill="#D80027"/>
<path d="M1.84827e-05 10.0001C-0.000573437 12.1981 0.723056 14.3351 2.05899 16.0806C3.39493 17.8261 5.26875 19.0828 7.39064 19.6563V0.343817C5.26875 0.917369 3.39493 2.17406 2.05899 3.91953C0.723056 5.66501 -0.000573437 7.80202 1.84827e-05 10.0001Z" fill="#D80027"/>
<path d="M3.77734 7.39056L4.42578 9.38275H6.52344L4.82812 10.6171L5.47266 12.6093L3.77734 11.3788L2.08203 12.6093L2.73047 10.6171L1.03516 9.38275H3.13281L3.77734 7.39056Z" fill="#333333"/>
</g>
<defs>
<clipPath id="clip0">
<rect width="20" height="20" fill="white"/>
</clipPath>
</defs>
</svg>
