<svg width="20" height="20" viewBox="0 0 20 20" fill="none" xmlns="http://www.w3.org/2000/svg">
<g clip-path="url(#clip0)">
<path d="M10 20C15.5228 20 20 15.5228 20 10C20 4.47715 15.5228 0 10 0C4.47715 0 0 4.47715 0 10C0 15.5228 4.47715 20 10 20Z" fill="#EEEEEE"/>
<path d="M10.0001 -6.44371e-05C8.2948 -0.00209857 6.61757 0.433686 5.12897 1.26556V18.7343C6.46312 19.4781 7.94992 19.9064 9.47529 19.9862C11.0007 20.0661 12.5241 19.7955 13.9286 19.1952C15.3331 18.5949 16.5815 17.6808 17.5779 16.523C18.5743 15.3653 19.2922 13.9947 19.6765 12.5164C20.0609 11.038 20.1015 9.49132 19.7953 7.99488C19.489 6.49844 18.844 5.09204 17.9098 3.8836C16.9755 2.67516 15.7768 1.6968 14.4057 1.02359C13.0346 0.350374 11.5275 0.000200011 10.0001 -6.44371e-05Z" fill="#6DA544"/>
<path d="M5.15628 1.25C4.59373 1.5628 4.06263 1.92907 3.57035 2.34375L11.2266 10L3.57035 17.6562C4.06388 18.0711 4.5963 18.4374 5.16019 18.75L20 10L5.15628 1.25Z" fill="#EEEEEE"/>
<path d="M4.31641 1.77347C4.01114 1.98368 3.71773 2.21058 3.4375 2.45316L10 10L3.4375 17.5469C3.71772 17.7895 4.01113 18.0164 4.31641 18.2266L18.2891 10L4.31641 1.77347Z" fill="#FFDA44"/>
<path d="M3.57031 2.34375C3.34845 2.52976 3.13471 2.72526 2.92969 2.92969L9.12891 10L2.92969 17.0703C3.13467 17.2748 3.34841 17.4703 3.57031 17.6562L11.2266 10L3.57031 2.34375Z" fill="#333333"/>
<path d="M2.92972 2.92969C1.05482 4.80499 0.00154495 7.34821 0.00154495 10C0.00154495 12.6518 1.05482 15.195 2.92972 17.0703L10 10L2.92972 2.92969Z" fill="#D80027"/>
</g>
<defs>
<clipPath id="clip0">
<rect width="20" height="20" fill="white"/>
</clipPath>
</defs>
</svg>
