<svg width="20" height="20" viewBox="0 0 20 20" fill="none" xmlns="http://www.w3.org/2000/svg">
<path d="M10 20C15.5228 20 20 15.5228 20 10C20 4.47715 15.5228 0 10 0C4.47715 0 0 4.47715 0 10C0 15.5228 4.47715 20 10 20Z" fill="#EEEEEE"/>
<path d="M8.51562 6.01562L10 2.73438L11.4844 6.01562L6.01562 11.4844L2.73438 10L6.01562 8.51562L11.4844 13.9844L10 17.2656L8.51562 13.9844L13.9844 8.51562L17.2656 10L13.9844 11.4844L8.51562 6.01562Z" fill="#6DA544"/>
<path d="M9.55078 1.15234C9.55078 2.73438 9.11328 4.21875 8.35156 5.48047L6.4375 3.56641C6.10724 3.23699 5.65982 3.05199 5.19336 3.05199C4.7269 3.05199 4.27948 3.23699 3.94922 3.56641L3.5625 3.94922C3.23308 4.27948 3.04809 4.7269 3.04809 5.19336C3.04809 5.65982 3.23308 6.10724 3.5625 6.4375L5.48047 8.35156C4.17401 9.13826 2.67738 9.55294 1.15234 9.55078V10.4492C2.73438 10.4492 4.21875 10.8867 5.48047 11.6484L3.56641 13.5625C3.23699 13.8928 3.05199 14.3402 3.05199 14.8066C3.05199 15.2731 3.23699 15.7205 3.56641 16.0508L3.94922 16.4375C4.27948 16.7669 4.7269 16.9519 5.19336 16.9519C5.65982 16.9519 6.10724 16.7669 6.4375 16.4375L8.35156 14.5195C9.13826 15.826 9.55294 17.3226 9.55078 18.8477H10.4492C10.4492 17.2656 10.8867 15.7812 11.6484 14.5195L13.5625 16.4336C13.8928 16.763 14.3402 16.948 14.8066 16.948C15.2731 16.948 15.7205 16.763 16.0508 16.4336L16.4375 16.0508C16.7669 15.7205 16.9519 15.2731 16.9519 14.8066C16.9519 14.3402 16.7669 13.8928 16.4375 13.5625L14.5195 11.6484C15.826 10.8617 17.3226 10.4471 18.8477 10.4492V9.55078C17.2656 9.55078 15.7812 9.11328 14.5195 8.35156L16.4336 6.4375C16.763 6.10724 16.948 5.65982 16.948 5.19336C16.948 4.7269 16.763 4.27948 16.4336 3.94922L16.0508 3.5625C15.7205 3.23308 15.2731 3.04809 14.8066 3.04809C14.3402 3.04809 13.8928 3.23308 13.5625 3.5625L11.6484 5.48047C10.8617 4.17401 10.4471 2.67738 10.4492 1.15234H9.55078ZM10 3.60156C10.2387 4.46534 10.6033 5.28927 11.082 6.04688L10 7.12891L8.91797 6.04688C9.39667 5.28927 9.76125 4.46534 10 3.60156ZM5.19531 3.82812C5.4537 3.82973 5.70091 3.93368 5.88281 4.11719L7.91406 6.14062C7.41431 6.81547 6.81657 7.41189 6.14062 7.91016L4.11719 5.88281C4.02542 5.79297 3.9525 5.68571 3.90273 5.56732C3.85295 5.44893 3.82731 5.32179 3.82731 5.19336C3.82731 5.06493 3.85295 4.93779 3.90273 4.8194C3.9525 4.70101 4.02542 4.59375 4.11719 4.50391L4.50391 4.11328C4.59476 4.02265 4.70259 3.95082 4.82123 3.90189C4.93987 3.85296 5.06698 3.8279 5.19531 3.82812ZM14.8047 3.82812C15.0547 3.82812 15.3047 3.92188 15.4961 4.11719L15.8867 4.50391C15.9785 4.59375 16.0514 4.70101 16.1012 4.8194C16.151 4.93779 16.1766 5.06493 16.1766 5.19336C16.1766 5.32179 16.151 5.44893 16.1012 5.56732C16.0514 5.68571 15.9785 5.79297 15.8867 5.88281L13.8555 7.91406C13.1823 7.4152 12.5872 6.81881 12.0898 6.14453L14.1172 4.11328C14.2997 3.9312 14.5469 3.8287 14.8047 3.82812ZM8.46484 6.69922L9.44922 7.67969L7.67969 9.44922L6.69531 8.46484C7.36262 7.95792 7.95792 7.36262 8.46484 6.69531V6.69922ZM11.5352 6.69922C12.0412 7.36489 12.6351 7.95884 13.3008 8.46484L12.3203 9.44922L10.5508 7.67969L11.5352 6.69922ZM10 8.22656L11.7695 9.99609L10 11.7656L8.23047 9.99609L10 8.22656ZM6.04688 8.91406L7.12891 9.99609L6.04688 11.0781C5.28904 10.6008 4.46512 10.2375 3.60156 10C4.46534 9.76125 5.28927 9.39667 6.04688 8.91797V8.91406ZM13.9531 8.91406C14.7107 9.39276 15.5347 9.75734 16.3984 9.99609C15.5347 10.2348 14.7107 10.5994 13.9531 11.0781L12.8711 10L13.9531 8.91797V8.91406ZM7.67969 10.5469L9.44922 12.3164L8.46484 13.2969C7.95764 12.6309 7.36236 12.037 6.69531 11.5312L7.67969 10.5469ZM12.3203 10.5469L13.3008 11.5312C12.6349 12.0385 12.0409 12.6337 11.5352 13.3008L10.5508 12.3164L12.3203 10.5469ZM6.14453 12.0859C6.81771 12.5848 7.41278 13.1812 7.91016 13.8555L5.88281 15.8789C5.79297 15.9707 5.68571 16.0436 5.56732 16.0934C5.44893 16.1431 5.32179 16.1688 5.19336 16.1688C5.06493 16.1688 4.93779 16.1431 4.8194 16.0934C4.70101 16.0436 4.59375 15.9707 4.50391 15.8789L4.11328 15.4922C4.02151 15.4023 3.9486 15.2951 3.89882 15.1767C3.84904 15.0583 3.8234 14.9312 3.8234 14.8027C3.8234 14.6743 3.84904 14.5472 3.89882 14.4288C3.9486 14.3104 4.02151 14.2031 4.11328 14.1133L6.14453 12.0859ZM13.8555 12.0859L15.8867 14.1133C15.9785 14.2031 16.0514 14.3104 16.1012 14.4288C16.151 14.5472 16.1766 14.6743 16.1766 14.8027C16.1766 14.9312 16.151 15.0583 16.1012 15.1767C16.0514 15.2951 15.9785 15.4023 15.8867 15.4922L15.4961 15.8828C15.4062 15.9746 15.299 16.0475 15.1806 16.0973C15.0622 16.1471 14.9351 16.1727 14.8066 16.1727C14.6782 16.1727 14.5511 16.1471 14.4327 16.0973C14.3143 16.0475 14.207 15.9746 14.1172 15.8828L12.0859 13.8516C12.586 13.1781 13.1837 12.583 13.8594 12.0859H13.8555ZM10 12.8672L11.082 13.9492C10.6033 14.7068 10.2387 15.5308 10 16.3945C9.76125 15.5308 9.39667 14.7068 8.91797 13.9492L10 12.8672Z" fill="#333333"/>
</svg>
