<svg width="20" height="20" viewBox="0 0 20 20" fill="none" xmlns="http://www.w3.org/2000/svg">
<path d="M10 20C15.5228 20 20 15.5228 20 10C20 4.47715 15.5228 0 10 0C4.47715 0 0 4.47715 0 10C0 15.5228 4.47715 20 10 20Z" fill="#D80027"/>
<path d="M11.0312 7.56645C10.8047 8.51176 10.4023 8.33207 10.2031 9.15629C9.65222 9.0122 9.17976 8.65788 8.88715 8.16937C8.59454 7.68086 8.5051 7.09711 8.63803 6.54341C8.77096 5.98971 9.11566 5.51018 9.59816 5.20776C10.0806 4.90533 10.6625 4.80411 11.2187 4.92582C10.8242 6.57426 11.2344 6.7227 11.0312 7.56645ZM8.00781 8.26567C8.83594 8.77348 8.53906 9.10161 9.26172 9.54692C8.94984 10.0159 8.46825 10.3457 7.91822 10.4669C7.36819 10.5882 6.79259 10.4914 6.31246 10.1969C5.83233 9.90245 5.48509 9.43329 5.34376 8.88807C5.20244 8.34286 5.27805 7.76409 5.55469 7.27348C7 8.1602 7.26562 7.81254 8.00781 8.26567ZM7.73437 11.3633C8.47656 10.7305 8.69922 11.1133 9.34375 10.5665C9.68884 11.0085 9.8499 11.5668 9.79333 12.1248C9.73676 12.6827 9.46692 13.1973 9.04011 13.5611C8.61331 13.9249 8.06251 14.1099 7.50262 14.0774C6.94274 14.0449 6.41702 13.7975 6.03515 13.3868C7.32422 12.2852 7.07422 11.9258 7.73828 11.3633H7.73437ZM10.6016 12.5743C10.2266 11.6758 10.6602 11.586 10.3359 10.8047C10.8622 10.6151 11.4412 10.6354 11.9529 10.8615C12.4645 11.0875 12.8695 11.502 13.0836 12.0187C13.2978 12.5355 13.3047 13.1148 13.1029 13.6365C12.9011 14.1582 12.5061 14.5822 12 14.8204C11.3516 13.2579 10.9336 13.379 10.6016 12.5782V12.5743ZM12.6406 10.2305C11.668 10.3086 11.7148 9.86723 10.8711 9.93364C10.8454 9.36949 11.0401 8.81745 11.4139 8.3942C11.7878 7.97095 12.3116 7.70965 12.8746 7.66552C13.4376 7.62139 13.9957 7.7979 14.431 8.15773C14.8662 8.51756 15.1445 9.03253 15.207 9.59379C13.5156 9.72661 13.5039 10.1602 12.6406 10.2305Z" fill="#EEEEEE"/>
</svg>
