<svg width="20" height="20" viewBox="0 0 20 20" fill="none" xmlns="http://www.w3.org/2000/svg">
<path d="M10 20C15.5228 20 20 15.5228 20 10C20 4.47715 15.5228 0 10 0C4.47715 0 0 4.47715 0 10C0 15.5228 4.47715 20 10 20Z" fill="#D80027"/>
<path d="M10 18.2031C12.3947 18.2031 14.3359 16.2619 14.3359 13.8672C14.3359 11.4725 12.3947 9.53125 10 9.53125C7.60533 9.53125 5.66406 11.4725 5.66406 13.8672C5.66406 16.2619 7.60533 18.2031 10 18.2031Z" fill="#FFDA44"/>
<path d="M11.082 1.64062L10 2.26562L8.91797 1.64062V2.89062L7.83594 3.51562L8.91797 4.14062V5.39062L10 4.76562L11.082 5.39062V4.14062L12.1641 3.51562L11.082 2.89062V1.64062ZM3.99609 2.01562C3.83613 2.13591 3.67981 2.26096 3.52734 2.39062L3.67188 2.69531L2.77344 3.63281L2.85156 3.02344C2.18931 3.69961 1.6264 4.46637 1.17969 5.30078L1.32812 5.50781L0.84375 5.99219C0.704445 6.3111 0.581882 6.63706 0.476562 6.96875L2.10938 7.42188L1.36719 6.71875L2.30469 6.05469L3.24219 6.71875L2.5 7.42188L4.60938 6.83594L3.28125 5.50781L3.78906 4.80469L4.25781 5.82031L4.45312 4.76562L3.90625 4.10156L4.375 2.8125L3.99609 2.01562ZM16.0039 2.01562L15.625 2.8125L16.0938 4.10156L15.5469 4.76562L15.7422 5.82031L16.2109 4.80469L16.7188 5.50781L15.3906 6.83594L17.5 7.42188L16.7578 6.71875L17.6953 6.05469L18.6328 6.71875L17.8906 7.42188L19.5156 6.96875C19.4083 6.63162 19.2831 6.30043 19.1406 5.97656L18.6719 5.50781L18.8203 5.30469C18.3752 4.4634 17.8122 3.68997 17.1484 3.00781L17.2266 3.63281L16.3281 2.69531L16.4727 2.38281C16.32 2.25711 16.1637 2.13596 16.0039 2.01953V2.01562ZM1.60156 12.5781L0.625 13.3203L0.597656 13.3789C1.30423 15.3502 2.61179 17.0499 4.33594 18.2383L4.60938 18.1641L3.28125 16.8359L4.375 14.1406L3.98438 13.3203L3.00781 12.5781L3.67188 14.0234L2.77344 14.9609L2.89062 14.0234L2.30469 13.0469L1.71875 14.0234L1.83594 14.9609L0.9375 14.0234L1.60156 12.5781ZM16.9922 12.5781L16.0156 13.3203L15.625 14.1406L16.7188 16.8359L15.3906 18.1641L15.6523 18.2383C17.3815 17.0506 18.6934 15.3493 19.4023 13.375L19.375 13.3203L18.3984 12.5781L19.0625 14.0234L18.1641 14.9609L18.2812 14.0234L17.6953 13.0469L17.1094 14.0234L17.2266 14.9609L16.3281 14.0234L16.9922 12.5781Z" fill="#FFDA44"/>
</svg>
