<svg width="20" height="20" viewBox="0 0 20 20" fill="none" xmlns="http://www.w3.org/2000/svg">
<g clip-path="url(#clip0)">
<path d="M10 20C15.5228 20 20 15.5228 20 10C20 4.47715 15.5228 0 10 0C4.47715 0 0 4.47715 0 10C0 15.5228 4.47715 20 10 20Z" fill="#EEEEEE"/>
<path d="M9.99998 20C11.8811 20.0004 13.7242 19.4703 15.3175 18.4705C16.9109 17.4706 18.19 16.0417 19.0078 14.3476H0.992172C1.81001 16.0417 3.08906 17.4706 4.68244 18.4705C6.27582 19.4703 8.11889 20.0004 9.99998 20ZM9.99998 -6.87019e-06C8.11889 -0.000453807 6.27582 0.529683 4.68244 1.52952C3.08906 2.52935 1.81001 3.95833 0.992172 5.65234H19.0078C18.19 3.95833 16.9109 2.52935 15.3175 1.52952C13.7242 0.529683 11.8811 -0.000453807 9.99998 -6.87019e-06ZM6.15233 6.52343L6.47655 7.51952H7.52733L6.67967 8.13281L6.99998 9.1289L6.15233 8.51562L5.30467 9.1289L5.62889 8.13281L4.78123 7.51952H5.83202L6.15233 6.52343ZM6.15233 10.8711L6.47655 11.8672H7.52733L6.67967 12.4805L6.99998 13.4766L6.15233 12.8633L5.30467 13.4766L5.62889 12.4805L4.78123 11.8672H5.83202L6.15233 10.8711ZM13.8476 6.52343L14.168 7.51952H15.2187L14.3711 8.13281L14.6953 9.1289L13.8476 8.51562L13 9.1289L13.3203 8.13281L12.4726 7.51952H13.5234L13.8476 6.52343ZM13.8476 10.8711L14.168 11.8672H15.2187L14.3711 12.4805L14.6953 13.4766L13.8476 12.8633L13 13.4766L13.3203 12.4805L12.4726 11.8672H13.5234L13.8476 10.8711ZM9.99998 8.69531L10.3242 9.6914H11.3672L10.5234 10.3125L10.8476 11.3086L9.99998 10.6914L9.15233 11.3086L9.47655 10.3125L8.62889 9.69531H9.67577L9.99998 8.69531Z" fill="#338AF3"/>
</g>
<defs>
<clipPath id="clip0">
<rect width="20" height="20" fill="white"/>
</clipPath>
</defs>
</svg>
