<svg width="20" height="20" viewBox="0 0 20 20" fill="none" xmlns="http://www.w3.org/2000/svg">
<g clip-path="url(#clip0)">
<path d="M20 10.0001C20 8.77741 19.7813 7.60554 19.375 6.52351L10 6.08601L0.625021 6.52351C-0.208422 8.76629 -0.208422 11.2338 0.625021 13.4766L10 13.9141L19.375 13.4766C19.7813 12.3946 20 11.2227 20 10.0001Z" fill="#EEEEEE"/>
<path d="M10 20C12.0417 19.9998 14.0345 19.3745 15.7104 18.2084C17.3864 17.0422 18.6652 15.3909 19.375 13.4766H0.625C1.33483 15.3909 2.61364 17.0422 4.28957 18.2084C5.96551 19.3745 7.95826 19.9998 10 20Z" fill="#0052B4"/>
<path d="M0.625 6.52336H19.375C18.6646 4.60959 17.3856 2.95906 15.7097 1.7935C14.0338 0.62795 12.0414 0.00320911 10 0.00320911C7.95865 0.00320911 5.96619 0.62795 4.29029 1.7935C2.6144 2.95906 1.33536 4.60959 0.625 6.52336Z" fill="#D80027"/>
<path d="M12.6094 6.95306H10.8711L11.1602 4.78118L12.3203 3.91399L13.4766 4.78118V6.52337L12.6094 6.95306ZM7.39062 6.95306H9.12891L8.83984 4.78118L7.67969 3.91399L6.52344 4.78118V6.52337L7.39062 6.95306Z" fill="#338AF3"/>
<path d="M11.1601 6.95306H8.8398V4.78118L9.99995 3.91399L11.1601 4.78118V6.95306Z" fill="#0052B4"/>
<path d="M6.52344 6.52344V11.3047C6.52374 11.8457 6.65031 12.3792 6.89309 12.8627C7.13586 13.3463 7.48813 13.7664 7.92188 14.0898L8.52734 13.9375L9.29688 14.7109C9.52826 14.7582 9.76385 14.7817 10 14.7813C10.2348 14.7815 10.4691 14.7579 10.6992 14.7109L11.5742 13.9805L12.082 14.0898C12.5151 13.766 12.8666 13.3457 13.1087 12.8622C13.3507 12.3787 13.4767 11.8454 13.4766 11.3047V6.52344H6.52344Z" fill="#EEEEEE"/>
<path d="M6.52344 6.52344H7.91406V7.91406H6.52344V6.52344ZM9.30469 6.52344H10.6953V7.91406H9.30469V6.52344ZM12.0859 6.52344H13.4766V7.91406H12.0859V6.52344ZM7.91406 7.91406H9.30469V9.30469H7.91406V7.91406ZM10.6953 7.91406H12.0859V9.30469H10.6953V7.91406ZM6.52344 9.30469H7.91406V10.6953H6.52344V9.30469ZM7.91406 10.6953H9.30469V12.0859H7.91406V10.6953ZM9.30469 9.30469H10.6953V10.6953H9.30469V9.30469ZM12.0859 9.30469H13.4766V10.6953H12.0859V9.30469ZM10.6953 10.6953H12.0859V12.0859H10.6953V10.6953ZM9.30469 12.0859H10.6953V13.4766H9.30469V12.0859ZM7.91406 12.0859H6.61328C6.73047 12.6055 6.96484 13.0781 7.28906 13.4766H7.91406V12.0859ZM12.0859 13.4766H12.7109C13.038 13.0698 13.269 12.5944 13.3867 12.0859H12.0859V13.4766ZM7.91406 13.4766V14.0859C8.32545 14.3949 8.80049 14.6084 9.30469 14.7109V13.4766H7.91406ZM10.6953 13.4766V14.7109C11.1995 14.6084 11.6745 14.3949 12.0859 14.0859V13.4766H10.6953Z" fill="#D80027"/>
</g>
<defs>
<clipPath id="clip0">
<rect width="20" height="20" fill="white"/>
</clipPath>
</defs>
</svg>
