<svg width="20" height="20" viewBox="0 0 20 20" fill="none" xmlns="http://www.w3.org/2000/svg">
<path d="M20 10C20 12.6522 18.9464 15.1957 17.0711 17.0711C15.1957 18.9464 12.6522 20 10 20C7.34784 20 4.8043 18.9464 2.92893 17.0711C1.05357 15.1957 0 12.6522 0 10C0 4.47656 10 0 10 0C10 0 20 4.47656 20 10Z" fill="#A2001D"/>
<path d="M0 10C0 7.34784 1.05357 4.8043 2.92893 2.92893C4.8043 1.05357 7.34784 0 10 0C12.6522 0 15.1957 1.05357 17.0711 2.92893C18.9464 4.8043 20 7.34784 20 10" fill="#0052B4"/>
<path d="M13.4766 12.6094L10 12.1758L6.52344 12.6055V7.3946H13.4766V12.6094Z" fill="#EEEEEE"/>
<path d="M10 12.1718C10.96 12.1718 11.7383 11.3936 11.7383 10.4336C11.7383 9.47354 10.96 8.69529 10 8.69529C9.03997 8.69529 8.26172 9.47354 8.26172 10.4336C8.26172 11.3936 9.03997 12.1718 10 12.1718Z" fill="#0052B4"/>
<path d="M10 11.3048C10.4811 11.3048 10.8711 10.9148 10.8711 10.4337C10.8711 9.95257 10.4811 9.56257 10 9.56257C9.51894 9.56257 9.12894 9.95257 9.12894 10.4337C9.12894 10.9148 9.51894 11.3048 10 11.3048Z" fill="#A2001D"/>
<path d="M8.69531 8.26172H11.3047L10 9.56641L8.69531 8.26172Z" fill="#6DA544"/>
<path d="M9.56641 9.12884H10.4297V11.7382H9.57031L9.56641 9.12884Z" fill="#FFDA44"/>
<path d="M11.3906 11.4766H8.60937L6.52344 12.6094H13.4766L11.3906 11.4766Z" fill="#6DA544"/>
</svg>
