<svg width="20" height="20" viewBox="0 0 20 20" fill="none" xmlns="http://www.w3.org/2000/svg">
<path d="M10 20C15.5228 20 20 15.5228 20 10C20 4.47715 15.5228 0 10 0C4.47715 0 0 4.47715 0 10C0 15.5228 4.47715 20 10 20Z" fill="#EEEEEE"/>
<path d="M13.7655 7.82415H11.2499L9.99991 5.65228L8.746 7.82415H6.23428L7.48819 9.99993L6.23819 12.1757H8.746L9.99991 14.3476L11.2538 12.1757H13.7655L12.5116 9.99993L13.7616 7.82415H13.7655ZM11.539 9.99993L10.7694 11.3359H9.23038L8.45694 9.99993L9.23038 8.664H10.7694L11.5429 9.99993H11.539ZM9.99991 7.32806L10.2851 7.82415H9.71475L9.99991 7.32806ZM7.68741 8.664H8.26163L7.97256 9.16009L7.68741 8.664ZM7.68741 11.3359L7.97256 10.8398L8.26163 11.3359H7.68741ZM9.99991 12.6718L9.71475 12.1757H10.2851L9.99991 12.6718ZM12.3124 11.3359H11.7382L12.0273 10.8398L12.3124 11.3359ZM11.7382 8.664H12.3124L12.0273 9.16009L11.7382 8.664ZM16.2265 2.17572H3.77335C2.85952 2.90365 2.07962 3.78535 1.46866 4.78118H18.5312C17.9202 3.78535 17.1403 2.90365 16.2265 2.17572ZM3.77335 17.8242H16.2265C17.1403 17.0962 17.9202 16.2145 18.5312 15.2187H1.46866C2.07962 16.2145 2.85952 17.0962 3.77335 17.8242Z" fill="#0052B4"/>
</svg>
