<svg width="20" height="20" viewBox="0 0 20 20" fill="none" xmlns="http://www.w3.org/2000/svg">
<path d="M10 20C15.5228 20 20 15.5228 20 10C20 4.47715 15.5228 0 10 0C4.47715 0 0 4.47715 0 10C0 15.5228 4.47715 20 10 20Z" fill="#D80027"/>
<path d="M13.7032 6.70306L12.9962 9.22649L10.8751 8.83587L9.5079 6.02337L5.8204 7.32806L5.53134 6.50774L4.5665 6.39056L5.29306 8.44134L7.83212 7.78899L8.55087 9.82024L6.79697 12.4101L9.77744 14.9492L9.21103 15.6132L9.58994 16.5077L11.0001 14.8554L9.17197 12.9804L10.5704 11.3398L13.6876 11.5663L14.3985 7.71477L15.2579 7.87102L15.8438 7.09759L13.7032 6.70696V6.70306Z" fill="#EEEEEE"/>
</svg>
