<svg width="20" height="20" viewBox="0 0 20 20" fill="none" xmlns="http://www.w3.org/2000/svg">
<g clip-path="url(#clip0)">
<path d="M10 20C15.5228 20 20 15.5228 20 10C20 4.47715 15.5228 0 10 0C4.47715 0 0 4.47715 0 10C0 15.5228 4.47715 20 10 20Z" fill="#EEEEEE"/>
<path d="M10 -7.34703e-06C8.11891 -0.000454284 6.27583 0.529683 4.68246 1.52952C3.08908 2.52935 1.81002 3.95833 0.992188 5.65234H19.0078C18.19 3.95833 16.9109 2.52935 15.3175 1.52952C13.7242 0.529683 11.8811 -0.000454284 10 -7.34703e-06Z" fill="#FF9811"/>
<path d="M10 20.0001C11.8811 20.0005 13.7242 19.4704 15.3175 18.4705C16.9109 17.4707 18.19 16.0417 19.0078 14.3477H0.992188C1.81002 16.0417 3.08908 17.4707 4.68246 18.4705C6.27583 19.4704 8.11891 20.0005 10 20.0001Z" fill="#6DA544"/>
<path d="M10 13.4766C11.9201 13.4766 13.4766 11.9201 13.4766 10C13.4766 8.07995 11.9201 6.52344 10 6.52344C8.07995 6.52344 6.52344 8.07995 6.52344 10C6.52344 11.9201 8.07995 13.4766 10 13.4766Z" fill="#0052B4"/>
<path d="M10 12.1758C11.2017 12.1758 12.1758 11.2017 12.1758 10.0001C12.1758 8.79842 11.2017 7.82429 10 7.82429C8.79835 7.82429 7.82422 8.79842 7.82422 10.0001C7.82422 11.2017 8.79835 12.1758 10 12.1758Z" fill="#EEEEEE"/>
<path d="M10 7.31647L10.6719 8.83991L12.3242 8.66022L11.3398 10.0001L12.3242 11.3399L10.6719 11.1602L10 12.6837L9.32813 11.1602L7.67578 11.3399L8.66016 10.0001L7.67578 8.66022L9.32813 8.83991L10 7.31647Z" fill="#0052B4"/>
</g>
<defs>
<clipPath id="clip0">
<rect width="20" height="20" fill="white"/>
</clipPath>
</defs>
</svg>
