<svg width="20" height="20" viewBox="0 0 20 20" fill="none" xmlns="http://www.w3.org/2000/svg">
<path d="M10 20C15.5228 20 20 15.5228 20 10C20 4.47715 15.5228 0 10 0C4.47715 0 0 4.47715 0 10C0 15.5228 4.47715 20 10 20Z" fill="#EEEEEE"/>
<path d="M10 0V1.21094C10.8359 1.21094 10.8438 1.99219 11.6797 1.99219C12.5117 1.99219 12.5234 1.21094 13.3594 1.21094C14.1953 1.21094 14.2031 1.99219 15.0391 1.99219C15.2717 1.9973 15.4987 1.9198 15.6797 1.77344C14.7027 1.10236 13.6141 0.610333 12.4648 0.320312C12.2695 0.5 12.0625 0.664062 11.6797 0.664062C11.0742 0.664062 10.9023 0.253906 10.5352 0.0273438C10.357 0.0134505 10.1786 0.00433266 10 0V0ZM10 2.53906V3.86719C10.8359 3.86719 10.8438 4.64844 11.6797 4.64844C12.5117 4.64844 12.5234 3.86719 13.3594 3.86719C14.1953 3.86719 14.2031 4.64844 15.0391 4.64844C15.8711 4.64844 15.8828 3.86719 16.7188 3.86719C17.5547 3.86719 17.5625 4.64844 18.3984 4.64844H18.4414C17.9432 3.86533 17.3385 3.15539 16.6445 2.53906C15.8828 2.58594 15.8438 3.32031 15.0391 3.32031C14.2031 3.32031 14.1953 2.53906 13.3594 2.53906C12.5234 2.53906 12.5117 3.32031 11.6797 3.32031C10.8438 3.32031 10.8359 2.53906 10 2.53906ZM7.07031 5.19531L10 8.16406V9.17969C10.8359 9.17969 10.8438 9.96094 11.6797 9.96094C12.5117 9.96094 12.5234 9.17969 13.3594 9.17969C14.1953 9.17969 14.2031 9.96094 15.0391 9.96094C15.8711 9.96094 15.8828 9.17969 16.7188 9.17969C17.5547 9.17969 17.5625 9.96094 18.3984 9.96094C19.1875 9.96094 19.2422 9.25781 19.9609 9.18359C19.9239 8.75012 19.8587 8.31951 19.7656 7.89453C19.2227 8.0625 19.1094 8.63281 18.3984 8.63281C17.5625 8.63281 17.5547 7.85156 16.7188 7.85156C15.8828 7.85156 15.8711 8.63281 15.0391 8.63281C14.2031 8.63281 14.1953 7.85156 13.3594 7.85156C12.5234 7.85156 12.5117 8.63281 11.6797 8.63281C10.8438 8.63281 10.8359 7.85156 10 7.85156V6.52344C10.8359 6.52344 10.8438 7.30469 11.6797 7.30469C12.5117 7.30469 12.5234 6.52344 13.3594 6.52344C14.1953 6.52344 14.2031 7.30469 15.0391 7.30469C15.8711 7.30469 15.8828 6.52344 16.7188 6.52344C17.5547 6.52344 17.5625 7.30469 18.3984 7.30469C18.9453 7.30469 19.1367 6.96875 19.4414 6.73828C19.3261 6.40333 19.1931 6.07474 19.043 5.75391C18.8615 5.90255 18.6329 5.98151 18.3984 5.97656C17.5625 5.97656 17.5547 5.19531 16.7188 5.19531C15.8828 5.19531 15.8711 5.97656 15.0391 5.97656C14.2031 5.97656 14.1953 5.19531 13.3594 5.19531C12.5234 5.19531 12.5117 5.97656 11.6797 5.97656C10.8438 5.97656 10.8359 5.19531 10 5.19531H7.07031ZM5.23438 7.07031V10H8.16406L5.23438 7.07031ZM3.28125 10.5078C2.44531 10.5078 2.43359 11.2891 1.60156 11.2891C0.800781 11.2891 0.757812 10.5703 0.0195312 10.5117C0.0432738 10.9668 0.098089 11.4196 0.183594 11.8672C0.769531 12.0078 0.859375 12.6172 1.60156 12.6172C2.43359 12.6172 2.44531 11.8359 3.28125 11.8359C4.11719 11.8359 4.125 12.6172 4.96094 12.6172C5.79297 12.6172 5.80469 11.8359 6.64062 11.8359C7.47656 11.8359 7.48438 12.6172 8.32031 12.6172C9.15234 12.6172 9.16406 11.8359 10 11.8359C10.8359 11.8359 10.8438 12.6172 11.6797 12.6172C12.5117 12.6172 12.5234 11.8359 13.3594 11.8359C14.1953 11.8359 14.2031 12.6172 15.0391 12.6172C15.8711 12.6172 15.8828 11.8359 16.7188 11.8359C17.5547 11.8359 17.5625 12.6172 18.3984 12.6172C19.1328 12.6172 19.2305 12.0078 19.8203 11.8633C19.903 11.4168 19.9552 10.9653 19.9766 10.5117C19.2422 10.5742 19.1953 11.2891 18.3984 11.2891C17.5625 11.2891 17.5547 10.5078 16.7188 10.5078C15.8828 10.5078 15.8711 11.2891 15.0391 11.2891C14.2031 11.2891 14.1953 10.5078 13.3594 10.5078C12.5234 10.5078 12.5117 11.2891 11.6797 11.2891C10.8438 11.2891 10.8359 10.5078 10 10.5078C9.16406 10.5078 9.15234 11.2891 8.32031 11.2891C7.48438 11.2891 7.47656 10.5078 6.64062 10.5078C5.80469 10.5078 5.79297 11.2891 4.96094 11.2891C4.125 11.2891 4.11719 10.5078 3.28125 10.5078ZM3.28125 13.1641C2.44531 13.1641 2.43359 13.9453 1.60156 13.9453C1.08984 13.9453 0.886719 13.6484 0.613281 13.4219C0.848531 14.067 1.1496 14.6861 1.51172 15.2695L1.60156 15.2734C2.43359 15.2734 2.44531 14.4922 3.28125 14.4922C4.11719 14.4922 4.125 15.2734 4.96094 15.2734C5.79297 15.2734 5.80469 14.4922 6.64062 14.4922C7.47656 14.4922 7.48438 15.2734 8.32031 15.2734C9.15234 15.2734 9.16406 14.4922 10 14.4922C10.8359 14.4922 10.8438 15.2734 11.6797 15.2734C12.5117 15.2734 12.5234 14.4922 13.3594 14.4922C14.1953 14.4922 14.2031 15.2734 15.0391 15.2734C15.8711 15.2734 15.8828 14.4922 16.7188 14.4922C17.5547 14.4922 17.5625 15.2734 18.3984 15.2734H18.4844C18.8465 14.69 19.1476 14.0709 19.3828 13.4258C19.1094 13.6523 18.9062 13.9453 18.3984 13.9453C17.5625 13.9453 17.5547 13.1641 16.7188 13.1641C15.8828 13.1641 15.8711 13.9453 15.0391 13.9453C14.2031 13.9453 14.1953 13.1641 13.3594 13.1641C12.5234 13.1641 12.5117 13.9453 11.6797 13.9453C10.8438 13.9453 10.8359 13.1641 10 13.1641C9.16406 13.1641 9.15234 13.9453 8.32031 13.9453C7.48438 13.9453 7.47656 13.1641 6.64062 13.1641C5.80469 13.1641 5.79297 13.9453 4.96094 13.9453C4.125 13.9453 4.11719 13.1641 3.28125 13.1641ZM3.28125 15.8203C2.76172 15.8203 2.5625 16.1211 2.28516 16.3516C2.52355 16.639 2.77785 16.9129 3.04688 17.1719C3.11719 17.1562 3.19531 17.1484 3.28125 17.1484C4.11719 17.1484 4.125 17.9297 4.96094 17.9297C5.79297 17.9297 5.80469 17.1484 6.64062 17.1484C7.47656 17.1484 7.48438 17.9297 8.32031 17.9297C9.15234 17.9297 9.16406 17.1484 10 17.1484C10.8359 17.1484 10.8438 17.9297 11.6797 17.9297C12.5117 17.9297 12.5234 17.1484 13.3594 17.1484C14.1953 17.1484 14.2031 17.9297 15.0391 17.9297C15.8711 17.9297 15.8828 17.1484 16.7188 17.1484C16.8086 17.1484 16.8906 17.1562 16.9648 17.1758C17.2313 16.9153 17.483 16.6401 17.7188 16.3516C17.4375 16.1211 17.2383 15.8203 16.7188 15.8203C15.8828 15.8203 15.8711 16.6016 15.0391 16.6016C14.2031 16.6016 14.1953 15.8203 13.3594 15.8203C12.5234 15.8203 12.5117 16.6016 11.6797 16.6016C10.8438 16.6016 10.8359 15.8203 10 15.8203C9.16406 15.8203 9.15234 16.6016 8.32031 16.6016C7.48438 16.6016 7.47656 15.8203 6.64062 15.8203C5.80469 15.8203 5.79297 16.6016 4.96094 16.6016C4.125 16.6016 4.11719 15.8203 3.28125 15.8203ZM6.64062 18.4766C6.13281 18.4766 5.92578 18.7656 5.65625 18.9922C6.83783 19.5621 8.12 19.8939 9.42969 19.9688C9.59817 19.8562 9.79748 19.7989 10 19.8047C10.2078 19.7999 10.4117 19.8614 10.582 19.9805C11.8883 19.9016 13.1663 19.5672 14.3438 18.9961C14.0703 18.7695 13.8711 18.4766 13.3594 18.4766C12.5234 18.4766 12.5117 19.2578 11.6797 19.2578C10.8438 19.2578 10.8359 18.4766 10 18.4766C9.16406 18.4766 9.15234 19.2578 8.32031 19.2578C7.48438 19.2578 7.47656 18.4766 6.64062 18.4766Z" fill="#0052B4"/>
<path d="M13.0469 5.23438H16.9531L15 7.1875L13.0469 5.23438Z" fill="#6DA544"/>
<path d="M14.5703 6.75781H15.4297V9.14062H14.5703V6.75781ZM14.5703 13.0469H15.4297V15.4297H14.5703V13.0469Z" fill="#A2001D"/>
<path d="M17.6172 11.7578C17.6152 11.5053 17.5406 11.2587 17.4024 11.0474C17.2641 10.8361 17.068 10.6691 16.8374 10.5661C16.6069 10.4632 16.3516 10.4287 16.102 10.4669C15.8524 10.505 15.619 10.6142 15.4297 10.7812V10H15.8594V9.14062H15.4297V8.71094H14.5703V9.14062H14.1406V10H14.5703V10.7812C14.0312 10.3281 13.2031 10.375 12.7344 10.8984C12.2656 11.4219 12.3047 12.2109 12.8125 12.6953V13.4766H17.1875V12.6953C17.4609 12.4492 17.6172 12.1289 17.6172 11.7578Z" fill="#FFDA44"/>
<path d="M5.11328 1.28906C3.51304 2.18516 2.19007 3.50408 1.28906 5.10156V10H3.90625V3.90625H10V1.28906H5.11328ZM5.23438 5.19531L10 10V8.78906L6.44531 5.19531H5.23438ZM13.7227 11.3047C13.6615 11.3025 13.6007 11.314 13.5446 11.3383C13.4885 11.3626 13.4386 11.3992 13.3984 11.4453C13.2422 11.6172 13.2344 11.9062 13.3984 12.0703L13.7109 12.3047V12.6172H16.25V12.3047L16.5625 12.0703C16.7266 11.9062 16.7188 11.6172 16.5625 11.4453C16.4062 11.2734 16.1562 11.2617 15.9766 11.4062L15.3906 11.9531H14.5703L13.9844 11.4062C13.9104 11.3451 13.8186 11.3094 13.7227 11.3047Z" fill="#D80027"/>
<path d="M9.97266 10.0001H10V9.97272L9.97266 10.0001Z" fill="#EEEEEE"/>
</svg>
