<svg width="20" height="20" viewBox="0 0 20 20" fill="none" xmlns="http://www.w3.org/2000/svg">
<g clip-path="url(#clip0)">
<path d="M10 20C15.5228 20 20 15.5228 20 10C20 4.47715 15.5228 0 10 0C4.47715 0 0 4.47715 0 10C0 15.5228 4.47715 20 10 20Z" fill="#EEEEEE"/>
<path d="M10 0C7.95826 0.000249226 5.96551 0.625473 4.28957 1.79165C2.61364 2.95782 1.33483 4.60905 0.625 6.52344H19.375C18.6652 4.60905 17.3864 2.95782 15.7104 1.79165C14.0345 0.625473 12.0417 0.000249226 10 0V0Z" fill="#A2001D"/>
<path d="M10 20C12.0417 19.9998 14.0345 19.3745 15.7104 18.2084C17.3864 17.0422 18.6652 15.3909 19.375 13.4766H0.625C1.33483 15.3909 2.61364 17.0422 4.28957 18.2084C5.96551 19.3745 7.95826 19.9998 10 20Z" fill="#333333"/>
<path d="M7.60938 9.34759H5.67969C5.72816 9.16073 5.83734 8.99527 5.99006 8.8772C6.14278 8.75912 6.33039 8.69512 6.52344 8.69525V7.39056C5.32422 7.39056 4.34766 8.36712 4.34766 9.56634V10.6523H7.60938C7.66671 10.6533 7.72135 10.6768 7.76154 10.7177C7.80172 10.7586 7.82423 10.8137 7.82422 10.871V11.3007H3.47656V12.6093H9.12891V10.871C9.12891 10.467 8.9684 10.0795 8.6827 9.7938C8.397 9.5081 8.00951 9.34759 7.60547 9.34759H7.60938ZM10.8711 11.3007V7.39446H9.56641V12.6093H11.7383V11.3046L10.8711 11.3007ZM15.2188 11.3007V7.39446H13.9141V11.3007H13.4766V9.99993H12.1758V12.6093H16.0859V11.3046L15.2188 11.3007Z" fill="#496E2D"/>
</g>
<defs>
<clipPath id="clip0">
<rect width="20" height="20" fill="white"/>
</clipPath>
</defs>
</svg>
