<svg width="20" height="20" viewBox="0 0 20 20" fill="none" xmlns="http://www.w3.org/2000/svg">
<g clip-path="url(#clip0)">
<path d="M10 20C15.5228 20 20 15.5228 20 10C20 4.47715 15.5228 0 10 0C4.47715 0 0 4.47715 0 10C0 15.5228 4.47715 20 10 20Z" fill="#EEEEEE"/>
<path d="M13.2461 7.39056H11.9414C11.9493 7.53509 11.9571 7.67962 11.9571 7.82415C11.9571 8.7929 11.7149 9.7304 11.293 10.3984C11.1641 10.6054 10.9414 10.8945 10.6524 11.0898V7.39056H9.34769V11.0937C9.05472 10.8984 8.83987 10.6093 8.70706 10.4023C8.28519 9.73821 8.043 8.80071 8.043 7.82806C8.043 7.68352 8.05081 7.53899 8.05862 7.39837H6.75784C6.74848 7.54142 6.74327 7.68471 6.74222 7.82806C6.74222 10.5116 8.17581 12.6132 10.0039 12.6132C11.8321 12.6132 13.2657 10.5116 13.2657 7.82806C13.2657 7.68352 13.2618 7.53899 13.25 7.39837L13.2461 7.39056Z" fill="#D80027"/>
<path d="M4.12886 4.78122H5.43355V5.65231H6.73824V4.78122H8.04683V5.65231H9.35152V4.78122H10.6562V5.65231H11.9531V4.78122H13.2578V5.65231H14.5625V4.78122H15.8671V5.65231H19.0039C18.1867 3.95739 16.908 2.52739 15.3145 1.52665C13.7211 0.525916 11.8777 -0.00495529 9.99605 -0.00495529C8.11443 -0.00495529 6.27099 0.525916 4.67756 1.52665C3.08413 2.52739 1.80537 3.95739 0.988235 5.65231H4.12495V4.78122H4.12886Z" fill="#6DA544"/>
<path d="M15.8711 14.3477V15.2188H14.5664V14.3477H13.2617V15.2188H11.9531V14.3477H10.6484V15.2188H9.34373V14.3477H8.04686V15.2188H6.74217V14.3477H5.43748V15.2188H4.1328V14.3477H0.992172C1.80931 16.0427 3.08807 17.4727 4.68149 18.4734C6.27492 19.4741 8.11837 20.005 9.99998 20.005C11.8816 20.005 13.725 19.4741 15.3185 18.4734C16.9119 17.4727 18.1907 16.0427 19.0078 14.3477H15.8711Z" fill="#D80027"/>
</g>
<defs>
<clipPath id="clip0">
<rect width="20" height="20" fill="white"/>
</clipPath>
</defs>
</svg>
