<svg width="20" height="20" viewBox="0 0 20 20" fill="none" xmlns="http://www.w3.org/2000/svg">
<path d="M10 20C15.5228 20 20 15.5228 20 10C20 4.47715 15.5228 0 10 0C4.47715 0 0 4.47715 0 10C0 15.5228 4.47715 20 10 20Z" fill="#EEEEEE"/>
<path d="M0.343704 12.6093C0.918611 14.7261 2.17303 16.5954 3.91402 17.9297V12.6093H0.343704ZM9.13277 19.9609C9.42114 19.9863 9.71047 19.9994 9.99995 20C12.198 20.0006 14.335 19.2769 16.0805 17.941C17.826 16.6051 19.0827 14.7312 19.6562 12.6093H9.12886V19.9609H9.13277ZM19.6562 7.3906C19.0435 5.12444 17.653 3.14609 15.7283 1.80202C13.8036 0.457959 11.4674 -0.166138 9.12886 0.0390375V7.3906H19.6562ZM3.91402 2.07029C2.17303 3.40454 0.918611 5.27382 0.343704 7.3906H3.91402V2.07029Z" fill="#0052B4"/>
<path d="M19.9141 8.69528H7.82427V0.238247C6.91427 0.439918 6.03718 0.768663 5.21881 1.21481V8.69528H0.0859925C-0.0269959 9.5614 -0.0269959 10.4385 0.0859925 11.3047H5.21881V18.7851C6.03718 19.2313 6.91427 19.56 7.82427 19.7617V11.3047H19.9141C20.0269 10.4385 20.0269 9.56141 19.9141 8.69528Z" fill="#D80027"/>
</svg>
