<svg width="20" height="20" viewBox="0 0 20 20" fill="none" xmlns="http://www.w3.org/2000/svg">
<path d="M17.0703 17.0703C15.1859 18.9004 12.6571 19.9156 10.0303 19.8964C7.40353 19.8772 4.88978 18.8252 3.03232 16.9677C1.17486 15.1103 0.122851 12.5965 0.103653 9.96974C0.084456 7.34296 1.09961 4.81411 2.92972 2.92969C2.92972 2.92969 11.9141 0.273445 15.8203 4.17969C19.7266 8.08594 17.0703 17.0703 17.0703 17.0703Z" fill="#FFDA44"/>
<path d="M17.0703 17.0704C18.9004 15.186 19.9156 12.6571 19.8964 10.0304C19.8772 7.40358 18.8252 4.88983 16.9677 3.03237C15.1103 1.17491 12.5965 0.122904 9.96973 0.103707C7.34295 0.0845094 4.8141 1.09966 2.92969 2.92978L17.0703 17.0704Z" fill="#D80027"/>
<path d="M12.6172 12.6172C12.3244 12.7352 12.002 12.759 11.695 12.6854C11.388 12.6117 11.1116 12.4443 10.9041 12.2063C10.6966 11.9683 10.5684 11.6716 10.5373 11.3574C10.5062 11.0432 10.5737 10.7272 10.7305 10.4531L10.6055 10.3867C11.1083 10.2631 11.5675 10.004 11.9334 9.63754C12.2992 9.27113 12.5575 8.81145 12.6804 8.30847C12.8032 7.80549 12.7858 7.27846 12.63 6.78468C12.4743 6.29091 12.1861 5.84928 11.7969 5.50781L10.8868 6.44531C11.1333 6.64044 11.3132 6.90723 11.4017 7.20891C11.4903 7.51059 11.483 7.83231 11.381 8.12971C11.2791 8.42711 11.0873 8.68555 10.8323 8.8694C10.5773 9.05326 10.2715 9.15348 9.95707 9.15625V9.29688C9.5984 8.92564 9.14508 8.6595 8.64612 8.52722C8.14715 8.39494 7.62153 8.40154 7.12605 8.54633C6.63057 8.69111 6.18408 8.96856 5.83485 9.34869C5.48562 9.72883 5.24692 10.1972 5.14457 10.7031L6.4102 11.0234C6.45649 10.7127 6.59798 10.4239 6.8152 10.1968C7.03242 9.9698 7.31468 9.81569 7.62311 9.75572C7.93155 9.69574 8.25099 9.73286 8.53745 9.86196C8.82392 9.99105 9.06332 10.2058 9.2227 10.4766L9.3477 10.3984C9.20302 10.8951 9.19714 11.4219 9.33071 11.9217C9.46428 12.4215 9.73219 12.8751 10.1054 13.2334C10.4785 13.5917 10.9427 13.8409 11.4475 13.954C11.9523 14.0671 12.4784 14.0398 12.9688 13.875L12.6172 12.6133V12.6172Z" fill="#FF9811"/>
<path d="M13.7032 6.77346L12.9962 9.2969L10.8751 8.90628L9.5079 6.08987L5.8204 7.39846L5.53134 6.57815L4.5665 6.46096L5.29306 8.50784L7.83212 7.8594L8.55087 9.89065L6.79697 12.4805L9.77744 15.0196L9.21103 15.6836L9.58994 16.5782L11.0001 14.9219L9.17197 13.0469L10.5704 11.4063L13.6876 11.6328L14.3985 7.78518L15.2579 7.94143L15.8438 7.168L13.7032 6.77346Z" fill="#FFEACF"/>
</svg>
