<svg width="20" height="20" viewBox="0 0 20 20" fill="none" xmlns="http://www.w3.org/2000/svg">
<path d="M10 20C15.5228 20 20 15.5228 20 10C20 4.47715 15.5228 0 10 0C4.47715 0 0 4.47715 0 10C0 15.5228 4.47715 20 10 20Z" fill="#EEEEEE"/>
<path d="M19.9141 8.69525H11.3047V0.0858718C10.4386 -0.0269404 9.56145 -0.0269404 8.69532 0.0858718V8.69525H0.0859442C-0.0268679 9.56138 -0.0268679 10.4385 0.0859442 11.3046H8.69532V19.914C9.56145 20.0269 10.4386 20.0269 11.3047 19.914V11.3046H19.9141C20.0269 10.4385 20.0269 9.56138 19.9141 8.69525Z" fill="#D80027"/>
<path d="M14.7813 3.47651C14.3964 3.47732 14.0227 3.60586 13.7187 3.84198C13.4147 4.0781 13.1977 4.40845 13.1016 4.7812L14.7813 5.2187L16.4688 4.7812C16.3725 4.40715 16.1543 4.07585 15.8487 3.83959C15.5432 3.60333 15.1676 3.47559 14.7813 3.47651ZM13.047 7.39057L15.2227 7.82416V6.90229C15.8321 6.74604 16.3165 6.26166 16.4727 5.65229L14.7852 5.2187H12.6134L13.047 6.52338V7.39057Z" fill="#333333"/>
<path d="M16.4687 4.78128H12.6093V6.52347H13.0429V5.65238H16.4687C16.5051 5.51071 16.5234 5.36504 16.5234 5.21878C16.5234 5.06644 16.5039 4.92191 16.4687 4.78128Z" fill="#ACABB1"/>
<path d="M5.65234 3.47656C5.26676 3.47651 4.8921 3.60465 4.58731 3.84084C4.28253 4.07703 4.06493 4.40785 3.96875 4.78125L5.65234 5.21875L7.33594 4.78125C7.23976 4.40785 7.02216 4.07703 6.71737 3.84084C6.41259 3.60465 6.03793 3.47651 5.65234 3.47656ZM3.91406 7.39062L6.08594 7.82422V6.90234C6.69922 6.74609 7.17969 6.26172 7.33594 5.65234L5.65234 5.21875H3.47656L3.91406 6.52344V7.39062Z" fill="#333333"/>
<path d="M7.33594 4.78128H3.47656V6.52347H3.91406V5.65238H7.33594C7.37229 5.51071 7.39067 5.36504 7.39062 5.21878C7.39062 5.06644 7.37109 4.92191 7.33594 4.78128Z" fill="#ACABB1"/>
<path d="M14.7813 12.1758C14.3969 12.1764 14.0236 12.3044 13.7196 12.5398C13.4157 12.7751 13.1984 13.1046 13.1016 13.4766L14.7813 13.9141L16.4688 13.4766C16.3718 13.1033 16.1533 12.7729 15.8477 12.5374C15.5422 12.3019 15.1671 12.1747 14.7813 12.1758ZM13.047 16.086L15.2227 16.5235V15.5977C15.8321 15.4415 16.3165 14.9571 16.4727 14.3477L14.7852 13.9141H12.6134L13.047 15.2188V16.086Z" fill="#333333"/>
<path d="M16.4687 13.4766H12.6093V15.2188H13.0429V14.3477H16.4687C16.5051 14.206 16.5234 14.0603 16.5234 13.9141C16.5234 13.7617 16.5039 13.6172 16.4687 13.4766Z" fill="#ACABB1"/>
<path d="M5.65234 12.1757C5.26727 12.1754 4.89301 12.303 4.5883 12.5384C4.28358 12.7739 4.06567 13.1038 3.96875 13.4765L5.65234 13.914L7.33594 13.4765C7.23902 13.1038 7.0211 12.7739 6.71639 12.5384C6.41167 12.303 6.03741 12.1754 5.65234 12.1757ZM3.91406 16.0859L6.08594 16.5234V15.5976C6.69922 15.4413 7.17969 14.957 7.33594 14.3476L5.65234 13.914H3.47656L3.91406 15.2187V16.0859Z" fill="#333333"/>
<path d="M7.33594 13.4766H3.47656V15.2188H3.91406V14.3477H7.33594C7.37229 14.206 7.39067 14.0603 7.39062 13.9141C7.39062 13.7617 7.37109 13.6172 7.33594 13.4766Z" fill="#ACABB1"/>
</svg>
