<svg width="20" height="20" viewBox="0 0 20 20" fill="none" xmlns="http://www.w3.org/2000/svg">
<path d="M10 20C15.5228 20 20 15.5228 20 10C20 4.47715 15.5228 0 10 0C4.47715 0 0 4.47715 0 10C0 15.5228 4.47715 20 10 20Z" fill="#EEEEEE"/>
<path d="M17.9337 16.0899L11.8438 10L17.9337 3.91019C17.4012 3.2198 16.7815 2.60136 16.0899 2.07035L10.0001 8.15628L3.91025 2.06644C3.21985 2.59892 2.60142 3.21867 2.0704 3.91019L8.15634 10L2.0665 16.0899C2.59872 16.7817 3.21848 17.4014 3.91025 17.9336L10.0001 11.8438L16.0899 17.9336C16.7817 17.4014 17.4014 16.7816 17.9337 16.0899Z" fill="#D80027"/>
<path d="M8.26172 3.04694L10 3.47663L11.7383 3.04694V1.56256L11.043 1.91413L10 0.871159L8.95703 1.91413L8.26172 1.56256V3.04694Z" fill="#FFDA44"/>
<path d="M8.26172 3.04688V4.12891C8.26172 5.46094 10 5.87109 10 5.87109C10 5.87109 11.7383 5.46094 11.7383 4.12891V3.04688H8.26172Z" fill="#D80027"/>
</svg>
