<svg width="20" height="20" viewBox="0 0 20 20" fill="none" xmlns="http://www.w3.org/2000/svg">
<g clip-path="url(#clip0)">
<path d="M10 20C15.5228 20 20 15.5228 20 10C20 4.47715 15.5228 0 10 0C4.47715 0 0 4.47715 0 10C0 15.5228 4.47715 20 10 20Z" fill="#FFDA44"/>
<path d="M16.0898 2.07031C14.4023 0.765625 12.2929 0 9.99991 0C7.70694 0 5.59756 0.769531 3.91006 2.07031L9.99991 8.15234L16.0898 2.06641V2.07031Z" fill="#6DA544"/>
<path d="M2.07031 3.91012C0.765625 5.59762 0 7.707 0 9.99996C0 12.2929 0.769531 14.4023 2.07031 16.0898L8.15234 9.99996L2.06641 3.91012H2.07031Z" fill="#333333"/>
<path d="M3.91006 17.9298C5.59756 19.2305 7.70694 20.0001 9.99991 20.0001C12.2929 20.0001 14.4023 19.2305 16.0898 17.9298L9.99991 11.8477L3.91006 17.9337V17.9298Z" fill="#6DA544"/>
<path d="M17.9299 16.0898C19.2306 14.4023 20.0002 12.2929 20.0002 9.99996C20.0002 7.707 19.2306 5.59762 17.9299 3.91012L11.8478 9.99996L17.9377 16.0898H17.9299Z" fill="#333333"/>
</g>
<defs>
<clipPath id="clip0">
<rect width="20" height="20" fill="white"/>
</clipPath>
</defs>
</svg>
