<svg width="20" height="20" viewBox="0 0 20 20" fill="none" xmlns="http://www.w3.org/2000/svg">
<g clip-path="url(#clip0)">
<path d="M10 20C15.5228 20 20 15.5228 20 10C20 4.47715 15.5228 0 10 0C4.47715 0 0 4.47715 0 10C0 15.5228 4.47715 20 10 20Z" fill="#EEEEEE"/>
<path d="M6.08594 6.52344H19.3789C18.7962 4.95135 17.8275 3.55101 16.562 2.45121C15.2965 1.35141 13.7748 0.58745 12.1368 0.22959C10.4988 -0.12827 8.79711 -0.0685428 7.18825 0.403279C5.57938 0.875101 4.11497 1.74387 2.92969 2.92969L6.08594 6.52344Z" fill="#333333"/>
<path d="M6.08594 13.4766H19.3789C18.7962 15.0487 17.8275 16.449 16.562 17.5488C15.2965 18.6486 13.7748 19.4126 12.1368 19.7704C10.4988 20.1283 8.79711 20.0685 7.18825 19.5967C5.57938 19.1249 4.11497 18.2561 2.92969 17.0703L6.08594 13.4766Z" fill="#6DA544"/>
<path d="M2.92968 2.92969C1.05478 4.80499 0.00150299 7.34821 0.00150299 10C0.00150299 12.6518 1.05478 15.195 2.92968 17.0703L9.99999 10L2.92968 2.92969Z" fill="#D80027"/>
<path d="M3.96875 7.82429L4.51562 8.97272L5.75781 8.68757L5.20312 9.8321L6.19922 10.6212L4.95703 10.9024L4.96094 12.1758L3.96875 11.379L2.97656 12.1758V10.8985L1.73828 10.6173L2.73438 9.8321L2.17969 8.68757L3.42188 8.97272L3.96875 7.82429Z" fill="#EEEEEE"/>
</g>
<defs>
<clipPath id="clip0">
<rect width="20" height="20" fill="white"/>
</clipPath>
</defs>
</svg>
