<svg width="20" height="20" viewBox="0 0 20 20" fill="none" xmlns="http://www.w3.org/2000/svg">
<g clip-path="url(#clip0)">
<path d="M10 20C15.5228 20 20 15.5228 20 10C20 4.47715 15.5228 0 10 0C4.47715 0 0 4.47715 0 10C0 15.5228 4.47715 20 10 20Z" fill="#EEEEEE"/>
<path d="M9.99998 -7.34703e-06C8.11889 -0.000454284 6.27582 0.529683 4.68244 1.52952C3.08906 2.52935 1.81001 3.95833 0.992172 5.65234H19.0078C18.19 3.95833 16.9109 2.52935 15.3175 1.52952C13.7242 0.529683 11.8811 -0.000454284 9.99998 -7.34703e-06Z" fill="#333333"/>
<path d="M9.99998 20.0001C8.11889 20.0005 6.27582 19.4704 4.68244 18.4705C3.08906 17.4707 1.81001 16.0417 0.992172 14.3477H19.0078C18.19 16.0417 16.9109 17.4707 15.3175 18.4705C13.7242 19.4704 11.8811 20.0005 9.99998 20.0001Z" fill="#496E2D"/>
<path d="M19.5312 6.95312H0.468725C-0.165763 8.93483 -0.165763 11.0652 0.468725 13.0469H19.5312C20.1657 11.0652 20.1657 8.93483 19.5312 6.95312Z" fill="#A2001D"/>
<path d="M13.1133 4.62116L11.9297 4.07429L9.99998 8.44538L8.0703 4.07429L6.8867 4.62116L9.28123 10.0001L6.8867 15.379L8.0703 15.9259L9.99998 11.5548L11.9297 15.9259L13.1133 15.379L10.7187 10.0001L13.1133 4.62116Z" fill="#EEEEEE"/>
<path d="M10.8047 5.13679C10.3476 4.63679 9.99999 4.34772 9.99999 4.34772C9.99999 4.34772 9.65233 4.63679 9.1953 5.13679V14.8634C9.65233 15.3634 9.99999 15.6524 9.99999 15.6524C9.99999 15.6524 10.3476 15.3634 10.8047 14.8634V5.13679Z" fill="#EEEEEE"/>
<path d="M7.8242 7.00007V13.0001C8.24831 13.7349 8.75984 14.4156 9.34764 15.0274V4.97272C8.90233 5.44147 8.30858 6.1446 7.8242 7.00398V7.00007ZM12.1758 7.00007C11.7517 6.26526 11.2401 5.58453 10.6523 4.97272V15.0274C11.0976 14.5587 11.6875 13.8555 12.1758 12.9962V7.00398V7.00007Z" fill="#A2001D"/>
<path d="M12.1758 6.99993V12.9999C12.6641 12.1288 13.043 11.1015 13.043 9.99993C13.043 8.89837 12.6641 7.87103 12.1758 6.99993ZM7.82423 6.99993V12.9999C7.33595 12.1288 6.95705 11.1015 6.95705 9.99993C6.95705 8.89837 7.33595 7.87103 7.82423 6.99993Z" fill="#333333"/>
</g>
<defs>
<clipPath id="clip0">
<rect width="20" height="20" fill="white"/>
</clipPath>
</defs>
</svg>
