<svg width="20" height="20" viewBox="0 0 20 20" fill="none" xmlns="http://www.w3.org/2000/svg">
<path d="M10 20C15.5228 20 20 15.5228 20 10C20 4.47715 15.5228 0 10 0C4.47715 0 0 4.47715 0 10C0 15.5228 4.47715 20 10 20Z" fill="#D80027"/>
<path d="M14.8906 10L12.8906 10.9375L13.957 12.875L11.7851 12.461L11.5117 14.6524L9.99997 13.0391L8.48825 14.6524L8.21481 12.461L6.04294 12.875L7.10934 10.9414L5.10934 10L7.10934 9.06253L6.04294 7.12503L8.21481 7.53909L8.48825 5.34768L9.99997 6.96096L11.5117 5.34768L11.7851 7.53909L13.957 7.12503L12.8906 9.05862L14.8906 10Z" fill="#FFDA44"/>
<path d="M9.99997 13.0429C11.6806 13.0429 13.0429 11.6806 13.0429 9.99997C13.0429 8.31939 11.6806 6.957 9.99997 6.957C8.31938 6.957 6.957 8.31939 6.957 9.99997C6.957 11.6806 8.31938 13.0429 9.99997 13.0429Z" fill="#D80027"/>
<path d="M8.47656 10.0001C8.40625 10.0001 8.33203 10.004 8.26172 10.0118C8.26372 10.4165 8.40746 10.8076 8.66797 11.1173C8.80061 10.7592 8.99937 10.4293 9.25391 10.1446C9.00587 10.0491 8.74235 10.0001 8.47656 10.0001ZM9.41406 11.6407C9.79286 11.7767 10.2071 11.7767 10.5859 11.6407C10.4844 11.2501 10.2812 10.8985 10 10.6251C9.71875 10.8985 9.51562 11.2501 9.41406 11.6407ZM11.5078 9.12899C11.3556 8.8636 11.136 8.64309 10.8712 8.48975C10.6065 8.3364 10.306 8.25565 10 8.25565C9.69405 8.25565 9.39351 8.3364 9.12876 8.48975C8.86401 8.64309 8.64442 8.8636 8.49219 9.12899C9.02205 9.13122 9.54202 9.27266 10 9.53914C10.458 9.27266 10.978 9.13122 11.5078 9.12899ZM10.7422 10.1446C10.9985 10.4301 11.1987 10.7614 11.332 11.1212C11.5934 10.8105 11.7372 10.4178 11.7383 10.0118C11.6669 10.0044 11.5952 10.0004 11.5234 10.0001C11.2563 9.99954 10.9914 10.0485 10.7422 10.1446Z" fill="#FFDA44"/>
</svg>
