<svg width="20" height="20" viewBox="0 0 20 20" fill="none" xmlns="http://www.w3.org/2000/svg">
<g clip-path="url(#clip0)">
<path d="M-1.9167e-05 10.0001C-1.9167e-05 11.7344 0.441387 13.3594 1.21482 14.7813L9.99998 15.6524L18.7851 14.7813C19.5586 13.3633 20 11.7344 20 10.0001C20 8.26569 19.5586 6.64069 18.7851 5.21882L9.99998 4.34772L1.21482 5.21882C0.415228 6.68543 -0.0025411 8.32965 -1.9167e-05 10.0001Z" fill="#D80027"/>
<path d="M1.21484 5.2188H18.7891C17.9298 3.63861 16.6602 2.31943 15.1141 1.40026C13.568 0.481079 11.8026 -0.00406647 10.0039 -0.00406647C8.2052 -0.00406647 6.4398 0.481079 4.89369 1.40026C3.34758 2.31943 2.07802 3.63861 1.21875 5.2188H1.21484ZM10 20C13.7891 20 17.0898 17.8907 18.7852 14.7813H1.21094C2.07106 16.3613 3.34147 17.68 4.88829 18.5985C6.43511 19.517 8.20105 20.0012 10 20Z" fill="#0052B4"/>
<path d="M13.4766 11.9532V10.6524H12.6094V8.91409L11.7383 8.043L10.8711 8.91409V7.17581L10 6.30471L9.12894 7.17581V8.91409L8.26175 8.043L7.39066 8.91409V10.6524H6.52347V11.9571H5.65237V13.2617H14.3477V11.9532H13.4766Z" fill="#EEEEEE"/>
</g>
<defs>
<clipPath id="clip0">
<rect width="20" height="20" fill="white"/>
</clipPath>
</defs>
</svg>
