<svg width="20" height="20" viewBox="0 0 20 20" fill="none" xmlns="http://www.w3.org/2000/svg">
<g clip-path="url(#clip0)">
<path d="M0 10C0 7.34784 1.05357 4.8043 2.92893 2.92893C4.8043 1.05357 7.34784 0 10 0C12.6522 0 15.1957 1.05357 17.0711 2.92893C18.9464 4.8043 20 7.34784 20 10" fill="#D80027"/>
<path d="M13.4766 9.29691L12.0586 9.96878L12.8125 11.3438L11.2695 11.0508L11.0742 12.6094L10 11.461L8.92578 12.6094L8.73047 11.0469L7.1875 11.3438L7.94141 9.96878L6.52344 9.29691L7.94141 8.62894L7.1875 7.25003L8.73047 7.54691L8.92578 5.98441L10 7.13285L11.0742 5.98832L11.2695 7.54691L12.8125 7.25003L12.0586 8.62894L13.4766 9.29691ZM12.6094 3.26566H10.6523C10.6523 3.09265 10.5836 2.92672 10.4613 2.80438C10.3389 2.68204 10.173 2.61332 10 2.61332C9.82699 2.61332 9.66106 2.68204 9.53872 2.80438C9.41638 2.92672 9.34766 3.09265 9.34766 3.26566H7.39453C7.39453 3.62503 7.70703 3.918 8.06641 3.918H8.04297C8.04297 4.27738 8.33594 4.57035 8.69531 4.57035C8.69531 4.92972 8.98828 5.22269 9.34766 5.22269H10.6523C11.0117 5.22269 11.3047 4.92972 11.3047 4.57035C11.6641 4.57035 11.957 4.27738 11.957 3.918H11.9336C12.2969 3.918 12.6094 3.62503 12.6094 3.26566Z" fill="#FFDA44"/>
<path d="M20 10C20 12.6522 18.9464 15.1957 17.0711 17.0711C15.1957 18.9464 12.6522 20 10 20C7.34784 20 4.8043 18.9464 2.92893 17.0711C1.05357 15.1957 0 12.6522 0 10H20Z" fill="#EEEEEE"/>
<path d="M9.99997 20C13.125 20 15.9179 18.5664 17.75 16.3203C17.4218 16.0937 17.2422 15.7344 16.6679 15.7344C15.832 15.7344 15.832 16.4922 15 16.4922C14.1679 16.4922 14.1679 15.7304 13.332 15.7304C12.5 15.7304 12.5 16.4922 11.6679 16.4922C10.8359 16.4922 10.832 15.7304 9.99997 15.7304C9.16794 15.7304 9.16794 16.4922 8.332 16.4922C7.49997 16.4922 7.49997 15.7304 6.66794 15.7304C5.832 15.7304 5.832 16.4922 4.99997 16.4922C4.16794 16.4922 4.16794 15.7304 3.332 15.7304C2.75778 15.7304 2.57809 16.0937 2.24997 16.3164C3.18653 17.4681 4.36819 18.3964 5.70889 19.0336C7.04958 19.6708 8.51554 20.001 9.99997 20ZM18.332 11.2773C17.5 11.2773 17.5 10.5117 16.6679 10.5117C15.832 10.5117 15.832 11.2734 15 11.2734C14.1679 11.2734 14.1679 10.5117 13.332 10.5117C12.5 10.5117 12.5 11.2734 11.6679 11.2734C10.8359 11.2734 10.832 10.5117 9.99997 10.5117C9.16794 10.5117 9.16794 11.2734 8.332 11.2734C7.49997 11.2734 7.49997 10.5117 6.66794 10.5117C5.832 10.5117 5.832 11.2734 4.99997 11.2734C4.16794 11.2734 4.16794 10.5117 3.332 10.5117C2.49997 10.5117 2.49997 11.2734 1.66794 11.2734C0.835907 11.2734 0.832001 10.5234 0.0116882 10.5195C0.0346941 10.9705 0.0882018 11.4195 0.171844 11.8633C0.835907 11.9609 0.894501 12.6133 1.66794 12.6133C2.49997 12.6133 2.49997 11.8515 3.332 11.8515C4.16794 11.8515 4.16794 12.6133 4.99997 12.6133C5.832 12.6133 5.832 11.8515 6.66794 11.8515C7.49997 11.8515 7.49997 12.6133 8.332 12.6133C9.16794 12.6133 9.16794 11.8515 9.99997 11.8515C10.832 11.8515 10.832 12.6133 11.6679 12.6133C12.5039 12.6133 12.5 11.8515 13.332 11.8515C14.1679 11.8515 14.1679 12.6133 15 12.6133C15.832 12.6133 15.832 11.8515 16.6679 11.8515C17.5 11.8515 17.5 12.6133 18.332 12.6133C19.1054 12.6133 19.164 11.9609 19.8281 11.8633C19.9104 11.4194 19.9626 10.9704 19.9843 10.5195C19.164 10.5273 19.164 11.2812 18.332 11.2812V11.2773ZM16.6679 13.1211C15.832 13.1211 15.832 13.8828 15 13.8828C14.1679 13.8828 14.1679 13.125 13.332 13.125C12.5 13.125 12.5 13.8867 11.6679 13.8867C10.832 13.8867 10.832 13.125 9.99997 13.125C9.16794 13.125 9.16794 13.8867 8.332 13.8867C7.49997 13.8867 7.49997 13.125 6.66794 13.125C5.832 13.125 5.832 13.8867 4.99997 13.8867C4.16794 13.8867 4.16794 13.125 3.332 13.125C2.49997 13.125 2.49997 13.8828 1.66794 13.8828C1.07028 13.8828 0.902313 13.4922 0.546845 13.2734C0.7807 13.9447 1.08583 14.589 1.457 15.1953C1.5195 15.207 1.58981 15.2148 1.66794 15.2148C2.49997 15.2187 2.49997 14.4531 3.332 14.4531C4.16794 14.4531 4.16794 15.2148 4.99997 15.2148C5.832 15.2148 5.832 14.4531 6.66794 14.4531C7.49997 14.4531 7.49997 15.2148 8.332 15.2148C9.16794 15.2148 9.16794 14.4531 9.99997 14.4531C10.832 14.4531 10.832 15.2148 11.6679 15.2148C12.5039 15.2148 12.5 14.4531 13.332 14.4531C14.1679 14.4531 14.1679 15.2148 15 15.2148C15.832 15.2148 15.832 14.4531 16.6679 14.4531C17.5 14.4531 17.5 15.2148 18.332 15.2148C18.4101 15.2148 18.4804 15.207 18.5429 15.1953C18.9143 14.5878 19.2194 13.9421 19.4531 13.2695C19.1015 13.4922 18.9297 13.8789 18.332 13.8789C17.5 13.8789 17.5 13.1172 16.6679 13.1172V13.1211Z" fill="#0052B4"/>
<path d="M19.9688 9.21101C19.168 9.23054 19.1563 9.97273 18.3321 9.97273C17.5 9.97273 17.5 9.21101 16.668 9.21101C15.8321 9.21101 15.8321 9.97273 15 9.97273C14.168 9.97273 14.168 9.21101 13.3321 9.21101C12.5 9.21101 12.5 9.97273 11.668 9.97273C10.836 9.97273 10.8321 9.21101 10 9.21101C9.168 9.21101 9.168 9.97273 8.33206 9.97273C7.50003 9.97273 7.50003 9.21101 6.668 9.21101C5.83206 9.21101 5.83206 9.97273 5.00003 9.97273C4.168 9.97273 4.168 9.21101 3.33206 9.21101C2.50003 9.21101 2.50003 9.97273 1.668 9.97273C0.847688 9.97273 0.832063 9.23054 0.0273752 9.21101C0.00802886 9.47357 -0.00109263 9.73679 3.14654e-05 10.0001C3.14654e-05 10.1837 0.00393771 10.3634 0.0156565 10.543C0.835969 10.5509 0.835969 11.3048 1.668 11.3048C2.50003 11.3048 2.50003 10.543 3.33206 10.543C4.168 10.543 4.168 11.3048 5.00003 11.3048C5.83206 11.3048 5.83206 10.543 6.668 10.543C7.50003 10.543 7.50003 11.3048 8.33206 11.3048C9.168 11.3048 9.168 10.543 10 10.543C10.8321 10.543 10.8321 11.3048 11.668 11.3048C12.5039 11.3048 12.5 10.543 13.3321 10.543C14.168 10.543 14.168 11.3048 15 11.3048C15.8321 11.3048 15.8321 10.543 16.668 10.543C17.5 10.543 17.5 11.3048 18.3321 11.3048C19.1602 11.3048 19.168 10.5509 19.9844 10.543C20.0083 10.0992 20.0031 9.6542 19.9688 9.21101Z" fill="#EEEEEE"/>
</g>
<defs>
<clipPath id="clip0">
<rect width="20" height="20" fill="white"/>
</clipPath>
</defs>
</svg>
