<svg width="20" height="20" viewBox="0 0 20 20" fill="none" xmlns="http://www.w3.org/2000/svg">
<path d="M10 20C15.5228 20 20 15.5228 20 10C20 4.47715 15.5228 0 10 0C4.47715 0 0 4.47715 0 10C0 15.5228 4.47715 20 10 20Z" fill="#D80027"/>
<path d="M10 15.7422C12.7183 15.7422 14.9219 13.5386 14.9219 10.8203C14.9219 8.10204 12.7183 5.89844 10 5.89844C7.28172 5.89844 5.07812 8.10204 5.07812 10.8203C5.07812 13.5386 7.28172 15.7422 10 15.7422Z" fill="#EEEEEE"/>
<path d="M10 13.8672C10.5898 12.8789 11.1289 12.3164 11.7188 11.3281C11.582 10.7109 11.043 11.0508 10.0391 3.35938C8.90626 11.1094 8.30079 10.7578 8.24219 11.25C8.82032 12.2578 9.42188 12.8594 10 13.8672ZM7.92969 11.875C8.37891 12.5664 9.19922 13.5273 9.64844 14.2188C6.94532 14.3984 6.39063 15.0508 5.46875 16.0156C5.30469 12.8203 7.44532 12.832 7.92969 11.875ZM10.3906 14.1797C10.9102 13.4297 11.5508 12.5469 12.0703 11.7969C12.9531 13.6055 14.125 14.1289 15.1953 14.2188C14.3594 15.3984 12.1953 15.2812 10.3906 14.1797Z" fill="#333333"/>
</svg>
