<svg width="20" height="20" viewBox="0 0 20 20" fill="none" xmlns="http://www.w3.org/2000/svg">
<g clip-path="url(#clip0)">
<path d="M10 20C15.5228 20 20 15.5228 20 10C20 4.47715 15.5228 0 10 0C4.47715 0 0 4.47715 0 10C0 15.5228 4.47715 20 10 20Z" fill="#EEEEEE"/>
<path d="M20 9.97272H9.16016C7.00781 12.1212 5.70703 13.7852 4.375 15.1134L10.0273 15.6212L18.8008 14.754C19.5907 13.2941 20.0029 11.6599 20 10.0001V9.97272Z" fill="#D80027"/>
<path d="M4.37503 5.1875H18.7696C18.0236 3.82817 16.9717 2.66093 15.697 1.77802C14.4224 0.895108 12.9598 0.320708 11.425 0.100203C9.8902 -0.120302 8.32513 0.0191295 6.85346 0.507481C5.3818 0.995833 4.04385 1.81972 2.94534 2.91406L4.37503 5.1875Z" fill="#FFDA44"/>
<path d="M4.81247 14.7539C3.91403 15.6523 3.56247 16.4062 2.91403 17.0585C4.01457 18.1641 5.35849 18.9968 6.83836 19.4902C8.31822 19.9835 9.89298 20.1239 11.4368 19.8999C12.9805 19.6759 14.4505 19.0939 15.7292 18.2004C17.0078 17.3068 18.0597 16.1265 18.8007 14.7539H4.81247Z" fill="#0052B4"/>
<path d="M2.92973 2.89837C1.05483 4.77367 0.0015564 7.31689 0.0015564 9.96868C0.0015564 12.6205 1.05483 15.1637 2.92973 17.039L10 9.96868L2.92973 2.89837Z" fill="#6DA544"/>
<path d="M2.63673 9.97271C2.63735 9.27911 2.8746 8.60647 3.30927 8.06597C3.74395 7.52547 4.35003 7.14945 5.02735 7.00006C4.8132 6.95195 4.59449 6.92707 4.37501 6.92584C3.94447 6.92125 3.51784 7.00797 3.12325 7.18028C2.72867 7.35258 2.37508 7.60656 2.0858 7.92547C1.79652 8.24439 1.57812 8.62099 1.44499 9.03046C1.31186 9.43993 1.26702 9.87296 1.31344 10.301C1.35986 10.7291 1.49648 11.1424 1.71429 11.5139C1.9321 11.8853 2.22615 12.2063 2.57707 12.4558C2.92799 12.7053 3.3278 12.8776 3.75015 12.9613C4.1725 13.045 4.6078 13.0382 5.02735 12.9415C4.35068 12.7922 3.7451 12.4168 3.31049 11.8771C2.87589 11.3374 2.63823 10.6656 2.63673 9.97271Z" fill="#EEEEEE"/>
<path d="M4.99606 7.36328L5.15622 7.85937H5.67966L5.25778 8.17187L5.41794 8.66797L4.99606 8.35547L4.57028 8.66797L4.73434 8.16797L4.30856 7.85937H4.832L4.99606 7.36328ZM4.99606 8.66797L5.15622 9.16406H5.67966L5.25778 9.47266L5.41794 9.97266L4.99606 9.66016L4.57028 9.97266L4.73434 9.47266L4.30856 9.16406H4.832L4.99606 8.66797ZM4.99606 9.97266L5.15622 10.4688H5.67966L5.25778 10.7773L5.41794 11.2734L4.99606 10.9687L4.57028 11.2734L4.73434 10.7773L4.30856 10.4688H4.832L4.99606 9.97266ZM4.99606 11.2734L5.15622 11.7734H5.67966L5.25778 12.082L5.41794 12.5781L4.99606 12.2734L4.57028 12.5781L4.73434 12.082L4.30856 11.7734H4.832L4.99606 11.2734Z" fill="#EEEEEE"/>
</g>
<defs>
<clipPath id="clip0">
<rect width="20" height="20" fill="white"/>
</clipPath>
</defs>
</svg>
