<svg width="20" height="20" viewBox="0 0 20 20" fill="none" xmlns="http://www.w3.org/2000/svg">
<g clip-path="url(#clip0)">
<path d="M10 20C15.5228 20 20 15.5228 20 10C20 4.47715 15.5228 0 10 0C4.47715 0 0 4.47715 0 10C0 15.5228 4.47715 20 10 20Z" fill="#FFDA44"/>
<path d="M2.92963 17.0702C3.34148 17.4833 3.78848 17.8597 4.26556 18.1952L18.1952 4.26556C17.8597 3.78845 17.4833 3.34145 17.0702 2.92962C16.6584 2.51661 16.2114 2.14019 15.7343 1.80462L1.80463 15.7343C2.14017 16.2114 2.51659 16.6584 2.92963 17.0702Z" fill="#333333"/>
<path d="M2.92969 2.92969C1.43007 4.42889 0.445621 6.36584 0.118438 8.46093C-0.208745 10.556 0.138263 12.7009 1.10937 14.5859L14.5859 1.10938C12.7009 0.138267 10.556 -0.208741 8.46093 0.118442C6.36583 0.445625 4.42889 1.43007 2.92969 2.92969Z" fill="#6DA544"/>
<path d="M17.0703 17.0703C18.5699 15.5711 19.5543 13.6341 19.8815 11.539C20.2087 9.44395 19.8617 7.29908 18.8906 5.41404L5.41403 18.8906C7.29908 19.8617 9.44395 20.2087 11.539 19.8815C13.6341 19.5543 15.5711 18.5699 17.0703 17.0703Z" fill="#D80027"/>
<path d="M6.35938 11.7969L7.29297 12.2735L8.03516 11.5313L7.86719 12.5664L8.80469 13.043L7.76563 13.2071L7.60156 14.2422L7.12891 13.3047L6.09375 13.4766L6.83594 12.7344L6.35938 11.7969ZM11.7969 6.3594L12.7305 6.83206L13.4727 6.08987L13.3086 7.12893L14.2422 7.60159L13.207 7.76565L13.043 8.80081L12.5664 7.86721L11.5313 8.03128L12.2734 7.28909L11.7969 6.3594Z" fill="#EEEEEE"/>
</g>
<defs>
<clipPath id="clip0">
<rect width="20" height="20" fill="white"/>
</clipPath>
</defs>
</svg>
