<svg width="20" height="20" viewBox="0 0 20 20" fill="none" xmlns="http://www.w3.org/2000/svg">
<g clip-path="url(#clip0)">
<path d="M10 20C15.5228 20 20 15.5228 20 10C20 4.47715 15.5228 0 10 0C4.47715 0 0 4.47715 0 10C0 15.5228 4.47715 20 10 20Z" fill="#EEEEEE"/>
<path d="M10 3.70903e-05C8.56085 -0.00135452 7.13843 0.308634 5.83035 0.908729C4.52228 1.50882 3.35952 2.38482 2.42188 3.4766H17.5781C16.6412 2.38401 15.4785 1.50746 14.1703 0.907296C12.8621 0.30713 11.4393 -0.00239328 10 3.70903e-05ZM17.5781 16.5235H2.42188C4.25391 18.6524 6.96875 20 10 20C13.0312 20 15.7461 18.6524 17.5781 16.5235Z" fill="#0052B4"/>
<path d="M18.5312 4.78128H1.46875C0.535156 6.30472 0 8.08988 0 10C0 11.9102 0.535156 13.6993 1.46875 15.2188H18.5312C19.4648 13.6953 20 11.9102 20 10C20 8.08988 19.4648 6.30082 18.5312 4.78128Z" fill="#D80027"/>
<path d="M6.15234 13.8477C8.27735 13.8477 10 12.125 10 10C10 7.875 8.27735 6.15234 6.15234 6.15234C4.02734 6.15234 2.30469 7.875 2.30469 10C2.30469 12.125 4.02734 13.8477 6.15234 13.8477Z" fill="#EEEEEE"/>
<path d="M6.1524 6.15234L7.01569 8.80859H9.81256L7.54694 10.4492L8.41803 13.1172L6.1524 11.4648L3.88678 13.1133L4.75397 10.4531L2.49225 8.8125H5.28912L6.1524 6.15234Z" fill="#D80027"/>
</g>
<defs>
<clipPath id="clip0">
<rect width="20" height="20" fill="white"/>
</clipPath>
</defs>
</svg>
