<svg width="20" height="20" viewBox="0 0 20 20" fill="none" xmlns="http://www.w3.org/2000/svg">
<path d="M10 20C15.5228 20 20 15.5228 20 10C20 4.47715 15.5228 0 10 0C4.47715 0 0 4.47715 0 10C0 15.5228 4.47715 20 10 20Z" fill="#EEEEEE"/>
<path d="M13.4766 10C13.4766 10.8711 11.9219 13.0469 10 13.0469C8.07812 13.0469 6.52344 10.8711 6.52344 10C6.52344 9.07796 6.88972 8.19368 7.5417 7.5417C8.19368 6.88972 9.07796 6.52344 10 6.52344C10.922 6.52344 11.8063 6.88972 12.4583 7.5417C13.1103 8.19368 13.4766 9.07796 13.4766 10Z" fill="#D80027"/>
<path d="M13.4766 10C13.4766 10.922 13.1103 11.8063 12.4583 12.4583C11.8063 13.1103 10.922 13.4766 10 13.4766C9.07796 13.4766 8.19368 13.1103 7.5417 12.4583C6.88972 11.8063 6.52344 10.922 6.52344 10" fill="#0052B4"/>
<path d="M13.6875 13.0743L14.6133 12.1524L15.2266 12.7657L14.3047 13.6875L13.6875 13.0743ZM12.1523 14.6133L13.0742 13.6875L13.6875 14.3047L12.7656 15.2266L12.1523 14.6133ZM15.5352 14.918L16.457 13.9961L17.0703 14.6094L16.1484 15.5352L15.5352 14.918ZM13.9961 16.4571L14.918 15.5352L15.5352 16.1485L14.6094 17.0704L13.9961 16.4571ZM14.6133 13.9961L15.5352 13.0743L16.1484 13.6875L15.2266 14.6133L14.6133 13.9961ZM13.0742 15.5352L13.9961 14.6133L14.6133 15.2266L13.6875 16.1485L13.0742 15.5352ZM15.5352 6.92582L13.0742 4.46488L13.6914 3.8516L16.1523 6.31254L15.5352 6.92582ZM13.0742 6.31254L12.1523 5.38676L12.7656 4.77348L13.6914 5.69535L13.0742 6.31254ZM14.6133 7.84769L13.6875 6.92582L14.3047 6.31254L15.2266 7.23441L14.6133 7.84769ZM14.918 4.46488L13.9961 3.54301L14.6094 2.92973L15.5352 3.8516L14.918 4.46488ZM16.457 6.00394L15.5352 5.07816L16.1484 4.46098L17.0703 5.39066L16.457 6.00394ZM3.54297 13.9961L6.00391 16.4571L5.38672 17.0704L2.92578 14.6094L3.54297 13.9961ZM6.00391 14.6094L6.92578 15.5352L6.3125 16.1485L5.38672 15.2266L6.00391 14.6094ZM4.46484 13.0743L5.38672 13.9961L4.77344 14.6133L3.85156 13.6875L4.46484 13.0743ZM5.38672 12.1524L7.84766 14.6133L7.23438 15.2266L4.77344 12.7657L5.38672 12.1524ZM6.00391 3.54301L3.54297 6.00394L2.92969 5.38676L5.39063 2.92582L6.00391 3.54301ZM6.92578 4.46488L4.46484 6.92582L3.85156 6.30863L6.3125 3.84769L6.92578 4.46488ZM7.84766 5.38676L5.38672 7.84769L4.77344 7.23441L7.23438 4.77348L7.84766 5.38676Z" fill="#333333"/>
</svg>
