<svg width="20" height="20" viewBox="0 0 20 20" fill="none" xmlns="http://www.w3.org/2000/svg">
<g clip-path="url(#clip0)">
<path d="M10 20C15.5228 20 20 15.5228 20 10C20 4.47715 15.5228 0 10 0C4.47715 0 0 4.47715 0 10C0 15.5228 4.47715 20 10 20Z" fill="#EEEEEE"/>
<path d="M9.99998 -7.34703e-06C8.11889 -0.000454284 6.27582 0.529683 4.68244 1.52952C3.08906 2.52935 1.81001 3.95833 0.992172 5.65234H19.0078C18.19 3.95833 16.9109 2.52935 15.3175 1.52952C13.7242 0.529683 11.8811 -0.000454284 9.99998 -7.34703e-06Z" fill="#D80027"/>
<path d="M9.99998 20.0001C11.8811 20.0005 13.7242 19.4704 15.3175 18.4706C16.9109 17.4707 18.19 16.0417 19.0078 14.3477H0.992172C1.81001 16.0417 3.08906 17.4707 4.68244 18.4706C6.27582 19.4704 8.11889 20.0005 9.99998 20.0001Z" fill="#6DA544"/>
<path d="M10 3.74613L10.7578 7.01176L12.9492 4.47269L12.1055 7.71488L15.2227 6.48832L12.9688 8.96879L16.3008 9.32816L13.1484 10.4727L15.9375 12.3438L12.6172 11.8946L14.2109 14.8438L11.4766 12.9024L11.5234 16.25L10 13.2657L8.48047 16.25L8.52734 12.8985L5.79297 14.8399L7.38672 11.8907L4.06641 12.3399L6.85156 10.4688L3.69922 9.32426L7.03125 8.96098L4.77734 6.48441L7.89453 7.71488L7.05078 4.46879L9.23828 7.00785L10 3.74613Z" fill="#FFDA44"/>
</g>
<defs>
<clipPath id="clip0">
<rect width="20" height="20" fill="white"/>
</clipPath>
</defs>
</svg>
