<svg width="20" height="20" viewBox="0 0 20 20" fill="none" xmlns="http://www.w3.org/2000/svg">
<g clip-path="url(#clip0)">
<path d="M19.375 13.4765C20.2085 11.2337 20.2085 8.76615 19.375 6.52337L10 5.65228L0.625021 6.52337C-0.208422 8.76615 -0.208422 11.2337 0.625021 13.4765L10 14.3476L19.375 13.4765Z" fill="#EEEEEE"/>
<path d="M10 20C12.0417 19.9998 14.0345 19.3745 15.7104 18.2084C17.3864 17.0422 18.6652 15.3909 19.375 13.4766H0.625C1.33483 15.3909 2.61364 17.0422 4.28957 18.2084C5.96551 19.3745 7.95826 19.9998 10 20Z" fill="#D80027"/>
<path d="M10 0C7.95826 0.000249226 5.96551 0.625473 4.28957 1.79165C2.61364 2.95782 1.33483 4.60905 0.625 6.52344H19.375C18.6652 4.60905 17.3864 2.95782 15.7104 1.79165C14.0345 0.625473 12.0417 0.000249226 10 0V0Z" fill="#6DA544"/>
<path d="M2.9297 2.92969C1.0548 4.80499 0.00152588 7.34821 0.00152588 10C0.00152588 12.6518 1.0548 15.195 2.9297 17.0703L6.52345 13.4766V6.52344L2.9297 2.92969Z" fill="#333333"/>
</g>
<defs>
<clipPath id="clip0">
<rect width="20" height="20" fill="white"/>
</clipPath>
</defs>
</svg>
