<svg width="20" height="20" viewBox="0 0 20 20" fill="none" xmlns="http://www.w3.org/2000/svg">
<path d="M20 10C20 12.6522 18.9464 15.1957 17.0711 17.0711C15.1957 18.9464 12.6522 20 10 20C7.34784 20 4.8043 18.9464 2.92893 17.0711C1.05357 15.1957 0 12.6522 0 10L10 0C12.6522 0 15.1957 1.05357 17.0711 2.92893C18.9464 4.8043 20 7.34784 20 10Z" fill="#0052B4"/>
<path d="M9.97261 10.0001H9.99995V9.97272L9.97261 10.0001Z" fill="#EEEEEE"/>
<path d="M10 5.21875V0C7.34784 0 4.8043 1.05357 2.92893 2.92893C1.05357 4.8043 0 7.34784 0 10H5.21875V7.0625L8.15625 10H9.97266L10 9.97266V8.15625L7.0625 5.21875H10Z" fill="#EEEEEE"/>
<path d="M14.3476 7.39056C15.3076 7.39056 16.0859 6.6123 16.0859 5.65227C16.0859 4.69225 15.3076 3.91399 14.3476 3.91399C13.3876 3.91399 12.6093 4.69225 12.6093 5.65227C12.6093 6.6123 13.3876 7.39056 14.3476 7.39056Z" fill="#6DA544"/>
<path d="M5.05858 1.30473C3.49333 2.19682 2.19676 3.49339 1.30467 5.05863V10H3.91405V3.9141H9.99998V1.30473H5.05858Z" fill="#D80027"/>
<path d="M10 8.76953L6.44534 5.21484H5.21878L10 10V8.76953ZM11.3047 5.21484H17.3907V7.82422H11.3047V5.21484Z" fill="#D80027"/>
<path d="M11.3047 11.7383V13.4766H12.2187C12.786 14.0362 13.5508 14.35 14.3476 14.35C15.1445 14.35 15.9093 14.0362 16.4765 13.4766H17.3906V11.7383H11.3047Z" fill="#FFDA44"/>
<path d="M11.3046 7.39056V9.99993C11.3046 12.3281 14.3476 13.0468 14.3476 13.0468C14.3476 13.0468 17.3945 12.3281 17.3945 9.99993V7.39056H11.3007H11.3046Z" fill="#338AF3"/>
<path d="M14.3476 8.78516C13.5859 8.78516 13.5859 9.48047 12.8242 9.48047C12.0624 9.48047 12.0663 8.78516 11.3007 8.78516V10C12.0663 10 12.0663 10.6953 12.8242 10.6953C13.582 10.6953 13.5859 10 14.3476 10C15.1093 10 15.1093 10.6953 15.871 10.6953C16.6328 10.6953 16.6288 10 17.3945 10V8.78125C16.6288 8.78125 16.6288 9.47656 15.871 9.47656C15.1093 9.47656 15.1093 8.78125 14.3476 8.78125V8.78516ZM14.3476 6.34766C13.5859 6.34766 13.5859 7.04297 12.8242 7.04297C12.0624 7.04297 12.0663 6.34766 11.3007 6.34766V7.56641C12.0663 7.56641 12.0663 8.26172 12.8242 8.26172C13.582 8.26172 13.5859 7.56641 14.3476 7.56641C15.1093 7.56641 15.1093 8.26172 15.871 8.26172C16.6328 8.26172 16.6288 7.56641 17.3945 7.56641V6.34766C16.6288 6.34766 16.6288 7.04297 15.871 7.04297C15.1093 7.04297 15.1093 6.34766 14.3476 6.34766Z" fill="#EEEEEE"/>
</svg>
