<svg width="20" height="20" viewBox="0 0 20 20" fill="none" xmlns="http://www.w3.org/2000/svg">
<path d="M10 20C15.5228 20 20 15.5228 20 10C20 4.47715 15.5228 0 10 0C4.47715 0 0 4.47715 0 10C0 15.5228 4.47715 20 10 20Z" fill="#338AF3"/>
<path d="M15.6523 10.1094H4.34762C4.34762 10.8907 5.02731 11.5235 5.80856 11.5235H5.76168C5.76168 12.3048 6.39449 12.9337 7.17574 12.9337C7.17574 13.7149 7.80465 14.3477 8.5859 14.3477H11.414C12.1953 14.3477 12.8242 13.7149 12.8242 12.9337C13.6054 12.9337 14.2382 12.3009 14.2382 11.5235H14.1914C14.9726 11.5235 15.6523 10.8907 15.6523 10.1094Z" fill="#FFDA44"/>
<path d="M13.914 8.26172C13.914 9.29979 13.5016 10.2954 12.7676 11.0294C12.0336 11.7634 11.038 12.1758 9.99996 12.1758C8.96189 12.1758 7.96633 11.7634 7.2323 11.0294C6.49827 10.2954 6.0859 9.29979 6.0859 8.26172" fill="#338AF3"/>
<path d="M12.9883 8.26165L11.7656 8.83587L12.418 10.0195L11.0899 9.76556L10.9219 11.1054L10 10.1171L9.07813 11.1054L8.90626 9.76556L7.57813 10.0195L8.22657 8.83587L7.00782 8.26165L8.22657 7.68743L7.57813 6.50384L8.90626 6.75775L9.07423 5.4179L9.9961 6.40228L10.918 5.4179L11.0938 6.75775L12.4219 6.50384L11.7734 7.68743L12.9883 8.26165Z" fill="#FFDA44"/>
</svg>
