<svg width="20" height="20" viewBox="0 0 20 20" fill="none" xmlns="http://www.w3.org/2000/svg">
<g clip-path="url(#clip0)">
<path d="M19.0079 5.65231C18.1908 3.95738 16.912 2.52739 15.3186 1.52665C13.7252 0.525912 11.8817 -0.00495911 10.0001 -0.00495911C8.11847 -0.00495911 6.27503 0.525912 4.6816 1.52665C3.08817 2.52739 1.80942 3.95738 0.992279 5.65231L10.0001 6.5234L19.0079 5.65231ZM0.992279 14.3476C1.80942 16.0425 3.08817 17.4725 4.6816 18.4733C6.27503 19.474 8.11847 20.0049 10.0001 20.0049C11.8817 20.0049 13.7252 19.474 15.3186 18.4733C16.912 17.4725 18.1908 16.0425 19.0079 14.3476L10.0001 13.4765L0.992279 14.3476Z" fill="#D80027"/>
<path d="M19.0078 5.65228H0.992188C0.355469 6.96868 0 8.44134 0 9.99993C0 11.5585 0.355469 13.0312 0.992188 14.3476H19.0078C19.6445 13.0312 20 11.5585 20 9.99993C20 8.44134 19.6445 6.96868 19.0078 5.65228Z" fill="#0052B4"/>
<path d="M10 13.4766C11.9201 13.4766 13.4766 11.9201 13.4766 10C13.4766 8.07995 11.9201 6.52344 10 6.52344C8.07995 6.52344 6.52344 8.07995 6.52344 10C6.52344 11.9201 8.07995 13.4766 10 13.4766Z" fill="#EEEEEE"/>
</g>
<defs>
<clipPath id="clip0">
<rect width="20" height="20" fill="white"/>
</clipPath>
</defs>
</svg>
