<svg width="20" height="20" viewBox="0 0 20 20" fill="none" xmlns="http://www.w3.org/2000/svg">
<g clip-path="url(#clip0)">
<path d="M10 20C15.5228 20 20 15.5228 20 10C20 4.47715 15.5228 0 10 0C4.47715 0 0 4.47715 0 10C0 15.5228 4.47715 20 10 20Z" fill="#EEEEEE"/>
<path d="M10.0001 -7.34703e-06C8.119 -0.000454284 6.27592 0.529683 4.68254 1.52952C3.08917 2.52935 1.81011 3.95833 0.992275 5.65234H19.0079C18.1901 3.95833 16.911 2.52935 15.3176 1.52952C13.7243 0.529683 11.8812 -0.000454284 10.0001 -7.34703e-06ZM10.0001 20C11.8812 20.0004 13.7243 19.4703 15.3176 18.4705C16.911 17.4706 18.1901 16.0417 19.0079 14.3476H0.992275C1.81011 16.0417 3.08917 17.4706 4.68254 18.4705C6.27592 19.4703 8.119 20.0004 10.0001 20Z" fill="#D80027"/>
<path d="M12.6094 11.7382L10 6.957L7.39067 11.7382H9.3477V13.0468H10.6524V11.7422L12.6094 11.7382Z" fill="#6DA544"/>
</g>
<defs>
<clipPath id="clip0">
<rect width="20" height="20" fill="white"/>
</clipPath>
</defs>
</svg>
