<svg width="20" height="20" viewBox="0 0 20 20" fill="none" xmlns="http://www.w3.org/2000/svg">
<path d="M20 9.99997C20 12.6521 18.9464 15.1957 17.0711 17.071C15.1957 18.9464 12.6522 20 10 20C7.34784 20 4.8043 18.9464 2.92893 17.071C1.05357 15.1957 0 12.6521 0 9.99997C0.433594 9.99997 10 8.69528 10 8.69528L20 9.99997Z" fill="#D80027"/>
<path d="M0 10C0 7.34784 1.05357 4.8043 2.92893 2.92893C4.8043 1.05357 7.34784 0 10 0C12.6522 0 15.1957 1.05357 17.0711 2.92893C18.9464 4.8043 20 7.34784 20 10" fill="#0052B4"/>
<path d="M7.39069 6.95306C7.38953 6.70201 7.31597 6.45662 7.17882 6.24634C7.04167 6.03606 6.84677 5.86981 6.61749 5.76754C6.38821 5.66527 6.1343 5.63133 5.8862 5.66978C5.63811 5.70823 5.40638 5.81744 5.21881 5.98431V5.21868H5.65241V4.34759H5.21881V3.91399H4.34772V4.34759H3.91413V5.21868H4.34772V5.98431C4.08852 5.76226 3.75264 5.65063 3.41209 5.67334C3.07155 5.69605 2.75346 5.85131 2.52605 6.1058C2.29864 6.3603 2.18 6.69378 2.19559 7.03473C2.21118 7.37567 2.35975 7.69693 2.60944 7.92962V8.69524H6.95319V7.92962C7.21881 7.69134 7.38678 7.34368 7.38678 6.95306H7.39069Z" fill="#FFDA44"/>
</svg>
