<svg width="20" height="20" viewBox="0 0 20 20" fill="none" xmlns="http://www.w3.org/2000/svg">
<g clip-path="url(#clip0)">
<path d="M10 20C15.5228 20 20 15.5228 20 10C20 4.47715 15.5228 0 10 0C4.47715 0 0 4.47715 0 10C0 15.5228 4.47715 20 10 20Z" fill="#FFDA44"/>
<path d="M7.82431 1.73828H4.36337C4.21064 1.8435 4.06084 1.95292 3.91415 2.06641L3.04306 10L3.91415 17.9336C4.06082 18.0471 4.21062 18.1565 4.36337 18.2617H7.82431V1.73828Z" fill="#FF9811"/>
<path d="M-7.29634e-06 10C-7.29634e-06 13.2305 1.53515 16.1055 3.91406 17.9336V2.07031C2.69647 3.0027 1.71003 4.20303 1.03125 5.5782C0.352474 6.95337 -0.000403374 8.46643 -7.29634e-06 10Z" fill="#6DA544"/>
<path d="M16.0861 6.09375V6.34766H16.0978L16.0861 6.09375Z" fill="#FFDA44"/>
<path d="M19.2029 12.6094H17.3201L16.5233 13.4766V15.2188H14.7811V14.3477H15.6522V12.6094H11.7381V13.6953H10.8709V11.625C10.7329 11.5026 10.6225 11.3522 10.5471 11.1838C10.4717 11.0154 10.4329 10.8329 10.4334 10.6484V5C10.4334 4.28125 11.0193 3.69531 11.7381 3.69531V11.7422H13.4764L14.074 11.2422C13.9672 10.9861 13.9127 10.7111 13.9139 10.4336V9.12891H12.6092V6.52344H15.2186C15.2186 6.08594 15.8709 5.65234 15.8709 5.65234C15.8709 5.65234 16.5233 6.08594 16.5233 6.52344V9.12891C17.0037 9.13672 17.7733 9.125 18.6053 9.12891C18.313 8.6102 18.2049 8.00784 18.2985 7.41986C18.3921 6.83188 18.682 6.2929 19.1209 5.89062C18.3622 4.2132 17.1568 2.77672 15.6365 1.73828H9.12872V18.2617H15.6365C17.4725 17.0039 18.8709 15.1523 19.5467 12.9844L19.2029 12.6094Z" fill="#A2001D"/>
</g>
<defs>
<clipPath id="clip0">
<rect width="20" height="20" fill="white"/>
</clipPath>
</defs>
</svg>
