<svg width="20" height="20" viewBox="0 0 20 20" fill="none" xmlns="http://www.w3.org/2000/svg">
<g clip-path="url(#clip0)">
<path d="M10 20C15.5228 20 20 15.5228 20 10C20 4.47715 15.5228 0 10 0C4.47715 0 0 4.47715 0 10C0 15.5228 4.47715 20 10 20Z" fill="#EEEEEE"/>
<path d="M2.28516 3.63281H17.7149C17.1438 2.94251 16.483 2.33163 15.75 1.81641H4.25001C3.51681 2.33284 2.856 2.94504 2.28516 3.63672V3.63281ZM7.65302e-06 10C7.65302e-06 10.3047 0.0156327 10.6094 0.0390702 10.9102H19.961C19.9876 10.6075 20.0007 10.3038 20 10C20 9.69531 19.9844 9.39062 19.961 9.08984H0.0390702C0.0123952 9.39249 -0.000638812 9.69618 7.65302e-06 10ZM1.09376 14.5469H18.9063C19.2052 13.9652 19.4459 13.3555 19.625 12.7266H0.375008C0.55409 13.3555 0.794841 13.9652 1.09376 14.5469ZM4.25001 18.1797H15.75C16.483 17.6645 17.1438 17.0536 17.7149 16.3633H2.28516C2.85604 17.0549 3.51684 17.6671 4.25001 18.1836V18.1797ZM0.375008 7.27734H19.625C19.4472 6.64854 19.2077 6.03881 18.9102 5.45703H1.08985C0.792277 6.03881 0.552836 6.64854 0.375008 7.27734Z" fill="#EEEEEE"/>
<path d="M4.78125 1.81644H15.75C14.0673 0.630963 12.0584 -0.00363844 10 3.10834e-05C8.69531 3.10834e-05 6.40625 0.671906 4.78125 1.81644ZM9.57031 5.45316H18.9062C18.5749 4.80609 18.1741 4.19703 17.7109 3.63675H9.5664V5.45316H9.57031ZM9.57031 9.08988H19.9609C19.9067 8.47543 19.7956 7.86736 19.6289 7.27347H9.5664V9.08988H9.57031ZM0.375 12.7266H19.625C19.7917 12.1327 19.9028 11.5246 19.957 10.9102H0.0429688C0.0971668 11.5246 0.208321 12.1327 0.375 12.7266ZM2.28906 16.3633H17.7148C18.178 15.803 18.5788 15.194 18.9102 14.5469H1.08984C1.42115 15.194 1.82195 15.803 2.28516 16.3633H2.28906ZM10 20C12.1406 20 14.125 19.3282 15.75 18.1836H4.25C5.93273 19.3691 7.94162 20.0037 10 20Z" fill="#D80027"/>
<path d="M0.375 7.27344C0.208321 7.86732 0.0971668 8.4754 0.0429688 9.08984H10V0C5.42187 0 1.5625 3.07422 0.375 7.27344Z" fill="#0052B4"/>
<path d="M5.95312 2.60944L6.60156 4.60163H8.69531L7 5.8321L7.64844 7.82429L5.95312 6.59382L4.25781 7.82429L4.90625 5.8321L3.21094 4.60163H5.30469L5.95312 2.60944Z" fill="#EEEEEE"/>
</g>
<defs>
<clipPath id="clip0">
<rect width="20" height="20" fill="white"/>
</clipPath>
</defs>
</svg>
