<svg width="20" height="20" viewBox="0 0 20 20" fill="none" xmlns="http://www.w3.org/2000/svg">
<g clip-path="url(#clip0)">
<path d="M9.615e-06 9.99997C-0.00208213 11.5055 0.337147 12.992 0.992197 14.3476L10 14.7812L19.0078 14.3515C19.6627 12.9951 20.0029 11.5082 20.0029 10.0019C20.0029 8.49563 19.6627 7.00878 19.0078 5.65231L10 5.21872L0.992197 5.65231C0.337147 7.00792 -0.00208213 8.49439 9.615e-06 9.99997Z" fill="#EEEEEE"/>
<path d="M9.99998 20.0001C11.8811 20.0005 13.7242 19.4704 15.3175 18.4706C16.9109 17.4707 18.19 16.0417 19.0078 14.3477H0.992172C1.81001 16.0417 3.08906 17.4707 4.68244 18.4706C6.27582 19.4704 8.11889 20.0005 9.99998 20.0001Z" fill="#6DA544"/>
<path d="M9.99998 -7.34703e-06C8.11889 -0.000454284 6.27582 0.529683 4.68244 1.52952C3.08906 2.52935 1.81001 3.95833 0.992172 5.65234H19.0078C18.19 3.95833 16.9109 2.52935 15.3175 1.52952C13.7242 0.529683 11.8811 -0.000454284 9.99998 -7.34703e-06Z" fill="#0052B4"/>
<path d="M10.6523 9.78118V7.39056H9.34766V9.78118L7.77344 11.3593C8.0058 11.7417 8.33272 12.0577 8.7227 12.2771C9.11267 12.4964 9.55257 12.6117 10 12.6117C10.4474 12.6117 10.8873 12.4964 11.2773 12.2771C11.6673 12.0577 11.9942 11.7417 12.2266 11.3593L10.6523 9.78118Z" fill="#333333"/>
</g>
<defs>
<clipPath id="clip0">
<rect width="20" height="20" fill="white"/>
</clipPath>
</defs>
</svg>
