<svg width="20" height="20" viewBox="0 0 20 20" fill="none" xmlns="http://www.w3.org/2000/svg">
<g clip-path="url(#clip0)">
<path d="M10 20C15.5228 20 20 15.5228 20 10C20 4.47715 15.5228 0 10 0C4.47715 0 0 4.47715 0 10C0 15.5228 4.47715 20 10 20Z" fill="#EEEEEE"/>
<path d="M9.99997 -7.26655e-06C7.80192 -0.000599187 5.66491 0.72303 3.91944 2.05897C2.17396 3.39491 0.917272 5.26872 0.343719 7.39062H19.6562C19.0821 5.26905 17.8252 3.39561 16.0799 2.05977C14.3345 0.723935 12.1979 5.80013e-05 9.99997 -7.26655e-06ZM9.99997 20C12.198 20.0006 14.335 19.277 16.0805 17.941C17.826 16.6051 19.0827 14.7313 19.6562 12.6094H0.343719C0.917272 14.7313 2.17396 16.6051 3.91944 17.941C5.66491 19.277 7.80192 20.0006 9.99997 20Z" fill="#A2001D"/>
</g>
<defs>
<clipPath id="clip0">
<rect width="20" height="20" fill="white"/>
</clipPath>
</defs>
</svg>
