<svg width="20" height="20" viewBox="0 0 20 20" fill="none" xmlns="http://www.w3.org/2000/svg">
<g clip-path="url(#clip0)">
<path d="M0.992188 5.65238C0.355469 6.96879 0 8.44144 0 10C0 11.5586 0.355469 13.0313 0.992188 14.3477L10 15.2188L19.0078 14.3477C19.6445 13.0313 20 11.5586 20 10C20 8.44144 19.6445 6.96879 19.0078 5.65238L10 4.78129L0.992188 5.65238Z" fill="#333333"/>
<path d="M0.992218 14.3477C1.80935 16.0427 3.08811 17.4727 4.68154 18.4734C6.27497 19.4741 8.11841 20.005 10 20.005C11.8817 20.005 13.7251 19.4741 15.3185 18.4734C16.912 17.4727 18.1907 16.0427 19.0078 14.3477H0.992218Z" fill="#496E2D"/>
<path d="M0.992218 5.65231H19.0078C18.1907 3.95738 16.912 2.52739 15.3185 1.52665C13.7251 0.525912 11.8817 -0.00495911 10 -0.00495911C8.11841 -0.00495911 6.27497 0.525912 4.68154 1.52665C3.08811 2.52739 1.80935 3.95738 0.992218 5.65231Z" fill="#D80027"/>
<path d="M12.3282 8.17181L13.1485 9.30462L14.4766 8.87102L13.6563 10.0038L14.4766 11.1327L13.1485 10.6991L12.3282 11.832V10.4296L11.0001 9.99602L12.3282 9.56634V8.17181Z" fill="#EEEEEE"/>
<path d="M10.0899 12.8241C9.66071 12.8229 9.23744 12.7239 8.85225 12.5347C8.46705 12.3454 8.13006 12.0708 7.86687 11.7318C7.60369 11.3928 7.42123 10.9982 7.33336 10.5781C7.24549 10.158 7.25452 9.72344 7.35976 9.30736C7.46501 8.89128 7.6637 8.50466 7.94074 8.17686C8.21778 7.84907 8.56589 7.58873 8.95861 7.41562C9.35134 7.24251 9.77835 7.16118 10.2072 7.17782C10.6361 7.19445 11.0555 7.30861 11.4336 7.51162C10.9443 7.0334 10.3248 6.71019 9.65259 6.58248C8.98041 6.45478 8.28549 6.52825 7.65488 6.79371C7.02427 7.05916 6.486 7.50479 6.10751 8.07477C5.72902 8.64475 5.52713 9.31374 5.52713 9.99795C5.52713 10.6822 5.72902 11.3511 6.10751 11.9211C6.486 12.4911 7.02427 12.9367 7.65488 13.2022C8.28549 13.4676 8.98041 13.5411 9.65259 13.4134C10.3248 13.2857 10.9443 12.9625 11.4336 12.4843C11.0211 12.7079 10.5592 12.8247 10.0899 12.8241Z" fill="#EEEEEE"/>
</g>
<defs>
<clipPath id="clip0">
<rect width="20" height="20" fill="white"/>
</clipPath>
</defs>
</svg>
