<svg width="20" height="20" viewBox="0 0 20 20" fill="none" xmlns="http://www.w3.org/2000/svg">
<path d="M10 20C15.5228 20 20 15.5228 20 10C20 4.47715 15.5228 0 10 0C4.47715 0 0 4.47715 0 10C0 15.5228 4.47715 20 10 20Z" fill="#D80027"/>
<path d="M15.9102 8.20319H11.3946L10 3.91804L8.6055 8.20319H4.08987L7.74222 10.8594L6.34769 15.1485L10 12.5001L13.6524 15.1563L12.2578 10.8594L15.9102 8.20319ZM8.76175 10.5274L9.23831 9.07819H10.7617L11.2344 10.5274L10 11.4258L8.76566 10.5274H8.76175ZM10.4805 8.2071H9.51956L10 6.72663L10.4805 8.2071ZM11.9766 9.99226L11.6758 9.07819H13.2344L11.9766 9.99226ZM8.32034 9.07819L8.01956 9.99226L6.76175 9.07819H8.32034ZM7.99612 12.879L8.47659 11.3946L9.25784 11.961L7.99612 12.879ZM10.7344 11.9649L11.5157 11.3985L11.9961 12.879L10.7344 11.9649Z" fill="#FFDA44"/>
</svg>
