<svg width="20" height="20" viewBox="0 0 20 20" fill="none" xmlns="http://www.w3.org/2000/svg">
<g clip-path="url(#clip0)">
<path d="M10 20C15.5228 20 20 15.5228 20 10C20 4.47715 15.5228 0 10 0C4.47715 0 0 4.47715 0 10C0 15.5228 4.47715 20 10 20Z" fill="#EEEEEE"/>
<path d="M10.586 0.0311813H9.25003C6.99135 0.203196 4.858 1.13697 3.19925 2.67962H6.95316C8.14663 2.67962 9.29122 3.15372 10.1351 3.99764C10.9791 4.84155 11.4532 5.98615 11.4532 7.17962C11.4532 8.37309 10.9791 9.51768 10.1351 10.3616C9.29122 11.2055 8.14663 11.6796 6.95316 11.6796H19.8438C19.9431 11.1251 19.9954 10.5632 20 9.99993C19.9974 7.45095 19.0216 4.99918 17.2718 3.14562C15.5221 1.29205 13.1306 0.176628 10.586 0.0272751V0.0311813Z" fill="#333333"/>
<path d="M0.703125 6.34766C0.242411 7.51042 0.00391122 8.74929 0 10C0 12.6522 1.05357 15.1957 2.92893 17.0711C4.8043 18.9464 7.34784 20 10 20C11.6844 19.9979 13.341 19.5703 14.816 18.757C16.291 17.9437 17.5367 16.771 18.4375 15.3477H6.95312C5.98032 15.3477 5.04736 14.9612 4.35948 14.2733C3.6716 13.5855 3.28516 12.6525 3.28516 11.6797C3.28516 10.7069 3.6716 9.77392 4.35948 9.08604C5.04736 8.39816 5.98032 8.01172 6.95312 8.01172C7.42489 8.0335 7.87011 8.23623 8.19626 8.57779C8.52241 8.91934 8.7044 9.37344 8.7044 9.8457C8.7044 10.318 8.52241 10.7721 8.19626 11.1136C7.87011 11.4552 7.42489 11.6579 6.95312 11.6797C7.64254 11.6533 8.29492 11.3609 8.77334 10.8638C9.25177 10.3667 9.51903 9.70359 9.51903 9.01367C9.51903 8.32375 9.25177 7.66066 8.77334 7.16357C8.29492 6.66648 7.64254 6.37405 6.95312 6.34766H0.703125Z" fill="#D80027"/>
</g>
<defs>
<clipPath id="clip0">
<rect width="20" height="20" fill="white"/>
</clipPath>
</defs>
</svg>
