<svg width="20" height="20" viewBox="0 0 20 20" fill="none" xmlns="http://www.w3.org/2000/svg">
<g clip-path="url(#clip0)">
<path d="M14.3477 0.992188C13.0312 0.355469 11.5586 0 10 0C8.44141 0 6.96875 0.355469 5.65234 0.992188L4.78125 10L5.65234 19.0078C6.96875 19.6445 8.44141 20 10 20C11.5586 20 13.0312 19.6445 14.3477 19.0078L15.2188 10L14.3477 0.992188Z" fill="#FFDA44"/>
<path d="M5.65233 0.992058C3.9574 1.80919 2.5274 3.08795 1.52666 4.68138C0.525927 6.27481 -0.00494385 8.11825 -0.00494385 9.99987C-0.00494385 11.8815 0.525927 13.7249 1.52666 15.3184C2.5274 16.9118 3.9574 18.1905 5.65233 19.0077V0.992058Z" fill="#0052B4"/>
<path d="M14.3477 0.992058V19.0077C16.0426 18.1905 17.4726 16.9118 18.4733 15.3184C19.4741 13.7249 20.0049 11.8815 20.0049 9.99987C20.0049 8.11825 19.4741 6.27481 18.4733 4.68138C17.4726 3.08795 16.0426 1.80919 14.3477 0.992058Z" fill="#D80027"/>
<path d="M13.4766 7.86732H11.0859C11.0859 7.57932 10.9715 7.3031 10.7679 7.09945C10.5642 6.8958 10.288 6.78139 10 6.78139C9.71199 6.78139 9.43578 6.8958 9.23213 7.09945C9.02847 7.3031 8.91406 7.57932 8.91406 7.86732H6.52344C6.53159 8.1547 6.65177 8.42751 6.85832 8.62749C7.06487 8.82747 7.34141 8.93877 7.62891 8.93764H7.58984C7.58984 9.07852 7.61766 9.21802 7.67169 9.34813C7.72572 9.47824 7.80491 9.59641 7.90471 9.69585C8.00451 9.79529 8.12296 9.87404 8.25327 9.9276C8.38358 9.98116 8.52318 10.0085 8.66406 10.008C8.66406 10.5314 9.03906 10.965 9.53516 11.0626L8.69141 12.965C9.10709 13.1334 9.55149 13.2196 10 13.2189C10.4485 13.2196 10.8929 13.1334 11.3086 12.965L10.4688 11.0548C10.7136 11.0084 10.9345 10.8781 11.0935 10.6863C11.2525 10.4945 11.3397 10.2532 11.3398 10.004C11.6237 10.004 11.8959 9.89128 12.0967 9.69056C12.2974 9.48983 12.4102 9.2176 12.4102 8.93373H12.375C12.6625 8.93487 12.939 8.82356 13.1456 8.62358C13.3521 8.4236 13.4723 8.1508 13.4805 7.86342L13.4766 7.86732Z" fill="#FF9811"/>
<path d="M10 9.34772L8.58594 10.0001V11.3048L10 12.1758L11.4141 11.3048V10.0001L10 9.34772Z" fill="#0052B4"/>
<path d="M8.58594 8.69545H11.4141V10.0001H8.58594V8.69545Z" fill="#D80027"/>
</g>
<defs>
<clipPath id="clip0">
<rect width="20" height="20" fill="white"/>
</clipPath>
</defs>
</svg>
