<svg width="20" height="20" viewBox="0 0 20 20" fill="none" xmlns="http://www.w3.org/2000/svg">
<g clip-path="url(#clip0)">
<path d="M10 20C15.5228 20 20 15.5228 20 10C20 4.47715 15.5228 0 10 0C4.47715 0 0 4.47715 0 10C0 15.5228 4.47715 20 10 20Z" fill="#FFDA44"/>
<path d="M20 10C20 6.56641 18.2695 3.53906 15.6367 1.73828H4.36328C3.01762 2.65536 1.91658 3.88755 1.15609 5.32751C0.395598 6.76748 -0.00128831 8.37155 3.14169e-06 10C3.14169e-06 13.4336 1.73047 16.4609 4.36328 18.2617H15.6367C16.9824 17.3446 18.0834 16.1125 18.8439 14.6725C19.6044 13.2325 20.0013 11.6285 20 10Z" fill="#A2001D"/>
<path d="M7.82422 7.3905H12.1758V5.65221L11.3047 6.08581L10 4.78112L8.69531 6.08581L7.82422 5.65221V7.3905ZM13.9141 9.99987H11.7383C11.8272 9.84819 11.8743 9.67568 11.875 9.49987C11.8738 9.27698 11.7985 9.06082 11.6609 8.88546C11.5233 8.7101 11.3313 8.58553 11.1151 8.53136C10.8988 8.4772 10.6708 8.49653 10.4667 8.5863C10.2627 8.67608 10.0944 8.8312 9.98828 9.02721C9.92441 8.91179 9.83844 8.81008 9.73527 8.72789C9.63209 8.6457 9.51374 8.58463 9.38697 8.54818C9.26019 8.51172 9.12748 8.50059 8.99641 8.51543C8.86533 8.53026 8.73846 8.57077 8.62304 8.63464C8.50763 8.6985 8.40592 8.78447 8.32372 8.88765C8.24153 8.99082 8.18046 9.10917 8.14401 9.23595C8.10755 9.36272 8.09643 9.49543 8.11126 9.62651C8.12609 9.75758 8.1666 9.88445 8.23047 9.99987H6.08594C6.08594 10.6639 6.66797 11.203 7.33203 11.203H7.29297C7.29297 11.7499 7.65234 12.2108 8.15234 12.3592L7.17578 13.3358L8.09765 14.2577L9.40625 12.9491C9.45703 12.9686 9.50781 12.9842 9.5625 12.9921L8.77344 14.7772C9.16276 14.9366 9.57932 15.0188 10 15.0194C10.4207 15.0188 10.8372 14.9366 11.2266 14.7772L10.4375 12.9921C10.4907 12.982 10.5429 12.9676 10.5937 12.9491L11.9023 14.2577L12.8242 13.3358L11.8477 12.3592C12.0965 12.2851 12.3146 12.1324 12.4695 11.924C12.6244 11.7156 12.7077 11.4626 12.707 11.203H12.668C13.332 11.203 13.9141 10.6639 13.9141 9.99987Z" fill="#FFDA44"/>
<path d="M10 10.6523L8.58594 11.3046V12.6093L10 13.4765L11.4141 12.6093V11.3046L10 10.6523Z" fill="#6DA544"/>
<path d="M8.58594 10H11.4141V11.7383H8.58594V10Z" fill="#0052B4"/>
</g>
<defs>
<clipPath id="clip0">
<rect width="20" height="20" fill="white"/>
</clipPath>
</defs>
</svg>
