<svg width="20" height="20" viewBox="0 0 20 20" fill="none" xmlns="http://www.w3.org/2000/svg">
<g clip-path="url(#clip0)">
<path d="M10 20C15.5228 20 20 15.5228 20 10C20 4.47715 15.5228 0 10 0C4.47715 0 0 4.47715 0 10C0 15.5228 4.47715 20 10 20Z" fill="#EEEEEE"/>
<path d="M6.52344 10.0001V19.3751C8.03543 19.9357 9.66058 20.1224 11.2603 19.9192C12.86 19.7159 14.3869 19.1288 15.7106 18.2079C17.0344 17.2871 18.1159 16.0597 18.8627 14.6305C19.6096 13.2013 19.9998 11.6127 20 10.0001C20 4.47667 6.52344 10.0001 6.52344 10.0001Z" fill="#6DA544"/>
<path d="M10 0C8.77734 0 7.60547 0.21875 6.52344 0.625V10H20C20 7.34784 18.9464 4.8043 17.0711 2.92893C15.1957 1.05357 12.6522 0 10 0V0Z" fill="#D80027"/>
</g>
<defs>
<clipPath id="clip0">
<rect width="20" height="20" fill="white"/>
</clipPath>
</defs>
</svg>
