<svg width="20" height="20" viewBox="0 0 20 20" fill="none" xmlns="http://www.w3.org/2000/svg">
<g clip-path="url(#clip0)">
<path d="M10 20C11.7215 20.0003 13.4139 19.5561 14.9134 18.7106C16.4129 17.865 17.6687 16.6467 18.5593 15.1735C19.4499 13.7003 19.9451 12.0221 19.997 10.3014C20.0489 8.5807 19.6557 6.87575 18.8555 5.35156L9.98829 10.0117L14.6485 1.14453C13.3054 0.439963 11.8196 0.0501263 10.3036 0.00452213C8.78765 -0.041082 7.28116 0.258741 5.89815 0.881303C4.51515 1.50386 3.29187 2.43285 2.32089 3.59797C1.34992 4.76308 0.656679 6.13379 0.293644 7.60637C-0.0693905 9.07895 -0.0927121 10.6148 0.225445 12.0977C0.543601 13.5807 1.1949 14.9718 2.13005 16.1658C3.06521 17.3599 4.25972 18.3256 5.62318 18.9899C6.98664 19.6541 8.48334 19.9996 10 20Z" fill="#0052B4"/>
<path d="M18.8438 5.36341C17.9007 3.56671 16.4334 2.09941 14.6367 1.15638L2.91798 17.0822L18.8438 5.36341Z" fill="#EEEEEE"/>
<path d="M2.91798 17.0821L18.8438 5.36335C18.3743 4.47065 17.7724 3.65412 17.0586 2.94147L2.91798 17.0821Z" fill="#FF9811"/>
<path d="M8.68358 5.86335L7.46092 6.43757L8.11327 7.62116L6.78514 7.36726L6.61717 8.7071L5.6953 7.72272L4.76952 8.7071L4.60155 7.36726L3.27733 7.62116L3.92577 6.43757L2.70702 5.86335L3.92577 5.28913L3.28123 4.10554L4.60936 4.35944L4.77342 3.0196L5.6992 4.00788L6.62108 3.0196L6.78905 4.35944L8.11717 4.10554L7.46483 5.28913L8.68358 5.86335Z" fill="#EEEEEE"/>
</g>
<defs>
<clipPath id="clip0">
<rect width="20" height="20" fill="white"/>
</clipPath>
</defs>
</svg>
