<svg width="20" height="20" viewBox="0 0 20 20" fill="none" xmlns="http://www.w3.org/2000/svg">
<path d="M10 20C15.5228 20 20 15.5228 20 10C20 4.47715 15.5228 0 10 0C4.47715 0 0 4.47715 0 10C0 15.5228 4.47715 20 10 20Z" fill="#FFDA44"/>
<path d="M11.5235 19.8827C13.113 19.6412 14.62 19.0165 15.9141 18.0624L10 9.99987L11.5235 19.8827ZM8.47659 0.117058C6.88702 0.358532 5.3801 0.983285 4.08597 1.93737L10 9.99987L8.47659 0.117058ZM4.08987 18.0585C5.38562 19.013 6.89358 19.639 8.48441 19.8827L10 9.99987L4.08597 18.0624L4.08987 18.0585ZM1.94144 4.0819C0.984913 5.3784 0.35756 6.8878 0.113312 8.48034L10 9.99987L1.93753 4.08581L1.94144 4.0819ZM0.113312 11.5233C0.363312 13.1522 1.00394 14.6483 1.93753 15.9178L10 9.99987L0.117218 11.5233H0.113312ZM19.8868 8.48425C19.6368 6.85534 18.9961 5.35925 18.0625 4.08971L10 9.99987L19.8828 8.47643L19.8868 8.48425ZM15.9141 1.93737C14.6184 0.982681 13.1104 0.356694 11.5196 0.113152L10 9.99987L15.9141 1.93737ZM18.0625 15.9139C19.0171 14.6182 19.6431 13.1102 19.8868 11.5194L10 9.99987L18.0625 15.9139Z" fill="#D80027"/>
<path d="M10 13.4766C11.9201 13.4766 13.4766 11.9201 13.4766 10C13.4766 8.07995 11.9201 6.52345 10 6.52345C8.07995 6.52345 6.52344 8.07995 6.52344 10C6.52344 11.9201 8.07995 13.4766 10 13.4766Z" fill="#D80027"/>
<path d="M10 12.6093C11.4411 12.6093 12.6094 11.4411 12.6094 9.99993C12.6094 8.55882 11.4411 7.39056 10 7.39056C8.5589 7.39056 7.39064 8.55882 7.39064 9.99993C7.39064 11.4411 8.5589 12.6093 10 12.6093Z" fill="#FFDA44"/>
</svg>
