<svg width="20" height="20" viewBox="0 0 20 20" fill="none" xmlns="http://www.w3.org/2000/svg">
<g clip-path="url(#clip0)">
<path d="M13.4766 0.624959C11.2338 -0.208483 8.76624 -0.208483 6.52345 0.624959L5.65236 9.99996L6.52345 19.375C8.76617 20.2087 11.2339 20.2087 13.4766 19.375L14.3477 9.99996L13.4766 0.624959Z" fill="#FFDA44"/>
<path d="M20 10C19.9998 7.95826 19.3745 5.96551 18.2084 4.28957C17.0422 2.61364 15.3909 1.33483 13.4766 0.625V19.375C15.3909 18.6652 17.0422 17.3864 18.2084 15.7104C19.3745 14.0345 19.9998 12.0417 20 10Z" fill="#D80027"/>
<path d="M0 10C0.000249226 12.0417 0.625473 14.0345 1.79165 15.7104C2.95782 17.3864 4.60905 18.6652 6.52344 19.375V0.625C4.60905 1.33483 2.95782 2.61364 1.79165 4.28957C0.625473 5.96551 0.000249226 7.95826 0 10H0Z" fill="#6DA544"/>
</g>
<defs>
<clipPath id="clip0">
<rect width="20" height="20" fill="white"/>
</clipPath>
</defs>
</svg>
