<svg width="20" height="20" viewBox="0 0 20 20" fill="none" xmlns="http://www.w3.org/2000/svg">
<g clip-path="url(#clip0)">
<path d="M19.375 13.4765C20.2088 11.2338 20.2088 8.76609 19.375 6.52337L10 5.65228L0.625007 6.52337C-0.208783 8.76609 -0.208783 11.2338 0.625007 13.4765L10 14.3476L19.375 13.4765Z" fill="#6DA544"/>
<path d="M19.375 6.52352C18.6646 4.60975 17.3856 2.95922 15.7097 1.79367C14.0338 0.628114 12.0414 0.00337219 10 0.00337219C7.95865 0.00337219 5.96619 0.628114 4.29029 1.79367C2.6144 2.95922 1.33536 4.60975 0.625 6.52352H19.375Z" fill="#FFDA44"/>
<path d="M10 20C12.0417 19.9998 14.0345 19.3745 15.7104 18.2084C17.3864 17.0422 18.6652 15.3909 19.375 13.4766H0.625C1.33483 15.3909 2.61364 17.0422 4.28957 18.2084C5.96551 19.3745 7.95826 19.9998 10 20Z" fill="#D80027"/>
<path d="M16.8555 8.46094H11.6211L10 3.47656L8.38281 8.46094H3.14453L7.37891 11.5391L5.76172 16.5234L10 13.4766L14.2383 16.5234L12.6211 11.5391L16.8555 8.46094Z" fill="#EEEEEE"/>
</g>
<defs>
<clipPath id="clip0">
<rect width="20" height="20" fill="white"/>
</clipPath>
</defs>
</svg>
