<svg width="20" height="20" viewBox="0 0 20 20" fill="none" xmlns="http://www.w3.org/2000/svg">
<g clip-path="url(#clip0)">
<path d="M9.99998 20C11.2226 20 12.3945 19.7812 13.4765 19.375L13.914 9.99996L13.4765 0.624959C11.2338 -0.208483 8.7662 -0.208483 6.52342 0.624959L6.08592 9.99996L6.52342 19.375C7.60545 19.7812 8.77733 20 9.99998 20Z" fill="#0052B4"/>
<path d="M0 10C0.000249226 12.0417 0.625473 14.0345 1.79165 15.7104C2.95782 17.3864 4.60905 18.6652 6.52344 19.375V0.625C4.60905 1.33483 2.95782 2.61364 1.79165 4.28957C0.625473 5.96551 0.000249226 7.95826 0 10H0ZM13.4766 0.625V19.375C15.3903 18.6646 17.0409 17.3856 18.2064 15.7097C19.372 14.0338 19.9967 12.0414 19.9967 10C19.9967 7.95865 19.372 5.96619 18.2064 4.29029C17.0409 2.6144 15.3903 1.33536 13.4766 0.625Z" fill="#A2001D"/>
<path d="M4.78129 10H5.65238V13.4766H4.78129V10ZM1.30472 10H2.17582V13.4766H1.30472V10Z" fill="#FFDA44"/>
<path d="M3.47658 12.1759C3.95767 12.1759 4.34767 11.7859 4.34767 11.3048C4.34767 10.8237 3.95767 10.4337 3.47658 10.4337C2.99549 10.4337 2.60549 10.8237 2.60549 11.3048C2.60549 11.7859 2.99549 12.1759 3.47658 12.1759Z" fill="#FFDA44"/>
<path d="M3.4766 8.69518C3.71607 8.69518 3.91019 8.50105 3.91019 8.26158C3.91019 8.02211 3.71607 7.82799 3.4766 7.82799C3.23713 7.82799 3.043 8.02211 3.043 8.26158C3.043 8.50105 3.23713 8.69518 3.4766 8.69518Z" fill="#FFDA44"/>
<path d="M2.60939 12.6094H4.34767V13.4766H2.60939V12.6094ZM2.60939 9.13281H4.34767V10H2.60939V9.13281ZM3.47658 5.21484L3.78908 6.16016H4.78127L3.97658 6.74609L4.28517 7.69531L3.47658 7.10938L2.67189 7.69531L2.98049 6.74609L2.1758 6.16016H3.17189L3.47658 5.21484Z" fill="#FFDA44"/>
</g>
<defs>
<clipPath id="clip0">
<rect width="20" height="20" fill="white"/>
</clipPath>
</defs>
</svg>
