<svg width="20" height="20" viewBox="0 0 20 20" fill="none" xmlns="http://www.w3.org/2000/svg">
<path d="M10 20C15.5228 20 20 15.5228 20 10C20 4.47715 15.5228 0 10 0C4.47715 0 0 4.47715 0 10C0 15.5228 4.47715 20 10 20Z" fill="#496E2D"/>
<path d="M11.7383 9.58217C11.4923 9.58217 11.2618 9.63295 11.043 9.71108C11.1602 9.44545 11.2423 9.15248 11.2423 8.83607C11.2423 7.59389 10.0001 6.6642 10.0001 6.6642C10.0001 6.6642 8.75788 7.59389 8.75788 8.83607C8.75788 9.14857 8.836 9.44545 8.95319 9.71108C8.73835 9.63295 8.50788 9.58217 8.26179 9.58217C7.0196 9.58217 6.08601 10.8244 6.08601 10.8244C6.08601 10.8244 7.0196 12.0665 8.26179 12.0665C8.98444 12.0704 9.60944 11.6408 10.0001 11.2892C10.3907 11.6447 11.0118 12.0705 11.7383 12.0705C12.9805 12.0705 13.9141 10.8283 13.9141 10.8283C13.9141 10.8283 12.9805 9.58607 11.7383 9.58607V9.58217Z" fill="#EEEEEE"/>
<path d="M10 3.91399L10.2578 4.70306H11.0859L10.4141 5.19134L10.6719 5.9804L10 5.49212L9.32812 5.9804L9.58594 5.19134L8.91406 4.70306H9.74219L10 3.91399ZM6.84375 5.2929L7.33594 5.73821L7.91016 5.40618L7.64063 6.01165L8.13672 6.45696L7.47266 6.38665L7.20312 6.99603L7.06641 6.34368L6.40234 6.27727L6.98047 5.94524L6.84375 5.2929ZM4.53125 7.6054L5.17969 7.74212L5.51172 7.1679L5.58203 7.83196L6.23047 7.96868L5.625 8.23821L5.69531 8.89837L5.25 8.40618L4.64453 8.67571L4.97656 8.09759L4.53125 7.6054ZM13.1562 5.2929L12.6641 5.74212L12.0898 5.41009L12.3594 6.01556L11.8633 6.46087L12.5273 6.39056L12.7969 6.99993L12.9336 6.34759L13.5977 6.28118L13.0195 5.94915L13.1562 5.2929ZM15.4688 7.6054L14.8203 7.74212L14.4883 7.1679L14.418 7.83196L13.7695 7.96868L14.375 8.23821L14.3047 8.89837L14.75 8.40618L15.3555 8.67571L15.0234 8.09759L15.4688 7.6054Z" fill="#FFDA44"/>
<path d="M10 15.5468C10.9883 15.5468 11.8945 15.2148 12.625 14.664H7.375C8.10547 15.2148 9.01562 15.5468 10 15.5468ZM6.01562 12.9374C6.15218 13.2509 6.32525 13.5473 6.53125 13.8202H13.4687C13.6747 13.5473 13.8478 13.2509 13.9844 12.9374H6.01562Z" fill="#EEEEEE"/>
</svg>
