<svg width="20" height="20" viewBox="0 0 20 20" fill="none" xmlns="http://www.w3.org/2000/svg">
<path d="M10 20C15.5228 20 20 15.5228 20 10C20 4.47715 15.5228 0 10 0C4.47715 0 0 4.47715 0 10C0 15.5228 4.47715 20 10 20Z" fill="#338AF3"/>
<path d="M9.68747 16.2968C9.5582 16.2914 9.43347 16.2476 9.32913 16.1711C9.2248 16.0946 9.14557 15.9888 9.10153 15.8671C9.02361 15.9678 8.91794 16.0435 8.79753 16.0848C8.67712 16.1262 8.54725 16.1314 8.42391 16.0998C8.30058 16.0683 8.18917 16.0013 8.10343 15.9072C8.01769 15.8131 7.96135 15.696 7.94137 15.5702C7.84464 15.6539 7.72545 15.7072 7.59863 15.7237C7.47181 15.7401 7.34296 15.719 7.22808 15.6628C7.1132 15.6066 7.01738 15.5179 6.95251 15.4077C6.88765 15.2974 6.85661 15.1706 6.86325 15.0429C6.75128 15.1057 6.62326 15.1341 6.49523 15.1245C6.3672 15.1149 6.24484 15.0678 6.14349 14.9889C6.04215 14.9101 5.96631 14.8031 5.9255 14.6814C5.88468 14.5597 5.88069 14.4286 5.91403 14.3046C5.79178 14.3441 5.66057 14.3467 5.53688 14.312C5.41318 14.2772 5.3025 14.2067 5.21872 14.1093C5.13519 14.0121 5.08213 13.8925 5.06616 13.7654C5.05018 13.6383 5.07199 13.5093 5.12887 13.3945C5.00182 13.408 4.87358 13.384 4.76007 13.3253C4.64657 13.2666 4.55279 13.1759 4.49039 13.0644C4.42798 12.9529 4.39969 12.8255 4.40903 12.6981C4.41838 12.5707 4.46494 12.4488 4.54293 12.3476C4.41492 12.3356 4.29331 12.286 4.19337 12.2051C4.09344 12.1242 4.01963 12.0156 3.98124 11.8929C3.94284 11.7702 3.94156 11.6389 3.97755 11.5154C4.01355 11.392 4.08522 11.282 4.18356 11.1991C4.06219 11.1607 3.95473 11.0876 3.87442 10.9888C3.7941 10.89 3.74445 10.7699 3.73158 10.6432C3.7187 10.5166 3.74317 10.3889 3.80197 10.276C3.86076 10.1631 3.95132 10.0698 4.06247 10.0077C3.95001 9.94645 3.85809 9.85342 3.79816 9.74024C3.73822 9.62706 3.71292 9.49875 3.72542 9.37129C3.73791 9.24384 3.78765 9.12288 3.86842 9.02349C3.9492 8.92411 4.05744 8.85071 4.17965 8.81242C4.08131 8.7296 4.00964 8.61955 3.97365 8.49612C3.93765 8.37269 3.93893 8.24137 3.97733 8.11866C4.01573 7.99596 4.08953 7.88733 4.18947 7.80644C4.2894 7.72554 4.41101 7.67598 4.53903 7.66399C4.45973 7.56284 4.41208 7.44053 4.40205 7.31241C4.39202 7.18428 4.42006 7.05604 4.48266 6.9438C4.54525 6.83155 4.6396 6.74029 4.75387 6.68148C4.86814 6.62266 4.99724 6.59891 5.12497 6.61321C5.06756 6.49877 5.0451 6.36997 5.06038 6.24285C5.07566 6.11574 5.12801 5.99593 5.2109 5.89836C5.38668 5.69524 5.66012 5.62492 5.90231 5.70305C5.86966 5.57869 5.87449 5.44746 5.91619 5.32583C5.95789 5.20421 6.0346 5.09762 6.13668 5.01946C6.23748 4.94153 6.35889 4.89483 6.48592 4.88511C6.61295 4.87539 6.74005 4.90308 6.85153 4.96477C6.84406 4.83673 6.8745 4.70933 6.93905 4.5985C7.00359 4.48767 7.09938 4.39832 7.21443 4.34163C7.32947 4.28494 7.45868 4.26342 7.58589 4.27977C7.7131 4.29611 7.83267 4.34959 7.92965 4.43352C7.94903 4.30748 8.00492 4.18988 8.09042 4.09527C8.17592 4.00066 8.28727 3.93318 8.41071 3.90118C8.53415 3.86918 8.66426 3.87405 8.78495 3.91521C8.90565 3.95636 9.01164 4.03199 9.08981 4.13274C9.13366 4.01246 9.21194 3.90774 9.31488 3.83163C9.41782 3.75552 9.54089 3.71138 9.66874 3.70472C9.79659 3.69806 9.92358 3.72916 10.0339 3.79416C10.1442 3.85915 10.2329 3.95517 10.289 4.07024C10.3561 3.96116 10.4539 3.87425 10.57 3.82033C10.6862 3.76642 10.8156 3.74789 10.9423 3.76705C11.0689 3.78621 11.1871 3.84221 11.2821 3.92808C11.3771 4.01395 11.4447 4.12588 11.4765 4.24992C11.564 4.156 11.6773 4.08998 11.8022 4.06014C11.927 4.0303 12.0579 4.03797 12.1784 4.08217C12.299 4.12638 12.4038 4.20516 12.4797 4.30866C12.5557 4.41215 12.5994 4.53575 12.6054 4.66399C12.7101 4.59056 12.834 4.54949 12.9618 4.54589C13.0895 4.54228 13.2156 4.5763 13.3242 4.64371C13.4328 4.71113 13.5192 4.80897 13.5727 4.92507C13.6261 5.04118 13.6443 5.17044 13.625 5.2968C13.8593 5.19524 14.1406 5.23821 14.3359 5.4218C14.4288 5.51027 14.4935 5.62416 14.522 5.74922C14.5505 5.87428 14.5414 6.00496 14.4961 6.12492C14.621 6.09824 14.7511 6.10885 14.8701 6.15543C14.9891 6.20201 15.0917 6.28251 15.1654 6.38694C15.239 6.49137 15.2804 6.61513 15.2843 6.74285C15.2882 6.87058 15.2546 6.99664 15.1875 7.10539C15.3154 7.10494 15.4406 7.14209 15.5475 7.21224C15.6545 7.28239 15.7385 7.38243 15.789 7.49992C15.8405 7.61757 15.8561 7.74779 15.8338 7.87426C15.8116 8.00072 15.7525 8.11782 15.664 8.21086C15.7885 8.23687 15.9026 8.29866 15.9924 8.38865C16.0821 8.47863 16.1437 8.59289 16.1694 8.71738C16.1951 8.84187 16.1839 8.97116 16.1372 9.08936C16.0904 9.20757 16.0101 9.30954 15.9062 9.38274C16.1406 9.4843 16.3047 9.71477 16.3047 9.9843V9.99992C16.3047 10.2695 16.1406 10.4999 15.9062 10.6015C16.0101 10.6744 16.0905 10.7761 16.1375 10.894C16.1845 11.0119 16.196 11.141 16.1707 11.2654C16.1454 11.3898 16.0844 11.5042 15.9951 11.5944C15.9058 11.6846 15.7921 11.7468 15.6679 11.7734C15.7573 11.8659 15.8173 11.9829 15.8404 12.1094C15.8635 12.236 15.8487 12.3666 15.7977 12.4848C15.7468 12.6029 15.662 12.7034 15.5542 12.7735C15.4463 12.8436 15.32 12.8803 15.1914 12.8788C15.2603 12.9874 15.2956 13.1139 15.2928 13.2425C15.29 13.3711 15.2493 13.496 15.1757 13.6015C15.1027 13.7063 15.0004 13.7874 14.8816 13.8346C14.7629 13.8818 14.6329 13.8931 14.5078 13.8671C14.5527 13.9874 14.5611 14.1184 14.5319 14.2434C14.5027 14.3685 14.4372 14.4822 14.3437 14.5702C14.1484 14.7538 13.8672 14.7929 13.6367 14.6952C13.6563 14.8213 13.6385 14.9503 13.5855 15.0663C13.5325 15.1824 13.4467 15.2803 13.3386 15.3481C13.2305 15.4159 13.1049 15.4504 12.9774 15.4476C12.8499 15.4447 12.726 15.4045 12.6211 15.332C12.615 15.4597 12.5716 15.5828 12.4961 15.686C12.4206 15.7893 12.3165 15.8681 12.1966 15.9126C12.0768 15.9571 11.9465 15.9654 11.8219 15.9365C11.6974 15.9076 11.584 15.8427 11.4961 15.7499C11.4649 15.875 11.3974 15.9881 11.3021 16.0748C11.2067 16.1616 11.0878 16.2182 10.9603 16.2374C10.8329 16.2566 10.7025 16.2376 10.5858 16.1829C10.4692 16.1281 10.3713 16.04 10.3047 15.9296C10.2487 16.0451 10.16 16.1416 10.0495 16.2069C9.93901 16.2722 9.81173 16.3035 9.68356 16.2968H9.68747Z" fill="#EEEEEE"/>
<path d="M9.99993 14.3476C12.4011 14.3476 14.3476 12.4011 14.3476 9.99993C14.3476 7.59879 12.4011 5.65228 9.99993 5.65228C7.59879 5.65228 5.65228 7.59879 5.65228 9.99993C5.65228 12.4011 7.59879 14.3476 9.99993 14.3476Z" fill="#338AF3"/>
<path d="M10.9531 8.52344C11.1641 8.36719 11.3047 8.11328 11.3047 7.82422V7.39453C11.3047 6.91016 10.9141 6.52344 10.4336 6.52344H9.57031C9.08984 6.52344 8.69922 6.91406 8.69922 7.39062V7.82422C8.69922 8.11328 8.83984 8.36719 9.05078 8.52734L8.26172 16.5234C8.26172 16.5234 8.69531 16.9531 10 16.9531C11.3047 16.9531 11.7383 16.5234 11.7383 16.5234L10.9531 8.52344Z" fill="#ACABB1"/>
<path d="M9.99997 6.52344L10.7539 8.84766H13.2031L11.2265 10.2852L11.9804 12.6094L9.99997 11.1719L8.02341 12.6094L8.77731 10.2852L6.80075 8.84766H9.24606L9.99997 6.52344Z" fill="#EEEEEE"/>
</svg>
