<svg width="20" height="20" viewBox="0 0 20 20" fill="none" xmlns="http://www.w3.org/2000/svg">
<path d="M10 20C15.5228 20 20 15.5228 20 10C20 4.47715 15.5228 0 10 0C4.47715 0 0 4.47715 0 10C0 15.5228 4.47715 20 10 20Z" fill="#EEEEEE"/>
<path d="M19.9141 8.69524C19.6406 6.58587 18.6914 4.55071 17.0703 2.92962C15.4492 1.30853 13.4141 0.363213 11.3047 0.0858688V8.69524H19.9141ZM8.69531 0.0858688C6.58594 0.359306 4.55078 1.30853 2.92969 2.92962C1.37035 4.4842 0.370281 6.51181 0.0859375 8.69524H8.69531V0.0858688ZM0.0859375 11.3046C0.359375 13.414 1.30859 15.4492 2.92969 17.0702C4.48427 18.6296 6.51187 19.6297 8.69531 19.914V11.3046H0.0859375ZM11.3047 19.914C13.4141 19.6406 15.4492 18.6913 17.0703 17.0702C18.6914 15.4492 19.6367 13.414 19.9141 11.3046H11.3047V19.914Z" fill="#0052B4"/>
<path d="M13.4141 6.34362C13.4151 6.28007 13.4411 6.21947 13.4864 6.17489C13.5317 6.13031 13.5927 6.10533 13.6563 6.10534H14.1719C14.5519 6.08583 14.9099 5.92113 15.1719 5.64526C15.434 5.36939 15.5801 5.00342 15.5801 4.62292C15.5801 4.24241 15.434 3.87644 15.1719 3.60057C14.9099 3.3247 14.5519 3.16001 14.1719 3.1405H13.6797C13.5234 3.02331 13.3047 2.94518 13.0703 2.94518C12.5742 2.94518 12.1719 3.2694 12.1719 3.66393C12.1719 4.05456 12.5664 4.37487 13.0547 4.37878H14.1719C14.2361 4.37878 14.2977 4.40429 14.3431 4.44971C14.3886 4.49513 14.4141 4.55673 14.4141 4.62096C14.4141 4.6852 14.3886 4.7468 14.3431 4.79222C14.2977 4.83764 14.2361 4.86315 14.1719 4.86315H13.6563C13.2822 4.89034 12.9323 5.05813 12.6769 5.33277C12.4215 5.60742 12.2795 5.96857 12.2795 6.34362C12.2795 6.71867 12.4215 7.07982 12.6769 7.35447C12.9323 7.62911 13.2822 7.7969 13.6563 7.82409H15.6524V6.58581H13.6563C13.592 6.58581 13.5304 6.56029 13.485 6.51487C13.4396 6.46945 13.4141 6.40785 13.4141 6.34362ZM5.58595 6.34362C5.58697 6.28007 5.61294 6.21947 5.65825 6.17489C5.70355 6.13031 5.76457 6.10533 5.82813 6.10534H6.34376C6.72376 6.08583 7.08176 5.92113 7.34382 5.64526C7.60589 5.36939 7.75201 5.00342 7.75201 4.62292C7.75201 4.24241 7.60589 3.87644 7.34382 3.60057C7.08176 3.3247 6.72376 3.16001 6.34376 3.1405H5.85938C5.69923 3.02331 5.48438 2.94518 5.2461 2.94518C4.75391 2.94518 4.35157 3.2694 4.35157 3.66393C4.35157 4.05456 4.7422 4.37487 5.23438 4.37878H6.34766C6.4119 4.37878 6.4735 4.40429 6.51892 4.44971C6.56434 4.49513 6.58985 4.55673 6.58985 4.62096C6.58985 4.6852 6.56434 4.7468 6.51892 4.79222C6.4735 4.83764 6.4119 4.86315 6.34766 4.86315H5.83204C5.45797 4.89034 5.10807 5.05813 4.85266 5.33277C4.59725 5.60742 4.45528 5.96857 4.45528 6.34362C4.45528 6.71867 4.59725 7.07982 4.85266 7.35447C5.10807 7.62911 5.45797 7.7969 5.83204 7.82409H7.82813V6.58581H5.83594C5.80381 6.58633 5.7719 6.58044 5.74206 6.56851C5.71223 6.55657 5.68507 6.53881 5.66216 6.51627C5.63926 6.49373 5.62107 6.46685 5.60865 6.43721C5.59624 6.40757 5.58985 6.37576 5.58985 6.34362H5.58595ZM13.4141 15.5702C13.4141 15.506 13.4396 15.4443 13.485 15.3989C13.5304 15.3535 13.592 15.328 13.6563 15.328H14.1719C14.5459 15.3008 14.8959 15.133 15.1513 14.8584C15.4067 14.5837 15.5486 14.2226 15.5486 13.8475C15.5486 13.4725 15.4067 13.1113 15.1513 12.8367C14.8959 12.562 14.5459 12.3942 14.1719 12.3671H13.6797C13.5234 12.2499 13.3047 12.1717 13.0703 12.1717C12.5742 12.1717 12.1719 12.496 12.1719 12.8905C12.1719 13.2811 12.5664 13.5975 13.0547 13.6053H14.1719C14.2361 13.6053 14.2977 13.6309 14.3431 13.6763C14.3886 13.7217 14.4141 13.7833 14.4141 13.8475C14.4141 13.9118 14.3886 13.9734 14.3431 14.0188C14.2977 14.0642 14.2361 14.0897 14.1719 14.0897H13.6563C13.2822 14.1169 12.9323 14.2847 12.6769 14.5593C12.4215 14.834 12.2795 15.1951 12.2795 15.5702C12.2795 15.9452 12.4215 16.3064 12.6769 16.581C12.9323 16.8557 13.2822 17.0235 13.6563 17.0507H15.6484V15.8124H13.6563C13.592 15.8124 13.5304 15.7869 13.485 15.7414C13.4396 15.696 13.4141 15.6344 13.4141 15.5702ZM5.58595 15.5702C5.58595 15.506 5.61146 15.4443 5.65688 15.3989C5.7023 15.3535 5.7639 15.328 5.82813 15.328H6.34376C6.71782 15.3008 7.06773 15.133 7.32313 14.8584C7.57854 14.5837 7.72052 14.2226 7.72052 13.8475C7.72052 13.4725 7.57854 13.1113 7.32313 12.8367C7.06773 12.562 6.71782 12.3942 6.34376 12.3671H5.85938C5.69923 12.2499 5.48438 12.1717 5.2461 12.1717C4.75391 12.1717 4.35157 12.496 4.35157 12.8905C4.35157 13.2811 4.7422 13.5975 5.23438 13.6053H6.34766C6.4119 13.6053 6.4735 13.6309 6.51892 13.6763C6.56434 13.7217 6.58985 13.7833 6.58985 13.8475C6.58985 13.9118 6.56434 13.9734 6.51892 14.0188C6.4735 14.0642 6.4119 14.0897 6.34766 14.0897H5.83204C5.45797 14.1169 5.10807 14.2847 4.85266 14.5593C4.59725 14.834 4.45528 15.1951 4.45528 15.5702C4.45528 15.9452 4.59725 16.3064 4.85266 16.581C5.10807 16.8557 5.45797 17.0235 5.83204 17.0507H7.82813V15.8124H5.83594C5.80381 15.8129 5.7719 15.807 5.74206 15.7951C5.71223 15.7831 5.68507 15.7654 5.66216 15.7428C5.63926 15.7203 5.62107 15.6934 5.60865 15.6638C5.59624 15.6341 5.58985 15.6023 5.58985 15.5702H5.58595Z" fill="#EEEEEE"/>
</svg>
