<svg width="20" height="20" viewBox="0 0 20 20" fill="none" xmlns="http://www.w3.org/2000/svg">
<path d="M10 20C15.5228 20 20 15.5228 20 10C20 4.47715 15.5228 0 10 0C4.47715 0 0 4.47715 0 10C0 15.5228 4.47715 20 10 20Z" fill="#496E2D"/>
<path d="M10 11.5548C9.20655 11.5552 8.43681 11.2842 7.81861 10.7868C7.20041 10.2894 6.77096 9.59555 6.60157 8.82038C6.54909 9.06428 6.5229 9.31309 6.52345 9.56257C6.52345 10.4846 6.88973 11.3689 7.54171 12.0209C8.19369 12.6728 9.07797 13.0391 10 13.0391C10.9221 13.0391 11.8063 12.6728 12.4583 12.0209C13.1103 11.3689 13.4766 10.4846 13.4766 9.56257C13.4771 9.31309 13.4509 9.06428 13.3984 8.82038C13.2291 9.59555 12.7996 10.2894 12.1814 10.7868C11.5632 11.2842 10.7935 11.5552 10 11.5548Z" fill="#FFDA44"/>
<path d="M10 6.95312L10.3242 7.95313H11.3672L10.5195 8.57031L10.8438 9.56641L10 8.94531L9.15236 9.5625L9.47658 8.56641L8.62892 7.94922H9.6758L10 6.95312Z" fill="#FFDA44"/>
</svg>
