<svg width="20" height="20" viewBox="0 0 20 20" fill="none" xmlns="http://www.w3.org/2000/svg">
<path d="M20 10C20 12.6522 18.9464 15.1957 17.0711 17.0711C15.1957 18.9464 12.6522 20 10 20C7.34784 20 4.8043 18.9464 2.92893 17.0711C1.05357 15.1957 0 12.6522 0 10L10 0C12.6522 0 15.1957 1.05357 17.0711 2.92893C18.9464 4.8043 20 7.34784 20 10Z" fill="#0052B4"/>
<path d="M9.97264 10.0001H9.99998V9.97272L9.97264 10.0001Z" fill="#EEEEEE"/>
<path d="M10 5.21875V0C7.34784 0 4.8043 1.05357 2.92893 2.92893C1.05357 4.8043 0 7.34784 0 10H5.21875V7.0625L8.15625 10H9.97266L10 9.97266V8.15625L7.0625 5.21875H10Z" fill="#EEEEEE"/>
<path d="M5.05858 1.30456C3.49333 2.19665 2.19676 3.49322 1.30467 5.05846V9.99987H3.91405V3.91393H9.99998V1.30456H5.05858Z" fill="#D80027"/>
<path d="M10 8.76953L6.44531 5.21484H5.21875L10 10V8.76953Z" fill="#D80027"/>
<path d="M11.3047 5.21889V10.0001C11.3047 12.3283 14.3476 13.047 14.3476 13.047C14.3476 13.047 17.3945 12.3283 17.3945 10.0001V5.21889H11.3008H11.3047Z" fill="#338AF3"/>
<path d="M11.3047 10C11.3047 12.3281 14.3476 13.0469 14.3476 13.0469C14.3476 13.0469 17.3945 12.3281 17.3945 10H11.3008H11.3047Z" fill="#A2001D"/>
<path d="M15.6523 7.39062H14.7812V6.52344H13.914V7.39062H13.043V8.26172H13.914V10.8711H14.7812V8.26172H15.6523V7.39062Z" fill="#333333"/>
</svg>
