<svg width="20" height="20" viewBox="0 0 20 20" fill="none" xmlns="http://www.w3.org/2000/svg">
<g clip-path="url(#clip0)">
<path d="M1.21481 5.2188L9.99997 6.08599L18.7851 5.2188C17.9259 3.63861 16.6563 2.31943 15.1102 1.40026C13.5641 0.481079 11.7987 -0.00406647 9.99997 -0.00406647C8.20126 -0.00406647 6.43586 0.481079 4.88975 1.40026C3.34364 2.31943 2.07408 3.63861 1.21481 5.2188Z" fill="#D80027"/>
<path d="M1.21484 14.7812L10 15.6523L18.7852 14.7812C19.5586 13.3632 20 11.7343 20 9.99993L10 9.12884L0 9.99993C0 11.7343 0.441406 13.3593 1.21484 14.7812Z" fill="#FFDA44"/>
<path d="M1.21482 5.21889C0.415229 6.6855 -0.0025411 8.32971 -1.9167e-05 10.0001H20C20 8.26576 19.5586 6.64076 18.7851 5.21889H1.21092H1.21482Z" fill="#0052B4"/>
<path d="M10 19.9999C13.7891 19.9999 17.0898 17.8905 18.7852 14.7811H1.21094C2.07106 16.3611 3.34147 17.6798 4.88829 18.5983C6.43511 19.5168 8.20105 20.001 10 19.9999Z" fill="#6DA544"/>
</g>
<defs>
<clipPath id="clip0">
<rect width="20" height="20" fill="white"/>
</clipPath>
</defs>
</svg>
