<svg width="20" height="20" viewBox="0 0 20 20" fill="none" xmlns="http://www.w3.org/2000/svg">
<g clip-path="url(#clip0)">
<path d="M10 20C15.5228 20 20 15.5228 20 10C20 4.47715 15.5228 0 10 0C4.47715 0 0 4.47715 0 10C0 15.5228 4.47715 20 10 20Z" fill="#EEEEEE"/>
<path d="M20 9.99987C20.0004 8.11878 19.4703 6.2757 18.4704 4.68233C17.4706 3.08895 16.0416 1.80989 14.3476 0.992058V19.0077C16.0416 18.1898 17.4706 16.9108 18.4704 15.3174C19.4703 13.724 20.0004 11.881 20 9.99987Z" fill="#D80027"/>
<path d="M2.82363e-07 9.99987C-0.000446655 11.881 0.52969 13.724 1.52952 15.3174C2.52936 16.9108 3.95834 18.1898 5.65234 19.0077V0.992058C3.95834 1.80989 2.52936 3.08895 1.52952 4.68233C0.52969 6.2757 -0.000446655 8.11878 2.82363e-07 9.99987ZM7.39062 9.99987C7.39062 10.6919 7.66554 11.3556 8.15489 11.845C8.64425 12.3343 9.30795 12.6092 10 12.6092C10.692 12.6092 11.3558 12.3343 11.8451 11.845C12.3345 11.3556 12.6094 10.6919 12.6094 9.99987V9.12878H7.39062V9.99987Z" fill="#6DA544"/>
<path d="M13.4766 8.26165H10.8711C10.8711 8.03062 10.7793 7.80906 10.616 7.64569C10.4526 7.48233 10.231 7.39056 10 7.39056C9.76897 7.39056 9.54741 7.48233 9.38404 7.64569C9.22068 7.80906 9.12891 8.03062 9.12891 8.26165H6.52344C6.53154 8.49448 6.62976 8.71505 6.79738 8.87684C6.965 9.03863 7.18891 9.12898 7.42188 9.12884H7.39062C7.39062 9.60931 7.78125 9.99994 8.26172 9.99994C8.26172 10.4804 8.65234 10.871 9.12891 10.871H10.8711C11.3516 10.871 11.7383 10.4804 11.7383 9.99994C12.2188 9.99994 12.6094 9.60931 12.6094 9.12884H12.5781C12.8111 9.12898 13.035 9.03863 13.2026 8.87684C13.3702 8.71505 13.4685 8.49448 13.4766 8.26165Z" fill="#FF9811"/>
</g>
<defs>
<clipPath id="clip0">
<rect width="20" height="20" fill="white"/>
</clipPath>
</defs>
</svg>
