<svg width="20" height="20" viewBox="0 0 20 20" fill="none" xmlns="http://www.w3.org/2000/svg">
<g clip-path="url(#clip0)">
<path d="M10 20C15.5228 20 20 15.5228 20 10C20 4.47715 15.5228 0 10 0C4.47715 0 0 4.47715 0 10C0 15.5228 4.47715 20 10 20Z" fill="#EEEEEE"/>
<path d="M5.40625 13.914L2.92969 17.0702C4.08682 18.2275 5.51028 19.0831 7.07518 19.5619C8.64007 20.0407 10.2986 20.1282 11.9051 19.8166C13.5117 19.505 15.0173 18.8039 16.2897 17.7747C17.5621 16.7456 18.5625 15.4199 19.2031 13.914H5.40625Z" fill="#FFDA44"/>
<path d="M19.2188 6.12496C18.5831 4.61319 17.5854 3.28096 16.3135 2.24564C15.0417 1.21032 13.5347 0.503689 11.9254 0.188004C10.3161 -0.127681 8.65389 -0.0427289 7.08516 0.435375C5.51643 0.913478 4.08936 1.77006 2.92969 2.92965L5.43359 6.12496H19.2227H19.2188Z" fill="#496E2D"/>
<path d="M2.17572 7.35554V12.6094H19.6562C20.1205 10.8884 20.1164 9.07452 19.6445 7.35554H2.17572Z" fill="#333333"/>
<path d="M2.9297 2.92969C1.0548 4.80499 0.00152588 7.34821 0.00152588 10C0.00152588 12.6518 1.0548 15.195 2.9297 17.0703L10 10L2.9297 2.92969Z" fill="#A2001D"/>
<path d="M4.04691 7.39056L4.69534 9.38275H6.78909L5.09378 10.6171L5.74222 12.6093L4.04691 11.3788L2.35159 12.6093L3.00003 10.6171L1.30472 9.38275H3.39847L4.04691 7.39056Z" fill="#FFDA44"/>
<path d="M2.15231 10H5.94138V11.7383H2.15231V10Z" fill="#EEEEEE"/>
<path d="M6.6601 8.00774L6.04681 7.39056L4.04681 9.39056L2.05072 7.39056L1.43353 8.00774L3.43744 9.99993L1.43744 12.0038L2.05463 12.6093L4.05072 10.6171L6.05072 12.6093L6.664 12.0038L4.664 10.0038L6.6601 8.00774Z" fill="#333333"/>
</g>
<defs>
<clipPath id="clip0">
<rect width="20" height="20" fill="white"/>
</clipPath>
</defs>
</svg>
