<svg width="20" height="20" viewBox="0 0 20 20" fill="none" xmlns="http://www.w3.org/2000/svg">
<g clip-path="url(#clip0)">
<path d="M10 20C15.5228 20 20 15.5228 20 10C20 4.47715 15.5228 0 10 0C4.47715 0 0 4.47715 0 10C0 15.5228 4.47715 20 10 20Z" fill="#EEEEEE"/>
<path d="M2.92969 17.0702C3.34154 17.4833 3.78854 17.8597 4.26562 18.1952L18.1953 4.26556C17.8598 3.78846 17.4833 3.34146 17.0703 2.92963C16.6585 2.5166 16.2115 2.14018 15.7344 1.80463L1.80469 15.7343C2.14026 16.2114 2.51668 16.6584 2.92969 17.0702Z" fill="#A2001D"/>
<path d="M2.92969 2.92969C1.43007 4.42889 0.445621 6.36583 0.118438 8.46093C-0.208745 10.556 0.138263 12.7009 1.10937 14.5859L14.5859 1.10937C12.7009 0.138263 10.556 -0.208745 8.46093 0.118438C6.36583 0.445621 4.42889 1.43007 2.92969 2.92969Z" fill="#0052B4"/>
<path d="M17.0703 17.0704C18.5699 15.5712 19.5544 13.6343 19.8816 11.5392C20.2087 9.44412 19.8617 7.29925 18.8906 5.4142L5.41406 18.8908C7.29911 19.8619 9.44398 20.2089 11.5391 19.8817C13.6342 19.5545 15.5711 18.5701 17.0703 17.0704Z" fill="#496E2D"/>
<path d="M8.26172 5.65221L7.14062 6.17955L7.73438 7.26549L6.51562 7.03111L6.35938 8.26158L5.51562 7.35533L4.66797 8.26158L4.51172 7.03111L3.29688 7.26549L3.89453 6.17955L2.77344 5.65221L3.89453 5.12486L3.29688 4.03893L4.51172 4.2733L4.66797 3.04283L5.51562 3.94908L6.36719 3.04283L6.52344 4.2733L7.73438 4.03893L7.14062 5.12486L8.26172 5.65221Z" fill="#FFDA44"/>
</g>
<defs>
<clipPath id="clip0">
<rect width="20" height="20" fill="white"/>
</clipPath>
</defs>
</svg>
