<svg width="20" height="20" viewBox="0 0 20 20" fill="none" xmlns="http://www.w3.org/2000/svg">
<path d="M10 20C15.5228 20 20 15.5228 20 10C20 4.47715 15.5228 0 10 0C4.47715 0 0 4.47715 0 10C0 15.5228 4.47715 20 10 20Z" fill="#0052B4"/>
<path d="M14.293 10.6994L16.0898 10.0001L14.293 9.30092L13.3047 8.91811L11.7031 8.29311L11.0781 6.69154C11.5977 6.86239 12.0699 7.15289 12.4566 7.53963C12.8433 7.92637 13.1338 8.39854 13.3047 8.91811L14.293 9.30092C14.1427 8.40227 13.7157 7.57295 13.0714 6.9287C12.4272 6.28444 11.5979 5.8574 10.6992 5.70717L10 3.91029L9.30078 5.70717C8.40214 5.8574 7.57281 6.28444 6.92856 6.9287C6.2843 7.57295 5.85726 8.40227 5.70703 9.30092L3.91016 10.0001L5.70703 10.6994C5.85726 11.598 6.2843 12.4273 6.92856 13.0716C7.57281 13.7158 8.40214 14.1429 9.30078 14.2931L10 16.09L10.6992 14.2931C11.5979 14.1429 12.4272 13.7158 13.0714 13.0716C13.7157 12.4273 14.1427 11.598 14.293 10.6994ZM11.0312 8.96889L10 10.0001H13.6875L11.0312 11.0314L10 10.0001V13.6876L8.96875 11.0314L10 10.0001H6.3125L8.96875 8.96889L10 10.0001V6.31264L11.0312 8.96889ZM8.92187 6.69545L8.29687 8.29701L6.69531 8.92201C6.86616 8.40245 7.15666 7.93028 7.5434 7.54353C7.93014 7.15679 8.40231 6.8663 8.92187 6.69545ZM6.69531 11.0822L8.29687 11.7072L8.92187 13.3087C8.40231 13.1379 7.93014 12.8474 7.5434 12.4606C7.15666 12.0739 6.86616 11.6017 6.69531 11.0822ZM11.082 13.3087L11.707 11.7072L13.3086 11.0822C13.1377 11.6017 12.8472 12.0739 12.4605 12.4606C12.0738 12.8474 11.6016 13.1379 11.082 13.3087Z" fill="#EEEEEE"/>
<path d="M13.6875 10.0001H10L11.0313 11.0314L13.6875 10.0001ZM6.31252 10.0001H10L8.96876 8.96889L6.31252 10.0001ZM10 13.6876V10.0001L8.96876 11.0314L10 13.6876ZM10 10.0001L11.0313 8.96889L10 6.31264V10.0001Z" fill="#0052B4"/>
<path d="M9.56641 1.30455H10.4297V3.04283H9.57031L9.56641 1.30455ZM1.30469 9.56627H3.04297V10.4296H1.30469V9.56627ZM9.56641 16.953H10.4297V18.6913H9.57031L9.56641 16.953ZM16.9531 9.56627H18.6914V10.4296H16.9531V9.56627Z" fill="#EEEEEE"/>
</svg>
