<svg width="20" height="20" viewBox="0 0 20 20" fill="none" xmlns="http://www.w3.org/2000/svg">
<g clip-path="url(#clip0)">
<path d="M0.992188 5.65221C0.355469 6.96861 0 8.44127 0 9.99986C0 11.5585 0.355469 13.0311 0.992188 14.3475L10 15.2186L19.0078 14.3475C19.6445 13.0311 20 11.5585 20 9.99986C20 8.44127 19.6445 6.96861 19.0078 5.65221L10 4.78111L0.992188 5.65221Z" fill="#EEEEEE"/>
<path d="M0.992172 14.3477C1.80931 16.0427 3.08807 17.4727 4.68149 18.4734C6.27492 19.4741 8.11837 20.005 9.99998 20.005C11.8816 20.005 13.725 19.4741 15.3185 18.4734C16.9119 17.4727 18.1907 16.0427 19.0078 14.3477H0.992172Z" fill="#6DA544"/>
<path d="M0.992172 5.65231H19.0078C18.1907 3.95738 16.9119 2.52739 15.3185 1.52665C13.725 0.525912 11.8816 -0.00495911 9.99998 -0.00495911C8.11837 -0.00495911 6.27492 0.525912 4.68149 1.52665C3.08807 2.52739 1.80931 3.95738 0.992172 5.65231Z" fill="#FF9811"/>
<path d="M10 13.4766C11.9201 13.4766 13.4766 11.9201 13.4766 10C13.4766 8.07995 11.9201 6.52344 10 6.52344C8.07995 6.52344 6.52344 8.07995 6.52344 10C6.52344 11.9201 8.07995 13.4766 10 13.4766Z" fill="#FF9811"/>
</g>
<defs>
<clipPath id="clip0">
<rect width="20" height="20" fill="white"/>
</clipPath>
</defs>
</svg>
