<svg width="20" height="20" viewBox="0 0 20 20" fill="none" xmlns="http://www.w3.org/2000/svg">
<g clip-path="url(#clip0)">
<path d="M14.3476 0.992188C13.0312 0.355469 11.5586 0 9.99999 0C8.44139 0 6.96873 0.355469 5.65233 0.992188L4.78123 10L5.65233 19.0078C6.96873 19.6445 8.44139 20 9.99999 20C11.5586 20 13.0312 19.6445 14.3476 19.0078L15.2187 10L14.3476 0.992188Z" fill="#EEEEEE"/>
<path d="M5.65236 0.99205C3.95743 1.80919 2.52743 3.08794 1.5267 4.68137C0.525958 6.2748 -0.00491333 8.11824 -0.00491333 9.99986C-0.00491333 11.8815 0.525958 13.7249 1.5267 15.3184C2.52743 16.9118 3.95743 18.1905 5.65236 19.0077V0.99205ZM14.3477 0.99205V19.0077C16.0426 18.1905 17.4726 16.9118 18.4733 15.3184C19.4741 13.7249 20.0049 11.8815 20.0049 9.99986C20.0049 8.11824 19.4741 6.2748 18.4733 4.68137C17.4726 3.08794 16.0426 1.80919 14.3477 0.99205ZM12.6094 13.0467L10 4.78111L7.39064 13.0467H9.34767V15.2225H10.6524V13.0467H12.6094Z" fill="#6DA544"/>
</g>
<defs>
<clipPath id="clip0">
<rect width="20" height="20" fill="white"/>
</clipPath>
</defs>
</svg>
