<svg width="20" height="20" viewBox="0 0 20 20" fill="none" xmlns="http://www.w3.org/2000/svg">
<g clip-path="url(#clip0)">
<path d="M10 20C15.5228 20 20 15.5228 20 10C20 4.47715 15.5228 0 10 0C4.47715 0 0 4.47715 0 10C0 15.5228 4.47715 20 10 20Z" fill="#EEEEEE"/>
<path d="M10 2.82363e-07C8.11894 -0.000446655 6.27586 0.52969 4.68249 1.52952C3.08911 2.52936 1.81005 3.95834 0.992218 5.65234H19.0078C18.19 3.95834 16.911 2.52936 15.3176 1.52952C13.7242 0.52969 11.8811 -0.000446655 10 2.82363e-07ZM10 20C11.8811 20.0004 13.7242 19.4703 15.3176 18.4705C16.911 17.4706 18.19 16.0417 19.0078 14.3477H0.992218C1.81005 16.0417 3.08911 17.4706 4.68249 18.4705C6.27586 19.4703 8.11894 20.0004 10 20Z" fill="#338AF3"/>
<path d="M10 6.95312C9.19192 6.95313 8.41693 7.27413 7.84553 7.84553C7.27413 8.41693 6.95312 9.19192 6.95313 10C6.95312 10.8081 7.27413 11.5831 7.84553 12.1545C8.41693 12.7259 9.19192 13.0469 10 13.0469C10.8081 13.0469 11.5831 12.7259 12.1545 12.1545C12.7259 11.5831 13.0469 10.8081 13.0469 10C13.0469 9.19192 12.7259 8.41693 12.1545 7.84553C11.5831 7.27413 10.8081 6.95312 10 6.95312ZM10 11.7383C9.53898 11.7383 9.09684 11.5551 8.77085 11.2292C8.44486 10.9032 8.26172 10.461 8.26172 10C8.26172 9.53898 8.44486 9.09684 8.77085 8.77085C9.09684 8.44486 9.53898 8.26172 10 8.26172C10.461 8.26172 10.9032 8.44486 11.2292 8.77085C11.5551 9.09684 11.7383 9.53898 11.7383 10C11.7383 10.461 11.5551 10.9032 11.2292 11.2292C10.9032 11.5551 10.461 11.7383 10 11.7383Z" fill="#FFDA44"/>
<path d="M11.5078 10.4336L9.99997 10L8.49216 10.4336L7.99216 11.3047H12.0078L11.5078 10.4336Z" fill="#0052B4"/>
<path d="M9.99998 7.8243L8.99608 9.57039L9.99998 10.0001L11.0039 9.56648L9.99998 7.8243Z" fill="#338AF3"/>
<path d="M8.49222 10.4336H11.5078L11.0039 9.57031H8.99612L8.49222 10.4336Z" fill="#6DA544"/>
</g>
<defs>
<clipPath id="clip0">
<rect width="20" height="20" fill="white"/>
</clipPath>
</defs>
</svg>
