<svg width="20" height="20" viewBox="0 0 20 20" fill="none" xmlns="http://www.w3.org/2000/svg">
<g clip-path="url(#clip0)">
<path d="M10 20C15.5228 20 20 15.5228 20 10C20 4.47715 15.5228 0 10 0C4.47715 0 0 4.47715 0 10C0 15.5228 4.47715 20 10 20Z" fill="#EEEEEE"/>
<path d="M0.343732 12.6095C0.918639 14.7263 2.17306 16.5956 3.91404 17.9299V12.6095H0.343732ZM9.13279 19.9611C9.42116 19.9865 9.71049 19.9995 9.99998 20.0002C12.198 20.0008 14.335 19.2771 16.0805 17.9412C17.826 16.6053 19.0827 14.7314 19.6562 12.6095H9.12889V19.9611H9.13279ZM19.6562 7.39079C19.0435 5.12463 17.653 3.14628 15.7283 1.80222C13.8036 0.458149 11.4674 -0.165947 9.12889 0.0392283V7.39079H19.6562ZM3.91404 2.07048C2.17306 3.40473 0.918639 5.27401 0.343732 7.39079H3.91404V2.07048Z" fill="#D80027"/>
<path d="M19.9141 8.69545H7.82426V0.238419C6.91425 0.44009 6.03716 0.768835 5.21879 1.21498V8.69545H0.0859753C-0.027013 9.56157 -0.027013 10.4387 0.0859753 11.3048H5.21879V18.7853C6.03716 19.2314 6.91425 19.5602 7.82426 19.7619V11.3048H19.9141C20.0269 10.4387 20.0269 9.56158 19.9141 8.69545Z" fill="#0052B4"/>
</g>
<defs>
<clipPath id="clip0">
<rect width="20" height="20" fill="white"/>
</clipPath>
</defs>
</svg>
