<svg width="20" height="20" viewBox="0 0 20 20" fill="none" xmlns="http://www.w3.org/2000/svg">
<path d="M10 20C15.5228 20 20 15.5228 20 10C20 4.47715 15.5228 0 10 0C4.47715 0 0 4.47715 0 10C0 15.5228 4.47715 20 10 20Z" fill="#EEEEEE"/>
<path d="M2.42184 3.47656C2.06959 3.88514 1.75085 4.32145 1.46872 4.78125H18.5312C18.2504 4.32157 17.9329 3.88527 17.582 3.47656H2.41793H2.42184ZM2.42184 16.5234H17.5781C17.9303 16.1149 18.2491 15.6785 18.5312 15.2188H1.46872C1.74959 15.6784 2.06702 16.1147 2.41793 16.5234H2.42184ZM8.71872 8.17188L9.53903 9.30469L10.8672 8.87109L10.0468 10.0039L10.8672 11.1328L9.53903 10.6992L8.71872 11.832V10.4297L7.39059 9.99609L8.71872 9.56641V8.17188Z" fill="#D80027"/>
<path d="M6.48438 12.8241C6.05503 12.8235 5.63146 12.725 5.24589 12.5362C4.86031 12.3473 4.52288 12.073 4.25924 11.7341C3.9956 11.3952 3.81269 11.0007 3.72442 10.5805C3.63615 10.1603 3.64485 9.72557 3.74985 9.30925C3.85484 8.89294 4.05338 8.50604 4.33036 8.17798C4.60734 7.84992 4.95547 7.58932 5.34829 7.41601C5.74111 7.2427 6.16827 7.16123 6.5973 7.1778C7.02633 7.19437 7.44594 7.30854 7.82422 7.51163C7.3349 7.0334 6.71535 6.71019 6.04317 6.58249C5.37099 6.45478 4.67607 6.52826 4.04546 6.79371C3.41484 7.05917 2.87658 7.50479 2.49809 8.07478C2.1196 8.64476 1.91771 9.31375 1.91771 9.99796C1.91771 10.6822 2.1196 11.3512 2.49809 11.9211C2.87658 12.4911 3.41484 12.9367 4.04546 13.2022C4.67607 13.4677 5.37099 13.5411 6.04317 13.4134C6.71535 13.2857 7.3349 12.9625 7.82422 12.4843C7.41167 12.7079 6.94973 12.8247 6.48047 12.8241H6.48438Z" fill="#D80027"/>
</svg>
