<svg width="20" height="20" viewBox="0 0 20 20" fill="none" xmlns="http://www.w3.org/2000/svg">
<path d="M10 20C15.5228 20 20 15.5228 20 10C20 4.47715 15.5228 0 10 0C4.47715 0 0 4.47715 0 10C0 15.5228 4.47715 20 10 20Z" fill="#EEEEEE"/>
<path d="M19.9414 11.086L8.97266 0.0508423C8.4852 0.101139 8.00212 0.18731 7.52734 0.308655C3.19531 1.41022 0.0390625 10.0001 0.0390625 10.0001C0.0390625 10.0001 14 19.3672 15.5977 18.2891C15.918 18.0743 16.2227 17.836 16.5156 17.586L10.0156 11.086H19.9375H19.9414Z" fill="#0052B4"/>
<path d="M17.3906 10L7.66406 0.273438C6.23881 0.616707 4.90647 1.26915 3.76139 2.18455C2.61631 3.09996 1.6865 4.25593 1.03782 5.57062C0.389137 6.8853 0.0374478 8.32653 0.00765744 9.79223C-0.0221329 11.2579 0.270705 12.7123 0.865431 14.0522C1.46016 15.3922 2.34223 16.585 3.44916 17.5462C4.5561 18.5073 5.86084 19.2134 7.27096 19.6143C8.68109 20.0152 10.1621 20.1011 11.6092 19.866C13.0562 19.6309 14.4338 19.0806 15.6445 18.2539L7.39063 10H17.3906Z" fill="#D80027"/>
<path d="M9.51176 14.7656L8.2891 14.1914L8.94535 13.0078L7.61723 13.2617L7.44926 11.9219L6.52738 12.9062L5.6016 11.9219L5.43363 13.2617L4.10551 13.0078L4.75785 14.1914L3.53129 14.7656L4.75394 15.3398L4.10551 16.5234L5.43363 16.2695L5.59769 17.6094L6.52348 16.625L7.44535 17.6094L7.61332 16.2695L8.94144 16.5234L8.2891 15.3398L9.51176 14.7656ZM5.8516 3.47656L5.7266 4.45312L4.76176 4.26953L5.23441 5.12891L4.34769 5.54688H3.9141C3.9402 6.22094 4.22632 6.85871 4.71246 7.32639C5.19859 7.79407 5.84695 8.05531 6.52152 8.05531C7.19609 8.05531 7.84446 7.79407 8.33059 7.32639C8.81672 6.85871 9.10285 6.22094 9.12894 5.54688H8.69535L7.81254 5.12891L8.28129 4.26953L7.32035 4.45312L7.19926 3.47656L6.52738 4.19531L5.8516 3.47656Z" fill="#EEEEEE"/>
</svg>
