<svg width="20" height="20" viewBox="0 0 20 20" fill="none" xmlns="http://www.w3.org/2000/svg">
<g clip-path="url(#clip0)">
<path d="M10 20C15.5228 20 20 15.5228 20 10C20 4.47715 15.5228 0 10 0C4.47715 0 0 4.47715 0 10C0 15.5228 4.47715 20 10 20Z" fill="#0052B4"/>
<path d="M10 20C15.5228 20 20 15.5228 20 10C20 4.47715 15.5228 0 10 0C4.47715 0 0 4.47715 0 10C0 15.5228 4.47715 20 10 20Z" fill="#FFDA44"/>
<path d="M10 0C7.49881 0.000262635 5.08853 0.937821 3.24459 2.62774C1.40065 4.31766 0.256939 6.63723 0.0390625 9.12891H19.9609C19.7431 6.63723 18.5993 4.31766 16.7554 2.62774C14.9115 0.937821 12.5012 0.000262635 10 0V0ZM10 20C12.5012 19.9997 14.9115 19.0622 16.7554 17.3723C18.5993 15.6823 19.7431 13.3628 19.9609 10.8711H0.0390625C0.256939 13.3628 1.40065 15.6823 3.24459 17.3723C5.08853 19.0622 7.49881 19.9997 10 20Z" fill="#0052B4"/>
<path d="M8.26172 13.4766L7.14062 14.004L7.73828 15.0899L6.51953 14.8555L6.36328 16.086L5.51953 15.1837L4.67188 16.086L4.51562 14.8595L3.30078 15.0938L3.89844 14.004L2.77344 13.4766L3.89453 12.9532L3.29688 11.8673L4.51172 12.1016L4.66797 10.8712L5.51562 11.7735L6.36328 10.8712L6.51953 12.0977L7.73047 11.8634L7.13672 12.9532L8.26172 13.4766Z" fill="#EEEEEE"/>
</g>
<defs>
<clipPath id="clip0">
<rect width="20" height="20" fill="white"/>
</clipPath>
</defs>
</svg>
