<svg width="20" height="20" viewBox="0 0 20 20" fill="none" xmlns="http://www.w3.org/2000/svg">
<path d="M20 10C20 12.6522 18.9464 15.1957 17.0711 17.0711C15.1957 18.9464 12.6522 20 10 20C7.34784 20 4.8043 18.9464 2.92893 17.0711C1.05357 15.1957 0 12.6522 0 10L10 0C12.6522 0 15.1957 1.05357 17.0711 2.92893C18.9464 4.8043 20 7.34784 20 10Z" fill="#FFDA44"/>
<path d="M9.99998 4.78111V8.15611L6.52342 4.78111H9.99998ZM5.21873 9.99986H8.15623L5.21873 6.0858L4.78123 9.13267L5.21873 9.99986Z" fill="#0052B4"/>
<path d="M9.97266 10.0001H10V9.97273L9.97266 10.0001Z" fill="#EEEEEE"/>
<path d="M10 5.21875V0C7.34784 0 4.8043 1.05357 2.92893 2.92893C1.05357 4.8043 0 7.34784 0 10H5.21875V7.0625L8.15625 10H9.97266L10 9.97266V8.15625L7.0625 5.21875H10Z" fill="#EEEEEE"/>
<path d="M9.99998 8.76953L6.4453 5.21484H5.21873L9.99998 10V8.76953Z" fill="#D80027"/>
<path d="M5.05858 1.30455C4.67449 1.52212 4.30519 1.76484 3.95311 2.03111H4.36327L3.27733 2.82408L3.69139 4.09752L2.60936 3.31236L2.49217 3.39439C2.0407 3.90719 1.6428 4.46478 1.30467 5.05846V9.99986H3.91405V3.91392H9.99998V1.30455H5.05858Z" fill="#D80027"/>
<path d="M4.27344 1.80463C4.16513 1.88063 4.05834 1.95877 3.95312 2.039L3.27734 2.82025L2.60938 3.31244L2.49219 3.39447C2.24692 3.67448 2.0174 3.9679 1.80469 4.27338C2.05555 4.39473 2.3307 4.4575 2.60938 4.45697C3.09873 4.45594 3.56768 4.26082 3.91334 3.91443C4.259 3.56803 4.45313 3.09867 4.45312 2.60931C4.45379 2.33063 4.39101 2.05544 4.26953 1.80463H4.27344Z" fill="#0052B4"/>
<path d="M2.49217 3.39844L2.60936 3.3125L3.69139 4.09766L3.28123 2.82422L4.36327 2.03125H3.95311C3.42192 2.43731 2.93252 2.8953 2.49217 3.39844ZM6.91014 1.73828L7.12889 2.40234H7.8242L7.26561 2.8125L7.48045 3.47656L6.91405 3.06641L6.34764 3.47656L6.56249 2.8125L5.99608 2.40234H6.6992L6.91014 1.73828ZM2.60936 6.08594L2.8242 6.75H3.52342L2.95702 7.16016L3.17186 7.82422L2.60936 7.41406L2.04295 7.82422L2.2578 7.16016L1.6953 6.75H2.39452L2.60936 6.08594Z" fill="#FFDA44"/>
</svg>
