<svg width="20" height="20" viewBox="0 0 20 20" fill="none" xmlns="http://www.w3.org/2000/svg">
<g clip-path="url(#clip0)">
<path d="M20 10C20 12.6522 18.9464 15.1957 17.0711 17.0711C15.1957 18.9464 12.6522 20 10 20C7.34784 20 4.8043 18.9464 2.92893 17.0711C1.05357 15.1957 0 12.6522 0 10L10 0C12.6522 0 15.1957 1.05357 17.0711 2.92893C18.9464 4.8043 20 7.34784 20 10Z" fill="#0052B4"/>
<path d="M10 0C7.34784 0 4.8043 1.05357 2.92893 2.92893C1.05357 4.8043 0 7.34784 0 10H5.21875V7.0625L8.15625 10H10V8.15625L7.0625 5.21875H10V0ZM14.9141 3.57422L14.4727 4.94141H13.0391L14.1992 5.77734L13.7578 7.14453L14.9141 6.29688L16.0742 7.14062L15.625 5.78125L16.7852 4.94141H15.3516L14.9102 3.57812L14.9141 3.57422ZM17.3086 6.40625L16.8672 7.77344H15.4336L16.5938 8.60938L16.1523 9.97656L17.3086 9.12891L18.4688 9.97266L18.0234 8.60938L19.1836 7.76953H17.75L17.3086 6.40625ZM12.5117 6.80859L12.0703 8.17188H10.6367L11.7969 9.01172L11.3555 10.375L12.5117 9.53125L13.6719 10.375L13.2266 9.00781L14.3867 8.16797H12.9531L12.5117 6.80859ZM14.8203 11.875L14.3789 13.2383H12.9453L14.1055 14.0781L13.6641 15.4414L14.8203 14.5977L15.9805 15.4414L15.5352 14.0742L16.6953 13.2344H15.2617L14.8203 11.875Z" fill="#EEEEEE"/>
<path d="M5.05858 1.30455C3.49333 2.19664 2.19676 3.49321 1.30467 5.05846V9.99986H3.91405V3.91392H9.99998V1.30455H5.05858ZM14.914 4.56236L14.6953 5.24205H13.9765L14.5586 5.66393L14.3359 6.34361L14.914 5.92174L15.4961 6.34361L15.2734 5.66393L15.8515 5.24205H15.1367L14.914 4.56236ZM5.21873 5.21861L9.99998 9.99986V8.76939L6.4453 5.21471H5.21873V5.21861ZM17.3047 7.39439L17.0859 8.07408H16.3672L16.9492 8.49596L16.7265 9.17564L17.3047 8.75377L17.8906 9.17955L17.668 8.49986L18.2461 8.07799H17.5312L17.3086 7.3983L17.3047 7.39439ZM12.5078 7.79283L12.289 8.47643H11.5703L12.1523 8.89439L11.9297 9.57799L12.5078 9.15611L13.0898 9.57799L12.8672 8.89439L13.4453 8.47643H12.7344L12.5117 7.79283H12.5078ZM14.8164 12.8592L14.5976 13.5428H13.8789L14.4609 13.9608L14.2383 14.6444L14.8164 14.2225L15.3945 14.6444L15.1758 13.9608L15.7539 13.5428H15.039L14.8164 12.8592Z" fill="#D80027"/>
</g>
<defs>
<clipPath id="clip0">
<rect width="20" height="20" fill="white"/>
</clipPath>
</defs>
</svg>
