<svg width="20" height="20" viewBox="0 0 20 20" fill="none" xmlns="http://www.w3.org/2000/svg">
<g clip-path="url(#clip0)">
<path d="M10 20C15.5228 20 20 15.5228 20 10C20 4.47715 15.5228 0 10 0C4.47715 0 0 4.47715 0 10C0 15.5228 4.47715 20 10 20Z" fill="#EEEEEE"/>
<path d="M0.000566463 10C0.000566463 13.7891 2.10994 17.0898 5.21932 18.7852V1.21094C3.63931 2.07106 2.32059 3.34147 1.40212 4.88829C0.483656 6.43511 -0.00053872 8.20105 0.000566463 10Z" fill="#D80027"/>
<path d="M19.375 13.4766C20.2088 11.2338 20.2088 8.76616 19.375 6.52344H0.625007C-0.208783 8.76616 -0.208783 11.2338 0.625007 13.4766L10 14.3477L19.375 13.4766Z" fill="#D80027"/>
<path d="M10 20C12.0417 19.9998 14.0345 19.3745 15.7104 18.2084C17.3864 17.0422 18.6652 15.3909 19.375 13.4766H0.625C1.33483 15.3909 2.61364 17.0422 4.28957 18.2084C5.96551 19.3745 7.95826 19.9998 10 20Z" fill="#6DA544"/>
<path d="M3.62848e-07 10.0001C-0.000591557 12.1981 0.723038 14.3351 2.05898 16.0806C3.39491 17.8261 5.26873 19.0828 7.39063 19.6563V0.343811C5.26873 0.917364 3.39491 2.17405 2.05898 3.91953C0.723038 5.665 -0.000591557 7.80201 3.62848e-07 10.0001Z" fill="#D80027"/>
<path d="M6.11717 4.40234L5.1953 3.47656L4.58202 4.09375L3.96483 3.47656L3.04686 4.40234L3.66405 5.01562L3.04295 5.625L3.96483 6.54688L4.58202 5.93359L5.1953 6.54688L6.11717 5.625L5.50389 5.01172L6.11717 4.40234Z" fill="#EEEEEE"/>
</g>
<defs>
<clipPath id="clip0">
<rect width="20" height="20" fill="white"/>
</clipPath>
</defs>
</svg>
