<svg width="20" height="20" viewBox="0 0 20 20" fill="none" xmlns="http://www.w3.org/2000/svg">
<path d="M10 20C15.5228 20 20 15.5228 20 10C20 4.47715 15.5228 0 10 0C4.47715 0 0 4.47715 0 10C0 15.5228 4.47715 20 10 20Z" fill="#EEEEEE"/>
<path d="M0 10C0 12.6522 1.05357 15.1957 2.92893 17.0711C4.8043 18.9464 7.34784 20 10 20V10H0Z" fill="#0052B4"/>
<path d="M10 0C12.6522 0 15.1957 1.05357 17.0711 2.92893C18.9464 4.8043 20 7.34784 20 10H10V0Z" fill="#D80027"/>
<path d="M5.95315 3.47656L6.60159 5.46875H8.69534L7.00003 6.70313L7.64847 8.69531L5.95315 7.46484L4.25784 8.69531L4.90628 6.70313L3.21097 5.46875H5.30472L5.95315 3.47656Z" fill="#0052B4"/>
<path d="M14.0469 11.3046L14.6953 13.2967H16.7891L15.0938 14.5311L15.7422 16.5233L14.0469 15.2928L12.3516 16.5272L13 14.535L11.3047 13.3006H13.3985L14.0469 11.3046Z" fill="#D80027"/>
</svg>
