<svg width="20" height="20" viewBox="0 0 20 20" fill="none" xmlns="http://www.w3.org/2000/svg">
<g clip-path="url(#clip0)">
<path d="M10 20C15.5228 20 20 15.5228 20 10C20 4.47715 15.5228 0 10 0C4.47715 0 0 4.47715 0 10C0 15.5228 4.47715 20 10 20Z" fill="#EEEEEE"/>
<path d="M1.21484 5.21879H18.7891C17.9298 3.6386 16.6602 2.31942 15.1141 1.40025C13.568 0.481071 11.8026 -0.0040741 10.0039 -0.0040741C8.2052 -0.0040741 6.4398 0.481071 4.89369 1.40025C3.34758 2.31942 2.07802 3.6386 1.21875 5.21879H1.21484ZM10 20C13.7891 20 17.0898 17.8907 18.7852 14.7813H1.21094C2.07106 16.3613 3.34147 17.68 4.88829 18.5985C6.43511 19.517 8.20105 20.0011 10 20Z" fill="#D80027"/>
<path d="M13.4766 10C13.4766 11.9219 11.9219 13.0469 10 13.0469C8.07812 13.0469 6.52344 11.9219 6.52344 10C6.52344 9.07796 6.88972 8.19368 7.5417 7.5417C8.19368 6.88972 9.07796 6.52344 10 6.52344C10.922 6.52344 11.8063 6.88972 12.4583 7.5417C13.1103 8.19368 13.4766 9.07796 13.4766 10Z" fill="#FFDA44"/>
<path d="M13.4766 10C13.4766 10.922 13.1103 11.8063 12.4583 12.4583C11.8063 13.1103 10.922 13.4766 10 13.4766C9.07796 13.4766 8.19368 13.1103 7.5417 12.4583C6.88972 11.8063 6.52344 10.922 6.52344 10" fill="#0052B4"/>
<path d="M7.82419 9.12898H8.69528V10.8712H7.82419V9.12898ZM11.3007 9.12898H12.1757V10.8712H11.3047L11.3007 9.12898ZM9.57028 7.8243H10.4297V10.8712H9.57028V7.8243Z" fill="#D80027"/>
</g>
<defs>
<clipPath id="clip0">
<rect width="20" height="20" fill="white"/>
</clipPath>
</defs>
</svg>
