<svg width="20" height="20" viewBox="0 0 20 20" fill="none" xmlns="http://www.w3.org/2000/svg">
<path d="M17.0703 17.0703C15.1859 18.9004 12.657 19.9156 10.0302 19.8964C7.40347 19.8772 4.88973 18.8252 3.03226 16.9677C1.1748 15.1103 0.122797 12.5965 0.1036 9.96975C0.0844026 7.34297 1.09955 4.81412 2.92967 2.92971C6.83592 -0.976542 12.5508 -0.363261 16.457 3.54299C20.3633 7.44924 20.9765 13.1641 17.0703 17.0703Z" fill="#333333"/>
<path d="M2.92969 2.92978C4.8141 1.09966 7.34295 0.0845094 9.96973 0.103707C12.5965 0.122904 15.1103 1.17491 16.9677 3.03237C18.8252 4.88983 19.8772 7.40358 19.8964 10.0304C19.9156 12.6571 18.9004 15.186 17.0703 17.0704" fill="#A2001D"/>
<path d="M7.64059 13.4767L7.80465 13.9767H8.32809L7.90231 14.2853L8.06637 14.7814L7.64059 14.4767L7.21872 14.7814L7.37887 14.2853L6.957 13.9767H7.48043L7.64059 13.4767ZM6.30465 8.69545L6.57419 9.52748H7.44528L6.74215 10.0392L7.01168 10.8712L6.30465 10.3556L5.60153 10.8712L5.86715 10.0392L5.16403 9.52748H6.03512L6.30465 8.69545ZM6.30465 14.7814L6.57419 15.6134H7.44528L6.74215 16.1251L7.01168 16.9572L6.30465 16.4415L5.60153 16.9572L5.86715 16.1251L5.16403 15.6134H6.03512L6.30465 14.7814ZM8.85543 10.8712L9.12887 11.6994H9.99996L9.29684 12.215L9.56246 13.0431L8.85934 12.5314L8.15231 13.0431L8.42184 12.215L7.71481 11.6994H8.5859L8.85543 10.8712ZM3.74997 10.8712L4.02341 11.6994H4.8945L4.19137 12.215L4.457 13.0431L3.75387 12.5314L3.04684 13.0431L3.31638 12.215L2.60934 11.6994H3.47653L3.74997 10.8712Z" fill="#EEEEEE"/>
<path d="M16.7383 7.40611C16.2982 6.96301 15.7127 6.69388 15.0898 6.6483L16.9531 5.19518C16.5999 4.84151 16.1745 4.56836 15.7059 4.39441C15.2373 4.22046 14.7367 4.14984 14.2383 4.18736C14.1194 3.75493 13.8907 3.36062 13.5742 3.04283L12.832 4.51939C12.7828 4.42908 12.721 4.34622 12.6484 4.2733C12.5487 4.16786 12.4288 4.08349 12.2959 4.02516C12.163 3.96684 12.0198 3.93575 11.8746 3.93374C11.7295 3.93173 11.5854 3.95883 11.451 4.01344C11.3165 4.06805 11.1943 4.14907 11.0917 4.2517C10.989 4.35433 10.908 4.47649 10.8534 4.61097C10.7988 4.74545 10.7717 4.88951 10.7737 5.03464C10.7757 5.17977 10.8068 5.32302 10.8651 5.45593C10.9235 5.58884 11.0078 5.70871 11.1133 5.80846C11.1847 5.88208 11.2663 5.94521 11.3555 5.99596L9.88281 6.73424C10.2006 7.05068 10.5949 7.27946 11.0273 7.3983C10.9898 7.89671 11.0604 8.39735 11.2344 8.86592C11.4083 9.3345 11.6815 9.75995 12.0352 10.1131L13.6641 8.01549C13.7248 7.95542 13.7967 7.90794 13.8758 7.87576C13.9549 7.84359 14.0396 7.82735 14.125 7.82799C14.2969 7.82799 14.4609 7.89439 14.5859 8.01939C14.646 8.08009 14.6935 8.15206 14.7257 8.23116C14.7578 8.31026 14.7741 8.39494 14.7734 8.48033C14.7734 8.65611 14.707 8.82018 14.5859 8.94127L15.1992 9.55846C15.4604 9.30097 15.6191 8.95731 15.6457 8.59151C15.6723 8.22572 15.565 7.86273 15.3438 7.57018C15.6393 7.64811 15.9089 7.80313 16.125 8.01939C16.4508 8.346 16.6338 8.78851 16.6338 9.24986C16.6338 9.71121 16.4508 10.1537 16.125 10.4803L16.7383 11.0936C16.9821 10.8524 17.1756 10.5653 17.3076 10.2488C17.4397 9.93232 17.5077 9.59279 17.5077 9.24986C17.5077 8.90693 17.4397 8.56741 17.3076 8.25093C17.1756 7.93446 16.9821 7.64731 16.7383 7.40611Z" fill="#FFDA44"/>
</svg>
