<svg width="20" height="20" viewBox="0 0 20 20" fill="none" xmlns="http://www.w3.org/2000/svg">
<g clip-path="url(#clip0)">
<path d="M10 20C15.5228 20 20 15.5228 20 10C20 4.47715 15.5228 0 10 0C4.47715 0 0 4.47715 0 10C0 15.5228 4.47715 20 10 20Z" fill="#EEEEEE"/>
<path d="M10 0V10L2.92969 17.0703C4.32821 18.4685 6.1099 19.4207 8.04951 19.8064C9.98912 20.1922 11.9996 19.9941 13.8266 19.2374C15.6537 18.4806 17.2154 17.1991 18.3142 15.5549C19.413 13.9107 19.9997 11.9776 20 10C20 4.47656 10 0 10 0Z" fill="#D80027"/>
<path d="M10 -5.44693e-05C8.6866 -0.00156183 7.38585 0.256485 6.1725 0.759257C4.95914 1.26203 3.85709 1.99962 2.92969 2.92963L10 9.99995H20C20 7.34778 18.9464 4.80424 17.0711 2.92888C15.1957 1.05351 12.6522 -5.44693e-05 10 -5.44693e-05Z" fill="#0052B4"/>
<path d="M6.84772 9.99992L5.62506 9.4257L6.2774 8.24211L4.94928 8.49602L4.78131 7.15617L3.85944 8.14055L2.92975 7.15617L2.76178 8.49602L1.43365 8.24211L2.086 9.4257L0.871155 9.99992L2.0899 10.5741L1.44537 11.7577L2.7735 11.5038L2.93756 12.8437L3.86334 11.8593L4.78522 12.8437L4.95319 11.5038L6.28131 11.7577L5.62897 10.5741L6.84772 9.99992ZM2.66803 3.91399L3.07428 4.48039L3.73834 4.26946L3.32428 4.83195L3.73053 5.39836L3.06647 5.17961L2.65631 5.74211L2.66412 5.04289L2.00006 4.82414L2.66412 4.61321L2.66803 3.91399ZM2.66803 14.2577L3.07428 14.828L3.73834 14.6171L3.32428 15.1757L3.73053 15.746L3.06647 15.5234L2.65631 16.0859L2.66412 15.3866L2.00006 15.1679L2.66412 14.957L2.66803 14.2577ZM8.4649 9.08586L8.05865 9.64836L7.39459 9.43742L7.80475 9.99992L7.3985 10.5702L8.06256 10.3476L8.47662 10.9101L8.47272 10.2109L9.13678 9.99211L8.46881 9.78117L8.4649 9.08586Z" fill="#FFDA44"/>
</g>
<defs>
<clipPath id="clip0">
<rect width="20" height="20" fill="white"/>
</clipPath>
</defs>
</svg>
