<svg width="20" height="20" viewBox="0 0 20 20" fill="none" xmlns="http://www.w3.org/2000/svg">
<g clip-path="url(#clip0)">
<path d="M10 20C15.5228 20 20 15.5228 20 10C20 4.47715 15.5228 0 10 0C4.47715 0 0 4.47715 0 10C0 15.5228 4.47715 20 10 20Z" fill="#EEEEEE"/>
<path d="M-2.86299e-05 10C-2.86299e-05 13.7891 2.10935 17.0898 5.21872 18.7852V1.21094C3.63872 2.07106 2.31999 3.34147 1.40153 4.88829C0.483061 6.43511 -0.00113381 8.20105 -2.86299e-05 10Z" fill="#EEEEEE"/>
<path d="M9.99997 0C8.26559 0 6.64059 0.441406 5.21872 1.21484V18.7891C6.55665 19.5152 8.0427 19.9262 9.56359 19.991C11.0845 20.0557 12.6001 19.7723 13.9948 19.1624C15.3896 18.5526 16.6267 17.6324 17.6119 16.4719C18.5971 15.3114 19.3044 13.9413 19.6798 12.4661C20.0552 10.9908 20.0889 9.44936 19.7782 7.95913C19.4675 6.4689 18.8207 5.06927 17.8871 3.86692C16.9535 2.66456 15.7577 1.69122 14.3908 1.02109C13.024 0.35096 11.5222 0.00172264 9.99997 0V0Z" fill="#496E2D"/>
<path d="M14.2774 11.6523C13.929 11.9038 13.5279 12.0724 13.1045 12.1454C12.6812 12.2184 12.2467 12.1939 11.8343 12.0737C11.4218 11.9535 11.0422 11.7407 10.7244 11.4517C10.4065 11.1626 10.1588 10.8049 10.0001 10.4056C9.84141 10.0064 9.77587 9.57622 9.8085 9.14784C9.84112 8.71946 9.97105 8.30417 10.1884 7.93357C10.4057 7.56298 10.7047 7.24686 11.0627 7.00927C11.4206 6.77167 11.8281 6.61887 12.254 6.5625C11.5773 6.46182 10.886 6.56302 10.2666 6.85342C9.64716 7.14382 9.12719 7.61051 8.77177 8.19505C8.41636 8.77959 8.24131 9.456 8.26853 10.1396C8.29576 10.8231 8.52405 11.4835 8.92483 12.0379C9.3256 12.5923 9.88104 13.0162 10.5216 13.2564C11.1621 13.4966 11.8593 13.5425 12.5258 13.3883C13.1923 13.2342 13.7986 12.8868 14.2686 12.3897C14.7385 11.8926 15.0514 11.2679 15.168 10.5938C14.9645 11.0167 14.6583 11.3819 14.2774 11.6562V11.6523ZM14.2188 6.52344L14.9298 7.28906L15.879 6.84766L15.3712 7.76563L16.0821 8.53125L15.0548 8.33203L14.5469 9.24609L14.418 8.20312L13.3985 8.00781L14.3516 7.56641L14.2188 6.52344Z" fill="#EEEEEE"/>
</g>
<defs>
<clipPath id="clip0">
<rect width="20" height="20" fill="white"/>
</clipPath>
</defs>
</svg>
