<svg width="20" height="20" viewBox="0 0 20 20" fill="none" xmlns="http://www.w3.org/2000/svg">
<path d="M20 10C20 12.6522 18.9464 15.1957 17.0711 17.0711C15.1957 18.9464 12.6522 20 10 20C7.34784 20 4.8043 18.9464 2.92893 17.0711C1.05357 15.1957 0 12.6522 0 10L10 0C12.6522 0 15.1957 1.05357 17.0711 2.92893C18.9464 4.8043 20 7.34784 20 10Z" fill="#0052B4"/>
<path d="M9.97266 10.0001H10V9.97273L9.97266 10.0001Z" fill="#EEEEEE"/>
<path d="M10 5.21875V0C7.34784 0 4.8043 1.05357 2.92893 2.92893C1.05357 4.8043 0 7.34784 0 10H5.21875V7.0625L8.15625 10H9.97266L10 9.97266V8.15625L7.0625 5.21875H10Z" fill="#EEEEEE"/>
<path d="M5.05858 1.30455C3.49333 2.19664 2.19676 3.49321 1.30467 5.05846V9.99986H3.91405V3.91392H9.99998V1.30455H5.05858Z" fill="#D80027"/>
<path d="M9.99998 8.76953L6.4453 5.21484H5.21873L9.99998 10V8.76953Z" fill="#D80027"/>
<path d="M15.6523 6.08586L14.3477 6.52336L13.043 6.08586L12.6094 4.99992L13.043 3.91399H15.6523L15.2188 4.99992L15.6523 6.08586Z" fill="#ACABB1"/>
<path d="M11.3047 6.08601V10.8712C11.3047 13.1993 14.3477 13.9141 14.3477 13.9141C14.3477 13.9141 17.3945 13.1993 17.3945 10.8673V6.08992H11.3008L11.3047 6.08601Z" fill="#338AF3"/>
<path d="M11.5781 12.0038C12.3281 13.4374 14.3515 13.914 14.3515 13.914C14.3515 13.914 16.3672 13.4374 17.1172 11.9999L14.3476 7.39055L11.5781 11.9999V12.0038Z" fill="#6DA544"/>
<path d="M17.3906 10.8204L14.3476 6.08601L11.3008 10.8204V10.8712C11.2996 11.2657 11.3948 11.6546 11.5781 12.004L14.3476 7.69539L17.1172 12.004C17.2992 11.6543 17.393 11.2654 17.3906 10.8712V10.8204Z" fill="#FFDA44"/>
</svg>
