<svg width="20" height="20" viewBox="0 0 20 20" fill="none" xmlns="http://www.w3.org/2000/svg">
<g clip-path="url(#clip0)">
<path d="M10 20C15.5228 20 20 15.5228 20 10C20 4.47715 15.5228 0 10 0C4.47715 0 0 4.47715 0 10C0 15.5228 4.47715 20 10 20Z" fill="#EEEEEE"/>
<path d="M6.08594 6.52326H19.3789C18.7962 4.95116 17.8275 3.55083 16.562 2.45102C15.2965 1.35122 13.7748 0.587263 12.1368 0.229403C10.4988 -0.128457 8.79711 -0.0687297 7.18825 0.403092C5.57938 0.874914 4.11497 1.74369 2.92969 2.92951L6.08594 6.52326Z" fill="#333333"/>
<path d="M6.08594 13.4766H19.3789C18.7962 15.0487 17.8275 16.449 16.562 17.5488C15.2965 18.6486 13.7748 19.4126 12.1368 19.7704C10.4988 20.1283 8.79711 20.0685 7.18825 19.5967C5.57938 19.1249 4.11497 18.2561 2.92969 17.0703L6.08594 13.4766Z" fill="#6DA544"/>
<path d="M2.92967 2.92969C1.05477 4.80499 0.00149536 7.34821 0.00149536 10C0.00149536 12.6518 1.05477 15.195 2.92967 17.0703L9.99999 10L2.92967 2.92969Z" fill="#D80027"/>
</g>
<defs>
<clipPath id="clip0">
<rect width="20" height="20" fill="white"/>
</clipPath>
</defs>
</svg>
