<svg width="20" height="20" viewBox="0 0 20 20" fill="none" xmlns="http://www.w3.org/2000/svg">
<g clip-path="url(#clip0)">
<path d="M10 20C15.5228 20 20 15.5228 20 10C20 4.47715 15.5228 0 10 0C4.47715 0 0 4.47715 0 10C0 15.5228 4.47715 20 10 20Z" fill="#EEEEEE"/>
<path d="M-2.10005e-05 10C-2.10005e-05 13.7891 2.10935 17.0898 5.21873 18.7852V1.21094C3.63872 2.07106 2.32 3.34147 1.40153 4.88829C0.483068 6.43511 -0.00112618 8.20105 -2.10005e-05 10Z" fill="#D80027"/>
<path d="M-7.26655e-06 10.0001C-0.000599187 12.1981 0.72303 14.3351 2.05897 16.0806C3.39491 17.8261 5.26872 19.0828 7.39062 19.6563V0.343811C5.26872 0.917364 3.39491 2.17405 2.05897 3.91953C0.72303 5.665 -0.000599187 7.80201 -7.26655e-06 10.0001Z" fill="#0052B4"/>
<path d="M3.58592 3.47656V5.10938C3.58592 5.49891 3.74066 5.87249 4.01611 6.14794C4.29155 6.42338 4.66513 6.57812 5.05467 6.57812C5.44421 6.57812 5.81779 6.42338 6.09323 6.14794C6.36868 5.87249 6.52342 5.49891 6.52342 5.10938V3.47656H3.58592Z" fill="#D80027"/>
<path d="M5.05465 5.7032C4.72652 5.7032 4.45699 5.43758 4.45699 5.10945V4.34773H5.6523V5.10945C5.6523 5.43758 5.38277 5.70711 5.05465 5.70711V5.7032Z" fill="#EEEEEE"/>
<path d="M10.8711 10.4335H8.26173C8.24694 10.2131 8.14895 10.0065 7.98758 9.85558C7.82621 9.70467 7.61353 9.62072 7.39259 9.62072C7.17166 9.62072 6.95897 9.70467 6.7976 9.85558C6.63624 10.0065 6.53824 10.2131 6.52345 10.4335H3.91408C3.92119 10.667 4.01897 10.8886 4.1867 11.0512C4.35442 11.2138 4.5789 11.3047 4.81251 11.3046H4.78126C4.78126 11.7851 5.17189 12.1757 5.65236 12.1757C5.65236 12.6523 6.04298 13.0429 6.52345 13.0429H8.26173C8.7422 13.0429 9.12892 12.6523 9.12892 12.1757C9.60939 12.1757 10 11.7851 10 11.3046H9.97267C10.2063 11.3047 10.4308 11.2138 10.5985 11.0512C10.7662 10.8886 10.864 10.667 10.8711 10.4335ZM11.2266 9.04289L11 9.41008L11.2734 9.7382L10.8594 9.63273L10.6289 9.99992L10.5977 9.57023L10.1797 9.46477L10.582 9.30461L10.5508 8.87492L10.8242 9.20305L11.2266 9.04289ZM9.89845 7.9257L9.8047 8.34758L10.1797 8.56242L9.75001 8.6093L9.66017 9.02727L9.48439 8.63664L9.0547 8.67961L9.37501 8.39055L9.20314 7.99992L9.57423 8.21477L9.89845 7.9257ZM8.25782 7.33195L8.32032 7.75774L8.74611 7.83586L8.35548 8.01945L8.41798 8.44914L8.1172 8.13664L7.73048 8.32805L7.93361 7.94524L7.63283 7.63274L8.05861 7.71086L8.25782 7.33195ZM6.52345 7.33195L6.72267 7.71086L7.14845 7.63274L6.84767 7.94524L7.05079 8.32805L6.66408 8.13664L6.36329 8.44914L6.42579 8.01945L6.03517 7.83195L6.46486 7.75383L6.52345 7.33195ZM4.88283 7.9257L5.20314 8.21477L5.57814 7.99992L5.40236 8.39055L5.72267 8.67961L5.29298 8.63664L5.1172 9.02727L5.02736 8.6093L4.59767 8.56242L4.97267 8.34758L4.88283 7.9257ZM3.5547 9.04289L3.95314 9.20305L4.22658 8.87492L4.19923 9.30461L4.59767 9.46477L4.1797 9.57023L4.14845 9.99992L3.92189 9.63273L3.50392 9.7382L3.77736 9.41008L3.5547 9.04289Z" fill="#FFDA44"/>
</g>
<defs>
<clipPath id="clip0">
<rect width="20" height="20" fill="white"/>
</clipPath>
</defs>
</svg>
