<svg width="20" height="20" viewBox="0 0 20 20" fill="none" xmlns="http://www.w3.org/2000/svg">
<g clip-path="url(#clip0)">
<path d="M14.3477 0.992188C13.0313 0.355469 11.5586 0 10 0C8.44144 0 6.96879 0.355469 5.65238 0.992188L4.78129 10L5.65238 19.0078C6.96879 19.6445 8.44144 20 10 20C11.5586 20 13.0313 19.6445 14.3477 19.0078L15.2188 10L14.3477 0.992188Z" fill="#FFDA44"/>
<path d="M5.65231 0.99205C3.95738 1.80919 2.52739 3.08794 1.52665 4.68137C0.525912 6.2748 -0.00495911 8.11824 -0.00495911 9.99986C-0.00495911 11.8815 0.525912 13.7249 1.52665 15.3184C2.52739 16.9118 3.95738 18.1905 5.65231 19.0077V0.99205ZM14.3476 0.99205V19.0077C16.0425 18.1905 17.4725 16.9118 18.4733 15.3184C19.474 13.7249 20.0049 11.8815 20.0049 9.99986C20.0049 8.11824 19.474 6.2748 18.4733 4.68137C17.4725 3.08794 16.0425 1.80919 14.3476 0.99205Z" fill="#0052B4"/>
<path d="M12.8242 10.8711L13.4766 11.7383V8.26172L12.8242 9.12891H10.8711V7.17578L11.7383 6.52344H8.26172L9.12891 7.17578V9.12891H7.17578L6.52344 8.26172V11.7383L7.17578 10.8711H9.12891V12.8242L8.26172 13.4766H11.7383L10.8711 12.8242V10.8711H12.8242Z" fill="#D80027"/>
<path d="M12.6094 9.56633H10.4297V7.39055H9.57029V9.57024H7.39452V10.4296H9.57029V12.6054H10.4297V10.4296H12.6054L12.6094 9.56633Z" fill="#EEEEEE"/>
</g>
<defs>
<clipPath id="clip0">
<rect width="20" height="20" fill="white"/>
</clipPath>
</defs>
</svg>
