<svg width="20" height="20" viewBox="0 0 20 20" fill="none" xmlns="http://www.w3.org/2000/svg">
<path d="M0 10C0.000249226 12.0417 0.625473 14.0345 1.79165 15.7104C2.95782 17.3864 4.60905 18.6652 6.52344 19.375L7.39062 10L6.52344 0.625C4.60905 1.33483 2.95782 2.61364 1.79165 4.28957C0.625473 5.96551 0.000249226 7.95826 0 10H0Z" fill="#6DA544"/>
<path d="M20 9.99999C19.9998 8.3874 19.6096 6.79879 18.8627 5.3696C18.1159 3.94041 17.0344 2.71304 15.7106 1.79216C14.3869 0.871268 12.86 0.284176 11.2603 0.080943C9.66058 -0.12229 8.03543 0.0643629 6.52344 0.624987V19.375C8.03543 19.9356 9.66058 20.1223 11.2603 19.919C12.86 19.7158 14.3869 19.1287 15.7106 18.2078C17.0344 17.2869 18.1159 16.0596 18.8627 14.6304C19.6096 13.2012 19.9998 11.6126 20 9.99999Z" fill="#D80027"/>
<path d="M6.52344 13.4766C8.44349 13.4766 10 11.9201 10 10C10 8.07995 8.44349 6.52344 6.52344 6.52344C4.60338 6.52344 3.04688 8.07995 3.04688 10C3.04688 11.9201 4.60338 13.4766 6.52344 13.4766Z" fill="#FFDA44"/>
<path d="M4.56644 8.26158V10.4295C4.56644 10.9481 4.77242 11.4453 5.13907 11.812C5.50572 12.1786 6.003 12.3846 6.52152 12.3846C7.04004 12.3846 7.53732 12.1786 7.90396 11.812C8.27061 11.4453 8.47659 10.9481 8.47659 10.4295V8.25768H4.57035L4.56644 8.26158Z" fill="#D80027"/>
<path d="M6.52342 11.0859C6.16405 11.0859 5.87108 10.793 5.87108 10.4336V9.57031H7.17577V10.4297C7.17577 10.7891 6.8828 11.082 6.52342 11.082V11.0859Z" fill="#EEEEEE"/>
</svg>
