<svg width="20" height="20" viewBox="0 0 20 20" fill="none" xmlns="http://www.w3.org/2000/svg">
<g clip-path="url(#clip0)">
<path d="M10 20C15.5228 20 20 15.5228 20 10C20 4.47715 15.5228 0 10 0C4.47715 0 0 4.47715 0 10C0 15.5228 4.47715 20 10 20Z" fill="#EEEEEE"/>
<path d="M10 2.82363e-07C8.11894 -0.000446655 6.27587 0.52969 4.68249 1.52952C3.08911 2.52936 1.81006 3.95834 0.992222 5.65234H19.0078C18.19 3.95834 16.911 2.52936 15.3176 1.52952C13.7242 0.52969 11.8811 -0.000446655 10 2.82363e-07Z" fill="#D80027"/>
<path d="M10 20.0001C11.8811 20.0005 13.7242 19.4704 15.3176 18.4706C16.911 17.4707 18.19 16.0417 19.0078 14.3477H0.992222C1.81006 16.0417 3.08911 17.4707 4.68249 18.4706C6.27587 19.4704 8.11894 20.0005 10 20.0001Z" fill="#0052B4"/>
<path d="M12.4609 7.10938L11.5391 8.02734C11.8461 8.33036 12.0557 8.71808 12.1412 9.14091C12.2266 9.56374 12.184 10.0024 12.0188 10.4009C11.8535 10.7994 11.5731 11.1395 11.2135 11.3777C10.8539 11.616 10.4314 11.7415 9.99999 11.7383C9.57064 11.737 9.15127 11.6086 8.79469 11.3695C8.43812 11.1303 8.16027 10.791 7.99614 10.3942C7.83202 9.99749 7.78894 9.56105 7.87234 9.13987C7.95574 8.71869 8.16189 8.3316 8.46484 8.02734L7.53905 7.10938C7.05359 7.59588 6.72322 8.21535 6.58968 8.88954C6.45614 9.56372 6.52543 10.2624 6.78878 10.8972C7.05213 11.532 7.49774 12.0745 8.06929 12.4562C8.64085 12.8379 9.31271 13.0416 9.99999 13.0416C10.6873 13.0416 11.3591 12.8379 11.9307 12.4562C12.5022 12.0745 12.9479 11.532 13.2112 10.8972C13.4746 10.2624 13.5438 9.56372 13.4103 8.88954C13.2768 8.21535 12.9464 7.59588 12.4609 7.10938Z" fill="#6DA544"/>
<path d="M10.0001 8.26172L10.3243 9.25781H11.3673L10.5196 9.875L10.8438 10.8711L9.99616 10.2539L9.1485 10.8711L9.47272 9.875L8.62507 9.25781H9.67194L10.0001 8.26172Z" fill="#FFDA44"/>
</g>
<defs>
<clipPath id="clip0">
<rect width="20" height="20" fill="white"/>
</clipPath>
</defs>
</svg>
