<svg width="20" height="20" viewBox="0 0 20 20" fill="none" xmlns="http://www.w3.org/2000/svg">
<g clip-path="url(#clip0)">
<path d="M10 20C15.5228 20 20 15.5228 20 10C20 4.47715 15.5228 0 10 0C4.47715 0 0 4.47715 0 10C0 15.5228 4.47715 20 10 20Z" fill="#EEEEEE"/>
<path d="M20.0001 9.99987C20.0001 8.21239 19.521 6.45758 18.6126 4.91811C17.7043 3.37863 16.3999 2.11076 14.8353 1.24648C13.2706 0.382202 11.5029 -0.0468981 9.71617 0.00384861C7.92941 0.0545954 6.18891 0.583334 4.67585 1.53503L6.87507 2.46081L3.91804 3.71471L6.87507 4.97253L3.91804 6.23034L6.87507 7.48424L3.91804 8.74206L6.87507 9.99596L3.91804 11.2538L6.87507 12.5077L3.91804 13.7655L6.87507 15.0194L3.91804 16.2772L6.87507 17.5311L4.68366 18.4647C6.19659 19.4144 7.93627 19.9414 9.72186 19.9911C11.5074 20.0408 13.2738 19.6113 14.8372 18.7473C16.4006 17.8833 17.704 16.6162 18.6119 15.0779C19.5199 13.5396 19.9992 11.7861 20.0001 9.99987Z" fill="#751A46"/>
</g>
<defs>
<clipPath id="clip0">
<rect width="20" height="20" fill="white"/>
</clipPath>
</defs>
</svg>
