<svg width="20" height="20" viewBox="0 0 20 20" fill="none" xmlns="http://www.w3.org/2000/svg">
<g clip-path="url(#clip0)">
<path d="M10 20C15.5228 20 20 15.5228 20 10C20 4.47715 15.5228 0 10 0C4.47715 0 0 4.47715 0 10C0 15.5228 4.47715 20 10 20Z" fill="#EEEEEE"/>
<path d="M10 0C8.38742 0.000196831 6.7988 0.390373 5.36962 1.13726C3.94043 1.88414 2.71306 2.96558 1.79217 4.28935C0.871283 5.61313 0.284192 7.13998 0.0809582 8.7397C-0.122275 10.3394 0.0643781 11.9646 0.625002 13.4766H19.375C19.9356 11.9646 20.1223 10.3394 19.919 8.7397C19.7158 7.13998 19.1287 5.61313 18.2078 4.28935C17.2869 2.96558 16.0596 1.88414 14.6304 1.13726C13.2012 0.390373 11.6126 0.000196831 10 0V0Z" fill="#0052B4"/>
<path d="M10 0C7.95826 0.000249226 5.96551 0.625473 4.28957 1.79165C2.61364 2.95782 1.33483 4.60905 0.625 6.52344H19.375C18.6652 4.60905 17.3864 2.95782 15.7104 1.79165C14.0345 0.625473 12.0417 0.000249226 10 0V0Z" fill="#D80027"/>
<path d="M2.58594 5.65227V10.6405C2.58594 13.4765 6.29297 14.3515 6.29297 14.3515C6.29297 14.3515 10 13.4765 10 10.6405V5.65227H2.58594Z" fill="#D80027"/>
<path d="M4.11719 6.52336H8.46875V4.78117L7.59766 5.21868L6.29297 3.91399L4.98828 5.21868L4.11719 4.78117V6.52336ZM9.12891 11.3359L6.30469 8.50774L3.47656 11.3359L4.40234 12.2577L6.30469 10.3554L8.20703 12.2577L9.12891 11.3359Z" fill="#FFDA44"/>
<path d="M9.12891 8.69543H7.8125C7.88914 8.56377 7.92957 8.41418 7.92969 8.26184C7.93013 8.06723 7.86539 7.87809 7.7458 7.72456C7.62621 7.57104 7.45866 7.46199 7.26987 7.41479C7.08107 7.36759 6.88191 7.38497 6.70415 7.46415C6.52638 7.54334 6.38025 7.67976 6.28906 7.85168C6.19688 7.6818 6.05082 7.5474 5.87388 7.46964C5.69694 7.39188 5.49916 7.37518 5.31168 7.42216C5.1242 7.46914 4.95767 7.57714 4.8383 7.72916C4.71894 7.88117 4.65352 8.06856 4.65234 8.26184C4.65246 8.41418 4.6929 8.56377 4.76953 8.69543H3.47656C3.48367 8.92894 3.58146 9.1505 3.74918 9.31312C3.91691 9.47574 4.14138 9.56663 4.375 9.56652H4.34766C4.34766 10.047 4.73828 10.4337 5.21875 10.4337C5.21875 10.8634 5.52344 11.215 5.92578 11.2892L5.24219 12.8361C5.57964 12.9731 5.94047 13.0434 6.30469 13.0431C6.66891 13.0434 7.02974 12.9731 7.36719 12.8361L6.68359 11.2892C7.08594 11.2111 7.39062 10.8595 7.39062 10.4337C7.87109 10.4337 8.26172 10.0431 8.26172 9.56652H8.23047C8.46409 9.56663 8.68856 9.47574 8.85628 9.31312C9.02401 9.1505 9.1218 8.92894 9.12891 8.69543Z" fill="#EEEEEE"/>
</g>
<defs>
<clipPath id="clip0">
<rect width="20" height="20" fill="white"/>
</clipPath>
</defs>
</svg>
