<svg width="20" height="20" viewBox="0 0 20 20" fill="none" xmlns="http://www.w3.org/2000/svg">
<g clip-path="url(#clip0)">
<path d="M10 20C15.5228 20 20 15.5228 20 10C20 4.47715 15.5228 0 10 0C4.47715 0 0 4.47715 0 10C0 15.5228 4.47715 20 10 20Z" fill="#EEEEEE"/>
<path d="M19.375 13.4766C20.2088 11.2338 20.2088 8.76616 19.375 6.52344H0.62499C-0.208452 8.76622 -0.208452 11.2338 0.62499 13.4766L9.99999 14.3477L19.375 13.4766Z" fill="#0052B4"/>
<path d="M10 20C12.0417 19.9998 14.0345 19.3745 15.7104 18.2084C17.3864 17.0422 18.6652 15.3909 19.375 13.4766H0.625C1.33483 15.3909 2.61364 17.0422 4.28957 18.2084C5.96551 19.3745 7.95826 19.9998 10 20Z" fill="#D80027"/>
</g>
<defs>
<clipPath id="clip0">
<rect width="20" height="20" fill="white"/>
</clipPath>
</defs>
</svg>
