<svg width="20" height="20" viewBox="0 0 20 20" fill="none" xmlns="http://www.w3.org/2000/svg">
<g clip-path="url(#clip0)">
<path d="M0 9.99992C0 11.7343 0.441406 13.3593 1.21484 14.7812L10 15.6523L18.7852 14.7812C19.5586 13.3632 20 11.7343 20 9.99992L10 9.12883L0 9.99992Z" fill="#FFDA44"/>
<path d="M18.7851 5.21874C17.7229 3.26529 16.0399 1.7216 14.0022 0.831683C11.9645 -0.0582368 9.68827 -0.243617 7.5334 0.304846C5.37853 0.853309 3.46792 2.10433 2.1036 3.86014C0.739279 5.61596 -0.000929505 7.77641 -1.44113e-05 9.99999H20C20 8.26561 19.5586 6.64061 18.7851 5.21874Z" fill="#338AF3"/>
<path d="M10 19.9999C13.7891 19.9999 17.0898 17.8905 18.7852 14.7811H1.21094C2.07106 16.3611 3.34147 17.6798 4.88829 18.5983C6.43511 19.5168 8.20105 20.001 10 19.9999Z" fill="#496E2D"/>
<path d="M11.3047 5.85156L12.5273 6.42578L11.875 7.60938L13.2031 7.35547L13.3711 8.69531L14.293 7.71094L15.2187 8.69531L15.3867 7.35547L16.7148 7.60938L16.0625 6.42578L17.2812 5.85156L16.0625 5.27734L16.7109 4.09375L15.3828 4.34766L15.2187 3.00781L14.293 3.99609L13.3711 3.00781L13.2031 4.34766L11.875 4.09375L12.5273 5.27734L11.3047 5.85156Z" fill="#FFDA44"/>
</g>
<defs>
<clipPath id="clip0">
<rect width="20" height="20" fill="white"/>
</clipPath>
</defs>
</svg>
