<svg width="20" height="20" viewBox="0 0 20 20" fill="none" xmlns="http://www.w3.org/2000/svg">
<path d="M10 20C15.5228 20 20 15.5228 20 10C20 4.47715 15.5228 0 10 0C4.47715 0 0 4.47715 0 10C0 15.5228 4.47715 20 10 20Z" fill="#496E2D"/>
<path d="M5.65234 11.9531C5.65234 12.6757 6.23828 13.2616 6.95703 13.2616H10.8711C10.8711 13.5497 10.9855 13.8259 11.1892 14.0295C11.3928 14.2332 11.669 14.3476 11.957 14.3476H13.2617C13.5497 14.3476 13.8259 14.2332 14.0296 14.0295C14.2332 13.8259 14.3477 13.5497 14.3477 13.2616V11.9531H5.65234ZM14.457 5.65227V8.69914C14.457 9.17571 14.0664 9.56633 13.5859 9.56633V10.871C14.7852 10.871 15.7617 9.89446 15.7617 8.69524V5.65227H14.4531H14.457ZM5.10938 8.69914C5.10938 9.17571 4.71875 9.56633 4.23828 9.56633V10.871C5.4375 10.871 6.41406 9.89446 6.41406 8.69524V5.65227H5.10938V8.69914Z" fill="#EEEEEE"/>
<path d="M12.5 5.65227H13.8047V8.69915H12.5V5.65227ZM10.5469 7.39055C10.5469 7.44857 10.5239 7.50421 10.4828 7.54523C10.4418 7.58625 10.3862 7.6093 10.3282 7.6093C10.2701 7.6093 10.2145 7.58625 10.1735 7.54523C10.1325 7.50421 10.1094 7.44857 10.1094 7.39055V5.65227H8.80472V7.39055C8.79766 7.44304 8.77179 7.49119 8.73192 7.52605C8.69205 7.56092 8.64089 7.58014 8.58792 7.58014C8.53496 7.58014 8.48379 7.56092 8.44392 7.52605C8.40405 7.49119 8.37819 7.44304 8.37113 7.39055V5.65227H7.06644V7.39055C7.06644 7.79459 7.22694 8.18209 7.51264 8.46779C7.79834 8.75349 8.18583 8.91399 8.58987 8.91399C8.90015 8.914 9.20291 8.81853 9.45706 8.64055C9.71122 8.81853 10.014 8.914 10.3243 8.91399C10.3907 8.91399 10.4571 8.91008 10.5196 8.90227C10.4733 9.0913 10.3651 9.2594 10.2122 9.37976C10.0592 9.50012 9.87042 9.5658 9.67581 9.56633V10.871C10.8711 10.871 11.8477 9.89446 11.8477 8.69524V5.65227H10.5469V7.39055Z" fill="#EEEEEE"/>
<path d="M7.06644 9.56625H9.01956V10.8709H7.06644V9.56625Z" fill="#EEEEEE"/>
</svg>
