<svg width="20" height="20" viewBox="0 0 20 20" fill="none" xmlns="http://www.w3.org/2000/svg">
<path d="M17.0703 17.0702C18.8652 15.2747 19.91 12.8637 19.9927 10.3262C20.0754 7.78871 19.1898 5.31478 17.5157 3.40617L10 9.99992L3.40628 17.5155C5.31488 19.1897 7.78882 20.0753 10.3263 19.9926C12.8638 19.9099 15.2748 18.8651 17.0703 17.0702Z" fill="#496E2D"/>
<path d="M2.92969 2.92952C4.72524 1.13463 7.13626 0.0898846 9.67374 0.00718816C12.2112 -0.0755083 14.6851 0.810038 16.5938 2.48421L10 9.99983L2.48438 16.5936C0.810206 14.685 -0.0753404 12.211 0.007356 9.67357C0.0900524 7.1361 1.1348 4.72507 2.92969 2.92952Z" fill="#0052B4"/>
<path d="M16.5937 2.48451L2.48434 16.5939C2.62761 16.7575 2.77613 16.9164 2.92966 17.0704C3.08371 17.2239 3.24264 17.3725 3.40622 17.5158L17.5156 3.40639C17.3723 3.24279 17.2238 3.08385 17.0703 2.92982C16.9162 2.77631 16.7573 2.6278 16.5937 2.48451Z" fill="#FFDA44"/>
<path d="M4.21484 3.47656L4.42969 4.14062H5.12891L4.5625 4.55469L4.77734 5.21875L4.21875 4.80469L3.65234 5.21875L3.86719 4.55469L3.30078 4.14062H3.99609L4.21484 3.47656ZM7.78125 3.47656L7.99609 4.14062H8.69922L8.125 4.55469L8.34375 5.21875L7.77734 4.80469L7.21094 5.21875L7.42969 4.55469L6.86328 4.14062H7.5625L7.78125 3.47656ZM4.21484 6.95312L4.42969 7.61719H5.12891L4.5625 8.03125L4.77734 8.69531L4.21484 8.28516L3.64844 8.69531L3.86328 8.03125L3.30078 7.62109H3.99609L4.21484 6.95312ZM7.78125 6.95312L7.99609 7.61719H8.69922L8.125 8.03516L8.34375 8.69922L7.77734 8.28906L7.21094 8.69922L7.42969 8.03516L6.86328 7.625H7.5625L7.78125 6.95312ZM5.99609 5.21875L6.21484 5.88281H6.91016L6.34766 6.28906L6.5625 6.95312L5.99609 6.54297L5.43359 6.95312L5.64844 6.28906L5.08203 5.87891H5.78125L5.99609 5.21875Z" fill="#EEEEEE"/>
</svg>
