<svg width="20" height="20" viewBox="0 0 20 20" fill="none" xmlns="http://www.w3.org/2000/svg">
<g clip-path="url(#clip0)">
<path d="M10 20C15.5228 20 20 15.5228 20 10C20 4.47715 15.5228 0 10 0C4.47715 0 0 4.47715 0 10C0 15.5228 4.47715 20 10 20Z" fill="#EEEEEE"/>
<path d="M16.75 2.621C15.6807 1.64005 14.4101 0.904565 13.0269 0.46599C11.6437 0.0274141 10.1813 -0.10366 8.74219 0.0819355L3.91406 5.64834L0.3125 12.5038C0.546875 13.4022 0.898437 14.2577 1.35938 15.0429L10 9.9999L16.75 2.621Z" fill="#FFDA44"/>
<path d="M18.3242 15.5391L4.33594 18.2423C5.42803 18.9953 6.6592 19.5233 7.95758 19.7954C9.25595 20.0675 10.5955 20.0782 11.8981 19.8269C13.2006 19.5756 14.4401 19.0674 15.5441 18.3319C16.6481 17.5964 17.5945 16.6483 18.3281 15.543L18.3242 15.5391Z" fill="#6DA544"/>
<path d="M16.75 2.62492L1.36719 15.0507C1.76864 15.7354 2.24986 16.37 2.80078 16.9413L20 9.99992C20 7.07805 18.75 4.45305 16.75 2.62492Z" fill="#D80027"/>
<path d="M0 10.0001C0 10.8634 0.109375 11.7033 0.316406 12.504L8.74219 0.0821686C6.32765 0.388304 4.10763 1.56452 2.49826 3.39034C0.888885 5.21617 0.000635557 7.56627 0 10.0001H0Z" fill="#0052B4"/>
</g>
<defs>
<clipPath id="clip0">
<rect width="20" height="20" fill="white"/>
</clipPath>
</defs>
</svg>
