<svg width="20" height="20" viewBox="0 0 20 20" fill="none" xmlns="http://www.w3.org/2000/svg">
<g clip-path="url(#clip0)">
<path d="M0.992188 5.65221C0.355469 6.96861 0 8.44127 0 9.99986C0 11.5585 0.355469 13.0311 0.992188 14.3475L10 15.2186L19.0078 14.3475C19.6445 13.0311 20 11.5585 20 9.99986C20 8.44127 19.6445 6.96861 19.0078 5.65221L10 4.78111L0.992188 5.65221Z" fill="#EEEEEE"/>
<path d="M0.992218 14.3477C1.80935 16.0427 3.08811 17.4727 4.68154 18.4734C6.27497 19.4741 8.11841 20.005 10 20.005C11.8817 20.005 13.7251 19.4741 15.3185 18.4734C16.912 17.4727 18.1907 16.0427 19.0078 14.3477H0.992218Z" fill="#333333"/>
<path d="M0.992218 5.65231H19.0078C18.1907 3.95738 16.912 2.52739 15.3185 1.52665C13.7251 0.525912 11.8817 -0.00495911 10 -0.00495911C8.11841 -0.00495911 6.27497 0.525912 4.68154 1.52665C3.08811 2.52739 1.80935 3.95738 0.992218 5.65231Z" fill="#D80027"/>
<path d="M2.92973 2.92969C1.05483 4.80499 0.0015564 7.34821 0.0015564 10C0.0015564 12.6518 1.05483 15.195 2.92973 17.0703L10 10L2.92973 2.92969Z" fill="#496E2D"/>
</g>
<defs>
<clipPath id="clip0">
<rect width="20" height="20" fill="white"/>
</clipPath>
</defs>
</svg>
