<svg width="20" height="20" viewBox="0 0 20 20" fill="none" xmlns="http://www.w3.org/2000/svg">
<g clip-path="url(#clip0)">
<path d="M10 20C15.5228 20 20 15.5228 20 10C20 4.47715 15.5228 0 10 0C4.47715 0 0 4.47715 0 10C0 15.5228 4.47715 20 10 20Z" fill="#FFDA44"/>
<path d="M7.82416 8.69513H19.914C19.5975 6.28977 18.4173 4.0815 16.5933 2.48177C14.7694 0.88203 12.426 -6.73417e-05 9.99994 -0.00017936C9.2683 -0.00160323 8.53871 0.0769889 7.82416 0.234196V8.69513ZM5.21869 8.69513V1.21466C3.8344 1.96912 2.64794 3.03995 1.75597 4.33988C0.864003 5.63982 0.291763 7.1321 0.0858765 8.69513H5.21869ZM5.21869 11.3045H0.0858765C0.291763 12.8675 0.864003 14.3598 1.75597 15.6598C2.64794 16.9597 3.8344 18.0305 5.21869 18.785V11.3045ZM7.82416 11.3045V19.7615C8.53856 19.9201 9.26816 20 9.99994 19.9998C12.426 19.9997 14.7694 19.1176 16.5933 17.5179C18.4173 15.9181 19.5975 13.7099 19.914 11.3045H7.82416Z" fill="#0052B4"/>
</g>
<defs>
<clipPath id="clip0">
<rect width="20" height="20" fill="white"/>
</clipPath>
</defs>
</svg>
