<svg width="20" height="20" viewBox="0 0 20 20" fill="none" xmlns="http://www.w3.org/2000/svg">
<path d="M10 20C15.5228 20 20 15.5228 20 10C20 4.47715 15.5228 0 10 0C4.47715 0 0 4.47715 0 10C0 15.5228 4.47715 20 10 20Z" fill="#EEEEEE"/>
<path d="M0 10C0 7.34784 1.05357 4.8043 2.92893 2.92893C4.8043 1.05357 7.34784 0 10 0C12.6522 0 15.1957 1.05357 17.0711 2.92893C18.9464 4.8043 20 7.34784 20 10" fill="#D80027"/>
<path d="M6.08592 5.21883C6.08654 4.52523 6.32379 3.85259 6.75846 3.31209C7.19314 2.77159 7.79922 2.39557 8.47654 2.24618C8.26225 2.19938 8.04354 2.17581 7.8242 2.17586C7.39366 2.17128 6.96703 2.25799 6.57244 2.4303C6.17786 2.60261 5.82427 2.85659 5.53499 3.1755C5.24571 3.49441 5.0273 3.87101 4.89418 4.28048C4.76105 4.68995 4.71621 5.12299 4.76263 5.55105C4.80905 5.9791 4.94567 6.39246 5.16348 6.76388C5.38129 7.13529 5.67534 7.45632 6.02626 7.70581C6.37718 7.9553 6.77699 8.12758 7.19934 8.21129C7.62169 8.29501 8.05699 8.28826 8.47654 8.19149C7.79922 8.0421 7.19314 7.66608 6.75846 7.12557C6.32379 6.58507 6.08654 5.91244 6.08592 5.21883ZM9.99998 2.39071L10.2148 3.05477H10.918L10.3476 3.46492L10.5664 4.12899L9.99998 3.71883L9.43358 4.12899L9.65233 3.46492L9.08592 3.05477H9.78514L9.99998 2.39071Z" fill="#EEEEEE"/>
<path d="M8.3046 3.69543L8.52335 4.3595H9.21866L8.65616 4.76965L8.871 5.43371L8.3046 5.02356L7.7421 5.43371L7.95694 4.76965L7.39053 4.3595H8.08975L8.3046 3.69543ZM11.6952 3.69543L11.9101 4.3595H12.6093L12.0429 4.76965L12.2577 5.43371L11.6952 5.02356L11.1288 5.43371L11.3437 4.76965L10.7812 4.3595H11.4765L11.6952 3.69543ZM11.0429 5.65246L11.2577 6.31653H11.9569L11.3905 6.72668L11.6054 7.39074L11.0429 6.98059L10.4765 7.39074L10.6913 6.72668L10.1288 6.31653H10.828L11.0429 5.65246ZM8.95694 5.65246L9.17178 6.31653H9.87491L9.3085 6.72668L9.52335 7.39074L8.95694 6.98059L8.39444 7.39074L8.60928 6.72668L8.04288 6.31653H8.7421L8.95694 5.65246Z" fill="#EEEEEE"/>
</svg>
