<svg width="20" height="20" viewBox="0 0 20 20" fill="none" xmlns="http://www.w3.org/2000/svg">
<g clip-path="url(#clip0)">
<path d="M10 20C15.5228 20 20 15.5228 20 10C20 4.47715 15.5228 0 10 0C4.47715 0 0 4.47715 0 10C0 15.5228 4.47715 20 10 20Z" fill="#EEEEEE"/>
<path d="M19.375 6.52336H8.69923V3.91399H3.47657V6.52336H0.625007C-0.208783 8.76608 -0.208783 11.2338 0.625007 13.4765L10 14.3476L19.375 13.4765C20.2085 11.2337 20.2085 8.76614 19.375 6.52336Z" fill="#0052B4"/>
<path d="M10 20C12.0417 19.9998 14.0345 19.3745 15.7104 18.2084C17.3864 17.0422 18.6652 15.3909 19.375 13.4766H0.625C1.33483 15.3909 2.61364 17.0422 4.28957 18.2084C5.96551 19.3745 7.95826 19.9998 10 20Z" fill="#D80027"/>
<path d="M3.47656 6.52351V7.3907C3.47656 9.3868 6.08594 10.0001 6.08594 10.0001C6.08594 10.0001 8.69531 9.3868 8.69531 7.3907V6.52351L7.82422 7.3907L6.08594 6.08601L4.34766 7.3907L3.47656 6.52351Z" fill="#EEEEEE"/>
</g>
<defs>
<clipPath id="clip0">
<rect width="20" height="20" fill="white"/>
</clipPath>
</defs>
</svg>
