<svg width="20" height="20" viewBox="0 0 20 20" fill="none" xmlns="http://www.w3.org/2000/svg">
<path d="M10 20C15.5228 20 20 15.5228 20 10C20 4.47715 15.5228 0 10 0C4.47715 0 0 4.47715 0 10C0 15.5228 4.47715 20 10 20Z" fill="#496E2D"/>
<path d="M10 16.25C13.0203 16.25 15.4688 13.9415 15.4688 11.0938C15.4688 8.24603 13.0203 5.9375 10 5.9375C6.97969 5.9375 4.53125 8.24603 4.53125 11.0938C4.53125 13.9415 6.97969 16.25 10 16.25Z" fill="white"/>
<path d="M10 14.0625C12.632 14.0625 14.7656 12.1212 14.7656 9.72656C14.7656 7.33189 12.632 5.39062 10 5.39062C7.36802 5.39062 5.23438 7.33189 5.23438 9.72656C5.23438 12.1212 7.36802 14.0625 10 14.0625Z" fill="#496E2D"/>
<path fill-rule="evenodd" clip-rule="evenodd" d="M10.0313 5.84375H9.96875C9.95703 6.17578 9.78516 6.42969 9.52734 6.66016C9.26953 6.89062 8.92578 7.09375 8.58594 7.32422C8.22795 7.5504 7.91095 7.8357 7.64844 8.16797C7.36081 8.55724 7.21224 9.03183 7.22656 9.51562C7.22656 10.0781 7.40234 10.5039 7.66016 10.8437C7.92768 11.1709 8.24702 11.452 8.60547 11.6758C8.94922 11.9102 9.28906 12.1133 9.54297 12.3477C9.72726 12.5026 9.8629 12.7074 9.9336 12.9375C9.94922 13.0195 9.96485 13.1016 9.97266 13.1914H10.0313C10.0352 13.1016 10.0508 13.0195 10.0664 12.9414C10.1364 12.7099 10.2721 12.5036 10.457 12.3477C10.7109 12.1133 11.0508 11.9102 11.3945 11.6758C11.7527 11.4531 12.072 11.1734 12.3398 10.8477C12.5977 10.5039 12.7695 10.0781 12.7695 9.51953C12.7856 9.03491 12.6384 8.55894 12.3516 8.16797C12.0886 7.8372 11.7717 7.55325 11.4141 7.32813C11.0703 7.09375 10.7305 6.89062 10.4727 6.66016C10.2148 6.42578 10.043 6.17578 10.0313 5.83984V5.84375Z" fill="white"/>
<path d="M10.2578 4.6017H11.3906L10.4922 5.19936L10.8438 6.11342L9.97266 5.5392H9.96875L9.10938 6.10951L9.4336 5.17201L8.60547 4.6017H9.62891L9.92578 3.73451L10.2578 4.6017Z" fill="white"/>
<path fill-rule="evenodd" clip-rule="evenodd" d="M12.4687 5.73039C12.3906 5.90227 12.3476 6.10539 12.3516 6.26946C12.25 6.21086 11.9453 6.07414 11.8515 6.05461C11.8555 6.28117 11.9258 6.52336 12.0351 6.67961C11.8008 6.65227 11.5976 6.69133 11.4219 6.75774C11.7969 7.26555 12.2187 7.33586 12.75 7.17961C12.7439 7.34861 12.7802 7.51645 12.8555 7.66789C12.6543 7.61001 12.4415 7.60597 12.2383 7.65617C12.5039 8.14836 12.9375 8.37883 13.4492 8.26945C13.3694 8.42601 13.3381 8.60283 13.3594 8.77727C13.1933 8.64937 12.9967 8.56722 12.789 8.53899C12.9414 9.16399 13.2695 9.39836 13.7031 9.57805C13.5625 9.63664 13.3984 9.98039 13.3867 10.0234C13.29 9.83694 13.1458 9.67931 12.9687 9.56633C12.8047 10.0741 12.9101 10.5546 13.3203 10.8398C13.2773 10.7968 13.0078 11.0234 12.957 11.0898C12.9384 10.882 12.8656 10.6826 12.7461 10.5116C12.4062 10.9101 12.3164 11.3866 12.5703 11.8007C12.4431 11.8349 12.3238 11.8932 12.2187 11.9726C12.2389 11.7641 12.2038 11.5539 12.1172 11.3632C11.7461 11.6523 11.582 12.2382 11.6992 12.5898C11.5508 12.5898 11.4062 12.6171 11.2734 12.6757C11.3428 12.4776 11.359 12.2648 11.3203 12.0585C10.793 12.3124 10.5586 12.7382 10.6484 13.2655L10.2695 13.4218L10.4531 13.5077L10.7031 13.3671C11.2344 13.621 11.7422 13.621 12.125 13.289C11.9687 13.1796 11.7812 13.0937 11.6172 13.0702C11.7143 12.9884 11.7951 12.889 11.8555 12.7773C12.3476 13.0234 12.8828 12.828 13.1836 12.3788C13.0124 12.3055 12.8267 12.2721 12.6406 12.2812C12.713 12.1836 12.7673 12.0738 12.8008 11.957C13.3281 12.0155 13.8164 11.789 13.9844 11.3085C13.7969 11.2695 13.5898 11.2695 13.4336 11.3124C13.4687 11.2655 13.5312 10.9335 13.5351 10.8905C14.0898 10.7187 14.4023 10.3984 14.418 9.82805C14.2305 9.8632 14.0391 9.94524 13.9101 10.0429C13.8971 9.88733 13.8709 9.73314 13.832 9.58195C14.0447 9.42476 14.1981 9.20046 14.2676 8.9453C14.337 8.69013 14.3185 8.419 14.2148 8.1757C14.0616 8.28085 13.9346 8.41986 13.8437 8.58195C13.8594 8.54289 13.6758 8.24602 13.5781 8.19524C13.8789 7.72649 13.7851 7.14836 13.4219 6.78899C13.3203 6.94524 13.2461 7.14055 13.2305 7.30461C13.1758 7.18742 12.9297 7.07805 12.8398 7.04289C12.9726 6.48039 12.9453 6.08195 12.4687 5.73039ZM7.53124 5.73039C7.60936 5.90227 7.65233 6.10539 7.64842 6.26946C7.74999 6.21086 8.05858 6.07414 8.14842 6.05461C8.14452 6.28117 8.0742 6.52336 7.96483 6.67961C8.1992 6.65227 8.40233 6.69133 8.57811 6.75774C8.20311 7.26555 7.78124 7.33586 7.24999 7.17961C7.25603 7.34861 7.21978 7.51645 7.14452 7.66789C7.34567 7.61001 7.5585 7.60597 7.7617 7.65617C7.49608 8.14836 7.06249 8.37883 6.55077 8.26945C6.63059 8.42601 6.66187 8.60283 6.64061 8.77727C6.80663 8.64937 7.00326 8.56722 7.21092 8.53899C7.05858 9.16399 6.73045 9.39836 6.29686 9.57805C6.43749 9.63664 6.60155 9.98039 6.61327 10.0234C6.71002 9.83694 6.85418 9.67931 7.03124 9.56633C7.1953 10.0741 7.08983 10.5546 6.67967 10.8398C6.72264 10.7968 6.99217 11.0234 7.04295 11.0898C7.0616 10.882 7.13433 10.6826 7.25389 10.5116C7.59374 10.9101 7.68358 11.3866 7.42967 11.8007C7.55682 11.8349 7.67619 11.8932 7.78124 11.9726C7.76111 11.7641 7.79613 11.5539 7.8828 11.3632C8.25389 11.6523 8.41795 12.2382 8.30077 12.5898C8.4492 12.5898 8.59374 12.6171 8.72655 12.6757C8.657 12.4777 8.64084 12.2648 8.67967 12.0585C9.20702 12.3124 9.44139 12.7382 9.35155 13.2655L9.73045 13.4218L9.54686 13.5077L9.29686 13.3671C8.76561 13.621 8.2578 13.621 7.87499 13.289C8.03124 13.1796 8.21874 13.0937 8.3828 13.0702C8.28569 12.9884 8.20485 12.889 8.14452 12.7773C7.65233 13.0234 7.11717 12.828 6.81639 12.3788C6.99217 12.3007 7.1953 12.2655 7.35936 12.2812C7.28694 12.1836 7.23269 12.0738 7.1992 11.957C6.67186 12.0155 6.18358 11.789 6.01561 11.3085C6.20311 11.2695 6.41014 11.2695 6.56639 11.3124C6.53124 11.2655 6.46874 10.9335 6.46483 10.8905C5.91014 10.7187 5.59764 10.3984 5.58202 9.82805C5.76952 9.8632 5.96092 9.94524 6.08983 10.0429C6.09764 9.93742 6.14452 9.64445 6.16795 9.58195C5.9553 9.42476 5.80185 9.20046 5.73239 8.9453C5.66293 8.69013 5.68151 8.419 5.78514 8.1757C5.93837 8.28085 6.06535 8.41986 6.15624 8.58195C6.14061 8.54289 6.3242 8.24602 6.42186 8.19524C6.28231 7.97859 6.22166 7.72048 6.25012 7.46435C6.27858 7.20822 6.39441 6.96972 6.57811 6.78899C6.67967 6.94524 6.75389 7.14055 6.76952 7.30461C6.8242 7.18742 7.0742 7.07805 7.16014 7.04289C7.02733 6.48039 7.05467 6.08195 7.53124 5.73039Z" fill="white"/>
</svg>
