<svg width="20" height="20" viewBox="0 0 20 20" fill="none" xmlns="http://www.w3.org/2000/svg">
<path d="M10 20C15.5228 20 20 15.5228 20 10C20 4.47715 15.5228 0 10 0C4.47715 0 0 4.47715 0 10C0 15.5228 4.47715 20 10 20Z" fill="#EEEEEE"/>
<path d="M9.99999 20C11.6126 19.9998 13.2012 19.6096 14.6304 18.8627C16.0596 18.1159 17.2869 17.0344 18.2078 15.7106C19.1287 14.3869 19.7158 12.86 19.919 11.2603C20.1223 9.66058 19.9356 8.03543 19.375 6.52344H0.624987C0.0643629 8.03543 -0.12229 9.66058 0.080943 11.2603C0.284176 12.86 0.871268 14.3869 1.79216 15.7106C2.71304 17.0344 3.94041 18.1159 5.3696 18.8627C6.79879 19.6096 8.3874 19.9998 9.99999 20Z" fill="#0052B4"/>
<path d="M10 20C12.0417 19.9998 14.0345 19.3745 15.7104 18.2084C17.3864 17.0422 18.6652 15.3909 19.375 13.4766H0.625C1.33483 15.3909 2.61364 17.0422 4.28957 18.2084C5.96551 19.3745 7.95826 19.9998 10 20Z" fill="#D80027"/>
<path d="M2.58595 5.65227V10.6405C2.58595 13.4765 6.29299 14.3515 6.29299 14.3515C6.29299 14.3515 10 13.4765 10 10.6405V5.65227H2.58595Z" fill="#EEEEEE"/>
<path d="M3.45704 5.65227V10.6406C3.45611 10.9671 3.531 11.2893 3.67579 11.582H8.91016C9.0555 11.2895 9.13041 10.9671 9.12891 10.6406V5.65227H3.45704Z" fill="#D80027"/>
<path d="M8.03127 9.12891H6.72658V8.26172H7.59767V7.39062H6.72658V6.52344H5.85939V7.39062H4.9883V8.26172H5.85939V9.12891H4.5547V10H5.85939V10.8711H6.72658V10H8.03127V9.12891Z" fill="#EEEEEE"/>
<path d="M4.8633 12.7969C5.31071 13.0723 5.79106 13.2901 6.29298 13.4453C6.58595 13.3555 7.16408 13.1485 7.72267 12.7969C8.22257 12.5104 8.63354 12.0914 8.91017 11.586C8.65356 11.4031 8.34635 11.3048 8.03127 11.3047C7.91408 11.3047 7.79689 11.3203 7.68752 11.3438C7.56847 11.0731 7.37323 10.8429 7.12561 10.6813C6.87798 10.5197 6.58868 10.4336 6.29298 10.4336C5.99729 10.4336 5.70798 10.5197 5.46036 10.6813C5.21273 10.8429 5.01749 11.0731 4.89845 11.3438C4.78572 11.3177 4.6704 11.3046 4.5547 11.3047C4.22658 11.3047 3.9258 11.4063 3.6758 11.5821C3.95185 12.0889 4.36288 12.5094 4.8633 12.7969Z" fill="#0052B4"/>
</svg>
