<svg width="20" height="20" viewBox="0 0 20 20" fill="none" xmlns="http://www.w3.org/2000/svg">
<g clip-path="url(#clip0)">
<path d="M20 10.0001C20 12.6523 18.9464 15.1958 17.0711 17.0712C15.1957 18.9466 12.6522 20.0001 10 20.0001C7.34784 20.0001 4.8043 18.9466 2.92893 17.0712C1.05357 15.1958 0 12.6523 0 10.0001C0.433594 10.0001 10 8.69545 10 8.69545L20 10.0001Z" fill="#338AF3"/>
<path d="M0 10C0 7.34784 1.05357 4.8043 2.92893 2.92893C4.8043 1.05357 7.34784 0 10 0C12.6522 0 15.1957 1.05357 17.0711 2.92893C18.9464 4.8043 20 7.34784 20 10" fill="#EEEEEE"/>
<path d="M13.9688 6.89857L10 10.8712L6.03129 6.89857C5.49981 7.68667 5.2168 8.61599 5.21879 9.56654V10.8712C5.21879 12.965 6.57035 14.7462 8.44926 15.3947C8.32194 15.6425 8.26896 15.9218 8.29668 16.199C8.3244 16.4762 8.43165 16.7395 8.60551 16.9572L10.0274 15.8165L11.4493 16.9572C11.6265 16.7372 11.7353 16.4701 11.7624 16.189C11.7895 15.9078 11.7336 15.6249 11.6016 15.3751C12.5311 15.0435 13.3354 14.4328 13.9046 13.6266C14.4737 12.8204 14.7799 11.8581 14.7813 10.8712V9.56654C14.7813 8.57826 14.4844 7.6642 13.9688 6.89857Z" fill="#6DA544"/>
<path d="M10 14.3475C8.08203 14.3475 6.52344 12.785 6.52344 10.871V9.56629C6.56581 8.67276 6.95059 7.82984 7.59793 7.21247C8.24527 6.5951 9.10546 6.25067 10 6.25067C10.8945 6.25067 11.7547 6.5951 12.4021 7.21247C13.0494 7.82984 13.4342 8.67276 13.4766 9.56629V10.871C13.4766 12.785 11.918 14.3475 10 14.3475Z" fill="#FFDA44"/>
<path d="M12.1758 10.871V9.56633C12.1758 8.98928 11.9465 8.43586 11.5385 8.02782C11.1305 7.61978 10.577 7.39055 9.99998 7.39055C9.42293 7.39055 8.86951 7.61978 8.46147 8.02782C8.05344 8.43586 7.8242 8.98928 7.8242 9.56633V10.871L9.99998 11.3007L12.1758 10.871Z" fill="#338AF3"/>
<path d="M7.8242 10.8712C7.8242 11.4482 8.05344 12.0016 8.46147 12.4097C8.86951 12.8177 9.42293 13.0469 9.99998 13.0469C10.577 13.0469 11.1305 12.8177 11.5385 12.4097C11.9465 12.0016 12.1758 11.4482 12.1758 10.8712H7.8242Z" fill="#6DA544"/>
<path d="M12.6094 6.08594C12.6096 5.8334 12.5365 5.58623 12.3989 5.37443C12.2614 5.16262 12.0653 4.99529 11.8346 4.89272C11.6038 4.79016 11.3482 4.75677 11.0988 4.79661C10.8495 4.83646 10.617 4.94782 10.4297 5.11719V4.35156H10.8672V3.47656H10.4297V3.04688H9.57031V3.47656H9.13281V4.34766H9.57031V5.11328C9.31111 4.89124 8.97523 4.7796 8.63468 4.80232C8.29414 4.82503 7.97605 4.98028 7.74864 5.23478C7.52122 5.48928 7.40259 5.82276 7.41818 6.1637C7.43377 6.50465 7.58234 6.82591 7.83203 7.05859V7.82422H12.1797V7.05859C12.4453 6.82031 12.6094 6.47266 12.6094 6.08594Z" fill="#FFDA44"/>
</g>
<defs>
<clipPath id="clip0">
<rect width="20" height="20" fill="white"/>
</clipPath>
</defs>
</svg>
