<svg width="20" height="20" viewBox="0 0 20 20" fill="none" xmlns="http://www.w3.org/2000/svg">
<g clip-path="url(#clip0)">
<path d="M14.3477 0.992188C13.0313 0.355469 11.5586 0 10 0C8.44144 0 6.96879 0.355469 5.65238 0.992188L4.78129 10L5.65238 19.0078C6.96879 19.6445 8.44144 20 10 20C11.5586 20 13.0313 19.6445 14.3477 19.0078L15.2188 10L14.3477 0.992188Z" fill="#FFDA44"/>
<path d="M9.99996 6.5233L10.8632 9.17955H13.6562L11.3984 10.8202L12.2578 13.4764L9.99996 11.8358L7.73824 13.4764L8.60152 10.8202L6.34371 9.17955H9.13668L9.99996 6.5233ZM5.6523 0.99205C3.95738 1.80919 2.52738 3.08794 1.52664 4.68137C0.525904 6.2748 -0.00496674 8.11824 -0.00496674 9.99986C-0.00496674 11.8815 0.525904 13.7249 1.52664 15.3184C2.52738 16.9118 3.95738 18.1905 5.6523 19.0077V0.99205Z" fill="#496E2D"/>
<path d="M14.3476 0.99205V19.0077C16.0426 18.1905 17.4726 16.9118 18.4733 15.3184C19.474 13.7249 20.0049 11.8815 20.0049 9.99986C20.0049 8.11824 19.474 6.2748 18.4733 4.68137C17.4726 3.08794 16.0426 1.80919 14.3476 0.99205Z" fill="#D80027"/>
</g>
<defs>
<clipPath id="clip0">
<rect width="20" height="20" fill="white"/>
</clipPath>
</defs>
</svg>
