<svg width="20" height="20" viewBox="0 0 20 20" fill="none" xmlns="http://www.w3.org/2000/svg">
<g clip-path="url(#clip0)">
<path d="M19.375 13.4765C20.2085 11.2337 20.2085 8.76615 19.375 6.52336L10 5.65227L0.625041 6.52336C-0.208401 8.76615 -0.208401 11.2337 0.625041 13.4765L10 14.3476L19.375 13.4765Z" fill="#EEEEEE"/>
<path d="M10 20C12.0417 19.9998 14.0345 19.3745 15.7104 18.2084C17.3864 17.0422 18.6652 15.3909 19.375 13.4766H0.625C1.33483 15.3909 2.61364 17.0422 4.28957 18.2084C5.96551 19.3745 7.95826 19.9998 10 20Z" fill="#D80027"/>
<path d="M10 0C7.95826 0.000249226 5.96551 0.625473 4.28957 1.79165C2.61364 2.95782 1.33483 4.60905 0.625 6.52344H19.375C18.6652 4.60905 17.3864 2.95782 15.7104 1.79165C14.0345 0.625473 12.0417 0.000249226 10 0V0Z" fill="#496E2D"/>
<path d="M10 7.8243L10.5391 9.48836H12.2852L10.875 10.5079L11.4141 12.172L10 11.1446L8.58594 12.172L9.125 10.5079L7.71484 9.48445H9.46094L10 7.8243Z" fill="#333333"/>
<path d="M12.9688 1.95312V3.98438C12.9688 4.30469 12.711 4.56641 12.3906 4.56641V5.42969C12.7743 5.42969 13.1424 5.27754 13.414 5.0066C13.6857 4.73567 13.8388 4.36805 13.8399 3.98438V1.95312H12.9727H12.9688ZM6.7383 3.98438C6.7383 4.30469 6.48049 4.56641 6.16017 4.56641V5.42969C6.54318 5.42866 6.9102 5.27605 7.18103 5.00523C7.45185 4.7344 7.60446 4.36738 7.60549 3.98438V1.95312H6.7383V3.98438Z" fill="#EEEEEE"/>
<path d="M11.668 1.95312H12.5352V3.98438H11.668V1.95312ZM10.3633 3.11719C10.3633 3.15552 10.3481 3.19228 10.321 3.21939C10.2939 3.24649 10.2571 3.26172 10.2188 3.26172C10.1805 3.26172 10.1437 3.24649 10.1166 3.21939C10.0895 3.19228 10.0743 3.15552 10.0743 3.11719V1.95312H9.20316V3.11328C9.20316 3.13226 9.19942 3.15106 9.19216 3.16859C9.1849 3.18613 9.17425 3.20206 9.16083 3.21548C9.14741 3.2289 9.13148 3.23955 9.11394 3.24681C9.0964 3.25407 9.07761 3.25781 9.05863 3.25781C9.03965 3.25781 9.02086 3.25407 9.00332 3.24681C8.98579 3.23955 8.96985 3.2289 8.95643 3.21548C8.94301 3.20206 8.93236 3.18613 8.9251 3.16859C8.91784 3.15106 8.9141 3.13226 8.9141 3.11328V1.95312H8.043V3.11328C8.043 3.24665 8.06928 3.37872 8.12032 3.50194C8.17136 3.62517 8.24617 3.73713 8.34048 3.83144C8.53094 4.0219 8.78927 4.12891 9.05863 4.12891C9.26562 4.12853 9.46747 4.06443 9.63676 3.94531C9.80759 4.06381 10.0109 4.12657 10.2188 4.125C10.2578 4.125 10.3047 4.125 10.3438 4.11719C10.3132 4.24358 10.2413 4.35611 10.1393 4.43682C10.0374 4.51753 9.91132 4.56177 9.78129 4.5625V5.42969C10.165 5.42969 10.533 5.27754 10.8047 5.0066C11.0763 4.73567 11.2295 4.36805 11.2305 3.98438V1.95312H10.3633V3.11328V3.11719Z" fill="#EEEEEE"/>
<path d="M8.04691 4.56627H9.34769V5.42955H8.043L8.04691 4.56627Z" fill="#EEEEEE"/>
</g>
<defs>
<clipPath id="clip0">
<rect width="20" height="20" fill="white"/>
</clipPath>
</defs>
</svg>
