<svg width="20" height="20" viewBox="0 0 20 20" fill="none" xmlns="http://www.w3.org/2000/svg">
<g clip-path="url(#clip0)">
<path d="M10 20C15.5228 20 20 15.5228 20 10C20 4.47715 15.5228 0 10 0C4.47715 0 0 4.47715 0 10C0 15.5228 4.47715 20 10 20Z" fill="#EEEEEE"/>
<path d="M19.375 6.52344H0.624952C-0.20849 8.76622 -0.20849 11.2338 0.624952 13.4766H19.375C20.2087 11.2338 20.2087 8.76616 19.375 6.52344Z" fill="#A2001D"/>
<path d="M10.0273 20C13.4531 20 16.4766 18.2812 18.2773 15.6523H1.77734C2.69506 16.9935 3.92615 18.0904 5.36381 18.8481C6.80147 19.6057 8.40227 20.0011 10.0273 20ZM10.0273 -2.81522e-05C13.4531 -2.81522e-05 16.4766 1.71872 18.2812 4.34763H1.77734C2.69506 3.00649 3.92615 1.90952 5.36381 1.15189C6.80147 0.394261 8.40227 -0.00114642 10.0273 -2.81522e-05Z" fill="#6DA544"/>
<path d="M10 6.52344L10.8633 9.17969H13.6563L11.3985 10.8203L12.2579 13.4766L10 11.8359L7.73832 13.4766L8.6016 10.8203L6.34379 9.17969H9.13676L10 6.52344Z" fill="#FFDA44"/>
</g>
<defs>
<clipPath id="clip0">
<rect width="20" height="20" fill="white"/>
</clipPath>
</defs>
</svg>
