<svg width="20" height="20" viewBox="0 0 20 20" fill="none" xmlns="http://www.w3.org/2000/svg">
<g clip-path="url(#clip0)">
<path d="M10 20C15.5228 20 20 15.5228 20 10C20 4.47715 15.5228 0 10 0C4.47715 0 0 4.47715 0 10C0 15.5228 4.47715 20 10 20Z" fill="#EEEEEE"/>
<path d="M19.2188 6.12495C18.5831 4.61319 17.5854 3.28095 16.3135 2.24563C15.0417 1.21031 13.5347 0.503681 11.9254 0.187997C10.3161 -0.127688 8.65389 -0.0427365 7.08516 0.435367C5.51643 0.91347 4.08936 1.77005 2.92969 2.92964L5.43359 6.12495H19.2227H19.2188Z" fill="#333333"/>
<path d="M5.46094 13.8399L2.92969 17.0704C4.09163 18.2325 5.52206 19.0903 7.09444 19.5679C8.66681 20.0456 10.3327 20.1284 11.9447 19.809C13.5567 19.4896 15.0651 18.7779 16.3366 17.7368C17.608 16.6957 18.6033 15.3572 19.2344 13.8399H5.46094Z" fill="#496E2D"/>
<path d="M2.17578 7.35555V12.6094H19.6563C20.1205 10.8884 20.1165 9.07452 19.6445 7.35555H2.17578Z" fill="#A2001D"/>
<path d="M2.92969 2.92969C1.05479 4.80499 0.00151062 7.34821 0.00151062 10C0.00151062 12.6518 1.05479 15.195 2.92969 17.0703L10 10L2.92969 2.92969Z" fill="#0052B4"/>
<path d="M3.25781 7.51549L4.47656 9.21861L6.47656 8.58189L5.23047 10.2694L6.45312 11.9725L4.46094 11.3124L3.22266 12.9999L3.23438 10.9022L1.25 10.2421L3.24219 9.60924L3.25781 7.51549Z" fill="#FFDA44"/>
</g>
<defs>
<clipPath id="clip0">
<rect width="20" height="20" fill="white"/>
</clipPath>
</defs>
</svg>
