<svg width="20" height="20" viewBox="0 0 20 20" fill="none" xmlns="http://www.w3.org/2000/svg">
<g clip-path="url(#clip0)">
<path d="M10 20C15.5228 20 20 15.5228 20 10C20 4.47715 15.5228 0 10 0C4.47715 0 0 4.47715 0 10C0 15.5228 4.47715 20 10 20Z" fill="#FFDA44"/>
<path d="M6.08594 6.52326H19.3789C18.7962 4.95116 17.8275 3.55083 16.562 2.45102C15.2965 1.35122 13.7748 0.587263 12.1368 0.229403C10.4988 -0.128457 8.79711 -0.0687297 7.18825 0.403092C5.57938 0.874914 4.11497 1.74369 2.92969 2.92951L6.08594 6.52326ZM6.08594 13.4764H19.3789C18.7962 15.0485 17.8275 16.4488 16.562 17.5486C15.2965 18.6484 13.7748 19.4124 12.1368 19.7702C10.4988 20.1281 8.79711 20.0684 7.18825 19.5965C5.57938 19.1247 4.11497 18.256 2.92969 17.0701L6.08594 13.4764Z" fill="#6DA544"/>
<path d="M2.92967 2.92969C1.05477 4.80499 0.00149536 7.34821 0.00149536 10C0.00149536 12.6518 1.05477 15.195 2.92967 17.0703L9.99999 10L2.92967 2.92969Z" fill="#D80027"/>
<path d="M12.6953 8.26172L13.1289 9.58984H14.5312L13.3984 10.4102L13.832 11.7383L12.6992 10.918L11.5703 11.7383L12 10.4102L10.875 9.58984H12.2656L12.6953 8.26172ZM17.0469 8.26172L17.4765 9.58984H18.875L17.7422 10.4102L18.1758 11.7383L17.043 10.918L15.914 11.7383L16.3476 10.4102L15.2148 9.58984H16.6133L17.0469 8.26172Z" fill="#333333"/>
</g>
<defs>
<clipPath id="clip0">
<rect width="20" height="20" fill="white"/>
</clipPath>
</defs>
</svg>
