<svg width="20" height="20" viewBox="0 0 20 20" fill="none" xmlns="http://www.w3.org/2000/svg">
<g clip-path="url(#clip0)">
<path d="M10 20C15.5228 20 20 15.5228 20 10C20 4.47715 15.5228 0 10 0C4.47715 0 0 4.47715 0 10C0 15.5228 4.47715 20 10 20Z" fill="#EEEEEE"/>
<path d="M9.99998 2.82363e-07C8.11889 -0.000446655 6.27582 0.52969 4.68244 1.52952C3.08906 2.52936 1.81001 3.95834 0.992172 5.65234H19.0078C18.19 3.95834 16.9109 2.52936 15.3175 1.52952C13.7242 0.52969 11.8811 -0.000446655 9.99998 2.82363e-07ZM9.99998 20C11.8811 20.0004 13.7242 19.4703 15.3175 18.4705C16.9109 17.4706 18.19 16.0417 19.0078 14.3477H0.992172C1.81001 16.0417 3.08906 17.4706 4.68244 18.4705C6.27582 19.4703 8.11889 20.0004 9.99998 20Z" fill="#0052B4"/>
<path d="M7.9922 10.4337L10 6.95717L12.0078 10.4337H7.9922Z" fill="#FFDA44"/>
<path d="M12.6094 11.582L10 12.8906L7.39064 11.5859V9.84375H12.6094V11.582Z" fill="#6DA544"/>
<path d="M12.4609 7.10938L11.5391 8.02734C11.8461 8.33036 12.0557 8.71808 12.1412 9.14091C12.2266 9.56374 12.184 10.0024 12.0187 10.4009C11.8535 10.7994 11.5731 11.1395 11.2135 11.3777C10.8539 11.616 10.4314 11.7415 9.99999 11.7383C9.57063 11.737 9.15127 11.6086 8.79469 11.3695C8.43811 11.1303 8.16027 10.791 7.99614 10.3942C7.83201 9.99749 7.78894 9.56105 7.87234 9.13987C7.95574 8.71869 8.16189 8.3316 8.46483 8.02734L7.53905 7.10938C7.05359 7.59588 6.72322 8.21535 6.58968 8.88954C6.45614 9.56372 6.52542 10.2624 6.78878 10.8972C7.05213 11.532 7.49773 12.0745 8.06929 12.4562C8.64084 12.8379 9.31271 13.0416 9.99999 13.0416C10.6873 13.0416 11.3591 12.8379 11.9307 12.4562C12.5022 12.0745 12.9478 11.532 13.2112 10.8972C13.4746 10.2624 13.5438 9.56372 13.4103 8.88954C13.2768 8.21535 12.9464 7.59588 12.4609 7.10938Z" fill="#FFDA44"/>
</g>
<defs>
<clipPath id="clip0">
<rect width="20" height="20" fill="white"/>
</clipPath>
</defs>
</svg>
