<svg width="20" height="20" viewBox="0 0 20 20" fill="none" xmlns="http://www.w3.org/2000/svg">
<path d="M9.12891 10.8713C9.12891 10.8713 2.93359 2.92595 2.92969 2.92986C4.32821 1.53164 6.1099 0.579475 8.04951 0.193748C9.98912 -0.19198 11.9996 0.00605114 13.8266 0.762803C15.6537 1.51955 17.2154 2.80105 18.3142 4.44526C19.413 6.08947 19.9997 8.02258 20 10.0002L9.12891 10.8713Z" fill="#D80027"/>
<path d="M9.12891 10L2.92969 17.0703C4.32821 18.4685 6.1099 19.4207 8.04951 19.8064C9.98912 20.1922 11.9996 19.9941 13.8266 19.2374C15.6537 18.4806 17.2154 17.1991 18.3142 15.5549C19.413 13.9107 19.9997 11.9776 20 10H9.12891Z" fill="#0052B4"/>
<path d="M2.92967 2.92969C1.05477 4.80499 0.00149536 7.34821 0.00149536 10C0.00149536 12.6518 1.05477 15.195 2.92967 17.0703L9.99999 10L2.92967 2.92969Z" fill="#EEEEEE"/>
<path d="M1.09373 10C1.08833 10.0728 1.08572 10.1458 1.08592 10.2188C1.11492 10.9673 1.44009 11.6736 1.98988 12.1824C2.26211 12.4343 2.58129 12.6301 2.9292 12.7587C3.27711 12.8872 3.64693 12.946 4.01756 12.9316C4.38818 12.9173 4.75235 12.8301 5.08927 12.675C5.42618 12.5199 5.72925 12.2999 5.98117 12.0277C6.23308 11.7555 6.42891 11.4363 6.55747 11.0884C6.68603 10.7405 6.74481 10.3706 6.73045 10H1.09373Z" fill="#FFDA44"/>
<path d="M3.91406 8.69531C4.39515 8.69531 4.78516 8.30531 4.78516 7.82422C4.78516 7.34313 4.39515 6.95312 3.91406 6.95312C3.43297 6.95312 3.04297 7.34313 3.04297 7.82422C3.04297 8.30531 3.43297 8.69531 3.91406 8.69531Z" fill="#FFDA44"/>
<path d="M1.95312 7.6093V10.4296C1.95312 11.9296 3.91406 12.3866 3.91406 12.3866C3.91406 12.3866 5.86719 11.9296 5.86719 10.4335V7.60539H1.96094L1.95312 7.6093Z" fill="#D80027"/>
<path d="M3.91405 11.4845C3.55077 11.3517 2.8242 11.0158 2.8242 10.4337V8.48061H4.99998V10.4337C4.99998 11.0197 4.27342 11.3517 3.91405 11.4806V11.4845Z" fill="#338AF3"/>
<path d="M4.34766 9.56633V9.12883L3.91406 8.91399L3.47656 9.12883V9.57024L3.26172 9.78508V10.6562H4.56641V9.78508L4.34766 9.56633Z" fill="#EEEEEE"/>
</svg>
