<svg width="20" height="20" viewBox="0 0 20 20" fill="none" xmlns="http://www.w3.org/2000/svg">
<g clip-path="url(#clip0)">
<path d="M19.0078 14.3478C19.6445 13.0314 20 11.5587 20 10.0001C20 8.44154 19.6445 6.96889 19.0078 5.65248L10 5.21889L0.992188 5.65248C0.355469 6.96889 0 8.43764 0 10.0001C0 11.5626 0.355469 13.0314 0.992188 14.3478L10 14.7814L19.0078 14.3478Z" fill="#FFDA44"/>
<path d="M10 2.82363e-07C8.11894 -0.000446655 6.27586 0.52969 4.68249 1.52952C3.08911 2.52936 1.81005 3.95834 0.992218 5.65234H19.0078C18.19 3.95834 16.911 2.52936 15.3176 1.52952C13.7242 0.52969 11.8811 -0.000446655 10 2.82363e-07Z" fill="#333333"/>
<path d="M10 20.0001C8.11894 20.0005 6.27586 19.4704 4.68249 18.4706C3.08911 17.4707 1.81005 16.0417 0.992218 14.3477H19.0078C18.19 16.0417 16.911 17.4707 15.3176 18.4706C13.7242 19.4704 11.8811 20.0005 10 20.0001Z" fill="#0052B4"/>
<path d="M19.5312 6.95312H0.468725C-0.165763 8.93483 -0.165763 11.0652 0.468725 13.0469H19.5312C20.1657 11.0652 20.1657 8.93483 19.5312 6.95312Z" fill="#A2001D"/>
<path d="M3.47656 9.56648H16.5234V10.4298H3.47656V9.56648ZM5.21875 7.8243H14.7812V8.69539H5.21875V7.8243Z" fill="#FFDA44"/>
<path d="M14.8438 9.99993C14.8438 9.99993 12.6094 12.6093 10 12.6093C7.39062 12.6093 7.39062 9.99993 7.39062 9.99993C7.39062 9.99993 7.39062 7.39055 10 7.39055C12.6094 7.39055 14.8438 9.99993 14.8438 9.99993Z" fill="#EEEEEE"/>
<path d="M10 12.6093C7.39062 12.6093 5.15625 9.99993 5.15625 9.99993C5.15625 9.99993 7.39062 7.39055 10 7.39055" fill="#333333"/>
<path d="M8.26172 9.12883H9.12891V10.871H8.26172V9.12883Z" fill="#EEEEEE"/>
<path d="M10.8711 9.12883H11.7383V10.871H10.8711V9.12883Z" fill="#333333"/>
<path d="M3.47656 10.871C3.95765 10.871 4.34766 10.481 4.34766 9.99993C4.34766 9.51883 3.95765 9.12883 3.47656 9.12883C2.99547 9.12883 2.60547 9.51883 2.60547 9.99993C2.60547 10.481 2.99547 10.871 3.47656 10.871Z" fill="#0052B4"/>
<path d="M16.5234 10.871C17.0045 10.871 17.3945 10.481 17.3945 9.99993C17.3945 9.51883 17.0045 9.12883 16.5234 9.12883C16.0423 9.12883 15.6523 9.51883 15.6523 9.99993C15.6523 10.481 16.0423 10.871 16.5234 10.871Z" fill="#0052B4"/>
</g>
<defs>
<clipPath id="clip0">
<rect width="20" height="20" fill="white"/>
</clipPath>
</defs>
</svg>
