<svg width="20" height="20" viewBox="0 0 20 20" fill="none" xmlns="http://www.w3.org/2000/svg">
<path d="M20 10C20 12.6522 18.9464 15.1957 17.0711 17.0711C15.1957 18.9464 12.6522 20 10 20C7.34784 20 4.8043 18.9464 2.92893 17.0711C1.05357 15.1957 0 12.6522 0 10L10 0C12.6522 0 15.1957 1.05357 17.0711 2.92893C18.9464 4.8043 20 7.34784 20 10Z" fill="#0052B4"/>
<path d="M9.97263 10.0001H9.99996V9.97273L9.97263 10.0001Z" fill="#EEEEEE"/>
<path d="M10 5.21875V0C7.34784 0 4.8043 1.05357 2.92893 2.92893C1.05357 4.8043 0 7.34784 0 10H5.21875V7.0625L8.15625 10H9.97266L10 9.97266V8.15625L7.0625 5.21875H10Z" fill="#EEEEEE"/>
<path d="M5.05862 1.30455C3.49338 2.19664 2.19681 3.49321 1.30472 5.05846V9.99986H3.91409V3.91392H10V1.30455H5.05862Z" fill="#D80027"/>
<path d="M10 8.76953L6.44534 5.21484H5.21878L10 10V8.76953Z" fill="#D80027"/>
<path d="M11.3047 5.21889V10.0001C11.3047 12.3283 14.3476 13.047 14.3476 13.047C14.3476 13.047 17.3945 12.3283 17.3945 10.0001V5.21889H11.3008H11.3047Z" fill="#FFDA44"/>
<path d="M13.9141 6.9532C13.9141 7.43758 13.5235 8.69539 13.043 8.69539C12.5625 8.69539 12.1758 7.43758 12.1758 6.95711C12.1758 6.47664 13.043 6.08601 13.043 6.08601C13.043 6.08601 13.9141 6.47664 13.9141 6.95711V6.9532Z" fill="#FF9811"/>
<path d="M16.2187 7.90242C16.3587 7.55314 16.443 7.18407 16.4687 6.80867C16.4687 6.41023 15.9492 6.08601 15.9492 6.08601C15.9492 6.08601 15.4258 6.41023 15.4258 6.81258C15.4258 7.06258 15.5351 7.56258 15.6758 7.90633L15.375 8.58211C15.557 8.65806 15.752 8.69786 15.9492 8.6993C16.1464 8.69786 16.3414 8.65806 16.5234 8.58211L16.2187 7.90242Z" fill="#A2001D"/>
<path d="M13.6953 9.99986C13.6953 9.99986 13.2617 10.871 13.2617 11.7381H15.4297C15.4297 10.871 14.9961 9.99986 14.9961 9.99986L14.3438 9.56627L13.6914 9.99986H13.6953Z" fill="#6DA544"/>
<path d="M15 9.99993V9.78118C15 9.60816 14.9312 9.44224 14.8089 9.3199C14.6866 9.19756 14.5206 9.12883 14.3476 9.12883C14.1746 9.12883 14.0087 9.19756 13.8863 9.3199C13.764 9.44224 13.6953 9.60816 13.6953 9.78118V9.99993H15Z" fill="#D80027"/>
</svg>
