<svg width="20" height="20" viewBox="0 0 20 20" fill="none" xmlns="http://www.w3.org/2000/svg">
<g clip-path="url(#clip0)">
<path d="M10 20C15.5228 20 20 15.5228 20 10C20 4.47715 15.5228 0 10 0C4.47715 0 0 4.47715 0 10C0 15.5228 4.47715 20 10 20Z" fill="#FFDA44"/>
<path d="M9.99994 -5.41583e-05C9.99213 -5.41583e-05 9.56635 3.99995 9.56635 3.99995H18.0039C17.0728 2.75656 15.8645 1.74754 14.4751 1.05315C13.0856 0.358749 11.5533 -0.0018771 9.99994 -5.41583e-05ZM9.99994 19.9999C13.2734 19.9999 16.1757 18.4296 17.9999 15.9999H1.99994C2.93057 17.2428 4.13823 18.2515 5.52698 18.9459C6.91573 19.6402 8.44728 20.0012 9.99994 19.9999ZM19.8007 7.99995H9.56635L9.99994 11.9999H19.8007C20.069 10.6801 20.069 9.31978 19.8007 7.99995Z" fill="#496E2D"/>
<path d="M10 12V-1.48604e-05C8.51691 -0.000433445 7.05229 0.329043 5.71224 0.964545C4.37219 1.60005 3.19028 2.52566 2.25212 3.67434C1.31396 4.82301 0.64305 6.16598 0.28799 7.60595C-0.0670692 9.04593 -0.0973869 10.5468 0.199234 12H10Z" fill="#D80027"/>
<path d="M5.51953 4.78111L6.16406 6.7733H8.26172L6.5625 8.00767L7.21094 9.99986L5.51562 8.76939L3.82422 9.99986L4.46875 8.00767L2.77344 6.77721H4.87109L5.51953 4.78111Z" fill="#EEEEEE"/>
</g>
<defs>
<clipPath id="clip0">
<rect width="20" height="20" fill="white"/>
</clipPath>
</defs>
</svg>
