<svg width="20" height="20" viewBox="0 0 20 20" fill="none" xmlns="http://www.w3.org/2000/svg">
<g clip-path="url(#clip0)">
<path d="M10 20C15.5228 20 20 15.5228 20 10C20 4.47715 15.5228 0 10 0C4.47715 0 0 4.47715 0 10C0 15.5228 4.47715 20 10 20Z" fill="#EEEEEE"/>
<path d="M19.375 6.52344H0.625007C-0.208783 8.76616 -0.208783 11.2338 0.625007 13.4766H19.375C20.2088 11.2338 20.2088 8.76616 19.375 6.52344Z" fill="#0052B4"/>
<path d="M10 -0.000123127C8.56085 -0.00151474 7.13843 0.308473 5.83035 0.908569C4.52228 1.50866 3.35952 2.38466 2.42188 3.47644H17.5781C16.6412 2.38385 15.4785 1.5073 14.1703 0.907136C12.8621 0.30697 11.4393 -0.00255349 10 -0.000123127ZM17.5781 16.5233H2.42188C4.25391 18.6522 6.96875 19.9999 10 19.9999C13.0312 19.9999 15.7461 18.6522 17.5781 16.5233Z" fill="#D80027"/>
</g>
<defs>
<clipPath id="clip0">
<rect width="20" height="20" fill="white"/>
</clipPath>
</defs>
</svg>
