<svg width="20" height="20" viewBox="0 0 20 20" fill="none" xmlns="http://www.w3.org/2000/svg">
<g clip-path="url(#clip0)">
<path d="M10 20C15.5228 20 20 15.5228 20 10C20 4.47715 15.5228 0 10 0C4.47715 0 0 4.47715 0 10C0 15.5228 4.47715 20 10 20Z" fill="#EEEEEE"/>
<path d="M4.36328 1.73834C6.02367 0.602666 7.98838 -0.00497437 10 -0.00497437C12.0116 -0.00497437 13.9763 0.602666 15.6367 1.73834L10 2.17584L4.36328 1.73834Z" fill="#FFDA44"/>
<path d="M2.92969 17.0703L7.53906 12.4609L10 8.26172L12.4609 12.4609L17.0703 17.0703C18.1122 16.0316 18.9118 14.7756 19.4119 13.3921C19.912 12.0085 20.1003 10.5316 19.9633 9.06677C19.8264 7.60198 19.3675 6.18553 18.6196 4.91867C17.8717 3.6518 16.8531 2.5658 15.6367 1.73828H4.36328C3.1469 2.5658 2.12835 3.6518 1.38041 4.91867C0.632476 6.18553 0.173628 7.60198 0.0366662 9.06677C-0.100296 10.5316 0.0880088 12.0085 0.588122 13.3921C1.08823 14.7756 1.88781 16.0316 2.92969 17.0703Z" fill="#D80027"/>
<path d="M19.2422 13.8281L11.9297 10.8008L12.457 12.457L17.0703 17.0703C17.9998 16.1424 18.7378 15.0408 19.2422 13.8281ZM20 10C20 8.64453 19.7266 7.35156 19.2422 6.17188L10 10H20ZM17.0703 2.92969C16.6304 2.48902 16.1504 2.09017 15.6367 1.73828H13.4219L10 10L17.0703 2.92969ZM10 1.73828H6.57812L10 10V1.73828ZM2.92969 2.92969C2.00015 3.85756 1.26219 4.9592 0.757812 6.17188L10 10L2.92969 2.92969ZM0 10C0 11.3555 0.273438 12.6484 0.757812 13.8281L10 10H0Z" fill="#0052B4"/>
<path d="M4.36328 18.2618C6.02367 19.3975 7.98838 20.0052 10 20.0052C12.0116 20.0052 13.9763 19.3975 15.6367 18.2618H4.36328ZM10 10.0001L12.4609 12.4611C12.9464 11.9746 13.2768 11.3551 13.4103 10.6809C13.5438 10.0067 13.4746 9.30808 13.2112 8.67325C12.9479 8.03843 12.5023 7.49591 11.9307 7.11423C11.3591 6.73255 10.6873 6.52884 10 6.52884C9.31272 6.52884 8.64085 6.73255 8.0693 7.11423C7.49774 7.49591 7.05214 8.03843 6.78879 8.67325C6.52544 9.30808 6.45615 10.0067 6.58969 10.6809C6.72323 11.3551 7.0536 11.9746 7.53906 12.4611L10 10.0001ZM11.5234 15.0001C11.5234 15.84 10.8398 16.0861 10 16.0861C9.16015 16.0861 8.47656 15.84 8.47656 15.0001C8.47656 14.5961 8.63707 14.2086 8.92276 13.9229C9.20846 13.6372 9.59596 13.4767 10 13.4767C10.404 13.4767 10.7915 13.6372 11.0772 13.9229C11.3629 14.2086 11.5234 14.5961 11.5234 15.0001Z" fill="#FFDA44"/>
<path d="M11.5234 15C11.5234 15.404 11.3629 15.7915 11.0772 16.0772C10.7915 16.3629 10.404 16.5234 10 16.5234C9.59596 16.5234 9.20847 16.3629 8.92277 16.0772C8.63707 15.7915 8.47656 15.404 8.47656 15" fill="#0052B4"/>
</g>
<defs>
<clipPath id="clip0">
<rect width="20" height="20" fill="white"/>
</clipPath>
</defs>
</svg>
