<svg width="20" height="20" viewBox="0 0 20 20" fill="none" xmlns="http://www.w3.org/2000/svg">
<g clip-path="url(#clip0)">
<path d="M0.992188 5.65222C0.355469 6.96863 0 8.44128 0 9.99988C0 11.5585 0.355469 13.0311 0.992188 14.3475L10 15.2186L19.0078 14.3475C19.6445 13.0311 20 11.5585 20 9.99988C20 8.44128 19.6445 6.96863 19.0078 5.65222L10 4.78113L0.992188 5.65222Z" fill="#EEEEEE"/>
<path d="M0.992172 14.3477C1.80931 16.0426 3.08807 17.4726 4.68149 18.4734C6.27492 19.4741 8.11837 20.005 9.99998 20.005C11.8816 20.005 13.725 19.4741 15.3185 18.4734C16.9119 17.4726 18.1907 16.0426 19.0078 14.3477H0.992172Z" fill="#6DA544"/>
<path d="M0.992172 5.65232H19.0078C18.1907 3.9574 16.9119 2.5274 15.3185 1.52666C13.725 0.525927 11.8816 -0.00494385 9.99998 -0.00494385C8.11837 -0.00494385 6.27492 0.525927 4.68149 1.52666C3.08807 2.5274 1.80931 3.9574 0.992172 5.65232Z" fill="#D80027"/>
<path d="M8.26172 12.6093H11.7383V11.1289L11.043 11.4804L10 10.4296L8.95703 11.4726L8.26172 11.1249V12.6093ZM6.26953 10.871L6.43359 11.3671H6.95312L6.52734 11.6757L6.69141 12.1757L6.26562 11.8632L5.84375 12.1757L6.00391 11.6757L5.58594 11.3671H6.10937L6.26953 10.871ZM6.77344 9.12885L6.93359 9.62885H7.46094L7.03906 9.93744L7.19922 10.4335L6.77734 10.1249L6.35156 10.4374L6.51563 9.93744L6.08984 9.62494H6.61328L6.77344 9.12885ZM8.20703 7.82416L8.37109 8.32416H8.89453L8.46875 8.63275L8.63281 9.12885L8.20312 8.82807L7.78125 9.13275L7.94141 8.63666L7.51953 8.32807H8.04688L8.20703 7.82416ZM13.7305 10.871L13.5664 11.3671H13.0469L13.4727 11.6757L13.3086 12.1757L13.7344 11.8632L14.1562 12.1757L13.9961 11.6757L14.4141 11.3671H13.8906L13.7305 10.871ZM13.2266 9.12885L13.0664 9.62885H12.5391L12.9609 9.93744L12.8008 10.4335L13.2227 10.1249L13.6484 10.4374L13.4844 9.93744L13.9102 9.62494H13.3867L13.2266 9.12885ZM11.7969 7.82416L11.6328 8.32416H11.1094L11.5352 8.63275L11.3711 9.12885L11.7969 8.82807L12.2187 9.13275L12.0586 8.63666L12.4805 8.32807H11.9531L11.7969 7.82416ZM10 7.17572L10.1602 7.67181H10.6875L10.2617 7.98041L10.4219 8.4765L10 8.17182L9.57812 8.4765L9.73828 7.98041L9.3125 7.67181H9.84375L10 7.17572Z" fill="#FFDA44"/>
</g>
<defs>
<clipPath id="clip0">
<rect width="20" height="20" fill="white"/>
</clipPath>
</defs>
</svg>
