<svg width="20" height="20" viewBox="0 0 20 20" fill="none" xmlns="http://www.w3.org/2000/svg">
<g clip-path="url(#clip0)">
<path d="M10 20C15.5228 20 20 15.5228 20 10C20 4.47715 15.5228 0 10 0C4.47715 0 0 4.47715 0 10C0 15.5228 4.47715 20 10 20Z" fill="#FFDA44"/>
<path d="M16.086 4.78126C15.9961 5.21095 15.9571 5.67189 15.9571 6.12892C15.9571 8.76954 17.5274 11.0508 19.7852 12.0781C19.9289 11.3948 20.0009 10.6983 20 10C19.9998 7.6071 19.1415 5.29361 17.5809 3.47956C16.0204 1.66551 13.8611 0.471191 11.4951 0.113428C9.1291 -0.244335 6.71323 0.258184 4.68613 1.52975C2.65903 2.80131 1.1551 4.75762 0.447382 7.04348C-0.260334 9.32934 -0.124909 11.7932 0.82907 13.9877C1.78305 16.1822 3.49233 17.9619 5.64658 19.0037C7.80083 20.0454 10.2572 20.2801 12.5698 19.6652C14.8823 19.0503 16.8977 17.6265 18.25 15.6524H5.65236V14.3477H19.0078C19.1453 14.0634 19.2691 13.7727 19.3789 13.4766H5.65236L16.086 4.78126Z" fill="#0052B4"/>
<path d="M7.34375 5.21875L7.5625 5.88281H8.26172L7.69531 6.28906L7.91016 6.95312L7.34766 6.54297L6.78125 6.95312L6.99609 6.28906L6.43359 5.87891H7.12891L7.34375 5.21875ZM4.51172 10L4.78516 10.832H5.65625L4.95312 11.3398L5.21875 12.1758L4.51562 11.6602L3.80859 12.1758L4.07812 11.3437L3.37109 10.832H4.24219L4.51172 10ZM4.51172 3.04688L4.78516 3.875H5.65625L4.95312 4.38672L5.21875 5.21875L4.51562 4.70312L3.80859 5.21875L4.07812 4.38672L3.37109 3.875H4.24219L4.51172 3.04688ZM2.33594 6.95312L2.60547 7.78516H3.47656L2.77344 8.30078L3.04297 9.12891L2.33594 8.61719L1.62891 9.12891L1.90234 8.30078L1.19141 7.78516H2.07031L2.33594 6.95312Z" fill="#EEEEEE"/>
</g>
<defs>
<clipPath id="clip0">
<rect width="20" height="20" fill="white"/>
</clipPath>
</defs>
</svg>
