<svg width="20" height="20" viewBox="0 0 20 20" fill="none" xmlns="http://www.w3.org/2000/svg">
<g clip-path="url(#clip0)">
<path d="M10 20C15.5228 20 20 15.5228 20 10C20 4.47715 15.5228 0 10 0C4.47715 0 0 4.47715 0 10C0 15.5228 4.47715 20 10 20Z" fill="#FFDA44"/>
<path d="M10 -5.48932e-05C7.64724 -0.00266643 5.36949 0.827618 3.57031 2.3437L14.3477 9.99994L3.57031 17.6562C4.80145 18.6906 6.26389 19.4129 7.83361 19.7618C9.40333 20.1106 11.034 20.0758 12.5874 19.6603C14.1408 19.2447 15.5711 18.4607 16.757 17.3747C17.9428 16.2886 18.8493 14.9327 19.3995 13.4217C19.9498 11.9108 20.1275 10.2894 19.9177 8.69514C19.7079 7.10086 19.1167 5.5807 18.1943 4.26356C17.2719 2.94642 16.0454 1.87115 14.6189 1.12893C13.1925 0.386707 11.608 -0.000566792 10 -5.48932e-05Z" fill="#D80027"/>
<path d="M2.92967 2.92969C1.05477 4.80499 0.00149536 7.34821 0.00149536 10C0.00149536 12.6518 1.05477 15.195 2.92967 17.0703L9.99999 10L2.92967 2.92969Z" fill="#333333"/>
<path d="M2.77345 7.71078L4.29689 9.14828L6.13283 8.14829L5.23439 10.0389L6.75783 11.4803L4.6797 11.2069L3.78127 13.1014L3.39455 11.0428L1.31642 10.7694L3.15627 9.76938L2.77345 7.71078Z" fill="#EEEEEE"/>
</g>
<defs>
<clipPath id="clip0">
<rect width="20" height="20" fill="white"/>
</clipPath>
</defs>
</svg>
