<svg width="20" height="20" viewBox="0 0 20 20" fill="none" xmlns="http://www.w3.org/2000/svg">
<g clip-path="url(#clip0)">
<path d="M10 -0.000469277C9.26836 -0.00189314 8.53877 0.076699 7.82422 0.233906L7.39453 9.99953L7.82422 19.7652C8.53877 19.9224 9.26836 20.001 10 19.9995C12.6522 19.9995 15.1957 18.946 17.0711 17.0706C18.9464 15.1952 20 12.6517 20 9.99953C20 7.34737 18.9464 4.80383 17.0711 2.92846C15.1957 1.0531 12.6522 -0.000469277 10 -0.000469277ZM2.60938 3.26516C0.988281 5.03859 0 7.40578 0 9.99953C0 12.5933 0.988281 14.9605 2.60938 16.7339L3.04297 9.99953L2.60938 3.26516Z" fill="#496E2D"/>
<path d="M14.6249 7.54309C14.8587 6.89003 14.8625 6.17678 14.636 5.52121C14.4094 4.86565 13.9659 4.30701 13.3789 3.93762C13.5961 3.96671 13.8096 4.0191 14.0156 4.09387C14.4131 4.21162 14.7824 4.40927 15.101 4.67473C15.4195 4.94018 15.6804 5.26784 15.8679 5.63765C16.0554 6.00747 16.1654 6.41166 16.1912 6.82547C16.217 7.23928 16.1581 7.65401 16.0181 8.04427C15.8781 8.43453 15.6599 8.7921 15.3769 9.0951C15.0938 9.3981 14.752 9.64014 14.3721 9.80642C13.9923 9.97269 13.5826 10.0597 13.168 10.0621C12.7533 10.0645 12.3426 9.98228 11.9609 9.82043C11.7546 9.74682 11.5568 9.65122 11.371 9.53527C12.0592 9.62326 12.7568 9.47378 13.3484 9.11153C13.9401 8.74929 14.3904 8.19598 14.6249 7.54309ZM11.8984 3.55872L11.4687 4.1134L10.8124 3.87903L11.2031 4.45715L10.7773 5.00403L11.4492 4.80871L11.8398 5.39075L11.8632 4.68762L12.5351 4.49231L11.8749 4.25793L11.8984 3.55872Z" fill="#EEEEEE"/>
<path d="M13.0508 5.36328L12.6211 5.91016L11.9648 5.67578L12.3593 6.25391L11.9297 6.80859L12.6015 6.61328L12.9961 7.1875L13.0156 6.49219L13.6875 6.29688L13.0312 6.0625L13.0508 5.36328ZM9.86325 4.21875L9.43356 4.76953L8.77731 4.53516L9.16794 5.10938L8.74216 5.66406L9.41403 5.46875L9.80466 6.04297L9.82809 5.34766L10.4961 5.15234L9.83981 4.91797L9.86325 4.21875ZM9.81638 6.27734L9.38669 6.83203L8.73044 6.59766L9.12106 7.17188L8.69528 7.72656L9.36716 7.53125L9.75778 8.10547L9.78122 7.41016L10.4492 7.21484L9.79294 6.98047L9.81638 6.27734ZM11.7773 6.98047L11.3476 7.53516L10.6914 7.30078L11.082 7.875L10.6562 8.42969L11.3281 8.23438L11.7187 8.80859L11.7422 8.11328L12.414 7.91797L11.7539 7.68359L11.7773 6.98047Z" fill="#EEEEEE"/>
<path d="M2.60936 3.26575V16.7345C3.99372 18.2582 5.81508 19.3169 7.8242 19.7657V0.238403C5.81556 0.686196 3.99426 1.7435 2.60936 3.26575Z" fill="#D80027"/>
<path d="M4.6016 5.26551L3.7266 4.60925V3.69519L4.6016 3.04285H5.83598L6.70707 3.69519V4.60925L5.83598 5.2616L4.6016 5.26551Z" fill="#EEEEEE"/>
<path d="M5.21879 3.04688H4.6016L3.7266 3.69141V4.14062H5.21879V3.04688ZM5.21879 5.26562H5.83598L6.70707 4.61328V4.14453H5.21879V5.26562Z" fill="#FF9811"/>
<path d="M4.6016 16.9532L3.7266 16.3047V15.3907L4.6016 14.7383H5.83598L6.70707 15.3907V16.3087L5.83598 16.961L4.6016 16.9532Z" fill="#EEEEEE"/>
<path d="M5.21879 14.7343H4.6016L3.7266 15.3906V15.8398H5.21879V14.7343ZM5.21879 16.957H5.83598L6.70707 16.3046V15.8359H5.21879V16.957Z" fill="#FF9811"/>
<path d="M4.60153 11.1095L3.72652 10.4611V9.53922L4.60153 8.89078H5.8359L6.707 9.53922V10.4611L5.8359 11.1095H4.60153ZM6.73825 12.5431H6.35934V12.1603H5.69137L5.21871 11.6916L4.74606 12.1603H4.07418V12.5431H3.69527V13.3048H4.07418V13.6837H4.74606L5.21481 14.1564L5.69137 13.6837H6.35543V13.3048H6.73825V12.5431ZM6.73825 6.69546H6.35934V6.31656H5.69137L5.21871 5.8439L4.74606 6.31265H4.07418V6.69546H3.69527V7.46109H4.07418V7.8439H4.74606L5.21481 8.31265L5.69137 7.8439H6.35543V7.46109H6.73825V6.69546Z" fill="#496E2D"/>
<path d="M4.78129 9.56662H5.65238V10.4299H4.78129V9.56662Z" fill="#D80027"/>
<path d="M5.21875 7.51187C5.45822 7.51187 5.65234 7.31774 5.65234 7.07828C5.65234 6.83881 5.45822 6.64468 5.21875 6.64468C4.97928 6.64468 4.78516 6.83881 4.78516 7.07828C4.78516 7.31774 4.97928 7.51187 5.21875 7.51187Z" fill="#D80027"/>
<path d="M5.21875 13.3558C5.45822 13.3558 5.65234 13.1616 5.65234 12.9222C5.65234 12.6827 5.45822 12.4886 5.21875 12.4886C4.97928 12.4886 4.78516 12.6827 4.78516 12.9222C4.78516 13.1616 4.97928 13.3558 5.21875 13.3558Z" fill="#D80027"/>
</g>
<defs>
<clipPath id="clip0">
<rect width="20" height="20" fill="white"/>
</clipPath>
</defs>
</svg>
