<svg width="20" height="20" viewBox="0 0 20 20" fill="none" xmlns="http://www.w3.org/2000/svg">
<path d="M10 20C15.5228 20 20 15.5228 20 10C20 4.47715 15.5228 0 10 0C4.47715 0 0 4.47715 0 10C0 15.5228 4.47715 20 10 20Z" fill="#D80027"/>
<path d="M9.99997 14.7814C12.6406 14.7814 14.7812 12.6408 14.7812 10.0002C14.7812 7.35954 12.6406 5.2189 9.99997 5.2189C7.35936 5.2189 5.21872 7.35954 5.21872 10.0002C5.21872 12.6408 7.35936 14.7814 9.99997 14.7814Z" fill="#EEEEEE"/>
<path d="M10.5859 8.17181L11.4062 9.30462L12.7383 8.87103L11.918 10.0038L12.7383 11.1327L11.4102 10.6992L10.5898 11.832V10.4296L9.25781 9.99994L10.5859 9.57025V8.17181Z" fill="#D80027"/>
<path d="M11.086 12.8241C10.6568 12.8229 10.2335 12.7239 9.84833 12.5347C9.46314 12.3454 9.12615 12.0708 8.86296 11.7318C8.59977 11.3928 8.41731 10.9982 8.32944 10.5781C8.24157 10.158 8.2506 9.72345 8.35585 9.30737C8.46109 8.89129 8.65978 8.50467 8.93682 8.17687C9.21387 7.84908 9.56197 7.58874 9.9547 7.41563C10.3474 7.24252 10.7744 7.16119 11.2033 7.17782C11.6322 7.19446 12.0516 7.30862 12.4297 7.51163C11.9404 7.0334 11.3209 6.71019 10.6487 6.58249C9.9765 6.45478 9.28158 6.52826 8.65096 6.79371C8.02035 7.05917 7.48209 7.50479 7.1036 8.07478C6.72511 8.64476 6.52322 9.31375 6.52322 9.99796C6.52322 10.6822 6.72511 11.3512 7.1036 11.9211C7.48209 12.4911 8.02035 12.9367 8.65096 13.2022C9.28158 13.4677 9.9765 13.5411 10.6487 13.4134C11.3209 13.2857 11.9404 12.9625 12.4297 12.4843C12.0172 12.7079 11.5552 12.8247 11.086 12.8241Z" fill="#D80027"/>
</svg>
