<svg width="20" height="20" viewBox="0 0 20 20" fill="none" xmlns="http://www.w3.org/2000/svg">
<g clip-path="url(#clip0)">
<path d="M10 20C15.5228 20 20 15.5228 20 10C20 4.47715 15.5228 0 10 0C4.47715 0 0 4.47715 0 10C0 15.5228 4.47715 20 10 20Z" fill="#EEEEEE"/>
<path d="M6.52345 5.21869V3.914H5.21877V5.21869H3.91408V6.52338H5.21877V7.82416H6.52345V6.52338H7.82423V5.21869H6.52345Z" fill="#D80027"/>
<path d="M10 0V10H0C0 11.9778 0.58649 13.9112 1.6853 15.5557C2.78412 17.2002 4.3459 18.4819 6.17317 19.2388C8.00043 19.9957 10.0111 20.1937 11.9509 19.8079C13.8907 19.422 15.6725 18.4696 17.0711 17.0711C18.4696 15.6725 19.422 13.8907 19.8079 11.9509C20.1937 10.0111 19.9957 8.00043 19.2388 6.17317C18.4819 4.3459 17.2002 2.78412 15.5557 1.6853C13.9112 0.58649 11.9778 0 10 0V0Z" fill="#D80027"/>
</g>
<defs>
<clipPath id="clip0">
<rect width="20" height="20" fill="white"/>
</clipPath>
</defs>
</svg>
