<svg width="20" height="20" viewBox="0 0 20 20" fill="none" xmlns="http://www.w3.org/2000/svg">
<path d="M10 20C15.5228 20 20 15.5228 20 10C20 4.47715 15.5228 0 10 0C4.47715 0 0 4.47715 0 10C0 15.5228 4.47715 20 10 20Z" fill="#D80027"/>
<path d="M12.8011 8.17181L13.6214 9.30462L14.9495 8.87103L14.1292 10.0038L14.9495 11.1327L13.6214 10.6992L12.8011 11.832V10.4296L11.4729 9.99603L12.8011 9.56634V8.17181Z" fill="#EEEEEE"/>
<path d="M10.5628 12.8241C10.1336 12.8229 9.71031 12.7239 9.32512 12.5347C8.93992 12.3454 8.60293 12.0708 8.33974 11.7318C8.07655 11.3928 7.8941 10.9982 7.80623 10.5781C7.71835 10.158 7.72738 9.72345 7.83263 9.30737C7.93787 8.89129 8.13656 8.50467 8.4136 8.17687C8.69065 7.84908 9.03875 7.58874 9.43148 7.41563C9.8242 7.24252 10.2512 7.16119 10.6801 7.17782C11.1089 7.19446 11.5284 7.30862 11.9065 7.51163C11.4172 7.0334 10.7976 6.71019 10.1255 6.58249C9.45328 6.45478 8.75836 6.52826 8.12775 6.79371C7.49714 7.05917 6.95887 7.50479 6.58038 8.07478C6.20189 8.64476 6 9.31375 6 9.99796C6 10.6822 6.20189 11.3512 6.58038 11.9211C6.95887 12.4911 7.49714 12.9367 8.12775 13.2022C8.75836 13.4677 9.45328 13.5411 10.1255 13.4134C10.7976 13.2857 11.4172 12.9625 11.9065 12.4843C11.494 12.7079 11.032 12.8247 10.5628 12.8241Z" fill="#EEEEEE"/>
</svg>
