<svg width="20" height="20" viewBox="0 0 20 20" fill="none" xmlns="http://www.w3.org/2000/svg">
<g clip-path="url(#clip0)">
<path d="M19.6563 7.39072C19.0846 5.26697 17.8287 3.39092 16.0831 2.05305C14.3374 0.715178 12.1994 -0.0098877 10.0001 -0.0098877C7.80071 -0.0098877 5.6627 0.715178 3.91705 2.05305C2.17141 3.39092 0.915514 5.26697 0.343815 7.39072L10.0001 7.82431L19.6563 7.39463V7.39072ZM0.343815 12.6095C0.915514 14.7332 2.17141 16.6093 3.91705 17.9471C5.6627 19.285 7.80071 20.0101 10.0001 20.0101C12.1994 20.0101 14.3374 19.285 16.0831 17.9471C17.8287 16.6093 19.0846 14.7332 19.6563 12.6095L10.0001 12.1759L0.343815 12.6056V12.6095Z" fill="#A2001D"/>
<path d="M19.6562 7.39056H0.343719C-0.117645 9.09956 -0.117645 10.9003 0.343719 12.6093H19.6562C20.1176 10.9003 20.1176 9.09956 19.6562 7.39056Z" fill="#6DA544"/>
</g>
<defs>
<clipPath id="clip0">
<rect width="20" height="20" fill="white"/>
</clipPath>
</defs>
</svg>
