<svg width="20" height="20" viewBox="0 0 20 20" fill="none" xmlns="http://www.w3.org/2000/svg">
<g clip-path="url(#clip0)">
<path d="M5.41409 1.10925C3.56638 2.06147 2.06163 3.56623 1.10941 5.41394L7.53909 12.4608L14.586 18.8905C16.4335 17.9381 17.9382 16.4334 18.8907 14.5858L12.461 7.53894L5.41409 1.10925Z" fill="#EEEEEE"/>
<path d="M17.0702 17.0702C17.4833 16.6584 17.8597 16.2114 18.1952 15.7343L4.26556 1.80463C3.30848 2.47571 2.47571 3.30849 1.80462 4.26556L15.7343 18.1952C16.2114 17.8597 16.6584 17.4833 17.0702 17.0702Z" fill="#333333"/>
<path d="M2.9297 17.0703C4.42891 18.5699 6.36585 19.5544 8.46094 19.8816C10.556 20.2087 12.7009 19.8617 14.586 18.8906L1.10939 5.41406C0.138278 7.29911 -0.20873 9.44398 0.118453 11.5391C0.445636 13.6342 1.43008 15.5711 2.9297 17.0703ZM17.0703 2.92969C15.5711 1.43007 13.6342 0.445621 11.5391 0.118438C9.44399 -0.208745 7.29913 0.138263 5.41408 1.10937L18.8906 14.5859C19.8617 12.7009 20.2088 10.556 19.8816 8.46093C19.5544 6.36583 18.5699 4.42889 17.0703 2.92969Z" fill="#D80027"/>
</g>
<defs>
<clipPath id="clip0">
<rect width="20" height="20" fill="white"/>
</clipPath>
</defs>
</svg>
