<svg width="20" height="20" viewBox="0 0 20 20" fill="none" xmlns="http://www.w3.org/2000/svg">
<g clip-path="url(#clip0)">
<path d="M10 20C15.5228 20 20 15.5228 20 10C20 4.47715 15.5228 0 10 0C4.47715 0 0 4.47715 0 10C0 15.5228 4.47715 20 10 20Z" fill="#FFDA44"/>
<path d="M2.9297 17.0702C3.34155 17.4833 3.78855 17.8597 4.26564 18.1952L18.1953 4.26556C17.8598 3.78846 17.4834 3.34146 17.0703 2.92963C16.6585 2.51662 16.2115 2.1402 15.7344 1.80463L1.8047 15.7343C2.14029 16.2114 2.51671 16.6584 2.9297 17.0702Z" fill="#333333"/>
<path d="M2.9297 2.92969C1.43008 4.42889 0.445636 6.36583 0.118453 8.46093C-0.20873 10.556 0.138278 12.7009 1.10939 14.5859L14.586 1.10937C12.7009 0.138263 10.556 -0.208745 8.46094 0.118438C6.36585 0.445621 4.42891 1.43007 2.9297 2.92969Z" fill="#6DA544"/>
<path d="M17.0703 17.0705C18.5699 15.5713 19.5544 13.6343 19.8816 11.5392C20.2088 9.44413 19.8617 7.29926 18.8906 5.41422L5.41408 18.8908C7.29913 19.8619 9.44399 20.2089 11.5391 19.8817C13.6342 19.5545 15.5711 18.5701 17.0703 17.0705Z" fill="#338AF3"/>
</g>
<defs>
<clipPath id="clip0">
<rect width="20" height="20" fill="white"/>
</clipPath>
</defs>
</svg>
