<svg width="20" height="20" viewBox="0 0 20 20" fill="none" xmlns="http://www.w3.org/2000/svg">
<g clip-path="url(#clip0)">
<path d="M17.4531 16.668C19.0352 14.8985 20 12.5626 20 10.0001C20 7.43756 19.0352 5.10162 17.4531 3.33209L10 2.60944L2.54688 3.33209C0.964844 5.10162 0 7.43756 0 10.0001C0 12.5626 0.964844 14.8985 2.54688 16.668L10 17.3907L17.4531 16.668Z" fill="#FFDA44"/>
<path d="M2.54691 3.33203H17.4532C15.6211 1.28906 12.961 0 10 0C7.03909 0 4.37503 1.28906 2.54691 3.33203Z" fill="#333333"/>
<path d="M-2.83613e-05 9.99994L9.99997 10.871L20 9.99994C20 8.82807 19.7968 7.71088 19.4297 6.66791H0.570284C0.192096 7.73808 -0.000774441 8.86492 -2.83613e-05 9.99994Z" fill="#D80027"/>
<path d="M0.570312 13.332H19.4297C19.8078 12.2618 20.0007 11.135 20 10H0C0 11.1719 0.203125 12.2891 0.570312 13.332Z" fill="#333333"/>
<path d="M17.4532 16.6679H2.54691C4.37894 18.7109 7.03909 19.9999 10 19.9999C12.961 19.9999 15.625 18.7109 17.4532 16.6679Z" fill="#D80027"/>
<path d="M13.3359 10.0002C13.3359 10.4382 13.2496 10.872 13.082 11.2768C12.9143 11.6815 12.6686 12.0492 12.3588 12.359C12.0491 12.6688 11.6813 12.9145 11.2766 13.0822C10.8718 13.2498 10.4381 13.3361 9.99997 13.3361C9.56189 13.3361 9.1281 13.2498 8.72336 13.0822C8.31863 12.9145 7.95088 12.6688 7.64111 12.359C7.33134 12.0492 7.08561 11.6815 6.91797 11.2768C6.75032 10.872 6.66403 10.4382 6.66403 10.0002C6.66403 9.11541 7.0155 8.2669 7.64111 7.64129C8.26672 7.01568 9.11522 6.66422 9.99997 6.66422C10.8847 6.66422 11.7332 7.01568 12.3588 7.64129C12.9844 8.2669 13.3359 9.11541 13.3359 10.0002Z" fill="#EEEEEE"/>
<path d="M11.2226 10.1718L9.99997 9.64053L10.3007 8.62491C10.3266 8.51712 10.3243 8.4045 10.2942 8.29782C10.2642 8.19114 10.2072 8.09395 10.1289 8.01553L10.4336 7.71085C10.3333 7.6097 10.2141 7.52933 10.0827 7.47437C9.9513 7.4194 9.81035 7.39091 9.66794 7.39053C9.52486 7.3904 9.38318 7.41864 9.25109 7.47362C9.119 7.5286 8.99913 7.60923 8.89841 7.71085L9.20309 8.01553C9.14303 8.07623 9.09555 8.1482 9.06337 8.2273C9.03119 8.3064 9.01496 8.39108 9.01559 8.47647C9.01559 8.54288 9.02341 8.60928 9.04294 8.66788L8.57809 9.12882H9.42184C9.42184 9.12882 9.07028 9.65225 8.88278 10.0819C8.69138 10.5116 8.88278 11.0351 9.32419 11.2304L9.57809 11.3437L9.99997 11.7382V12.1757L9.56637 12.6054H10.4297V11.7382L10.8281 11.3437H11.6484L11.6601 11.3163C11.7074 11.2123 11.7335 11.1 11.7368 10.9858C11.7402 10.8717 11.7207 10.758 11.6796 10.6514C11.6385 10.5449 11.5766 10.4476 11.4975 10.3652C11.4183 10.2828 11.3236 10.2171 11.2187 10.1718H11.2226Z" fill="#333333"/>
</g>
<defs>
<clipPath id="clip0">
<rect width="20" height="20" fill="white"/>
</clipPath>
</defs>
</svg>
