<svg width="20" height="20" viewBox="0 0 20 20" fill="none" xmlns="http://www.w3.org/2000/svg">
<path d="M10 20C15.5228 20 20 15.5228 20 10C20 4.47715 15.5228 0 10 0C4.47715 0 0 4.47715 0 10C0 15.5228 4.47715 20 10 20Z" fill="#338AF3"/>
<path d="M10 15.6641C13.1282 15.6641 15.6641 13.1282 15.6641 10C15.6641 6.87182 13.1282 4.33594 10 4.33594C6.87182 4.33594 4.33594 6.87182 4.33594 10C4.33594 13.1282 6.87182 15.6641 10 15.6641Z" fill="#EEEEEE"/>
<path d="M10 14.3359C12.3947 14.3359 14.3359 12.3947 14.3359 10C14.3359 7.60533 12.3947 5.66406 10 5.66406C7.60533 5.66406 5.66406 7.60533 5.66406 10C5.66406 12.3947 7.60533 14.3359 10 14.3359Z" fill="#338AF3"/>
<path d="M2.96875 2.96875H17.0312L10 10L2.96875 2.96875Z" fill="#338AF3"/>
<path d="M10 13.4766C11.9201 13.4766 13.4766 11.9201 13.4766 10C13.4766 8.07995 11.9201 6.52344 10 6.52344C8.07995 6.52344 6.52344 8.07995 6.52344 10C6.52344 11.9201 8.07995 13.4766 10 13.4766Z" fill="#EEEEEE"/>
<path d="M10 12.6953C11.4886 12.6953 12.6953 11.4886 12.6953 10C12.6953 8.51142 11.4886 7.30469 10 7.30469C8.51142 7.30469 7.30469 8.51142 7.30469 10C7.30469 11.4886 8.51142 12.6953 10 12.6953Z" fill="#338AF3"/>
<path d="M9.60938 6.95312H10.3906V13.0469H9.60938V6.95312Z" fill="#EEEEEE"/>
<path d="M13.0469 9.60938V10.3906H6.95312V9.60938H13.0469Z" fill="#EEEEEE"/>
<path d="M11.875 7.56635L12.4297 8.12103L8.12109 12.4296L7.56641 11.8788L11.875 7.56635Z" fill="#EEEEEE"/>
<path d="M12.4297 11.8749L11.8789 12.4296L7.56641 8.12103L8.12109 7.56635L12.4297 11.8749Z" fill="#EEEEEE"/>
<path d="M10 11.7188C10.9492 11.7188 11.7188 10.9492 11.7188 10C11.7188 9.05076 10.9492 8.28125 10 8.28125C9.05076 8.28125 8.28125 9.05076 8.28125 10C8.28125 10.9492 9.05076 11.7188 10 11.7188Z" fill="#EEEEEE"/>
<path d="M10 10.8594C10.4746 10.8594 10.8594 10.4746 10.8594 10C10.8594 9.52538 10.4746 9.14062 10 9.14062C9.52538 9.14062 9.14062 9.52538 9.14062 10C9.14062 10.4746 9.52538 10.8594 10 10.8594Z" fill="#338AF3"/>
<path d="M10 17.6562C10.9492 17.6562 11.7188 16.9567 11.7188 16.0938C11.7188 15.2308 10.9492 14.5312 10 14.5312C9.05076 14.5312 8.28125 15.2308 8.28125 16.0938C8.28125 16.9567 9.05076 17.6562 10 17.6562Z" fill="#EEEEEE"/>
<path d="M10 15.8984L6.95312 18.3594H13.0469L10 15.8984Z" fill="#338AF3"/>
</svg>
