<svg width="20" height="20" viewBox="0 0 20 20" fill="none" xmlns="http://www.w3.org/2000/svg">
<g clip-path="url(#clip0)">
<path d="M10 20C15.5228 20 20 15.5228 20 10C20 4.47715 15.5228 0 10 0C4.47715 0 0 4.47715 0 10C0 15.5228 4.47715 20 10 20Z" fill="#EEEEEE"/>
<path d="M10 20C12.436 20.0033 14.7887 19.1139 16.6133 17.5H3.38672C5.2113 19.1139 7.56404 20.0033 10 20Z" fill="#D80027"/>
<path d="M0.3125 12.5C0.539494 13.3762 0.885138 14.2173 1.33984 15H18.6602C19.1135 14.2171 19.4578 13.376 19.6836 12.5L10 11.7383L0.3125 12.5ZM19.6875 7.5C19.4605 6.62377 19.1149 5.78266 18.6602 5L10 4.78125V0C9.25781 0 8.53125 0.078125 7.83594 0.234375C7.82422 0.234375 1.30469 5.37891 1.30469 10C1.47266 10.0273 10 10.8711 10 10.8711V7.5H19.6875Z" fill="#0052B4"/>
<path d="M10 6.23828V1.23828H6.83598L7.83208 0.234375C5.80044 0.685338 3.95993 1.75843 2.56668 3.30431C1.17342 4.85019 0.296742 6.79196 0.0586408 8.85938C0.0176139 9.23817 -0.00194862 9.61899 4.70076e-05 10H5.06645V8.00781L7.07817 10H10.6563L6.83208 6.23828H10Z" fill="#EEEEEE"/>
<path d="M10.0039 10L6.24219 6.23828H5.06641L8.82422 10H3.80469V5H18.6602C18.1164 4.06228 17.4252 3.21816 16.6133 2.5H3.80078V2.14844C2.78787 2.95005 1.93903 3.93946 1.30078 5.0625V10H0C0 10.8633 0.109375 11.6992 0.3125 12.5H19.6875C19.8906 11.6992 20 10.8633 20 10H10.0039Z" fill="#D80027"/>
</g>
<defs>
<clipPath id="clip0">
<rect width="20" height="20" fill="white"/>
</clipPath>
</defs>
</svg>
