<svg width="20" height="20" viewBox="0 0 20 20" fill="none" xmlns="http://www.w3.org/2000/svg">
<path d="M10 20C15.5228 20 20 15.5228 20 10C20 4.47715 15.5228 0 10 0C4.47715 0 0 4.47715 0 10C0 15.5228 4.47715 20 10 20Z" fill="#EEEEEE"/>
<path d="M9.56638 9.99993H20C20 9.09759 19.8828 8.22259 19.6562 7.39056H9.56638V9.99993ZM9.56638 4.78119H18.5312C17.9202 3.7854 17.1403 2.90372 16.2265 2.17572H9.56638V4.78119ZM9.99997 19.9999C12.3515 19.9999 14.5156 19.1874 16.2265 17.8241H3.77341C5.54146 19.2357 7.73753 20.0031 9.99997 19.9999ZM1.46872 15.2187H18.5312C19.0292 14.4072 19.4081 13.5285 19.6562 12.6093H0.343719C0.591837 13.5285 0.970706 14.4072 1.46872 15.2187Z" fill="#D80027"/>
<path d="M4.63281 1.5625H5.54297L4.69531 2.17578L5.01953 3.17578L4.17188 2.55859L3.32422 3.17578L3.60547 2.31641C2.8572 2.93871 2.20324 3.66635 1.66406 4.47656H1.95703L1.41797 4.86719C1.33371 5.0084 1.25296 5.15167 1.17578 5.29688L1.43359 6.08594L0.953125 5.73438C0.832657 5.98999 0.723182 6.25065 0.625 6.51562L0.910156 7.38672H1.95312L1.10938 8.00781L1.43359 9.00391L0.585938 8.38281L0.078125 8.75391C0.0264045 9.16726 0.000312951 9.58342 0 10H10V0C8.02344 0 6.18359 0.574219 4.63281 1.5625ZM5.01953 9L4.17188 8.38281L3.32422 9L3.64844 8.00391L2.80078 7.38281H3.84766L4.17188 6.38672L4.49609 7.38281H5.54297L4.69531 8.00781L5.01953 9.00391V9ZM4.69531 5.09375L5.01953 6.08594L4.17188 5.47266L3.32422 6.08594L3.64844 5.08984L2.80078 4.47656H3.84766L4.17188 3.47656L4.49609 4.47656H5.54297L4.69531 5.08984V5.09375ZM8.60547 9L7.75781 8.38281L6.91016 9L7.23438 8.00391L6.38672 7.38672H7.43359L7.75781 6.39062L8.08203 7.38672H9.12891L8.28125 8.00781L8.60547 9.00391V9ZM8.28125 5.09375L8.60547 6.08594L7.75781 5.47266L6.91016 6.08594L7.23438 5.08984L6.38672 4.47656H7.43359L7.75781 3.47656L8.08203 4.47656H9.12891L8.28125 5.08984V5.09375ZM8.28125 2.17578L8.60547 3.17578L7.75781 2.55859L6.91406 3.17578L7.23828 2.17578L6.38672 1.5625H7.43359L7.75781 0.566406L8.08594 1.5625H9.13281L8.28125 2.17578Z" fill="#0052B4"/>
</svg>
