<svg width="20" height="20" viewBox="0 0 20 20" fill="none" xmlns="http://www.w3.org/2000/svg">
<g clip-path="url(#clip0)">
<path d="M10 20C15.5228 20 20 15.5228 20 10C20 4.47715 15.5228 0 10 0C4.47715 0 0 4.47715 0 10C0 15.5228 4.47715 20 10 20Z" fill="#EEEEEE"/>
<path d="M9.99997 7.39051H19.6562C19.4081 6.47136 19.0292 5.5926 18.5312 4.78114H9.99997V7.39051ZM3.77341 17.8241H16.2265C17.1404 17.0962 17.9203 16.2145 18.5312 15.2186H1.46872C2.07968 16.2145 2.85959 17.0962 3.77341 17.8241ZM9.99997 -0.000112089V2.17567H16.2265C14.4585 0.764071 12.2624 -0.00331434 9.99997 -0.000112089Z" fill="#338AF3"/>
<path d="M10 7.3905H19.6562C19.4081 6.47135 19.0292 5.59259 18.5312 4.78113H10V7.3905ZM0 9.99988C0 10.9022 0.117188 11.7772 0.34375 12.6093H19.6562C19.8789 11.7772 20 10.9022 20 9.99988H0Z" fill="#338AF3"/>
<path d="M8.69528 5.85156L7.47263 6.42578L8.12497 7.60938L6.79684 7.35547L6.62888 8.69531L5.707 7.71094L4.78122 8.69531L4.61325 7.35547L3.28903 7.60938L3.93747 6.42578L2.71872 5.85156L3.93747 5.27734L3.28903 4.09375L4.61716 4.34766L4.78122 3.00781L5.707 3.99609L6.62888 3.00781L6.79684 4.34766L8.12497 4.09375L7.47263 5.27734L8.69528 5.85156Z" fill="#FFDA44"/>
</g>
<defs>
<clipPath id="clip0">
<rect width="20" height="20" fill="white"/>
</clipPath>
</defs>
</svg>
