<svg width="20" height="20" viewBox="0 0 20 20" fill="none" xmlns="http://www.w3.org/2000/svg">
<g clip-path="url(#clip0)">
<path d="M0.468726 6.95312C-0.165763 8.93483 -0.165763 11.0652 0.468726 13.0469L9.99998 13.4766L19.5312 13.0469C20.1657 11.0652 20.1657 8.93483 19.5312 6.95312L9.99998 6.52344L0.468726 6.95312Z" fill="#EEEEEE"/>
<path d="M19.5312 6.95312L10 6.52344L0.46875 6.95312C0.377536 7.23981 0.299331 7.53047 0.234375 7.82422H19.7656C19.7006 7.53177 19.6224 7.24241 19.5312 6.95703V6.95312ZM0.234375 12.1797C0.299404 12.4721 0.377609 12.7615 0.46875 13.0469H0.472656L10 13.4766L19.5312 13.0469C19.6225 12.7602 19.7007 12.4695 19.7656 12.1758H0.234375V12.1797Z" fill="#D80027"/>
<path d="M10 20C14.4609 20 18.2422 17.0781 19.5312 13.0469H0.46875C1.11544 15.0664 2.38714 16.8283 4.1003 18.078C5.81346 19.3278 7.87943 20.0008 10 20Z" fill="#6DA544"/>
<path d="M10 -2.82546e-05C5.53906 -2.82546e-05 1.75781 2.92185 0.46875 6.9531H19.5312C18.8851 4.93322 17.6135 3.17106 15.9002 1.92121C14.187 0.67136 12.1207 -0.00145455 10 -2.82546e-05Z" fill="#338AF3"/>
<path d="M4.57023 4.12899C4.56971 3.68321 4.7217 3.25066 5.00096 2.90319C5.28022 2.55572 5.66994 2.31423 6.10539 2.21883C5.96801 2.18958 5.82788 2.17518 5.68742 2.17587C5.41583 2.1801 5.14811 2.24095 4.90136 2.3545C4.65461 2.46806 4.43426 2.63184 4.25438 2.83537C4.07451 3.03891 3.93907 3.27772 3.85671 3.53656C3.77435 3.7954 3.74689 4.06857 3.77608 4.33863C3.80527 4.60868 3.89046 4.86967 4.02622 5.10494C4.16198 5.3402 4.34532 5.54457 4.56453 5.70497C4.78374 5.86537 5.034 5.97828 5.29931 6.0365C5.56462 6.09471 5.83917 6.09694 6.10539 6.04305C5.22648 5.84774 4.57023 5.06649 4.57023 4.12899ZM7.26555 5.01962L7.39445 5.42587H7.82414L7.47649 5.67977L7.6093 6.08602L7.26164 5.83602L6.91789 6.08602L7.0507 5.67977L6.69914 5.42587H7.12883L7.26555 5.01962ZM8.63274 5.01962L8.76555 5.42587H9.19524L8.84367 5.67977L8.97649 6.08602L8.63274 5.83602L8.28117 6.08602L8.41789 5.67977L8.07024 5.42587H8.49992L8.63274 5.01962ZM9.99993 5.01962L10.1327 5.42587H10.5624L10.2109 5.67977L10.3476 6.08602L9.99602 5.83602L9.65227 6.08602L9.78508 5.67977L9.43743 5.42587H9.86711L9.99993 5.01962ZM11.3671 5.01962L11.4999 5.42587H11.9296L11.5781 5.67977L11.7148 6.08602L11.3671 5.83602L11.0195 6.08602L11.1523 5.67977L10.8046 5.42587H11.2343L11.3671 5.01962ZM12.7343 5.01962L12.8671 5.42587H13.2968L12.9491 5.67977L13.082 6.08602L12.7343 5.83602L12.3866 6.08602L12.5195 5.67977L12.1757 5.42587H12.6054L12.7343 5.01962ZM8.63274 3.59774L8.76555 4.00399H9.19524L8.84367 4.2579L8.97649 4.66415L8.63274 4.41024L8.28117 4.66415L8.41789 4.2579L8.07024 4.00399H8.49992L8.63274 3.59774ZM9.99993 3.59774L10.1327 4.00399H10.5624L10.2109 4.2579L10.3476 4.66415L9.99602 4.41024L9.65227 4.66415L9.78508 4.2579L9.43743 4.00399H9.86711L9.99993 3.59774ZM11.3671 3.59774L11.4999 4.00399H11.9296L11.5781 4.2579L11.7148 4.66415L11.3671 4.41024L11.0195 4.66415L11.1523 4.2579L10.8046 4.00399H11.2343L11.3671 3.59774ZM12.7343 3.59774L12.8671 4.00399H13.2968L12.9491 4.2579L13.082 4.66415L12.7343 4.41024L12.3866 4.66415L12.5195 4.2579L12.1757 4.00399H12.6054L12.7343 3.59774ZM9.99993 2.17587L10.1327 2.58212H10.5624L10.2109 2.83212L10.3515 3.24227L9.99993 2.98837L9.65618 3.24227L9.78899 2.83212L9.44133 2.58212H9.87102L9.99993 2.17587ZM11.3671 2.17587L11.4999 2.58212H11.9296L11.5781 2.83212L11.7187 3.24227L11.371 2.98837L11.0234 3.24227L11.1562 2.83212L10.8085 2.58212H11.2382L11.3671 2.17587ZM12.7343 2.17587L12.8671 2.58212H13.2968L12.9491 2.83212L13.0859 3.24227L12.7382 2.98837L12.3906 3.24227L12.5234 2.83212L12.1796 2.58212H12.6093L12.7343 2.17587Z" fill="#EEEEEE"/>
</g>
<defs>
<clipPath id="clip0">
<rect width="20" height="20" fill="white"/>
</clipPath>
</defs>
</svg>
