<svg width="20" height="20" viewBox="0 0 20 20" fill="none" xmlns="http://www.w3.org/2000/svg">
<g clip-path="url(#clip0)">
<path d="M10 0C12.6522 0 15.1957 1.05357 17.0711 2.92893C18.9464 4.8043 20 7.34784 20 10C20 12.6522 18.9464 15.1957 17.0711 17.0711C15.1957 18.9464 12.6522 20 10 20C10 19.5664 8.69531 10 8.69531 10L10 0Z" fill="#EEEEEE"/>
<path d="M10 20C7.34784 20 4.8043 18.9464 2.92893 17.0711C1.05357 15.1957 0 12.6522 0 10C0 7.34784 1.05357 4.8043 2.92893 2.92893C4.8043 1.05357 7.34784 0 10 0" fill="#FFDA44"/>
<path d="M13.8281 8.70319L15.707 11.1876C15.5367 11.4437 15.4623 11.7518 15.4971 12.0574C15.5318 12.363 15.6734 12.6466 15.8969 12.8579C16.1204 13.0693 16.4114 13.1949 16.7185 13.2126C17.0256 13.2302 17.3291 13.1388 17.5753 12.9545C17.8215 12.7701 17.9947 12.5047 18.0643 12.2051C18.1339 11.9055 18.0953 11.5909 17.9555 11.3169C17.8156 11.0429 17.5835 10.8272 17.3 10.7077C17.0166 10.5883 16.7 10.5728 16.4063 10.6641L13.4766 6.78912L12.7852 7.31256L11.7422 8.10162L12.793 9.48834L13.832 8.70319H13.8281ZM16.5352 11.5587C16.5808 11.5243 16.6328 11.4992 16.6881 11.485C16.7435 11.4707 16.8011 11.4674 16.8576 11.4754C16.9142 11.4834 16.9687 11.5024 17.0179 11.5315C17.0671 11.5605 17.1102 11.5989 17.1445 11.6446C17.1789 11.6902 17.2039 11.7422 17.2182 11.7976C17.2325 11.8529 17.2358 11.9105 17.2278 11.9671C17.2198 12.0237 17.2007 12.0781 17.1717 12.1273C17.1427 12.1766 17.1043 12.2196 17.0586 12.254C16.9664 12.3234 16.8504 12.3533 16.7361 12.3372C16.6218 12.3211 16.5186 12.2602 16.4492 12.168C16.3798 12.0758 16.3499 11.9598 16.366 11.8455C16.3821 11.7313 16.443 11.6281 16.5352 11.5587Z" fill="#ACABB1"/>
<path d="M17.0547 9.48834L18.1016 8.10162L17.0625 7.31256L16.3672 6.78912L13.4375 10.6641C13.144 10.5716 12.8272 10.5859 12.5432 10.7043C12.2592 10.8228 12.0261 11.0379 11.8853 11.3115C11.7445 11.5851 11.7049 11.8997 11.7736 12.1997C11.8423 12.4997 12.0149 12.7657 12.2607 12.9508C12.5066 13.1359 12.81 13.2281 13.1173 13.2112C13.4245 13.1943 13.7159 13.0692 13.94 12.8582C14.164 12.6472 14.3062 12.3638 14.3415 12.0581C14.3768 11.7524 14.3029 11.4441 14.1328 11.1876L16.0078 8.70318L17.0547 9.48443V9.48834ZM13.3906 12.168C13.3563 12.2137 13.3132 12.2521 13.264 12.2811C13.2148 12.3102 13.1603 12.3292 13.1037 12.3372C13.0472 12.3452 12.9896 12.3419 12.9342 12.3277C12.8789 12.3134 12.8269 12.2883 12.7813 12.254C12.7356 12.2196 12.6972 12.1766 12.6681 12.1273C12.6391 12.0781 12.6201 12.0237 12.6121 11.9671C12.6041 11.9105 12.6073 11.8529 12.6216 11.7976C12.6359 11.7422 12.661 11.6902 12.6953 11.6446C12.7647 11.5524 12.8679 11.4915 12.9822 11.4754C13.0965 11.4593 13.2125 11.4892 13.3047 11.5587C13.3969 11.6281 13.4578 11.7313 13.4739 11.8455C13.49 11.9598 13.46 12.0758 13.3906 12.168Z" fill="#FFDA44"/>
</g>
<defs>
<clipPath id="clip0">
<rect width="20" height="20" fill="white"/>
</clipPath>
</defs>
</svg>
