<svg width="20" height="20" viewBox="0 0 20 20" fill="none" xmlns="http://www.w3.org/2000/svg">
<g clip-path="url(#clip0)">
<path d="M14.7812 1.21484C13.3633 0.441406 11.7344 0 10 0C8.26562 0 6.64062 0.441406 5.21875 1.21484L4.34766 10L5.21875 18.7852C6.63672 19.5586 8.26562 20 10 20C11.7344 20 13.3594 19.5586 14.7812 18.7852L15.6523 10L14.7812 1.21484Z" fill="#FFDA44"/>
<path d="M5.21874 18.7852V1.21094C3.63856 2.0702 2.31938 3.33977 1.4002 4.88588C0.481026 6.43198 -0.00411987 8.19739 -0.00411987 9.99609C-0.00411987 11.7948 0.481026 13.5602 1.4002 15.1063C2.31938 16.6524 3.63856 17.922 5.21874 18.7812V18.7852Z" fill="#338AF3"/>
<path d="M20 10.0001C20 6.21106 17.8906 2.91028 14.7813 1.21497V18.7892C16.3613 17.9291 17.68 16.6586 18.5985 15.1118C19.5169 13.565 20.0011 11.7991 20 10.0001ZM7.82422 12.6095L6.08594 10.0001L7.82422 7.39075L9.57032 10.0001L7.82422 12.6095ZM12.1758 12.6095L10.4297 10.0001L12.1719 7.39075L13.9102 10.0001L12.1758 12.6095ZM10 16.0861L8.26172 13.4767L10 10.8712L11.7383 13.4767L10 16.0861Z" fill="#6DA544"/>
</g>
<defs>
<clipPath id="clip0">
<rect width="20" height="20" fill="white"/>
</clipPath>
</defs>
</svg>
