<svg width="20" height="20" viewBox="0 0 20 20" fill="none" xmlns="http://www.w3.org/2000/svg">
<g clip-path="url(#clip0)">
<path d="M19.0078 14.3475C19.6445 13.0311 20 11.5585 20 9.99988C20 8.44128 19.6445 6.96863 19.0078 5.65222L10 4.78113L0.992188 5.65222C0.355469 6.96863 0 8.44128 0 9.99988C0 11.5585 0.355469 13.0311 0.992188 14.3475L10 15.2186L19.0078 14.3475Z" fill="#0052B4"/>
<path d="M9.99998 20.0001C11.8811 20.0005 13.7242 19.4704 15.3175 18.4705C16.9109 17.4707 18.19 16.0417 19.0078 14.3477H0.992172C1.81001 16.0417 3.08906 17.4707 4.68244 18.4705C6.27582 19.4704 8.11889 20.0005 9.99998 20.0001Z" fill="#D80027"/>
<path d="M17.3203 11.965L16.7891 12.3752L17.0235 13.0041L16.4649 12.6291L15.9375 13.047L16.1211 12.4025L15.5664 12.0275L16.2344 12.0041L16.418 11.3595L16.6524 11.9884L17.3203 11.965ZM15.9649 9.62125L15.6133 10.1877L16.043 10.7033L15.3906 10.5392L15.0391 11.1095L14.9883 10.4416L14.3399 10.2775L14.961 10.0275L14.9141 9.35953L15.3438 9.87125L15.9649 9.62125ZM13.8945 7.88297L13.7539 8.53922L14.336 8.86734L13.6719 8.93765L13.5313 9.5939L13.2578 8.98062L12.5938 9.05093L13.0899 8.60171L12.8164 7.99234L13.3945 8.32828L13.8945 7.88297ZM11.3555 6.95718L11.4453 7.62125L12.1094 7.73843L11.5039 8.0314L11.5977 8.69547L11.1289 8.21109L10.5274 8.50797L10.8399 7.91422L10.3789 7.43375L11.0391 7.55093L11.3555 6.95718ZM8.64845 6.95718L8.96095 7.54703L9.62501 7.42984L9.15626 7.91422L9.46876 8.50797L8.8672 8.21109L8.40236 8.69547L8.49611 8.0314L7.89455 7.73843L8.5547 7.62125L8.64845 6.95718ZM6.10939 7.88297L6.60548 8.33218L7.18361 7.99625L6.91017 8.60953L7.41017 9.05484L6.74611 8.98453L6.47267 9.59781L6.32814 8.94547L5.66408 8.87515L6.2422 8.54312L6.10939 7.88297ZM4.03517 9.62125L4.65627 9.87125L5.08595 9.35953L5.03908 10.0236L5.66408 10.2775L5.01173 10.4416L4.96486 11.1056L4.60939 10.5392L3.95705 10.7033L4.38673 10.1877L4.03517 9.62125ZM2.6797 11.965L3.35158 11.9845L3.58205 11.3595L3.76564 12.0002L4.43361 12.0236L3.87892 12.3986L4.06252 13.047L3.53517 12.633L2.98048 13.008L3.21095 12.383L2.6797 11.965Z" fill="#EEEEEE"/>
<path d="M19.0078 5.65232C18.1907 3.9574 16.9119 2.5274 15.3185 1.52666C13.725 0.525927 11.8816 -0.00494385 9.99998 -0.00494385C8.11837 -0.00494385 6.27492 0.525927 4.68149 1.52666C3.08807 2.5274 1.80931 3.9574 0.992172 5.65232H19.0078Z" fill="#FFDA44"/>
</g>
<defs>
<clipPath id="clip0">
<rect width="20" height="20" fill="white"/>
</clipPath>
</defs>
</svg>
