<svg width="20" height="20" viewBox="0 0 20 20" fill="none" xmlns="http://www.w3.org/2000/svg">
<path d="M20 10C20 12.6522 18.9464 15.1957 17.0711 17.0711C15.1957 18.9464 12.6522 20 10 20C7.34784 20 4.8043 18.9464 2.92893 17.0711C1.05357 15.1957 0 12.6522 0 10L10 0C12.6522 0 15.1957 1.05357 17.0711 2.92893C18.9464 4.8043 20 7.34784 20 10Z" fill="#0052B4"/>
<path d="M9.97264 10.0001H9.99998V9.97272L9.97264 10.0001Z" fill="#EEEEEE"/>
<path d="M10 5.21875V0C7.34784 0 4.8043 1.05357 2.92893 2.92893C1.05357 4.8043 0 7.34784 0 10H5.21875V7.0625L8.15625 10H9.97266L10 9.97266V8.15625L7.0625 5.21875H10Z" fill="#EEEEEE"/>
<path d="M5.05859 1.30457C3.49335 2.19666 2.19678 3.49323 1.30469 5.05847V9.99988H3.91406V3.91394H10V1.30457H5.05859Z" fill="#D80027"/>
<path d="M14.3477 10L11.6445 12.7031C11.9009 13.1989 12.2886 13.6147 12.7654 13.9049C13.2421 14.1952 13.7895 14.3487 14.3477 14.3487C14.9058 14.3487 15.4532 14.1952 15.93 13.9049C16.4067 13.6147 16.7945 13.1989 17.0508 12.7031L14.3477 10Z" fill="#FFDA44"/>
<path d="M10 8.76953L6.44533 5.21484H5.21877L10 10V8.76953Z" fill="#D80027"/>
<path d="M11.3047 5.2189V10.0002C11.3047 12.3283 14.3476 13.047 14.3476 13.047C14.3476 13.047 17.3945 12.3283 17.3945 10.0002V5.2189H11.3008H11.3047Z" fill="#6DA544"/>
<path d="M13.6953 7.39056H15V10.8671H13.6953V7.39056Z" fill="#EEEEEE"/>
<path d="M14.3477 8.04297C14.7079 8.04297 15 7.7509 15 7.39062C15 7.03035 14.7079 6.73828 14.3477 6.73828C13.9874 6.73828 13.6953 7.03035 13.6953 7.39062C13.6953 7.7509 13.9874 8.04297 14.3477 8.04297Z" fill="#A2001D"/>
<path d="M12.1758 6.086H13.043V6.95709H12.1758V6.086ZM12.1758 8.04303H13.043V8.91412H12.1758V8.04303ZM12.1758 10.0001H13.043V10.8711H12.1758V10.0001ZM15.6524 6.086H16.5235V6.95709H15.6524V6.086ZM15.6524 8.04303H16.5235V8.91412H15.6524V8.04303ZM15.6524 10.0001H16.5235V10.8711H15.6524V10.0001Z" fill="#FFDA44"/>
</svg>
