<svg width="20" height="20" viewBox="0 0 20 20" fill="none" xmlns="http://www.w3.org/2000/svg">
<path d="M10 20C15.5228 20 20 15.5228 20 10C20 4.47715 15.5228 0 10 0C4.47715 0 0 4.47715 0 10C0 15.5228 4.47715 20 10 20Z" fill="#EEEEEE"/>
<path d="M11.6992 6.98443C11.6992 6.53377 11.5202 6.10157 11.2015 5.78291C10.8829 5.46424 10.4507 5.28522 10 5.28522C9.54934 5.28522 9.11714 5.46424 8.79847 5.78291C8.47981 6.10157 8.30078 6.53377 8.30078 6.98443H4.57031C4.58155 7.43414 4.76866 7.86152 5.09146 8.17483C5.41426 8.48813 5.84703 8.6624 6.29687 8.66021H6.24219C6.24219 9.10362 6.41833 9.52887 6.73187 9.84241C7.04541 10.1559 7.47065 10.3321 7.91406 10.3321C7.91406 11.1485 8.5 11.8282 9.27734 11.9727L9.27344 11.9844H10.7344V11.9727C11.1164 11.9 11.4611 11.6964 11.7093 11.397C11.9574 11.0975 12.0933 10.721 12.0938 10.3321C12.3133 10.3321 12.5307 10.2888 12.7335 10.2048C12.9364 10.1208 13.1207 9.99766 13.2759 9.84241C13.4312 9.68716 13.5543 9.50285 13.6384 9.30001C13.7224 9.09717 13.7656 8.87977 13.7656 8.66021H13.7109C14.1608 8.6624 14.5936 8.48813 14.9164 8.17483C15.2392 7.86152 15.4263 7.43414 15.4375 6.98443H11.7031H11.6992Z" fill="#FFDA44"/>
<path d="M9.25394 11.8087L8.19925 14.1876C8.77107 14.4203 9.38266 14.5397 10 14.5391C10.6161 14.5392 11.2263 14.4198 11.7969 14.1876L10.7461 11.8087H9.25784H9.25394Z" fill="#FFDA44"/>
<path d="M7.8242 7.82025V10.7499C7.8242 12.4101 9.99998 12.9218 9.99998 12.9218C9.99998 12.9218 12.1758 12.414 12.1758 10.746V7.82025H7.8242Z" fill="#EEEEEE"/>
<path d="M2.42186 10.0704L3.60545 13.3594L4.76952 10.0704H5.65624L3.96092 14.418H3.24217L1.53514 10.0704H2.42577H2.42186ZM16.0859 14.418V10.0704H16.9336V14.418H16.0859Z" fill="#338AF3"/>
<path d="M8.69528 8.76569V12.3126C8.96415 12.5058 9.25696 12.6634 9.56638 12.7813V8.76178H8.69528V8.76569ZM11.3047 8.76569V12.3126C11.0358 12.5058 10.743 12.6634 10.4336 12.7813V8.76178H11.3047V8.76569Z" fill="#D80027"/>
<path d="M7.8242 7.82025H12.1758V9.19916H7.8242V7.82025Z" fill="#0052B4"/>
</svg>
