<svg width="20" height="20" viewBox="0 0 20 20" fill="none" xmlns="http://www.w3.org/2000/svg">
<g clip-path="url(#clip0)">
<path d="M20 10C19.9996 9.5637 19.9709 9.12789 19.9141 8.69531H8.69535L2.92972 2.92969C1.05482 4.80499 0.00154495 7.34821 0.00154495 10C0.00154495 12.6518 1.05482 15.195 2.92972 17.0703L8.69535 11.3047H19.9141C19.9709 10.8721 19.9996 10.4363 20 10Z" fill="#333333"/>
<path d="M20 10.2267L19.9961 10.2853V10.2267H20ZM19.9883 10.5002L19.9844 10.5587V10.5002H19.9883ZM19.9727 10.7189L19.9688 10.8048L19.9727 10.7189ZM19.9414 8.91031C19.9414 8.94547 19.9492 8.97671 19.9531 9.01187L19.9414 8.91031ZM19.9688 9.19546L19.9727 9.2814L19.9688 9.19546Z" fill="#EEEEEE"/>
<path d="M19.9141 8.69525L19.9297 8.79681C19.7042 6.93497 18.9597 5.17406 17.7811 3.71517C16.6026 2.25628 15.0375 1.15821 13.2647 0.546355C11.4919 -0.0655012 9.58268 -0.166484 7.75519 0.254938C5.9277 0.67636 4.25555 1.6032 2.92969 2.92962L8.69531 8.69525H19.9141Z" fill="#D80027"/>
<path d="M19.9141 11.3046H8.69531L2.92969 17.0703C4.25581 18.3968 5.92828 19.3236 7.75606 19.7448C9.58385 20.166 11.4933 20.0647 13.2662 19.4524C15.0392 18.8401 16.6041 17.7415 17.7824 16.2821C18.9607 14.8227 19.7048 13.0613 19.9297 11.1992L19.9141 11.3046Z" fill="#6DA544"/>
<path d="M19.9531 10.9883L19.9414 11.0899C19.9414 11.0548 19.9492 11.0235 19.9531 10.9883Z" fill="#EEEEEE"/>
<path d="M19.9922 9.56238H8.32814L2.33595 3.57019C2.14064 3.77722 1.93361 4.06238 1.8047 4.2655L7.53127 9.99597L1.8047 15.7303C1.91798 15.9335 2.16408 16.2303 2.33986 16.4257L8.32814 10.4296H19.9922C20 10.285 20 10.1405 20 9.99988C20.0007 9.854 19.9981 9.70813 19.9922 9.56238Z" fill="#FFDA44"/>
<path d="M2.42972 12.1327V11.2889C2.83169 11.2889 3.2172 11.1293 3.50143 10.845C3.78567 10.5608 3.94535 10.1753 3.94535 9.77332C3.94226 9.49045 3.82772 9.22022 3.6266 9.02129C3.42548 8.82236 3.15401 8.7108 2.87113 8.71082C2.6774 8.71082 2.4916 8.78778 2.35461 8.92476C2.21762 9.06175 2.14066 9.24755 2.14066 9.44128C2.14066 9.5656 2.19005 9.68483 2.27795 9.77274C2.36586 9.86065 2.48509 9.91003 2.60941 9.91003C2.75394 9.91003 2.87503 9.78894 2.87503 9.64441H3.71097C3.70994 9.93588 3.59342 10.2151 3.38695 10.4208C3.18048 10.6265 2.90089 10.7421 2.60941 10.7421C1.89066 10.7421 1.30472 10.1561 1.30472 9.43738C1.30472 8.57019 2.00785 7.86707 2.87113 7.86707C3.12249 7.86707 3.37138 7.91657 3.60361 8.01276C3.83583 8.10896 4.04684 8.24994 4.22457 8.42768C4.40231 8.60542 4.5433 8.81642 4.63949 9.04865C4.73568 9.28087 4.78519 9.52977 4.78519 9.78113C4.78519 11.0741 3.7305 12.1327 2.42972 12.1327Z" fill="#FFDA44"/>
</g>
<defs>
<clipPath id="clip0">
<rect width="20" height="20" fill="white"/>
</clipPath>
</defs>
</svg>
