<svg width="20" height="20" viewBox="0 0 20 20" fill="none" xmlns="http://www.w3.org/2000/svg">
<g clip-path="url(#clip0)">
<path d="M20 10C20 12.6522 18.9464 15.1957 17.0711 17.0711C15.1957 18.9464 12.6522 20 10 20C7.34784 20 4.8043 18.9464 2.92893 17.0711C1.05357 15.1957 0 12.6522 0 10L10 0C12.6522 0 15.1957 1.05357 17.0711 2.92893C18.9464 4.8043 20 7.34784 20 10Z" fill="#D80027"/>
<path d="M10 10V0C7.34784 0 4.8043 1.05357 2.92893 2.92893C1.05357 4.8043 0 7.34784 0 10H10Z" fill="#0052B4"/>
<path d="M8.00785 6.5235L8.17191 7.01959H8.69535L8.27347 7.32819L8.43363 7.82428L8.01175 7.51959L7.58597 7.82428L7.74613 7.32819L7.32425 7.01959H7.84769L8.00785 6.5235ZM5.38285 2.60944L5.65628 3.43756H6.52347L5.81644 3.95319L6.08597 4.78131L5.37894 4.26959L4.67582 4.78131L4.94144 3.95319L4.23832 3.43756H5.10941L5.38285 2.60944ZM7.98832 3.47662L8.25785 4.30865H9.12894L8.42581 4.82037L8.69535 5.6524L7.98832 5.14069L7.28128 5.6524L7.55472 4.82037L6.84378 4.30865H7.71878L7.98832 3.47662ZM5.92582 6.95319L6.19535 7.78522H7.07035L6.36331 8.30084L6.63285 9.12897L5.92582 8.61725L5.22269 9.12897L5.48832 8.30084L4.78519 7.78522H5.65628L5.92582 6.95319ZM3.64066 4.78131L3.91019 5.61334H4.78128L4.07816 6.12506L4.34769 6.95709L3.64066 6.44147L2.92972 6.95709L3.19925 6.12506L2.49613 5.61334H3.36722L3.64066 4.78131Z" fill="#EEEEEE"/>
</g>
<defs>
<clipPath id="clip0">
<rect width="20" height="20" fill="white"/>
</clipPath>
</defs>
</svg>
