<svg width="20" height="20" viewBox="0 0 20 20" fill="none" xmlns="http://www.w3.org/2000/svg">
<path d="M10 20C15.5228 20 20 15.5228 20 10C20 4.47715 15.5228 0 10 0C4.47715 0 0 4.47715 0 10C0 15.5228 4.47715 20 10 20Z" fill="#0052B4"/>
<path d="M4.39063 6.08582L4.60938 6.74988H5.30859L4.74219 7.16004L4.95703 7.8241L4.39063 7.41394L3.82812 7.8241L4.04297 7.16004L3.47656 6.74988H4.17969L4.39063 6.08582ZM6.56641 5.43347L6.78125 6.09754H7.48438L6.91406 6.50769L7.13281 7.17176L6.56641 6.7616L6 7.17566L6.21875 6.5116L5.65234 6.09754H6.35156L6.56641 5.43347ZM8.74219 4.78113L8.95703 5.44519H9.65625L9.08984 5.85925L9.30469 6.52332L8.74219 6.10925L8.17578 6.52332L8.39062 5.85925L7.82422 5.44519H8.52734L8.74219 4.78113ZM15.6094 6.08582L15.3906 6.74988H14.6914L15.2578 7.16004L15.043 7.8241L15.6094 7.41394L16.1719 7.8241L15.957 7.16004L16.5234 6.74988H15.8203L15.6094 6.08582ZM13.4336 5.43347L13.2188 6.09754H12.5156L13.0859 6.50769L12.8672 7.17176L13.4336 6.7616L14 7.17566L13.7812 6.5116L14.3477 6.09754H13.6484L13.4336 5.43347ZM11.2578 4.78113L11.043 5.44519H10.3437L10.9102 5.85925L10.6953 6.52332L11.2578 6.10925L11.8242 6.52332L11.6094 5.85925L12.1758 5.44519H11.4727L11.2578 4.78113Z" fill="#EEEEEE"/>
<path d="M11.7382 10.4336L9.99996 8.26172L9.12887 8.69531V9.57031L7.82418 10.4297H6.95699V11.5625C7.59876 11.8223 8.14832 12.2679 8.53527 12.842C8.92221 13.4162 9.12891 14.0928 9.12887 14.7852H9.99996V13.918L10.8711 13.0469L11.7382 13.918L12.6093 13.0469V12.1797L13.4765 10.875L11.7382 10.4375V10.4336Z" fill="#FFDA44"/>
</svg>
