<svg width="20" height="20" viewBox="0 0 20 20" fill="none" xmlns="http://www.w3.org/2000/svg">
<path d="M10 20C15.5228 20 20 15.5228 20 10C20 4.47715 15.5228 0 10 0C4.47715 0 0 4.47715 0 10C0 15.5228 4.47715 20 10 20Z" fill="#EEEEEE"/>
<path d="M9.88281 16.0938C10.5732 16.0938 11.1328 15.5341 11.1328 14.8438C11.1328 14.1534 10.5732 13.5938 9.88281 13.5938C9.19246 13.5938 8.63281 14.1534 8.63281 14.8438C8.63281 15.5341 9.19246 16.0938 9.88281 16.0938Z" fill="#ACABB1"/>
<path d="M12.5938 5.29291C11.9844 4.76166 11.1329 4.49994 10.0352 4.49994C8.94535 4.49994 8.08598 4.78119 7.45707 5.33588C7.15707 5.61076 6.9177 5.94519 6.75426 6.31781C6.59082 6.69044 6.50689 7.09305 6.50785 7.49994H6.50004V7.99994H8.75004L8.75395 7.64838C8.7443 7.29048 8.87463 6.94293 9.11723 6.67963C9.34379 6.44135 9.65238 6.32807 10.0352 6.32807C10.8438 6.32807 11.2461 6.75775 11.2461 7.63275C11.2461 7.92182 11.168 8.19916 11.0118 8.45697C10.7505 8.83826 10.4362 9.18025 10.0782 9.4726C9.66349 9.81402 9.33217 10.2455 9.10941 10.7343C8.93363 11.164 8.84379 11.7773 8.84379 12.4999H10.836L10.8672 11.9882C10.9243 11.4794 11.1645 11.0088 11.543 10.664L12.1758 10.0703C12.5875 9.69666 12.9358 9.25867 13.2071 8.77338C13.4034 8.38882 13.5052 7.96297 13.5039 7.53119C13.5 6.56635 13.1993 5.82416 12.5938 5.29291Z" fill="#ACABB1"/>
</svg>
