<svg width="20" height="20" viewBox="0 0 20 20" fill="none" xmlns="http://www.w3.org/2000/svg">
<path d="M10 20C15.5228 20 20 15.5228 20 10C20 4.47715 15.5228 0 10 0C4.47715 0 0 4.47715 0 10C0 15.5228 4.47715 20 10 20Z" fill="#EEEEEE"/>
<path d="M16.2266 2.172H3.77345C2.85928 2.9011 2.07936 3.78414 1.46877 4.78137H18.5313C17.9206 3.78419 17.1407 2.90116 16.2266 2.172ZM3.77345 17.8282H16.2266C17.1407 17.0991 17.9207 16.2161 18.5313 15.2189H1.46877C2.07979 16.2147 2.85969 17.0963 3.77345 17.8243V17.8282ZM9.51173 6.71887L9.82423 7.14856V8.77356C9.5095 8.72677 9.22202 8.56853 9.01412 8.32765C8.80622 8.08677 8.69171 7.77925 8.69142 7.46106L8.96486 7.03137H7.9883L8.3008 7.46106C8.30094 7.88298 8.45627 8.29011 8.73721 8.6049C9.01814 8.91969 9.40505 9.12015 9.82423 9.16809V9.94934C9.19763 9.90024 8.61251 9.61691 8.18541 9.15579C7.75831 8.69467 7.52057 8.08959 7.51955 7.46106L7.79298 7.03137H6.81642L7.12892 7.46106C7.12923 8.19368 7.40771 8.89886 7.90805 9.43401C8.4084 9.96917 9.09328 10.2944 9.82423 10.3439V11.1251C8.88599 11.0751 8.00259 10.6674 7.35588 9.9858C6.70917 9.30421 6.34834 8.40064 6.34767 7.46106L6.62111 7.03137H5.64455L5.95705 7.46106C5.95785 8.50415 6.35984 9.50697 7.07976 10.2618C7.79967 11.0166 8.78235 11.4656 9.82423 11.5157V12.9689L7.91017 13.3986V13.672H12.1289V13.3986L10.2149 12.9689V11.5118C11.2561 11.4617 12.2382 11.0133 12.958 10.2593C13.6778 9.50531 14.0802 8.50347 14.082 7.46106L14.3555 7.03137H13.3789L13.6914 7.46106C13.6908 8.40064 13.3299 9.30421 12.6832 9.9858C12.0365 10.6674 11.1531 11.0751 10.2149 11.1251V10.3439C10.9458 10.2944 11.6307 9.96917 12.131 9.43401C12.6314 8.89886 12.9099 8.19368 12.9102 7.46106L13.1836 7.03137H12.207L12.5195 7.46106C12.5195 8.09026 12.2822 8.69631 11.855 9.15826C11.4278 9.62021 10.8421 9.90409 10.2149 9.95325V9.16809C10.634 9.12015 11.021 8.91969 11.3019 8.6049C11.5828 8.29011 11.7382 7.88298 11.7383 7.46106L12.0117 7.03137H11.0352L11.3477 7.46106C11.3474 7.77925 11.2329 8.08677 11.025 8.32765C10.8171 8.56853 10.5296 8.72677 10.2149 8.77356V7.14856L10.4883 6.71887H9.51173Z" fill="#333333"/>
</svg>
