<svg width="20" height="20" viewBox="0 0 20 20" fill="none" xmlns="http://www.w3.org/2000/svg">
<g clip-path="url(#clip0)">
<path d="M10 20C15.5228 20 20 15.5228 20 10C20 4.47715 15.5228 0 10 0C4.47715 0 0 4.47715 0 10C0 15.5228 4.47715 20 10 20Z" fill="#EEEEEE"/>
<path d="M2.92967 17.0703C1.05477 15.195 0.00149536 12.6518 0.00149536 10C0.00149536 7.34821 1.05477 4.80499 2.92967 2.92969L8.6953 10L2.92967 17.0703Z" fill="#333333"/>
<path d="M8.69531 10L1.32812 5.01953C1.0978 5.41908 0.895491 5.83414 0.722656 6.26172L4.45312 10L0.722656 13.7383C0.895457 14.1659 1.09777 14.5809 1.32812 14.9805L8.69531 10Z" fill="#FFDA44"/>
<path d="M19.9141 8.69531H8.6953L2.92967 2.92969C2.30639 3.55297 1.7679 4.25563 1.32811 5.01953L6.29686 10L1.3242 14.9805C1.7652 15.7446 2.30501 16.4473 2.92967 17.0703L8.6992 11.3047H19.918C19.9735 10.872 20.0009 10.4362 20 10C20 9.55859 19.9726 9.12109 19.9141 8.69531Z" fill="#6DA544"/>
<path d="M3.91017 17.9296C5.21339 18.9298 6.74296 19.5936 8.36365 19.8622C9.98435 20.1308 11.6463 19.9959 13.2025 19.4696C14.7587 18.9433 16.1612 18.0417 17.2862 16.8444C18.4111 15.6472 19.2238 14.1913 19.6524 12.6054H9.2383L3.91017 17.9374V17.9296Z" fill="#0052B4"/>
<path d="M19.6563 7.39047C19.2272 5.80487 18.4142 4.34938 17.2891 3.15263C16.1639 1.95588 14.7613 1.05472 13.2051 0.528795C11.649 0.00287285 9.98726 -0.131616 8.36679 0.137214C6.74633 0.406045 5.21704 1.06992 3.91408 2.07016L9.23439 7.39437H19.6563V7.39047Z" fill="#D80027"/>
</g>
<defs>
<clipPath id="clip0">
<rect width="20" height="20" fill="white"/>
</clipPath>
</defs>
</svg>
