<svg width="20" height="20" viewBox="0 0 20 20" fill="none" xmlns="http://www.w3.org/2000/svg">
<path d="M10 20C15.5228 20 20 15.5228 20 10C20 4.47715 15.5228 0 10 0C4.47715 0 0 4.47715 0 10C0 15.5228 4.47715 20 10 20Z" fill="#496E2D"/>
<path d="M13.9141 10H10V20C11.1719 20 12.2891 19.7969 13.332 19.4297L13.9141 10Z" fill="#D80027"/>
<path d="M16.6679 17.4531C17.7177 16.5162 18.5573 15.3677 19.1316 14.0832C19.7059 12.7986 20.0018 11.4071 20 10H16.0859L16.6679 17.4531Z" fill="#FF9811"/>
<path d="M13.332 10V19.4297C14.5623 18.9949 15.6956 18.3234 16.668 17.4531V10H13.332Z" fill="#333333"/>
<path d="M18.4766 6.52338H15.8711C15.8711 6.29235 15.7793 6.07078 15.616 5.90742C15.4526 5.74406 15.231 5.65228 15 5.65228C14.769 5.65228 14.5474 5.74406 14.384 5.90742C14.2207 6.07078 14.1289 6.29235 14.1289 6.52338H11.5234C11.5315 6.7562 11.6298 6.97677 11.7974 7.13856C11.965 7.30035 12.1889 7.3907 12.4219 7.39056H12.3906C12.3906 7.87103 12.7812 8.26166 13.2617 8.26166C13.2617 8.74213 13.6523 9.12885 14.1289 9.12885H15.8711C16.3516 9.12885 16.7383 8.73822 16.7383 8.26166C17.2188 8.26166 17.6094 7.87103 17.6094 7.39056H17.5781C17.8111 7.3907 18.035 7.30035 18.2026 7.13856C18.3702 6.97677 18.4685 6.7562 18.4766 6.52338Z" fill="#FF9811"/>
</svg>
