<svg width="20" height="20" viewBox="0 0 20 20" fill="none" xmlns="http://www.w3.org/2000/svg">
<g clip-path="url(#clip0)">
<path d="M10 20C15.5228 20 20 15.5228 20 10C20 4.47715 15.5228 0 10 0C4.47715 0 0 4.47715 0 10C0 15.5228 4.47715 20 10 20Z" fill="#EEEEEE"/>
<path d="M19.043 5.7265C18.5372 4.65942 17.8469 3.69009 17.0039 2.86322L10 2.17572L2.99609 2.86322L2.92969 2.92963L5.72656 5.7265L10 5.85541L19.043 5.7265ZM2.92969 17.0703L3.03906 17.1796L10 17.8242L16.9609 17.1796C17.8047 16.3593 18.5078 15.3906 19.0234 14.3163L6.08594 13.914L2.92969 17.0703Z" fill="#FFDA44"/>
<path d="M19.9023 8.59375L8.26172 8.26172L10 10L8.26172 11.7383L19.8945 11.4531C19.9647 10.9719 19.9999 10.4863 20 10C20.0003 9.52955 19.9677 9.05965 19.9023 8.59375Z" fill="#333333"/>
<path d="M10 -5.39431e-05C7.27347 -5.39431e-05 4.80081 1.0937 2.99612 2.86323H17.0039C15.1363 1.02543 12.6202 -0.00317726 10 -5.39431e-05Z" fill="#6DA544"/>
<path d="M8.59375 8.5939H19.9023C19.7624 7.60024 19.4727 6.63353 19.043 5.72672H5.72656L8.58984 8.59L8.59375 8.5939ZM5.68359 14.3166H19.0234C19.4568 13.4116 19.7505 12.4462 19.8945 11.4533H8.54688L5.68359 14.3166Z" fill="#D80027"/>
<path d="M9.99997 20.0001C12.707 20.0001 15.1562 18.9258 16.9609 17.1797H3.03903C4.90269 18.9918 7.40062 20.0038 9.99997 20.0001Z" fill="#6DA544"/>
<path d="M3.57031 2.34375C3.34845 2.52977 3.13471 2.72526 2.92969 2.92969L10 10L2.92969 17.0703C3.1347 17.2748 3.34844 17.4702 3.57031 17.6562L11.2266 10L3.57031 2.34375Z" fill="#333333"/>
<path d="M4.02347 7.39056L4.668 9.38275H6.76175L5.06644 10.6171L5.71487 12.6093L4.01956 11.3789L2.32425 12.6093L2.97269 10.6171L1.27737 9.38275H3.37112L4.02347 7.39056Z" fill="#D80027"/>
<path d="M5.80081 10.1642L4.11331 9.56652L3.9805 8.35559C3.96372 8.26949 3.92976 8.18766 3.88063 8.115C3.83151 8.04233 3.76823 7.98032 3.69459 7.93266C3.62095 7.88501 3.53846 7.8527 3.45204 7.83766C3.36563 7.82262 3.27706 7.82517 3.19166 7.84514C3.10625 7.86511 3.02574 7.9021 2.95496 7.9539C2.88417 8.0057 2.82456 8.07125 2.77968 8.14661C2.73481 8.22198 2.7056 8.30562 2.69379 8.39254C2.68198 8.47945 2.68783 8.56786 2.71097 8.65246L2.24222 9.12512H3.08206C3.08206 10.0001 2.42972 10.0001 2.42972 10.8712L2.78909 11.7384H4.96487L5.32815 10.8712C5.36343 10.7892 5.38583 10.7022 5.39456 10.6134C5.70706 10.4884 5.80081 10.1642 5.80081 10.1642Z" fill="#FFDA44"/>
</g>
<defs>
<clipPath id="clip0">
<rect width="20" height="20" fill="white"/>
</clipPath>
</defs>
</svg>
