<svg xmlns="http://www.w3.org/2000/svg" width="224" height="106" viewBox="0 0 224 106">
  <g fill="none" fill-rule="evenodd" transform="translate(84 -1)">
    <g transform="translate(0 49)">
      <rect width="57" height="56" fill="#474747" rx="14"/>
      <path fill="#212121" d="M18.5861429,36 C18.4248087,35.4719974 18.2451439,34.9293361 18.0471429,34.372 C17.8491419,33.8146639 17.6548105,33.2573361 17.4641429,32.7 L11.5241429,32.7 C11.3334752,33.2573361 11.1391439,33.8146639 10.9411429,34.372 C10.7431419,34.9293361 10.563477,35.4719974 10.4021429,36 L6.83814287,36 C7.41014573,34.3573251 7.95280697,32.8393403 8.46614287,31.446 C8.97947877,30.0526597 9.48180708,28.7400062 9.97314287,27.508 C10.4644787,26.2759938 10.9484738,25.1063389 11.4251429,23.999 C11.9018119,22.8916611 12.396807,21.8100053 12.9101429,20.754 L16.1881429,20.754 C16.686812,21.8100053 17.1781404,22.8916611 17.6621429,23.999 C18.1461453,25.1063389 18.6338071,26.2759938 19.1251429,27.508 C19.6164787,28.7400062 20.118807,30.0526597 20.6321429,31.446 C21.1454788,32.8393403 21.68814,34.3573251 22.2601429,36 L18.5861429,36 Z M14.4721429,24.208 C14.3988092,24.4280011 14.2888103,24.7286648 14.1421429,25.11 C13.9954755,25.4913352 13.8268105,25.9313308 13.6361429,26.43 C13.4454752,26.9286692 13.2364773,27.4786637 13.0091429,28.08 C12.7818084,28.6813363 12.5508107,29.3119967 12.3161429,29.972 L16.6501429,29.972 C16.415475,29.3119967 16.188144,28.6813363 15.9681429,28.08 C15.7481418,27.4786637 15.5391439,26.9286692 15.3411429,26.43 C15.1431419,25.9313308 14.9708103,25.4913352 14.8241429,25.11 C14.6774755,24.7286648 14.5601433,24.4280011 14.4721429,24.208 Z M29.0047143,20.578 C31.278059,20.578 33.0233749,20.9776627 34.2407143,21.777 C35.4580537,22.5763373 36.0667143,23.8853242 36.0667143,25.704 C36.0667143,27.5373425 35.4507204,28.8609959 34.2187143,29.675 C32.9867081,30.4890041 31.2267257,30.896 28.9387143,30.896 L27.8607143,30.896 L27.8607143,36 L24.4287143,36 L24.4287143,20.974 C25.176718,20.8273326 25.9687101,20.724667 26.8047143,20.666 C27.6407185,20.607333 28.3740445,20.578 29.0047143,20.578 Z M29.2247143,23.504 C28.9753797,23.504 28.7297155,23.5113333 28.4877143,23.526 C28.2457131,23.5406667 28.0367152,23.5553333 27.8607143,23.57 L27.8607143,27.97 L28.9387143,27.97 C30.1267202,27.97 31.0213779,27.8086683 31.6227143,27.486 C32.2240506,27.1633317 32.5247143,26.5620044 32.5247143,25.682 C32.5247143,25.2566645 32.4477151,24.9046681 32.2937143,24.626 C32.1397135,24.3473319 31.9197157,24.1236675 31.6337143,23.955 C31.3477129,23.7863325 30.999383,23.6690003 30.5887143,23.603 C30.1780456,23.5369997 29.7233834,23.504 29.2247143,23.504 Z M43.3612857,20.578 C45.6346304,20.578 47.3799463,20.9776627 48.5972857,21.777 C49.8146251,22.5763373 50.4232857,23.8853242 50.4232857,25.704 C50.4232857,27.5373425 49.8072919,28.8609959 48.5752857,29.675 C47.3432796,30.4890041 45.5832972,30.896 43.2952857,30.896 L42.2172857,30.896 L42.2172857,36 L38.7852857,36 L38.7852857,20.974 C39.5332895,20.8273326 40.3252815,20.724667 41.1612857,20.666 C41.9972899,20.607333 42.7306159,20.578 43.3612857,20.578 Z M43.5812857,23.504 C43.3319511,23.504 43.0862869,23.5113333 42.8442857,23.526 C42.6022845,23.5406667 42.3932866,23.5553333 42.2172857,23.57 L42.2172857,27.97 L43.2952857,27.97 C44.4832917,27.97 45.3779494,27.8086683 45.9792857,27.486 C46.5806221,27.1633317 46.8812857,26.5620044 46.8812857,25.682 C46.8812857,25.2566645 46.8042865,24.9046681 46.6502857,24.626 C46.4962849,24.3473319 46.2762871,24.1236675 45.9902857,23.955 C45.7042843,23.7863325 45.3559544,23.6690003 44.9452857,23.603 C44.534617,23.5369997 44.0799549,23.504 43.5812857,23.504 Z"/>
    </g>
    <g transform="translate(66)">
      <path stroke="#474747" d="M40.5,5 C40.5,5 45,31.5 33.5,51 C22,70.5 0.5,77 0.5,77"/>
      <polygon fill="#474747" points="40.601 1 45.101 8 36.101 8" transform="rotate(-6 40.601 4.5)"/>
    </g>
  </g>
</svg>
